  0
SECTION
  2
HEADER
  9
$ANGBASE
  50
0.0
  9
$ANGDIR
  70
1
  9
$MEASUREMENT
  70
0
  9
$INSUNITS
  70
1
  0
ENDSEC
  0
SECTION
  2
TABLES
  0
TABLE
  2
LTYPE
  70
4
  0
LTYPE
  5
40F
  2
CONTINUOUS
  70
0
  3
Solid line
  72
65
  73
0
  40
0.0
  0
LTYPE
  5
410
  2
DASHDOT
 70
0
  3
Dash Dot ____ _ ____ _
 72
65
 73
4
 40
2.0
 49
1.25
 49
-0.25
 49
0.25
 49
-0.25
  0
LTYPE
  5
411
  2
DASHED
 70
0
  3
Dashed __ __ __ __ __
 72
65
 73
2
 40
0.75
 49
0.5
 49
-0.25
  0
LTYPE
  5
43B
  2
DOTTED
 70
0
  3
Dotted .  .  .  .
 72
65
 73
2
 40
0.2
 49
0.0
 49
-0.2
  0
ENDTAB
  0
TABLE
  2
STYLE
  70
4
  0
STYLE
  2
KICAD
  70
0
  40
0
  41
1
  42
1
  50
0
  71
0
  3
isocp.shx
  0
STYLE
  2
KICADB
  70
0
  40
0
  41
1
  42
1
  50
0
  71
0
  3
isocp.shx
  0
STYLE
  2
KICADI
  70
0
  40
0
  41
1
  42
1
  50
15
  71
0
  3
isocp.shx
  0
STYLE
  2
KICADBI
  70
0
  40
0
  41
1
  42
1
  50
15
  71
0
  3
isocp.shx
  0
ENDTAB
  0
TABLE
  2
LAYER
  70
1
  0
LAYER
  2
BLACK
  70
0
  62
250
  6
CONTINUOUS
  0
ENDTAB
  0
ENDSEC
  0
SECTION
  2
ENTITIES
0
CIRCLE
8
BLACK
10
-0.2013453543307087
20
3.6417322834645667
40
0.0068897637795276
0
CIRCLE
8
BLACK
10
-0.1013453543307087
20
3.6417322834645667
40
0.0068897637795276
0
CIRCLE
8
BLACK
10
-1.1299212598425197
20
0.7874015748031495
40
0.0068897637795276
0
CIRCLE
8
BLACK
10
0.5364499212598425
20
3.2165354330708662
40
0.0068897637795276
0
CIRCLE
8
BLACK
10
0.3986546456692913
20
3.2165354330708662
40
0.0068897637795276
0
CIRCLE
8
BLACK
10
1.0055118110236221
20
0.2188976377952756
40
0.0068897637795276
0
CIRCLE
8
BLACK
10
0.5055118110236221
20
0.2188976377952756
40
0.0068897637795276
0
CIRCLE
8
BLACK
10
0.8956692913385826
20
0.3188976377952756
40
0.0068897637795276
0
CIRCLE
8
BLACK
10
0.8556692913385826
20
0.3889764173228346
40
0.0068897637795276
0
CIRCLE
8
BLACK
10
0.8156692913385827
20
0.3188976377952756
40
0.0068897637795276
0
CIRCLE
8
BLACK
10
0.7756692913385826
20
0.3889764173228346
40
0.0068897637795276
0
CIRCLE
8
BLACK
10
0.7356692913385826
20
0.3188976377952756
40
0.0068897637795276
0
CIRCLE
8
BLACK
10
0.6956692913385827
20
0.3889764173228346
40
0.0068897637795276
0
CIRCLE
8
BLACK
10
0.6556692913385826
20
0.3188976377952756
40
0.0068897637795276
0
CIRCLE
8
BLACK
10
0.6156693307086614
20
0.3889763779527559
40
0.0068897637795276
0
CIRCLE
8
BLACK
10
1.0255905511811023
20
0.5787401574803149
40
0.0068897637795276
0
CIRCLE
8
BLACK
10
0.9354330708661417
20
0.5787401574803149
40
0.0068897637795276
0
CIRCLE
8
BLACK
10
0.5755905511811024
20
0.5787401574803149
40
0.0068897637795276
0
CIRCLE
8
BLACK
10
0.4854330708661417
20
0.5787401574803149
40
0.0068897637795276
0
CIRCLE
8
BLACK
10
1.0755905511811024
20
0.3539370078740157
40
0.0068897637795276
0
CIRCLE
8
BLACK
10
0.4354330708661417
20
0.3539370078740157
40
0.0068897637795276
0
CIRCLE
8
BLACK
10
-0.2013453543307087
20
3.9448818897637796
40
0.0068897637795276
0
CIRCLE
8
BLACK
10
-0.1013453543307087
20
3.9448818897637796
40
0.0068897637795276
0
CIRCLE
8
BLACK
10
-1.3218503937007873
20
4.4891732283464565
40
0.0068897637795276
0
CIRCLE
8
BLACK
10
-1.2218503937007874
20
4.4891732283464565
40
0.0068897637795276
0
CIRCLE
8
BLACK
10
-1.3218503937007873
20
4.3891732283464568
40
0.0068897637795276
0
CIRCLE
8
BLACK
10
-1.2218503937007874
20
4.3891732283464568
40
0.0068897637795276
0
CIRCLE
8
BLACK
10
-1.3218503937007873
20
4.2891732283464563
40
0.0068897637795276
0
CIRCLE
8
BLACK
10
-1.2218503937007874
20
4.2891732283464563
40
0.0068897637795276
0
CIRCLE
8
BLACK
10
-1.3218503937007873
20
4.1891732283464567
40
0.0068897637795276
0
CIRCLE
8
BLACK
10
-1.2218503937007874
20
4.1891732283464567
40
0.0068897637795276
0
CIRCLE
8
BLACK
10
-1.3218503937007873
20
4.089173228346457
40
0.0068897637795276
0
CIRCLE
8
BLACK
10
-1.2218503937007874
20
4.089173228346457
40
0.0068897637795276
0
CIRCLE
8
BLACK
10
-1.3218503937007873
20
3.9891732283464565
40
0.0068897637795276
0
CIRCLE
8
BLACK
10
-1.2218503937007874
20
3.9891732283464565
40
0.0068897637795276
0
CIRCLE
8
BLACK
10
-1.3218503937007873
20
3.8891732283464564
40
0.0068897637795276
0
CIRCLE
8
BLACK
10
-1.2218503937007874
20
3.8891732283464564
40
0.0068897637795276
0
CIRCLE
8
BLACK
10
-1.3218503937007873
20
3.7891732283464568
40
0.0068897637795276
0
CIRCLE
8
BLACK
10
-1.2218503937007874
20
3.7891732283464568
40
0.0068897637795276
0
CIRCLE
8
BLACK
10
-1.3218503937007873
20
3.6891732283464567
40
0.0068897637795276
0
CIRCLE
8
BLACK
10
-1.2218503937007874
20
3.6891732283464567
40
0.0068897637795276
0
CIRCLE
8
BLACK
10
-1.3218503937007873
20
3.5891732283464566
40
0.0068897637795276
0
CIRCLE
8
BLACK
10
-1.2218503937007874
20
3.5891732283464566
40
0.0068897637795276
0
CIRCLE
8
BLACK
10
-1.3218503937007873
20
3.4891732283464565
40
0.0068897637795276
0
CIRCLE
8
BLACK
10
-1.2218503937007874
20
3.4891732283464565
40
0.0068897637795276
0
CIRCLE
8
BLACK
10
-1.3218503937007873
20
3.3891732283464564
40
0.0068897637795276
0
CIRCLE
8
BLACK
10
-1.2218503937007874
20
3.3891732283464564
40
0.0068897637795276
0
CIRCLE
8
BLACK
10
-1.3218503937007873
20
3.2891732283464568
40
0.0068897637795276
0
CIRCLE
8
BLACK
10
-1.2218503937007874
20
3.2891732283464568
40
0.0068897637795276
0
CIRCLE
8
BLACK
10
-1.3218503937007873
20
3.1891732283464567
40
0.0068897637795276
0
CIRCLE
8
BLACK
10
-1.2218503937007874
20
3.1891732283464567
40
0.0068897637795276
0
CIRCLE
8
BLACK
10
-1.3218503937007873
20
3.0891732283464566
40
0.0068897637795276
0
CIRCLE
8
BLACK
10
-1.2218503937007874
20
3.0891732283464566
40
0.0068897637795276
0
CIRCLE
8
BLACK
10
-1.3218503937007873
20
2.9891732283464565
40
0.0068897637795276
0
CIRCLE
8
BLACK
10
-1.2218503937007874
20
2.9891732283464565
40
0.0068897637795276
0
CIRCLE
8
BLACK
10
-1.3218503937007873
20
2.8891732283464568
40
0.0068897637795276
0
CIRCLE
8
BLACK
10
-1.2218503937007874
20
2.8891732283464568
40
0.0068897637795276
0
CIRCLE
8
BLACK
10
-1.3218503937007873
20
2.7891732283464568
40
0.0068897637795276
0
CIRCLE
8
BLACK
10
-1.2218503937007874
20
2.7891732283464568
40
0.0068897637795276
0
CIRCLE
8
BLACK
10
-1.3218503937007873
20
2.6891732283464567
40
0.0068897637795276
0
CIRCLE
8
BLACK
10
-1.2218503937007874
20
2.6891732283464567
40
0.0068897637795276
0
CIRCLE
8
BLACK
10
-1.3218503937007873
20
2.5891732283464566
40
0.0068897637795276
0
CIRCLE
8
BLACK
10
-1.2218503937007874
20
2.5891732283464566
40
0.0068897637795276
0
CIRCLE
8
BLACK
10
-0.2013453543307087
20
3.8425196850393699
40
0.0068897637795276
0
CIRCLE
8
BLACK
10
-0.1013453543307087
20
3.8425196850393699
40
0.0068897637795276
0
CIRCLE
8
BLACK
10
-0.2013453543307087
20
3.5433070866141732
40
0.0068897637795276
0
CIRCLE
8
BLACK
10
-0.1013453543307087
20
3.5433070866141732
40
0.0068897637795276
0
CIRCLE
8
BLACK
10
0.7125984251968503
20
1.7637795275590551
40
0.0068897637795276
0
CIRCLE
8
BLACK
10
0.7125984251968503
20
1.8637796062992125
40
0.0068897637795276
0
CIRCLE
8
BLACK
10
0.84251968503937
20
1.7637795275590551
40
0.0068897637795276
0
CIRCLE
8
BLACK
10
0.84251968503937
20
1.8637795275590552
40
0.0068897637795276
0
CIRCLE
8
BLACK
10
0.84251968503937
20
1.9637794881889763
40
0.0068897637795276
0
CIRCLE
8
BLACK
10
-1.6112204724409449
20
0.5039370078740157
40
0.0068897637795276
0
CIRCLE
8
BLACK
10
1.6348425196850394
20
3.4704724409448819
40
0.0068897637795276
0
CIRCLE
8
BLACK
10
1.6348425196850394
20
0.7106299212598425
40
0.0068897637795276
0
CIRCLE
8
BLACK
10
-0.4808729133858268
20
3.9433070866141731
40
0.0068897637795276
0
CIRCLE
8
BLACK
10
-0.3808729133858267
20
3.9433070866141731
40
0.0068897637795276
0
CIRCLE
8
BLACK
10
-0.4808729133858268
20
3.843307086614173
40
0.0068897637795276
0
CIRCLE
8
BLACK
10
-0.3808729133858267
20
3.843307086614173
40
0.0068897637795276
0
CIRCLE
8
BLACK
10
-0.4808729133858268
20
3.7433070866141733
40
0.0068897637795276
0
CIRCLE
8
BLACK
10
-0.3808729133858267
20
3.7433070866141733
40
0.0068897637795276
0
CIRCLE
8
BLACK
10
-0.4808729133858268
20
3.6433070866141732
40
0.0068897637795276
0
CIRCLE
8
BLACK
10
-0.3808729133858267
20
3.6433070866141732
40
0.0068897637795276
0
CIRCLE
8
BLACK
10
-0.4808729133858268
20
3.5433070866141732
40
0.0068897637795276
0
CIRCLE
8
BLACK
10
-0.3808729133858267
20
3.5433070866141732
40
0.0068897637795276
0
CIRCLE
8
BLACK
10
1.170308188976378
20
4.0810039370078739
40
0.0068897637795276
0
CIRCLE
8
BLACK
10
1.0703081889763779
20
4.0810039370078739
40
0.0068897637795276
0
CIRCLE
8
BLACK
10
1.170308188976378
20
4.1810039370078735
40
0.0068897637795276
0
CIRCLE
8
BLACK
10
1.0703081889763779
20
4.1810039370078735
40
0.0068897637795276
0
CIRCLE
8
BLACK
10
1.170308188976378
20
4.2810038976377953
40
0.0068897637795276
0
CIRCLE
8
BLACK
10
1.0703081889763779
20
4.2810039370078741
40
0.0068897637795276
0
CIRCLE
8
BLACK
10
1.170308188976378
20
4.3810039370078737
40
0.0068897637795276
0
CIRCLE
8
BLACK
10
1.0703081889763779
20
4.3810039370078737
40
0.0068897637795276
0
CIRCLE
8
BLACK
10
1.170308188976378
20
4.4810039370078742
40
0.0068897637795276
0
CIRCLE
8
BLACK
10
1.0703081889763779
20
4.4810039370078742
40
0.0068897637795276
0
CIRCLE
8
BLACK
10
-1.1299212598425197
20
0.9409448818897638
40
0.0068897637795276
0
CIRCLE
8
BLACK
10
-0.7172244094488189
20
0.5354330708661417
40
0.0068897637795276
0
CIRCLE
8
BLACK
10
-0.7172244094488189
20
0.735433031496063
40
0.0068897637795276
0
CIRCLE
8
BLACK
10
0.0827755905511811
20
0.2354330708661417
40
0.0068897637795276
0
CIRCLE
8
BLACK
10
0.0827755905511811
20
0.6354330708661418
40
0.0068897637795276
0
CIRCLE
8
BLACK
10
0.0827755905511811
20
1.0354330708661417
40
0.0068897637795276
0
CIRCLE
8
BLACK
10
-0.7172244094488189
20
1.0354330708661417
40
0.0068897637795276
0
CIRCLE
8
BLACK
10
-0.7125984251968503
20
4.5078740157480315
40
0.0068897637795276
0
LINE
8
BLACK
6
CONTINUOUS
10
-1.1479330708661417
20
0.5236220472440944
11
-1.0691929133858267
21
0.5236220472440944
0
ARC
8
BLACK
10
-1.0691929133858267
20
0.5433070866141733
40
0.0196850393700787
50
-90.00000000
51
90.00000000
0
LINE
8
BLACK
6
CONTINUOUS
10
-1.0691929133858267
20
0.562992125984252
11
-1.1479330708661417
21
0.562992125984252
0
ARC
8
BLACK
10
-1.1479330708661417
20
0.5433070866141733
40
0.0196850393700787
50
90.00000000
51
270.00000000
0
LINE
8
BLACK
6
CONTINUOUS
10
-1.1479330708661417
20
0.2874015748031496
11
-1.0691929133858267
21
0.2874015748031496
0
ARC
8
BLACK
10
-1.0691929133858267
20
0.3070866141732284
40
0.0196850393700787
50
-90.00000000
51
90.00000000
0
LINE
8
BLACK
6
CONTINUOUS
10
-1.0691929133858267
20
0.3267716535433071
11
-1.1479330708661417
21
0.3267716535433071
0
ARC
8
BLACK
10
-1.1479330708661417
20
0.3070866141732284
40
0.0196850393700787
50
90.00000000
51
270.00000000
0
LINE
8
BLACK
6
CONTINUOUS
10
-1.2739173228346456
20
0.3858267716535433
11
-1.2739173228346456
21
0.4645669291338583
0
ARC
8
BLACK
10
-1.2936023622047244
20
0.4645669291338583
40
0.0196850393700787
50
0.00000000
51
180.00000000
0
LINE
8
BLACK
6
CONTINUOUS
10
-1.3132874015748031
20
0.4645669291338583
11
-1.3132874015748031
21
0.3858267716535433
0
ARC
8
BLACK
10
-1.2936023622047244
20
0.3858267716535433
40
0.0196850393700787
50
180.00000000
51
360.00000000
  0
ENDSEC
  0
EOF
