  0
SECTION
  2
HEADER
  9
$ANGBASE
  50
0.0
  9
$ANGDIR
  70
1
  9
$MEASUREMENT
  70
0
  9
$INSUNITS
  70
1
  0
ENDSEC
  0
SECTION
  2
TABLES
  0
TABLE
  2
LTYPE
  70
4
  0
LTYPE
  5
40F
  2
CONTINUOUS
  70
0
  3
Solid line
  72
65
  73
0
  40
0.0
  0
LTYPE
  5
410
  2
DASHDOT
 70
0
  3
Dash Dot ____ _ ____ _
 72
65
 73
4
 40
2.0
 49
1.25
 49
-0.25
 49
0.25
 49
-0.25
  0
LTYPE
  5
411
  2
DASHED
 70
0
  3
Dashed __ __ __ __ __
 72
65
 73
2
 40
0.75
 49
0.5
 49
-0.25
  0
LTYPE
  5
43B
  2
DOTTED
 70
0
  3
Dotted .  .  .  .
 72
65
 73
2
 40
0.2
 49
0.0
 49
-0.2
  0
ENDTAB
  0
TABLE
  2
STYLE
  70
4
  0
STYLE
  2
KICAD
  70
0
  40
0
  41
1
  42
1
  50
0
  71
0
  3
isocp.shx
  0
STYLE
  2
KICADB
  70
0
  40
0
  41
1
  42
1
  50
0
  71
0
  3
isocp.shx
  0
STYLE
  2
KICADI
  70
0
  40
0
  41
1
  42
1
  50
15
  71
0
  3
isocp.shx
  0
STYLE
  2
KICADBI
  70
0
  40
0
  41
1
  42
1
  50
15
  71
0
  3
isocp.shx
  0
ENDTAB
  0
TABLE
  2
LAYER
  70
1
  0
LAYER
  2
BLACK
  70
0
  62
250
  6
CONTINUOUS
  0
ENDTAB
  0
ENDSEC
  0
SECTION
  2
ENTITIES
0
CIRCLE
8
BLACK
10
3.0299212598425198
20
-1.9135826771653544
40
0.0068897637795276
0
CIRCLE
8
BLACK
10
3.1299212598425195
20
-1.9135826771653544
40
0.0068897637795276
0
CIRCLE
8
BLACK
10
5.2753937401574804
20
-2.2206692913385826
40
0.0068897637795276
0
CIRCLE
8
BLACK
10
3.7677165354330708
20
-2.3387795275590553
40
0.0068897637795276
0
CIRCLE
8
BLACK
10
3.6299212598425195
20
-2.3387795275590553
40
0.0068897637795276
0
CIRCLE
8
BLACK
10
4.409448818897638
20
-4.7637795275590546
40
0.0068897637795276
0
CIRCLE
8
BLACK
10
3.9094488188976375
20
-4.7637795275590546
40
0.0068897637795276
0
CIRCLE
8
BLACK
10
4.2996062992125985
20
-4.663779527559055
40
0.0068897637795276
0
CIRCLE
8
BLACK
10
4.2596062992125985
20
-4.5937007480314955
40
0.0068897637795276
0
CIRCLE
8
BLACK
10
4.2196062992125984
20
-4.663779527559055
40
0.0068897637795276
0
CIRCLE
8
BLACK
10
4.1796062992125984
20
-4.5937007480314955
40
0.0068897637795276
0
CIRCLE
8
BLACK
10
4.1396062992125984
20
-4.663779527559055
40
0.0068897637795276
0
CIRCLE
8
BLACK
10
4.0996062992125983
20
-4.5937007480314955
40
0.0068897637795276
0
CIRCLE
8
BLACK
10
4.0596062992125983
20
-4.663779527559055
40
0.0068897637795276
0
CIRCLE
8
BLACK
10
4.019606338582677
20
-4.5937007874015743
40
0.0068897637795276
0
CIRCLE
8
BLACK
10
4.429527559055118
20
-4.4039370078740152
40
0.0068897637795276
0
CIRCLE
8
BLACK
10
4.3393700787401572
20
-4.4039370078740152
40
0.0068897637795276
0
CIRCLE
8
BLACK
10
3.9795275590551182
20
-4.4039370078740152
40
0.0068897637795276
0
CIRCLE
8
BLACK
10
3.8893700787401575
20
-4.4039370078740152
40
0.0068897637795276
0
CIRCLE
8
BLACK
10
4.4795275590551178
20
-4.6287401574803146
40
0.0068897637795276
0
CIRCLE
8
BLACK
10
3.8393700787401572
20
-4.6287401574803146
40
0.0068897637795276
0
CIRCLE
8
BLACK
10
3.0299212598425198
20
-1.6104330708661416
40
0.0068897637795276
0
CIRCLE
8
BLACK
10
3.1299212598425195
20
-1.6104330708661416
40
0.0068897637795276
0
CIRCLE
8
BLACK
10
2.0929133858267717
20
-1.0159448818897638
40
0.0068897637795276
0
CIRCLE
8
BLACK
10
2.1929133858267718
20
-1.0159448818897638
40
0.0068897637795276
0
CIRCLE
8
BLACK
10
2.0929133858267717
20
-1.1159448818897637
40
0.0068897637795276
0
CIRCLE
8
BLACK
10
2.1929133858267718
20
-1.1159448818897637
40
0.0068897637795276
0
CIRCLE
8
BLACK
10
2.0929133858267717
20
-1.2159448818897638
40
0.0068897637795276
0
CIRCLE
8
BLACK
10
2.1929133858267718
20
-1.2159448818897638
40
0.0068897637795276
0
CIRCLE
8
BLACK
10
2.0929133858267717
20
-1.3159448818897637
40
0.0068897637795276
0
CIRCLE
8
BLACK
10
2.1929133858267718
20
-1.3159448818897637
40
0.0068897637795276
0
CIRCLE
8
BLACK
10
2.0929133858267717
20
-1.4159448818897638
40
0.0068897637795276
0
CIRCLE
8
BLACK
10
2.1929133858267718
20
-1.4159448818897638
40
0.0068897637795276
0
CIRCLE
8
BLACK
10
2.0929133858267717
20
-1.5159448818897638
40
0.0068897637795276
0
CIRCLE
8
BLACK
10
2.1929133858267718
20
-1.5159448818897638
40
0.0068897637795276
0
CIRCLE
8
BLACK
10
2.0929133858267717
20
-1.6159448818897637
40
0.0068897637795276
0
CIRCLE
8
BLACK
10
2.1929133858267718
20
-1.6159448818897637
40
0.0068897637795276
0
CIRCLE
8
BLACK
10
2.0929133858267717
20
-1.7159448818897638
40
0.0068897637795276
0
CIRCLE
8
BLACK
10
2.1929133858267718
20
-1.7159448818897638
40
0.0068897637795276
0
CIRCLE
8
BLACK
10
2.0929133858267717
20
-1.8159448818897637
40
0.0068897637795276
0
CIRCLE
8
BLACK
10
2.1929133858267718
20
-1.8159448818897637
40
0.0068897637795276
0
CIRCLE
8
BLACK
10
2.0929133858267717
20
-1.9159448818897638
40
0.0068897637795276
0
CIRCLE
8
BLACK
10
2.1929133858267718
20
-1.9159448818897638
40
0.0068897637795276
0
CIRCLE
8
BLACK
10
2.0929133858267717
20
-2.0159448818897636
40
0.0068897637795276
0
CIRCLE
8
BLACK
10
2.1929133858267718
20
-2.0159448818897636
40
0.0068897637795276
0
CIRCLE
8
BLACK
10
2.0929133858267717
20
-2.1159448818897637
40
0.0068897637795276
0
CIRCLE
8
BLACK
10
2.1929133858267718
20
-2.1159448818897637
40
0.0068897637795276
0
CIRCLE
8
BLACK
10
2.0929133858267717
20
-2.2159448818897638
40
0.0068897637795276
0
CIRCLE
8
BLACK
10
2.1929133858267718
20
-2.2159448818897638
40
0.0068897637795276
0
CIRCLE
8
BLACK
10
2.0929133858267717
20
-2.3159448818897639
40
0.0068897637795276
0
CIRCLE
8
BLACK
10
2.1929133858267718
20
-2.3159448818897639
40
0.0068897637795276
0
CIRCLE
8
BLACK
10
2.0929133858267717
20
-2.4159448818897635
40
0.0068897637795276
0
CIRCLE
8
BLACK
10
2.1929133858267718
20
-2.4159448818897635
40
0.0068897637795276
0
CIRCLE
8
BLACK
10
2.0929133858267717
20
-2.5159448818897636
40
0.0068897637795276
0
CIRCLE
8
BLACK
10
2.1929133858267718
20
-2.5159448818897636
40
0.0068897637795276
0
CIRCLE
8
BLACK
10
2.0929133858267717
20
-2.6159448818897637
40
0.0068897637795276
0
CIRCLE
8
BLACK
10
2.1929133858267718
20
-2.6159448818897637
40
0.0068897637795276
0
CIRCLE
8
BLACK
10
2.0929133858267717
20
-2.7159448818897638
40
0.0068897637795276
0
CIRCLE
8
BLACK
10
2.1929133858267718
20
-2.7159448818897638
40
0.0068897637795276
0
CIRCLE
8
BLACK
10
2.0929133858267717
20
-2.8159448818897639
40
0.0068897637795276
0
CIRCLE
8
BLACK
10
2.1929133858267718
20
-2.8159448818897639
40
0.0068897637795276
0
CIRCLE
8
BLACK
10
2.0929133858267717
20
-2.9159448818897635
40
0.0068897637795276
0
CIRCLE
8
BLACK
10
2.1929133858267718
20
-2.9159448818897635
40
0.0068897637795276
0
CIRCLE
8
BLACK
10
3.0299212598425198
20
-1.7127952755905511
40
0.0068897637795276
0
CIRCLE
8
BLACK
10
3.1299212598425195
20
-1.7127952755905511
40
0.0068897637795276
0
CIRCLE
8
BLACK
10
1.0905511811023623
20
-6.71259842519685
40
0.0068897637795276
0
CIRCLE
8
BLACK
10
4.4998031496062989
20
-3.0120078740157479
40
0.0068897637795276
0
CIRCLE
8
BLACK
10
3.0299212598425198
20
-2.0120078740157479
40
0.0068897637795276
0
CIRCLE
8
BLACK
10
3.1299212598425195
20
-2.0120078740157479
40
0.0068897637795276
0
CIRCLE
8
BLACK
10
4.0866141732283463
20
-3.2755905511811023
40
0.0068897637795276
0
CIRCLE
8
BLACK
10
4.0866141732283463
20
-3.1755904724409447
40
0.0068897637795276
0
CIRCLE
8
BLACK
10
4.2165354330708658
20
-3.2755905511811023
40
0.0068897637795276
0
CIRCLE
8
BLACK
10
4.2165354330708658
20
-3.1755905511811022
40
0.0068897637795276
0
CIRCLE
8
BLACK
10
4.2165354330708658
20
-3.0755905905511809
40
0.0068897637795276
0
CIRCLE
8
BLACK
10
1.0905511811023623
20
-5.8740771653543309
40
0.0068897637795276
0
CIRCLE
8
BLACK
10
1.0905511811023623
20
-6.4330913385826767
40
0.0068897637795276
0
CIRCLE
8
BLACK
10
1.0905511811023623
20
-6.1535842519685042
40
0.0068897637795276
0
CIRCLE
8
BLACK
10
2.7503937007874013
20
-1.612007874015748
40
0.0068897637795276
0
CIRCLE
8
BLACK
10
2.8503937007874014
20
-1.612007874015748
40
0.0068897637795276
0
CIRCLE
8
BLACK
10
2.7503937007874013
20
-1.7120078740157481
40
0.0068897637795276
0
CIRCLE
8
BLACK
10
2.8503937007874014
20
-1.7120078740157481
40
0.0068897637795276
0
CIRCLE
8
BLACK
10
2.7503937007874013
20
-1.8120078740157479
40
0.0068897637795276
0
CIRCLE
8
BLACK
10
2.8503937007874014
20
-1.8120078740157479
40
0.0068897637795276
0
CIRCLE
8
BLACK
10
2.7503937007874013
20
-1.912007874015748
40
0.0068897637795276
0
CIRCLE
8
BLACK
10
2.8503937007874014
20
-1.912007874015748
40
0.0068897637795276
0
CIRCLE
8
BLACK
10
2.7503937007874013
20
-2.0120078740157479
40
0.0068897637795276
0
CIRCLE
8
BLACK
10
2.8503937007874014
20
-2.0120078740157479
40
0.0068897637795276
0
CIRCLE
8
BLACK
10
4.4015748031496065
20
-1.4743110236220471
40
0.0068897637795276
0
CIRCLE
8
BLACK
10
4.3015748031496059
20
-1.4743110236220471
40
0.0068897637795276
0
CIRCLE
8
BLACK
10
4.4015748031496065
20
-1.3743110236220473
40
0.0068897637795276
0
CIRCLE
8
BLACK
10
4.3015748031496059
20
-1.3743110236220473
40
0.0068897637795276
0
CIRCLE
8
BLACK
10
4.4015748031496065
20
-1.2743110629921259
40
0.0068897637795276
0
CIRCLE
8
BLACK
10
4.3015748031496059
20
-1.2743110236220472
40
0.0068897637795276
0
CIRCLE
8
BLACK
10
4.4015748031496065
20
-1.1743110236220473
40
0.0068897637795276
0
CIRCLE
8
BLACK
10
4.3015748031496059
20
-1.1743110236220473
40
0.0068897637795276
0
CIRCLE
8
BLACK
10
4.4015748031496065
20
-1.0743110236220472
40
0.0068897637795276
0
CIRCLE
8
BLACK
10
4.3015748031496059
20
-1.0743110236220472
40
0.0068897637795276
0
CIRCLE
8
BLACK
10
2.7511811023622048
20
-4.5196850393700787
40
0.0068897637795276
0
CIRCLE
8
BLACK
10
2.7511811023622048
20
-4.3196850787401573
40
0.0068897637795276
0
CIRCLE
8
BLACK
10
3.5511811023622046
20
-4.8196850393700785
40
0.0068897637795276
0
CIRCLE
8
BLACK
10
3.5511811023622046
20
-4.4196850393700791
40
0.0068897637795276
0
CIRCLE
8
BLACK
10
3.5511811023622046
20
-4.0196850393700787
40
0.0068897637795276
0
CIRCLE
8
BLACK
10
2.7511811023622048
20
-4.0196850393700787
40
0.0068897637795276
  0
ENDSEC
  0
EOF
