  0
SECTION
  2
HEADER
  9
$ANGBASE
  50
0.0
  9
$ANGDIR
  70
1
  9
$MEASUREMENT
  70
0
  0
ENDSEC
  0
SECTION
  2
TABLES
  0
TABLE
  2
LTYPE
  70
4
  0
LTYPE
  5
40F
  2
CONTINUOUS
  70
0
  3
Solid line
  72
65
  73
0
  40
0.0
  0
LTYPE
  5
410
  2
DASHDOT
 70
0
  3
Dash Dot ____ _ ____ _
 72
65
 73
4
 40
2.0
 49
1.25
 49
-0.25
 49
0.25
 49
-0.25
  0
LTYPE
  5
411
  2
DASHED
 70
0
  3
Dashed __ __ __ __ __
 72
65
 73
2
 40
0.75
 49
0.5
 49
-0.25
  0
LTYPE
  5
43B
  2
DOTTED
 70
0
  3
Dotted .  .  .  .
 72
65
 73
2
 40
0.2
 49
0.0
 49
-0.2
  0
ENDTAB
  0
TABLE
  2
STYLE
  70
4
  0
STYLE
  2
KICAD
  70
0
  40
0
  41
1
  42
1
  50
0
  71
0
  3
isocp.shx
  0
STYLE
  2
KICADB
  70
0
  40
0
  41
1
  42
1
  50
0
  71
0
  3
isocp.shx
  0
STYLE
  2
KICADI
  70
0
  40
0
  41
1
  42
1
  50
15
  71
0
  3
isocp.shx
  0
STYLE
  2
KICADBI
  70
0
  40
0
  41
1
  42
1
  50
15
  71
0
  3
isocp.shx
  0
ENDTAB
  0
TABLE
  2
LAYER
  70
1
  0
LAYER
  2
BLACK
  70
0
  62
7
  6
CONTINUOUS
  0
ENDTAB
  0
ENDSEC
  0
SECTION
  2
ENTITIES
0
LINE
8
BLACK
6
CONTINUOUS
10
3.6598254724409447
20
-3.910507992125984
11
3.6603581496062993
21
-3.9110406692913386
0
LINE
8
BLACK
6
CONTINUOUS
10
3.6603581496062993
20
-3.9110406692913386
11
3.6604330708661417
21
-3.9114173228346454
0
LINE
8
BLACK
6
CONTINUOUS
10
3.6604330708661417
20
-3.9114173228346454
11
3.6604330708661417
21
-4.9311023228346453
0
LINE
8
BLACK
6
CONTINUOUS
10
3.6604330708661417
20
-4.9311023228346453
11
3.6603581496062993
21
-4.931478976377953
0
LINE
8
BLACK
6
CONTINUOUS
10
3.6603581496062993
20
-4.931478976377953
11
3.6598254724409447
21
-4.9320116535433067
0
LINE
8
BLACK
6
CONTINUOUS
10
3.6598254724409447
20
-4.9320116535433067
11
3.6594488188976375
21
-4.9320865748031499
0
LINE
8
BLACK
6
CONTINUOUS
10
3.6594488188976375
20
-4.9320865748031499
11
3.0058782283464565
21
-4.9320865748031499
0
LINE
8
BLACK
6
CONTINUOUS
10
3.0058782283464565
20
-4.9320865748031499
11
3.0059174015748029
21
-4.9322834645669289
0
LINE
8
BLACK
6
CONTINUOUS
10
3.0059174015748029
20
-4.9322834645669289
11
3.0059174015748029
21
-4.9765748031496058
0
LINE
8
BLACK
6
CONTINUOUS
10
3.0059174015748029
20
-4.9765748031496058
11
3.0454843307086614
21
-4.9765748031496058
0
LINE
8
BLACK
6
CONTINUOUS
10
3.0454843307086614
20
-4.9765748031496058
11
3.0458609842519686
21
-4.976649724409449
0
LINE
8
BLACK
6
CONTINUOUS
10
3.0458609842519686
20
-4.976649724409449
11
3.0463936614173228
21
-4.9771824015748027
0
LINE
8
BLACK
6
CONTINUOUS
10
3.0463936614173228
20
-4.9771824015748027
11
3.0464685826771651
21
-4.9775590551181104
0
LINE
8
BLACK
6
CONTINUOUS
10
3.0464685826771651
20
-4.9775590551181104
11
3.0464685826771651
21
-5.0208661417322835
0
LINE
8
BLACK
6
CONTINUOUS
10
3.0464685826771651
20
-5.0208661417322835
11
3.0463936614173228
21
-5.0212427952755903
0
LINE
8
BLACK
6
CONTINUOUS
10
3.0463936614173228
20
-5.0212427952755903
11
3.0458609842519686
21
-5.0217754724409449
0
LINE
8
BLACK
6
CONTINUOUS
10
3.0458609842519686
20
-5.0217754724409449
11
3.0454843307086614
21
-5.0218503937007872
0
LINE
8
BLACK
6
CONTINUOUS
10
3.0454843307086614
20
-5.0218503937007872
11
3.0059174015748029
21
-5.0218503937007872
0
LINE
8
BLACK
6
CONTINUOUS
10
3.0059174015748029
20
-5.0218503937007872
11
3.0059174015748029
21
-5.0661417322834641
0
LINE
8
BLACK
6
CONTINUOUS
10
3.0059174015748029
20
-5.0661417322834641
11
3.0058424803149606
21
-5.0665183858267717
0
LINE
8
BLACK
6
CONTINUOUS
10
3.0058424803149606
20
-5.0665183858267717
11
3.0053098031496064
21
-5.0670510629921255
0
LINE
8
BLACK
6
CONTINUOUS
10
3.0053098031496064
20
-5.0670510629921255
11
3.0049331496062992
21
-5.0671259842519687
0
LINE
8
BLACK
6
CONTINUOUS
10
3.0049331496062992
20
-5.0671259842519687
11
2.9340670078740159
21
-5.0671259842519687
0
LINE
8
BLACK
6
CONTINUOUS
10
2.9340670078740159
20
-5.0671259842519687
11
2.9336903543307087
21
-5.0670510629921255
0
LINE
8
BLACK
6
CONTINUOUS
10
2.9336903543307087
20
-5.0670510629921255
11
2.9331576771653545
21
-5.0665183858267717
0
LINE
8
BLACK
6
CONTINUOUS
10
2.9331576771653545
20
-5.0665183858267717
11
2.9330827559055117
21
-5.0661417322834641
0
LINE
8
BLACK
6
CONTINUOUS
10
2.9330827559055117
20
-5.0661417322834641
11
2.9330827559055117
21
-5.0592519685039372
0
LINE
8
BLACK
6
CONTINUOUS
10
2.9330827559055117
20
-5.0592519685039372
11
2.8935158267716536
21
-5.0592519685039372
0
LINE
8
BLACK
6
CONTINUOUS
10
2.8935158267716536
20
-5.0592519685039372
11
2.8931391732283465
21
-5.059177047244094
0
LINE
8
BLACK
6
CONTINUOUS
10
2.8931391732283465
20
-5.059177047244094
11
2.8926064960629922
21
-5.0586443700787402
0
LINE
8
BLACK
6
CONTINUOUS
10
2.8926064960629922
20
-5.0586443700787402
11
2.8925315748031495
21
-5.0582677165354326
0
LINE
8
BLACK
6
CONTINUOUS
10
2.8925315748031495
20
-5.0582677165354326
11
2.8925315748031495
21
-5.0145669291338582
0
LINE
8
BLACK
6
CONTINUOUS
10
2.8925315748031495
20
-5.0145669291338582
11
2.8926064960629922
21
-5.0141902755905514
0
LINE
8
BLACK
6
CONTINUOUS
10
2.8926064960629922
20
-5.0141902755905514
11
2.8931391732283465
21
-5.0136575984251968
0
LINE
8
BLACK
6
CONTINUOUS
10
2.8931391732283465
20
-5.0136575984251968
11
2.8935158267716536
21
-5.0135826771653544
0
LINE
8
BLACK
6
CONTINUOUS
10
2.8935158267716536
20
-5.0135826771653544
11
2.9330827559055117
21
-5.0135826771653544
0
LINE
8
BLACK
6
CONTINUOUS
10
2.9330827559055117
20
-5.0135826771653544
11
2.9330827559055117
21
-4.9848425196850394
0
LINE
8
BLACK
6
CONTINUOUS
10
2.9330827559055117
20
-4.9848425196850394
11
2.8935158267716536
21
-4.9848425196850394
0
LINE
8
BLACK
6
CONTINUOUS
10
2.8935158267716536
20
-4.9848425196850394
11
2.8931391732283465
21
-4.9847675984251971
0
LINE
8
BLACK
6
CONTINUOUS
10
2.8931391732283465
20
-4.9847675984251971
11
2.8926064960629922
21
-4.9842349212598425
0
LINE
8
BLACK
6
CONTINUOUS
10
2.8926064960629922
20
-4.9842349212598425
11
2.8925315748031495
21
-4.9838582677165357
0
LINE
8
BLACK
6
CONTINUOUS
10
2.8925315748031495
20
-4.9838582677165357
11
2.8925315748031495
21
-4.9401574803149604
0
LINE
8
BLACK
6
CONTINUOUS
10
2.8925315748031495
20
-4.9401574803149604
11
2.8926064960629922
21
-4.9397808267716536
0
LINE
8
BLACK
6
CONTINUOUS
10
2.8926064960629922
20
-4.9397808267716536
11
2.8931391732283465
21
-4.939248149606299
0
LINE
8
BLACK
6
CONTINUOUS
10
2.8931391732283465
20
-4.939248149606299
11
2.8935158267716536
21
-4.9391732283464567
0
LINE
8
BLACK
6
CONTINUOUS
10
2.8935158267716536
20
-4.9391732283464567
11
2.9330827559055117
21
-4.9391732283464567
0
LINE
8
BLACK
6
CONTINUOUS
10
2.9330827559055117
20
-4.9391732283464567
11
2.9330827559055117
21
-4.9322834645669289
0
LINE
8
BLACK
6
CONTINUOUS
10
2.9330827559055117
20
-4.9322834645669289
11
2.9331218897637794
21
-4.9320865748031499
0
LINE
8
BLACK
6
CONTINUOUS
10
2.9331218897637794
20
-4.9320865748031499
11
2.6397637795275588
21
-4.9320866141732278
0
LINE
8
BLACK
6
CONTINUOUS
10
2.6397637795275588
20
-4.9320866141732278
11
2.6393871259842521
21
-4.9320116929133855
0
LINE
8
BLACK
6
CONTINUOUS
10
2.6393871259842521
20
-4.9320116929133855
11
2.6388544488188974
21
-4.9314790157480317
0
LINE
8
BLACK
6
CONTINUOUS
10
2.6388544488188974
20
-4.9314790157480317
11
2.6388544488188974
21
-4.931478976377953
0
LINE
8
BLACK
6
CONTINUOUS
10
2.6388544488188974
20
-4.931478976377953
11
2.6387795275590551
21
-4.9311023622047241
0
LINE
8
BLACK
6
CONTINUOUS
10
2.6387795275590551
20
-4.9311023622047241
11
2.6387795275590551
21
-3.9114173228346454
0
LINE
8
BLACK
6
CONTINUOUS
10
2.6387795275590551
20
-3.9114173228346454
11
2.6388544488188974
21
-3.9110406692913386
0
LINE
8
BLACK
6
CONTINUOUS
10
2.6388544488188974
20
-3.9110406692913386
11
2.6393871259842521
21
-3.910507992125984
0
LINE
8
BLACK
6
CONTINUOUS
10
2.6393871259842521
20
-3.910507992125984
11
2.6397637795275588
21
-3.9104330708661417
0
LINE
8
BLACK
6
CONTINUOUS
10
2.6397637795275588
20
-3.9104330708661417
11
3.6594488188976375
21
-3.9104330708661417
0
LINE
8
BLACK
6
CONTINUOUS
10
3.6594488188976375
20
-3.9104330708661417
11
3.6598254724409447
21
-3.910507992125984
0
LINE
8
BLACK
6
CONTINUOUS
10
2.9350512598425196
20
-4.9332677165354326
11
2.9350512598425196
21
-4.9401574803149604
0
LINE
8
BLACK
6
CONTINUOUS
10
2.9350512598425196
20
-4.9401574803149604
11
2.9349763385826773
21
-4.940534133858268
0
LINE
8
BLACK
6
CONTINUOUS
10
2.9349763385826773
20
-4.940534133858268
11
2.9344436614173226
21
-4.9410668110236218
0
LINE
8
BLACK
6
CONTINUOUS
10
2.9344436614173226
20
-4.9410668110236218
11
2.9340670078740159
21
-4.9411417322834641
0
LINE
8
BLACK
6
CONTINUOUS
10
2.9340670078740159
20
-4.9411417322834641
11
2.8945000787401574
21
-4.9411417322834641
0
LINE
8
BLACK
6
CONTINUOUS
10
2.8945000787401574
20
-4.9411417322834641
11
2.8945000787401574
21
-4.9828740157480311
0
LINE
8
BLACK
6
CONTINUOUS
10
2.8945000787401574
20
-4.9828740157480311
11
2.9340670078740159
21
-4.9828740157480311
0
LINE
8
BLACK
6
CONTINUOUS
10
2.9340670078740159
20
-4.9828740157480311
11
2.9344436614173226
21
-4.9829489370078743
0
LINE
8
BLACK
6
CONTINUOUS
10
2.9344436614173226
20
-4.9829489370078743
11
2.9349763385826773
21
-4.9834816141732281
0
LINE
8
BLACK
6
CONTINUOUS
10
2.9349763385826773
20
-4.9834816141732281
11
2.9350512598425196
21
-4.9838582677165357
0
LINE
8
BLACK
6
CONTINUOUS
10
2.9350512598425196
20
-4.9838582677165357
11
2.9350512598425196
21
-5.0145669291338582
0
LINE
8
BLACK
6
CONTINUOUS
10
2.9350512598425196
20
-5.0145669291338582
11
2.9349763385826773
21
-5.0149435826771649
0
LINE
8
BLACK
6
CONTINUOUS
10
2.9349763385826773
20
-5.0149435826771649
11
2.9344436614173226
21
-5.0154762598425195
0
LINE
8
BLACK
6
CONTINUOUS
10
2.9344436614173226
20
-5.0154762598425195
11
2.9340670078740159
21
-5.0155511811023619
0
LINE
8
BLACK
6
CONTINUOUS
10
2.9340670078740159
20
-5.0155511811023619
11
2.8945000787401574
21
-5.0155511811023619
0
LINE
8
BLACK
6
CONTINUOUS
10
2.8945000787401574
20
-5.0155511811023619
11
2.8945000787401574
21
-5.0572834645669289
0
LINE
8
BLACK
6
CONTINUOUS
10
2.8945000787401574
20
-5.0572834645669289
11
2.9340670078740159
21
-5.0572834645669289
0
LINE
8
BLACK
6
CONTINUOUS
10
2.9340670078740159
20
-5.0572834645669289
11
2.9344436614173226
21
-5.0573583858267712
0
LINE
8
BLACK
6
CONTINUOUS
10
2.9344436614173226
20
-5.0573583858267712
11
2.9349763385826773
21
-5.0578910629921259
0
LINE
8
BLACK
6
CONTINUOUS
10
2.9349763385826773
20
-5.0578910629921259
11
2.9350512598425196
21
-5.0582677165354326
0
LINE
8
BLACK
6
CONTINUOUS
10
2.9350512598425196
20
-5.0582677165354326
11
2.9350512598425196
21
-5.0651574803149604
0
LINE
8
BLACK
6
CONTINUOUS
10
2.9350512598425196
20
-5.0651574803149604
11
3.003948897637795
21
-5.0651574803149604
0
LINE
8
BLACK
6
CONTINUOUS
10
3.003948897637795
20
-5.0651574803149604
11
3.003948897637795
21
-5.0208661417322835
0
LINE
8
BLACK
6
CONTINUOUS
10
3.003948897637795
20
-5.0208661417322835
11
3.0040238188976378
21
-5.0204894881889759
0
LINE
8
BLACK
6
CONTINUOUS
10
3.0040238188976378
20
-5.0204894881889759
11
3.004556496062992
21
-5.0199568110236221
0
LINE
8
BLACK
6
CONTINUOUS
10
3.004556496062992
20
-5.0199568110236221
11
3.0049331496062992
21
-5.0198818897637798
0
LINE
8
BLACK
6
CONTINUOUS
10
3.0049331496062992
20
-5.0198818897637798
11
3.0445000787401573
21
-5.0198818897637798
0
LINE
8
BLACK
6
CONTINUOUS
10
3.0445000787401573
20
-5.0198818897637798
11
3.0445000787401573
21
-4.9785433070866141
0
LINE
8
BLACK
6
CONTINUOUS
10
3.0445000787401573
20
-4.9785433070866141
11
3.0049331496062992
21
-4.9785433070866141
0
LINE
8
BLACK
6
CONTINUOUS
10
3.0049331496062992
20
-4.9785433070866141
11
3.004556496062992
21
-4.9784683858267718
0
LINE
8
BLACK
6
CONTINUOUS
10
3.004556496062992
20
-4.9784683858267718
11
3.0040238188976378
21
-4.9779357086614171
0
LINE
8
BLACK
6
CONTINUOUS
10
3.0040238188976378
20
-4.9779357086614171
11
3.003948897637795
21
-4.9775590551181104
0
LINE
8
BLACK
6
CONTINUOUS
10
3.003948897637795
20
-4.9775590551181104
11
3.003948897637795
21
-4.9332677165354326
0
LINE
8
BLACK
6
CONTINUOUS
10
3.003948897637795
20
-4.9332677165354326
11
2.9350512598425196
21
-4.9332677165354326
0
LINE
8
BLACK
6
CONTINUOUS
10
2.640748031496063
20
-3.9124015748031495
11
2.640748031496063
21
-4.9301180708661416
0
LINE
8
BLACK
6
CONTINUOUS
10
2.640748031496063
20
-4.9301180708661416
11
3.6584645669291338
21
-4.9301180708661416
0
LINE
8
BLACK
6
CONTINUOUS
10
3.6584645669291338
20
-4.9301180708661416
11
3.6584645669291338
21
-3.9124015748031495
0
LINE
8
BLACK
6
CONTINUOUS
10
3.6584645669291338
20
-3.9124015748031495
11
2.640748031496063
21
-3.9124015748031495
0
LINE
8
BLACK
6
CONTINUOUS
10
4.5448648425196847
20
-4.3380670472440945
11
4.5453975196850394
21
-4.3385997244094483
0
LINE
8
BLACK
6
CONTINUOUS
10
4.5453975196850394
20
-4.3385997244094483
11
4.5454724409448817
21
-4.3389763779527559
0
LINE
8
BLACK
6
CONTINUOUS
10
4.5454724409448817
20
-4.3389763779527559
11
4.5454724409448817
21
-4.9984251968503939
0
LINE
8
BLACK
6
CONTINUOUS
10
4.5454724409448817
20
-4.9984251968503939
11
4.5453975196850394
21
-4.9988018503937006
0
LINE
8
BLACK
6
CONTINUOUS
10
4.5453975196850394
20
-4.9988018503937006
11
4.5448648425196847
21
-4.9993345275590553
0
LINE
8
BLACK
6
CONTINUOUS
10
4.5448648425196847
20
-4.9993345275590553
11
4.544488188976378
21
-4.9994094488188976
0
LINE
8
BLACK
6
CONTINUOUS
10
4.544488188976378
20
-4.9994094488188976
11
3.7744094488188975
21
-4.9994094488188976
0
LINE
8
BLACK
6
CONTINUOUS
10
3.7744094488188975
20
-4.9994094488188976
11
3.7740327952755903
21
-4.9993345275590553
0
LINE
8
BLACK
6
CONTINUOUS
10
3.7740327952755903
20
-4.9993345275590553
11
3.7735001181102361
21
-4.9988018503937006
0
LINE
8
BLACK
6
CONTINUOUS
10
3.7735001181102361
20
-4.9988018503937006
11
3.7734251968503938
21
-4.9984251968503939
0
LINE
8
BLACK
6
CONTINUOUS
10
3.7734251968503938
20
-4.9984251968503939
11
3.7734251968503938
21
-4.3389764173228347
0
LINE
8
BLACK
6
CONTINUOUS
10
3.7734251968503938
20
-4.3389764173228347
11
3.7735001181102361
21
-4.3385997637795271
0
LINE
8
BLACK
6
CONTINUOUS
10
3.7735001181102361
20
-4.3385997637795271
11
3.7740327952755903
21
-4.3380670866141733
0
LINE
8
BLACK
6
CONTINUOUS
10
3.7740327952755903
20
-4.3380670866141733
11
3.7744094488188975
21
-4.337992165354331
0
LINE
8
BLACK
6
CONTINUOUS
10
3.7744094488188975
20
-4.337992165354331
11
4.544488188976378
21
-4.3379921259842522
0
LINE
8
BLACK
6
CONTINUOUS
10
4.544488188976378
20
-4.3379921259842522
11
4.5448648425196847
21
-4.3380670472440945
0
LINE
8
BLACK
6
CONTINUOUS
10
3.7753937007874017
20
-4.3399606299212596
11
3.7753937007874017
21
-4.9974409448818893
0
LINE
8
BLACK
6
CONTINUOUS
10
3.7753937007874017
20
-4.9974409448818893
11
4.5435039370078742
21
-4.9974409448818893
0
LINE
8
BLACK
6
CONTINUOUS
10
4.5435039370078742
20
-4.9974409448818893
11
4.5435039370078742
21
-4.3399606299212596
0
LINE
8
BLACK
6
CONTINUOUS
10
4.5435039370078742
20
-4.3399606299212596
11
3.7753937007874017
21
-4.3399606299212596
0
LINE
8
BLACK
6
CONTINUOUS
10
4.4925026377952753
20
-4.0633623228346458
11
4.4930353149606299
21
-4.0638949999999996
0
LINE
8
BLACK
6
CONTINUOUS
10
4.4930353149606299
20
-4.0638949999999996
11
4.4931102362204722
21
-4.0642716535433072
0
LINE
8
BLACK
6
CONTINUOUS
10
4.4931102362204722
20
-4.0642716535433072
11
4.4931102362204722
21
-4.1038385433070861
0
LINE
8
BLACK
6
CONTINUOUS
10
4.4931102362204722
20
-4.1038385433070861
11
4.5374015748031491
21
-4.1038385433070861
0
LINE
8
BLACK
6
CONTINUOUS
10
4.5374015748031491
20
-4.1038385433070861
11
4.5377782283464567
21
-4.1039134645669293
0
LINE
8
BLACK
6
CONTINUOUS
10
4.5377782283464567
20
-4.1039134645669293
11
4.5383109055118105
21
-4.1044461417322831
0
LINE
8
BLACK
6
CONTINUOUS
10
4.5383109055118105
20
-4.1044461417322831
11
4.5383858267716537
21
-4.1048227952755907
0
LINE
8
BLACK
6
CONTINUOUS
10
4.5383858267716537
20
-4.1048227952755907
11
4.5383858267716537
21
-4.1756890157480315
0
LINE
8
BLACK
6
CONTINUOUS
10
4.5383858267716537
20
-4.1756890157480315
11
4.5383109055118105
21
-4.1760656299212595
0
LINE
8
BLACK
6
CONTINUOUS
10
4.5383109055118105
20
-4.1760656299212595
11
4.5383109055118105
21
-4.1760656692913383
0
LINE
8
BLACK
6
CONTINUOUS
10
4.5383109055118105
20
-4.1760656692913383
11
4.5377782283464567
21
-4.1765983464566929
0
LINE
8
BLACK
6
CONTINUOUS
10
4.5377782283464567
20
-4.1765983464566929
11
4.5374015748031491
21
-4.1766732677165352
0
LINE
8
BLACK
6
CONTINUOUS
10
4.5374015748031491
20
-4.1766732677165352
11
4.5305118110236222
21
-4.1766732283464565
0
LINE
8
BLACK
6
CONTINUOUS
10
4.5305118110236222
20
-4.1766732283464565
11
4.5305118110236222
21
-4.216240157480315
0
LINE
8
BLACK
6
CONTINUOUS
10
4.5305118110236222
20
-4.216240157480315
11
4.530436889763779
21
-4.2166168110236217
0
LINE
8
BLACK
6
CONTINUOUS
10
4.530436889763779
20
-4.2166168110236217
11
4.5299042125984252
21
-4.2171494881889764
0
LINE
8
BLACK
6
CONTINUOUS
10
4.5299042125984252
20
-4.2171494881889764
11
4.5295275590551176
21
-4.2172244094488187
0
LINE
8
BLACK
6
CONTINUOUS
10
4.5295275590551176
20
-4.2172244094488187
11
4.4858268110236219
21
-4.2172244094488187
0
LINE
8
BLACK
6
CONTINUOUS
10
4.4858268110236219
20
-4.2172244094488187
11
4.4854501574803152
21
-4.2171494881889764
0
LINE
8
BLACK
6
CONTINUOUS
10
4.4854501574803152
20
-4.2171494881889764
11
4.4849174803149605
21
-4.2166168110236217
0
LINE
8
BLACK
6
CONTINUOUS
10
4.4849174803149605
20
-4.2166168110236217
11
4.4848425590551182
21
-4.216240157480315
0
LINE
8
BLACK
6
CONTINUOUS
10
4.4848425590551182
20
-4.216240157480315
11
4.4848425590551182
21
-4.1766732283464565
0
LINE
8
BLACK
6
CONTINUOUS
10
4.4848425590551182
20
-4.1766732283464565
11
4.4561023228346457
21
-4.1766732283464565
0
LINE
8
BLACK
6
CONTINUOUS
10
4.4561023228346457
20
-4.1766732283464565
11
4.4561023228346457
21
-4.216240157480315
0
LINE
8
BLACK
6
CONTINUOUS
10
4.4561023228346457
20
-4.216240157480315
11
4.4560274015748034
21
-4.2166168110236217
0
LINE
8
BLACK
6
CONTINUOUS
10
4.4560274015748034
20
-4.2166168110236217
11
4.4554947244094487
21
-4.2171494881889764
0
LINE
8
BLACK
6
CONTINUOUS
10
4.4554947244094487
20
-4.2171494881889764
11
4.455118070866142
21
-4.2172244094488187
0
LINE
8
BLACK
6
CONTINUOUS
10
4.455118070866142
20
-4.2172244094488187
11
4.4114173228346454
21
-4.2172244094488187
0
LINE
8
BLACK
6
CONTINUOUS
10
4.4114173228346454
20
-4.2172244094488187
11
4.4110406692913386
21
-4.2171494881889764
0
LINE
8
BLACK
6
CONTINUOUS
10
4.4110406692913386
20
-4.2171494881889764
11
4.410507992125984
21
-4.2166168110236217
0
LINE
8
BLACK
6
CONTINUOUS
10
4.410507992125984
20
-4.2166168110236217
11
4.4104330708661417
21
-4.216240157480315
0
LINE
8
BLACK
6
CONTINUOUS
10
4.4104330708661417
20
-4.216240157480315
11
4.4104330708661417
21
-4.1766732283464565
0
LINE
8
BLACK
6
CONTINUOUS
10
4.4104330708661417
20
-4.1766732283464565
11
4.4035433070866139
21
-4.1766732677165352
0
LINE
8
BLACK
6
CONTINUOUS
10
4.4035433070866139
20
-4.1766732677165352
11
4.4031666535433072
21
-4.1765983464566929
0
LINE
8
BLACK
6
CONTINUOUS
10
4.4031666535433072
20
-4.1765983464566929
11
4.4026339763779525
21
-4.1760656692913383
0
LINE
8
BLACK
6
CONTINUOUS
10
4.4026339763779525
20
-4.1760656692913383
11
4.4026339763779525
21
-4.1760656299212595
0
LINE
8
BLACK
6
CONTINUOUS
10
4.4026339763779525
20
-4.1760656299212595
11
4.4025590551181102
21
-4.1756890157480315
0
LINE
8
BLACK
6
CONTINUOUS
10
4.4025590551181102
20
-4.1756890157480315
11
4.4025590551181102
21
-4.1048227952755907
0
LINE
8
BLACK
6
CONTINUOUS
10
4.4025590551181102
20
-4.1048227952755907
11
4.4026339763779525
21
-4.1044461417322831
0
LINE
8
BLACK
6
CONTINUOUS
10
4.4026339763779525
20
-4.1044461417322831
11
4.4031666535433072
21
-4.1039134645669293
0
LINE
8
BLACK
6
CONTINUOUS
10
4.4031666535433072
20
-4.1039134645669293
11
4.4035433070866139
21
-4.1038385433070861
0
LINE
8
BLACK
6
CONTINUOUS
10
4.4035433070866139
20
-4.1038385433070861
11
4.4478346456692917
21
-4.1038385433070861
0
LINE
8
BLACK
6
CONTINUOUS
10
4.4478346456692917
20
-4.1038385433070861
11
4.4478346456692917
21
-4.0642716535433072
0
LINE
8
BLACK
6
CONTINUOUS
10
4.4478346456692917
20
-4.0642716535433072
11
4.447909566929134
21
-4.0638949999999996
0
LINE
8
BLACK
6
CONTINUOUS
10
4.447909566929134
20
-4.0638949999999996
11
4.4484422440944877
21
-4.0633623228346458
0
LINE
8
BLACK
6
CONTINUOUS
10
4.4484422440944877
20
-4.0633623228346458
11
4.4488188976377954
21
-4.0632874015748026
0
LINE
8
BLACK
6
CONTINUOUS
10
4.4488188976377954
20
-4.0632874015748026
11
4.4921259842519685
21
-4.0632874015748026
0
LINE
8
BLACK
6
CONTINUOUS
10
4.4921259842519685
20
-4.0632874015748026
11
4.4925026377952753
21
-4.0633623228346458
0
LINE
8
BLACK
6
CONTINUOUS
10
4.4498031496062991
20
-4.0652559055118109
11
4.4498031496062991
21
-4.1048228346456694
0
LINE
8
BLACK
6
CONTINUOUS
10
4.4498031496062991
20
-4.1048228346456694
11
4.4497282283464568
21
-4.1051994488188974
0
LINE
8
BLACK
6
CONTINUOUS
10
4.4497282283464568
20
-4.1051994488188974
11
4.4497282283464568
21
-4.1051994881889762
0
LINE
8
BLACK
6
CONTINUOUS
10
4.4497282283464568
20
-4.1051994881889762
11
4.4491955511811021
21
-4.1057321653543308
0
LINE
8
BLACK
6
CONTINUOUS
10
4.4491955511811021
20
-4.1057321653543308
11
4.4488188976377954
21
-4.1058070866141732
0
LINE
8
BLACK
6
CONTINUOUS
10
4.4488188976377954
20
-4.1058070866141732
11
4.4045275590551176
21
-4.1058070472440944
0
LINE
8
BLACK
6
CONTINUOUS
10
4.4045275590551176
20
-4.1058070472440944
11
4.4045275590551176
21
-4.1747047244094491
0
LINE
8
BLACK
6
CONTINUOUS
10
4.4045275590551176
20
-4.1747047244094491
11
4.4114173228346454
21
-4.1747047244094491
0
LINE
8
BLACK
6
CONTINUOUS
10
4.4114173228346454
20
-4.1747047244094491
11
4.411793976377953
21
-4.1747796456692914
0
LINE
8
BLACK
6
CONTINUOUS
10
4.411793976377953
20
-4.1747796456692914
11
4.4123266535433068
21
-4.1753123228346452
0
LINE
8
BLACK
6
CONTINUOUS
10
4.4123266535433068
20
-4.1753123228346452
11
4.4124015748031491
21
-4.1756889763779528
0
LINE
8
BLACK
6
CONTINUOUS
10
4.4124015748031491
20
-4.1756889763779528
11
4.4124015748031491
21
-4.2152559055118113
0
LINE
8
BLACK
6
CONTINUOUS
10
4.4124015748031491
20
-4.2152559055118113
11
4.4541338188976374
21
-4.2152559055118113
0
LINE
8
BLACK
6
CONTINUOUS
10
4.4541338188976374
20
-4.2152559055118113
11
4.4541338188976374
21
-4.1756889763779528
0
LINE
8
BLACK
6
CONTINUOUS
10
4.4541338188976374
20
-4.1756889763779528
11
4.4542087401574806
21
-4.1753123228346452
0
LINE
8
BLACK
6
CONTINUOUS
10
4.4542087401574806
20
-4.1753123228346452
11
4.4547414173228344
21
-4.1747796456692914
0
LINE
8
BLACK
6
CONTINUOUS
10
4.4547414173228344
20
-4.1747796456692914
11
4.455118070866142
21
-4.1747047244094491
0
LINE
8
BLACK
6
CONTINUOUS
10
4.455118070866142
20
-4.1747047244094491
11
4.4858268110236219
21
-4.1747047244094491
0
LINE
8
BLACK
6
CONTINUOUS
10
4.4858268110236219
20
-4.1747047244094491
11
4.4862034645669286
21
-4.1747796456692914
0
LINE
8
BLACK
6
CONTINUOUS
10
4.4862034645669286
20
-4.1747796456692914
11
4.4867361417322833
21
-4.1753123228346452
0
LINE
8
BLACK
6
CONTINUOUS
10
4.4867361417322833
20
-4.1753123228346452
11
4.4868110629921256
21
-4.1756889763779528
0
LINE
8
BLACK
6
CONTINUOUS
10
4.4868110629921256
20
-4.1756889763779528
11
4.4868110629921256
21
-4.2152559055118113
0
LINE
8
BLACK
6
CONTINUOUS
10
4.4868110629921256
20
-4.2152559055118113
11
4.5285433070866139
21
-4.2152559055118113
0
LINE
8
BLACK
6
CONTINUOUS
10
4.5285433070866139
20
-4.2152559055118113
11
4.5285433070866139
21
-4.1756889763779528
0
LINE
8
BLACK
6
CONTINUOUS
10
4.5285433070866139
20
-4.1756889763779528
11
4.5286182283464562
21
-4.1753123228346452
0
LINE
8
BLACK
6
CONTINUOUS
10
4.5286182283464562
20
-4.1753123228346452
11
4.5291509055118109
21
-4.1747796456692914
0
LINE
8
BLACK
6
CONTINUOUS
10
4.5291509055118109
20
-4.1747796456692914
11
4.5295275590551176
21
-4.1747047244094491
0
LINE
8
BLACK
6
CONTINUOUS
10
4.5295275590551176
20
-4.1747047244094491
11
4.5364173228346454
21
-4.1747047244094491
0
LINE
8
BLACK
6
CONTINUOUS
10
4.5364173228346454
20
-4.1747047244094491
11
4.5364173228346454
21
-4.1058070472440944
0
LINE
8
BLACK
6
CONTINUOUS
10
4.5364173228346454
20
-4.1058070472440944
11
4.4921259842519685
21
-4.1058070866141732
0
LINE
8
BLACK
6
CONTINUOUS
10
4.4921259842519685
20
-4.1058070866141732
11
4.4917493307086609
21
-4.1057321653543308
0
LINE
8
BLACK
6
CONTINUOUS
10
4.4917493307086609
20
-4.1057321653543308
11
4.4912166535433071
21
-4.1051994881889762
0
LINE
8
BLACK
6
CONTINUOUS
10
4.4912166535433071
20
-4.1051994881889762
11
4.4912166535433071
21
-4.1051994488188974
0
LINE
8
BLACK
6
CONTINUOUS
10
4.4912166535433071
20
-4.1051994488188974
11
4.4911417322834648
21
-4.1048228346456694
0
LINE
8
BLACK
6
CONTINUOUS
10
4.4911417322834648
20
-4.1048228346456694
11
4.4911417322834648
21
-4.0652559055118109
0
LINE
8
BLACK
6
CONTINUOUS
10
4.4911417322834648
20
-4.0652559055118109
11
4.4498031496062991
21
-4.0652559055118109
0
LINE
8
BLACK
6
CONTINUOUS
10
4.0200616929133854
20
-4.0594253149606301
11
4.0205943700787401
21
-4.0599579921259838
0
LINE
8
BLACK
6
CONTINUOUS
10
4.0205943700787401
20
-4.0599579921259838
11
4.0206692913385824
21
-4.0603346456692915
0
LINE
8
BLACK
6
CONTINUOUS
10
4.0206692913385824
20
-4.0603346456692915
11
4.0206692913385824
21
-4.0999015354330703
0
LINE
8
BLACK
6
CONTINUOUS
10
4.0206692913385824
20
-4.0999015354330703
11
4.0649606299212602
21
-4.0999015354330703
0
LINE
8
BLACK
6
CONTINUOUS
10
4.0649606299212602
20
-4.0999015354330703
11
4.0653372834645669
21
-4.0999764566929136
0
LINE
8
BLACK
6
CONTINUOUS
10
4.0653372834645669
20
-4.0999764566929136
11
4.0658699606299216
21
-4.1005091338582673
0
LINE
8
BLACK
6
CONTINUOUS
10
4.0658699606299216
20
-4.1005091338582673
11
4.0659448818897639
21
-4.1008857874015749
0
LINE
8
BLACK
6
CONTINUOUS
10
4.0659448818897639
20
-4.1008857874015749
11
4.0659448818897639
21
-4.1717520078740158
0
LINE
8
BLACK
6
CONTINUOUS
10
4.0659448818897639
20
-4.1717520078740158
11
4.0658699606299216
21
-4.1721286220472438
0
LINE
8
BLACK
6
CONTINUOUS
10
4.0658699606299216
20
-4.1721286220472438
11
4.0658699606299216
21
-4.1721286614173225
0
LINE
8
BLACK
6
CONTINUOUS
10
4.0658699606299216
20
-4.1721286614173225
11
4.0653372834645669
21
-4.1726613385826772
0
LINE
8
BLACK
6
CONTINUOUS
10
4.0653372834645669
20
-4.1726613385826772
11
4.0649606299212602
21
-4.1727362598425195
0
LINE
8
BLACK
6
CONTINUOUS
10
4.0649606299212602
20
-4.1727362598425195
11
4.0580708661417324
21
-4.1727362204724407
0
LINE
8
BLACK
6
CONTINUOUS
10
4.0580708661417324
20
-4.1727362204724407
11
4.0580708661417324
21
-4.2123031496062993
0
LINE
8
BLACK
6
CONTINUOUS
10
4.0580708661417324
20
-4.2123031496062993
11
4.0579959448818901
21
-4.212679803149606
0
LINE
8
BLACK
6
CONTINUOUS
10
4.0579959448818901
20
-4.212679803149606
11
4.0574632677165354
21
-4.2132124803149607
0
LINE
8
BLACK
6
CONTINUOUS
10
4.0574632677165354
20
-4.2132124803149607
11
4.0570866141732287
21
-4.213287401574803
0
LINE
8
BLACK
6
CONTINUOUS
10
4.0570866141732287
20
-4.213287401574803
11
4.0133858661417321
21
-4.213287401574803
0
LINE
8
BLACK
6
CONTINUOUS
10
4.0133858661417321
20
-4.213287401574803
11
4.0130092125984254
21
-4.2132124803149607
0
LINE
8
BLACK
6
CONTINUOUS
10
4.0130092125984254
20
-4.2132124803149607
11
4.0124765354330707
21
-4.212679803149606
0
LINE
8
BLACK
6
CONTINUOUS
10
4.0124765354330707
20
-4.212679803149606
11
4.0124016141732284
21
-4.2123031496062993
0
LINE
8
BLACK
6
CONTINUOUS
10
4.0124016141732284
20
-4.2123031496062993
11
4.0124016141732284
21
-4.1727362204724407
0
LINE
8
BLACK
6
CONTINUOUS
10
4.0124016141732284
20
-4.1727362204724407
11
3.9836613779527559
21
-4.1727362204724407
0
LINE
8
BLACK
6
CONTINUOUS
10
3.9836613779527559
20
-4.1727362204724407
11
3.9836613779527559
21
-4.2123031496062993
0
LINE
8
BLACK
6
CONTINUOUS
10
3.9836613779527559
20
-4.2123031496062993
11
3.9835864566929131
21
-4.212679803149606
0
LINE
8
BLACK
6
CONTINUOUS
10
3.9835864566929131
20
-4.212679803149606
11
3.9830537795275589
21
-4.2132124803149607
0
LINE
8
BLACK
6
CONTINUOUS
10
3.9830537795275589
20
-4.2132124803149607
11
3.9826771259842517
21
-4.213287401574803
0
LINE
8
BLACK
6
CONTINUOUS
10
3.9826771259842517
20
-4.213287401574803
11
3.938976377952756
21
-4.213287401574803
0
LINE
8
BLACK
6
CONTINUOUS
10
3.938976377952756
20
-4.213287401574803
11
3.9385997244094488
21
-4.2132124803149607
0
LINE
8
BLACK
6
CONTINUOUS
10
3.9385997244094488
20
-4.2132124803149607
11
3.9380670472440946
21
-4.212679803149606
0
LINE
8
BLACK
6
CONTINUOUS
10
3.9380670472440946
20
-4.212679803149606
11
3.9379921259842519
21
-4.2123031496062993
0
LINE
8
BLACK
6
CONTINUOUS
10
3.9379921259842519
20
-4.2123031496062993
11
3.9379921259842519
21
-4.1727362204724407
0
LINE
8
BLACK
6
CONTINUOUS
10
3.9379921259842519
20
-4.1727362204724407
11
3.9311023622047245
21
-4.1727362598425195
0
LINE
8
BLACK
6
CONTINUOUS
10
3.9311023622047245
20
-4.1727362598425195
11
3.9307257086614174
21
-4.1726613385826772
0
LINE
8
BLACK
6
CONTINUOUS
10
3.9307257086614174
20
-4.1726613385826772
11
3.9301930314960627
21
-4.1721286614173225
0
LINE
8
BLACK
6
CONTINUOUS
10
3.9301930314960627
20
-4.1721286614173225
11
3.9301930314960627
21
-4.1721286220472438
0
LINE
8
BLACK
6
CONTINUOUS
10
3.9301930314960627
20
-4.1721286220472438
11
3.9301181102362204
21
-4.1717520078740158
0
LINE
8
BLACK
6
CONTINUOUS
10
3.9301181102362204
20
-4.1717520078740158
11
3.9301181102362204
21
-4.1008857874015749
0
LINE
8
BLACK
6
CONTINUOUS
10
3.9301181102362204
20
-4.1008857874015749
11
3.9301930314960627
21
-4.1005091338582673
0
LINE
8
BLACK
6
CONTINUOUS
10
3.9301930314960627
20
-4.1005091338582673
11
3.9307257086614174
21
-4.0999764566929136
0
LINE
8
BLACK
6
CONTINUOUS
10
3.9307257086614174
20
-4.0999764566929136
11
3.9311023622047245
21
-4.0999015354330703
0
LINE
8
BLACK
6
CONTINUOUS
10
3.9311023622047245
20
-4.0999015354330703
11
3.9753937007874014
21
-4.0999015354330703
0
LINE
8
BLACK
6
CONTINUOUS
10
3.9753937007874014
20
-4.0999015354330703
11
3.9753937007874014
21
-4.0603346456692915
0
LINE
8
BLACK
6
CONTINUOUS
10
3.9753937007874014
20
-4.0603346456692915
11
3.9754686220472442
21
-4.0599579921259838
0
LINE
8
BLACK
6
CONTINUOUS
10
3.9754686220472442
20
-4.0599579921259838
11
3.9760012992125984
21
-4.0594253149606301
0
LINE
8
BLACK
6
CONTINUOUS
10
3.9760012992125984
20
-4.0594253149606301
11
3.9763779527559056
21
-4.0593503937007869
0
LINE
8
BLACK
6
CONTINUOUS
10
3.9763779527559056
20
-4.0593503937007869
11
4.0196850393700787
21
-4.0593503937007869
0
LINE
8
BLACK
6
CONTINUOUS
10
4.0196850393700787
20
-4.0593503937007869
11
4.0200616929133854
21
-4.0594253149606301
0
LINE
8
BLACK
6
CONTINUOUS
10
3.9773622047244093
20
-4.0613188976377952
11
3.9773622047244093
21
-4.1008858267716537
0
LINE
8
BLACK
6
CONTINUOUS
10
3.9773622047244093
20
-4.1008858267716537
11
3.9772872834645669
21
-4.1012624409448817
0
LINE
8
BLACK
6
CONTINUOUS
10
3.9772872834645669
20
-4.1012624409448817
11
3.9772872834645669
21
-4.1012624803149604
0
LINE
8
BLACK
6
CONTINUOUS
10
3.9772872834645669
20
-4.1012624803149604
11
3.9767546062992123
21
-4.1017951574803151
0
LINE
8
BLACK
6
CONTINUOUS
10
3.9767546062992123
20
-4.1017951574803151
11
3.9763779527559056
21
-4.1018700787401574
0
LINE
8
BLACK
6
CONTINUOUS
10
3.9763779527559056
20
-4.1018700787401574
11
3.9320866141732282
21
-4.1018700393700787
0
LINE
8
BLACK
6
CONTINUOUS
10
3.9320866141732282
20
-4.1018700393700787
11
3.9320866141732282
21
-4.1707677165354333
0
LINE
8
BLACK
6
CONTINUOUS
10
3.9320866141732282
20
-4.1707677165354333
11
3.938976377952756
21
-4.1707677165354333
0
LINE
8
BLACK
6
CONTINUOUS
10
3.938976377952756
20
-4.1707677165354333
11
3.9393530314960628
21
-4.1708426377952756
0
LINE
8
BLACK
6
CONTINUOUS
10
3.9393530314960628
20
-4.1708426377952756
11
3.9398857086614174
21
-4.1713753149606294
0
LINE
8
BLACK
6
CONTINUOUS
10
3.9398857086614174
20
-4.1713753149606294
11
3.9399606299212597
21
-4.171751968503937
0
LINE
8
BLACK
6
CONTINUOUS
10
3.9399606299212597
20
-4.171751968503937
11
3.9399606299212597
21
-4.2113188976377955
0
LINE
8
BLACK
6
CONTINUOUS
10
3.9399606299212597
20
-4.2113188976377955
11
3.981692874015748
21
-4.2113188976377955
0
LINE
8
BLACK
6
CONTINUOUS
10
3.981692874015748
20
-4.2113188976377955
11
3.981692874015748
21
-4.171751968503937
0
LINE
8
BLACK
6
CONTINUOUS
10
3.981692874015748
20
-4.171751968503937
11
3.9817677952755903
21
-4.1713753149606294
0
LINE
8
BLACK
6
CONTINUOUS
10
3.9817677952755903
20
-4.1713753149606294
11
3.982300472440945
21
-4.1708426377952756
0
LINE
8
BLACK
6
CONTINUOUS
10
3.982300472440945
20
-4.1708426377952756
11
3.9826771259842517
21
-4.1707677165354333
0
LINE
8
BLACK
6
CONTINUOUS
10
3.9826771259842517
20
-4.1707677165354333
11
4.0133858661417321
21
-4.1707677165354333
0
LINE
8
BLACK
6
CONTINUOUS
10
4.0133858661417321
20
-4.1707677165354333
11
4.0137625196850397
21
-4.1708426377952756
0
LINE
8
BLACK
6
CONTINUOUS
10
4.0137625196850397
20
-4.1708426377952756
11
4.0142951968503935
21
-4.1713753149606294
0
LINE
8
BLACK
6
CONTINUOUS
10
4.0142951968503935
20
-4.1713753149606294
11
4.0143701181102358
21
-4.171751968503937
0
LINE
8
BLACK
6
CONTINUOUS
10
4.0143701181102358
20
-4.171751968503937
11
4.0143701181102358
21
-4.2113188976377955
0
LINE
8
BLACK
6
CONTINUOUS
10
4.0143701181102358
20
-4.2113188976377955
11
4.0561023622047241
21
-4.2113188976377955
0
LINE
8
BLACK
6
CONTINUOUS
10
4.0561023622047241
20
-4.2113188976377955
11
4.0561023622047241
21
-4.171751968503937
0
LINE
8
BLACK
6
CONTINUOUS
10
4.0561023622047241
20
-4.171751968503937
11
4.0561772834645664
21
-4.1713753149606294
0
LINE
8
BLACK
6
CONTINUOUS
10
4.0561772834645664
20
-4.1713753149606294
11
4.0567099606299211
21
-4.1708426377952756
0
LINE
8
BLACK
6
CONTINUOUS
10
4.0567099606299211
20
-4.1708426377952756
11
4.0570866141732287
21
-4.1707677165354333
0
LINE
8
BLACK
6
CONTINUOUS
10
4.0570866141732287
20
-4.1707677165354333
11
4.0639763779527556
21
-4.1707677165354333
0
LINE
8
BLACK
6
CONTINUOUS
10
4.0639763779527556
20
-4.1707677165354333
11
4.0639763779527556
21
-4.1018700393700787
0
LINE
8
BLACK
6
CONTINUOUS
10
4.0639763779527556
20
-4.1018700393700787
11
4.0196850393700787
21
-4.1018700787401574
0
LINE
8
BLACK
6
CONTINUOUS
10
4.0196850393700787
20
-4.1018700787401574
11
4.019308385826772
21
-4.1017951574803151
0
LINE
8
BLACK
6
CONTINUOUS
10
4.019308385826772
20
-4.1017951574803151
11
4.0187757086614173
21
-4.1012624803149604
0
LINE
8
BLACK
6
CONTINUOUS
10
4.0187757086614173
20
-4.1012624803149604
11
4.0187757086614173
21
-4.1012624409448817
0
LINE
8
BLACK
6
CONTINUOUS
10
4.0187757086614173
20
-4.1012624409448817
11
4.018700787401575
21
-4.1008858267716537
0
LINE
8
BLACK
6
CONTINUOUS
10
4.018700787401575
20
-4.1008858267716537
11
4.018700787401575
21
-4.0613188976377952
0
LINE
8
BLACK
6
CONTINUOUS
10
4.018700787401575
20
-4.0613188976377952
11
3.9773622047244093
21
-4.0613188976377952
0
LINE
8
BLACK
6
CONTINUOUS
10
4.1736050000000002
20
-4.0554883070866143
11
4.174137677165354
21
-4.0560209842519681
0
LINE
8
BLACK
6
CONTINUOUS
10
4.174137677165354
20
-4.0560209842519681
11
4.1742125984251963
21
-4.0563976377952757
0
LINE
8
BLACK
6
CONTINUOUS
10
4.1742125984251963
20
-4.0563976377952757
11
4.1742125984251963
21
-4.0959645275590546
0
LINE
8
BLACK
6
CONTINUOUS
10
4.1742125984251963
20
-4.0959645275590546
11
4.2185039370078741
21
-4.0959645275590546
0
LINE
8
BLACK
6
CONTINUOUS
10
4.2185039370078741
20
-4.0959645275590546
11
4.2188805905511808
21
-4.0960394488188978
0
LINE
8
BLACK
6
CONTINUOUS
10
4.2188805905511808
20
-4.0960394488188978
11
4.2194132677165355
21
-4.0965721259842516
0
LINE
8
BLACK
6
CONTINUOUS
10
4.2194132677165355
20
-4.0965721259842516
11
4.2194881889763778
21
-4.0969487795275592
0
LINE
8
BLACK
6
CONTINUOUS
10
4.2194881889763778
20
-4.0969487795275592
11
4.2194881889763778
21
-4.167815
0
LINE
8
BLACK
6
CONTINUOUS
10
4.2194881889763778
20
-4.167815
11
4.2194132677165355
21
-4.168191614173228
0
LINE
8
BLACK
6
CONTINUOUS
10
4.2194132677165355
20
-4.168191614173228
11
4.2194132677165355
21
-4.1681916535433068
0
LINE
8
BLACK
6
CONTINUOUS
10
4.2194132677165355
20
-4.1681916535433068
11
4.2188805905511808
21
-4.1687243307086614
0
LINE
8
BLACK
6
CONTINUOUS
10
4.2188805905511808
20
-4.1687243307086614
11
4.2185039370078741
21
-4.1687992519685038
0
LINE
8
BLACK
6
CONTINUOUS
10
4.2185039370078741
20
-4.1687992519685038
11
4.2116141732283463
21
-4.168799212598425
0
LINE
8
BLACK
6
CONTINUOUS
10
4.2116141732283463
20
-4.168799212598425
11
4.2116141732283463
21
-4.2083661417322835
0
LINE
8
BLACK
6
CONTINUOUS
10
4.2116141732283463
20
-4.2083661417322835
11
4.211539251968504
21
-4.2087427952755903
0
LINE
8
BLACK
6
CONTINUOUS
10
4.211539251968504
20
-4.2087427952755903
11
4.2110065748031493
21
-4.2092754724409449
0
LINE
8
BLACK
6
CONTINUOUS
10
4.2110065748031493
20
-4.2092754724409449
11
4.2106299212598426
21
-4.2093503937007872
0
LINE
8
BLACK
6
CONTINUOUS
10
4.2106299212598426
20
-4.2093503937007872
11
4.166929173228346
21
-4.2093503937007872
0
LINE
8
BLACK
6
CONTINUOUS
10
4.166929173228346
20
-4.2093503937007872
11
4.1665525196850393
21
-4.2092754724409449
0
LINE
8
BLACK
6
CONTINUOUS
10
4.1665525196850393
20
-4.2092754724409449
11
4.1660198425196846
21
-4.2087427952755903
0
LINE
8
BLACK
6
CONTINUOUS
10
4.1660198425196846
20
-4.2087427952755903
11
4.1659449212598423
21
-4.2083661417322835
0
LINE
8
BLACK
6
CONTINUOUS
10
4.1659449212598423
20
-4.2083661417322835
11
4.1659449212598423
21
-4.168799212598425
0
LINE
8
BLACK
6
CONTINUOUS
10
4.1659449212598423
20
-4.168799212598425
11
4.1372046850393698
21
-4.168799212598425
0
LINE
8
BLACK
6
CONTINUOUS
10
4.1372046850393698
20
-4.168799212598425
11
4.1372046850393698
21
-4.2083661417322835
0
LINE
8
BLACK
6
CONTINUOUS
10
4.1372046850393698
20
-4.2083661417322835
11
4.1371297637795275
21
-4.2087427952755903
0
LINE
8
BLACK
6
CONTINUOUS
10
4.1371297637795275
20
-4.2087427952755903
11
4.1365970866141728
21
-4.2092754724409449
0
LINE
8
BLACK
6
CONTINUOUS
10
4.1365970866141728
20
-4.2092754724409449
11
4.1362204330708661
21
-4.2093503937007872
0
LINE
8
BLACK
6
CONTINUOUS
10
4.1362204330708661
20
-4.2093503937007872
11
4.0925196850393704
21
-4.2093503937007872
0
LINE
8
BLACK
6
CONTINUOUS
10
4.0925196850393704
20
-4.2093503937007872
11
4.0921430314960627
21
-4.2092754724409449
0
LINE
8
BLACK
6
CONTINUOUS
10
4.0921430314960627
20
-4.2092754724409449
11
4.091610354330709
21
-4.2087427952755903
0
LINE
8
BLACK
6
CONTINUOUS
10
4.091610354330709
20
-4.2087427952755903
11
4.0915354330708658
21
-4.2083661417322835
0
LINE
8
BLACK
6
CONTINUOUS
10
4.0915354330708658
20
-4.2083661417322835
11
4.0915354330708658
21
-4.168799212598425
0
LINE
8
BLACK
6
CONTINUOUS
10
4.0915354330708658
20
-4.168799212598425
11
4.0846456692913389
21
-4.1687992519685038
0
LINE
8
BLACK
6
CONTINUOUS
10
4.0846456692913389
20
-4.1687992519685038
11
4.0842690157480313
21
-4.1687243307086614
0
LINE
8
BLACK
6
CONTINUOUS
10
4.0842690157480313
20
-4.1687243307086614
11
4.0837363385826775
21
-4.1681916535433068
0
LINE
8
BLACK
6
CONTINUOUS
10
4.0837363385826775
20
-4.1681916535433068
11
4.0837363385826775
21
-4.168191614173228
0
LINE
8
BLACK
6
CONTINUOUS
10
4.0837363385826775
20
-4.168191614173228
11
4.0836614173228343
21
-4.167815
0
LINE
8
BLACK
6
CONTINUOUS
10
4.0836614173228343
20
-4.167815
11
4.0836614173228343
21
-4.0969487795275592
0
LINE
8
BLACK
6
CONTINUOUS
10
4.0836614173228343
20
-4.0969487795275592
11
4.0837363385826775
21
-4.0965721259842516
0
LINE
8
BLACK
6
CONTINUOUS
10
4.0837363385826775
20
-4.0965721259842516
11
4.0842690157480313
21
-4.0960394488188978
0
LINE
8
BLACK
6
CONTINUOUS
10
4.0842690157480313
20
-4.0960394488188978
11
4.0846456692913389
21
-4.0959645275590546
0
LINE
8
BLACK
6
CONTINUOUS
10
4.0846456692913389
20
-4.0959645275590546
11
4.1289370078740157
21
-4.0959645275590546
0
LINE
8
BLACK
6
CONTINUOUS
10
4.1289370078740157
20
-4.0959645275590546
11
4.1289370078740157
21
-4.0563976377952757
0
LINE
8
BLACK
6
CONTINUOUS
10
4.1289370078740157
20
-4.0563976377952757
11
4.1290119291338581
21
-4.0560209842519681
0
LINE
8
BLACK
6
CONTINUOUS
10
4.1290119291338581
20
-4.0560209842519681
11
4.1295446062992127
21
-4.0554883070866143
0
LINE
8
BLACK
6
CONTINUOUS
10
4.1295446062992127
20
-4.0554883070866143
11
4.1299212598425195
21
-4.0554133858267711
0
LINE
8
BLACK
6
CONTINUOUS
10
4.1299212598425195
20
-4.0554133858267711
11
4.1732283464566926
21
-4.0554133858267711
0
LINE
8
BLACK
6
CONTINUOUS
10
4.1732283464566926
20
-4.0554133858267711
11
4.1736050000000002
21
-4.0554883070866143
0
LINE
8
BLACK
6
CONTINUOUS
10
4.1309055118110232
20
-4.0573818897637794
11
4.1309055118110232
21
-4.096948818897638
0
LINE
8
BLACK
6
CONTINUOUS
10
4.1309055118110232
20
-4.096948818897638
11
4.1308305905511808
21
-4.0973254330708659
0
LINE
8
BLACK
6
CONTINUOUS
10
4.1308305905511808
20
-4.0973254330708659
11
4.1308305905511808
21
-4.0973254724409447
0
LINE
8
BLACK
6
CONTINUOUS
10
4.1308305905511808
20
-4.0973254724409447
11
4.1302979133858271
21
-4.0978581496062993
0
LINE
8
BLACK
6
CONTINUOUS
10
4.1302979133858271
20
-4.0978581496062993
11
4.1299212598425195
21
-4.0979330708661417
0
LINE
8
BLACK
6
CONTINUOUS
10
4.1299212598425195
20
-4.0979330708661417
11
4.0856299212598426
21
-4.0979330314960629
0
LINE
8
BLACK
6
CONTINUOUS
10
4.0856299212598426
20
-4.0979330314960629
11
4.0856299212598426
21
-4.1668307086614176
0
LINE
8
BLACK
6
CONTINUOUS
10
4.0856299212598426
20
-4.1668307086614176
11
4.0925196850393704
21
-4.1668307086614176
0
LINE
8
BLACK
6
CONTINUOUS
10
4.0925196850393704
20
-4.1668307086614176
11
4.0928963385826771
21
-4.1669056299212599
0
LINE
8
BLACK
6
CONTINUOUS
10
4.0928963385826771
20
-4.1669056299212599
11
4.0934290157480318
21
-4.1674383070866137
0
LINE
8
BLACK
6
CONTINUOUS
10
4.0934290157480318
20
-4.1674383070866137
11
4.0935039370078741
21
-4.1678149606299213
0
LINE
8
BLACK
6
CONTINUOUS
10
4.0935039370078741
20
-4.1678149606299213
11
4.0935039370078741
21
-4.2073818897637798
0
LINE
8
BLACK
6
CONTINUOUS
10
4.0935039370078741
20
-4.2073818897637798
11
4.1352361811023624
21
-4.2073818897637798
0
LINE
8
BLACK
6
CONTINUOUS
10
4.1352361811023624
20
-4.2073818897637798
11
4.1352361811023624
21
-4.1678149606299213
0
LINE
8
BLACK
6
CONTINUOUS
10
4.1352361811023624
20
-4.1678149606299213
11
4.1353111023622047
21
-4.1674383070866137
0
LINE
8
BLACK
6
CONTINUOUS
10
4.1353111023622047
20
-4.1674383070866137
11
4.1358437795275593
21
-4.1669056299212599
0
LINE
8
BLACK
6
CONTINUOUS
10
4.1358437795275593
20
-4.1669056299212599
11
4.1362204330708661
21
-4.1668307086614176
0
LINE
8
BLACK
6
CONTINUOUS
10
4.1362204330708661
20
-4.1668307086614176
11
4.166929173228346
21
-4.1668307086614176
0
LINE
8
BLACK
6
CONTINUOUS
10
4.166929173228346
20
-4.1668307086614176
11
4.1673058267716536
21
-4.1669056299212599
0
LINE
8
BLACK
6
CONTINUOUS
10
4.1673058267716536
20
-4.1669056299212599
11
4.1678385039370074
21
-4.1674383070866137
0
LINE
8
BLACK
6
CONTINUOUS
10
4.1678385039370074
20
-4.1674383070866137
11
4.1679134251968506
21
-4.1678149606299213
0
LINE
8
BLACK
6
CONTINUOUS
10
4.1679134251968506
20
-4.1678149606299213
11
4.1679134251968506
21
-4.2073818897637798
0
LINE
8
BLACK
6
CONTINUOUS
10
4.1679134251968506
20
-4.2073818897637798
11
4.2096456692913389
21
-4.2073818897637798
0
LINE
8
BLACK
6
CONTINUOUS
10
4.2096456692913389
20
-4.2073818897637798
11
4.2096456692913389
21
-4.1678149606299213
0
LINE
8
BLACK
6
CONTINUOUS
10
4.2096456692913389
20
-4.1678149606299213
11
4.2097205905511812
21
-4.1674383070866137
0
LINE
8
BLACK
6
CONTINUOUS
10
4.2097205905511812
20
-4.1674383070866137
11
4.210253267716535
21
-4.1669056299212599
0
LINE
8
BLACK
6
CONTINUOUS
10
4.210253267716535
20
-4.1669056299212599
11
4.2106299212598426
21
-4.1668307086614176
0
LINE
8
BLACK
6
CONTINUOUS
10
4.2106299212598426
20
-4.1668307086614176
11
4.2175196850393704
21
-4.1668307086614176
0
LINE
8
BLACK
6
CONTINUOUS
10
4.2175196850393704
20
-4.1668307086614176
11
4.2175196850393704
21
-4.0979330314960629
0
LINE
8
BLACK
6
CONTINUOUS
10
4.2175196850393704
20
-4.0979330314960629
11
4.1732283464566926
21
-4.0979330708661417
0
LINE
8
BLACK
6
CONTINUOUS
10
4.1732283464566926
20
-4.0979330708661417
11
4.1728516929133859
21
-4.0978581496062993
0
LINE
8
BLACK
6
CONTINUOUS
10
4.1728516929133859
20
-4.0978581496062993
11
4.1723190157480312
21
-4.0973254724409447
0
LINE
8
BLACK
6
CONTINUOUS
10
4.1723190157480312
20
-4.0973254724409447
11
4.1723190157480312
21
-4.0973254330708659
0
LINE
8
BLACK
6
CONTINUOUS
10
4.1723190157480312
20
-4.0973254330708659
11
4.1722440944881889
21
-4.096948818897638
0
LINE
8
BLACK
6
CONTINUOUS
10
4.1722440944881889
20
-4.096948818897638
11
4.1722440944881889
21
-4.0573818897637794
0
LINE
8
BLACK
6
CONTINUOUS
10
4.1722440944881889
20
-4.0573818897637794
11
4.1309055118110232
21
-4.0573818897637794
0
LINE
8
BLACK
6
CONTINUOUS
10
4.3586443700787401
20
-3.3955473622047245
11
4.3591770472440947
21
-3.3960800393700787
0
LINE
8
BLACK
6
CONTINUOUS
10
4.3591770472440947
20
-3.3960800393700787
11
4.359251968503937
21
-3.3964566929133859
0
LINE
8
BLACK
6
CONTINUOUS
10
4.359251968503937
20
-3.3964566929133859
11
4.359251968503937
21
-3.4714566535433069
0
LINE
8
BLACK
6
CONTINUOUS
10
4.359251968503937
20
-3.4714566535433069
11
4.3740157480314963
21
-3.4714566535433069
0
LINE
8
BLACK
6
CONTINUOUS
10
4.3740157480314963
20
-3.4714566535433069
11
4.374392401574803
21
-3.4715315748031497
0
LINE
8
BLACK
6
CONTINUOUS
10
4.374392401574803
20
-3.4715315748031497
11
4.3749250787401577
21
-3.4720642519685039
0
LINE
8
BLACK
6
CONTINUOUS
10
4.3749250787401577
20
-3.4720642519685039
11
4.375
21
-3.4724409055118111
0
LINE
8
BLACK
6
CONTINUOUS
10
4.375
20
-3.4724409055118111
11
4.375
21
-3.7874016141732283
0
LINE
8
BLACK
6
CONTINUOUS
10
4.375
20
-3.7874016141732283
11
4.3749250787401577
21
-3.7877782283464567
0
LINE
8
BLACK
6
CONTINUOUS
10
4.3749250787401577
20
-3.7877782283464567
11
4.3749250787401577
21
-3.7877782677165355
0
LINE
8
BLACK
6
CONTINUOUS
10
4.3749250787401577
20
-3.7877782677165355
11
4.374392401574803
21
-3.7883109448818897
0
LINE
8
BLACK
6
CONTINUOUS
10
4.374392401574803
20
-3.7883109448818897
11
4.3740157480314963
21
-3.788385866141732
0
LINE
8
BLACK
6
CONTINUOUS
10
4.3740157480314963
20
-3.788385866141732
11
4.359251968503937
21
-3.7883858267716533
0
LINE
8
BLACK
6
CONTINUOUS
10
4.359251968503937
20
-3.7883858267716533
11
4.359251968503937
21
-3.8633858267716534
0
LINE
8
BLACK
6
CONTINUOUS
10
4.359251968503937
20
-3.8633858267716534
11
4.3591770472440947
21
-3.8637624803149606
0
LINE
8
BLACK
6
CONTINUOUS
10
4.3591770472440947
20
-3.8637624803149606
11
4.3586443700787401
21
-3.8642951574803148
0
LINE
8
BLACK
6
CONTINUOUS
10
4.3586443700787401
20
-3.8642951574803148
11
4.3582677165354333
21
-3.8643700787401576
0
LINE
8
BLACK
6
CONTINUOUS
10
4.3582677165354333
20
-3.8643700787401576
11
3.9645669291338583
21
-3.8643700787401576
0
LINE
8
BLACK
6
CONTINUOUS
10
3.9645669291338583
20
-3.8643700787401576
11
3.9641902755905511
21
-3.8642951574803148
0
LINE
8
BLACK
6
CONTINUOUS
10
3.9641902755905511
20
-3.8642951574803148
11
3.9636575984251969
21
-3.8637624803149606
0
LINE
8
BLACK
6
CONTINUOUS
10
3.9636575984251969
20
-3.8637624803149606
11
3.9635826771653542
21
-3.8633858267716534
0
LINE
8
BLACK
6
CONTINUOUS
10
3.9635826771653542
20
-3.8633858267716534
11
3.9635826771653542
21
-3.7883858267716533
0
LINE
8
BLACK
6
CONTINUOUS
10
3.9635826771653542
20
-3.7883858267716533
11
3.9488188976377954
21
-3.788385866141732
0
LINE
8
BLACK
6
CONTINUOUS
10
3.9488188976377954
20
-3.788385866141732
11
3.9484422440944882
21
-3.7883109448818897
0
LINE
8
BLACK
6
CONTINUOUS
10
3.9484422440944882
20
-3.7883109448818897
11
3.947909566929134
21
-3.7877782677165355
0
LINE
8
BLACK
6
CONTINUOUS
10
3.947909566929134
20
-3.7877782677165355
11
3.947909566929134
21
-3.7877782283464567
0
LINE
8
BLACK
6
CONTINUOUS
10
3.947909566929134
20
-3.7877782283464567
11
3.9478346456692912
21
-3.7874016141732283
0
LINE
8
BLACK
6
CONTINUOUS
10
3.9478346456692912
20
-3.7874016141732283
11
3.9478346456692912
21
-3.4724409055118111
0
LINE
8
BLACK
6
CONTINUOUS
10
3.9478346456692912
20
-3.4724409055118111
11
3.947909566929134
21
-3.4720642519685039
0
LINE
8
BLACK
6
CONTINUOUS
10
3.947909566929134
20
-3.4720642519685039
11
3.9484422440944882
21
-3.4715315748031497
0
LINE
8
BLACK
6
CONTINUOUS
10
3.9484422440944882
20
-3.4715315748031497
11
3.9488188976377954
21
-3.4714566535433069
0
LINE
8
BLACK
6
CONTINUOUS
10
3.9488188976377954
20
-3.4714566535433069
11
3.9635826771653542
21
-3.4714566535433069
0
LINE
8
BLACK
6
CONTINUOUS
10
3.9635826771653542
20
-3.4714566535433069
11
3.9635826771653542
21
-3.3964566929133859
0
LINE
8
BLACK
6
CONTINUOUS
10
3.9635826771653542
20
-3.3964566929133859
11
3.9636575984251969
21
-3.3960800393700787
0
LINE
8
BLACK
6
CONTINUOUS
10
3.9636575984251969
20
-3.3960800393700787
11
3.9641902755905511
21
-3.3955473622047245
0
LINE
8
BLACK
6
CONTINUOUS
10
3.9641902755905511
20
-3.3955473622047245
11
3.9645669291338583
21
-3.3954724409448818
0
LINE
8
BLACK
6
CONTINUOUS
10
3.9645669291338583
20
-3.3954724409448818
11
4.3582677165354333
21
-3.3954724409448818
0
LINE
8
BLACK
6
CONTINUOUS
10
4.3582677165354333
20
-3.3954724409448818
11
4.3586443700787401
21
-3.3955473622047245
0
LINE
8
BLACK
6
CONTINUOUS
10
3.965551181102362
20
-3.3974409448818896
11
3.965551181102362
21
-3.4724409448818898
0
LINE
8
BLACK
6
CONTINUOUS
10
3.965551181102362
20
-3.4724409448818898
11
3.9654762598425197
21
-3.4728175590551182
0
LINE
8
BLACK
6
CONTINUOUS
10
3.9654762598425197
20
-3.4728175590551182
11
3.9654762598425197
21
-3.4728175984251966
0
LINE
8
BLACK
6
CONTINUOUS
10
3.9654762598425197
20
-3.4728175984251966
11
3.9649435826771651
21
-3.4733502755905512
0
LINE
8
BLACK
6
CONTINUOUS
10
3.9649435826771651
20
-3.4733502755905512
11
3.9645669291338583
21
-3.4734251968503935
0
LINE
8
BLACK
6
CONTINUOUS
10
3.9645669291338583
20
-3.4734251968503935
11
3.9498031496062991
21
-3.4734251574803148
0
LINE
8
BLACK
6
CONTINUOUS
10
3.9498031496062991
20
-3.4734251574803148
11
3.9498031496062991
21
-3.7864173228346454
0
LINE
8
BLACK
6
CONTINUOUS
10
3.9498031496062991
20
-3.7864173228346454
11
3.9645669291338583
21
-3.7864173228346454
0
LINE
8
BLACK
6
CONTINUOUS
10
3.9645669291338583
20
-3.7864173228346454
11
3.9649435826771651
21
-3.7864922440944881
0
LINE
8
BLACK
6
CONTINUOUS
10
3.9649435826771651
20
-3.7864922440944881
11
3.9654762598425197
21
-3.7870249212598424
0
LINE
8
BLACK
6
CONTINUOUS
10
3.9654762598425197
20
-3.7870249212598424
11
3.965551181102362
21
-3.7874015748031495
0
LINE
8
BLACK
6
CONTINUOUS
10
3.965551181102362
20
-3.7874015748031495
11
3.965551181102362
21
-3.8624015748031497
0
LINE
8
BLACK
6
CONTINUOUS
10
3.965551181102362
20
-3.8624015748031497
11
4.3572834645669287
21
-3.8624015748031497
0
LINE
8
BLACK
6
CONTINUOUS
10
4.3572834645669287
20
-3.8624015748031497
11
4.3572834645669287
21
-3.7874015748031495
0
LINE
8
BLACK
6
CONTINUOUS
10
4.3572834645669287
20
-3.7874015748031495
11
4.3573583858267719
21
-3.7870249212598424
0
LINE
8
BLACK
6
CONTINUOUS
10
4.3573583858267719
20
-3.7870249212598424
11
4.3578910629921257
21
-3.7864922440944881
0
LINE
8
BLACK
6
CONTINUOUS
10
4.3578910629921257
20
-3.7864922440944881
11
4.3582677165354333
21
-3.7864173228346454
0
LINE
8
BLACK
6
CONTINUOUS
10
4.3582677165354333
20
-3.7864173228346454
11
4.3730314960629917
21
-3.7864173228346454
0
LINE
8
BLACK
6
CONTINUOUS
10
4.3730314960629917
20
-3.7864173228346454
11
4.3730314960629917
21
-3.4734251574803148
0
LINE
8
BLACK
6
CONTINUOUS
10
4.3730314960629917
20
-3.4734251574803148
11
4.3582677165354333
21
-3.4734251968503935
0
LINE
8
BLACK
6
CONTINUOUS
10
4.3582677165354333
20
-3.4734251968503935
11
4.3578910629921257
21
-3.4733502755905512
0
LINE
8
BLACK
6
CONTINUOUS
10
4.3578910629921257
20
-3.4733502755905512
11
4.3573583858267719
21
-3.4728175984251966
0
LINE
8
BLACK
6
CONTINUOUS
10
4.3573583858267719
20
-3.4728175984251966
11
4.3573583858267719
21
-3.4728175590551182
0
LINE
8
BLACK
6
CONTINUOUS
10
4.3573583858267719
20
-3.4728175590551182
11
4.3572834645669287
21
-3.4724409448818898
0
LINE
8
BLACK
6
CONTINUOUS
10
4.3572834645669287
20
-3.4724409448818898
11
4.3572834645669287
21
-3.3974409448818896
0
LINE
8
BLACK
6
CONTINUOUS
10
4.3572834645669287
20
-3.3974409448818896
11
3.965551181102362
21
-3.3974409448818896
0
LINE
8
BLACK
6
CONTINUOUS
10
3.9255735039370077
20
-3.3935788582677167
11
3.9261061811023623
21
-3.3941115354330709
0
LINE
8
BLACK
6
CONTINUOUS
10
3.9261061811023623
20
-3.3941115354330709
11
3.9261811023622046
21
-3.3944881889763781
0
LINE
8
BLACK
6
CONTINUOUS
10
3.9261811023622046
20
-3.3944881889763781
11
3.9261811023622046
21
-3.469488149606299
0
LINE
8
BLACK
6
CONTINUOUS
10
3.9261811023622046
20
-3.469488149606299
11
3.9409448818897639
21
-3.469488149606299
0
LINE
8
BLACK
6
CONTINUOUS
10
3.9409448818897639
20
-3.469488149606299
11
3.9413215354330706
21
-3.4695630708661418
0
LINE
8
BLACK
6
CONTINUOUS
10
3.9413215354330706
20
-3.4695630708661418
11
3.9418542125984253
21
-3.470095748031496
0
LINE
8
BLACK
6
CONTINUOUS
10
3.9418542125984253
20
-3.470095748031496
11
3.9419291338582676
21
-3.4704724015748032
0
LINE
8
BLACK
6
CONTINUOUS
10
3.9419291338582676
20
-3.4704724015748032
11
3.9419291338582676
21
-3.7854331102362204
0
LINE
8
BLACK
6
CONTINUOUS
10
3.9419291338582676
20
-3.7854331102362204
11
3.9418542125984253
21
-3.7858097244094489
0
LINE
8
BLACK
6
CONTINUOUS
10
3.9418542125984253
20
-3.7858097244094489
11
3.9418542125984253
21
-3.7858097637795276
0
LINE
8
BLACK
6
CONTINUOUS
10
3.9418542125984253
20
-3.7858097637795276
11
3.9413215354330706
21
-3.7863424409448818
0
LINE
8
BLACK
6
CONTINUOUS
10
3.9413215354330706
20
-3.7863424409448818
11
3.9409448818897639
21
-3.7864173622047241
0
LINE
8
BLACK
6
CONTINUOUS
10
3.9409448818897639
20
-3.7864173622047241
11
3.9261811023622046
21
-3.7864173228346454
0
LINE
8
BLACK
6
CONTINUOUS
10
3.9261811023622046
20
-3.7864173228346454
11
3.9261811023622046
21
-3.8614173228346456
0
LINE
8
BLACK
6
CONTINUOUS
10
3.9261811023622046
20
-3.8614173228346456
11
3.9261061811023623
21
-3.8617939763779527
0
LINE
8
BLACK
6
CONTINUOUS
10
3.9261061811023623
20
-3.8617939763779527
11
3.9255735039370077
21
-3.862326653543307
0
LINE
8
BLACK
6
CONTINUOUS
10
3.9255735039370077
20
-3.862326653543307
11
3.9251968503937005
21
-3.8624015748031497
0
LINE
8
BLACK
6
CONTINUOUS
10
3.9251968503937005
20
-3.8624015748031497
11
3.5314960629921259
21
-3.8624015748031497
0
LINE
8
BLACK
6
CONTINUOUS
10
3.5314960629921259
20
-3.8624015748031497
11
3.5311194094488187
21
-3.862326653543307
0
LINE
8
BLACK
6
CONTINUOUS
10
3.5311194094488187
20
-3.862326653543307
11
3.5305867322834645
21
-3.8617939763779527
0
LINE
8
BLACK
6
CONTINUOUS
10
3.5305867322834645
20
-3.8617939763779527
11
3.5305118110236218
21
-3.8614173228346456
0
LINE
8
BLACK
6
CONTINUOUS
10
3.5305118110236218
20
-3.8614173228346456
11
3.5305118110236218
21
-3.7864173228346454
0
LINE
8
BLACK
6
CONTINUOUS
10
3.5305118110236218
20
-3.7864173228346454
11
3.515748031496063
21
-3.7864173622047241
0
LINE
8
BLACK
6
CONTINUOUS
10
3.515748031496063
20
-3.7864173622047241
11
3.5153713779527558
21
-3.7863424409448818
0
LINE
8
BLACK
6
CONTINUOUS
10
3.5153713779527558
20
-3.7863424409448818
11
3.5148387007874016
21
-3.7858097637795276
0
LINE
8
BLACK
6
CONTINUOUS
10
3.5148387007874016
20
-3.7858097637795276
11
3.5148387007874016
21
-3.7858097244094489
0
LINE
8
BLACK
6
CONTINUOUS
10
3.5148387007874016
20
-3.7858097244094489
11
3.5147637795275588
21
-3.7854331102362204
0
LINE
8
BLACK
6
CONTINUOUS
10
3.5147637795275588
20
-3.7854331102362204
11
3.5147637795275588
21
-3.4704724015748032
0
LINE
8
BLACK
6
CONTINUOUS
10
3.5147637795275588
20
-3.4704724015748032
11
3.5148387007874016
21
-3.470095748031496
0
LINE
8
BLACK
6
CONTINUOUS
10
3.5148387007874016
20
-3.470095748031496
11
3.5153713779527558
21
-3.4695630708661418
0
LINE
8
BLACK
6
CONTINUOUS
10
3.5153713779527558
20
-3.4695630708661418
11
3.515748031496063
21
-3.469488149606299
0
LINE
8
BLACK
6
CONTINUOUS
10
3.515748031496063
20
-3.469488149606299
11
3.5305118110236218
21
-3.469488149606299
0
LINE
8
BLACK
6
CONTINUOUS
10
3.5305118110236218
20
-3.469488149606299
11
3.5305118110236218
21
-3.3944881889763781
0
LINE
8
BLACK
6
CONTINUOUS
10
3.5305118110236218
20
-3.3944881889763781
11
3.5305867322834645
21
-3.3941115354330709
0
LINE
8
BLACK
6
CONTINUOUS
10
3.5305867322834645
20
-3.3941115354330709
11
3.5311194094488187
21
-3.3935788582677167
0
LINE
8
BLACK
6
CONTINUOUS
10
3.5311194094488187
20
-3.3935788582677167
11
3.5314960629921259
21
-3.3935039370078739
0
LINE
8
BLACK
6
CONTINUOUS
10
3.5314960629921259
20
-3.3935039370078739
11
3.9251968503937005
21
-3.3935039370078739
0
LINE
8
BLACK
6
CONTINUOUS
10
3.9251968503937005
20
-3.3935039370078739
11
3.9255735039370077
21
-3.3935788582677167
0
LINE
8
BLACK
6
CONTINUOUS
10
3.5324803149606296
20
-3.3954724409448818
11
3.5324803149606296
21
-3.4704724409448819
0
LINE
8
BLACK
6
CONTINUOUS
10
3.5324803149606296
20
-3.4704724409448819
11
3.5324053937007873
21
-3.4708490551181104
0
LINE
8
BLACK
6
CONTINUOUS
10
3.5324053937007873
20
-3.4708490551181104
11
3.5324053937007873
21
-3.4708490944881887
0
LINE
8
BLACK
6
CONTINUOUS
10
3.5324053937007873
20
-3.4708490944881887
11
3.5318727165354331
21
-3.4713817716535433
0
LINE
8
BLACK
6
CONTINUOUS
10
3.5318727165354331
20
-3.4713817716535433
11
3.5314960629921259
21
-3.4714566929133857
0
LINE
8
BLACK
6
CONTINUOUS
10
3.5314960629921259
20
-3.4714566929133857
11
3.5167322834645667
21
-3.4714566535433069
0
LINE
8
BLACK
6
CONTINUOUS
10
3.5167322834645667
20
-3.4714566535433069
11
3.5167322834645667
21
-3.7844488188976375
0
LINE
8
BLACK
6
CONTINUOUS
10
3.5167322834645667
20
-3.7844488188976375
11
3.5314960629921259
21
-3.7844488188976375
0
LINE
8
BLACK
6
CONTINUOUS
10
3.5314960629921259
20
-3.7844488188976375
11
3.5318727165354331
21
-3.7845237401574803
0
LINE
8
BLACK
6
CONTINUOUS
10
3.5318727165354331
20
-3.7845237401574803
11
3.5324053937007873
21
-3.7850564173228345
0
LINE
8
BLACK
6
CONTINUOUS
10
3.5324053937007873
20
-3.7850564173228345
11
3.5324803149606296
21
-3.7854330708661417
0
LINE
8
BLACK
6
CONTINUOUS
10
3.5324803149606296
20
-3.7854330708661417
11
3.5324803149606296
21
-3.8604330708661418
0
LINE
8
BLACK
6
CONTINUOUS
10
3.5324803149606296
20
-3.8604330708661418
11
3.9242125984251968
21
-3.8604330708661418
0
LINE
8
BLACK
6
CONTINUOUS
10
3.9242125984251968
20
-3.8604330708661418
11
3.9242125984251968
21
-3.7854330708661417
0
LINE
8
BLACK
6
CONTINUOUS
10
3.9242125984251968
20
-3.7854330708661417
11
3.9242875196850391
21
-3.7850564173228345
0
LINE
8
BLACK
6
CONTINUOUS
10
3.9242875196850391
20
-3.7850564173228345
11
3.9248201968503937
21
-3.7845237401574803
0
LINE
8
BLACK
6
CONTINUOUS
10
3.9248201968503937
20
-3.7845237401574803
11
3.9251968503937005
21
-3.7844488188976375
0
LINE
8
BLACK
6
CONTINUOUS
10
3.9251968503937005
20
-3.7844488188976375
11
3.9399606299212597
21
-3.7844488188976375
0
LINE
8
BLACK
6
CONTINUOUS
10
3.9399606299212597
20
-3.7844488188976375
11
3.9399606299212597
21
-3.4714566535433069
0
LINE
8
BLACK
6
CONTINUOUS
10
3.9399606299212597
20
-3.4714566535433069
11
3.9251968503937005
21
-3.4714566929133857
0
LINE
8
BLACK
6
CONTINUOUS
10
3.9251968503937005
20
-3.4714566929133857
11
3.9248201968503937
21
-3.4713817716535433
0
LINE
8
BLACK
6
CONTINUOUS
10
3.9248201968503937
20
-3.4713817716535433
11
3.9242875196850391
21
-3.4708490944881887
0
LINE
8
BLACK
6
CONTINUOUS
10
3.9242875196850391
20
-3.4708490944881887
11
3.9242875196850391
21
-3.4708490551181104
0
LINE
8
BLACK
6
CONTINUOUS
10
3.9242875196850391
20
-3.4708490551181104
11
3.9242125984251968
21
-3.4704724409448819
0
LINE
8
BLACK
6
CONTINUOUS
10
3.9242125984251968
20
-3.4704724409448819
11
3.9242125984251968
21
-3.3954724409448818
0
LINE
8
BLACK
6
CONTINUOUS
10
3.9242125984251968
20
-3.3954724409448818
11
3.5324803149606296
21
-3.3954724409448818
0
LINE
8
BLACK
6
CONTINUOUS
10
4.7899435826771652
20
-3.3935788582677167
11
4.7904762598425199
21
-3.3941115354330709
0
LINE
8
BLACK
6
CONTINUOUS
10
4.7904762598425199
20
-3.3941115354330709
11
4.7905511811023622
21
-3.3944881889763781
0
LINE
8
BLACK
6
CONTINUOUS
10
4.7905511811023622
20
-3.3944881889763781
11
4.7905511811023622
21
-3.469488149606299
0
LINE
8
BLACK
6
CONTINUOUS
10
4.7905511811023622
20
-3.469488149606299
11
4.8053149606299215
21
-3.469488149606299
0
LINE
8
BLACK
6
CONTINUOUS
10
4.8053149606299215
20
-3.469488149606299
11
4.8056916141732282
21
-3.4695630708661418
0
LINE
8
BLACK
6
CONTINUOUS
10
4.8056916141732282
20
-3.4695630708661418
11
4.8062242913385829
21
-3.470095748031496
0
LINE
8
BLACK
6
CONTINUOUS
10
4.8062242913385829
20
-3.470095748031496
11
4.8062992125984252
21
-3.4704724015748032
0
LINE
8
BLACK
6
CONTINUOUS
10
4.8062992125984252
20
-3.4704724015748032
11
4.8062992125984252
21
-3.7854331102362204
0
LINE
8
BLACK
6
CONTINUOUS
10
4.8062992125984252
20
-3.7854331102362204
11
4.8062242913385829
21
-3.7858097244094489
0
LINE
8
BLACK
6
CONTINUOUS
10
4.8062242913385829
20
-3.7858097244094489
11
4.8062242913385829
21
-3.7858097637795276
0
LINE
8
BLACK
6
CONTINUOUS
10
4.8062242913385829
20
-3.7858097637795276
11
4.8056916141732282
21
-3.7863424409448818
0
LINE
8
BLACK
6
CONTINUOUS
10
4.8056916141732282
20
-3.7863424409448818
11
4.8053149606299215
21
-3.7864173622047241
0
LINE
8
BLACK
6
CONTINUOUS
10
4.8053149606299215
20
-3.7864173622047241
11
4.7905511811023622
21
-3.7864173228346454
0
LINE
8
BLACK
6
CONTINUOUS
10
4.7905511811023622
20
-3.7864173228346454
11
4.7905511811023622
21
-3.8614173228346456
0
LINE
8
BLACK
6
CONTINUOUS
10
4.7905511811023622
20
-3.8614173228346456
11
4.7904762598425199
21
-3.8617939763779527
0
LINE
8
BLACK
6
CONTINUOUS
10
4.7904762598425199
20
-3.8617939763779527
11
4.7899435826771652
21
-3.862326653543307
0
LINE
8
BLACK
6
CONTINUOUS
10
4.7899435826771652
20
-3.862326653543307
11
4.7895669291338585
21
-3.8624015748031497
0
LINE
8
BLACK
6
CONTINUOUS
10
4.7895669291338585
20
-3.8624015748031497
11
4.3958661417322835
21
-3.8624015748031497
0
LINE
8
BLACK
6
CONTINUOUS
10
4.3958661417322835
20
-3.8624015748031497
11
4.3954894881889759
21
-3.862326653543307
0
LINE
8
BLACK
6
CONTINUOUS
10
4.3954894881889759
20
-3.862326653543307
11
4.3949568110236221
21
-3.8617939763779527
0
LINE
8
BLACK
6
CONTINUOUS
10
4.3949568110236221
20
-3.8617939763779527
11
4.3948818897637798
21
-3.8614173228346456
0
LINE
8
BLACK
6
CONTINUOUS
10
4.3948818897637798
20
-3.8614173228346456
11
4.3948818897637798
21
-3.7864173228346454
0
LINE
8
BLACK
6
CONTINUOUS
10
4.3948818897637798
20
-3.7864173228346454
11
4.3801181102362206
21
-3.7864173622047241
0
LINE
8
BLACK
6
CONTINUOUS
10
4.3801181102362206
20
-3.7864173622047241
11
4.3797414566929129
21
-3.7863424409448818
0
LINE
8
BLACK
6
CONTINUOUS
10
4.3797414566929129
20
-3.7863424409448818
11
4.3792087795275592
21
-3.7858097637795276
0
LINE
8
BLACK
6
CONTINUOUS
10
4.3792087795275592
20
-3.7858097637795276
11
4.3792087795275592
21
-3.7858097244094489
0
LINE
8
BLACK
6
CONTINUOUS
10
4.3792087795275592
20
-3.7858097244094489
11
4.3791338582677168
21
-3.7854331102362204
0
LINE
8
BLACK
6
CONTINUOUS
10
4.3791338582677168
20
-3.7854331102362204
11
4.3791338582677168
21
-3.4704724015748032
0
LINE
8
BLACK
6
CONTINUOUS
10
4.3791338582677168
20
-3.4704724015748032
11
4.3792087795275592
21
-3.470095748031496
0
LINE
8
BLACK
6
CONTINUOUS
10
4.3792087795275592
20
-3.470095748031496
11
4.3797414566929129
21
-3.4695630708661418
0
LINE
8
BLACK
6
CONTINUOUS
10
4.3797414566929129
20
-3.4695630708661418
11
4.3801181102362206
21
-3.469488149606299
0
LINE
8
BLACK
6
CONTINUOUS
10
4.3801181102362206
20
-3.469488149606299
11
4.3948818897637798
21
-3.469488149606299
0
LINE
8
BLACK
6
CONTINUOUS
10
4.3948818897637798
20
-3.469488149606299
11
4.3948818897637798
21
-3.3944881889763781
0
LINE
8
BLACK
6
CONTINUOUS
10
4.3948818897637798
20
-3.3944881889763781
11
4.3949568110236221
21
-3.3941115354330709
0
LINE
8
BLACK
6
CONTINUOUS
10
4.3949568110236221
20
-3.3941115354330709
11
4.3954894881889759
21
-3.3935788582677167
0
LINE
8
BLACK
6
CONTINUOUS
10
4.3954894881889759
20
-3.3935788582677167
11
4.3958661417322835
21
-3.3935039370078739
0
LINE
8
BLACK
6
CONTINUOUS
10
4.3958661417322835
20
-3.3935039370078739
11
4.7895669291338585
21
-3.3935039370078739
0
LINE
8
BLACK
6
CONTINUOUS
10
4.7895669291338585
20
-3.3935039370078739
11
4.7899435826771652
21
-3.3935788582677167
0
LINE
8
BLACK
6
CONTINUOUS
10
4.3968503937007872
20
-3.3954724409448818
11
4.3968503937007872
21
-3.4704724409448819
0
LINE
8
BLACK
6
CONTINUOUS
10
4.3968503937007872
20
-3.4704724409448819
11
4.3967754724409449
21
-3.4708490551181104
0
LINE
8
BLACK
6
CONTINUOUS
10
4.3967754724409449
20
-3.4708490551181104
11
4.3967754724409449
21
-3.4708490944881887
0
LINE
8
BLACK
6
CONTINUOUS
10
4.3967754724409449
20
-3.4708490944881887
11
4.3962427952755903
21
-3.4713817716535433
0
LINE
8
BLACK
6
CONTINUOUS
10
4.3962427952755903
20
-3.4713817716535433
11
4.3958661417322835
21
-3.4714566929133857
0
LINE
8
BLACK
6
CONTINUOUS
10
4.3958661417322835
20
-3.4714566929133857
11
4.3811023622047243
21
-3.4714566535433069
0
LINE
8
BLACK
6
CONTINUOUS
10
4.3811023622047243
20
-3.4714566535433069
11
4.3811023622047243
21
-3.7844488188976375
0
LINE
8
BLACK
6
CONTINUOUS
10
4.3811023622047243
20
-3.7844488188976375
11
4.3958661417322835
21
-3.7844488188976375
0
LINE
8
BLACK
6
CONTINUOUS
10
4.3958661417322835
20
-3.7844488188976375
11
4.3962427952755903
21
-3.7845237401574803
0
LINE
8
BLACK
6
CONTINUOUS
10
4.3962427952755903
20
-3.7845237401574803
11
4.3967754724409449
21
-3.7850564173228345
0
LINE
8
BLACK
6
CONTINUOUS
10
4.3967754724409449
20
-3.7850564173228345
11
4.3968503937007872
21
-3.7854330708661417
0
LINE
8
BLACK
6
CONTINUOUS
10
4.3968503937007872
20
-3.7854330708661417
11
4.3968503937007872
21
-3.8604330708661418
0
LINE
8
BLACK
6
CONTINUOUS
10
4.3968503937007872
20
-3.8604330708661418
11
4.7885826771653539
21
-3.8604330708661418
0
LINE
8
BLACK
6
CONTINUOUS
10
4.7885826771653539
20
-3.8604330708661418
11
4.7885826771653539
21
-3.7854330708661417
0
LINE
8
BLACK
6
CONTINUOUS
10
4.7885826771653539
20
-3.7854330708661417
11
4.7886575984251971
21
-3.7850564173228345
0
LINE
8
BLACK
6
CONTINUOUS
10
4.7886575984251971
20
-3.7850564173228345
11
4.7891902755905509
21
-3.7845237401574803
0
LINE
8
BLACK
6
CONTINUOUS
10
4.7891902755905509
20
-3.7845237401574803
11
4.7895669291338585
21
-3.7844488188976375
0
LINE
8
BLACK
6
CONTINUOUS
10
4.7895669291338585
20
-3.7844488188976375
11
4.8043307086614169
21
-3.7844488188976375
0
LINE
8
BLACK
6
CONTINUOUS
10
4.8043307086614169
20
-3.7844488188976375
11
4.8043307086614169
21
-3.4714566535433069
0
LINE
8
BLACK
6
CONTINUOUS
10
4.8043307086614169
20
-3.4714566535433069
11
4.7895669291338585
21
-3.4714566929133857
0
LINE
8
BLACK
6
CONTINUOUS
10
4.7895669291338585
20
-3.4714566929133857
11
4.7891902755905509
21
-3.4713817716535433
0
LINE
8
BLACK
6
CONTINUOUS
10
4.7891902755905509
20
-3.4713817716535433
11
4.7886575984251971
21
-3.4708490944881887
0
LINE
8
BLACK
6
CONTINUOUS
10
4.7886575984251971
20
-3.4708490944881887
11
4.7886575984251971
21
-3.4708490551181104
0
LINE
8
BLACK
6
CONTINUOUS
10
4.7886575984251971
20
-3.4708490551181104
11
4.7885826771653539
21
-3.4704724409448819
0
LINE
8
BLACK
6
CONTINUOUS
10
4.7885826771653539
20
-3.4704724409448819
11
4.7885826771653539
21
-3.3954724409448818
0
LINE
8
BLACK
6
CONTINUOUS
10
4.7885826771653539
20
-3.3954724409448818
11
4.3968503937007872
21
-3.3954724409448818
0
LINE
8
BLACK
6
CONTINUOUS
10
3.1153149606299211
20
-3.5637716929133858
11
3.1645250787401573
21
-3.5637716929133858
0
LINE
8
BLACK
6
CONTINUOUS
10
3.1645250787401573
20
-3.5637716929133858
11
3.1651103543307086
21
-3.5638293307086615
0
LINE
8
BLACK
6
CONTINUOUS
10
3.1651103543307086
20
-3.5638293307086615
11
3.1661917716535433
21
-3.5642772834645671
0
LINE
8
BLACK
6
CONTINUOUS
10
3.1661917716535433
20
-3.5642772834645671
11
3.1670194881889762
21
-3.565105
0
LINE
8
BLACK
6
CONTINUOUS
10
3.1670194881889762
20
-3.565105
11
3.1674674409448818
21
-3.5661864173228346
0
LINE
8
BLACK
6
CONTINUOUS
10
3.1674674409448818
20
-3.5661864173228346
11
3.1675250787401574
21
-3.5667716929133859
0
LINE
8
BLACK
6
CONTINUOUS
10
3.1675250787401574
20
-3.5667716929133859
11
3.1675250787401574
21
-3.569543346456693
0
LINE
8
BLACK
6
CONTINUOUS
10
3.1675250787401574
20
-3.569543346456693
11
3.1690890944881889
21
-3.569543346456693
0
LINE
8
BLACK
6
CONTINUOUS
10
3.1690890944881889
20
-3.569543346456693
11
3.1690890944881889
21
-3.5667717322834647
0
LINE
8
BLACK
6
CONTINUOUS
10
3.1690890944881889
20
-3.5667717322834647
11
3.1691467322834646
21
-3.5661864566929133
0
LINE
8
BLACK
6
CONTINUOUS
10
3.1691467322834646
20
-3.5661864566929133
11
3.1691467716535433
21
-3.5661863779527558
0
LINE
8
BLACK
6
CONTINUOUS
10
3.1691467716535433
20
-3.5661863779527558
11
3.1695946850393701
21
-3.565105
0
LINE
8
BLACK
6
CONTINUOUS
10
3.1695946850393701
20
-3.565105
11
3.170422401574803
21
-3.5642772834645671
0
LINE
8
BLACK
6
CONTINUOUS
10
3.170422401574803
20
-3.5642772834645671
11
3.1715037795275589
21
-3.5638293307086615
0
LINE
8
BLACK
6
CONTINUOUS
10
3.1715037795275589
20
-3.5638293307086615
11
3.1715038188976377
21
-3.5638293307086615
0
LINE
8
BLACK
6
CONTINUOUS
10
3.1715038188976377
20
-3.5638293307086615
11
3.172089094488189
21
-3.5637716929133858
0
LINE
8
BLACK
6
CONTINUOUS
10
3.172089094488189
20
-3.5637716929133858
11
3.2610016141732281
21
-3.5637716929133858
0
LINE
8
BLACK
6
CONTINUOUS
10
3.2610016141732281
20
-3.5637716929133858
11
3.2615868897637794
21
-3.5638293307086615
0
LINE
8
BLACK
6
CONTINUOUS
10
3.2615868897637794
20
-3.5638293307086615
11
3.262668307086614
21
-3.5642772834645671
0
LINE
8
BLACK
6
CONTINUOUS
10
3.262668307086614
20
-3.5642772834645671
11
3.2634960236220474
21
-3.565105
0
LINE
8
BLACK
6
CONTINUOUS
10
3.2634960236220474
20
-3.565105
11
3.2639439763779525
21
-3.5661864173228346
0
LINE
8
BLACK
6
CONTINUOUS
10
3.2639439763779525
20
-3.5661864173228346
11
3.2640016141732282
21
-3.5667716929133859
0
LINE
8
BLACK
6
CONTINUOUS
10
3.2640016141732282
20
-3.5667716929133859
11
3.2640016141732282
21
-3.569543346456693
0
LINE
8
BLACK
6
CONTINUOUS
10
3.2640016141732282
20
-3.569543346456693
11
3.2756968503937007
21
-3.569543346456693
0
LINE
8
BLACK
6
CONTINUOUS
10
3.2756968503937007
20
-3.569543346456693
11
3.2762821259842521
21
-3.5696009842519683
0
LINE
8
BLACK
6
CONTINUOUS
10
3.2762821259842521
20
-3.5696009842519683
11
3.2773635433070867
21
-3.5700489370078738
0
LINE
8
BLACK
6
CONTINUOUS
10
3.2773635433070867
20
-3.5700489370078738
11
3.2781912598425196
21
-3.5708766535433072
0
LINE
8
BLACK
6
CONTINUOUS
10
3.2781912598425196
20
-3.5708766535433072
11
3.2786392125984252
21
-3.5719580708661418
0
LINE
8
BLACK
6
CONTINUOUS
10
3.2786392125984252
20
-3.5719580708661418
11
3.2786968503937008
21
-3.5725433464566927
0
LINE
8
BLACK
6
CONTINUOUS
10
3.2786968503937008
20
-3.5725433464566927
11
3.2786968503937008
21
-3.7345433464566926
0
LINE
8
BLACK
6
CONTINUOUS
10
3.2786968503937008
20
-3.7345433464566926
11
3.2786392125984252
21
-3.7351286220472439
0
LINE
8
BLACK
6
CONTINUOUS
10
3.2786392125984252
20
-3.7351286220472439
11
3.2781912598425196
21
-3.7362100393700786
0
LINE
8
BLACK
6
CONTINUOUS
10
3.2781912598425196
20
-3.7362100393700786
11
3.2773635433070867
21
-3.7370377559055119
0
LINE
8
BLACK
6
CONTINUOUS
10
3.2773635433070867
20
-3.7370377559055119
11
3.2762821259842521
21
-3.737485708661417
0
LINE
8
BLACK
6
CONTINUOUS
10
3.2762821259842521
20
-3.737485708661417
11
3.2756968503937007
21
-3.7375433464566927
0
LINE
8
BLACK
6
CONTINUOUS
10
3.2756968503937007
20
-3.7375433464566927
11
3.2640016141732282
21
-3.7375433464566927
0
LINE
8
BLACK
6
CONTINUOUS
10
3.2640016141732282
20
-3.7375433464566927
11
3.2640016141732282
21
-3.7403149999999998
0
LINE
8
BLACK
6
CONTINUOUS
10
3.2640016141732282
20
-3.7403149999999998
11
3.2639439763779525
21
-3.7409002362204724
0
LINE
8
BLACK
6
CONTINUOUS
10
3.2639439763779525
20
-3.7409002362204724
11
3.2639439763779525
21
-3.7409002755905512
0
LINE
8
BLACK
6
CONTINUOUS
10
3.2639439763779525
20
-3.7409002755905512
11
3.2634960236220474
21
-3.7419816929133858
0
LINE
8
BLACK
6
CONTINUOUS
10
3.2634960236220474
20
-3.7419816929133858
11
3.262668307086614
21
-3.7428094094488187
0
LINE
8
BLACK
6
CONTINUOUS
10
3.262668307086614
20
-3.7428094094488187
11
3.2615868897637794
21
-3.7432573622047243
0
LINE
8
BLACK
6
CONTINUOUS
10
3.2615868897637794
20
-3.7432573622047243
11
3.2610016141732281
21
-3.7433149999999999
0
LINE
8
BLACK
6
CONTINUOUS
10
3.2610016141732281
20
-3.7433149999999999
11
3.172089094488189
21
-3.7433149999999999
0
LINE
8
BLACK
6
CONTINUOUS
10
3.172089094488189
20
-3.7433149999999999
11
3.1715038188976377
21
-3.7432573622047243
0
LINE
8
BLACK
6
CONTINUOUS
10
3.1715038188976377
20
-3.7432573622047243
11
3.1715037795275589
21
-3.7432573622047243
0
LINE
8
BLACK
6
CONTINUOUS
10
3.1715037795275589
20
-3.7432573622047243
11
3.170422401574803
21
-3.7428094094488187
0
LINE
8
BLACK
6
CONTINUOUS
10
3.170422401574803
20
-3.7428094094488187
11
3.1695946850393701
21
-3.7419816929133858
0
LINE
8
BLACK
6
CONTINUOUS
10
3.1695946850393701
20
-3.7419816929133858
11
3.1691467322834646
21
-3.7409002755905512
0
LINE
8
BLACK
6
CONTINUOUS
10
3.1691467322834646
20
-3.7409002755905512
11
3.1691467322834646
21
-3.7409002362204724
0
LINE
8
BLACK
6
CONTINUOUS
10
3.1691467322834646
20
-3.7409002362204724
11
3.1690890944881889
21
-3.7403149606299211
0
LINE
8
BLACK
6
CONTINUOUS
10
3.1690890944881889
20
-3.7403149606299211
11
3.1690890944881889
21
-3.7375433464566927
0
LINE
8
BLACK
6
CONTINUOUS
10
3.1690890944881889
20
-3.7375433464566927
11
3.1675250787401574
21
-3.7375433464566927
0
LINE
8
BLACK
6
CONTINUOUS
10
3.1675250787401574
20
-3.7375433464566927
11
3.1675250787401574
21
-3.7403149999999998
0
LINE
8
BLACK
6
CONTINUOUS
10
3.1675250787401574
20
-3.7403149999999998
11
3.1674674409448818
21
-3.7409002362204724
0
LINE
8
BLACK
6
CONTINUOUS
10
3.1674674409448818
20
-3.7409002362204724
11
3.1674674409448818
21
-3.7409002755905512
0
LINE
8
BLACK
6
CONTINUOUS
10
3.1674674409448818
20
-3.7409002755905512
11
3.1670194881889762
21
-3.7419816929133858
0
LINE
8
BLACK
6
CONTINUOUS
10
3.1670194881889762
20
-3.7419816929133858
11
3.1661917716535433
21
-3.7428094094488187
0
LINE
8
BLACK
6
CONTINUOUS
10
3.1661917716535433
20
-3.7428094094488187
11
3.1651103543307086
21
-3.7432573622047243
0
LINE
8
BLACK
6
CONTINUOUS
10
3.1651103543307086
20
-3.7432573622047243
11
3.1645250787401573
21
-3.7433149999999999
0
LINE
8
BLACK
6
CONTINUOUS
10
3.1645250787401573
20
-3.7433149999999999
11
3.1153149606299211
21
-3.7433149999999999
0
LINE
8
BLACK
6
CONTINUOUS
10
3.1153149606299211
20
-3.7433149999999999
11
3.0807480314960629
21
-3.7433149999999999
0
LINE
8
BLACK
6
CONTINUOUS
10
3.0807480314960629
20
-3.7433149999999999
11
3.0801627559055116
21
-3.7432573622047243
0
LINE
8
BLACK
6
CONTINUOUS
10
3.0801627559055116
20
-3.7432573622047243
11
3.079081338582677
21
-3.7428094094488187
0
LINE
8
BLACK
6
CONTINUOUS
10
3.079081338582677
20
-3.7428094094488187
11
3.0782536220472441
21
-3.7419816929133858
0
LINE
8
BLACK
6
CONTINUOUS
10
3.0782536220472441
20
-3.7419816929133858
11
3.0778056692913385
21
-3.7409002755905512
0
LINE
8
BLACK
6
CONTINUOUS
10
3.0778056692913385
20
-3.7409002755905512
11
3.0778056692913385
21
-3.7409002362204724
0
LINE
8
BLACK
6
CONTINUOUS
10
3.0778056692913385
20
-3.7409002362204724
11
3.0777480314960628
21
-3.7403149999999998
0
LINE
8
BLACK
6
CONTINUOUS
10
3.0777480314960628
20
-3.7403149999999998
11
3.0777480314960628
21
-3.7375433464566927
0
LINE
8
BLACK
6
CONTINUOUS
10
3.0777480314960628
20
-3.7375433464566927
11
3.0746968503937007
21
-3.7375433464566927
0
LINE
8
BLACK
6
CONTINUOUS
10
3.0746968503937007
20
-3.7375433464566927
11
3.0741115748031493
21
-3.737485708661417
0
LINE
8
BLACK
6
CONTINUOUS
10
3.0741115748031493
20
-3.737485708661417
11
3.0730301574803147
21
-3.7370377559055119
0
LINE
8
BLACK
6
CONTINUOUS
10
3.0730301574803147
20
-3.7370377559055119
11
3.0722024409448818
21
-3.7362100393700786
0
LINE
8
BLACK
6
CONTINUOUS
10
3.0722024409448818
20
-3.7362100393700786
11
3.0717544881889762
21
-3.7351286220472439
0
LINE
8
BLACK
6
CONTINUOUS
10
3.0717544881889762
20
-3.7351286220472439
11
3.0716968503937006
21
-3.7345433464566926
0
LINE
8
BLACK
6
CONTINUOUS
10
3.0716968503937006
20
-3.7345433464566926
11
3.0716968503937006
21
-3.6911496062992124
0
LINE
8
BLACK
6
CONTINUOUS
10
3.0716968503937006
20
-3.6911496062992124
11
3.0687401968503938
21
-3.6911496456692912
0
LINE
8
BLACK
6
CONTINUOUS
10
3.0687401968503938
20
-3.6911496456692912
11
3.0681548818897637
21
-3.6910920078740155
0
LINE
8
BLACK
6
CONTINUOUS
10
3.0681548818897637
20
-3.6910920078740155
11
3.0670734645669291
21
-3.6906440551181103
0
LINE
8
BLACK
6
CONTINUOUS
10
3.0670734645669291
20
-3.6906440551181103
11
3.0662457480314962
21
-3.689816338582677
0
LINE
8
BLACK
6
CONTINUOUS
10
3.0662457480314962
20
-3.689816338582677
11
3.0657977952755906
21
-3.6887349212598424
0
LINE
8
BLACK
6
CONTINUOUS
10
3.0657977952755906
20
-3.6887349212598424
11
3.0657977952755906
21
-3.6887348818897636
0
LINE
8
BLACK
6
CONTINUOUS
10
3.0657977952755906
20
-3.6887348818897636
11
3.0657401574803149
21
-3.688149645669291
0
LINE
8
BLACK
6
CONTINUOUS
10
3.0657401574803149
20
-3.688149645669291
11
3.0657401574803149
21
-3.6583071259842517
0
LINE
8
BLACK
6
CONTINUOUS
10
3.0657401574803149
20
-3.6583071259842517
11
3.0657401574803149
21
-3.6487795669291336
0
LINE
8
BLACK
6
CONTINUOUS
10
3.0657401574803149
20
-3.6487795669291336
11
3.0657401574803149
21
-3.6189370472440943
0
LINE
8
BLACK
6
CONTINUOUS
10
3.0657401574803149
20
-3.6189370472440943
11
3.0657977952755906
21
-3.6183517716535434
0
LINE
8
BLACK
6
CONTINUOUS
10
3.0657977952755906
20
-3.6183517716535434
11
3.0662457480314962
21
-3.6172703543307088
0
LINE
8
BLACK
6
CONTINUOUS
10
3.0662457480314962
20
-3.6172703543307088
11
3.0670734645669291
21
-3.6164426377952754
0
LINE
8
BLACK
6
CONTINUOUS
10
3.0670734645669291
20
-3.6164426377952754
11
3.0681548818897637
21
-3.6159946850393698
0
LINE
8
BLACK
6
CONTINUOUS
10
3.0681548818897637
20
-3.6159946850393698
11
3.0687401968503938
21
-3.6159370472440946
0
LINE
8
BLACK
6
CONTINUOUS
10
3.0687401968503938
20
-3.6159370472440946
11
3.0716968503937006
21
-3.6159370472440946
0
LINE
8
BLACK
6
CONTINUOUS
10
3.0716968503937006
20
-3.6159370472440946
11
3.0716968503937006
21
-3.5725433464566927
0
LINE
8
BLACK
6
CONTINUOUS
10
3.0716968503937006
20
-3.5725433464566927
11
3.0717544881889762
21
-3.5719580708661418
0
LINE
8
BLACK
6
CONTINUOUS
10
3.0717544881889762
20
-3.5719580708661418
11
3.0722024409448818
21
-3.5708766535433072
0
LINE
8
BLACK
6
CONTINUOUS
10
3.0722024409448818
20
-3.5708766535433072
11
3.0730301574803147
21
-3.5700489370078738
0
LINE
8
BLACK
6
CONTINUOUS
10
3.0730301574803147
20
-3.5700489370078738
11
3.0741115748031493
21
-3.5696009842519683
0
LINE
8
BLACK
6
CONTINUOUS
10
3.0741115748031493
20
-3.5696009842519683
11
3.0746968503937007
21
-3.569543346456693
0
LINE
8
BLACK
6
CONTINUOUS
10
3.0746968503937007
20
-3.569543346456693
11
3.0777480314960628
21
-3.569543346456693
0
LINE
8
BLACK
6
CONTINUOUS
10
3.0777480314960628
20
-3.569543346456693
11
3.0777480314960628
21
-3.5667716929133859
0
LINE
8
BLACK
6
CONTINUOUS
10
3.0777480314960628
20
-3.5667716929133859
11
3.0778056692913385
21
-3.5661864173228346
0
LINE
8
BLACK
6
CONTINUOUS
10
3.0778056692913385
20
-3.5661864173228346
11
3.0782536220472441
21
-3.565105
0
LINE
8
BLACK
6
CONTINUOUS
10
3.0782536220472441
20
-3.565105
11
3.079081338582677
21
-3.5642772834645671
0
LINE
8
BLACK
6
CONTINUOUS
10
3.079081338582677
20
-3.5642772834645671
11
3.0801627559055116
21
-3.5638293307086615
0
LINE
8
BLACK
6
CONTINUOUS
10
3.0801627559055116
20
-3.5638293307086615
11
3.0807480314960629
21
-3.5637716929133858
0
LINE
8
BLACK
6
CONTINUOUS
10
3.0807480314960629
20
-3.5637716929133858
11
3.1153149606299211
21
-3.5637716929133858
0
LINE
8
BLACK
6
CONTINUOUS
10
3.083748031496063
20
-3.5697716929133856
11
3.083748031496063
21
-3.5725433464566927
0
LINE
8
BLACK
6
CONTINUOUS
10
3.083748031496063
20
-3.5725433464566927
11
3.0836903937007873
21
-3.5731285826771653
0
LINE
8
BLACK
6
CONTINUOUS
10
3.0836903937007873
20
-3.5731285826771653
11
3.0836903937007873
21
-3.573128622047244
0
LINE
8
BLACK
6
CONTINUOUS
10
3.0836903937007873
20
-3.573128622047244
11
3.0832424409448818
21
-3.5742100393700786
0
LINE
8
BLACK
6
CONTINUOUS
10
3.0832424409448818
20
-3.5742100393700786
11
3.0824147244094489
21
-3.5750377559055115
0
LINE
8
BLACK
6
CONTINUOUS
10
3.0824147244094489
20
-3.5750377559055115
11
3.0813333070866142
21
-3.5754857086614171
0
LINE
8
BLACK
6
CONTINUOUS
10
3.0813333070866142
20
-3.5754857086614171
11
3.0807480314960629
21
-3.5755433464566928
0
LINE
8
BLACK
6
CONTINUOUS
10
3.0807480314960629
20
-3.5755433464566928
11
3.0776968503937008
21
-3.5755433464566928
0
LINE
8
BLACK
6
CONTINUOUS
10
3.0776968503937008
20
-3.5755433464566928
11
3.0776968503937008
21
-3.618937086614173
0
LINE
8
BLACK
6
CONTINUOUS
10
3.0776968503937008
20
-3.618937086614173
11
3.0776392125984251
21
-3.6195223228346456
0
LINE
8
BLACK
6
CONTINUOUS
10
3.0776392125984251
20
-3.6195223228346456
11
3.0776392125984251
21
-3.6195223622047243
0
LINE
8
BLACK
6
CONTINUOUS
10
3.0776392125984251
20
-3.6195223622047243
11
3.0771912598425195
21
-3.620603779527559
0
LINE
8
BLACK
6
CONTINUOUS
10
3.0771912598425195
20
-3.620603779527559
11
3.0763635433070866
21
-3.6214314960629919
0
LINE
8
BLACK
6
CONTINUOUS
10
3.0763635433070866
20
-3.6214314960629919
11
3.075282125984252
21
-3.6218794488188975
0
LINE
8
BLACK
6
CONTINUOUS
10
3.075282125984252
20
-3.6218794488188975
11
3.0746968110236219
21
-3.6219370866141731
0
LINE
8
BLACK
6
CONTINUOUS
10
3.0746968110236219
20
-3.6219370866141731
11
3.0717401574803147
21
-3.6219370472440944
0
LINE
8
BLACK
6
CONTINUOUS
10
3.0717401574803147
20
-3.6219370472440944
11
3.0717401574803147
21
-3.6487795669291336
0
LINE
8
BLACK
6
CONTINUOUS
10
3.0717401574803147
20
-3.6487795669291336
11
3.0717401574803147
21
-3.6583071259842517
0
LINE
8
BLACK
6
CONTINUOUS
10
3.0717401574803147
20
-3.6583071259842517
11
3.0717401574803147
21
-3.6851496062992126
0
LINE
8
BLACK
6
CONTINUOUS
10
3.0717401574803147
20
-3.6851496062992126
11
3.0746968110236219
21
-3.6851496062992126
0
LINE
8
BLACK
6
CONTINUOUS
10
3.0746968110236219
20
-3.6851496062992126
11
3.075282125984252
21
-3.6852072440944883
0
LINE
8
BLACK
6
CONTINUOUS
10
3.075282125984252
20
-3.6852072440944883
11
3.0763635433070866
21
-3.6856551968503934
0
LINE
8
BLACK
6
CONTINUOUS
10
3.0763635433070866
20
-3.6856551968503934
11
3.0771912598425195
21
-3.6864829133858268
0
LINE
8
BLACK
6
CONTINUOUS
10
3.0771912598425195
20
-3.6864829133858268
11
3.0776392125984251
21
-3.6875643307086614
0
LINE
8
BLACK
6
CONTINUOUS
10
3.0776392125984251
20
-3.6875643307086614
11
3.0776968503937008
21
-3.6881496062992127
0
LINE
8
BLACK
6
CONTINUOUS
10
3.0776968503937008
20
-3.6881496062992127
11
3.0776968503937008
21
-3.7315433464566929
0
LINE
8
BLACK
6
CONTINUOUS
10
3.0776968503937008
20
-3.7315433464566929
11
3.0807480314960629
21
-3.7315433464566929
0
LINE
8
BLACK
6
CONTINUOUS
10
3.0807480314960629
20
-3.7315433464566929
11
3.0813333070866142
21
-3.7316009842519686
0
LINE
8
BLACK
6
CONTINUOUS
10
3.0813333070866142
20
-3.7316009842519686
11
3.0824147244094489
21
-3.7320489370078738
0
LINE
8
BLACK
6
CONTINUOUS
10
3.0824147244094489
20
-3.7320489370078738
11
3.0832424409448818
21
-3.7328766535433071
0
LINE
8
BLACK
6
CONTINUOUS
10
3.0832424409448818
20
-3.7328766535433071
11
3.0836903937007873
21
-3.7339580708661417
0
LINE
8
BLACK
6
CONTINUOUS
10
3.0836903937007873
20
-3.7339580708661417
11
3.083748031496063
21
-3.7345433464566926
0
LINE
8
BLACK
6
CONTINUOUS
10
3.083748031496063
20
-3.7345433464566926
11
3.083748031496063
21
-3.7373149999999997
0
LINE
8
BLACK
6
CONTINUOUS
10
3.083748031496063
20
-3.7373149999999997
11
3.1153149606299211
21
-3.7373149999999997
0
LINE
8
BLACK
6
CONTINUOUS
10
3.1153149606299211
20
-3.7373149999999997
11
3.1615250787401572
21
-3.7373149999999997
0
LINE
8
BLACK
6
CONTINUOUS
10
3.1615250787401572
20
-3.7373149999999997
11
3.1615250787401572
21
-3.7345433464566926
0
LINE
8
BLACK
6
CONTINUOUS
10
3.1615250787401572
20
-3.7345433464566926
11
3.1615827165354329
21
-3.7339580708661417
0
LINE
8
BLACK
6
CONTINUOUS
10
3.1615827165354329
20
-3.7339580708661417
11
3.1620306692913385
21
-3.7328766535433071
0
LINE
8
BLACK
6
CONTINUOUS
10
3.1620306692913385
20
-3.7328766535433071
11
3.1628583858267714
21
-3.7320489370078738
0
LINE
8
BLACK
6
CONTINUOUS
10
3.1628583858267714
20
-3.7320489370078738
11
3.1639398031496064
21
-3.7316009842519686
0
LINE
8
BLACK
6
CONTINUOUS
10
3.1639398031496064
20
-3.7316009842519686
11
3.1645250787401573
21
-3.7315433464566929
0
LINE
8
BLACK
6
CONTINUOUS
10
3.1645250787401573
20
-3.7315433464566929
11
3.1720891338582677
21
-3.7315433464566929
0
LINE
8
BLACK
6
CONTINUOUS
10
3.1720891338582677
20
-3.7315433464566929
11
3.1726744094488186
21
-3.7316009842519686
0
LINE
8
BLACK
6
CONTINUOUS
10
3.1726744094488186
20
-3.7316009842519686
11
3.1726744488188974
21
-3.7316009842519686
0
LINE
8
BLACK
6
CONTINUOUS
10
3.1726744488188974
20
-3.7316009842519686
11
3.1737558267716537
21
-3.7320489370078738
0
LINE
8
BLACK
6
CONTINUOUS
10
3.1737558267716537
20
-3.7320489370078738
11
3.1745835433070866
21
-3.7328766535433071
0
LINE
8
BLACK
6
CONTINUOUS
10
3.1745835433070866
20
-3.7328766535433071
11
3.1750314566929134
21
-3.733958031496063
0
LINE
8
BLACK
6
CONTINUOUS
10
3.1750314566929134
20
-3.733958031496063
11
3.1750314960629922
21
-3.7339581102362205
0
LINE
8
BLACK
6
CONTINUOUS
10
3.1750314960629922
20
-3.7339581102362205
11
3.1750891338582679
21
-3.7345433858267714
0
LINE
8
BLACK
6
CONTINUOUS
10
3.1750891338582679
20
-3.7345433858267714
11
3.1750891338582679
21
-3.7373149999999997
0
LINE
8
BLACK
6
CONTINUOUS
10
3.1750891338582679
20
-3.7373149999999997
11
3.2580016141732284
21
-3.7373149999999997
0
LINE
8
BLACK
6
CONTINUOUS
10
3.2580016141732284
20
-3.7373149999999997
11
3.2580016141732284
21
-3.7345433464566926
0
LINE
8
BLACK
6
CONTINUOUS
10
3.2580016141732284
20
-3.7345433464566926
11
3.2580592519685037
21
-3.7339580708661417
0
LINE
8
BLACK
6
CONTINUOUS
10
3.2580592519685037
20
-3.7339580708661417
11
3.2585072047244092
21
-3.7328766535433071
0
LINE
8
BLACK
6
CONTINUOUS
10
3.2585072047244092
20
-3.7328766535433071
11
3.2593349212598426
21
-3.7320489370078738
0
LINE
8
BLACK
6
CONTINUOUS
10
3.2593349212598426
20
-3.7320489370078738
11
3.2604163385826772
21
-3.7316009842519686
0
LINE
8
BLACK
6
CONTINUOUS
10
3.2604163385826772
20
-3.7316009842519686
11
3.2610016141732281
21
-3.7315433464566929
0
LINE
8
BLACK
6
CONTINUOUS
10
3.2610016141732281
20
-3.7315433464566929
11
3.2726968503937006
21
-3.7315433464566929
0
LINE
8
BLACK
6
CONTINUOUS
10
3.2726968503937006
20
-3.7315433464566929
11
3.2726968503937006
21
-3.5755433464566928
0
LINE
8
BLACK
6
CONTINUOUS
10
3.2726968503937006
20
-3.5755433464566928
11
3.2610016141732281
21
-3.5755433464566928
0
LINE
8
BLACK
6
CONTINUOUS
10
3.2610016141732281
20
-3.5755433464566928
11
3.2604163385826772
21
-3.5754857086614171
0
LINE
8
BLACK
6
CONTINUOUS
10
3.2604163385826772
20
-3.5754857086614171
11
3.2593349212598426
21
-3.5750377559055115
0
LINE
8
BLACK
6
CONTINUOUS
10
3.2593349212598426
20
-3.5750377559055115
11
3.2585072047244092
21
-3.5742100393700786
0
LINE
8
BLACK
6
CONTINUOUS
10
3.2585072047244092
20
-3.5742100393700786
11
3.2580592519685037
21
-3.573128622047244
0
LINE
8
BLACK
6
CONTINUOUS
10
3.2580592519685037
20
-3.573128622047244
11
3.2580592519685037
21
-3.5731285826771653
0
LINE
8
BLACK
6
CONTINUOUS
10
3.2580592519685037
20
-3.5731285826771653
11
3.2580016141732284
21
-3.5725433464566927
0
LINE
8
BLACK
6
CONTINUOUS
10
3.2580016141732284
20
-3.5725433464566927
11
3.2580016141732284
21
-3.5697716929133856
0
LINE
8
BLACK
6
CONTINUOUS
10
3.2580016141732284
20
-3.5697716929133856
11
3.1750891338582679
21
-3.5697716929133856
0
LINE
8
BLACK
6
CONTINUOUS
10
3.1750891338582679
20
-3.5697716929133856
11
3.1750891338582679
21
-3.5725433070866139
0
LINE
8
BLACK
6
CONTINUOUS
10
3.1750891338582679
20
-3.5725433070866139
11
3.1750314960629922
21
-3.5731285826771653
0
LINE
8
BLACK
6
CONTINUOUS
10
3.1750314960629922
20
-3.5731285826771653
11
3.1750314960629922
21
-3.573128622047244
0
LINE
8
BLACK
6
CONTINUOUS
10
3.1750314960629922
20
-3.573128622047244
11
3.1745835433070866
21
-3.5742100393700786
0
LINE
8
BLACK
6
CONTINUOUS
10
3.1745835433070866
20
-3.5742100393700786
11
3.1737558267716537
21
-3.5750377559055115
0
LINE
8
BLACK
6
CONTINUOUS
10
3.1737558267716537
20
-3.5750377559055115
11
3.1726744488188974
21
-3.5754857086614171
0
LINE
8
BLACK
6
CONTINUOUS
10
3.1726744488188974
20
-3.5754857086614171
11
3.1726744094488186
21
-3.5754857086614171
0
LINE
8
BLACK
6
CONTINUOUS
10
3.1726744094488186
20
-3.5754857086614171
11
3.1720891338582677
21
-3.5755433464566928
0
LINE
8
BLACK
6
CONTINUOUS
10
3.1720891338582677
20
-3.5755433464566928
11
3.1645250787401573
21
-3.5755433464566928
0
LINE
8
BLACK
6
CONTINUOUS
10
3.1645250787401573
20
-3.5755433464566928
11
3.1639398031496064
21
-3.5754857086614171
0
LINE
8
BLACK
6
CONTINUOUS
10
3.1639398031496064
20
-3.5754857086614171
11
3.1628583858267714
21
-3.5750377559055115
0
LINE
8
BLACK
6
CONTINUOUS
10
3.1628583858267714
20
-3.5750377559055115
11
3.1620306692913385
21
-3.5742100393700786
0
LINE
8
BLACK
6
CONTINUOUS
10
3.1620306692913385
20
-3.5742100393700786
11
3.1615827165354329
21
-3.573128622047244
0
LINE
8
BLACK
6
CONTINUOUS
10
3.1615827165354329
20
-3.573128622047244
11
3.1615827165354329
21
-3.5731285826771653
0
LINE
8
BLACK
6
CONTINUOUS
10
3.1615827165354329
20
-3.5731285826771653
11
3.1615250787401572
21
-3.5725433464566927
0
LINE
8
BLACK
6
CONTINUOUS
10
3.1615250787401572
20
-3.5725433464566927
11
3.1615250787401572
21
-3.5697716929133856
0
LINE
8
BLACK
6
CONTINUOUS
10
3.1615250787401572
20
-3.5697716929133856
11
3.1153149606299211
21
-3.5697716929133856
0
LINE
8
BLACK
6
CONTINUOUS
10
3.1153149606299211
20
-3.5697716929133856
11
3.083748031496063
21
-3.5697716929133856
0
LINE
8
BLACK
6
CONTINUOUS
10
4.2865971259842519
20
-3.004996220472441
11
4.2871298031496066
21
-3.0055288976377952
0
LINE
8
BLACK
6
CONTINUOUS
10
4.2871298031496066
20
-3.0055288976377952
11
4.2872047244094489
21
-3.0059055511811024
0
LINE
8
BLACK
6
CONTINUOUS
10
4.2872047244094489
20
-3.0059055511811024
11
4.2872047244094489
21
-3.3452755905511808
0
LINE
8
BLACK
6
CONTINUOUS
10
4.2872047244094489
20
-3.3452755905511808
11
4.2871298031496066
21
-3.345652244094488
0
LINE
8
BLACK
6
CONTINUOUS
10
4.2871298031496066
20
-3.345652244094488
11
4.2865971259842519
21
-3.3461849212598422
0
LINE
8
BLACK
6
CONTINUOUS
10
4.2865971259842519
20
-3.3461849212598422
11
4.2862204724409452
21
-3.346259842519685
0
LINE
8
BLACK
6
CONTINUOUS
10
4.2862204724409452
20
-3.346259842519685
11
4.1468503937007872
21
-3.346259842519685
0
LINE
8
BLACK
6
CONTINUOUS
10
4.1468503937007872
20
-3.346259842519685
11
4.1464737401574805
21
-3.3461849212598422
0
LINE
8
BLACK
6
CONTINUOUS
10
4.1464737401574805
20
-3.3461849212598422
11
4.1459410629921258
21
-3.345652244094488
0
LINE
8
BLACK
6
CONTINUOUS
10
4.1459410629921258
20
-3.345652244094488
11
4.1458661417322835
21
-3.3452755905511808
0
LINE
8
BLACK
6
CONTINUOUS
10
4.1458661417322835
20
-3.3452755905511808
11
4.1458661417322835
21
-3.0059055511811024
0
LINE
8
BLACK
6
CONTINUOUS
10
4.1458661417322835
20
-3.0059055511811024
11
4.1459410629921258
21
-3.0055288976377952
0
LINE
8
BLACK
6
CONTINUOUS
10
4.1459410629921258
20
-3.0055288976377952
11
4.1464737401574805
21
-3.004996220472441
0
LINE
8
BLACK
6
CONTINUOUS
10
4.1464737401574805
20
-3.004996220472441
11
4.1468503937007872
21
-3.0049212992125982
0
LINE
8
BLACK
6
CONTINUOUS
10
4.1468503937007872
20
-3.0049212992125982
11
4.2862204724409452
21
-3.0049212992125982
0
LINE
8
BLACK
6
CONTINUOUS
10
4.2862204724409452
20
-3.0049212992125982
11
4.2865971259842519
21
-3.004996220472441
0
LINE
8
BLACK
6
CONTINUOUS
10
4.1478346456692909
20
-3.0068898031496061
11
4.1478346456692909
21
-3.3442913385826771
0
LINE
8
BLACK
6
CONTINUOUS
10
4.1478346456692909
20
-3.3442913385826771
11
4.2852362204724406
21
-3.3442913385826771
0
LINE
8
BLACK
6
CONTINUOUS
10
4.2852362204724406
20
-3.3442913385826771
11
4.2852362204724406
21
-3.0068898031496061
0
LINE
8
BLACK
6
CONTINUOUS
10
4.2852362204724406
20
-3.0068898031496061
11
4.1478346456692909
21
-3.0068898031496061
0
LINE
8
BLACK
6
CONTINUOUS
10
2.2633687795275592
20
-0.9449568110236221
11
2.2639014566929134
21
-0.9454894881889764
0
LINE
8
BLACK
6
CONTINUOUS
10
2.2639014566929134
20
-0.9454894881889764
11
2.2639763779527557
21
-0.9458661417322834
0
LINE
8
BLACK
6
CONTINUOUS
10
2.2639763779527557
20
-0.9458661417322834
11
2.2639763779527557
21
-2.9856299212598425
0
LINE
8
BLACK
6
CONTINUOUS
10
2.2639763779527557
20
-2.9856299212598425
11
2.2639014566929134
21
-2.9860065748031497
0
LINE
8
BLACK
6
CONTINUOUS
10
2.2639014566929134
20
-2.9860065748031497
11
2.2633687795275592
21
-2.9865392519685039
0
LINE
8
BLACK
6
CONTINUOUS
10
2.2633687795275592
20
-2.9865392519685039
11
2.262992125984252
21
-2.9866141732283462
0
LINE
8
BLACK
6
CONTINUOUS
10
2.262992125984252
20
-2.9866141732283462
11
2.0232283464566927
21
-2.9866141732283462
0
LINE
8
BLACK
6
CONTINUOUS
10
2.0232283464566927
20
-2.9866141732283462
11
2.022851692913386
21
-2.9865392519685039
0
LINE
8
BLACK
6
CONTINUOUS
10
2.022851692913386
20
-2.9865392519685039
11
2.0223190157480313
21
-2.9860065748031497
0
LINE
8
BLACK
6
CONTINUOUS
10
2.0223190157480313
20
-2.9860065748031497
11
2.022244094488189
21
-2.9856299212598425
0
LINE
8
BLACK
6
CONTINUOUS
10
2.022244094488189
20
-2.9856299212598425
11
2.022244094488189
21
-0.9458661417322834
0
LINE
8
BLACK
6
CONTINUOUS
10
2.022244094488189
20
-0.9458661417322834
11
2.0223190157480313
21
-0.9454894881889764
0
LINE
8
BLACK
6
CONTINUOUS
10
2.0223190157480313
20
-0.9454894881889764
11
2.022851692913386
21
-0.9449568110236221
0
LINE
8
BLACK
6
CONTINUOUS
10
2.022851692913386
20
-0.9449568110236221
11
2.0232283464566927
21
-0.9448818897637795
0
LINE
8
BLACK
6
CONTINUOUS
10
2.0232283464566927
20
-0.9448818897637795
11
2.262992125984252
21
-0.9448818897637795
0
LINE
8
BLACK
6
CONTINUOUS
10
2.262992125984252
20
-0.9448818897637795
11
2.2633687795275592
21
-0.9449568110236221
0
LINE
8
BLACK
6
CONTINUOUS
10
2.0242125984251969
20
-0.9468503937007874
11
2.0242125984251969
21
-2.9846456692913383
0
LINE
8
BLACK
6
CONTINUOUS
10
2.0242125984251969
20
-2.9846456692913383
11
2.2620078740157479
21
-2.9846456692913383
0
LINE
8
BLACK
6
CONTINUOUS
10
2.2620078740157479
20
-2.9846456692913383
11
2.2620078740157479
21
-0.9468503937007874
0
LINE
8
BLACK
6
CONTINUOUS
10
2.2620078740157479
20
-0.9468503937007874
11
2.0242125984251969
21
-0.9468503937007874
0
LINE
8
BLACK
6
CONTINUOUS
10
4.5422073622047243
20
-2.4205473622047244
11
4.542740039370079
21
-2.4210800393700787
0
LINE
8
BLACK
6
CONTINUOUS
10
4.542740039370079
20
-2.4210800393700787
11
4.5428149606299213
21
-2.4214566929133858
0
LINE
8
BLACK
6
CONTINUOUS
10
4.5428149606299213
20
-2.4214566929133858
11
4.5428149606299213
21
-2.4657480314960631
0
LINE
8
BLACK
6
CONTINUOUS
10
4.5428149606299213
20
-2.4657480314960631
11
4.5823818897637798
21
-2.4657480314960631
0
LINE
8
BLACK
6
CONTINUOUS
10
4.5823818897637798
20
-2.4657480314960631
11
4.5827585433070865
21
-2.4658229527559055
0
LINE
8
BLACK
6
CONTINUOUS
10
4.5827585433070865
20
-2.4658229527559055
11
4.5832912204724412
21
-2.4663556299212597
0
LINE
8
BLACK
6
CONTINUOUS
10
4.5832912204724412
20
-2.4663556299212597
11
4.5833661417322835
21
-2.4667322834645669
0
LINE
8
BLACK
6
CONTINUOUS
10
4.5833661417322835
20
-2.4667322834645669
11
4.5833661417322835
21
-2.51003937007874
0
LINE
8
BLACK
6
CONTINUOUS
10
4.5833661417322835
20
-2.51003937007874
11
4.5832912204724412
21
-2.5104160236220472
0
LINE
8
BLACK
6
CONTINUOUS
10
4.5832912204724412
20
-2.5104160236220472
11
4.5827585433070865
21
-2.5109487007874014
0
LINE
8
BLACK
6
CONTINUOUS
10
4.5827585433070865
20
-2.5109487007874014
11
4.5823818897637798
21
-2.5110236220472442
0
LINE
8
BLACK
6
CONTINUOUS
10
4.5823818897637798
20
-2.5110236220472442
11
4.5428149606299213
21
-2.5110236220472442
0
LINE
8
BLACK
6
CONTINUOUS
10
4.5428149606299213
20
-2.5110236220472442
11
4.5428149606299213
21
-2.555314960629921
0
LINE
8
BLACK
6
CONTINUOUS
10
4.5428149606299213
20
-2.555314960629921
11
4.542740039370079
21
-2.5556916141732282
0
LINE
8
BLACK
6
CONTINUOUS
10
4.542740039370079
20
-2.5556916141732282
11
4.5422073622047243
21
-2.5562242913385824
0
LINE
8
BLACK
6
CONTINUOUS
10
4.5422073622047243
20
-2.5562242913385824
11
4.5418307086614176
21
-2.5562992125984252
0
LINE
8
BLACK
6
CONTINUOUS
10
4.5418307086614176
20
-2.5562992125984252
11
4.4709645669291334
21
-2.5562992125984252
0
LINE
8
BLACK
6
CONTINUOUS
10
4.4709645669291334
20
-2.5562992125984252
11
4.4705879133858266
21
-2.5562242913385824
0
LINE
8
BLACK
6
CONTINUOUS
10
4.4705879133858266
20
-2.5562242913385824
11
4.470055236220472
21
-2.5556916141732282
0
LINE
8
BLACK
6
CONTINUOUS
10
4.470055236220472
20
-2.5556916141732282
11
4.4699803149606296
21
-2.555314960629921
0
LINE
8
BLACK
6
CONTINUOUS
10
4.4699803149606296
20
-2.555314960629921
11
4.4699803149606296
21
-2.5484251968503937
0
LINE
8
BLACK
6
CONTINUOUS
10
4.4699803149606296
20
-2.5484251968503937
11
4.4304133858267711
21
-2.5484251968503937
0
LINE
8
BLACK
6
CONTINUOUS
10
4.4304133858267711
20
-2.5484251968503937
11
4.4300367322834644
21
-2.5483502755905509
0
LINE
8
BLACK
6
CONTINUOUS
10
4.4300367322834644
20
-2.5483502755905509
11
4.4295040551181097
21
-2.5478175984251967
0
LINE
8
BLACK
6
CONTINUOUS
10
4.4295040551181097
20
-2.5478175984251967
11
4.4294291338582674
21
-2.5474409448818895
0
LINE
8
BLACK
6
CONTINUOUS
10
4.4294291338582674
20
-2.5474409448818895
11
4.4294291338582674
21
-2.5037401574803151
0
LINE
8
BLACK
6
CONTINUOUS
10
4.4294291338582674
20
-2.5037401574803151
11
4.4295040551181097
21
-2.5033635039370079
0
LINE
8
BLACK
6
CONTINUOUS
10
4.4295040551181097
20
-2.5033635039370079
11
4.4300367322834644
21
-2.5028308267716537
0
LINE
8
BLACK
6
CONTINUOUS
10
4.4300367322834644
20
-2.5028308267716537
11
4.4304133858267711
21
-2.5027559055118109
0
LINE
8
BLACK
6
CONTINUOUS
10
4.4304133858267711
20
-2.5027559055118109
11
4.4699803149606296
21
-2.5027559055118109
0
LINE
8
BLACK
6
CONTINUOUS
10
4.4699803149606296
20
-2.5027559055118109
11
4.4699803149606296
21
-2.4740157480314959
0
LINE
8
BLACK
6
CONTINUOUS
10
4.4699803149606296
20
-2.4740157480314959
11
4.4304133858267711
21
-2.4740157480314959
0
LINE
8
BLACK
6
CONTINUOUS
10
4.4304133858267711
20
-2.4740157480314959
11
4.4300367322834644
21
-2.4739408267716536
0
LINE
8
BLACK
6
CONTINUOUS
10
4.4300367322834644
20
-2.4739408267716536
11
4.4295040551181097
21
-2.473408149606299
0
LINE
8
BLACK
6
CONTINUOUS
10
4.4295040551181097
20
-2.473408149606299
11
4.4294291338582674
21
-2.4730314960629922
0
LINE
8
BLACK
6
CONTINUOUS
10
4.4294291338582674
20
-2.4730314960629922
11
4.4294291338582674
21
-2.4293307086614173
0
LINE
8
BLACK
6
CONTINUOUS
10
4.4294291338582674
20
-2.4293307086614173
11
4.4295040551181097
21
-2.4289540551181101
0
LINE
8
BLACK
6
CONTINUOUS
10
4.4295040551181097
20
-2.4289540551181101
11
4.4300367322834644
21
-2.4284213779527559
0
LINE
8
BLACK
6
CONTINUOUS
10
4.4300367322834644
20
-2.4284213779527559
11
4.4304133858267711
21
-2.4283464566929132
0
LINE
8
BLACK
6
CONTINUOUS
10
4.4304133858267711
20
-2.4283464566929132
11
4.4699803149606296
21
-2.4283464566929132
0
LINE
8
BLACK
6
CONTINUOUS
10
4.4699803149606296
20
-2.4283464566929132
11
4.4699803149606296
21
-2.4214566929133858
0
LINE
8
BLACK
6
CONTINUOUS
10
4.4699803149606296
20
-2.4214566929133858
11
4.470055236220472
21
-2.4210800393700787
0
LINE
8
BLACK
6
CONTINUOUS
10
4.470055236220472
20
-2.4210800393700787
11
4.4705879133858266
21
-2.4205473622047244
0
LINE
8
BLACK
6
CONTINUOUS
10
4.4705879133858266
20
-2.4205473622047244
11
4.4709645669291334
21
-2.4204724409448817
0
LINE
8
BLACK
6
CONTINUOUS
10
4.4709645669291334
20
-2.4204724409448817
11
4.5418307086614176
21
-2.4204724409448817
0
LINE
8
BLACK
6
CONTINUOUS
10
4.5418307086614176
20
-2.4204724409448817
11
4.5422073622047243
21
-2.4205473622047244
0
LINE
8
BLACK
6
CONTINUOUS
10
4.471948818897638
20
-2.4224409448818895
11
4.471948818897638
21
-2.4293307086614173
0
LINE
8
BLACK
6
CONTINUOUS
10
4.471948818897638
20
-2.4293307086614173
11
4.4718738976377947
21
-2.4297073622047245
0
LINE
8
BLACK
6
CONTINUOUS
10
4.4718738976377947
20
-2.4297073622047245
11
4.471341220472441
21
-2.4302400393700787
0
LINE
8
BLACK
6
CONTINUOUS
10
4.471341220472441
20
-2.4302400393700787
11
4.4709645669291334
21
-2.430314960629921
0
LINE
8
BLACK
6
CONTINUOUS
10
4.4709645669291334
20
-2.430314960629921
11
4.4313976377952757
21
-2.430314960629921
0
LINE
8
BLACK
6
CONTINUOUS
10
4.4313976377952757
20
-2.430314960629921
11
4.4313976377952757
21
-2.4720472440944881
0
LINE
8
BLACK
6
CONTINUOUS
10
4.4313976377952757
20
-2.4720472440944881
11
4.4709645669291334
21
-2.4720472440944881
0
LINE
8
BLACK
6
CONTINUOUS
10
4.4709645669291334
20
-2.4720472440944881
11
4.471341220472441
21
-2.4721221653543308
0
LINE
8
BLACK
6
CONTINUOUS
10
4.471341220472441
20
-2.4721221653543308
11
4.4718738976377947
21
-2.472654842519685
0
LINE
8
BLACK
6
CONTINUOUS
10
4.4718738976377947
20
-2.472654842519685
11
4.471948818897638
21
-2.4730314960629922
0
LINE
8
BLACK
6
CONTINUOUS
10
4.471948818897638
20
-2.4730314960629922
11
4.471948818897638
21
-2.5037401574803151
0
LINE
8
BLACK
6
CONTINUOUS
10
4.471948818897638
20
-2.5037401574803151
11
4.4718738976377947
21
-2.5041168110236218
0
LINE
8
BLACK
6
CONTINUOUS
10
4.4718738976377947
20
-2.5041168110236218
11
4.471341220472441
21
-2.5046494881889765
0
LINE
8
BLACK
6
CONTINUOUS
10
4.471341220472441
20
-2.5046494881889765
11
4.4709645669291334
21
-2.5047244094488188
0
LINE
8
BLACK
6
CONTINUOUS
10
4.4709645669291334
20
-2.5047244094488188
11
4.4313976377952757
21
-2.5047244094488188
0
LINE
8
BLACK
6
CONTINUOUS
10
4.4313976377952757
20
-2.5047244094488188
11
4.4313976377952757
21
-2.5464566929133858
0
LINE
8
BLACK
6
CONTINUOUS
10
4.4313976377952757
20
-2.5464566929133858
11
4.4709645669291334
21
-2.5464566929133858
0
LINE
8
BLACK
6
CONTINUOUS
10
4.4709645669291334
20
-2.5464566929133858
11
4.471341220472441
21
-2.5465316141732282
0
LINE
8
BLACK
6
CONTINUOUS
10
4.471341220472441
20
-2.5465316141732282
11
4.4718738976377947
21
-2.5470642913385828
0
LINE
8
BLACK
6
CONTINUOUS
10
4.4718738976377947
20
-2.5470642913385828
11
4.471948818897638
21
-2.5474409448818895
0
LINE
8
BLACK
6
CONTINUOUS
10
4.471948818897638
20
-2.5474409448818895
11
4.471948818897638
21
-2.5543307086614173
0
LINE
8
BLACK
6
CONTINUOUS
10
4.471948818897638
20
-2.5543307086614173
11
4.540846456692913
21
-2.5543307086614173
0
LINE
8
BLACK
6
CONTINUOUS
10
4.540846456692913
20
-2.5543307086614173
11
4.540846456692913
21
-2.51003937007874
0
LINE
8
BLACK
6
CONTINUOUS
10
4.540846456692913
20
-2.51003937007874
11
4.5409213779527562
21
-2.5096627165354328
0
LINE
8
BLACK
6
CONTINUOUS
10
4.5409213779527562
20
-2.5096627165354328
11
4.54145405511811
21
-2.5091300393700786
0
LINE
8
BLACK
6
CONTINUOUS
10
4.54145405511811
20
-2.5091300393700786
11
4.5418307086614176
21
-2.5090551181102363
0
LINE
8
BLACK
6
CONTINUOUS
10
4.5418307086614176
20
-2.5090551181102363
11
4.5813976377952752
21
-2.5090551181102363
0
LINE
8
BLACK
6
CONTINUOUS
10
4.5813976377952752
20
-2.5090551181102363
11
4.5813976377952752
21
-2.467716535433071
0
LINE
8
BLACK
6
CONTINUOUS
10
4.5813976377952752
20
-2.467716535433071
11
4.5418307086614176
21
-2.467716535433071
0
LINE
8
BLACK
6
CONTINUOUS
10
4.5418307086614176
20
-2.467716535433071
11
4.54145405511811
21
-2.4676416141732282
0
LINE
8
BLACK
6
CONTINUOUS
10
4.54145405511811
20
-2.4676416141732282
11
4.5409213779527562
21
-2.467108937007874
0
LINE
8
BLACK
6
CONTINUOUS
10
4.5409213779527562
20
-2.467108937007874
11
4.540846456692913
21
-2.4667322834645669
0
LINE
8
BLACK
6
CONTINUOUS
10
4.540846456692913
20
-2.4667322834645669
11
4.540846456692913
21
-2.4224409448818895
0
LINE
8
BLACK
6
CONTINUOUS
10
4.540846456692913
20
-2.4224409448818895
11
4.471948818897638
21
-2.4224409448818895
0
LINE
8
BLACK
6
CONTINUOUS
10
3.7207873622047245
20
-2.1719123228346455
11
3.7352472047244092
21
-2.1744620078740158
0
LINE
8
BLACK
6
CONTINUOUS
10
3.7352472047244092
20
-2.1744620078740158
11
3.7494298031496061
21
-2.1782622047244096
0
LINE
8
BLACK
6
CONTINUOUS
10
3.7494298031496061
20
-2.1782622047244096
11
3.7632272440944883
21
-2.1832840551181101
0
LINE
8
BLACK
6
CONTINUOUS
10
3.7632272440944883
20
-2.1832840551181101
11
3.7765344488188974
21
-2.1894893307086614
0
LINE
8
BLACK
6
CONTINUOUS
10
3.7765344488188974
20
-2.1894893307086614
11
3.7892502362204725
21
-2.1968307874015749
0
LINE
8
BLACK
6
CONTINUOUS
10
3.7892502362204725
20
-2.1968307874015749
11
3.8012777559055118
21
-2.2052525196850392
0
LINE
8
BLACK
6
CONTINUOUS
10
3.8012777559055118
20
-2.2052525196850392
11
3.8125255118110237
21
-2.2146905118110234
0
LINE
8
BLACK
6
CONTINUOUS
10
3.8125255118110237
20
-2.2146905118110234
11
3.8229079133858268
21
-2.2250729133858269
0
LINE
8
BLACK
6
CONTINUOUS
10
3.8229079133858268
20
-2.2250729133858269
11
3.832345905511811
21
-2.2363206692913384
0
LINE
8
BLACK
6
CONTINUOUS
10
3.832345905511811
20
-2.2363206692913384
11
3.8407676377952753
21
-2.2483481889763781
0
LINE
8
BLACK
6
CONTINUOUS
10
3.8407676377952753
20
-2.2483481889763781
11
3.8481090944881888
21
-2.2610639763779528
0
LINE
8
BLACK
6
CONTINUOUS
10
3.8481090944881888
20
-2.2610639763779528
11
3.8543143700787401
21
-2.2743711811023624
0
LINE
8
BLACK
6
CONTINUOUS
10
3.8543143700787401
20
-2.2743711811023624
11
3.8593362204724411
21
-2.2881686220472441
0
LINE
8
BLACK
6
CONTINUOUS
10
3.8593362204724411
20
-2.2881686220472441
11
3.8631364173228344
21
-2.302351220472441
0
LINE
8
BLACK
6
CONTINUOUS
10
3.8631364173228344
20
-2.302351220472441
11
3.8656861023622047
21
-2.3168110629921261
0
LINE
8
BLACK
6
CONTINUOUS
10
3.8656861023622047
20
-2.3168110629921261
11
3.8669657874015746
21
-2.3314380708661417
0
LINE
8
BLACK
6
CONTINUOUS
10
3.8669657874015746
20
-2.3314380708661417
11
3.8669657874015746
21
-2.3461209842519684
0
LINE
8
BLACK
6
CONTINUOUS
10
3.8669657874015746
20
-2.3461209842519684
11
3.8656861023622047
21
-2.3607479921259844
0
LINE
8
BLACK
6
CONTINUOUS
10
3.8656861023622047
20
-2.3607479921259844
11
3.8631364173228344
21
-2.3752078346456691
0
LINE
8
BLACK
6
CONTINUOUS
10
3.8631364173228344
20
-2.3752078346456691
11
3.8593362204724411
21
-2.389390433070866
0
LINE
8
BLACK
6
CONTINUOUS
10
3.8593362204724411
20
-2.389390433070866
11
3.8543143700787401
21
-2.4031878740157482
0
LINE
8
BLACK
6
CONTINUOUS
10
3.8543143700787401
20
-2.4031878740157482
11
3.8481090944881888
21
-2.4164950787401573
0
LINE
8
BLACK
6
CONTINUOUS
10
3.8481090944881888
20
-2.4164950787401573
11
3.8407676377952753
21
-2.4292108661417324
0
LINE
8
BLACK
6
CONTINUOUS
10
3.8407676377952753
20
-2.4292108661417324
11
3.832345905511811
21
-2.4412383858267717
0
LINE
8
BLACK
6
CONTINUOUS
10
3.832345905511811
20
-2.4412383858267717
11
3.8229079133858268
21
-2.4524861417322832
0
LINE
8
BLACK
6
CONTINUOUS
10
3.8229079133858268
20
-2.4524861417322832
11
3.8125255118110237
21
-2.4628685433070867
0
LINE
8
BLACK
6
CONTINUOUS
10
3.8125255118110237
20
-2.4628685433070867
11
3.8012777559055118
21
-2.4723065354330709
0
LINE
8
BLACK
6
CONTINUOUS
10
3.8012777559055118
20
-2.4723065354330709
11
3.7892502362204725
21
-2.4807282677165352
0
LINE
8
BLACK
6
CONTINUOUS
10
3.7892502362204725
20
-2.4807282677165352
11
3.7765344488188974
21
-2.4880697244094487
0
LINE
8
BLACK
6
CONTINUOUS
10
3.7765344488188974
20
-2.4880697244094487
11
3.7632272440944883
21
-2.494275
0
LINE
8
BLACK
6
CONTINUOUS
10
3.7632272440944883
20
-2.494275
11
3.7494298031496061
21
-2.4992968503937005
0
LINE
8
BLACK
6
CONTINUOUS
10
3.7494298031496061
20
-2.4992968503937005
11
3.7352472047244092
21
-2.5030970472440943
0
LINE
8
BLACK
6
CONTINUOUS
10
3.7352472047244092
20
-2.5030970472440943
11
3.7207873622047245
21
-2.5056467322834646
0
LINE
8
BLACK
6
CONTINUOUS
10
3.7207873622047245
20
-2.5056467322834646
11
3.7061603543307085
21
-2.5069264173228345
0
LINE
8
BLACK
6
CONTINUOUS
10
3.7061603543307085
20
-2.5069264173228345
11
3.6914774409448818
21
-2.5069264173228345
0
LINE
8
BLACK
6
CONTINUOUS
10
3.6914774409448818
20
-2.5069264173228345
11
3.6768504330708662
21
-2.5056467322834646
0
LINE
8
BLACK
6
CONTINUOUS
10
3.6768504330708662
20
-2.5056467322834646
11
3.6623905905511811
21
-2.5030970472440943
0
LINE
8
BLACK
6
CONTINUOUS
10
3.6623905905511811
20
-2.5030970472440943
11
3.6482079921259842
21
-2.4992968503937005
0
LINE
8
BLACK
6
CONTINUOUS
10
3.6482079921259842
20
-2.4992968503937005
11
3.6344105511811025
21
-2.494275
0
LINE
8
BLACK
6
CONTINUOUS
10
3.6344105511811025
20
-2.494275
11
3.6211033464566929
21
-2.4880697244094487
0
LINE
8
BLACK
6
CONTINUOUS
10
3.6211033464566929
20
-2.4880697244094487
11
3.6083875590551182
21
-2.4807282677165352
0
LINE
8
BLACK
6
CONTINUOUS
10
3.6083875590551182
20
-2.4807282677165352
11
3.5963600393700785
21
-2.4723065354330709
0
LINE
8
BLACK
6
CONTINUOUS
10
3.5963600393700785
20
-2.4723065354330709
11
3.585112283464567
21
-2.4628685433070867
0
LINE
8
BLACK
6
CONTINUOUS
10
3.585112283464567
20
-2.4628685433070867
11
3.5747298818897635
21
-2.4524861417322832
0
LINE
8
BLACK
6
CONTINUOUS
10
3.5747298818897635
20
-2.4524861417322832
11
3.5652918897637793
21
-2.4412383858267717
0
LINE
8
BLACK
6
CONTINUOUS
10
3.5652918897637793
20
-2.4412383858267717
11
3.556870157480315
21
-2.4292108661417324
0
LINE
8
BLACK
6
CONTINUOUS
10
3.556870157480315
20
-2.4292108661417324
11
3.5495287007874015
21
-2.4164950787401573
0
LINE
8
BLACK
6
CONTINUOUS
10
3.5495287007874015
20
-2.4164950787401573
11
3.5433234251968502
21
-2.4031878740157482
0
LINE
8
BLACK
6
CONTINUOUS
10
3.5433234251968502
20
-2.4031878740157482
11
3.5383015748031497
21
-2.389390433070866
0
LINE
8
BLACK
6
CONTINUOUS
10
3.5383015748031497
20
-2.389390433070866
11
3.5345013779527559
21
-2.3752078346456691
0
LINE
8
BLACK
6
CONTINUOUS
10
3.5345013779527559
20
-2.3752078346456691
11
3.5319516929133856
21
-2.3607479921259844
0
LINE
8
BLACK
6
CONTINUOUS
10
3.5319516929133856
20
-2.3607479921259844
11
3.5306720078740157
21
-2.3461209842519684
0
LINE
8
BLACK
6
CONTINUOUS
10
3.5306720078740157
20
-2.3461209842519684
11
3.5306720078740157
21
-2.3315170472440943
0
LINE
8
BLACK
6
CONTINUOUS
10
3.5306720078740157
20
-2.3315170472440943
11
3.5306720078740157
21
-2.3314380708661417
0
LINE
8
BLACK
6
CONTINUOUS
10
3.5306720078740157
20
-2.3314380708661417
11
3.5319516929133856
21
-2.3168110629921261
0
LINE
8
BLACK
6
CONTINUOUS
10
3.5319516929133856
20
-2.3168110629921261
11
3.5345013779527559
21
-2.302351220472441
0
LINE
8
BLACK
6
CONTINUOUS
10
3.5345013779527559
20
-2.302351220472441
11
3.5383015748031497
21
-2.2881686220472441
0
LINE
8
BLACK
6
CONTINUOUS
10
3.5383015748031497
20
-2.2881686220472441
11
3.5433234251968502
21
-2.2743711811023624
0
LINE
8
BLACK
6
CONTINUOUS
10
3.5433234251968502
20
-2.2743711811023624
11
3.5495287007874015
21
-2.2610639763779528
0
LINE
8
BLACK
6
CONTINUOUS
10
3.5495287007874015
20
-2.2610639763779528
11
3.556870157480315
21
-2.2483481889763781
0
LINE
8
BLACK
6
CONTINUOUS
10
3.556870157480315
20
-2.2483481889763781
11
3.5652918897637793
21
-2.2363206692913384
0
LINE
8
BLACK
6
CONTINUOUS
10
3.5652918897637793
20
-2.2363206692913384
11
3.5747298818897635
21
-2.2250729133858269
0
LINE
8
BLACK
6
CONTINUOUS
10
3.5747298818897635
20
-2.2250729133858269
11
3.585112283464567
21
-2.2146905118110234
0
LINE
8
BLACK
6
CONTINUOUS
10
3.585112283464567
20
-2.2146905118110234
11
3.5963600393700785
21
-2.2052525196850392
0
LINE
8
BLACK
6
CONTINUOUS
10
3.5963600393700785
20
-2.2052525196850392
11
3.6083875590551182
21
-2.1968307874015749
0
LINE
8
BLACK
6
CONTINUOUS
10
3.6083875590551182
20
-2.1968307874015749
11
3.6211033464566929
21
-2.1894893307086614
0
LINE
8
BLACK
6
CONTINUOUS
10
3.6211033464566929
20
-2.1894893307086614
11
3.6344105511811025
21
-2.1832840551181101
0
LINE
8
BLACK
6
CONTINUOUS
10
3.6344105511811025
20
-2.1832840551181101
11
3.6482079921259842
21
-2.1782622047244096
0
LINE
8
BLACK
6
CONTINUOUS
10
3.6482079921259842
20
-2.1782622047244096
11
3.6623905905511811
21
-2.1744620078740158
0
LINE
8
BLACK
6
CONTINUOUS
10
3.6623905905511811
20
-2.1744620078740158
11
3.6768504330708662
21
-2.1719123228346455
0
LINE
8
BLACK
6
CONTINUOUS
10
3.6768504330708662
20
-2.1719123228346455
11
3.6914774409448818
21
-2.1706326377952756
0
LINE
8
BLACK
6
CONTINUOUS
10
3.6914774409448818
20
-2.1706326377952756
11
3.7061603543307085
21
-2.1706326377952756
0
LINE
8
BLACK
6
CONTINUOUS
10
3.7061603543307085
20
-2.1706326377952756
11
3.7207873622047245
21
-2.1719123228346455
0
LINE
8
BLACK
6
CONTINUOUS
10
3.5324803149606296
20
-2.3460420078740158
11
3.5337462598425198
21
-2.3605117716535431
0
LINE
8
BLACK
6
CONTINUOUS
10
3.5337462598425198
20
-2.3605117716535431
11
3.5362685039370079
21
-2.3748161023622045
0
LINE
8
BLACK
6
CONTINUOUS
10
3.5362685039370079
20
-2.3748161023622045
11
3.5400278346456693
21
-2.3888461417322833
0
LINE
8
BLACK
6
CONTINUOUS
10
3.5400278346456693
20
-2.3888461417322833
11
3.5449956692913385
21
-2.4024951968503938
0
LINE
8
BLACK
6
CONTINUOUS
10
3.5449956692913385
20
-2.4024951968503938
11
3.5511342125984253
21
-2.4156592913385828
0
LINE
8
BLACK
6
CONTINUOUS
10
3.5511342125984253
20
-2.4156592913385828
11
3.5583966929133859
21
-2.4282383070866143
0
LINE
8
BLACK
6
CONTINUOUS
10
3.5583966929133859
20
-2.4282383070866143
11
3.5667279133858267
21
-2.4401364960629919
0
LINE
8
BLACK
6
CONTINUOUS
10
3.5667279133858267
20
-2.4401364960629919
11
3.576064409448819
21
-2.4512633070866143
0
LINE
8
BLACK
6
CONTINUOUS
10
3.576064409448819
20
-2.4512633070866143
11
3.5863351181102363
21
-2.4615340157480317
0
LINE
8
BLACK
6
CONTINUOUS
10
3.5863351181102363
20
-2.4615340157480317
11
3.5974619291338583
21
-2.4708705118110235
0
LINE
8
BLACK
6
CONTINUOUS
10
3.5974619291338583
20
-2.4708705118110235
11
3.6093601181102359
21
-2.4792017322834643
0
LINE
8
BLACK
6
CONTINUOUS
10
3.6093601181102359
20
-2.4792017322834643
11
3.6219391338582678
21
-2.4864642125984253
0
LINE
8
BLACK
6
CONTINUOUS
10
3.6219391338582678
20
-2.4864642125984253
11
3.6351032283464568
21
-2.4926027559055117
0
LINE
8
BLACK
6
CONTINUOUS
10
3.6351032283464568
20
-2.4926027559055117
11
3.6487522834645669
21
-2.4975705905511809
0
LINE
8
BLACK
6
CONTINUOUS
10
3.6487522834645669
20
-2.4975705905511809
11
3.6627823228346457
21
-2.5013299212598423
0
LINE
8
BLACK
6
CONTINUOUS
10
3.6627823228346457
20
-2.5013299212598423
11
3.6770866535433071
21
-2.5038521653543309
0
LINE
8
BLACK
6
CONTINUOUS
10
3.6770866535433071
20
-2.5038521653543309
11
3.6915564173228343
21
-2.5051181102362206
0
LINE
8
BLACK
6
CONTINUOUS
10
3.6915564173228343
20
-2.5051181102362206
11
3.7060813779527559
21
-2.5051181102362206
0
LINE
8
BLACK
6
CONTINUOUS
10
3.7060813779527559
20
-2.5051181102362206
11
3.7205511417322832
21
-2.5038521653543309
0
LINE
8
BLACK
6
CONTINUOUS
10
3.7205511417322832
20
-2.5038521653543309
11
3.7348554724409446
21
-2.5013299212598423
0
LINE
8
BLACK
6
CONTINUOUS
10
3.7348554724409446
20
-2.5013299212598423
11
3.7488855118110234
21
-2.4975705905511809
0
LINE
8
BLACK
6
CONTINUOUS
10
3.7488855118110234
20
-2.4975705905511809
11
3.7625345669291339
21
-2.4926027559055117
0
LINE
8
BLACK
6
CONTINUOUS
10
3.7625345669291339
20
-2.4926027559055117
11
3.7756986614173229
21
-2.4864642125984253
0
LINE
8
BLACK
6
CONTINUOUS
10
3.7756986614173229
20
-2.4864642125984253
11
3.7882776771653544
21
-2.4792017322834643
0
LINE
8
BLACK
6
CONTINUOUS
10
3.7882776771653544
20
-2.4792017322834643
11
3.8001758661417324
21
-2.4708705118110235
0
LINE
8
BLACK
6
CONTINUOUS
10
3.8001758661417324
20
-2.4708705118110235
11
3.8113026771653544
21
-2.4615340157480317
0
LINE
8
BLACK
6
CONTINUOUS
10
3.8113026771653544
20
-2.4615340157480317
11
3.8215733858267718
21
-2.4512633070866143
0
LINE
8
BLACK
6
CONTINUOUS
10
3.8215733858267718
20
-2.4512633070866143
11
3.8309098818897636
21
-2.4401364960629919
0
LINE
8
BLACK
6
CONTINUOUS
10
3.8309098818897636
20
-2.4401364960629919
11
3.8392411023622048
21
-2.4282383070866143
0
LINE
8
BLACK
6
CONTINUOUS
10
3.8392411023622048
20
-2.4282383070866143
11
3.8465035826771654
21
-2.4156592913385828
0
LINE
8
BLACK
6
CONTINUOUS
10
3.8465035826771654
20
-2.4156592913385828
11
3.8526421259842518
21
-2.4024951968503938
0
LINE
8
BLACK
6
CONTINUOUS
10
3.8526421259842518
20
-2.4024951968503938
11
3.857609960629921
21
-2.3888461417322833
0
LINE
8
BLACK
6
CONTINUOUS
10
3.857609960629921
20
-2.3888461417322833
11
3.8613692913385824
21
-2.3748161023622045
0
LINE
8
BLACK
6
CONTINUOUS
10
3.8613692913385824
20
-2.3748161023622045
11
3.863891535433071
21
-2.3605117716535431
0
LINE
8
BLACK
6
CONTINUOUS
10
3.863891535433071
20
-2.3605117716535431
11
3.8651574803149606
21
-2.3460420078740158
0
LINE
8
BLACK
6
CONTINUOUS
10
3.8651574803149606
20
-2.3460420078740158
11
3.8651574803149606
21
-2.3315170472440943
0
LINE
8
BLACK
6
CONTINUOUS
10
3.8651574803149606
20
-2.3315170472440943
11
3.863891535433071
21
-2.317047283464567
0
LINE
8
BLACK
6
CONTINUOUS
10
3.863891535433071
20
-2.317047283464567
11
3.8613692913385824
21
-2.3027429527559056
0
LINE
8
BLACK
6
CONTINUOUS
10
3.8613692913385824
20
-2.3027429527559056
11
3.857609960629921
21
-2.2887129133858268
0
LINE
8
BLACK
6
CONTINUOUS
10
3.857609960629921
20
-2.2887129133858268
11
3.8526421259842518
21
-2.2750638582677163
0
LINE
8
BLACK
6
CONTINUOUS
10
3.8526421259842518
20
-2.2750638582677163
11
3.8465035826771654
21
-2.2618997637795277
0
LINE
8
BLACK
6
CONTINUOUS
10
3.8465035826771654
20
-2.2618997637795277
11
3.8392411023622048
21
-2.2493207480314958
0
LINE
8
BLACK
6
CONTINUOUS
10
3.8392411023622048
20
-2.2493207480314958
11
3.8309098818897636
21
-2.2374225590551182
0
LINE
8
BLACK
6
CONTINUOUS
10
3.8309098818897636
20
-2.2374225590551182
11
3.8215733858267718
21
-2.2262957480314962
0
LINE
8
BLACK
6
CONTINUOUS
10
3.8215733858267718
20
-2.2262957480314962
11
3.8113026771653544
21
-2.2160250393700789
0
LINE
8
BLACK
6
CONTINUOUS
10
3.8113026771653544
20
-2.2160250393700789
11
3.8001758661417324
21
-2.2066885433070866
0
LINE
8
BLACK
6
CONTINUOUS
10
3.8001758661417324
20
-2.2066885433070866
11
3.7882776771653544
21
-2.1983573228346458
0
LINE
8
BLACK
6
CONTINUOUS
10
3.7882776771653544
20
-2.1983573228346458
11
3.7756986614173229
21
-2.1910948425196848
0
LINE
8
BLACK
6
CONTINUOUS
10
3.7756986614173229
20
-2.1910948425196848
11
3.7625345669291339
21
-2.1849562992125984
0
LINE
8
BLACK
6
CONTINUOUS
10
3.7625345669291339
20
-2.1849562992125984
11
3.7488855118110234
21
-2.1799884645669292
0
LINE
8
BLACK
6
CONTINUOUS
10
3.7488855118110234
20
-2.1799884645669292
11
3.7348554724409446
21
-2.1762291338582678
0
LINE
8
BLACK
6
CONTINUOUS
10
3.7348554724409446
20
-2.1762291338582678
11
3.7205511417322832
21
-2.1737068897637797
0
LINE
8
BLACK
6
CONTINUOUS
10
3.7205511417322832
20
-2.1737068897637797
11
3.7060813779527559
21
-2.1724409448818895
0
LINE
8
BLACK
6
CONTINUOUS
10
3.7060813779527559
20
-2.1724409448818895
11
3.6915564173228343
21
-2.1724409448818895
0
LINE
8
BLACK
6
CONTINUOUS
10
3.6915564173228343
20
-2.1724409448818895
11
3.6770866535433071
21
-2.1737068897637797
0
LINE
8
BLACK
6
CONTINUOUS
10
3.6770866535433071
20
-2.1737068897637797
11
3.6627823228346457
21
-2.1762291338582678
0
LINE
8
BLACK
6
CONTINUOUS
10
3.6627823228346457
20
-2.1762291338582678
11
3.6487522834645669
21
-2.1799884645669292
0
LINE
8
BLACK
6
CONTINUOUS
10
3.6487522834645669
20
-2.1799884645669292
11
3.6351032283464568
21
-2.1849562992125984
0
LINE
8
BLACK
6
CONTINUOUS
10
3.6351032283464568
20
-2.1849562992125984
11
3.6219391338582678
21
-2.1910948425196848
0
LINE
8
BLACK
6
CONTINUOUS
10
3.6219391338582678
20
-2.1910948425196848
11
3.6093601181102359
21
-2.1983573228346458
0
LINE
8
BLACK
6
CONTINUOUS
10
3.6093601181102359
20
-2.1983573228346458
11
3.5974619291338583
21
-2.2066885433070866
0
LINE
8
BLACK
6
CONTINUOUS
10
3.5974619291338583
20
-2.2066885433070866
11
3.5863351181102363
21
-2.2160250393700789
0
LINE
8
BLACK
6
CONTINUOUS
10
3.5863351181102363
20
-2.2160250393700789
11
3.576064409448819
21
-2.2262957480314962
0
LINE
8
BLACK
6
CONTINUOUS
10
3.576064409448819
20
-2.2262957480314962
11
3.5667279133858267
21
-2.2374225590551182
0
LINE
8
BLACK
6
CONTINUOUS
10
3.5667279133858267
20
-2.2374225590551182
11
3.5583966929133859
21
-2.2493207480314958
0
LINE
8
BLACK
6
CONTINUOUS
10
3.5583966929133859
20
-2.2493207480314958
11
3.5511342125984253
21
-2.2618997637795277
0
LINE
8
BLACK
6
CONTINUOUS
10
3.5511342125984253
20
-2.2618997637795277
11
3.5449956692913385
21
-2.2750638582677163
0
LINE
8
BLACK
6
CONTINUOUS
10
3.5449956692913385
20
-2.2750638582677163
11
3.5400278346456693
21
-2.2887129133858268
0
LINE
8
BLACK
6
CONTINUOUS
10
3.5400278346456693
20
-2.2887129133858268
11
3.5362685039370079
21
-2.3027429527559056
0
LINE
8
BLACK
6
CONTINUOUS
10
3.5362685039370079
20
-2.3027429527559056
11
3.5337462598425198
21
-2.317047283464567
0
LINE
8
BLACK
6
CONTINUOUS
10
3.5337462598425198
20
-2.317047283464567
11
3.5324803149606296
21
-2.3315170472440943
0
LINE
8
BLACK
6
CONTINUOUS
10
3.5324803149606296
20
-2.3315170472440943
11
3.5324803149606296
21
-2.3460420078740158
0
LINE
8
BLACK
6
CONTINUOUS
10
4.0299042125984252
20
-2.1882638976377953
11
4.030436889763779
21
-2.1887965748031495
0
LINE
8
BLACK
6
CONTINUOUS
10
4.030436889763779
20
-2.1887965748031495
11
4.0305118110236222
21
-2.1891732283464567
0
LINE
8
BLACK
6
CONTINUOUS
10
4.0305118110236222
20
-2.1891732283464567
11
4.0305118110236222
21
-2.464763779527559
0
LINE
8
BLACK
6
CONTINUOUS
10
4.0305118110236222
20
-2.464763779527559
11
4.030436889763779
21
-2.4651404330708662
0
LINE
8
BLACK
6
CONTINUOUS
10
4.030436889763779
20
-2.4651404330708662
11
4.0299042125984252
21
-2.4656731102362204
0
LINE
8
BLACK
6
CONTINUOUS
10
4.0299042125984252
20
-2.4656731102362204
11
4.0295275590551176
21
-2.4657480314960631
0
LINE
8
BLACK
6
CONTINUOUS
10
4.0295275590551176
20
-2.4657480314960631
11
3.8917322834645667
21
-2.4657480314960631
0
LINE
8
BLACK
6
CONTINUOUS
10
3.8917322834645667
20
-2.4657480314960631
11
3.8913556299212599
21
-2.4656731102362204
0
LINE
8
BLACK
6
CONTINUOUS
10
3.8913556299212599
20
-2.4656731102362204
11
3.8908229527559053
21
-2.4651404330708662
0
LINE
8
BLACK
6
CONTINUOUS
10
3.8908229527559053
20
-2.4651404330708662
11
3.890748031496063
21
-2.464763779527559
0
LINE
8
BLACK
6
CONTINUOUS
10
3.890748031496063
20
-2.464763779527559
11
3.890748031496063
21
-2.1891732283464567
0
LINE
8
BLACK
6
CONTINUOUS
10
3.890748031496063
20
-2.1891732283464567
11
3.8908229527559053
21
-2.1887965748031495
0
LINE
8
BLACK
6
CONTINUOUS
10
3.8908229527559053
20
-2.1887965748031495
11
3.8913556299212599
21
-2.1882638976377953
0
LINE
8
BLACK
6
CONTINUOUS
10
3.8913556299212599
20
-2.1882638976377953
11
3.8917322834645667
21
-2.1881889763779525
0
LINE
8
BLACK
6
CONTINUOUS
10
3.8917322834645667
20
-2.1881889763779525
11
4.0295275590551176
21
-2.1881889763779525
0
LINE
8
BLACK
6
CONTINUOUS
10
4.0295275590551176
20
-2.1881889763779525
11
4.0299042125984252
21
-2.1882638976377953
0
LINE
8
BLACK
6
CONTINUOUS
10
3.8927165354330708
20
-2.1901574803149604
11
3.8927165354330708
21
-2.4637795275590553
0
LINE
8
BLACK
6
CONTINUOUS
10
3.8927165354330708
20
-2.4637795275590553
11
4.0285433070866139
21
-2.4637795275590553
0
LINE
8
BLACK
6
CONTINUOUS
10
4.0285433070866139
20
-2.4637795275590553
11
4.0285433070866139
21
-2.1901574803149604
0
LINE
8
BLACK
6
CONTINUOUS
10
4.0285433070866139
20
-2.1901574803149604
11
3.8927165354330708
21
-2.1901574803149604
0
LINE
8
BLACK
6
CONTINUOUS
10
4.5594317716535429
20
-2.048500118110236
11
4.5599644488188975
21
-2.0490327952755907
0
LINE
8
BLACK
6
CONTINUOUS
10
4.5599644488188975
20
-2.0490327952755907
11
4.5600393700787398
21
-2.0494094488188974
0
LINE
8
BLACK
6
CONTINUOUS
10
4.5600393700787398
20
-2.0494094488188974
11
4.5600393700787398
21
-2.1478346456692914
0
LINE
8
BLACK
6
CONTINUOUS
10
4.5600393700787398
20
-2.1478346456692914
11
4.5599644488188975
21
-2.1482112992125986
0
LINE
8
BLACK
6
CONTINUOUS
10
4.5599644488188975
20
-2.1482112992125986
11
4.5594317716535429
21
-2.1487439763779528
0
LINE
8
BLACK
6
CONTINUOUS
10
4.5594317716535429
20
-2.1487439763779528
11
4.5590551181102361
21
-2.1488188976377951
0
LINE
8
BLACK
6
CONTINUOUS
10
4.5590551181102361
20
-2.1488188976377951
11
4.377952755905512
21
-2.1488188976377951
0
LINE
8
BLACK
6
CONTINUOUS
10
4.377952755905512
20
-2.1488188976377951
11
4.3775761023622044
21
-2.1487439763779528
0
LINE
8
BLACK
6
CONTINUOUS
10
4.3775761023622044
20
-2.1487439763779528
11
4.3770434251968506
21
-2.1482112992125986
0
LINE
8
BLACK
6
CONTINUOUS
10
4.3770434251968506
20
-2.1482112992125986
11
4.3769685039370074
21
-2.1478346456692914
0
LINE
8
BLACK
6
CONTINUOUS
10
4.3769685039370074
20
-2.1478346456692914
11
4.3769685039370074
21
-2.0494094488188974
0
LINE
8
BLACK
6
CONTINUOUS
10
4.3769685039370074
20
-2.0494094488188974
11
4.3770434251968506
21
-2.0490327952755907
0
LINE
8
BLACK
6
CONTINUOUS
10
4.3770434251968506
20
-2.0490327952755907
11
4.3775761023622044
21
-2.048500118110236
0
LINE
8
BLACK
6
CONTINUOUS
10
4.3775761023622044
20
-2.048500118110236
11
4.377952755905512
21
-2.0484251968503937
0
LINE
8
BLACK
6
CONTINUOUS
10
4.377952755905512
20
-2.0484251968503937
11
4.5590551181102361
21
-2.0484251968503937
0
LINE
8
BLACK
6
CONTINUOUS
10
4.5590551181102361
20
-2.0484251968503937
11
4.5594317716535429
21
-2.048500118110236
0
LINE
8
BLACK
6
CONTINUOUS
10
4.3789370078740157
20
-2.0503937007874016
11
4.3789370078740157
21
-2.1468503937007872
0
LINE
8
BLACK
6
CONTINUOUS
10
4.3789370078740157
20
-2.1468503937007872
11
4.5580708661417324
21
-2.1468503937007872
0
LINE
8
BLACK
6
CONTINUOUS
10
4.5580708661417324
20
-2.1468503937007872
11
4.5580708661417324
21
-2.0503937007874016
0
LINE
8
BLACK
6
CONTINUOUS
10
4.5580708661417324
20
-2.0503937007874016
11
4.3789370078740157
21
-2.0503937007874016
0
LINE
8
BLACK
6
CONTINUOUS
10
4.1007703149606298
20
-1.5327520866141733
11
4.1013029921259845
21
-1.5332847637795275
0
LINE
8
BLACK
6
CONTINUOUS
10
4.1013029921259845
20
-1.5332847637795275
11
4.1013779133858268
21
-1.5336614173228347
0
LINE
8
BLACK
6
CONTINUOUS
10
4.1013779133858268
20
-1.5336614173228347
11
4.1013779133858268
21
-2.0966535433070868
0
LINE
8
BLACK
6
CONTINUOUS
10
4.1013779133858268
20
-2.0966535433070868
11
4.1013029921259845
21
-2.0970301968503935
0
LINE
8
BLACK
6
CONTINUOUS
10
4.1013029921259845
20
-2.0970301968503935
11
4.1007703149606298
21
-2.0975628740157481
0
LINE
8
BLACK
6
CONTINUOUS
10
4.1007703149606298
20
-2.0975628740157481
11
4.1003936614173231
21
-2.0976377952755905
0
LINE
8
BLACK
6
CONTINUOUS
10
4.1003936614173231
20
-2.0976377952755905
11
3.450787440944882
21
-2.0976377952755905
0
LINE
8
BLACK
6
CONTINUOUS
10
3.450787440944882
20
-2.0976377952755905
11
3.4504107874015748
21
-2.0975628740157481
0
LINE
8
BLACK
6
CONTINUOUS
10
3.4504107874015748
20
-2.0975628740157481
11
3.4498781102362206
21
-2.0970301968503935
0
LINE
8
BLACK
6
CONTINUOUS
10
3.4498781102362206
20
-2.0970301968503935
11
3.4498031889763778
21
-2.0966535433070868
0
LINE
8
BLACK
6
CONTINUOUS
10
3.4498031889763778
20
-2.0966535433070868
11
3.4498031889763778
21
-1.5336614173228347
0
LINE
8
BLACK
6
CONTINUOUS
10
3.4498031889763778
20
-1.5336614173228347
11
3.4498781102362206
21
-1.5332847637795275
0
LINE
8
BLACK
6
CONTINUOUS
10
3.4498781102362206
20
-1.5332847637795275
11
3.4504107874015748
21
-1.5327520866141733
0
LINE
8
BLACK
6
CONTINUOUS
10
3.4504107874015748
20
-1.5327520866141733
11
3.450787440944882
21
-1.5326771653543307
0
LINE
8
BLACK
6
CONTINUOUS
10
3.450787440944882
20
-1.5326771653543307
11
4.1003936614173231
21
-1.5326771653543307
0
LINE
8
BLACK
6
CONTINUOUS
10
4.1003936614173231
20
-1.5326771653543307
11
4.1007703149606298
21
-1.5327520866141733
0
LINE
8
BLACK
6
CONTINUOUS
10
3.4517716929133857
20
-1.5346456692913386
11
3.4517716929133857
21
-2.0956692913385826
0
LINE
8
BLACK
6
CONTINUOUS
10
3.4517716929133857
20
-2.0956692913385826
11
4.0994094094488185
21
-2.0956692913385826
0
LINE
8
BLACK
6
CONTINUOUS
10
4.0994094094488185
20
-2.0956692913385826
11
4.0994094094488185
21
-1.5346456692913386
0
LINE
8
BLACK
6
CONTINUOUS
10
4.0994094094488185
20
-1.5346456692913386
11
3.4517716929133857
21
-1.5346456692913386
0
LINE
8
BLACK
6
CONTINUOUS
10
4.4450616929133862
20
-1.8808820078740156
11
4.4455943700787399
21
-1.88141468503937
0
LINE
8
BLACK
6
CONTINUOUS
10
4.4455943700787399
20
-1.88141468503937
11
4.4456692913385822
21
-1.8817913385826772
0
LINE
8
BLACK
6
CONTINUOUS
10
4.4456692913385822
20
-1.8817913385826772
11
4.4456692913385822
21
-1.9201771259842519
0
LINE
8
BLACK
6
CONTINUOUS
10
4.4456692913385822
20
-1.9201771259842519
11
4.45255905511811
21
-1.9201771259842519
0
LINE
8
BLACK
6
CONTINUOUS
10
4.45255905511811
20
-1.9201771259842519
11
4.4529357086614176
21
-1.9202520472440945
0
LINE
8
BLACK
6
CONTINUOUS
10
4.4529357086614176
20
-1.9202520472440945
11
4.4534683858267714
21
-1.9207847244094487
0
LINE
8
BLACK
6
CONTINUOUS
10
4.4534683858267714
20
-1.9207847244094487
11
4.4535433070866137
21
-1.9211613779527559
0
LINE
8
BLACK
6
CONTINUOUS
10
4.4535433070866137
20
-1.9211613779527559
11
4.4535433070866137
21
-2.0038386220472439
0
LINE
8
BLACK
6
CONTINUOUS
10
4.4535433070866137
20
-2.0038386220472439
11
4.4534683858267714
21
-2.0042152362204724
0
LINE
8
BLACK
6
CONTINUOUS
10
4.4534683858267714
20
-2.0042152362204724
11
4.4534683858267714
21
-2.0042152755905511
0
LINE
8
BLACK
6
CONTINUOUS
10
4.4534683858267714
20
-2.0042152755905511
11
4.4529357086614176
21
-2.0047479527559053
0
LINE
8
BLACK
6
CONTINUOUS
10
4.4529357086614176
20
-2.0047479527559053
11
4.45255905511811
21
-2.0048228740157481
0
LINE
8
BLACK
6
CONTINUOUS
10
4.45255905511811
20
-2.0048228740157481
11
4.4456692913385822
21
-2.0048228346456693
0
LINE
8
BLACK
6
CONTINUOUS
10
4.4456692913385822
20
-2.0048228346456693
11
4.4456692913385822
21
-2.0432086614173226
0
LINE
8
BLACK
6
CONTINUOUS
10
4.4456692913385822
20
-2.0432086614173226
11
4.4455943700787399
21
-2.0435853149606298
0
LINE
8
BLACK
6
CONTINUOUS
10
4.4455943700787399
20
-2.0435853149606298
11
4.4450616929133862
21
-2.044117992125984
0
LINE
8
BLACK
6
CONTINUOUS
10
4.4450616929133862
20
-2.044117992125984
11
4.4446850393700785
21
-2.0441929133858268
0
LINE
8
BLACK
6
CONTINUOUS
10
4.4446850393700785
20
-2.0441929133858268
11
4.4009842913385828
21
-2.0441929133858268
0
LINE
8
BLACK
6
CONTINUOUS
10
4.4009842913385828
20
-2.0441929133858268
11
4.4006076377952752
21
-2.044117992125984
0
LINE
8
BLACK
6
CONTINUOUS
10
4.4006076377952752
20
-2.044117992125984
11
4.4000749606299214
21
-2.0435853149606298
0
LINE
8
BLACK
6
CONTINUOUS
10
4.4000749606299214
20
-2.0435853149606298
11
4.4000000393700782
21
-2.0432086614173226
0
LINE
8
BLACK
6
CONTINUOUS
10
4.4000000393700782
20
-2.0432086614173226
11
4.4000000393700782
21
-2.0048228346456693
0
LINE
8
BLACK
6
CONTINUOUS
10
4.4000000393700782
20
-2.0048228346456693
11
4.3712598031496066
21
-2.0048228346456693
0
LINE
8
BLACK
6
CONTINUOUS
10
4.3712598031496066
20
-2.0048228346456693
11
4.3712598031496066
21
-2.0432086614173226
0
LINE
8
BLACK
6
CONTINUOUS
10
4.3712598031496066
20
-2.0432086614173226
11
4.3711848818897634
21
-2.0435853149606298
0
LINE
8
BLACK
6
CONTINUOUS
10
4.3711848818897634
20
-2.0435853149606298
11
4.3706522047244096
21
-2.044117992125984
0
LINE
8
BLACK
6
CONTINUOUS
10
4.3706522047244096
20
-2.044117992125984
11
4.370275551181102
21
-2.0441929133858268
0
LINE
8
BLACK
6
CONTINUOUS
10
4.370275551181102
20
-2.0441929133858268
11
4.3265748031496063
21
-2.0441929133858268
0
LINE
8
BLACK
6
CONTINUOUS
10
4.3265748031496063
20
-2.0441929133858268
11
4.3261981496062987
21
-2.044117992125984
0
LINE
8
BLACK
6
CONTINUOUS
10
4.3261981496062987
20
-2.044117992125984
11
4.3256654724409449
21
-2.0435853149606298
0
LINE
8
BLACK
6
CONTINUOUS
10
4.3256654724409449
20
-2.0435853149606298
11
4.3255905511811026
21
-2.0432086614173226
0
LINE
8
BLACK
6
CONTINUOUS
10
4.3255905511811026
20
-2.0432086614173226
11
4.3255905511811026
21
-2.0048228346456693
0
LINE
8
BLACK
6
CONTINUOUS
10
4.3255905511811026
20
-2.0048228346456693
11
4.3187007874015748
21
-2.0048228740157481
0
LINE
8
BLACK
6
CONTINUOUS
10
4.3187007874015748
20
-2.0048228740157481
11
4.3183241338582672
21
-2.0047479527559053
0
LINE
8
BLACK
6
CONTINUOUS
10
4.3183241338582672
20
-2.0047479527559053
11
4.3177914566929134
21
-2.0042152755905511
0
LINE
8
BLACK
6
CONTINUOUS
10
4.3177914566929134
20
-2.0042152755905511
11
4.3177914566929134
21
-2.0042152362204724
0
LINE
8
BLACK
6
CONTINUOUS
10
4.3177914566929134
20
-2.0042152362204724
11
4.3177165354330711
21
-2.0038386220472439
0
LINE
8
BLACK
6
CONTINUOUS
10
4.3177165354330711
20
-2.0038386220472439
11
4.3177165354330711
21
-1.9211613779527559
0
LINE
8
BLACK
6
CONTINUOUS
10
4.3177165354330711
20
-1.9211613779527559
11
4.3177914566929134
21
-1.9207847244094487
0
LINE
8
BLACK
6
CONTINUOUS
10
4.3177914566929134
20
-1.9207847244094487
11
4.3183241338582672
21
-1.9202520472440945
0
LINE
8
BLACK
6
CONTINUOUS
10
4.3183241338582672
20
-1.9202520472440945
11
4.3187007874015748
21
-1.9201771259842519
0
LINE
8
BLACK
6
CONTINUOUS
10
4.3187007874015748
20
-1.9201771259842519
11
4.3255905511811026
21
-1.9201771259842519
0
LINE
8
BLACK
6
CONTINUOUS
10
4.3255905511811026
20
-1.9201771259842519
11
4.3255905511811026
21
-1.8817913385826772
0
LINE
8
BLACK
6
CONTINUOUS
10
4.3255905511811026
20
-1.8817913385826772
11
4.3256654724409449
21
-1.88141468503937
0
LINE
8
BLACK
6
CONTINUOUS
10
4.3256654724409449
20
-1.88141468503937
11
4.3261981496062987
21
-1.8808820078740156
0
LINE
8
BLACK
6
CONTINUOUS
10
4.3261981496062987
20
-1.8808820078740156
11
4.3265748031496063
21
-1.8808070866141733
0
LINE
8
BLACK
6
CONTINUOUS
10
4.3265748031496063
20
-1.8808070866141733
11
4.4446850393700785
21
-1.8808070866141733
0
LINE
8
BLACK
6
CONTINUOUS
10
4.4446850393700785
20
-1.8808070866141733
11
4.4450616929133862
21
-1.8808820078740156
0
LINE
8
BLACK
6
CONTINUOUS
10
4.32755905511811
20
-1.8827755905511812
11
4.32755905511811
21
-1.9211614173228346
0
LINE
8
BLACK
6
CONTINUOUS
10
4.32755905511811
20
-1.9211614173228346
11
4.3274841338582677
21
-1.9215380314960631
0
LINE
8
BLACK
6
CONTINUOUS
10
4.3274841338582677
20
-1.9215380314960631
11
4.3274841338582677
21
-1.9215380708661416
0
LINE
8
BLACK
6
CONTINUOUS
10
4.3274841338582677
20
-1.9215380708661416
11
4.326951456692913
21
-1.922070748031496
0
LINE
8
BLACK
6
CONTINUOUS
10
4.326951456692913
20
-1.922070748031496
11
4.3265748031496063
21
-1.9221456692913386
0
LINE
8
BLACK
6
CONTINUOUS
10
4.3265748031496063
20
-1.9221456692913386
11
4.3196850393700785
21
-1.9221456299212598
0
LINE
8
BLACK
6
CONTINUOUS
10
4.3196850393700785
20
-1.9221456299212598
11
4.3196850393700785
21
-2.0028543307086615
0
LINE
8
BLACK
6
CONTINUOUS
10
4.3196850393700785
20
-2.0028543307086615
11
4.3265748031496063
21
-2.0028543307086615
0
LINE
8
BLACK
6
CONTINUOUS
10
4.3265748031496063
20
-2.0028543307086615
11
4.326951456692913
21
-2.0029292519685038
0
LINE
8
BLACK
6
CONTINUOUS
10
4.326951456692913
20
-2.0029292519685038
11
4.3274841338582677
21
-2.003461929133858
0
LINE
8
BLACK
6
CONTINUOUS
10
4.3274841338582677
20
-2.003461929133858
11
4.32755905511811
21
-2.0038385826771652
0
LINE
8
BLACK
6
CONTINUOUS
10
4.32755905511811
20
-2.0038385826771652
11
4.32755905511811
21
-2.0422244094488189
0
LINE
8
BLACK
6
CONTINUOUS
10
4.32755905511811
20
-2.0422244094488189
11
4.3692912992125983
21
-2.0422244094488189
0
LINE
8
BLACK
6
CONTINUOUS
10
4.3692912992125983
20
-2.0422244094488189
11
4.3692912992125983
21
-2.0038385826771652
0
LINE
8
BLACK
6
CONTINUOUS
10
4.3692912992125983
20
-2.0038385826771652
11
4.3693662204724406
21
-2.003461929133858
0
LINE
8
BLACK
6
CONTINUOUS
10
4.3693662204724406
20
-2.003461929133858
11
4.3698988976377953
21
-2.0029292519685038
0
LINE
8
BLACK
6
CONTINUOUS
10
4.3698988976377953
20
-2.0029292519685038
11
4.370275551181102
21
-2.0028543307086615
0
LINE
8
BLACK
6
CONTINUOUS
10
4.370275551181102
20
-2.0028543307086615
11
4.4009842913385828
21
-2.0028543307086615
0
LINE
8
BLACK
6
CONTINUOUS
10
4.4009842913385828
20
-2.0028543307086615
11
4.4013609448818896
21
-2.0029292519685038
0
LINE
8
BLACK
6
CONTINUOUS
10
4.4013609448818896
20
-2.0029292519685038
11
4.4018936220472442
21
-2.003461929133858
0
LINE
8
BLACK
6
CONTINUOUS
10
4.4018936220472442
20
-2.003461929133858
11
4.4019685433070865
21
-2.0038385826771652
0
LINE
8
BLACK
6
CONTINUOUS
10
4.4019685433070865
20
-2.0038385826771652
11
4.4019685433070865
21
-2.0422244094488189
0
LINE
8
BLACK
6
CONTINUOUS
10
4.4019685433070865
20
-2.0422244094488189
11
4.4437007874015748
21
-2.0422244094488189
0
LINE
8
BLACK
6
CONTINUOUS
10
4.4437007874015748
20
-2.0422244094488189
11
4.4437007874015748
21
-2.0038385826771652
0
LINE
8
BLACK
6
CONTINUOUS
10
4.4437007874015748
20
-2.0038385826771652
11
4.4437757086614171
21
-2.003461929133858
0
LINE
8
BLACK
6
CONTINUOUS
10
4.4437757086614171
20
-2.003461929133858
11
4.4443083858267718
21
-2.0029292519685038
0
LINE
8
BLACK
6
CONTINUOUS
10
4.4443083858267718
20
-2.0029292519685038
11
4.4446850393700785
21
-2.0028543307086615
0
LINE
8
BLACK
6
CONTINUOUS
10
4.4446850393700785
20
-2.0028543307086615
11
4.4515748031496063
21
-2.0028543307086615
0
LINE
8
BLACK
6
CONTINUOUS
10
4.4515748031496063
20
-2.0028543307086615
11
4.4515748031496063
21
-1.9221456299212598
0
LINE
8
BLACK
6
CONTINUOUS
10
4.4515748031496063
20
-1.9221456299212598
11
4.4446850393700785
21
-1.9221456692913386
0
LINE
8
BLACK
6
CONTINUOUS
10
4.4446850393700785
20
-1.9221456692913386
11
4.4443083858267718
21
-1.922070748031496
0
LINE
8
BLACK
6
CONTINUOUS
10
4.4443083858267718
20
-1.922070748031496
11
4.4437757086614171
21
-1.9215380708661416
0
LINE
8
BLACK
6
CONTINUOUS
10
4.4437757086614171
20
-1.9215380708661416
11
4.4437757086614171
21
-1.9215380314960631
0
LINE
8
BLACK
6
CONTINUOUS
10
4.4437757086614171
20
-1.9215380314960631
11
4.4437007874015748
21
-1.9211614173228346
0
LINE
8
BLACK
6
CONTINUOUS
10
4.4437007874015748
20
-1.9211614173228346
11
4.4437007874015748
21
-1.8827755905511812
0
LINE
8
BLACK
6
CONTINUOUS
10
4.4437007874015748
20
-1.8827755905511812
11
4.32755905511811
21
-1.8827755905511812
0
LINE
8
BLACK
6
CONTINUOUS
10
4.3409278346456688
20
-1.5875749606299212
11
4.3414605118110234
21
-1.5881076377952756
0
LINE
8
BLACK
6
CONTINUOUS
10
4.3414605118110234
20
-1.5881076377952756
11
4.3415354330708658
21
-1.5884842913385826
0
LINE
8
BLACK
6
CONTINUOUS
10
4.3415354330708658
20
-1.5884842913385826
11
4.3415354330708658
21
-1.8640748425196849
0
LINE
8
BLACK
6
CONTINUOUS
10
4.3415354330708658
20
-1.8640748425196849
11
4.3414605118110234
21
-1.8644514960629921
0
LINE
8
BLACK
6
CONTINUOUS
10
4.3414605118110234
20
-1.8644514960629921
11
4.3409278346456688
21
-1.8649841732283463
0
LINE
8
BLACK
6
CONTINUOUS
10
4.3409278346456688
20
-1.8649841732283463
11
4.340551181102362
21
-1.8650590944881889
0
LINE
8
BLACK
6
CONTINUOUS
10
4.340551181102362
20
-1.8650590944881889
11
4.2027559055118111
21
-1.8650590944881889
0
LINE
8
BLACK
6
CONTINUOUS
10
4.2027559055118111
20
-1.8650590944881889
11
4.2023792519685035
21
-1.8649841732283463
0
LINE
8
BLACK
6
CONTINUOUS
10
4.2023792519685035
20
-1.8649841732283463
11
4.2018465748031497
21
-1.8644514960629921
0
LINE
8
BLACK
6
CONTINUOUS
10
4.2018465748031497
20
-1.8644514960629921
11
4.2017716535433074
21
-1.8640748425196849
0
LINE
8
BLACK
6
CONTINUOUS
10
4.2017716535433074
20
-1.8640748425196849
11
4.2017716535433074
21
-1.5884842913385826
0
LINE
8
BLACK
6
CONTINUOUS
10
4.2017716535433074
20
-1.5884842913385826
11
4.2018465748031497
21
-1.5881076377952756
0
LINE
8
BLACK
6
CONTINUOUS
10
4.2018465748031497
20
-1.5881076377952756
11
4.2023792519685035
21
-1.5875749606299212
0
LINE
8
BLACK
6
CONTINUOUS
10
4.2023792519685035
20
-1.5875749606299212
11
4.2027559055118111
21
-1.5875000393700787
0
LINE
8
BLACK
6
CONTINUOUS
10
4.2027559055118111
20
-1.5875000393700787
11
4.340551181102362
21
-1.5875000393700787
0
LINE
8
BLACK
6
CONTINUOUS
10
4.340551181102362
20
-1.5875000393700787
11
4.3409278346456688
21
-1.5875749606299212
0
LINE
8
BLACK
6
CONTINUOUS
10
4.2037401574803148
20
-1.5894685433070865
11
4.2037401574803148
21
-1.863090590551181
0
LINE
8
BLACK
6
CONTINUOUS
10
4.2037401574803148
20
-1.863090590551181
11
4.3395669291338583
21
-1.863090590551181
0
LINE
8
BLACK
6
CONTINUOUS
10
4.3395669291338583
20
-1.863090590551181
11
4.3395669291338583
21
-1.5894685433070865
0
LINE
8
BLACK
6
CONTINUOUS
10
4.3395669291338583
20
-1.5894685433070865
11
4.2037401574803148
21
-1.5894685433070865
0
LINE
8
BLACK
6
CONTINUOUS
10
4.4680931889763782
20
-1.6119844094488189
11
4.468625866141732
21
-1.6125170866141731
0
LINE
8
BLACK
6
CONTINUOUS
10
4.468625866141732
20
-1.6125170866141731
11
4.4687007874015743
21
-1.6128937401574803
0
LINE
8
BLACK
6
CONTINUOUS
10
4.4687007874015743
20
-1.6128937401574803
11
4.4687007874015743
21
-1.7924212992125983
0
LINE
8
BLACK
6
CONTINUOUS
10
4.4687007874015743
20
-1.7924212992125983
11
4.468625866141732
21
-1.7927979527559055
0
LINE
8
BLACK
6
CONTINUOUS
10
4.468625866141732
20
-1.7927979527559055
11
4.4680931889763782
21
-1.7933306299212599
0
LINE
8
BLACK
6
CONTINUOUS
10
4.4680931889763782
20
-1.7933306299212599
11
4.4677165354330706
21
-1.7934055511811022
0
LINE
8
BLACK
6
CONTINUOUS
10
4.4677165354330706
20
-1.7934055511811022
11
4.343307086614173
21
-1.7934055511811022
0
LINE
8
BLACK
6
CONTINUOUS
10
4.343307086614173
20
-1.7934055511811022
11
4.3429304330708662
21
-1.7933306299212599
0
LINE
8
BLACK
6
CONTINUOUS
10
4.3429304330708662
20
-1.7933306299212599
11
4.3423977559055116
21
-1.7927979527559055
0
LINE
8
BLACK
6
CONTINUOUS
10
4.3423977559055116
20
-1.7927979527559055
11
4.3423228346456693
21
-1.7924212992125983
0
LINE
8
BLACK
6
CONTINUOUS
10
4.3423228346456693
20
-1.7924212992125983
11
4.3423228346456693
21
-1.6128937401574803
0
LINE
8
BLACK
6
CONTINUOUS
10
4.3423228346456693
20
-1.6128937401574803
11
4.3423977559055116
21
-1.6125170866141731
0
LINE
8
BLACK
6
CONTINUOUS
10
4.3423977559055116
20
-1.6125170866141731
11
4.3429304330708662
21
-1.6119844094488189
0
LINE
8
BLACK
6
CONTINUOUS
10
4.3429304330708662
20
-1.6119844094488189
11
4.343307086614173
21
-1.6119094881889764
0
LINE
8
BLACK
6
CONTINUOUS
10
4.343307086614173
20
-1.6119094881889764
11
4.4677165354330706
21
-1.6119094881889764
0
LINE
8
BLACK
6
CONTINUOUS
10
4.4677165354330706
20
-1.6119094881889764
11
4.4680931889763782
21
-1.6119844094488189
0
LINE
8
BLACK
6
CONTINUOUS
10
4.3442913385826767
20
-1.6138779921259843
11
4.3442913385826767
21
-1.7914370472440944
0
LINE
8
BLACK
6
CONTINUOUS
10
4.3442913385826767
20
-1.7914370472440944
11
4.4667322834645669
21
-1.7914370472440944
0
LINE
8
BLACK
6
CONTINUOUS
10
4.4667322834645669
20
-1.7914370472440944
11
4.4667322834645669
21
-1.6138779921259843
0
LINE
8
BLACK
6
CONTINUOUS
10
4.4667322834645669
20
-1.6138779921259843
11
4.3442913385826767
21
-1.6138779921259843
0
LINE
8
BLACK
6
CONTINUOUS
10
4.4716364960629917
20
-1.0037166535433071
11
4.4721691732283464
21
-1.0042493307086613
0
LINE
8
BLACK
6
CONTINUOUS
10
4.4721691732283464
20
-1.0042493307086613
11
4.4722440944881887
21
-1.0046259842519685
0
LINE
8
BLACK
6
CONTINUOUS
10
4.4722440944881887
20
-1.0046259842519685
11
4.4722440944881887
21
-1.5439960629921259
0
LINE
8
BLACK
6
CONTINUOUS
10
4.4722440944881887
20
-1.5439960629921259
11
4.4721691732283464
21
-1.5443727165354331
0
LINE
8
BLACK
6
CONTINUOUS
10
4.4721691732283464
20
-1.5443727165354331
11
4.4716364960629917
21
-1.5449053937007873
0
LINE
8
BLACK
6
CONTINUOUS
10
4.4716364960629917
20
-1.5449053937007873
11
4.471259842519685
21
-1.5449803149606298
0
LINE
8
BLACK
6
CONTINUOUS
10
4.471259842519685
20
-1.5449803149606298
11
4.2314960629921261
21
-1.5449803149606298
0
LINE
8
BLACK
6
CONTINUOUS
10
4.2314960629921261
20
-1.5449803149606298
11
4.2311194094488185
21
-1.5449053937007873
0
LINE
8
BLACK
6
CONTINUOUS
10
4.2311194094488185
20
-1.5449053937007873
11
4.2305867322834647
21
-1.5443727165354331
0
LINE
8
BLACK
6
CONTINUOUS
10
4.2305867322834647
20
-1.5443727165354331
11
4.2305118110236224
21
-1.5439960629921259
0
LINE
8
BLACK
6
CONTINUOUS
10
4.2305118110236224
20
-1.5439960629921259
11
4.2305118110236224
21
-1.0046259842519685
0
LINE
8
BLACK
6
CONTINUOUS
10
4.2305118110236224
20
-1.0046259842519685
11
4.2305867322834647
21
-1.0042493307086613
0
LINE
8
BLACK
6
CONTINUOUS
10
4.2305867322834647
20
-1.0042493307086613
11
4.2311194094488185
21
-1.0037166535433071
0
LINE
8
BLACK
6
CONTINUOUS
10
4.2311194094488185
20
-1.0037166535433071
11
4.2314960629921261
21
-1.0036417322834645
0
LINE
8
BLACK
6
CONTINUOUS
10
4.2314960629921261
20
-1.0036417322834645
11
4.471259842519685
21
-1.0036417322834645
0
LINE
8
BLACK
6
CONTINUOUS
10
4.471259842519685
20
-1.0036417322834645
11
4.4716364960629917
21
-1.0037166535433071
0
LINE
8
BLACK
6
CONTINUOUS
10
4.2324803149606298
20
-1.0056102362204724
11
4.2324803149606298
21
-1.5430118110236219
0
LINE
8
BLACK
6
CONTINUOUS
10
4.2324803149606298
20
-1.5430118110236219
11
4.4702755905511813
21
-1.5430118110236219
0
LINE
8
BLACK
6
CONTINUOUS
10
4.4702755905511813
20
-1.5430118110236219
11
4.4702755905511813
21
-1.0056102362204724
0
LINE
8
BLACK
6
CONTINUOUS
10
4.4702755905511813
20
-1.0056102362204724
11
4.2324803149606298
21
-1.0056102362204724
0
LINE
8
BLACK
6
CONTINUOUS
10
3.5999829527559055
20
-1.3666103543307087
11
3.6005156299212597
21
-1.3671430314960629
0
LINE
8
BLACK
6
CONTINUOUS
10
3.6005156299212597
20
-1.3671430314960629
11
3.6005905511811025
21
-1.36751968503937
0
LINE
8
BLACK
6
CONTINUOUS
10
3.6005905511811025
20
-1.36751968503937
11
3.6005905511811025
21
-1.4045275590551181
0
LINE
8
BLACK
6
CONTINUOUS
10
3.6005905511811025
20
-1.4045275590551181
11
3.6005156299212597
21
-1.4049042125984252
0
LINE
8
BLACK
6
CONTINUOUS
10
3.6005156299212597
20
-1.4049042125984252
11
3.5999829527559055
21
-1.4054368897637795
0
LINE
8
BLACK
6
CONTINUOUS
10
3.5999829527559055
20
-1.4054368897637795
11
3.5996062992125983
21
-1.405511811023622
0
LINE
8
BLACK
6
CONTINUOUS
10
3.5996062992125983
20
-1.405511811023622
11
3.5263779527559054
21
-1.405511811023622
0
LINE
8
BLACK
6
CONTINUOUS
10
3.5263779527559054
20
-1.405511811023622
11
3.5260012992125982
21
-1.4054368897637795
0
LINE
8
BLACK
6
CONTINUOUS
10
3.5260012992125982
20
-1.4054368897637795
11
3.525468622047244
21
-1.4049042125984252
0
LINE
8
BLACK
6
CONTINUOUS
10
3.525468622047244
20
-1.4049042125984252
11
3.5253937007874017
21
-1.4045275590551181
0
LINE
8
BLACK
6
CONTINUOUS
10
3.5253937007874017
20
-1.4045275590551181
11
3.5253937007874017
21
-1.36751968503937
0
LINE
8
BLACK
6
CONTINUOUS
10
3.5253937007874017
20
-1.36751968503937
11
3.525468622047244
21
-1.3671430314960629
0
LINE
8
BLACK
6
CONTINUOUS
10
3.525468622047244
20
-1.3671430314960629
11
3.5260012992125982
21
-1.3666103543307087
0
LINE
8
BLACK
6
CONTINUOUS
10
3.5260012992125982
20
-1.3666103543307087
11
3.5263779527559054
21
-1.3665354330708661
0
LINE
8
BLACK
6
CONTINUOUS
10
3.5263779527559054
20
-1.3665354330708661
11
3.5996062992125983
21
-1.3665354330708661
0
LINE
8
BLACK
6
CONTINUOUS
10
3.5996062992125983
20
-1.3665354330708661
11
3.5999829527559055
21
-1.3666103543307087
0
LINE
8
BLACK
6
CONTINUOUS
10
3.5273622047244095
20
-1.368503937007874
11
3.5273622047244095
21
-1.4035433070866141
0
LINE
8
BLACK
6
CONTINUOUS
10
3.5273622047244095
20
-1.4035433070866141
11
3.5986220472440946
21
-1.4035433070866141
0
LINE
8
BLACK
6
CONTINUOUS
10
3.5986220472440946
20
-1.4035433070866141
11
3.5986220472440946
21
-1.368503937007874
0
LINE
8
BLACK
6
CONTINUOUS
10
3.5986220472440946
20
-1.368503937007874
11
3.5273622047244095
21
-1.368503937007874
0
LINE
8
BLACK
6
CONTINUOUS
10
4.1676995275590549
20
-1.2453505511811023
11
4.1682322047244096
21
-1.2458832283464567
0
LINE
8
BLACK
6
CONTINUOUS
10
4.1682322047244096
20
-1.2458832283464567
11
4.1683071259842519
21
-1.2462598818897637
0
LINE
8
BLACK
6
CONTINUOUS
10
4.1683071259842519
20
-1.2462598818897637
11
4.1683070866141732
21
-1.2531496456692912
0
LINE
8
BLACK
6
CONTINUOUS
10
4.1683070866141732
20
-1.2531496456692912
11
4.2066929133858268
21
-1.2531496456692912
0
LINE
8
BLACK
6
CONTINUOUS
10
4.2066929133858268
20
-1.2531496456692912
11
4.2070695669291336
21
-1.2532245669291338
0
LINE
8
BLACK
6
CONTINUOUS
10
4.2070695669291336
20
-1.2532245669291338
11
4.2076022440944882
21
-1.2537572440944882
0
LINE
8
BLACK
6
CONTINUOUS
10
4.2076022440944882
20
-1.2537572440944882
11
4.2076771653543306
21
-1.2541338976377951
0
LINE
8
BLACK
6
CONTINUOUS
10
4.2076771653543306
20
-1.2541338976377951
11
4.2076771653543306
21
-1.3722441338582676
0
LINE
8
BLACK
6
CONTINUOUS
10
4.2076771653543306
20
-1.3722441338582676
11
4.2076022440944882
21
-1.3726207874015748
0
LINE
8
BLACK
6
CONTINUOUS
10
4.2076022440944882
20
-1.3726207874015748
11
4.2070695669291336
21
-1.373153464566929
0
LINE
8
BLACK
6
CONTINUOUS
10
4.2070695669291336
20
-1.373153464566929
11
4.2066929133858268
21
-1.3732283858267715
0
LINE
8
BLACK
6
CONTINUOUS
10
4.2066929133858268
20
-1.3732283858267715
11
4.1683070866141732
21
-1.3732283858267715
0
LINE
8
BLACK
6
CONTINUOUS
10
4.1683070866141732
20
-1.3732283858267715
11
4.1683071259842519
21
-1.3801181496062991
0
LINE
8
BLACK
6
CONTINUOUS
10
4.1683071259842519
20
-1.3801181496062991
11
4.1682322047244096
21
-1.3804948031496063
0
LINE
8
BLACK
6
CONTINUOUS
10
4.1682322047244096
20
-1.3804948031496063
11
4.1676995275590549
21
-1.3810274803149607
0
LINE
8
BLACK
6
CONTINUOUS
10
4.1676995275590549
20
-1.3810274803149607
11
4.1673228740157482
21
-1.381102401574803
0
LINE
8
BLACK
6
CONTINUOUS
10
4.1673228740157482
20
-1.381102401574803
11
4.0846456299212601
21
-1.381102401574803
0
LINE
8
BLACK
6
CONTINUOUS
10
4.0846456299212601
20
-1.381102401574803
11
4.0842689763779525
21
-1.3810274803149607
0
LINE
8
BLACK
6
CONTINUOUS
10
4.0842689763779525
20
-1.3810274803149607
11
4.0837362992125987
21
-1.3804948031496063
0
LINE
8
BLACK
6
CONTINUOUS
10
4.0837362992125987
20
-1.3804948031496063
11
4.0836613779527555
21
-1.3801181496062991
0
LINE
8
BLACK
6
CONTINUOUS
10
4.0836613779527555
20
-1.3801181496062991
11
4.0836614173228343
21
-1.3732283858267715
0
LINE
8
BLACK
6
CONTINUOUS
10
4.0836614173228343
20
-1.3732283858267715
11
4.0452755905511806
21
-1.3732283858267715
0
LINE
8
BLACK
6
CONTINUOUS
10
4.0452755905511806
20
-1.3732283858267715
11
4.0448989370078738
21
-1.373153464566929
0
LINE
8
BLACK
6
CONTINUOUS
10
4.0448989370078738
20
-1.373153464566929
11
4.0443662598425192
21
-1.3726207874015748
0
LINE
8
BLACK
6
CONTINUOUS
10
4.0443662598425192
20
-1.3726207874015748
11
4.0442913385826769
21
-1.3722441338582676
0
LINE
8
BLACK
6
CONTINUOUS
10
4.0442913385826769
20
-1.3722441338582676
11
4.0442913385826769
21
-1.2541338976377951
0
LINE
8
BLACK
6
CONTINUOUS
10
4.0442913385826769
20
-1.2541338976377951
11
4.0443662598425192
21
-1.2537572440944882
0
LINE
8
BLACK
6
CONTINUOUS
10
4.0443662598425192
20
-1.2537572440944882
11
4.0448989370078738
21
-1.2532245669291338
0
LINE
8
BLACK
6
CONTINUOUS
10
4.0448989370078738
20
-1.2532245669291338
11
4.0452755905511806
21
-1.2531496456692912
0
LINE
8
BLACK
6
CONTINUOUS
10
4.0452755905511806
20
-1.2531496456692912
11
4.0836614173228343
21
-1.2531496456692912
0
LINE
8
BLACK
6
CONTINUOUS
10
4.0836614173228343
20
-1.2531496456692912
11
4.0836613779527555
21
-1.2462598818897637
0
LINE
8
BLACK
6
CONTINUOUS
10
4.0836613779527555
20
-1.2462598818897637
11
4.0837362992125987
21
-1.2458832283464567
0
LINE
8
BLACK
6
CONTINUOUS
10
4.0837362992125987
20
-1.2458832283464567
11
4.0842689763779525
21
-1.2453505511811023
0
LINE
8
BLACK
6
CONTINUOUS
10
4.0842689763779525
20
-1.2453505511811023
11
4.0846456299212601
21
-1.2452756299212597
0
LINE
8
BLACK
6
CONTINUOUS
10
4.0846456299212601
20
-1.2452756299212597
11
4.1673228740157482
21
-1.2452756299212597
0
LINE
8
BLACK
6
CONTINUOUS
10
4.1673228740157482
20
-1.2452756299212597
11
4.1676995275590549
21
-1.2453505511811023
0
LINE
8
BLACK
6
CONTINUOUS
10
4.0856298818897638
20
-1.2472441338582676
11
4.0856299212598426
21
-1.2541338976377951
0
LINE
8
BLACK
6
CONTINUOUS
10
4.0856299212598426
20
-1.2541338976377951
11
4.0855550000000003
21
-1.2545105511811023
0
LINE
8
BLACK
6
CONTINUOUS
10
4.0855550000000003
20
-1.2545105511811023
11
4.0850223228346456
21
-1.2550432283464568
0
LINE
8
BLACK
6
CONTINUOUS
10
4.0850223228346456
20
-1.2550432283464568
11
4.0846456692913389
21
-1.2551181496062991
0
LINE
8
BLACK
6
CONTINUOUS
10
4.0846456692913389
20
-1.2551181496062991
11
4.0462598425196852
21
-1.2551181496062991
0
LINE
8
BLACK
6
CONTINUOUS
10
4.0462598425196852
20
-1.2551181496062991
11
4.0462598425196852
21
-1.3712598818897637
0
LINE
8
BLACK
6
CONTINUOUS
10
4.0462598425196852
20
-1.3712598818897637
11
4.0846456692913389
21
-1.3712598818897637
0
LINE
8
BLACK
6
CONTINUOUS
10
4.0846456692913389
20
-1.3712598818897637
11
4.0850223228346456
21
-1.3713348031496062
0
LINE
8
BLACK
6
CONTINUOUS
10
4.0850223228346456
20
-1.3713348031496062
11
4.0855550000000003
21
-1.3718674803149606
0
LINE
8
BLACK
6
CONTINUOUS
10
4.0855550000000003
20
-1.3718674803149606
11
4.0856299212598426
21
-1.3722441338582676
0
LINE
8
BLACK
6
CONTINUOUS
10
4.0856299212598426
20
-1.3722441338582676
11
4.0856298818897638
21
-1.3791338976377951
0
LINE
8
BLACK
6
CONTINUOUS
10
4.0856298818897638
20
-1.3791338976377951
11
4.1663386220472436
21
-1.3791338976377951
0
LINE
8
BLACK
6
CONTINUOUS
10
4.1663386220472436
20
-1.3791338976377951
11
4.1663385826771648
21
-1.3722441338582676
0
LINE
8
BLACK
6
CONTINUOUS
10
4.1663385826771648
20
-1.3722441338582676
11
4.166413503937008
21
-1.3718674803149606
0
LINE
8
BLACK
6
CONTINUOUS
10
4.166413503937008
20
-1.3718674803149606
11
4.1669461811023618
21
-1.3713348031496062
0
LINE
8
BLACK
6
CONTINUOUS
10
4.1669461811023618
20
-1.3713348031496062
11
4.1673228346456694
21
-1.3712598818897637
0
LINE
8
BLACK
6
CONTINUOUS
10
4.1673228346456694
20
-1.3712598818897637
11
4.2057086614173231
21
-1.3712598818897637
0
LINE
8
BLACK
6
CONTINUOUS
10
4.2057086614173231
20
-1.3712598818897637
11
4.2057086614173231
21
-1.2551181496062991
0
LINE
8
BLACK
6
CONTINUOUS
10
4.2057086614173231
20
-1.2551181496062991
11
4.1673228346456694
21
-1.2551181496062991
0
LINE
8
BLACK
6
CONTINUOUS
10
4.1673228346456694
20
-1.2551181496062991
11
4.1669461811023618
21
-1.2550432283464568
0
LINE
8
BLACK
6
CONTINUOUS
10
4.1669461811023618
20
-1.2550432283464568
11
4.166413503937008
21
-1.2545105511811023
0
LINE
8
BLACK
6
CONTINUOUS
10
4.166413503937008
20
-1.2545105511811023
11
4.1663385826771648
21
-1.2541338976377951
0
LINE
8
BLACK
6
CONTINUOUS
10
4.1663385826771648
20
-1.2541338976377951
11
4.1663386220472436
21
-1.2472441338582676
0
LINE
8
BLACK
6
CONTINUOUS
10
4.1663386220472436
20
-1.2472441338582676
11
4.0856298818897638
21
-1.2472441338582676
0
LINE
8
BLACK
6
CONTINUOUS
10
3.6421089370078739
20
-1.0662166535433071
11
3.6426416141732281
21
-1.0667493307086613
0
LINE
8
BLACK
6
CONTINUOUS
10
3.6426416141732281
20
-1.0667493307086613
11
3.6427165354330708
21
-1.0671259842519685
0
LINE
8
BLACK
6
CONTINUOUS
10
3.6427165354330708
20
-1.0671259842519685
11
3.6427165354330708
21
-1.263976377952756
0
LINE
8
BLACK
6
CONTINUOUS
10
3.6427165354330708
20
-1.263976377952756
11
3.6426416141732281
21
-1.2643530314960629
0
LINE
8
BLACK
6
CONTINUOUS
10
3.6426416141732281
20
-1.2643530314960629
11
3.6421089370078739
21
-1.2648857086614174
0
LINE
8
BLACK
6
CONTINUOUS
10
3.6421089370078739
20
-1.2648857086614174
11
3.6417322834645667
21
-1.2649606299212599
0
LINE
8
BLACK
6
CONTINUOUS
10
3.6417322834645667
20
-1.2649606299212599
11
3.4448818897637796
21
-1.2649606299212599
0
LINE
8
BLACK
6
CONTINUOUS
10
3.4448818897637796
20
-1.2649606299212599
11
3.4445052362204724
21
-1.2648857086614174
0
LINE
8
BLACK
6
CONTINUOUS
10
3.4445052362204724
20
-1.2648857086614174
11
3.4439725590551182
21
-1.2643530314960629
0
LINE
8
BLACK
6
CONTINUOUS
10
3.4439725590551182
20
-1.2643530314960629
11
3.4438976377952755
21
-1.263976377952756
0
LINE
8
BLACK
6
CONTINUOUS
10
3.4438976377952755
20
-1.263976377952756
11
3.4438976377952755
21
-1.0671259842519685
0
LINE
8
BLACK
6
CONTINUOUS
10
3.4438976377952755
20
-1.0671259842519685
11
3.4439725590551182
21
-1.0667493307086613
0
LINE
8
BLACK
6
CONTINUOUS
10
3.4439725590551182
20
-1.0667493307086613
11
3.4445052362204724
21
-1.0662166535433071
0
LINE
8
BLACK
6
CONTINUOUS
10
3.4445052362204724
20
-1.0662166535433071
11
3.4448818897637796
21
-1.0661417322834645
0
LINE
8
BLACK
6
CONTINUOUS
10
3.4448818897637796
20
-1.0661417322834645
11
3.6417322834645667
21
-1.0661417322834645
0
LINE
8
BLACK
6
CONTINUOUS
10
3.6417322834645667
20
-1.0661417322834645
11
3.6421089370078739
21
-1.0662166535433071
0
LINE
8
BLACK
6
CONTINUOUS
10
3.4458661417322833
20
-1.0681102362204724
11
3.4458661417322833
21
-1.262992125984252
0
LINE
8
BLACK
6
CONTINUOUS
10
3.4458661417322833
20
-1.262992125984252
11
3.640748031496063
21
-1.262992125984252
0
LINE
8
BLACK
6
CONTINUOUS
10
3.640748031496063
20
-1.262992125984252
11
3.640748031496063
21
-1.0681102362204724
0
LINE
8
BLACK
6
CONTINUOUS
10
3.640748031496063
20
-1.0681102362204724
11
3.4458661417322833
21
-1.0681102362204724
0
CIRCLE
8
BLACK
10
3.0299212598425198
20
-1.9135826771653544
40
0.0068897637795276
0
CIRCLE
8
BLACK
10
3.1299212598425195
20
-1.9135826771653544
40
0.0068897637795276
0
CIRCLE
8
BLACK
10
5.2753937401574804
20
-2.2206692913385826
40
0.0068897637795276
0
CIRCLE
8
BLACK
10
3.7677165354330708
20
-2.3387795275590553
40
0.0068897637795276
0
CIRCLE
8
BLACK
10
3.6299212598425195
20
-2.3387795275590553
40
0.0068897637795276
0
CIRCLE
8
BLACK
10
4.409448818897638
20
-4.7637795275590546
40
0.0068897637795276
0
CIRCLE
8
BLACK
10
3.9094488188976375
20
-4.7637795275590546
40
0.0068897637795276
0
CIRCLE
8
BLACK
10
4.2996062992125985
20
-4.663779527559055
40
0.0068897637795276
0
CIRCLE
8
BLACK
10
4.2596062992125985
20
-4.5937007480314955
40
0.0068897637795276
0
CIRCLE
8
BLACK
10
4.2196062992125984
20
-4.663779527559055
40
0.0068897637795276
0
CIRCLE
8
BLACK
10
4.1796062992125984
20
-4.5937007480314955
40
0.0068897637795276
0
CIRCLE
8
BLACK
10
4.1396062992125984
20
-4.663779527559055
40
0.0068897637795276
0
CIRCLE
8
BLACK
10
4.0996062992125983
20
-4.5937007480314955
40
0.0068897637795276
0
CIRCLE
8
BLACK
10
4.0596062992125983
20
-4.663779527559055
40
0.0068897637795276
0
CIRCLE
8
BLACK
10
4.019606338582677
20
-4.5937007874015743
40
0.0068897637795276
0
CIRCLE
8
BLACK
10
4.429527559055118
20
-4.4039370078740152
40
0.0068897637795276
0
CIRCLE
8
BLACK
10
4.3393700787401572
20
-4.4039370078740152
40
0.0068897637795276
0
CIRCLE
8
BLACK
10
3.9795275590551182
20
-4.4039370078740152
40
0.0068897637795276
0
CIRCLE
8
BLACK
10
3.8893700787401575
20
-4.4039370078740152
40
0.0068897637795276
0
CIRCLE
8
BLACK
10
4.4795275590551178
20
-4.6287401574803146
40
0.0068897637795276
0
CIRCLE
8
BLACK
10
3.8393700787401572
20
-4.6287401574803146
40
0.0068897637795276
0
CIRCLE
8
BLACK
10
3.0299212598425198
20
-1.6104330708661416
40
0.0068897637795276
0
CIRCLE
8
BLACK
10
3.1299212598425195
20
-1.6104330708661416
40
0.0068897637795276
0
CIRCLE
8
BLACK
10
2.0929133858267717
20
-1.0159448818897638
40
0.0068897637795276
0
CIRCLE
8
BLACK
10
2.1929133858267718
20
-1.0159448818897638
40
0.0068897637795276
0
CIRCLE
8
BLACK
10
2.0929133858267717
20
-1.1159448818897637
40
0.0068897637795276
0
CIRCLE
8
BLACK
10
2.1929133858267718
20
-1.1159448818897637
40
0.0068897637795276
0
CIRCLE
8
BLACK
10
2.0929133858267717
20
-1.2159448818897638
40
0.0068897637795276
0
CIRCLE
8
BLACK
10
2.1929133858267718
20
-1.2159448818897638
40
0.0068897637795276
0
CIRCLE
8
BLACK
10
2.0929133858267717
20
-1.3159448818897637
40
0.0068897637795276
0
CIRCLE
8
BLACK
10
2.1929133858267718
20
-1.3159448818897637
40
0.0068897637795276
0
CIRCLE
8
BLACK
10
2.0929133858267717
20
-1.4159448818897638
40
0.0068897637795276
0
CIRCLE
8
BLACK
10
2.1929133858267718
20
-1.4159448818897638
40
0.0068897637795276
0
CIRCLE
8
BLACK
10
2.0929133858267717
20
-1.5159448818897638
40
0.0068897637795276
0
CIRCLE
8
BLACK
10
2.1929133858267718
20
-1.5159448818897638
40
0.0068897637795276
0
CIRCLE
8
BLACK
10
2.0929133858267717
20
-1.6159448818897637
40
0.0068897637795276
0
CIRCLE
8
BLACK
10
2.1929133858267718
20
-1.6159448818897637
40
0.0068897637795276
0
CIRCLE
8
BLACK
10
2.0929133858267717
20
-1.7159448818897638
40
0.0068897637795276
0
CIRCLE
8
BLACK
10
2.1929133858267718
20
-1.7159448818897638
40
0.0068897637795276
0
CIRCLE
8
BLACK
10
2.0929133858267717
20
-1.8159448818897637
40
0.0068897637795276
0
CIRCLE
8
BLACK
10
2.1929133858267718
20
-1.8159448818897637
40
0.0068897637795276
0
CIRCLE
8
BLACK
10
2.0929133858267717
20
-1.9159448818897638
40
0.0068897637795276
0
CIRCLE
8
BLACK
10
2.1929133858267718
20
-1.9159448818897638
40
0.0068897637795276
0
CIRCLE
8
BLACK
10
2.0929133858267717
20
-2.0159448818897636
40
0.0068897637795276
0
CIRCLE
8
BLACK
10
2.1929133858267718
20
-2.0159448818897636
40
0.0068897637795276
0
CIRCLE
8
BLACK
10
2.0929133858267717
20
-2.1159448818897637
40
0.0068897637795276
0
CIRCLE
8
BLACK
10
2.1929133858267718
20
-2.1159448818897637
40
0.0068897637795276
0
CIRCLE
8
BLACK
10
2.0929133858267717
20
-2.2159448818897638
40
0.0068897637795276
0
CIRCLE
8
BLACK
10
2.1929133858267718
20
-2.2159448818897638
40
0.0068897637795276
0
CIRCLE
8
BLACK
10
2.0929133858267717
20
-2.3159448818897639
40
0.0068897637795276
0
CIRCLE
8
BLACK
10
2.1929133858267718
20
-2.3159448818897639
40
0.0068897637795276
0
CIRCLE
8
BLACK
10
2.0929133858267717
20
-2.4159448818897635
40
0.0068897637795276
0
CIRCLE
8
BLACK
10
2.1929133858267718
20
-2.4159448818897635
40
0.0068897637795276
0
CIRCLE
8
BLACK
10
2.0929133858267717
20
-2.5159448818897636
40
0.0068897637795276
0
CIRCLE
8
BLACK
10
2.1929133858267718
20
-2.5159448818897636
40
0.0068897637795276
0
CIRCLE
8
BLACK
10
2.0929133858267717
20
-2.6159448818897637
40
0.0068897637795276
0
CIRCLE
8
BLACK
10
2.1929133858267718
20
-2.6159448818897637
40
0.0068897637795276
0
CIRCLE
8
BLACK
10
2.0929133858267717
20
-2.7159448818897638
40
0.0068897637795276
0
CIRCLE
8
BLACK
10
2.1929133858267718
20
-2.7159448818897638
40
0.0068897637795276
0
CIRCLE
8
BLACK
10
2.0929133858267717
20
-2.8159448818897639
40
0.0068897637795276
0
CIRCLE
8
BLACK
10
2.1929133858267718
20
-2.8159448818897639
40
0.0068897637795276
0
CIRCLE
8
BLACK
10
2.0929133858267717
20
-2.9159448818897635
40
0.0068897637795276
0
CIRCLE
8
BLACK
10
2.1929133858267718
20
-2.9159448818897635
40
0.0068897637795276
0
CIRCLE
8
BLACK
10
3.0299212598425198
20
-1.7127952755905511
40
0.0068897637795276
0
CIRCLE
8
BLACK
10
3.1299212598425195
20
-1.7127952755905511
40
0.0068897637795276
0
CIRCLE
8
BLACK
10
1.0905511811023623
20
-6.71259842519685
40
0.0068897637795276
0
CIRCLE
8
BLACK
10
4.4998031496062989
20
-3.0120078740157479
40
0.0068897637795276
0
CIRCLE
8
BLACK
10
3.0299212598425198
20
-2.0120078740157479
40
0.0068897637795276
0
CIRCLE
8
BLACK
10
3.1299212598425195
20
-2.0120078740157479
40
0.0068897637795276
0
CIRCLE
8
BLACK
10
4.0866141732283463
20
-3.2755905511811023
40
0.0068897637795276
0
CIRCLE
8
BLACK
10
4.0866141732283463
20
-3.1755904724409447
40
0.0068897637795276
0
CIRCLE
8
BLACK
10
4.2165354330708658
20
-3.2755905511811023
40
0.0068897637795276
0
CIRCLE
8
BLACK
10
4.2165354330708658
20
-3.1755905511811022
40
0.0068897637795276
0
CIRCLE
8
BLACK
10
4.2165354330708658
20
-3.0755905905511809
40
0.0068897637795276
0
CIRCLE
8
BLACK
10
1.0905511811023623
20
-5.8740771653543309
40
0.0068897637795276
0
CIRCLE
8
BLACK
10
1.0905511811023623
20
-6.4330913385826767
40
0.0068897637795276
0
CIRCLE
8
BLACK
10
1.0905511811023623
20
-6.1535842519685042
40
0.0068897637795276
0
CIRCLE
8
BLACK
10
2.7503937007874013
20
-1.612007874015748
40
0.0068897637795276
0
CIRCLE
8
BLACK
10
2.8503937007874014
20
-1.612007874015748
40
0.0068897637795276
0
CIRCLE
8
BLACK
10
2.7503937007874013
20
-1.7120078740157481
40
0.0068897637795276
0
CIRCLE
8
BLACK
10
2.8503937007874014
20
-1.7120078740157481
40
0.0068897637795276
0
CIRCLE
8
BLACK
10
2.7503937007874013
20
-1.8120078740157479
40
0.0068897637795276
0
CIRCLE
8
BLACK
10
2.8503937007874014
20
-1.8120078740157479
40
0.0068897637795276
0
CIRCLE
8
BLACK
10
2.7503937007874013
20
-1.912007874015748
40
0.0068897637795276
0
CIRCLE
8
BLACK
10
2.8503937007874014
20
-1.912007874015748
40
0.0068897637795276
0
CIRCLE
8
BLACK
10
2.7503937007874013
20
-2.0120078740157479
40
0.0068897637795276
0
CIRCLE
8
BLACK
10
2.8503937007874014
20
-2.0120078740157479
40
0.0068897637795276
0
CIRCLE
8
BLACK
10
4.4015748031496065
20
-1.4743110236220471
40
0.0068897637795276
0
CIRCLE
8
BLACK
10
4.3015748031496059
20
-1.4743110236220471
40
0.0068897637795276
0
CIRCLE
8
BLACK
10
4.4015748031496065
20
-1.3743110236220473
40
0.0068897637795276
0
CIRCLE
8
BLACK
10
4.3015748031496059
20
-1.3743110236220473
40
0.0068897637795276
0
CIRCLE
8
BLACK
10
4.4015748031496065
20
-1.2743110629921259
40
0.0068897637795276
0
CIRCLE
8
BLACK
10
4.3015748031496059
20
-1.2743110236220472
40
0.0068897637795276
0
CIRCLE
8
BLACK
10
4.4015748031496065
20
-1.1743110236220473
40
0.0068897637795276
0
CIRCLE
8
BLACK
10
4.3015748031496059
20
-1.1743110236220473
40
0.0068897637795276
0
CIRCLE
8
BLACK
10
4.4015748031496065
20
-1.0743110236220472
40
0.0068897637795276
0
CIRCLE
8
BLACK
10
4.3015748031496059
20
-1.0743110236220472
40
0.0068897637795276
0
CIRCLE
8
BLACK
10
2.7511811023622048
20
-4.5196850393700787
40
0.0068897637795276
0
CIRCLE
8
BLACK
10
2.7511811023622048
20
-4.3196850787401573
40
0.0068897637795276
0
CIRCLE
8
BLACK
10
3.5511811023622046
20
-4.8196850393700785
40
0.0068897637795276
0
CIRCLE
8
BLACK
10
3.5511811023622046
20
-4.4196850393700791
40
0.0068897637795276
0
CIRCLE
8
BLACK
10
3.5511811023622046
20
-4.0196850393700787
40
0.0068897637795276
0
CIRCLE
8
BLACK
10
2.7511811023622048
20
-4.0196850393700787
40
0.0068897637795276
0
CIRCLE
8
BLACK
10
3.0299212598425198
20
-1.9135826771653544
40
0.0068897637795276
0
CIRCLE
8
BLACK
10
3.1299212598425195
20
-1.9135826771653544
40
0.0068897637795276
0
CIRCLE
8
BLACK
10
5.2753937401574804
20
-2.2206692913385826
40
0.0068897637795276
0
CIRCLE
8
BLACK
10
3.7677165354330708
20
-2.3387795275590553
40
0.0068897637795276
0
CIRCLE
8
BLACK
10
3.6299212598425195
20
-2.3387795275590553
40
0.0068897637795276
0
CIRCLE
8
BLACK
10
4.409448818897638
20
-4.7637795275590546
40
0.0068897637795276
0
CIRCLE
8
BLACK
10
3.9094488188976375
20
-4.7637795275590546
40
0.0068897637795276
0
CIRCLE
8
BLACK
10
4.2996062992125985
20
-4.663779527559055
40
0.0068897637795276
0
CIRCLE
8
BLACK
10
4.2596062992125985
20
-4.5937007480314955
40
0.0068897637795276
0
CIRCLE
8
BLACK
10
4.2196062992125984
20
-4.663779527559055
40
0.0068897637795276
0
CIRCLE
8
BLACK
10
4.1796062992125984
20
-4.5937007480314955
40
0.0068897637795276
0
CIRCLE
8
BLACK
10
4.1396062992125984
20
-4.663779527559055
40
0.0068897637795276
0
CIRCLE
8
BLACK
10
4.0996062992125983
20
-4.5937007480314955
40
0.0068897637795276
0
CIRCLE
8
BLACK
10
4.0596062992125983
20
-4.663779527559055
40
0.0068897637795276
0
CIRCLE
8
BLACK
10
4.019606338582677
20
-4.5937007874015743
40
0.0068897637795276
0
CIRCLE
8
BLACK
10
4.429527559055118
20
-4.4039370078740152
40
0.0068897637795276
0
CIRCLE
8
BLACK
10
4.3393700787401572
20
-4.4039370078740152
40
0.0068897637795276
0
CIRCLE
8
BLACK
10
3.9795275590551182
20
-4.4039370078740152
40
0.0068897637795276
0
CIRCLE
8
BLACK
10
3.8893700787401575
20
-4.4039370078740152
40
0.0068897637795276
0
CIRCLE
8
BLACK
10
4.4795275590551178
20
-4.6287401574803146
40
0.0068897637795276
0
CIRCLE
8
BLACK
10
3.8393700787401572
20
-4.6287401574803146
40
0.0068897637795276
0
CIRCLE
8
BLACK
10
3.0299212598425198
20
-1.6104330708661416
40
0.0068897637795276
0
CIRCLE
8
BLACK
10
3.1299212598425195
20
-1.6104330708661416
40
0.0068897637795276
0
CIRCLE
8
BLACK
10
2.0929133858267717
20
-1.0159448818897638
40
0.0068897637795276
0
CIRCLE
8
BLACK
10
2.1929133858267718
20
-1.0159448818897638
40
0.0068897637795276
0
CIRCLE
8
BLACK
10
2.0929133858267717
20
-1.1159448818897637
40
0.0068897637795276
0
CIRCLE
8
BLACK
10
2.1929133858267718
20
-1.1159448818897637
40
0.0068897637795276
0
CIRCLE
8
BLACK
10
2.0929133858267717
20
-1.2159448818897638
40
0.0068897637795276
0
CIRCLE
8
BLACK
10
2.1929133858267718
20
-1.2159448818897638
40
0.0068897637795276
0
CIRCLE
8
BLACK
10
2.0929133858267717
20
-1.3159448818897637
40
0.0068897637795276
0
CIRCLE
8
BLACK
10
2.1929133858267718
20
-1.3159448818897637
40
0.0068897637795276
0
CIRCLE
8
BLACK
10
2.0929133858267717
20
-1.4159448818897638
40
0.0068897637795276
0
CIRCLE
8
BLACK
10
2.1929133858267718
20
-1.4159448818897638
40
0.0068897637795276
0
CIRCLE
8
BLACK
10
2.0929133858267717
20
-1.5159448818897638
40
0.0068897637795276
0
CIRCLE
8
BLACK
10
2.1929133858267718
20
-1.5159448818897638
40
0.0068897637795276
0
CIRCLE
8
BLACK
10
2.0929133858267717
20
-1.6159448818897637
40
0.0068897637795276
0
CIRCLE
8
BLACK
10
2.1929133858267718
20
-1.6159448818897637
40
0.0068897637795276
0
CIRCLE
8
BLACK
10
2.0929133858267717
20
-1.7159448818897638
40
0.0068897637795276
0
CIRCLE
8
BLACK
10
2.1929133858267718
20
-1.7159448818897638
40
0.0068897637795276
0
CIRCLE
8
BLACK
10
2.0929133858267717
20
-1.8159448818897637
40
0.0068897637795276
0
CIRCLE
8
BLACK
10
2.1929133858267718
20
-1.8159448818897637
40
0.0068897637795276
0
CIRCLE
8
BLACK
10
2.0929133858267717
20
-1.9159448818897638
40
0.0068897637795276
0
CIRCLE
8
BLACK
10
2.1929133858267718
20
-1.9159448818897638
40
0.0068897637795276
0
CIRCLE
8
BLACK
10
2.0929133858267717
20
-2.0159448818897636
40
0.0068897637795276
0
CIRCLE
8
BLACK
10
2.1929133858267718
20
-2.0159448818897636
40
0.0068897637795276
0
CIRCLE
8
BLACK
10
2.0929133858267717
20
-2.1159448818897637
40
0.0068897637795276
0
CIRCLE
8
BLACK
10
2.1929133858267718
20
-2.1159448818897637
40
0.0068897637795276
0
CIRCLE
8
BLACK
10
2.0929133858267717
20
-2.2159448818897638
40
0.0068897637795276
0
CIRCLE
8
BLACK
10
2.1929133858267718
20
-2.2159448818897638
40
0.0068897637795276
0
CIRCLE
8
BLACK
10
2.0929133858267717
20
-2.3159448818897639
40
0.0068897637795276
0
CIRCLE
8
BLACK
10
2.1929133858267718
20
-2.3159448818897639
40
0.0068897637795276
0
CIRCLE
8
BLACK
10
2.0929133858267717
20
-2.4159448818897635
40
0.0068897637795276
0
CIRCLE
8
BLACK
10
2.1929133858267718
20
-2.4159448818897635
40
0.0068897637795276
0
CIRCLE
8
BLACK
10
2.0929133858267717
20
-2.5159448818897636
40
0.0068897637795276
0
CIRCLE
8
BLACK
10
2.1929133858267718
20
-2.5159448818897636
40
0.0068897637795276
0
CIRCLE
8
BLACK
10
2.0929133858267717
20
-2.6159448818897637
40
0.0068897637795276
0
CIRCLE
8
BLACK
10
2.1929133858267718
20
-2.6159448818897637
40
0.0068897637795276
0
CIRCLE
8
BLACK
10
2.0929133858267717
20
-2.7159448818897638
40
0.0068897637795276
0
CIRCLE
8
BLACK
10
2.1929133858267718
20
-2.7159448818897638
40
0.0068897637795276
0
CIRCLE
8
BLACK
10
2.0929133858267717
20
-2.8159448818897639
40
0.0068897637795276
0
CIRCLE
8
BLACK
10
2.1929133858267718
20
-2.8159448818897639
40
0.0068897637795276
0
CIRCLE
8
BLACK
10
2.0929133858267717
20
-2.9159448818897635
40
0.0068897637795276
0
CIRCLE
8
BLACK
10
2.1929133858267718
20
-2.9159448818897635
40
0.0068897637795276
0
CIRCLE
8
BLACK
10
3.0299212598425198
20
-1.7127952755905511
40
0.0068897637795276
0
CIRCLE
8
BLACK
10
3.1299212598425195
20
-1.7127952755905511
40
0.0068897637795276
0
CIRCLE
8
BLACK
10
1.0905511811023623
20
-6.71259842519685
40
0.0068897637795276
0
CIRCLE
8
BLACK
10
4.4998031496062989
20
-3.0120078740157479
40
0.0068897637795276
0
CIRCLE
8
BLACK
10
3.0299212598425198
20
-2.0120078740157479
40
0.0068897637795276
0
CIRCLE
8
BLACK
10
3.1299212598425195
20
-2.0120078740157479
40
0.0068897637795276
0
CIRCLE
8
BLACK
10
4.0866141732283463
20
-3.2755905511811023
40
0.0068897637795276
0
CIRCLE
8
BLACK
10
4.0866141732283463
20
-3.1755904724409447
40
0.0068897637795276
0
CIRCLE
8
BLACK
10
4.2165354330708658
20
-3.2755905511811023
40
0.0068897637795276
0
CIRCLE
8
BLACK
10
4.2165354330708658
20
-3.1755905511811022
40
0.0068897637795276
0
CIRCLE
8
BLACK
10
4.2165354330708658
20
-3.0755905905511809
40
0.0068897637795276
0
CIRCLE
8
BLACK
10
1.0905511811023623
20
-5.8740771653543309
40
0.0068897637795276
0
CIRCLE
8
BLACK
10
1.0905511811023623
20
-6.4330913385826767
40
0.0068897637795276
0
CIRCLE
8
BLACK
10
1.0905511811023623
20
-6.1535842519685042
40
0.0068897637795276
0
CIRCLE
8
BLACK
10
2.7503937007874013
20
-1.612007874015748
40
0.0068897637795276
0
CIRCLE
8
BLACK
10
2.8503937007874014
20
-1.612007874015748
40
0.0068897637795276
0
CIRCLE
8
BLACK
10
2.7503937007874013
20
-1.7120078740157481
40
0.0068897637795276
0
CIRCLE
8
BLACK
10
2.8503937007874014
20
-1.7120078740157481
40
0.0068897637795276
0
CIRCLE
8
BLACK
10
2.7503937007874013
20
-1.8120078740157479
40
0.0068897637795276
0
CIRCLE
8
BLACK
10
2.8503937007874014
20
-1.8120078740157479
40
0.0068897637795276
0
CIRCLE
8
BLACK
10
2.7503937007874013
20
-1.912007874015748
40
0.0068897637795276
0
CIRCLE
8
BLACK
10
2.8503937007874014
20
-1.912007874015748
40
0.0068897637795276
0
CIRCLE
8
BLACK
10
2.7503937007874013
20
-2.0120078740157479
40
0.0068897637795276
0
CIRCLE
8
BLACK
10
2.8503937007874014
20
-2.0120078740157479
40
0.0068897637795276
0
CIRCLE
8
BLACK
10
4.4015748031496065
20
-1.4743110236220471
40
0.0068897637795276
0
CIRCLE
8
BLACK
10
4.3015748031496059
20
-1.4743110236220471
40
0.0068897637795276
0
CIRCLE
8
BLACK
10
4.4015748031496065
20
-1.3743110236220473
40
0.0068897637795276
0
CIRCLE
8
BLACK
10
4.3015748031496059
20
-1.3743110236220473
40
0.0068897637795276
0
CIRCLE
8
BLACK
10
4.4015748031496065
20
-1.2743110629921259
40
0.0068897637795276
0
CIRCLE
8
BLACK
10
4.3015748031496059
20
-1.2743110236220472
40
0.0068897637795276
0
CIRCLE
8
BLACK
10
4.4015748031496065
20
-1.1743110236220473
40
0.0068897637795276
0
CIRCLE
8
BLACK
10
4.3015748031496059
20
-1.1743110236220473
40
0.0068897637795276
0
CIRCLE
8
BLACK
10
4.4015748031496065
20
-1.0743110236220472
40
0.0068897637795276
0
CIRCLE
8
BLACK
10
4.3015748031496059
20
-1.0743110236220472
40
0.0068897637795276
0
CIRCLE
8
BLACK
10
2.7511811023622048
20
-4.5196850393700787
40
0.0068897637795276
0
CIRCLE
8
BLACK
10
2.7511811023622048
20
-4.3196850787401573
40
0.0068897637795276
0
CIRCLE
8
BLACK
10
3.5511811023622046
20
-4.8196850393700785
40
0.0068897637795276
0
CIRCLE
8
BLACK
10
3.5511811023622046
20
-4.4196850393700791
40
0.0068897637795276
0
CIRCLE
8
BLACK
10
3.5511811023622046
20
-4.0196850393700787
40
0.0068897637795276
0
CIRCLE
8
BLACK
10
2.7511811023622048
20
-4.0196850393700787
40
0.0068897637795276
  0
ENDSEC
  0
EOF
