  0
SECTION
  2
HEADER
  9
$ANGBASE
  50
0.0
  9
$ANGDIR
  70
1
  9
$MEASUREMENT
  70
0
  9
$INSUNITS
  70
1
  0
ENDSEC
  0
SECTION
  2
TABLES
  0
TABLE
  2
LTYPE
  70
4
  0
LTYPE
  5
40F
  2
CONTINUOUS
  70
0
  3
Solid line
  72
65
  73
0
  40
0.0
  0
LTYPE
  5
410
  2
DASHDOT
 70
0
  3
Dash Dot ____ _ ____ _
 72
65
 73
4
 40
2.0
 49
1.25
 49
-0.25
 49
0.25
 49
-0.25
  0
LTYPE
  5
411
  2
DASHED
 70
0
  3
Dashed __ __ __ __ __
 72
65
 73
2
 40
0.75
 49
0.5
 49
-0.25
  0
LTYPE
  5
43B
  2
DOTTED
 70
0
  3
Dotted .  .  .  .
 72
65
 73
2
 40
0.2
 49
0.0
 49
-0.2
  0
ENDTAB
  0
TABLE
  2
STYLE
  70
4
  0
STYLE
  2
KICAD
  70
0
  40
0
  41
1
  42
1
  50
0
  71
0
  3
isocp.shx
  0
STYLE
  2
KICADB
  70
0
  40
0
  41
1
  42
1
  50
0
  71
0
  3
isocp.shx
  0
STYLE
  2
KICADI
  70
0
  40
0
  41
1
  42
1
  50
15
  71
0
  3
isocp.shx
  0
STYLE
  2
KICADBI
  70
0
  40
0
  41
1
  42
1
  50
15
  71
0
  3
isocp.shx
  0
ENDTAB
  0
TABLE
  2
LAYER
  70
1
  0
LAYER
  2
BLACK
  70
0
  62
250
  6
CONTINUOUS
  0
ENDTAB
  0
ENDSEC
  0
SECTION
  2
ENTITIES
0
LINE
8
BLACK
6
CONTINUOUS
10
3.0119523228346456
20
-5.8550772047244095
11
3.0121021653543307
21
-5.8558305118110239
0
LINE
8
BLACK
6
CONTINUOUS
10
3.0121021653543307
20
-5.8558305118110239
11
3.0121021653543307
21
-5.8753280708661419
0
LINE
8
BLACK
6
CONTINUOUS
10
3.0121021653543307
20
-5.8753280708661419
11
3.0119523228346456
21
-5.8760813779527554
0
LINE
8
BLACK
6
CONTINUOUS
10
3.0119523228346456
20
-5.8760813779527554
11
3.0108869685039368
21
-5.8771467322834647
0
LINE
8
BLACK
6
CONTINUOUS
10
3.0108869685039368
20
-5.8771467322834647
11
3.0093803543307085
21
-5.8771467322834647
0
LINE
8
BLACK
6
CONTINUOUS
10
3.0093803543307085
20
-5.8771467322834647
11
3.0083150000000001
21
-5.8760813779527554
0
LINE
8
BLACK
6
CONTINUOUS
10
3.0083150000000001
20
-5.8760813779527554
11
3.008165157480315
21
-5.8753280708661419
0
LINE
8
BLACK
6
CONTINUOUS
10
3.008165157480315
20
-5.8753280708661419
11
3.008165157480315
21
-5.8605828740157477
0
LINE
8
BLACK
6
CONTINUOUS
10
3.008165157480315
20
-5.8605828740157477
11
2.9935278346456693
21
-5.8752201968503934
0
LINE
8
BLACK
6
CONTINUOUS
10
2.9935278346456693
20
-5.8752201968503934
11
2.993445866141732
21
-5.8752749212598427
0
LINE
8
BLACK
6
CONTINUOUS
10
2.993445866141732
20
-5.8752749212598427
11
2.9934256692913386
21
-5.8753153937007871
0
LINE
8
BLACK
6
CONTINUOUS
10
2.9934256692913386
20
-5.8753153937007871
11
2.9931514173228346
21
-5.8754716929133854
0
LINE
8
BLACK
6
CONTINUOUS
10
2.9931514173228346
20
-5.8754716929133854
11
2.992889212598425
21
-5.8756469291338584
0
LINE
8
BLACK
6
CONTINUOUS
10
2.992889212598425
20
-5.8756469291338584
11
2.9928440157480316
21
-5.8756469291338584
0
LINE
8
BLACK
6
CONTINUOUS
10
2.9928440157480316
20
-5.8756469291338584
11
2.9927583858267717
21
-5.8756957480314957
0
LINE
8
BLACK
6
CONTINUOUS
10
2.9927583858267717
20
-5.8756957480314957
11
2.988258937007874
21
-5.877195551181102
0
LINE
8
BLACK
6
CONTINUOUS
10
2.988258937007874
20
-5.877195551181102
11
2.9879459842519682
21
-5.8772349999999998
0
LINE
8
BLACK
6
CONTINUOUS
10
2.9879459842519682
20
-5.8772349999999998
11
2.9876364566929134
21
-5.8772965748031494
0
LINE
8
BLACK
6
CONTINUOUS
10
2.9876364566929134
20
-5.8772965748031494
11
2.9846368503937009
21
-5.8772965748031494
0
LINE
8
BLACK
6
CONTINUOUS
10
2.9846368503937009
20
-5.8772965748031494
11
2.9845401181102362
21
-5.8772773228346455
0
LINE
8
BLACK
6
CONTINUOUS
10
2.9845401181102362
20
-5.8772773228346455
11
2.9844973228346454
21
-5.8772916141732283
0
LINE
8
BLACK
6
CONTINUOUS
10
2.9844973228346454
20
-5.8772916141732283
11
2.9841929921259842
21
-5.8772082677165356
0
LINE
8
BLACK
6
CONTINUOUS
10
2.9841929921259842
20
-5.8772082677165356
11
2.9838835433070865
21
-5.8771467322834647
0
LINE
8
BLACK
6
CONTINUOUS
10
2.9838835433070865
20
-5.8771467322834647
11
2.9838516141732283
21
-5.8771148031496061
0
LINE
8
BLACK
6
CONTINUOUS
10
2.9838516141732283
20
-5.8771148031496061
11
2.9837565354330708
21
-5.8770887795275586
0
LINE
8
BLACK
6
CONTINUOUS
10
2.9837565354330708
20
-5.8770887795275586
11
2.9807568897637795
21
-5.8755889370078735
0
LINE
8
BLACK
6
CONTINUOUS
10
2.9807568897637795
20
-5.8755889370078735
11
2.9805079921259843
21
-5.8753957480314956
0
LINE
8
BLACK
6
CONTINUOUS
10
2.9805079921259843
20
-5.8753957480314956
11
2.9802452362204725
21
-5.8752201968503934
0
LINE
8
BLACK
6
CONTINUOUS
10
2.9802452362204725
20
-5.8752201968503934
11
2.978745472440945
21
-5.8737203937007871
0
LINE
8
BLACK
6
CONTINUOUS
10
2.978745472440945
20
-5.8737203937007871
11
2.978570157480315
21
-5.8734580708661417
0
LINE
8
BLACK
6
CONTINUOUS
10
2.978570157480315
20
-5.8734580708661417
11
2.9783767322834644
21
-5.8732088188976377
0
LINE
8
BLACK
6
CONTINUOUS
10
2.9783767322834644
20
-5.8732088188976377
11
2.9768769291338582
21
-5.8702091338582676
0
LINE
8
BLACK
6
CONTINUOUS
10
2.9768769291338582
20
-5.8702091338582676
11
2.9768508661417323
21
-5.8701140551181101
0
LINE
8
BLACK
6
CONTINUOUS
10
2.9768508661417323
20
-5.8701140551181101
11
2.9768189370078741
21
-5.8700821259842515
0
LINE
8
BLACK
6
CONTINUOUS
10
2.9768189370078741
20
-5.8700821259842515
11
2.9767573228346458
21
-5.8697724409448817
0
LINE
8
BLACK
6
CONTINUOUS
10
2.9767573228346458
20
-5.8697724409448817
11
2.9766740551181101
21
-5.869468346456693
0
LINE
8
BLACK
6
CONTINUOUS
10
2.9766740551181101
20
-5.869468346456693
11
2.9766883070866141
21
-5.8694255118110235
0
LINE
8
BLACK
6
CONTINUOUS
10
2.9766883070866141
20
-5.8694255118110235
11
2.9766690944881891
21
-5.869328818897638
0
LINE
8
BLACK
6
CONTINUOUS
10
2.9766690944881891
20
-5.869328818897638
11
2.9766690944881891
21
-5.8618297637795278
0
LINE
8
BLACK
6
CONTINUOUS
10
2.9766690944881891
20
-5.8618297637795278
11
2.9766883070866141
21
-5.8617330314960627
0
LINE
8
BLACK
6
CONTINUOUS
10
2.9766883070866141
20
-5.8617330314960627
11
2.9766740551181101
21
-5.8616901968503932
0
LINE
8
BLACK
6
CONTINUOUS
10
2.9766740551181101
20
-5.8616901968503932
11
2.9767573622047245
21
-5.8613859448818895
0
LINE
8
BLACK
6
CONTINUOUS
10
2.9767573622047245
20
-5.8613859448818895
11
2.9768189370078741
21
-5.8610764566929134
0
LINE
8
BLACK
6
CONTINUOUS
10
2.9768189370078741
20
-5.8610764566929134
11
2.9768508661417323
21
-5.8610444881889761
0
LINE
8
BLACK
6
CONTINUOUS
10
2.9768508661417323
20
-5.8610444881889761
11
2.9768769291338582
21
-5.8609494094488186
0
LINE
8
BLACK
6
CONTINUOUS
10
2.9768769291338582
20
-5.8609494094488186
11
2.9783767322834644
21
-5.857949803149606
0
LINE
8
BLACK
6
CONTINUOUS
10
2.9783767322834644
20
-5.857949803149606
11
2.9785700787401574
21
-5.8577006299212595
0
LINE
8
BLACK
6
CONTINUOUS
10
2.9785700787401574
20
-5.8577006299212595
11
2.9787454330708663
21
-5.8574382283464566
0
LINE
8
BLACK
6
CONTINUOUS
10
2.9787454330708663
20
-5.8574382283464566
11
2.9802452362204725
21
-5.8559383858267715
0
LINE
8
BLACK
6
CONTINUOUS
10
2.9802452362204725
20
-5.8559383858267715
11
2.9808838582677164
21
-5.8555116929133861
0
LINE
8
BLACK
6
CONTINUOUS
10
2.9808838582677164
20
-5.8555116929133861
11
2.9823905118110234
21
-5.8555116535433074
0
LINE
8
BLACK
6
CONTINUOUS
10
2.9823905118110234
20
-5.8555116535433074
11
2.9834558267716536
21
-5.8565769685039371
0
LINE
8
BLACK
6
CONTINUOUS
10
2.9834558267716536
20
-5.8565769685039371
11
2.9834558661417323
21
-5.8580836220472436
0
LINE
8
BLACK
6
CONTINUOUS
10
2.9834558661417323
20
-5.8580836220472436
11
2.9830291732283465
21
-5.8587222440944879
0
LINE
8
BLACK
6
CONTINUOUS
10
2.9830291732283465
20
-5.8587222440944879
11
2.9817551968503935
21
-5.859996220472441
0
LINE
8
BLACK
6
CONTINUOUS
10
2.9817551968503935
20
-5.859996220472441
11
2.9806061023622048
21
-5.8622944488188979
0
LINE
8
BLACK
6
CONTINUOUS
10
2.9806061023622048
20
-5.8622944488188979
11
2.9806061023622048
21
-5.8688641338582679
0
LINE
8
BLACK
6
CONTINUOUS
10
2.9806061023622048
20
-5.8688641338582679
11
2.9817552362204722
21
-5.8711624409448815
0
LINE
8
BLACK
6
CONTINUOUS
10
2.9817552362204722
20
-5.8711624409448815
11
2.982803307086614
21
-5.872210472440945
0
LINE
8
BLACK
6
CONTINUOUS
10
2.982803307086614
20
-5.872210472440945
11
2.985101535433071
21
-5.8733595669291336
0
LINE
8
BLACK
6
CONTINUOUS
10
2.985101535433071
20
-5.8733595669291336
11
2.9873170472440944
21
-5.8733595669291336
0
LINE
8
BLACK
6
CONTINUOUS
10
2.9873170472440944
20
-5.8733595669291336
11
2.9910725590551182
21
-5.8721077165354325
0
LINE
8
BLACK
6
CONTINUOUS
10
2.9910725590551182
20
-5.8721077165354325
11
3.0087417322834646
21
-5.8544385826771652
0
LINE
8
BLACK
6
CONTINUOUS
10
3.0087417322834646
20
-5.8544385826771652
11
3.0093803543307085
21
-5.8540118503937011
0
LINE
8
BLACK
6
CONTINUOUS
10
3.0093803543307085
20
-5.8540118503937011
11
3.0108869685039368
21
-5.8540118503937011
0
LINE
8
BLACK
6
CONTINUOUS
10
3.0108869685039368
20
-5.8540118503937011
11
3.0119523228346456
21
-5.8550772047244095
0
LINE
8
BLACK
6
CONTINUOUS
10
3.0119523228346456
20
-5.8310801968503938
11
3.0121021653543307
21
-5.8318335039370082
0
LINE
8
BLACK
6
CONTINUOUS
10
3.0121021653543307
20
-5.8318335039370082
11
3.0121021653543307
21
-5.8348331496062995
0
LINE
8
BLACK
6
CONTINUOUS
10
3.0121021653543307
20
-5.8348331496062995
11
3.0120405905511811
21
-5.8351426771653543
0
LINE
8
BLACK
6
CONTINUOUS
10
3.0120405905511811
20
-5.8351426771653543
11
3.0120011417322834
21
-5.8354556299212597
0
LINE
8
BLACK
6
CONTINUOUS
10
3.0120011417322834
20
-5.8354556299212597
11
3.0105013385826771
21
-5.8399550393700785
0
LINE
8
BLACK
6
CONTINUOUS
10
3.0105013385826771
20
-5.8399550393700785
11
3.0104525196850394
21
-5.840040669291338
0
LINE
8
BLACK
6
CONTINUOUS
10
3.0104525196850394
20
-5.840040669291338
11
3.0104525196850394
21
-5.8400859055118106
0
LINE
8
BLACK
6
CONTINUOUS
10
3.0104525196850394
20
-5.8400859055118106
11
3.0102771259842518
21
-5.8403483464566932
0
LINE
8
BLACK
6
CONTINUOUS
10
3.0102771259842518
20
-5.8403483464566932
11
3.0101209842519685
21
-5.8406223228346459
0
LINE
8
BLACK
6
CONTINUOUS
10
3.0101209842519685
20
-5.8406223228346459
11
3.0100805511811024
21
-5.8406425196850389
0
LINE
8
BLACK
6
CONTINUOUS
10
3.0100805511811024
20
-5.8406425196850389
11
3.0100257874015748
21
-5.8407245275590549
0
LINE
8
BLACK
6
CONTINUOUS
10
3.0100257874015748
20
-5.8407245275590549
11
3.0070261417322834
21
-5.8437241338582675
0
LINE
8
BLACK
6
CONTINUOUS
10
3.0070261417322834
20
-5.8437241338582675
11
3.0069441732283462
21
-5.8437788582677168
0
LINE
8
BLACK
6
CONTINUOUS
10
3.0069441732283462
20
-5.8437788582677168
11
3.0069239763779527
21
-5.8438193307086612
0
LINE
8
BLACK
6
CONTINUOUS
10
3.0069239763779527
20
-5.8438193307086612
11
3.0066497244094488
21
-5.8439756299212595
0
LINE
8
BLACK
6
CONTINUOUS
10
3.0066497244094488
20
-5.8439756299212595
11
3.0063875196850391
21
-5.8441508661417325
0
LINE
8
BLACK
6
CONTINUOUS
10
3.0063875196850391
20
-5.8441508661417325
11
3.0063423228346458
21
-5.8441508661417325
0
LINE
8
BLACK
6
CONTINUOUS
10
3.0063423228346458
20
-5.8441508661417325
11
3.0062566929133858
21
-5.8441996850393698
0
LINE
8
BLACK
6
CONTINUOUS
10
3.0062566929133858
20
-5.8441996850393698
11
3.0017572440944882
21
-5.8456994881889761
0
LINE
8
BLACK
6
CONTINUOUS
10
3.0017572440944882
20
-5.8456994881889761
11
3.0014442913385828
21
-5.8457389370078738
0
LINE
8
BLACK
6
CONTINUOUS
10
3.0014442913385828
20
-5.8457389370078738
11
3.0011347637795276
21
-5.8458005118110234
0
LINE
8
BLACK
6
CONTINUOUS
10
3.0011347637795276
20
-5.8458005118110234
11
2.9786375984251969
21
-5.8458005118110234
0
LINE
8
BLACK
6
CONTINUOUS
10
2.9786375984251969
20
-5.8458005118110234
11
2.9778842913385826
21
-5.8456506692913388
0
LINE
8
BLACK
6
CONTINUOUS
10
2.9778842913385826
20
-5.8456506692913388
11
2.9768189370078741
21
-5.8445853149606295
0
LINE
8
BLACK
6
CONTINUOUS
10
2.9768189370078741
20
-5.8445853149606295
11
2.9768189370078741
21
-5.8430787007874017
0
LINE
8
BLACK
6
CONTINUOUS
10
2.9768189370078741
20
-5.8430787007874017
11
2.9778842913385826
21
-5.8420133464566923
0
LINE
8
BLACK
6
CONTINUOUS
10
2.9778842913385826
20
-5.8420133464566923
11
2.9786375984251969
21
-5.8418635039370077
0
LINE
8
BLACK
6
CONTINUOUS
10
2.9786375984251969
20
-5.8418635039370077
11
3.0008153543307086
21
-5.8418635039370077
0
LINE
8
BLACK
6
CONTINUOUS
10
3.0008153543307086
20
-5.8418635039370077
11
3.0045708661417323
21
-5.8406116535433066
0
LINE
8
BLACK
6
CONTINUOUS
10
3.0045708661417323
20
-5.8406116535433066
11
3.0069133070866143
21
-5.8382691732283467
0
LINE
8
BLACK
6
CONTINUOUS
10
3.0069133070866143
20
-5.8382691732283467
11
3.008165157480315
21
-5.8345137401574805
0
LINE
8
BLACK
6
CONTINUOUS
10
3.008165157480315
20
-5.8345137401574805
11
3.008165157480315
21
-5.8318335039370082
0
LINE
8
BLACK
6
CONTINUOUS
10
3.008165157480315
20
-5.8318335039370082
11
3.0083150000000001
21
-5.8310801968503938
0
LINE
8
BLACK
6
CONTINUOUS
10
3.0083150000000001
20
-5.8310801968503938
11
3.0093803543307085
21
-5.8300148425196845
0
LINE
8
BLACK
6
CONTINUOUS
10
3.0093803543307085
20
-5.8300148425196845
11
3.0108869685039368
21
-5.8300148425196845
0
LINE
8
BLACK
6
CONTINUOUS
10
3.0108869685039368
20
-5.8300148425196845
11
3.0119523228346456
21
-5.8310801968503938
0
LINE
8
BLACK
6
CONTINUOUS
10
3.0608953937007874
20
-5.7013824803149609
11
3.061303622047244
21
-5.70314374015748
0
LINE
8
BLACK
6
CONTINUOUS
10
3.061303622047244
20
-5.70314374015748
11
3.0609778346456693
21
-5.7040059055118109
0
LINE
8
BLACK
6
CONTINUOUS
10
3.0609778346456693
20
-5.7040059055118109
11
3.048343464566929
21
-5.7242642913385824
0
LINE
8
BLACK
6
CONTINUOUS
10
3.048343464566929
20
-5.7242642913385824
11
3.0584388976377954
21
-5.7349983464566927
0
LINE
8
BLACK
6
CONTINUOUS
10
3.0584388976377954
20
-5.7349983464566927
11
3.0588458267716536
21
-5.7356497244094484
0
LINE
8
BLACK
6
CONTINUOUS
10
3.0588458267716536
20
-5.7356497244094484
11
3.0587996850393702
21
-5.7371556692913384
0
LINE
8
BLACK
6
CONTINUOUS
10
3.0587996850393702
20
-5.7371556692913384
11
3.0587598425196849
21
-5.7371930708661418
0
LINE
8
BLACK
6
CONTINUOUS
10
3.0587598425196849
20
-5.7371930708661418
11
3.0587598425196849
21
-6.2727525984251971
0
LINE
8
BLACK
6
CONTINUOUS
10
3.0587598425196849
20
-6.2727525984251971
11
3.0609778346456693
21
-6.2763090157480317
0
LINE
8
BLACK
6
CONTINUOUS
10
3.0609778346456693
20
-6.2763090157480317
11
3.061303622047244
21
-6.2771711811023625
0
LINE
8
BLACK
6
CONTINUOUS
10
3.061303622047244
20
-6.2771711811023625
11
3.0608953937007874
21
-6.2789324409448817
0
LINE
8
BLACK
6
CONTINUOUS
10
3.0608953937007874
20
-6.2789324409448817
11
3.059361338582677
21
-6.2798891732283462
0
LINE
8
BLACK
6
CONTINUOUS
10
3.059361338582677
20
-6.2798891732283462
11
3.0576000393700786
21
-6.2794809448818896
0
LINE
8
BLACK
6
CONTINUOUS
10
3.0576000393700786
20
-6.2794809448818896
11
3.0569691338582676
21
-6.2788090551181099
0
LINE
8
BLACK
6
CONTINUOUS
10
3.0569691338582676
20
-6.2788090551181099
11
3.0561895275590549
21
-6.2775590157480314
0
LINE
8
BLACK
6
CONTINUOUS
10
3.0561895275590549
20
-6.2775590157480314
11
2.7032761023622047
21
-6.2775590157480314
0
LINE
8
BLACK
6
CONTINUOUS
10
2.7032761023622047
20
-6.2775590157480314
11
2.702496496062992
21
-6.2788090551181099
0
LINE
8
BLACK
6
CONTINUOUS
10
2.702496496062992
20
-6.2788090551181099
11
2.7018655511811023
21
-6.2794809448818896
0
LINE
8
BLACK
6
CONTINUOUS
10
2.7018655511811023
20
-6.2794809448818896
11
2.7001042913385827
21
-6.2798891732283462
0
LINE
8
BLACK
6
CONTINUOUS
10
2.7001042913385827
20
-6.2798891732283462
11
2.6985701968503935
21
-6.2789324409448817
0
LINE
8
BLACK
6
CONTINUOUS
10
2.6985701968503935
20
-6.2789324409448817
11
2.6981619685039369
21
-6.2771711811023625
0
LINE
8
BLACK
6
CONTINUOUS
10
2.6981619685039369
20
-6.2771711811023625
11
2.6984877559055116
21
-6.2763089763779529
0
LINE
8
BLACK
6
CONTINUOUS
10
2.6984877559055116
20
-6.2763089763779529
11
2.700492125984252
21
-6.2730950787401571
0
LINE
8
BLACK
6
CONTINUOUS
10
2.700492125984252
20
-6.2730950787401571
11
2.700492125984252
21
-5.7072198031496058
0
LINE
8
BLACK
6
CONTINUOUS
10
2.700492125984252
20
-5.7072198031496058
11
2.6984877559055116
21
-5.7040059448818896
0
LINE
8
BLACK
6
CONTINUOUS
10
2.6984877559055116
20
-5.7040059448818896
11
2.6981619685039369
21
-5.70314374015748
0
LINE
8
BLACK
6
CONTINUOUS
10
2.6981619685039369
20
-5.70314374015748
11
2.6985701968503935
21
-5.7013824803149609
0
LINE
8
BLACK
6
CONTINUOUS
10
2.6985701968503935
20
-5.7013824803149609
11
2.7001042913385827
21
-5.7004257480314964
0
LINE
8
BLACK
6
CONTINUOUS
10
2.7001042913385827
20
-5.7004257480314964
11
2.7018655511811023
21
-5.700833976377953
0
LINE
8
BLACK
6
CONTINUOUS
10
2.7018655511811023
20
-5.700833976377953
11
2.702496496062992
21
-5.7015058661417317
0
LINE
8
BLACK
6
CONTINUOUS
10
2.702496496062992
20
-5.7015058661417317
11
2.7032761023622047
21
-5.7027559055118111
0
LINE
8
BLACK
6
CONTINUOUS
10
2.7032761023622047
20
-5.7027559055118111
11
3.027263779527559
21
-5.7027559055118111
0
LINE
8
BLACK
6
CONTINUOUS
10
3.027263779527559
20
-5.7027559055118111
11
3.0280170866141733
21
-5.7029057480314957
0
LINE
8
BLACK
6
CONTINUOUS
10
3.0280170866141733
20
-5.7029057480314957
11
3.0280399999999998
21
-5.7029286614173227
0
LINE
8
BLACK
6
CONTINUOUS
10
3.0280399999999998
20
-5.7029286614173227
11
3.0280724803149606
21
-5.7029296850393703
0
LINE
8
BLACK
6
CONTINUOUS
10
3.0280724803149606
20
-5.7029296850393703
11
3.028697716535433
21
-5.7033757874015745
0
LINE
8
BLACK
6
CONTINUOUS
10
3.028697716535433
20
-5.7033757874015745
11
3.044995590551181
21
-5.7207046456692909
0
LINE
8
BLACK
6
CONTINUOUS
10
3.044995590551181
20
-5.7207046456692909
11
3.0569691338582676
21
-5.7015058661417317
0
LINE
8
BLACK
6
CONTINUOUS
10
3.0569691338582676
20
-5.7015058661417317
11
3.0576000393700786
21
-5.700833976377953
0
LINE
8
BLACK
6
CONTINUOUS
10
3.0576000393700786
20
-5.700833976377953
11
3.059361338582677
21
-5.7004257480314964
0
LINE
8
BLACK
6
CONTINUOUS
10
3.059361338582677
20
-5.7004257480314964
11
3.0608953937007874
21
-5.7013824803149609
0
LINE
8
BLACK
6
CONTINUOUS
10
2.7892133858267716
20
-6.1397637795275593
11
2.7057314566929134
21
-6.2736220078740157
0
LINE
8
BLACK
6
CONTINUOUS
10
2.7057314566929134
20
-6.2736220078740157
11
3.0537341732283463
21
-6.2736220078740157
0
LINE
8
BLACK
6
CONTINUOUS
10
3.0537341732283463
20
-6.2736220078740157
11
2.9702522440944881
21
-6.1397637795275593
0
LINE
8
BLACK
6
CONTINUOUS
10
2.9702522440944881
20
-6.1397637795275593
11
2.7892133858267716
21
-6.1397637795275593
0
LINE
8
BLACK
6
CONTINUOUS
10
2.7044291338582678
20
-6.1397637795275593
11
2.7044291338582678
21
-6.2667823228346453
0
LINE
8
BLACK
6
CONTINUOUS
10
2.7044291338582678
20
-6.2667823228346453
11
2.783645472440945
21
-6.1397637795275593
0
LINE
8
BLACK
6
CONTINUOUS
10
2.783645472440945
20
-6.1397637795275593
11
2.7044291338582678
21
-6.1397637795275593
0
LINE
8
BLACK
6
CONTINUOUS
10
2.9758201181102359
20
-6.1397637795275593
11
3.0548228346456692
21
-6.2664398425196852
0
LINE
8
BLACK
6
CONTINUOUS
10
3.0548228346456692
20
-6.2664398425196852
11
3.0548228346456692
21
-6.1397637795275593
0
LINE
8
BLACK
6
CONTINUOUS
10
3.0548228346456692
20
-6.1397637795275593
11
2.9758201181102359
21
-6.1397637795275593
0
LINE
8
BLACK
6
CONTINUOUS
10
2.7044291338582678
20
-6.1358267716535435
11
2.7861008267716536
21
-6.1358267716535435
0
LINE
8
BLACK
6
CONTINUOUS
10
2.7861008267716536
20
-6.1358267716535435
11
2.8769488188976378
21
-5.9901574409448815
0
LINE
8
BLACK
6
CONTINUOUS
10
2.8769488188976378
20
-5.9901574409448815
11
2.7044291338582678
21
-5.7135325590551176
0
LINE
8
BLACK
6
CONTINUOUS
10
2.7044291338582678
20
-5.7135325590551176
11
2.7044291338582678
21
-6.1358267716535435
0
LINE
8
BLACK
6
CONTINUOUS
10
2.7916687401574802
20
-6.1358267716535435
11
2.9677968897637794
21
-6.1358267716535435
0
LINE
8
BLACK
6
CONTINUOUS
10
2.9677968897637794
20
-6.1358267716535435
11
2.8797327952755905
21
-5.994621338582677
0
LINE
8
BLACK
6
CONTINUOUS
10
2.8797327952755905
20
-5.994621338582677
11
2.7916687401574802
21
-6.1358267716535435
0
LINE
8
BLACK
6
CONTINUOUS
10
2.8825167322834644
20
-5.9901574409448815
11
2.9733647637795273
21
-6.1358267716535435
0
LINE
8
BLACK
6
CONTINUOUS
10
2.9733647637795273
20
-6.1358267716535435
11
3.0548228346456692
21
-6.1358267716535435
0
LINE
8
BLACK
6
CONTINUOUS
10
3.0548228346456692
20
-6.1358267716535435
11
3.0548228346456692
21
-5.7369000787401569
0
LINE
8
BLACK
6
CONTINUOUS
10
3.0548228346456692
20
-5.7369000787401569
11
3.0461885433070863
21
-5.7277196062992122
0
LINE
8
BLACK
6
CONTINUOUS
10
3.0461885433070863
20
-5.7277196062992122
11
2.8825167322834644
21
-5.9901574409448815
0
LINE
8
BLACK
6
CONTINUOUS
10
2.7057314566929134
20
-5.7066929133858268
11
2.8797327952755905
21
-5.9856935433070868
0
LINE
8
BLACK
6
CONTINUOUS
10
2.8797327952755905
20
-5.9856935433070868
11
3.0428406692913383
21
-5.7241599606299207
0
LINE
8
BLACK
6
CONTINUOUS
10
3.0428406692913383
20
-5.7241599606299207
11
3.0264128346456691
21
-5.7066929133858268
0
LINE
8
BLACK
6
CONTINUOUS
10
3.0264128346456691
20
-5.7066929133858268
11
2.7057314566929134
21
-5.7066929133858268
0
LINE
8
BLACK
6
CONTINUOUS
10
3.1112806692913386
20
-6.1809709842519682
11
3.112346023622047
21
-6.1820363385826766
0
LINE
8
BLACK
6
CONTINUOUS
10
3.112346023622047
20
-6.1820363385826766
11
3.112346023622047
21
-6.1835429527559054
0
LINE
8
BLACK
6
CONTINUOUS
10
3.112346023622047
20
-6.1835429527559054
11
3.1112806692913386
21
-6.1846083070866138
0
LINE
8
BLACK
6
CONTINUOUS
10
3.1112806692913386
20
-6.1846083070866138
11
3.1105273622047243
21
-6.1847581496062993
0
LINE
8
BLACK
6
CONTINUOUS
10
3.1105273622047243
20
-6.1847581496062993
11
3.0933449999999998
21
-6.1847581496062993
0
LINE
8
BLACK
6
CONTINUOUS
10
3.0933449999999998
20
-6.1847581496062993
11
3.0926476377952756
21
-6.1854554330708664
0
LINE
8
BLACK
6
CONTINUOUS
10
3.0926476377952756
20
-6.1854554330708664
11
3.091498464566929
21
-6.18775374015748
0
LINE
8
BLACK
6
CONTINUOUS
10
3.091498464566929
20
-6.18775374015748
11
3.091498464566929
21
-6.1913237795275586
0
LINE
8
BLACK
6
CONTINUOUS
10
3.091498464566929
20
-6.1913237795275586
11
3.0924970078740155
21
-6.1933209055118112
0
LINE
8
BLACK
6
CONTINUOUS
10
3.0924970078740155
20
-6.1933209055118112
11
3.0944940944881889
21
-6.1943194488188977
0
LINE
8
BLACK
6
CONTINUOUS
10
3.0944940944881889
20
-6.1943194488188977
11
3.1105273622047243
21
-6.1943194488188977
0
LINE
8
BLACK
6
CONTINUOUS
10
3.1105273622047243
20
-6.1943194488188977
11
3.1112806692913386
21
-6.1944692913385824
0
LINE
8
BLACK
6
CONTINUOUS
10
3.1112806692913386
20
-6.1944692913385824
11
3.112346023622047
21
-6.1955346456692908
0
LINE
8
BLACK
6
CONTINUOUS
10
3.112346023622047
20
-6.1955346456692908
11
3.112346023622047
21
-6.1970412598425195
0
LINE
8
BLACK
6
CONTINUOUS
10
3.112346023622047
20
-6.1970412598425195
11
3.1112806692913386
21
-6.1981066141732279
0
LINE
8
BLACK
6
CONTINUOUS
10
3.1112806692913386
20
-6.1981066141732279
11
3.1105273622047243
21
-6.1982564566929135
0
LINE
8
BLACK
6
CONTINUOUS
10
3.1105273622047243
20
-6.1982564566929135
11
3.0940294094488188
21
-6.1982564566929135
0
LINE
8
BLACK
6
CONTINUOUS
10
3.0940294094488188
20
-6.1982564566929135
11
3.0939326771653541
21
-6.1982372047244096
0
LINE
8
BLACK
6
CONTINUOUS
10
3.0939326771653541
20
-6.1982372047244096
11
3.093889842519685
21
-6.1982514960629924
0
LINE
8
BLACK
6
CONTINUOUS
10
3.093889842519685
20
-6.1982514960629924
11
3.0935855905511809
21
-6.1981681496062988
0
LINE
8
BLACK
6
CONTINUOUS
10
3.0935855905511809
20
-6.1981681496062988
11
3.0932761023622048
21
-6.1981066141732279
0
LINE
8
BLACK
6
CONTINUOUS
10
3.0932761023622048
20
-6.1981066141732279
11
3.0932441338582675
21
-6.1980746456692914
0
LINE
8
BLACK
6
CONTINUOUS
10
3.0932441338582675
20
-6.1980746456692914
11
3.09314905511811
21
-6.1980486220472439
0
LINE
8
BLACK
6
CONTINUOUS
10
3.09314905511811
20
-6.1980486220472439
11
3.0901494488188974
21
-6.1965488188976376
0
LINE
8
BLACK
6
CONTINUOUS
10
3.0901494488188974
20
-6.1965488188976376
11
3.0898397637795276
21
-6.1963084645669291
0
LINE
8
BLACK
6
CONTINUOUS
10
3.0898397637795276
20
-6.1963084645669291
11
3.0897400393700787
21
-6.1962752362204725
0
LINE
8
BLACK
6
CONTINUOUS
10
3.0897400393700787
20
-6.1962752362204725
11
3.0896538582677167
21
-6.1961641732283459
0
LINE
8
BLACK
6
CONTINUOUS
10
3.0896538582677167
20
-6.1961641732283459
11
3.0895426771653542
21
-6.1960779133858264
0
LINE
8
BLACK
6
CONTINUOUS
10
3.0895426771653542
20
-6.1960779133858264
11
3.0895093700787402
21
-6.1959780314960629
0
LINE
8
BLACK
6
CONTINUOUS
10
3.0895093700787402
20
-6.1959780314960629
11
3.0892691338582678
21
-6.1956685039370081
0
LINE
8
BLACK
6
CONTINUOUS
10
3.0892691338582678
20
-6.1956685039370081
11
3.0877692913385828
21
-6.1926688582677167
0
LINE
8
BLACK
6
CONTINUOUS
10
3.0877692913385828
20
-6.1926688582677167
11
3.0877432283464565
21
-6.1925737401574805
0
LINE
8
BLACK
6
CONTINUOUS
10
3.0877432283464565
20
-6.1925737401574805
11
3.0877112992125983
21
-6.1925418110236219
0
LINE
8
BLACK
6
CONTINUOUS
10
3.0877112992125983
20
-6.1925418110236219
11
3.0876497244094487
21
-6.1922322834645671
0
LINE
8
BLACK
6
CONTINUOUS
10
3.0876497244094487
20
-6.1922322834645671
11
3.0875664173228348
21
-6.1919280708661413
0
LINE
8
BLACK
6
CONTINUOUS
10
3.0875664173228348
20
-6.1919280708661413
11
3.0875806692913383
21
-6.1918851968503938
0
LINE
8
BLACK
6
CONTINUOUS
10
3.0875806692913383
20
-6.1918851968503938
11
3.0875614566929133
21
-6.1917885039370075
0
LINE
8
BLACK
6
CONTINUOUS
10
3.0875614566929133
20
-6.1917885039370075
11
3.0875614566929133
21
-6.1872890551181099
0
LINE
8
BLACK
6
CONTINUOUS
10
3.0875614566929133
20
-6.1872890551181099
11
3.0875806692913383
21
-6.1871923228346457
0
LINE
8
BLACK
6
CONTINUOUS
10
3.0875806692913383
20
-6.1871923228346457
11
3.0875664173228348
21
-6.1871494881889761
0
LINE
8
BLACK
6
CONTINUOUS
10
3.0875664173228348
20
-6.1871494881889761
11
3.0876497244094487
21
-6.1868452362204724
0
LINE
8
BLACK
6
CONTINUOUS
10
3.0876497244094487
20
-6.1868452362204724
11
3.0877112992125983
21
-6.1865357480314955
0
LINE
8
BLACK
6
CONTINUOUS
10
3.0877112992125983
20
-6.1865357480314955
11
3.0877432283464565
21
-6.186503779527559
0
LINE
8
BLACK
6
CONTINUOUS
10
3.0877432283464565
20
-6.186503779527559
11
3.0877692913385828
21
-6.1864087007874016
0
LINE
8
BLACK
6
CONTINUOUS
10
3.0877692913385828
20
-6.1864087007874016
11
3.0885946062992127
21
-6.1847581496062993
0
LINE
8
BLACK
6
CONTINUOUS
10
3.0885946062992127
20
-6.1847581496062993
11
3.0790312992125983
21
-6.1847581496062993
0
LINE
8
BLACK
6
CONTINUOUS
10
3.0790312992125983
20
-6.1847581496062993
11
3.078277992125984
21
-6.1846083070866138
0
LINE
8
BLACK
6
CONTINUOUS
10
3.078277992125984
20
-6.1846083070866138
11
3.0772126377952755
21
-6.1835429527559054
0
LINE
8
BLACK
6
CONTINUOUS
10
3.0772126377952755
20
-6.1835429527559054
11
3.0772126377952755
21
-6.1820363385826766
0
LINE
8
BLACK
6
CONTINUOUS
10
3.0772126377952755
20
-6.1820363385826766
11
3.078277992125984
21
-6.1809709842519682
0
LINE
8
BLACK
6
CONTINUOUS
10
3.078277992125984
20
-6.1809709842519682
11
3.0790312992125983
21
-6.1808211417322836
0
LINE
8
BLACK
6
CONTINUOUS
10
3.0790312992125983
20
-6.1808211417322836
11
3.1105273622047243
21
-6.1808211417322836
0
LINE
8
BLACK
6
CONTINUOUS
10
3.1105273622047243
20
-6.1808211417322836
11
3.1112806692913386
21
-6.1809709842519682
0
LINE
8
BLACK
6
CONTINUOUS
10
3.1046248031496062
20
-6.1523438976377953
11
3.1046676771653541
21
-6.1523296456692913
0
LINE
8
BLACK
6
CONTINUOUS
10
3.1046676771653541
20
-6.1523296456692913
11
3.1049718897637795
21
-6.1524129527559053
0
LINE
8
BLACK
6
CONTINUOUS
10
3.1049718897637795
20
-6.1524129527559053
11
3.1052814173228347
21
-6.1524745275590549
0
LINE
8
BLACK
6
CONTINUOUS
10
3.1052814173228347
20
-6.1524745275590549
11
3.1053133464566929
21
-6.1525064566929135
0
LINE
8
BLACK
6
CONTINUOUS
10
3.1053133464566929
20
-6.1525064566929135
11
3.1054084645669291
21
-6.1525325196850389
0
LINE
8
BLACK
6
CONTINUOUS
10
3.1054084645669291
20
-6.1525325196850389
11
3.1084080708661417
21
-6.1540323622047239
0
LINE
8
BLACK
6
CONTINUOUS
10
3.1084080708661417
20
-6.1540323622047239
11
3.1086570866141732
21
-6.1542256299212594
0
LINE
8
BLACK
6
CONTINUOUS
10
3.1086570866141732
20
-6.1542256299212594
11
3.1089196456692911
21
-6.1544010629921262
0
LINE
8
BLACK
6
CONTINUOUS
10
3.1089196456692911
20
-6.1544010629921262
11
3.1104194881889762
21
-6.1559008661417325
0
LINE
8
BLACK
6
CONTINUOUS
10
3.1104194881889762
20
-6.1559008661417325
11
3.1105947244094487
21
-6.1561631889763779
0
LINE
8
BLACK
6
CONTINUOUS
10
3.1105947244094487
20
-6.1561631889763779
11
3.1107882283464567
21
-6.1564124803149607
0
LINE
8
BLACK
6
CONTINUOUS
10
3.1107882283464567
20
-6.1564124803149607
11
3.112288031496063
21
-6.1594120866141733
0
LINE
8
BLACK
6
CONTINUOUS
10
3.112288031496063
20
-6.1594120866141733
11
3.1123140551181101
21
-6.1595071653543307
0
LINE
8
BLACK
6
CONTINUOUS
10
3.1123140551181101
20
-6.1595071653543307
11
3.112346023622047
21
-6.1595391338582672
0
LINE
8
BLACK
6
CONTINUOUS
10
3.112346023622047
20
-6.1595391338582672
11
3.1124075590551179
21
-6.1598486220472441
0
LINE
8
BLACK
6
CONTINUOUS
10
3.1124075590551179
20
-6.1598486220472441
11
3.1124909055118111
21
-6.1601528740157478
0
LINE
8
BLACK
6
CONTINUOUS
10
3.1124909055118111
20
-6.1601528740157478
11
3.1124766141732283
21
-6.1601957086614174
0
LINE
8
BLACK
6
CONTINUOUS
10
3.1124766141732283
20
-6.1601957086614174
11
3.1124958661417321
21
-6.1602924409448816
0
LINE
8
BLACK
6
CONTINUOUS
10
3.1124958661417321
20
-6.1602924409448816
11
3.1124958661417321
21
-6.1662916929133855
0
LINE
8
BLACK
6
CONTINUOUS
10
3.1124958661417321
20
-6.1662916929133855
11
3.1124766141732283
21
-6.1663883858267718
0
LINE
8
BLACK
6
CONTINUOUS
10
3.1124766141732283
20
-6.1663883858267718
11
3.1124909055118111
21
-6.1664312204724405
0
LINE
8
BLACK
6
CONTINUOUS
10
3.1124909055118111
20
-6.1664312204724405
11
3.1124075590551179
21
-6.1667355118110239
0
LINE
8
BLACK
6
CONTINUOUS
10
3.1124075590551179
20
-6.1667355118110239
11
3.112346023622047
21
-6.1670449999999999
0
LINE
8
BLACK
6
CONTINUOUS
10
3.112346023622047
20
-6.1670449999999999
11
3.1123140944881889
21
-6.1670768897637798
0
LINE
8
BLACK
6
CONTINUOUS
10
3.1123140944881889
20
-6.1670768897637798
11
3.1122880708661418
21
-6.167172007874016
0
LINE
8
BLACK
6
CONTINUOUS
10
3.1122880708661418
20
-6.167172007874016
11
3.1107882283464567
21
-6.1701716535433073
0
LINE
8
BLACK
6
CONTINUOUS
10
3.1107882283464567
20
-6.1701716535433073
11
3.1103173228346455
21
-6.1707784251968505
0
LINE
8
BLACK
6
CONTINUOUS
10
3.1103173228346455
20
-6.1707784251968505
11
3.108888031496063
21
-6.1712548818897632
0
LINE
8
BLACK
6
CONTINUOUS
10
3.108888031496063
20
-6.1712548818897632
11
3.1075404724409448
21
-6.1705811023622044
0
LINE
8
BLACK
6
CONTINUOUS
10
3.1075404724409448
20
-6.1705811023622044
11
3.1070640157480316
21
-6.1691518110236219
0
LINE
8
BLACK
6
CONTINUOUS
10
3.1070640157480316
20
-6.1691518110236219
11
3.1072668897637796
21
-6.1684110236220473
0
LINE
8
BLACK
6
CONTINUOUS
10
3.1072668897637796
20
-6.1684110236220473
11
3.1085588582677164
21
-6.1658270078740154
0
LINE
8
BLACK
6
CONTINUOUS
10
3.1085588582677164
20
-6.1658270078740154
11
3.1085588582677164
21
-6.1607571259842517
0
LINE
8
BLACK
6
CONTINUOUS
10
3.1085588582677164
20
-6.1607571259842517
11
3.1074097637795273
21
-6.1584589370078735
0
LINE
8
BLACK
6
CONTINUOUS
10
3.1074097637795273
20
-6.1584589370078735
11
3.1063616535433072
21
-6.1574108267716534
0
LINE
8
BLACK
6
CONTINUOUS
10
3.1063616535433072
20
-6.1574108267716534
11
3.1040634251968502
21
-6.156261692913386
0
LINE
8
BLACK
6
CONTINUOUS
10
3.1040634251968502
20
-6.156261692913386
11
3.0959938976377952
21
-6.156261692913386
0
LINE
8
BLACK
6
CONTINUOUS
10
3.0959938976377952
20
-6.156261692913386
11
3.0936956692913387
21
-6.1574107874015747
0
LINE
8
BLACK
6
CONTINUOUS
10
3.0936956692913387
20
-6.1574107874015747
11
3.0926476377952756
21
-6.1584588188976372
0
LINE
8
BLACK
6
CONTINUOUS
10
3.0926476377952756
20
-6.1584588188976372
11
3.091498464566929
21
-6.1607571259842517
0
LINE
8
BLACK
6
CONTINUOUS
10
3.091498464566929
20
-6.1607571259842517
11
3.091498464566929
21
-6.1658269685039366
0
LINE
8
BLACK
6
CONTINUOUS
10
3.091498464566929
20
-6.1658269685039366
11
3.092790472440945
21
-6.1684109842519685
0
LINE
8
BLACK
6
CONTINUOUS
10
3.092790472440945
20
-6.1684109842519685
11
3.092993346456693
21
-6.1691517716535431
0
LINE
8
BLACK
6
CONTINUOUS
10
3.092993346456693
20
-6.1691517716535431
11
3.0925169291338581
21
-6.1705811023622044
0
LINE
8
BLACK
6
CONTINUOUS
10
3.0925169291338581
20
-6.1705811023622044
11
3.0911693700787399
21
-6.1712548818897632
0
LINE
8
BLACK
6
CONTINUOUS
10
3.0911693700787399
20
-6.1712548818897632
11
3.0897400393700787
21
-6.1707784251968505
0
LINE
8
BLACK
6
CONTINUOUS
10
3.0897400393700787
20
-6.1707784251968505
11
3.0892691338582678
21
-6.1701716929133861
0
LINE
8
BLACK
6
CONTINUOUS
10
3.0892691338582678
20
-6.1701716929133861
11
3.0877692913385828
21
-6.1671720472440947
0
LINE
8
BLACK
6
CONTINUOUS
10
3.0877692913385828
20
-6.1671720472440947
11
3.0877432283464565
21
-6.1670769291338585
0
LINE
8
BLACK
6
CONTINUOUS
10
3.0877432283464565
20
-6.1670769291338585
11
3.0877112992125983
21
-6.1670449999999999
0
LINE
8
BLACK
6
CONTINUOUS
10
3.0877112992125983
20
-6.1670449999999999
11
3.0876497244094487
21
-6.1667354724409451
0
LINE
8
BLACK
6
CONTINUOUS
10
3.0876497244094487
20
-6.1667354724409451
11
3.0875664173228348
21
-6.1664312598425193
0
LINE
8
BLACK
6
CONTINUOUS
10
3.0875664173228348
20
-6.1664312598425193
11
3.0875806692913383
21
-6.1663883858267718
0
LINE
8
BLACK
6
CONTINUOUS
10
3.0875806692913383
20
-6.1663883858267718
11
3.0875614566929133
21
-6.1662916929133855
0
LINE
8
BLACK
6
CONTINUOUS
10
3.0875614566929133
20
-6.1662916929133855
11
3.0875614566929133
21
-6.1602924409448816
0
LINE
8
BLACK
6
CONTINUOUS
10
3.0875614566929133
20
-6.1602924409448816
11
3.0875806692913383
21
-6.1601957086614174
0
LINE
8
BLACK
6
CONTINUOUS
10
3.0875806692913383
20
-6.1601957086614174
11
3.0875664173228348
21
-6.1601528740157478
0
LINE
8
BLACK
6
CONTINUOUS
10
3.0875664173228348
20
-6.1601528740157478
11
3.0876497244094487
21
-6.1598486220472441
0
LINE
8
BLACK
6
CONTINUOUS
10
3.0876497244094487
20
-6.1598486220472441
11
3.0877112992125983
21
-6.1595391338582672
0
LINE
8
BLACK
6
CONTINUOUS
10
3.0877112992125983
20
-6.1595391338582672
11
3.0877432283464565
21
-6.1595071653543307
0
LINE
8
BLACK
6
CONTINUOUS
10
3.0877432283464565
20
-6.1595071653543307
11
3.0877692913385828
21
-6.1594120866141733
0
LINE
8
BLACK
6
CONTINUOUS
10
3.0877692913385828
20
-6.1594120866141733
11
3.0892691338582678
21
-6.1564124803149607
0
LINE
8
BLACK
6
CONTINUOUS
10
3.0892691338582678
20
-6.1564124803149607
11
3.0894625590551179
21
-6.1561631889763779
0
LINE
8
BLACK
6
CONTINUOUS
10
3.0894625590551179
20
-6.1561631889763779
11
3.089637874015748
21
-6.1559009055118112
0
LINE
8
BLACK
6
CONTINUOUS
10
3.089637874015748
20
-6.1559009055118112
11
3.0911376377952755
21
-6.1544011023622049
0
LINE
8
BLACK
6
CONTINUOUS
10
3.0911376377952755
20
-6.1544011023622049
11
3.0914000787401572
21
-6.1542257086614169
0
LINE
8
BLACK
6
CONTINUOUS
10
3.0914000787401572
20
-6.1542257086614169
11
3.0916492519685037
21
-6.1540323622047239
0
LINE
8
BLACK
6
CONTINUOUS
10
3.0916492519685037
20
-6.1540323622047239
11
3.0946488188976375
21
-6.1525325196850389
0
LINE
8
BLACK
6
CONTINUOUS
10
3.0946488188976375
20
-6.1525325196850389
11
3.0947439370078738
21
-6.1525064566929135
0
LINE
8
BLACK
6
CONTINUOUS
10
3.0947439370078738
20
-6.1525064566929135
11
3.0947759055118111
21
-6.1524745275590549
0
LINE
8
BLACK
6
CONTINUOUS
10
3.0947759055118111
20
-6.1524745275590549
11
3.0950852755905509
21
-6.1524129527559053
0
LINE
8
BLACK
6
CONTINUOUS
10
3.0950852755905509
20
-6.1524129527559053
11
3.0953896062992126
21
-6.1523296456692913
0
LINE
8
BLACK
6
CONTINUOUS
10
3.0953896062992126
20
-6.1523296456692913
11
3.0954324409448817
21
-6.1523438976377953
0
LINE
8
BLACK
6
CONTINUOUS
10
3.0954324409448817
20
-6.1523438976377953
11
3.0955292125984251
21
-6.1523246850393702
0
LINE
8
BLACK
6
CONTINUOUS
10
3.0955292125984251
20
-6.1523246850393702
11
3.1045281102362203
21
-6.1523246850393702
0
LINE
8
BLACK
6
CONTINUOUS
10
3.1045281102362203
20
-6.1523246850393702
11
3.1046248031496062
21
-6.1523438976377953
0
LINE
8
BLACK
6
CONTINUOUS
10
3.0913486220472439
20
-6.1325425196850389
11
3.091498464566929
21
-6.1332958267716533
0
LINE
8
BLACK
6
CONTINUOUS
10
3.091498464566929
20
-6.1332958267716533
11
3.091498464566929
21
-6.1358267716535435
0
LINE
8
BLACK
6
CONTINUOUS
10
3.091498464566929
20
-6.1358267716535435
11
3.1060279133858266
21
-6.1358267716535435
0
LINE
8
BLACK
6
CONTINUOUS
10
3.1060279133858266
20
-6.1358267716535435
11
3.1061246062992125
21
-6.1358459842519686
0
LINE
8
BLACK
6
CONTINUOUS
10
3.1061246062992125
20
-6.1358459842519686
11
3.1061674409448816
21
-6.1358317322834646
0
LINE
8
BLACK
6
CONTINUOUS
10
3.1061674409448816
20
-6.1358317322834646
11
3.1064715354330708
21
-6.1359149999999998
0
LINE
8
BLACK
6
CONTINUOUS
10
3.1064715354330708
20
-6.1359149999999998
11
3.106781220472441
21
-6.1359766141732281
0
LINE
8
BLACK
6
CONTINUOUS
10
3.106781220472441
20
-6.1359766141732281
11
3.1068131496062992
21
-6.1360085433070868
0
LINE
8
BLACK
6
CONTINUOUS
10
3.1068131496062992
20
-6.1360085433070868
11
3.1069082283464566
21
-6.1360346062992122
0
LINE
8
BLACK
6
CONTINUOUS
10
3.1069082283464566
20
-6.1360346062992122
11
3.1099079133858267
21
-6.1375344094488185
0
LINE
8
BLACK
6
CONTINUOUS
10
3.1099079133858267
20
-6.1375344094488185
11
3.110217440944882
21
-6.1377746456692908
0
LINE
8
BLACK
6
CONTINUOUS
10
3.110217440944882
20
-6.1377746456692908
11
3.1103173228346455
21
-6.1378079527559057
0
LINE
8
BLACK
6
CONTINUOUS
10
3.1103173228346455
20
-6.1378079527559057
11
3.1104035826771654
21
-6.1379191338582677
0
LINE
8
BLACK
6
CONTINUOUS
10
3.1104035826771654
20
-6.1379191338582677
11
3.1105146456692911
21
-6.1380053149606297
0
LINE
8
BLACK
6
CONTINUOUS
10
3.1105146456692911
20
-6.1380053149606297
11
3.1105478740157482
21
-6.1381050393700782
0
LINE
8
BLACK
6
CONTINUOUS
10
3.1105478740157482
20
-6.1381050393700782
11
3.1107882283464567
21
-6.1384147244094489
0
LINE
8
BLACK
6
CONTINUOUS
10
3.1107882283464567
20
-6.1384147244094489
11
3.112288031496063
21
-6.1414143307086615
0
LINE
8
BLACK
6
CONTINUOUS
10
3.112288031496063
20
-6.1414143307086615
11
3.1123140551181101
21
-6.141509409448819
0
LINE
8
BLACK
6
CONTINUOUS
10
3.1123140551181101
20
-6.141509409448819
11
3.112346023622047
21
-6.1415413779527555
0
LINE
8
BLACK
6
CONTINUOUS
10
3.112346023622047
20
-6.1415413779527555
11
3.1124075590551179
21
-6.1418508661417324
0
LINE
8
BLACK
6
CONTINUOUS
10
3.1124075590551179
20
-6.1418508661417324
11
3.1124909055118111
21
-6.1421551181102361
0
LINE
8
BLACK
6
CONTINUOUS
10
3.1124909055118111
20
-6.1421551181102361
11
3.1124766141732283
21
-6.1421979527559056
0
LINE
8
BLACK
6
CONTINUOUS
10
3.1124766141732283
20
-6.1421979527559056
11
3.1124958661417321
21
-6.1422946850393698
0
LINE
8
BLACK
6
CONTINUOUS
10
3.1124958661417321
20
-6.1422946850393698
11
3.1124958661417321
21
-6.1452943307086612
0
LINE
8
BLACK
6
CONTINUOUS
10
3.1124958661417321
20
-6.1452943307086612
11
3.112346023622047
21
-6.1460476377952755
0
LINE
8
BLACK
6
CONTINUOUS
10
3.112346023622047
20
-6.1460476377952755
11
3.1112806692913386
21
-6.1471129921259839
0
LINE
8
BLACK
6
CONTINUOUS
10
3.1112806692913386
20
-6.1471129921259839
11
3.1097740551181103
21
-6.1471129921259839
0
LINE
8
BLACK
6
CONTINUOUS
10
3.1097740551181103
20
-6.1471129921259839
11
3.1087087007874015
21
-6.1460476377952755
0
LINE
8
BLACK
6
CONTINUOUS
10
3.1087087007874015
20
-6.1460476377952755
11
3.1085588582677164
21
-6.1452943307086612
0
LINE
8
BLACK
6
CONTINUOUS
10
3.1085588582677164
20
-6.1452943307086612
11
3.1085588582677164
21
-6.14275937007874
0
LINE
8
BLACK
6
CONTINUOUS
10
3.1085588582677164
20
-6.14275937007874
11
3.1075603149606299
21
-6.1407623228346457
0
LINE
8
BLACK
6
CONTINUOUS
10
3.1075603149606299
20
-6.1407623228346457
11
3.1055632677165352
21
-6.1397637795275593
0
LINE
8
BLACK
6
CONTINUOUS
10
3.1055632677165352
20
-6.1397637795275593
11
3.091498464566929
21
-6.1397637795275593
0
LINE
8
BLACK
6
CONTINUOUS
10
3.091498464566929
20
-6.1397637795275593
11
3.091498464566929
21
-6.1452943307086612
0
LINE
8
BLACK
6
CONTINUOUS
10
3.091498464566929
20
-6.1452943307086612
11
3.0913486220472439
21
-6.1460476377952755
0
LINE
8
BLACK
6
CONTINUOUS
10
3.0913486220472439
20
-6.1460476377952755
11
3.0902832677165355
21
-6.1471129921259839
0
LINE
8
BLACK
6
CONTINUOUS
10
3.0902832677165355
20
-6.1471129921259839
11
3.0887766535433072
21
-6.1471129921259839
0
LINE
8
BLACK
6
CONTINUOUS
10
3.0887766535433072
20
-6.1471129921259839
11
3.0877112992125983
21
-6.1460476377952755
0
LINE
8
BLACK
6
CONTINUOUS
10
3.0877112992125983
20
-6.1460476377952755
11
3.0875614566929133
21
-6.1452943307086612
0
LINE
8
BLACK
6
CONTINUOUS
10
3.0875614566929133
20
-6.1452943307086612
11
3.0875614566929133
21
-6.1397637795275593
0
LINE
8
BLACK
6
CONTINUOUS
10
3.0875614566929133
20
-6.1397637795275593
11
3.0790312992125983
21
-6.1397637795275593
0
LINE
8
BLACK
6
CONTINUOUS
10
3.0790312992125983
20
-6.1397637795275593
11
3.078277992125984
21
-6.1396139370078737
0
LINE
8
BLACK
6
CONTINUOUS
10
3.078277992125984
20
-6.1396139370078737
11
3.0772126377952755
21
-6.1385485826771653
0
LINE
8
BLACK
6
CONTINUOUS
10
3.0772126377952755
20
-6.1385485826771653
11
3.0772126377952755
21
-6.1370419685039366
0
LINE
8
BLACK
6
CONTINUOUS
10
3.0772126377952755
20
-6.1370419685039366
11
3.078277992125984
21
-6.1359766141732281
0
LINE
8
BLACK
6
CONTINUOUS
10
3.078277992125984
20
-6.1359766141732281
11
3.0790312992125983
21
-6.1358267716535435
0
LINE
8
BLACK
6
CONTINUOUS
10
3.0790312992125983
20
-6.1358267716535435
11
3.0875614566929133
21
-6.1358267716535435
0
LINE
8
BLACK
6
CONTINUOUS
10
3.0875614566929133
20
-6.1358267716535435
11
3.0875614566929133
21
-6.1332958267716533
0
LINE
8
BLACK
6
CONTINUOUS
10
3.0875614566929133
20
-6.1332958267716533
11
3.0877112992125983
21
-6.1325425196850389
0
LINE
8
BLACK
6
CONTINUOUS
10
3.0877112992125983
20
-6.1325425196850389
11
3.0887766535433072
21
-6.1314771653543305
0
LINE
8
BLACK
6
CONTINUOUS
10
3.0887766535433072
20
-6.1314771653543305
11
3.0902832677165355
21
-6.1314771653543305
0
LINE
8
BLACK
6
CONTINUOUS
10
3.0902832677165355
20
-6.1314771653543305
11
3.0913486220472439
21
-6.1325425196850389
0
LINE
8
BLACK
6
CONTINUOUS
10
3.0819230708661416
20
-6.1199053937007877
11
3.0834228740157479
21
-6.1214052362204727
0
LINE
8
BLACK
6
CONTINUOUS
10
3.0834228740157479
20
-6.1214052362204727
11
3.0838495669291337
21
-6.1220438582677161
0
LINE
8
BLACK
6
CONTINUOUS
10
3.0838495669291337
20
-6.1220438582677161
11
3.0838495669291337
21
-6.1235505118110236
0
LINE
8
BLACK
6
CONTINUOUS
10
3.0838495669291337
20
-6.1235505118110236
11
3.0834228346456691
21
-6.1241891338582679
0
LINE
8
BLACK
6
CONTINUOUS
10
3.0834228346456691
20
-6.1241891338582679
11
3.0819230314960628
21
-6.1256888976377954
0
LINE
8
BLACK
6
CONTINUOUS
10
3.0819230314960628
20
-6.1256888976377954
11
3.081284409448819
21
-6.1261156299212596
0
LINE
8
BLACK
6
CONTINUOUS
10
3.081284409448819
20
-6.1261156299212596
11
3.0797777952755907
21
-6.1261156299212596
0
LINE
8
BLACK
6
CONTINUOUS
10
3.0797777952755907
20
-6.1261156299212596
11
3.0797777559055119
21
-6.1261156299212596
0
LINE
8
BLACK
6
CONTINUOUS
10
3.0797777559055119
20
-6.1261156299212596
11
3.0791391338582677
21
-6.1256888976377954
0
LINE
8
BLACK
6
CONTINUOUS
10
3.0791391338582677
20
-6.1256888976377954
11
3.0776393700787401
21
-6.1241890944881892
0
LINE
8
BLACK
6
CONTINUOUS
10
3.0776393700787401
20
-6.1241890944881892
11
3.077212716535433
21
-6.1235505905511811
0
LINE
8
BLACK
6
CONTINUOUS
10
3.077212716535433
20
-6.1235505905511811
11
3.0772126377952755
21
-6.1235505118110236
0
LINE
8
BLACK
6
CONTINUOUS
10
3.0772126377952755
20
-6.1235505118110236
11
3.0772126377952755
21
-6.1220438582677161
0
LINE
8
BLACK
6
CONTINUOUS
10
3.0772126377952755
20
-6.1220438582677161
11
3.0776393307086614
21
-6.1214052362204727
0
LINE
8
BLACK
6
CONTINUOUS
10
3.0776393307086614
20
-6.1214052362204727
11
3.0791391338582677
21
-6.1199053937007877
0
LINE
8
BLACK
6
CONTINUOUS
10
3.0791391338582677
20
-6.1199053937007877
11
3.0797777559055119
21
-6.1194787007874014
0
LINE
8
BLACK
6
CONTINUOUS
10
3.0797777559055119
20
-6.1194787007874014
11
3.0797777952755907
21
-6.1194786614173227
0
LINE
8
BLACK
6
CONTINUOUS
10
3.0797777952755907
20
-6.1194786614173227
11
3.0812844488188977
21
-6.1194786614173227
0
LINE
8
BLACK
6
CONTINUOUS
10
3.0812844488188977
20
-6.1194786614173227
11
3.0819230708661416
21
-6.1199053937007877
0
LINE
8
BLACK
6
CONTINUOUS
10
3.1112806692913386
20
-6.1209785039370077
11
3.112346023622047
21
-6.1220438582677161
0
LINE
8
BLACK
6
CONTINUOUS
10
3.112346023622047
20
-6.1220438582677161
11
3.112346023622047
21
-6.1235504724409449
0
LINE
8
BLACK
6
CONTINUOUS
10
3.112346023622047
20
-6.1235504724409449
11
3.1112806692913386
21
-6.1246158267716533
0
LINE
8
BLACK
6
CONTINUOUS
10
3.1112806692913386
20
-6.1246158267716533
11
3.1105273622047243
21
-6.1247656692913388
0
LINE
8
BLACK
6
CONTINUOUS
10
3.1105273622047243
20
-6.1247656692913388
11
3.0895299606299211
21
-6.1247656692913388
0
LINE
8
BLACK
6
CONTINUOUS
10
3.0895299606299211
20
-6.1247656692913388
11
3.0887766535433072
21
-6.1246158267716533
0
LINE
8
BLACK
6
CONTINUOUS
10
3.0887766535433072
20
-6.1246158267716533
11
3.0877112992125983
21
-6.1235504724409449
0
LINE
8
BLACK
6
CONTINUOUS
10
3.0877112992125983
20
-6.1235504724409449
11
3.0877112992125983
21
-6.1220438582677161
0
LINE
8
BLACK
6
CONTINUOUS
10
3.0877112992125983
20
-6.1220438582677161
11
3.0887766535433072
21
-6.1209785039370077
0
LINE
8
BLACK
6
CONTINUOUS
10
3.0887766535433072
20
-6.1209785039370077
11
3.0895299606299211
21
-6.1208286614173231
0
LINE
8
BLACK
6
CONTINUOUS
10
3.0895299606299211
20
-6.1208286614173231
11
3.1105273622047243
21
-6.1208286614173231
0
LINE
8
BLACK
6
CONTINUOUS
10
3.1105273622047243
20
-6.1208286614173231
11
3.1112806692913386
21
-6.1209785039370077
0
LINE
8
BLACK
6
CONTINUOUS
10
3.0900707480314962
20
-6.0849088976377947
11
3.1110681496062993
21
-6.0909081496062987
0
LINE
8
BLACK
6
CONTINUOUS
10
3.1110681496062993
20
-6.0909081496062987
11
3.1117513385826769
21
-6.0912591732283463
0
LINE
8
BLACK
6
CONTINUOUS
10
3.1117513385826769
20
-6.0912591732283463
11
3.1118151968503938
21
-6.0913741732283464
0
LINE
8
BLACK
6
CONTINUOUS
10
3.1118151968503938
20
-6.0913741732283464
11
3.111936181102362
21
-6.0914260236220468
0
LINE
8
BLACK
6
CONTINUOUS
10
3.111936181102362
20
-6.0914260236220468
11
3.1121731496062992
21
-6.0920185039370081
0
LINE
8
BLACK
6
CONTINUOUS
10
3.1121731496062992
20
-6.0920185039370081
11
3.112482992125984
21
-6.0925762204724405
0
LINE
8
BLACK
6
CONTINUOUS
10
3.112482992125984
20
-6.0925762204724405
11
3.1124468110236219
21
-6.0927027165354328
0
LINE
8
BLACK
6
CONTINUOUS
10
3.1124468110236219
20
-6.0927027165354328
11
3.1124957086614171
21
-6.0928248818897632
0
LINE
8
BLACK
6
CONTINUOUS
10
3.1124957086614171
20
-6.0928248818897632
11
3.1122443700787401
21
-6.0934113385826771
0
LINE
8
BLACK
6
CONTINUOUS
10
3.1122443700787401
20
-6.0934113385826771
11
3.1120690944881888
21
-6.0940248425196852
0
LINE
8
BLACK
6
CONTINUOUS
10
3.1120690944881888
20
-6.0940248425196852
11
3.11195405511811
21
-6.0940887007874016
0
LINE
8
BLACK
6
CONTINUOUS
10
3.11195405511811
20
-6.0940887007874016
11
3.1119022440944879
21
-6.0942097244094491
0
LINE
8
BLACK
6
CONTINUOUS
10
3.1119022440944879
20
-6.0942097244094491
11
3.1112584645669292
21
-6.0946286220472441
0
LINE
8
BLACK
6
CONTINUOUS
10
3.1112584645669292
20
-6.0946286220472441
11
3.1008296062992127
21
-6.0988001574803148
0
LINE
8
BLACK
6
CONTINUOUS
10
3.1008296062992127
20
-6.0988001574803148
11
3.1112584645669292
21
-6.1029716929133855
0
LINE
8
BLACK
6
CONTINUOUS
10
3.1112584645669292
20
-6.1029716929133855
11
3.1119022440944879
21
-6.1033905905511814
0
LINE
8
BLACK
6
CONTINUOUS
10
3.1119022440944879
20
-6.1033905905511814
11
3.11195405511811
21
-6.1035115748031492
0
LINE
8
BLACK
6
CONTINUOUS
10
3.11195405511811
20
-6.1035115748031492
11
3.1120690944881888
21
-6.1035754724409443
0
LINE
8
BLACK
6
CONTINUOUS
10
3.1120690944881888
20
-6.1035754724409443
11
3.1122443700787401
21
-6.1041889370078737
0
LINE
8
BLACK
6
CONTINUOUS
10
3.1122443700787401
20
-6.1041889370078737
11
3.1124957086614171
21
-6.1047754330708663
0
LINE
8
BLACK
6
CONTINUOUS
10
3.1124957086614171
20
-6.1047754330708663
11
3.1124468110236219
21
-6.104897559055118
0
LINE
8
BLACK
6
CONTINUOUS
10
3.1124468110236219
20
-6.104897559055118
11
3.112482992125984
21
-6.1050240944881891
0
LINE
8
BLACK
6
CONTINUOUS
10
3.112482992125984
20
-6.1050240944881891
11
3.1121731496062992
21
-6.1055817716535428
0
LINE
8
BLACK
6
CONTINUOUS
10
3.1121731496062992
20
-6.1055817716535428
11
3.111936181102362
21
-6.1061742913385828
0
LINE
8
BLACK
6
CONTINUOUS
10
3.111936181102362
20
-6.1061742913385828
11
3.1118151968503938
21
-6.1062261023622044
0
LINE
8
BLACK
6
CONTINUOUS
10
3.1118151968503938
20
-6.1062261023622044
11
3.1117513385826769
21
-6.1063411417322833
0
LINE
8
BLACK
6
CONTINUOUS
10
3.1117513385826769
20
-6.1063411417322833
11
3.1110681496062993
21
-6.1066921653543309
0
LINE
8
BLACK
6
CONTINUOUS
10
3.1110681496062993
20
-6.1066921653543309
11
3.0900707480314962
21
-6.1126914173228348
0
LINE
8
BLACK
6
CONTINUOUS
10
3.0900707480314962
20
-6.1126914173228348
11
3.0893052755905512
21
-6.1127542913385824
0
LINE
8
BLACK
6
CONTINUOUS
10
3.0893052755905512
20
-6.1127542913385824
11
3.0879882283464566
21
-6.112022598425197
0
LINE
8
BLACK
6
CONTINUOUS
10
3.0879882283464566
20
-6.112022598425197
11
3.0875743307086614
21
-6.1105739763779523
0
LINE
8
BLACK
6
CONTINUOUS
10
3.0875743307086614
20
-6.1105739763779523
11
3.0883060236220472
21
-6.1092569291338581
0
LINE
8
BLACK
6
CONTINUOUS
10
3.0883060236220472
20
-6.1092569291338581
11
3.0889891732283465
21
-6.1089059055118105
0
LINE
8
BLACK
6
CONTINUOUS
10
3.0889891732283465
20
-6.1089059055118105
11
3.1044498425196849
21
-6.1044885433070863
0
LINE
8
BLACK
6
CONTINUOUS
10
3.1044498425196849
20
-6.1044885433070863
11
3.0947981102362205
21
-6.100627874015748
0
LINE
8
BLACK
6
CONTINUOUS
10
3.0947981102362205
20
-6.100627874015748
11
3.0941543700787402
21
-6.100208976377953
0
LINE
8
BLACK
6
CONTINUOUS
10
3.0941543700787402
20
-6.100208976377953
11
3.0941441732283463
21
-6.1001851574803148
0
LINE
8
BLACK
6
CONTINUOUS
10
3.0941441732283463
20
-6.1001851574803148
11
3.0941203937007873
21
-6.1001750000000001
0
LINE
8
BLACK
6
CONTINUOUS
10
3.0941203937007873
20
-6.1001750000000001
11
3.0938485826771651
21
-6.0994954724409451
0
LINE
8
BLACK
6
CONTINUOUS
10
3.0938485826771651
20
-6.0994954724409451
11
3.0935608661417322
21
-6.0988241338582672
0
LINE
8
BLACK
6
CONTINUOUS
10
3.0935608661417322
20
-6.0988241338582672
11
3.093570433070866
21
-6.0988001574803148
0
LINE
8
BLACK
6
CONTINUOUS
10
3.093570433070866
20
-6.0988001574803148
11
3.0935608661417322
21
-6.0987761811023624
0
LINE
8
BLACK
6
CONTINUOUS
10
3.0935608661417322
20
-6.0987761811023624
11
3.0938485826771651
21
-6.0981048425196853
0
LINE
8
BLACK
6
CONTINUOUS
10
3.0938485826771651
20
-6.0981048425196853
11
3.0941203937007873
21
-6.0974253149606294
0
LINE
8
BLACK
6
CONTINUOUS
10
3.0941203937007873
20
-6.0974253149606294
11
3.0941441732283463
21
-6.0974151181102361
0
LINE
8
BLACK
6
CONTINUOUS
10
3.0941441732283463
20
-6.0974151181102361
11
3.0941543700787402
21
-6.0973913385826775
0
LINE
8
BLACK
6
CONTINUOUS
10
3.0941543700787402
20
-6.0973913385826775
11
3.0947981102362205
21
-6.0969724409448816
0
LINE
8
BLACK
6
CONTINUOUS
10
3.0947981102362205
20
-6.0969724409448816
11
3.1044498425196849
21
-6.0931117322834645
0
LINE
8
BLACK
6
CONTINUOUS
10
3.1044498425196849
20
-6.0931117322834645
11
3.0889891732283465
21
-6.0886944094488191
0
LINE
8
BLACK
6
CONTINUOUS
10
3.0889891732283465
20
-6.0886944094488191
11
3.0883060236220472
21
-6.0883433858267715
0
LINE
8
BLACK
6
CONTINUOUS
10
3.0883060236220472
20
-6.0883433858267715
11
3.0875743307086614
21
-6.0870263385826773
0
LINE
8
BLACK
6
CONTINUOUS
10
3.0875743307086614
20
-6.0870263385826773
11
3.0879882283464566
21
-6.0855777165354326
0
LINE
8
BLACK
6
CONTINUOUS
10
3.0879882283464566
20
-6.0855777165354326
11
3.0893052755905512
21
-6.0848460236220472
0
LINE
8
BLACK
6
CONTINUOUS
10
3.0893052755905512
20
-6.0848460236220472
11
3.0900707480314962
21
-6.0849088976377947
0
LINE
8
BLACK
6
CONTINUOUS
10
3.0881268503937007
20
-6.0563559055118112
11
3.0881697244094486
21
-6.0563416535433072
0
LINE
8
BLACK
6
CONTINUOUS
10
3.0881697244094486
20
-6.0563416535433072
11
3.088473937007874
21
-6.0564249606299212
0
LINE
8
BLACK
6
CONTINUOUS
10
3.088473937007874
20
-6.0564249606299212
11
3.0887834645669292
21
-6.0564865354330708
0
LINE
8
BLACK
6
CONTINUOUS
10
3.0887834645669292
20
-6.0564865354330708
11
3.0888153937007874
21
-6.0565184645669294
0
LINE
8
BLACK
6
CONTINUOUS
10
3.0888153937007874
20
-6.0565184645669294
11
3.0889105118110236
21
-6.0565445275590548
0
LINE
8
BLACK
6
CONTINUOUS
10
3.0889105118110236
20
-6.0565445275590548
11
3.0919101574803149
21
-6.0580443700787399
0
LINE
8
BLACK
6
CONTINUOUS
10
3.0919101574803149
20
-6.0580443700787399
11
3.092159409448819
21
-6.0582377952755904
0
LINE
8
BLACK
6
CONTINUOUS
10
3.092159409448819
20
-6.0582377952755904
11
3.0924217322834644
21
-6.05841311023622
0
LINE
8
BLACK
6
CONTINUOUS
10
3.0924217322834644
20
-6.05841311023622
11
3.0939215354330707
21
-6.0599128740157475
0
LINE
8
BLACK
6
CONTINUOUS
10
3.0939215354330707
20
-6.0599128740157475
11
3.0940968897637795
21
-6.0601753149606301
0
LINE
8
BLACK
6
CONTINUOUS
10
3.0940968897637795
20
-6.0601753149606301
11
3.0942902755905513
21
-6.0604244881889766
0
LINE
8
BLACK
6
CONTINUOUS
10
3.0942902755905513
20
-6.0604244881889766
11
3.0957900787401575
21
-6.0634240944881892
0
LINE
8
BLACK
6
CONTINUOUS
10
3.0957900787401575
20
-6.0634240944881892
11
3.0958470078740157
21
-6.0636320078740154
0
LINE
8
BLACK
6
CONTINUOUS
10
3.0958470078740157
20
-6.0636320078740154
11
3.0959391338582676
21
-6.063827007874016
0
LINE
8
BLACK
6
CONTINUOUS
10
3.0959391338582676
20
-6.063827007874016
11
3.0973864960629922
21
-6.0696165748031499
0
LINE
8
BLACK
6
CONTINUOUS
10
3.0973864960629922
20
-6.0696165748031499
11
3.0986468503937008
21
-6.072137283464567
0
LINE
8
BLACK
6
CONTINUOUS
10
3.0986468503937008
20
-6.072137283464567
11
3.0996949212598426
21
-6.0731853149606296
0
LINE
8
BLACK
6
CONTINUOUS
10
3.0996949212598426
20
-6.0731853149606296
11
3.1019931496062991
21
-6.0743344488188971
0
LINE
8
BLACK
6
CONTINUOUS
10
3.1019931496062991
20
-6.0743344488188971
11
3.1040634251968502
21
-6.0743344488188971
0
LINE
8
BLACK
6
CONTINUOUS
10
3.1040634251968502
20
-6.0743344488188971
11
3.1063616141732284
21
-6.0731853149606296
0
LINE
8
BLACK
6
CONTINUOUS
10
3.1063616141732284
20
-6.0731853149606296
11
3.1074097637795273
21
-6.0721371653543308
0
LINE
8
BLACK
6
CONTINUOUS
10
3.1074097637795273
20
-6.0721371653543308
11
3.1085588582677164
21
-6.0698390157480313
0
LINE
8
BLACK
6
CONTINUOUS
10
3.1085588582677164
20
-6.0698390157480313
11
3.1085588582677164
21
-6.0631240157480315
0
LINE
8
BLACK
6
CONTINUOUS
10
3.1085588582677164
20
-6.0631240157480315
11
3.1071600787401574
21
-6.0589276771653546
0
LINE
8
BLACK
6
CONTINUOUS
10
3.1071600787401574
20
-6.0589276771653546
11
3.1070640157480316
21
-6.0581656692913386
0
LINE
8
BLACK
6
CONTINUOUS
10
3.1070640157480316
20
-6.0581656692913386
11
3.1077377952755905
21
-6.0568180708661412
0
LINE
8
BLACK
6
CONTINUOUS
10
3.1077377952755905
20
-6.0568180708661412
11
3.109167086614173
21
-6.0563416535433072
0
LINE
8
BLACK
6
CONTINUOUS
10
3.109167086614173
20
-6.0563416535433072
11
3.1105146850393699
21
-6.0570154330708661
0
LINE
8
BLACK
6
CONTINUOUS
10
3.1105146850393699
20
-6.0570154330708661
11
3.1108950393700785
21
-6.0576827165354326
0
LINE
8
BLACK
6
CONTINUOUS
10
3.1108950393700785
20
-6.0576827165354326
11
3.1123948425196848
21
-6.0621821653543302
0
LINE
8
BLACK
6
CONTINUOUS
10
3.1123948425196848
20
-6.0621821653543302
11
3.1124342913385825
21
-6.0624950787401577
0
LINE
8
BLACK
6
CONTINUOUS
10
3.1124342913385825
20
-6.0624950787401577
11
3.1124958661417321
21
-6.0628046456692912
0
LINE
8
BLACK
6
CONTINUOUS
10
3.1124958661417321
20
-6.0628046456692912
11
3.1124958661417321
21
-6.0703037007874014
0
LINE
8
BLACK
6
CONTINUOUS
10
3.1124958661417321
20
-6.0703037007874014
11
3.1124766141732283
21
-6.0704003937007869
0
LINE
8
BLACK
6
CONTINUOUS
10
3.1124766141732283
20
-6.0704003937007869
11
3.1124909055118111
21
-6.0704432283464564
0
LINE
8
BLACK
6
CONTINUOUS
10
3.1124909055118111
20
-6.0704432283464564
11
3.1124075590551179
21
-6.0707475196850389
0
LINE
8
BLACK
6
CONTINUOUS
10
3.1124075590551179
20
-6.0707475196850389
11
3.112346023622047
21
-6.0710570078740158
0
LINE
8
BLACK
6
CONTINUOUS
10
3.112346023622047
20
-6.0710570078740158
11
3.1123140944881889
21
-6.0710888976377948
0
LINE
8
BLACK
6
CONTINUOUS
10
3.1123140944881889
20
-6.0710888976377948
11
3.1122880708661418
21
-6.071184015748031
0
LINE
8
BLACK
6
CONTINUOUS
10
3.1122880708661418
20
-6.071184015748031
11
3.1107882283464567
21
-6.0741836614173224
0
LINE
8
BLACK
6
CONTINUOUS
10
3.1107882283464567
20
-6.0741836614173224
11
3.1105949212598425
21
-6.0744326771653538
0
LINE
8
BLACK
6
CONTINUOUS
10
3.1105949212598425
20
-6.0744326771653538
11
3.1104194881889762
21
-6.0746953149606302
0
LINE
8
BLACK
6
CONTINUOUS
10
3.1104194881889762
20
-6.0746953149606302
11
3.1089196456692911
21
-6.0761951181102365
0
LINE
8
BLACK
6
CONTINUOUS
10
3.1089196456692911
20
-6.0761951181102365
11
3.1086572047244094
21
-6.0763704330708661
0
LINE
8
BLACK
6
CONTINUOUS
10
3.1086572047244094
20
-6.0763704330708661
11
3.1084080708661417
21
-6.0765638188976379
0
LINE
8
BLACK
6
CONTINUOUS
10
3.1084080708661417
20
-6.0765638188976379
11
3.1054084645669291
21
-6.0780636220472442
0
LINE
8
BLACK
6
CONTINUOUS
10
3.1054084645669291
20
-6.0780636220472442
11
3.1053133464566929
21
-6.0780896456692908
0
LINE
8
BLACK
6
CONTINUOUS
10
3.1053133464566929
20
-6.0780896456692908
11
3.1052814173228347
21
-6.0781216141732282
0
LINE
8
BLACK
6
CONTINUOUS
10
3.1052814173228347
20
-6.0781216141732282
11
3.1049718897637795
21
-6.078183149606299
0
LINE
8
BLACK
6
CONTINUOUS
10
3.1049718897637795
20
-6.078183149606299
11
3.1046676771653541
21
-6.0782664960629917
0
LINE
8
BLACK
6
CONTINUOUS
10
3.1046676771653541
20
-6.0782664960629917
11
3.1046248031496062
21
-6.078252204724409
0
LINE
8
BLACK
6
CONTINUOUS
10
3.1046248031496062
20
-6.078252204724409
11
3.1045281102362203
21
-6.0782714566929137
0
LINE
8
BLACK
6
CONTINUOUS
10
3.1045281102362203
20
-6.0782714566929137
11
3.101528464566929
21
-6.0782714566929137
0
LINE
8
BLACK
6
CONTINUOUS
10
3.101528464566929
20
-6.0782714566929137
11
3.1014317322834644
21
-6.078252204724409
0
LINE
8
BLACK
6
CONTINUOUS
10
3.1014317322834644
20
-6.078252204724409
11
3.1013888976377952
21
-6.0782664960629917
0
LINE
8
BLACK
6
CONTINUOUS
10
3.1013888976377952
20
-6.0782664960629917
11
3.1010846456692911
21
-6.078183149606299
0
LINE
8
BLACK
6
CONTINUOUS
10
3.1010846456692911
20
-6.078183149606299
11
3.1007751574803151
21
-6.0781216141732282
0
LINE
8
BLACK
6
CONTINUOUS
10
3.1007751574803151
20
-6.0781216141732282
11
3.1007431889763777
21
-6.0780896456692908
0
LINE
8
BLACK
6
CONTINUOUS
10
3.1007431889763777
20
-6.0780896456692908
11
3.1006481102362202
21
-6.0780636220472442
0
LINE
8
BLACK
6
CONTINUOUS
10
3.1006481102362202
20
-6.0780636220472442
11
3.0976485039370076
21
-6.0765638188976379
0
LINE
8
BLACK
6
CONTINUOUS
10
3.0976485039370076
20
-6.0765638188976379
11
3.0973993307086611
21
-6.0763704330708661
0
LINE
8
BLACK
6
CONTINUOUS
10
3.0973993307086611
20
-6.0763704330708661
11
3.0971368897637794
21
-6.0761950787401577
0
LINE
8
BLACK
6
CONTINUOUS
10
3.0971368897637794
20
-6.0761950787401577
11
3.0956371259842519
21
-6.0746952755905514
0
LINE
8
BLACK
6
CONTINUOUS
10
3.0956371259842519
20
-6.0746952755905514
11
3.0954618110236218
21
-6.0744329527559051
0
LINE
8
BLACK
6
CONTINUOUS
10
3.0954618110236218
20
-6.0744329527559051
11
3.0952683858267718
21
-6.0741837007874011
0
LINE
8
BLACK
6
CONTINUOUS
10
3.0952683858267718
20
-6.0741837007874011
11
3.0937685433070867
21
-6.0711840551181098
0
LINE
8
BLACK
6
CONTINUOUS
10
3.0937685433070867
20
-6.0711840551181098
11
3.0937115748031494
21
-6.0709761023622049
0
LINE
8
BLACK
6
CONTINUOUS
10
3.0937115748031494
20
-6.0709761023622049
11
3.0936194881889763
21
-6.070781141732283
0
LINE
8
BLACK
6
CONTINUOUS
10
3.0936194881889763
20
-6.070781141732283
11
3.0921720472440946
21
-6.0649914566929128
0
LINE
8
BLACK
6
CONTINUOUS
10
3.0921720472440946
20
-6.0649914566929128
11
3.090911771653543
21
-6.0624709055118107
0
LINE
8
BLACK
6
CONTINUOUS
10
3.090911771653543
20
-6.0624709055118107
11
3.0898637401574804
21
-6.0614228346456693
0
LINE
8
BLACK
6
CONTINUOUS
10
3.0898637401574804
20
-6.0614228346456693
11
3.0875654724409447
21
-6.060273700787401
0
LINE
8
BLACK
6
CONTINUOUS
10
3.0875654724409447
20
-6.060273700787401
11
3.0854952362204724
21
-6.060273700787401
0
LINE
8
BLACK
6
CONTINUOUS
10
3.0854952362204724
20
-6.060273700787401
11
3.0831969685039371
21
-6.0614228346456693
0
LINE
8
BLACK
6
CONTINUOUS
10
3.0831969685039371
20
-6.0614228346456693
11
3.0821488976377953
21
-6.0624708661417319
0
LINE
8
BLACK
6
CONTINUOUS
10
3.0821488976377953
20
-6.0624708661417319
11
3.0809998031496062
21
-6.0647691338582677
0
LINE
8
BLACK
6
CONTINUOUS
10
3.0809998031496062
20
-6.0647691338582677
11
3.0809998031496062
21
-6.0714841338582675
0
LINE
8
BLACK
6
CONTINUOUS
10
3.0809998031496062
20
-6.0714841338582675
11
3.0823985826771652
21
-6.0756804724409443
0
LINE
8
BLACK
6
CONTINUOUS
10
3.0823985826771652
20
-6.0756804724409443
11
3.0824946456692914
21
-6.0764424803149604
0
LINE
8
BLACK
6
CONTINUOUS
10
3.0824946456692914
20
-6.0764424803149604
11
3.0818208661417321
21
-6.0777900787401578
0
LINE
8
BLACK
6
CONTINUOUS
10
3.0818208661417321
20
-6.0777900787401578
11
3.0803915748031496
21
-6.0782664960629917
0
LINE
8
BLACK
6
CONTINUOUS
10
3.0803915748031496
20
-6.0782664960629917
11
3.0790439763779527
21
-6.0775927165354329
0
LINE
8
BLACK
6
CONTINUOUS
10
3.0790439763779527
20
-6.0775927165354329
11
3.0786636220472441
21
-6.0769254330708664
0
LINE
8
BLACK
6
CONTINUOUS
10
3.0786636220472441
20
-6.0769254330708664
11
3.0771638188976378
21
-6.0724260236220475
0
LINE
8
BLACK
6
CONTINUOUS
10
3.0771638188976378
20
-6.0724260236220475
11
3.0771243307086613
21
-6.0721130708661413
0
LINE
8
BLACK
6
CONTINUOUS
10
3.0771243307086613
20
-6.0721130708661413
11
3.0770627952755905
21
-6.0718035433070865
0
LINE
8
BLACK
6
CONTINUOUS
10
3.0770627952755905
20
-6.0718035433070865
11
3.0770627952755905
21
-6.0643044488188975
0
LINE
8
BLACK
6
CONTINUOUS
10
3.0770627952755905
20
-6.0643044488188975
11
3.0770820078740155
21
-6.0642077165354333
0
LINE
8
BLACK
6
CONTINUOUS
10
3.0770820078740155
20
-6.0642077165354333
11
3.077067755905512
21
-6.0641648818897638
0
LINE
8
BLACK
6
CONTINUOUS
10
3.077067755905512
20
-6.0641648818897638
11
3.0771510629921259
21
-6.0638606299212601
0
LINE
8
BLACK
6
CONTINUOUS
10
3.0771510629921259
20
-6.0638606299212601
11
3.0772126377952755
21
-6.0635511417322832
0
LINE
8
BLACK
6
CONTINUOUS
10
3.0772126377952755
20
-6.0635511417322832
11
3.0772445669291337
21
-6.0635191732283467
0
LINE
8
BLACK
6
CONTINUOUS
10
3.0772445669291337
20
-6.0635191732283467
11
3.07727062992126
21
-6.0634240944881892
0
LINE
8
BLACK
6
CONTINUOUS
10
3.07727062992126
20
-6.0634240944881892
11
3.0787704330708663
21
-6.0604244881889766
0
LINE
8
BLACK
6
CONTINUOUS
10
3.0787704330708663
20
-6.0604244881889766
11
3.0789639370078739
21
-6.0601750787401576
0
LINE
8
BLACK
6
CONTINUOUS
10
3.0789639370078739
20
-6.0601750787401576
11
3.0791391732283464
21
-6.0599129133858263
0
LINE
8
BLACK
6
CONTINUOUS
10
3.0791391732283464
20
-6.0599129133858263
11
3.0806389370078739
21
-6.05841311023622
0
LINE
8
BLACK
6
CONTINUOUS
10
3.0806389370078739
20
-6.05841311023622
11
3.0809013779527556
21
-6.0582377165354329
0
LINE
8
BLACK
6
CONTINUOUS
10
3.0809013779527556
20
-6.0582377165354329
11
3.0811505511811021
21
-6.0580443700787399
0
LINE
8
BLACK
6
CONTINUOUS
10
3.0811505511811021
20
-6.0580443700787399
11
3.0841501968503935
21
-6.0565445275590548
0
LINE
8
BLACK
6
CONTINUOUS
10
3.0841501968503935
20
-6.0565445275590548
11
3.0842452755905509
21
-6.0565184645669294
0
LINE
8
BLACK
6
CONTINUOUS
10
3.0842452755905509
20
-6.0565184645669294
11
3.0842772440944883
21
-6.0564865354330708
0
LINE
8
BLACK
6
CONTINUOUS
10
3.0842772440944883
20
-6.0564865354330708
11
3.0845867322834644
21
-6.0564249606299212
0
LINE
8
BLACK
6
CONTINUOUS
10
3.0845867322834644
20
-6.0564249606299212
11
3.0848909842519685
21
-6.0563416535433072
0
LINE
8
BLACK
6
CONTINUOUS
10
3.0848909842519685
20
-6.0563416535433072
11
3.0849338188976376
21
-6.0563559055118112
0
LINE
8
BLACK
6
CONTINUOUS
10
3.0849338188976376
20
-6.0563559055118112
11
3.0850305511811023
21
-6.0563366929133853
0
LINE
8
BLACK
6
CONTINUOUS
10
3.0850305511811023
20
-6.0563366929133853
11
3.0880301574803148
21
-6.0563366929133853
0
LINE
8
BLACK
6
CONTINUOUS
10
3.0880301574803148
20
-6.0563366929133853
11
3.0881268503937007
21
-6.0563559055118112
0
LINE
8
BLACK
6
CONTINUOUS
10
3.1153456299212596
20
-6.0275556692913383
11
3.1154954724409447
21
-6.0283089763779527
0
LINE
8
BLACK
6
CONTINUOUS
10
3.1154954724409447
20
-6.0283089763779527
11
3.1154954724409447
21
-6.0523059448818897
0
LINE
8
BLACK
6
CONTINUOUS
10
3.1154954724409447
20
-6.0523059448818897
11
3.1153456299212596
21
-6.053059251968504
0
LINE
8
BLACK
6
CONTINUOUS
10
3.1153456299212596
20
-6.053059251968504
11
3.1142802755905512
21
-6.0541246062992125
0
LINE
8
BLACK
6
CONTINUOUS
10
3.1142802755905512
20
-6.0541246062992125
11
3.1127736614173229
21
-6.0541246062992125
0
LINE
8
BLACK
6
CONTINUOUS
10
3.1127736614173229
20
-6.0541246062992125
11
3.1117083070866141
21
-6.053059251968504
0
LINE
8
BLACK
6
CONTINUOUS
10
3.1117083070866141
20
-6.053059251968504
11
3.111558464566929
21
-6.0523059448818897
0
LINE
8
BLACK
6
CONTINUOUS
10
3.111558464566929
20
-6.0523059448818897
11
3.111558464566929
21
-6.0283089763779527
0
LINE
8
BLACK
6
CONTINUOUS
10
3.111558464566929
20
-6.0283089763779527
11
3.1117083070866141
21
-6.0275556692913383
0
LINE
8
BLACK
6
CONTINUOUS
10
3.1117083070866141
20
-6.0275556692913383
11
3.1127736614173229
21
-6.0264903149606299
0
LINE
8
BLACK
6
CONTINUOUS
10
3.1127736614173229
20
-6.0264903149606299
11
3.1142802755905512
21
-6.0264903149606299
0
LINE
8
BLACK
6
CONTINUOUS
10
3.1142802755905512
20
-6.0264903149606299
11
3.1153456299212596
21
-6.0275556692913383
0
LINE
8
BLACK
6
CONTINUOUS
10
3.1112806692913386
20
-6.0084925590551181
11
3.112346023622047
21
-6.0095579133858266
0
LINE
8
BLACK
6
CONTINUOUS
10
3.112346023622047
20
-6.0095579133858266
11
3.112346023622047
21
-6.0110645275590553
0
LINE
8
BLACK
6
CONTINUOUS
10
3.112346023622047
20
-6.0110645275590553
11
3.1112806692913386
21
-6.0121298818897637
0
LINE
8
BLACK
6
CONTINUOUS
10
3.1112806692913386
20
-6.0121298818897637
11
3.1105273622047243
21
-6.0122797244094484
0
LINE
8
BLACK
6
CONTINUOUS
10
3.1105273622047243
20
-6.0122797244094484
11
3.1023438582677163
21
-6.0122797244094484
0
LINE
8
BLACK
6
CONTINUOUS
10
3.1023438582677163
20
-6.0122797244094484
11
3.1015257086614172
21
-6.0130978346456692
0
LINE
8
BLACK
6
CONTINUOUS
10
3.1015257086614172
20
-6.0130978346456692
11
3.1117084645669291
21
-6.0207349212598427
0
LINE
8
BLACK
6
CONTINUOUS
10
3.1117084645669291
20
-6.0207349212598427
11
3.1122212204724407
21
-6.0213067716535429
0
LINE
8
BLACK
6
CONTINUOUS
10
3.1122212204724407
20
-6.0213067716535429
11
3.1124342913385825
21
-6.022798267716535
0
LINE
8
BLACK
6
CONTINUOUS
10
3.1124342913385825
20
-6.022798267716535
11
3.1115303149606297
21
-6.0240035826771656
0
LINE
8
BLACK
6
CONTINUOUS
10
3.1115303149606297
20
-6.0240035826771656
11
3.1100388188976376
21
-6.0242166535433066
0
LINE
8
BLACK
6
CONTINUOUS
10
3.1100388188976376
20
-6.0242166535433066
11
3.1093462598425194
21
-6.0238845275590549
0
LINE
8
BLACK
6
CONTINUOUS
10
3.1093462598425194
20
-6.0238845275590549
11
3.0987135433070865
21
-6.0159099606299211
0
LINE
8
BLACK
6
CONTINUOUS
10
3.0987135433070865
20
-6.0159099606299211
11
3.0909218897637794
21
-6.0237016535433066
0
LINE
8
BLACK
6
CONTINUOUS
10
3.0909218897637794
20
-6.0237016535433066
11
3.0902832677165355
21
-6.0241283858267716
0
LINE
8
BLACK
6
CONTINUOUS
10
3.0902832677165355
20
-6.0241283858267716
11
3.0887766535433072
21
-6.0241283858267716
0
LINE
8
BLACK
6
CONTINUOUS
10
3.0887766535433072
20
-6.0241283858267716
11
3.0877112992125983
21
-6.0230630314960631
0
LINE
8
BLACK
6
CONTINUOUS
10
3.0877112992125983
20
-6.0230630314960631
11
3.0877112992125983
21
-6.0215564173228344
0
LINE
8
BLACK
6
CONTINUOUS
10
3.0877112992125983
20
-6.0215564173228344
11
3.0881380314960629
21
-6.0209177952755901
0
LINE
8
BLACK
6
CONTINUOUS
10
3.0881380314960629
20
-6.0209177952755901
11
3.0967760629921259
21
-6.0122797244094484
0
LINE
8
BLACK
6
CONTINUOUS
10
3.0967760629921259
20
-6.0122797244094484
11
3.0790312992125983
21
-6.0122797244094484
0
LINE
8
BLACK
6
CONTINUOUS
10
3.0790312992125983
20
-6.0122797244094484
11
3.078277992125984
21
-6.0121298818897637
0
LINE
8
BLACK
6
CONTINUOUS
10
3.078277992125984
20
-6.0121298818897637
11
3.0772126377952755
21
-6.0110645275590553
0
LINE
8
BLACK
6
CONTINUOUS
10
3.0772126377952755
20
-6.0110645275590553
11
3.0772126377952755
21
-6.0095579133858266
0
LINE
8
BLACK
6
CONTINUOUS
10
3.0772126377952755
20
-6.0095579133858266
11
3.078277992125984
21
-6.0084925590551181
0
LINE
8
BLACK
6
CONTINUOUS
10
3.078277992125984
20
-6.0084925590551181
11
3.0790312992125983
21
-6.0083427165354326
0
LINE
8
BLACK
6
CONTINUOUS
10
3.0790312992125983
20
-6.0083427165354326
11
3.1105273622047243
21
-6.0083427165354326
0
LINE
8
BLACK
6
CONTINUOUS
10
3.1105273622047243
20
-6.0083427165354326
11
3.1112806692913386
21
-6.0084925590551181
0
LINE
8
BLACK
6
CONTINUOUS
10
3.1046248031496062
20
-5.9798654724409444
11
3.1046676771653541
21
-5.9798512204724412
0
LINE
8
BLACK
6
CONTINUOUS
10
3.1046676771653541
20
-5.9798512204724412
11
3.1049718897637795
21
-5.9799345275590552
0
LINE
8
BLACK
6
CONTINUOUS
10
3.1049718897637795
20
-5.9799345275590552
11
3.1052814173228347
21
-5.9799961023622048
0
LINE
8
BLACK
6
CONTINUOUS
10
3.1052814173228347
20
-5.9799961023622048
11
3.1053133464566929
21
-5.9800280314960625
0
LINE
8
BLACK
6
CONTINUOUS
10
3.1053133464566929
20
-5.9800280314960625
11
3.1054084645669291
21
-5.9800540944881888
0
LINE
8
BLACK
6
CONTINUOUS
10
3.1054084645669291
20
-5.9800540944881888
11
3.1084080708661417
21
-5.9815539370078739
0
LINE
8
BLACK
6
CONTINUOUS
10
3.1084080708661417
20
-5.9815539370078739
11
3.1086570866141732
21
-5.9817472047244094
0
LINE
8
BLACK
6
CONTINUOUS
10
3.1086570866141732
20
-5.9817472047244094
11
3.1089196456692911
21
-5.9819226377952752
0
LINE
8
BLACK
6
CONTINUOUS
10
3.1089196456692911
20
-5.9819226377952752
11
3.1104194881889762
21
-5.9834224409448815
0
LINE
8
BLACK
6
CONTINUOUS
10
3.1104194881889762
20
-5.9834224409448815
11
3.1105947244094487
21
-5.9836847637795278
0
LINE
8
BLACK
6
CONTINUOUS
10
3.1105947244094487
20
-5.9836847637795278
11
3.1107882283464567
21
-5.9839340551181097
0
LINE
8
BLACK
6
CONTINUOUS
10
3.1107882283464567
20
-5.9839340551181097
11
3.112288031496063
21
-5.9869336614173223
0
LINE
8
BLACK
6
CONTINUOUS
10
3.112288031496063
20
-5.9869336614173223
11
3.1123140551181101
21
-5.9870287401574798
0
LINE
8
BLACK
6
CONTINUOUS
10
3.1123140551181101
20
-5.9870287401574798
11
3.112346023622047
21
-5.9870607086614172
0
LINE
8
BLACK
6
CONTINUOUS
10
3.112346023622047
20
-5.9870607086614172
11
3.1124075590551179
21
-5.9873701968503932
0
LINE
8
BLACK
6
CONTINUOUS
10
3.1124075590551179
20
-5.9873701968503932
11
3.1124909055118111
21
-5.9876744488188978
0
LINE
8
BLACK
6
CONTINUOUS
10
3.1124909055118111
20
-5.9876744488188978
11
3.1124766141732283
21
-5.9877172834645664
0
LINE
8
BLACK
6
CONTINUOUS
10
3.1124766141732283
20
-5.9877172834645664
11
3.1124958661417321
21
-5.9878140157480315
0
LINE
8
BLACK
6
CONTINUOUS
10
3.1124958661417321
20
-5.9878140157480315
11
3.1124958661417321
21
-5.9938132677165354
0
LINE
8
BLACK
6
CONTINUOUS
10
3.1124958661417321
20
-5.9938132677165354
11
3.1124766141732283
21
-5.9939099606299209
0
LINE
8
BLACK
6
CONTINUOUS
10
3.1124766141732283
20
-5.9939099606299209
11
3.1124909055118111
21
-5.9939527952755904
0
LINE
8
BLACK
6
CONTINUOUS
10
3.1124909055118111
20
-5.9939527952755904
11
3.1124075590551179
21
-5.9942570866141729
0
LINE
8
BLACK
6
CONTINUOUS
10
3.1124075590551179
20
-5.9942570866141729
11
3.112346023622047
21
-5.9945665748031498
0
LINE
8
BLACK
6
CONTINUOUS
10
3.112346023622047
20
-5.9945665748031498
11
3.1123140944881889
21
-5.9945984645669288
0
LINE
8
BLACK
6
CONTINUOUS
10
3.1123140944881889
20
-5.9945984645669288
11
3.1122880708661418
21
-5.994693582677165
0
LINE
8
BLACK
6
CONTINUOUS
10
3.1122880708661418
20
-5.994693582677165
11
3.1107882283464567
21
-5.9976932283464564
0
LINE
8
BLACK
6
CONTINUOUS
10
3.1107882283464567
20
-5.9976932283464564
11
3.1103173228346455
21
-5.9982999999999995
0
LINE
8
BLACK
6
CONTINUOUS
10
3.1103173228346455
20
-5.9982999999999995
11
3.108888031496063
21
-5.9987764566929132
0
LINE
8
BLACK
6
CONTINUOUS
10
3.108888031496063
20
-5.9987764566929132
11
3.1075404724409448
21
-5.9981026771653543
0
LINE
8
BLACK
6
CONTINUOUS
10
3.1075404724409448
20
-5.9981026771653543
11
3.1070640157480316
21
-5.9966733858267718
0
LINE
8
BLACK
6
CONTINUOUS
10
3.1070640157480316
20
-5.9966733858267718
11
3.1072668897637796
21
-5.9959325984251963
0
LINE
8
BLACK
6
CONTINUOUS
10
3.1072668897637796
20
-5.9959325984251963
11
3.1085588582677164
21
-5.9933485826771653
0
LINE
8
BLACK
6
CONTINUOUS
10
3.1085588582677164
20
-5.9933485826771653
11
3.1085588582677164
21
-5.9882787007874017
0
LINE
8
BLACK
6
CONTINUOUS
10
3.1085588582677164
20
-5.9882787007874017
11
3.1074097637795273
21
-5.9859805118110234
0
LINE
8
BLACK
6
CONTINUOUS
10
3.1074097637795273
20
-5.9859805118110234
11
3.1063616535433072
21
-5.9849324015748033
0
LINE
8
BLACK
6
CONTINUOUS
10
3.1063616535433072
20
-5.9849324015748033
11
3.1040634251968502
21
-5.983783267716535
0
LINE
8
BLACK
6
CONTINUOUS
10
3.1040634251968502
20
-5.983783267716535
11
3.0959938976377952
21
-5.983783267716535
0
LINE
8
BLACK
6
CONTINUOUS
10
3.0959938976377952
20
-5.983783267716535
11
3.0936956692913387
21
-5.9849323622047246
0
LINE
8
BLACK
6
CONTINUOUS
10
3.0936956692913387
20
-5.9849323622047246
11
3.0926476377952756
21
-5.9859803937007872
0
LINE
8
BLACK
6
CONTINUOUS
10
3.0926476377952756
20
-5.9859803937007872
11
3.091498464566929
21
-5.9882787007874017
0
LINE
8
BLACK
6
CONTINUOUS
10
3.091498464566929
20
-5.9882787007874017
11
3.091498464566929
21
-5.9933485433070866
0
LINE
8
BLACK
6
CONTINUOUS
10
3.091498464566929
20
-5.9933485433070866
11
3.092790472440945
21
-5.9959325590551176
0
LINE
8
BLACK
6
CONTINUOUS
10
3.092790472440945
20
-5.9959325590551176
11
3.092993346456693
21
-5.996673346456693
0
LINE
8
BLACK
6
CONTINUOUS
10
3.092993346456693
20
-5.996673346456693
11
3.0925169291338581
21
-5.9981026771653543
0
LINE
8
BLACK
6
CONTINUOUS
10
3.0925169291338581
20
-5.9981026771653543
11
3.0911693700787399
21
-5.9987764566929132
0
LINE
8
BLACK
6
CONTINUOUS
10
3.0911693700787399
20
-5.9987764566929132
11
3.0897400393700787
21
-5.9982999999999995
0
LINE
8
BLACK
6
CONTINUOUS
10
3.0897400393700787
20
-5.9982999999999995
11
3.0892691338582678
21
-5.9976932677165351
0
LINE
8
BLACK
6
CONTINUOUS
10
3.0892691338582678
20
-5.9976932677165351
11
3.0877692913385828
21
-5.9946936220472438
0
LINE
8
BLACK
6
CONTINUOUS
10
3.0877692913385828
20
-5.9946936220472438
11
3.0877432283464565
21
-5.9945985039370075
0
LINE
8
BLACK
6
CONTINUOUS
10
3.0877432283464565
20
-5.9945985039370075
11
3.0877112992125983
21
-5.9945665748031498
0
LINE
8
BLACK
6
CONTINUOUS
10
3.0877112992125983
20
-5.9945665748031498
11
3.0876497244094487
21
-5.9942570472440941
0
LINE
8
BLACK
6
CONTINUOUS
10
3.0876497244094487
20
-5.9942570472440941
11
3.0875664173228348
21
-5.9939528346456692
0
LINE
8
BLACK
6
CONTINUOUS
10
3.0875664173228348
20
-5.9939528346456692
11
3.0875806692913383
21
-5.9939099606299209
0
LINE
8
BLACK
6
CONTINUOUS
10
3.0875806692913383
20
-5.9939099606299209
11
3.0875614566929133
21
-5.9938132677165354
0
LINE
8
BLACK
6
CONTINUOUS
10
3.0875614566929133
20
-5.9938132677165354
11
3.0875614566929133
21
-5.9878140157480315
0
LINE
8
BLACK
6
CONTINUOUS
10
3.0875614566929133
20
-5.9878140157480315
11
3.0875806692913383
21
-5.9877172834645664
0
LINE
8
BLACK
6
CONTINUOUS
10
3.0875806692913383
20
-5.9877172834645664
11
3.0875664173228348
21
-5.9876744488188978
0
LINE
8
BLACK
6
CONTINUOUS
10
3.0875664173228348
20
-5.9876744488188978
11
3.0876497244094487
21
-5.9873701968503932
0
LINE
8
BLACK
6
CONTINUOUS
10
3.0876497244094487
20
-5.9873701968503932
11
3.0877112992125983
21
-5.9870607086614172
0
LINE
8
BLACK
6
CONTINUOUS
10
3.0877112992125983
20
-5.9870607086614172
11
3.0877432283464565
21
-5.9870287401574798
0
LINE
8
BLACK
6
CONTINUOUS
10
3.0877432283464565
20
-5.9870287401574798
11
3.0877692913385828
21
-5.9869336614173223
0
LINE
8
BLACK
6
CONTINUOUS
10
3.0877692913385828
20
-5.9869336614173223
11
3.0892691338582678
21
-5.9839340551181097
0
LINE
8
BLACK
6
CONTINUOUS
10
3.0892691338582678
20
-5.9839340551181097
11
3.0894625590551179
21
-5.9836847637795278
0
LINE
8
BLACK
6
CONTINUOUS
10
3.0894625590551179
20
-5.9836847637795278
11
3.089637874015748
21
-5.9834224803149603
0
LINE
8
BLACK
6
CONTINUOUS
10
3.089637874015748
20
-5.9834224803149603
11
3.0911376377952755
21
-5.981922677165354
0
LINE
8
BLACK
6
CONTINUOUS
10
3.0911376377952755
20
-5.981922677165354
11
3.0914000787401572
21
-5.9817472834645669
0
LINE
8
BLACK
6
CONTINUOUS
10
3.0914000787401572
20
-5.9817472834645669
11
3.0916492519685037
21
-5.9815539370078739
0
LINE
8
BLACK
6
CONTINUOUS
10
3.0916492519685037
20
-5.9815539370078739
11
3.0946488188976375
21
-5.9800540944881888
0
LINE
8
BLACK
6
CONTINUOUS
10
3.0946488188976375
20
-5.9800540944881888
11
3.0947439370078738
21
-5.9800280314960625
0
LINE
8
BLACK
6
CONTINUOUS
10
3.0947439370078738
20
-5.9800280314960625
11
3.0947759055118111
21
-5.9799961023622048
0
LINE
8
BLACK
6
CONTINUOUS
10
3.0947759055118111
20
-5.9799961023622048
11
3.0950852755905509
21
-5.9799345275590552
0
LINE
8
BLACK
6
CONTINUOUS
10
3.0950852755905509
20
-5.9799345275590552
11
3.0953896062992126
21
-5.9798512204724412
0
LINE
8
BLACK
6
CONTINUOUS
10
3.0953896062992126
20
-5.9798512204724412
11
3.0954324409448817
21
-5.9798654724409444
0
LINE
8
BLACK
6
CONTINUOUS
10
3.0954324409448817
20
-5.9798654724409444
11
3.0955292125984251
21
-5.9798462598425193
0
LINE
8
BLACK
6
CONTINUOUS
10
3.0955292125984251
20
-5.9798462598425193
11
3.1045281102362203
21
-5.9798462598425193
0
LINE
8
BLACK
6
CONTINUOUS
10
3.1045281102362203
20
-5.9798462598425193
11
3.1046248031496062
21
-5.9798654724409444
0
LINE
8
BLACK
6
CONTINUOUS
10
3.1061246062992125
20
-5.951369015748031
11
3.1061674803149604
21
-5.951354763779527
0
LINE
8
BLACK
6
CONTINUOUS
10
3.1061674803149604
20
-5.951354763779527
11
3.1064716929133858
21
-5.9514380708661418
0
LINE
8
BLACK
6
CONTINUOUS
10
3.1064716929133858
20
-5.9514380708661418
11
3.106781220472441
21
-5.9514996456692915
0
LINE
8
BLACK
6
CONTINUOUS
10
3.106781220472441
20
-5.9514996456692915
11
3.1068131496062992
21
-5.9515315748031492
0
LINE
8
BLACK
6
CONTINUOUS
10
3.1068131496062992
20
-5.9515315748031492
11
3.1069082677165354
21
-5.9515576377952755
0
LINE
8
BLACK
6
CONTINUOUS
10
3.1069082677165354
20
-5.9515576377952755
11
3.1099079133858267
21
-5.9530574803149605
0
LINE
8
BLACK
6
CONTINUOUS
10
3.1099079133858267
20
-5.9530574803149605
11
3.110217440944882
21
-5.9532977165354328
0
LINE
8
BLACK
6
CONTINUOUS
10
3.110217440944882
20
-5.9532977165354328
11
3.1103173228346455
21
-5.9533310236220469
0
LINE
8
BLACK
6
CONTINUOUS
10
3.1103173228346455
20
-5.9533310236220469
11
3.1104035826771654
21
-5.9534422047244089
0
LINE
8
BLACK
6
CONTINUOUS
10
3.1104035826771654
20
-5.9534422047244089
11
3.1105146456692911
21
-5.9535283858267718
0
LINE
8
BLACK
6
CONTINUOUS
10
3.1105146456692911
20
-5.9535283858267718
11
3.1105478740157482
21
-5.9536281102362203
0
LINE
8
BLACK
6
CONTINUOUS
10
3.1105478740157482
20
-5.9536281102362203
11
3.1107882283464567
21
-5.9539377952755901
0
LINE
8
BLACK
6
CONTINUOUS
10
3.1107882283464567
20
-5.9539377952755901
11
3.112288031496063
21
-5.9569374015748027
0
LINE
8
BLACK
6
CONTINUOUS
10
3.112288031496063
20
-5.9569374015748027
11
3.1123140551181101
21
-5.9570324803149601
0
LINE
8
BLACK
6
CONTINUOUS
10
3.1123140551181101
20
-5.9570324803149601
11
3.112346023622047
21
-5.9570644488188975
0
LINE
8
BLACK
6
CONTINUOUS
10
3.112346023622047
20
-5.9570644488188975
11
3.1124075590551179
21
-5.9573739370078735
0
LINE
8
BLACK
6
CONTINUOUS
10
3.1124075590551179
20
-5.9573739370078735
11
3.1124909055118111
21
-5.9576781889763781
0
LINE
8
BLACK
6
CONTINUOUS
10
3.1124909055118111
20
-5.9576781889763781
11
3.1124766141732283
21
-5.9577210236220468
0
LINE
8
BLACK
6
CONTINUOUS
10
3.1124766141732283
20
-5.9577210236220468
11
3.1124958661417321
21
-5.9578177559055119
0
LINE
8
BLACK
6
CONTINUOUS
10
3.1124958661417321
20
-5.9578177559055119
11
3.1124958661417321
21
-5.9653168110236221
0
LINE
8
BLACK
6
CONTINUOUS
10
3.1124958661417321
20
-5.9653168110236221
11
3.1124766141732283
21
-5.9654135039370075
0
LINE
8
BLACK
6
CONTINUOUS
10
3.1124766141732283
20
-5.9654135039370075
11
3.1124909055118111
21
-5.9654563385826771
0
LINE
8
BLACK
6
CONTINUOUS
10
3.1124909055118111
20
-5.9654563385826771
11
3.1124075590551179
21
-5.9657606299212596
0
LINE
8
BLACK
6
CONTINUOUS
10
3.1124075590551179
20
-5.9657606299212596
11
3.112346023622047
21
-5.9660701181102365
0
LINE
8
BLACK
6
CONTINUOUS
10
3.112346023622047
20
-5.9660701181102365
11
3.1123140944881889
21
-5.9661020078740155
0
LINE
8
BLACK
6
CONTINUOUS
10
3.1123140944881889
20
-5.9661020078740155
11
3.1122880708661418
21
-5.9661971259842517
0
LINE
8
BLACK
6
CONTINUOUS
10
3.1122880708661418
20
-5.9661971259842517
11
3.1118520078740155
21
-5.967069133858268
0
LINE
8
BLACK
6
CONTINUOUS
10
3.1118520078740155
20
-5.967069133858268
11
3.112346023622047
21
-5.9675631496062991
0
LINE
8
BLACK
6
CONTINUOUS
10
3.112346023622047
20
-5.9675631496062991
11
3.112346023622047
21
-5.9690697637795278
0
LINE
8
BLACK
6
CONTINUOUS
10
3.112346023622047
20
-5.9690697637795278
11
3.1112806692913386
21
-5.9701351181102362
0
LINE
8
BLACK
6
CONTINUOUS
10
3.1112806692913386
20
-5.9701351181102362
11
3.1105273622047243
21
-5.9702849606299209
0
LINE
8
BLACK
6
CONTINUOUS
10
3.1105273622047243
20
-5.9702849606299209
11
3.0940294094488188
21
-5.9702849606299209
0
LINE
8
BLACK
6
CONTINUOUS
10
3.0940294094488188
20
-5.9702849606299209
11
3.0939326771653541
21
-5.970265708661417
0
LINE
8
BLACK
6
CONTINUOUS
10
3.0939326771653541
20
-5.970265708661417
11
3.093889842519685
21
-5.9702799999999998
0
LINE
8
BLACK
6
CONTINUOUS
10
3.093889842519685
20
-5.9702799999999998
11
3.0935855905511809
21
-5.9701966535433071
0
LINE
8
BLACK
6
CONTINUOUS
10
3.0935855905511809
20
-5.9701966535433071
11
3.0932761023622048
21
-5.9701351181102362
0
LINE
8
BLACK
6
CONTINUOUS
10
3.0932761023622048
20
-5.9701351181102362
11
3.0932441338582675
21
-5.9701031496062988
0
LINE
8
BLACK
6
CONTINUOUS
10
3.0932441338582675
20
-5.9701031496062988
11
3.09314905511811
21
-5.9700771259842522
0
LINE
8
BLACK
6
CONTINUOUS
10
3.09314905511811
20
-5.9700771259842522
11
3.0901494488188974
21
-5.9685773228346459
0
LINE
8
BLACK
6
CONTINUOUS
10
3.0901494488188974
20
-5.9685773228346459
11
3.0898397637795276
21
-5.9683369685039365
0
LINE
8
BLACK
6
CONTINUOUS
10
3.0898397637795276
20
-5.9683369685039365
11
3.0897400393700787
21
-5.9683037401574799
0
LINE
8
BLACK
6
CONTINUOUS
10
3.0897400393700787
20
-5.9683037401574799
11
3.0896538582677167
21
-5.9681926771653542
0
LINE
8
BLACK
6
CONTINUOUS
10
3.0896538582677167
20
-5.9681926771653542
11
3.0895426771653542
21
-5.9681064173228346
0
LINE
8
BLACK
6
CONTINUOUS
10
3.0895426771653542
20
-5.9681064173228346
11
3.0895093700787402
21
-5.9680065354330711
0
LINE
8
BLACK
6
CONTINUOUS
10
3.0895093700787402
20
-5.9680065354330711
11
3.0892691338582678
21
-5.9676970078740155
0
LINE
8
BLACK
6
CONTINUOUS
10
3.0892691338582678
20
-5.9676970078740155
11
3.0877692913385828
21
-5.9646973622047241
0
LINE
8
BLACK
6
CONTINUOUS
10
3.0877692913385828
20
-5.9646973622047241
11
3.0877432283464565
21
-5.9646022440944879
0
LINE
8
BLACK
6
CONTINUOUS
10
3.0877432283464565
20
-5.9646022440944879
11
3.0877112992125983
21
-5.9645703149606302
0
LINE
8
BLACK
6
CONTINUOUS
10
3.0877112992125983
20
-5.9645703149606302
11
3.0876497244094487
21
-5.9642607874015745
0
LINE
8
BLACK
6
CONTINUOUS
10
3.0876497244094487
20
-5.9642607874015745
11
3.0875664173228348
21
-5.9639565748031496
0
LINE
8
BLACK
6
CONTINUOUS
10
3.0875664173228348
20
-5.9639565748031496
11
3.0875806692913383
21
-5.9639137007874012
0
LINE
8
BLACK
6
CONTINUOUS
10
3.0875806692913383
20
-5.9639137007874012
11
3.0875614566929133
21
-5.9638170078740158
0
LINE
8
BLACK
6
CONTINUOUS
10
3.0875614566929133
20
-5.9638170078740158
11
3.0875614566929133
21
-5.9578177559055119
0
LINE
8
BLACK
6
CONTINUOUS
10
3.0875614566929133
20
-5.9578177559055119
11
3.0875806692913383
21
-5.9577210236220468
0
LINE
8
BLACK
6
CONTINUOUS
10
3.0875806692913383
20
-5.9577210236220468
11
3.0875664173228348
21
-5.9576781889763781
0
LINE
8
BLACK
6
CONTINUOUS
10
3.0875664173228348
20
-5.9576781889763781
11
3.0876497244094487
21
-5.9573739370078735
0
LINE
8
BLACK
6
CONTINUOUS
10
3.0876497244094487
20
-5.9573739370078735
11
3.0877112992125983
21
-5.9570644488188975
0
LINE
8
BLACK
6
CONTINUOUS
10
3.0877112992125983
20
-5.9570644488188975
11
3.0877432283464565
21
-5.9570324803149601
0
LINE
8
BLACK
6
CONTINUOUS
10
3.0877432283464565
20
-5.9570324803149601
11
3.0877692913385828
21
-5.9569374015748027
0
LINE
8
BLACK
6
CONTINUOUS
10
3.0877692913385828
20
-5.9569374015748027
11
3.0892691338582678
21
-5.9539377952755901
0
LINE
8
BLACK
6
CONTINUOUS
10
3.0892691338582678
20
-5.9539377952755901
11
3.0897400393700787
21
-5.9533310629921257
0
LINE
8
BLACK
6
CONTINUOUS
10
3.0897400393700787
20
-5.9533310629921257
11
3.0911693700787399
21
-5.952854606299212
0
LINE
8
BLACK
6
CONTINUOUS
10
3.0911693700787399
20
-5.952854606299212
11
3.0925169291338581
21
-5.9535284251968505
0
LINE
8
BLACK
6
CONTINUOUS
10
3.0925169291338581
20
-5.9535284251968505
11
3.092993346456693
21
-5.9549577559055118
0
LINE
8
BLACK
6
CONTINUOUS
10
3.092993346456693
20
-5.9549577559055118
11
3.092790472440945
21
-5.9556985433070864
0
LINE
8
BLACK
6
CONTINUOUS
10
3.092790472440945
20
-5.9556985433070864
11
3.091498464566929
21
-5.958282440944882
0
LINE
8
BLACK
6
CONTINUOUS
10
3.091498464566929
20
-5.958282440944882
11
3.091498464566929
21
-5.9633522834645669
0
LINE
8
BLACK
6
CONTINUOUS
10
3.091498464566929
20
-5.9633522834645669
11
3.0924970078740155
21
-5.9653494094488186
0
LINE
8
BLACK
6
CONTINUOUS
10
3.0924970078740155
20
-5.9653494094488186
11
3.0944940944881889
21
-5.9663479527559051
0
LINE
8
BLACK
6
CONTINUOUS
10
3.0944940944881889
20
-5.9663479527559051
11
3.0958124803149607
21
-5.9663479527559051
0
LINE
8
BLACK
6
CONTINUOUS
10
3.0958124803149607
20
-5.9663479527559051
11
3.0965603543307085
21
-5.964852125984252
0
LINE
8
BLACK
6
CONTINUOUS
10
3.0965603543307085
20
-5.964852125984252
11
3.0965603543307085
21
-5.9578177559055119
0
LINE
8
BLACK
6
CONTINUOUS
10
3.0965603543307085
20
-5.9578177559055119
11
3.0965795669291336
21
-5.9577210236220468
0
LINE
8
BLACK
6
CONTINUOUS
10
3.0965795669291336
20
-5.9577210236220468
11
3.09656531496063
21
-5.9576781889763781
0
LINE
8
BLACK
6
CONTINUOUS
10
3.09656531496063
20
-5.9576781889763781
11
3.096648622047244
21
-5.9573739370078735
0
LINE
8
BLACK
6
CONTINUOUS
10
3.096648622047244
20
-5.9573739370078735
11
3.0967101968503936
21
-5.9570644488188975
0
LINE
8
BLACK
6
CONTINUOUS
10
3.0967101968503936
20
-5.9570644488188975
11
3.0967421259842518
21
-5.9570324803149601
0
LINE
8
BLACK
6
CONTINUOUS
10
3.0967421259842518
20
-5.9570324803149601
11
3.0967681889763781
21
-5.9569374015748027
0
LINE
8
BLACK
6
CONTINUOUS
10
3.0967681889763781
20
-5.9569374015748027
11
3.0982679921259844
21
-5.9539377952755901
0
LINE
8
BLACK
6
CONTINUOUS
10
3.0982679921259844
20
-5.9539377952755901
11
3.0985082283464567
21
-5.9536281889763778
0
LINE
8
BLACK
6
CONTINUOUS
10
3.0985082283464567
20
-5.9536281889763778
11
3.0985415354330708
21
-5.9535283858267718
0
LINE
8
BLACK
6
CONTINUOUS
10
3.0985415354330708
20
-5.9535283858267718
11
3.0986526377952757
21
-5.9534421259842523
0
LINE
8
BLACK
6
CONTINUOUS
10
3.0986526377952757
20
-5.9534421259842523
11
3.0987388976377952
21
-5.9533310236220469
0
LINE
8
BLACK
6
CONTINUOUS
10
3.0987388976377952
20
-5.9533310236220469
11
3.0988387007874016
21
-5.9532977165354328
0
LINE
8
BLACK
6
CONTINUOUS
10
3.0988387007874016
20
-5.9532977165354328
11
3.0991483070866139
21
-5.9530574803149605
0
LINE
8
BLACK
6
CONTINUOUS
10
3.0991483070866139
20
-5.9530574803149605
11
3.1021479527559053
21
-5.9515576377952755
0
LINE
8
BLACK
6
CONTINUOUS
10
3.1021479527559053
20
-5.9515576377952755
11
3.1022430314960627
21
-5.9515315748031492
0
LINE
8
BLACK
6
CONTINUOUS
10
3.1022430314960627
20
-5.9515315748031492
11
3.1022750000000001
21
-5.9514996456692915
0
LINE
8
BLACK
6
CONTINUOUS
10
3.1022750000000001
20
-5.9514996456692915
11
3.1025844881889761
21
-5.9514380708661418
0
LINE
8
BLACK
6
CONTINUOUS
10
3.1025844881889761
20
-5.9514380708661418
11
3.1028887401574803
21
-5.951354763779527
0
LINE
8
BLACK
6
CONTINUOUS
10
3.1028887401574803
20
-5.951354763779527
11
3.1029315748031494
21
-5.951369015748031
0
LINE
8
BLACK
6
CONTINUOUS
10
3.1029315748031494
20
-5.951369015748031
11
3.103028307086614
21
-5.9513498031496059
0
LINE
8
BLACK
6
CONTINUOUS
10
3.103028307086614
20
-5.9513498031496059
11
3.1060279133858266
21
-5.9513498031496059
0
LINE
8
BLACK
6
CONTINUOUS
10
3.1060279133858266
20
-5.9513498031496059
11
3.1061246062992125
21
-5.951369015748031
0
LINE
8
BLACK
6
CONTINUOUS
10
3.101495866141732
20
-5.9562853543307082
11
3.1004973622047243
21
-5.958282440944882
0
LINE
8
BLACK
6
CONTINUOUS
10
3.1004973622047243
20
-5.958282440944882
11
3.1004973622047243
21
-5.9653168110236221
0
LINE
8
BLACK
6
CONTINUOUS
10
3.1004973622047243
20
-5.9653168110236221
11
3.1004781102362204
21
-5.9654135039370075
0
LINE
8
BLACK
6
CONTINUOUS
10
3.1004781102362204
20
-5.9654135039370075
11
3.1004924015748032
21
-5.9654563385826771
0
LINE
8
BLACK
6
CONTINUOUS
10
3.1004924015748032
20
-5.9654563385826771
11
3.10040905511811
21
-5.9657606299212596
0
LINE
8
BLACK
6
CONTINUOUS
10
3.10040905511811
20
-5.9657606299212596
11
3.1003475196850392
21
-5.9660701181102365
0
LINE
8
BLACK
6
CONTINUOUS
10
3.1003475196850392
20
-5.9660701181102365
11
3.100315590551181
21
-5.9661020078740155
0
LINE
8
BLACK
6
CONTINUOUS
10
3.100315590551181
20
-5.9661020078740155
11
3.1002895669291339
21
-5.9661971259842517
0
LINE
8
BLACK
6
CONTINUOUS
10
3.1002895669291339
20
-5.9661971259842517
11
3.1002141338582678
21
-5.9663479527559051
0
LINE
8
BLACK
6
CONTINUOUS
10
3.1002141338582678
20
-5.9663479527559051
11
3.1078109842519686
21
-5.9663479527559051
0
LINE
8
BLACK
6
CONTINUOUS
10
3.1078109842519686
20
-5.9663479527559051
11
3.1085588582677164
21
-5.964852125984252
0
LINE
8
BLACK
6
CONTINUOUS
10
3.1085588582677164
20
-5.964852125984252
11
3.1085588582677164
21
-5.958282440944882
0
LINE
8
BLACK
6
CONTINUOUS
10
3.1085588582677164
20
-5.958282440944882
11
3.1075603149606299
21
-5.9562853543307082
0
LINE
8
BLACK
6
CONTINUOUS
10
3.1075603149606299
20
-5.9562853543307082
11
3.1055632283464565
21
-5.9552868110236217
0
LINE
8
BLACK
6
CONTINUOUS
10
3.1055632283464565
20
-5.9552868110236217
11
3.1034929921259842
21
-5.9552868110236217
0
LINE
8
BLACK
6
CONTINUOUS
10
3.1034929921259842
20
-5.9552868110236217
11
3.101495866141732
21
-5.9562853543307082
0
LINE
8
BLACK
6
CONTINUOUS
10
3.112346023622047
20
-5.9270681889763779
11
3.1124958661417321
21
-5.9278214960629922
0
LINE
8
BLACK
6
CONTINUOUS
10
3.1124958661417321
20
-5.9278214960629922
11
3.1124958661417321
21
-5.9308211417322836
0
LINE
8
BLACK
6
CONTINUOUS
10
3.1124958661417321
20
-5.9308211417322836
11
3.1124342913385825
21
-5.9311306692913384
0
LINE
8
BLACK
6
CONTINUOUS
10
3.1124342913385825
20
-5.9311306692913384
11
3.1123948425196848
21
-5.9314436220472437
0
LINE
8
BLACK
6
CONTINUOUS
10
3.1123948425196848
20
-5.9314436220472437
11
3.1108950393700785
21
-5.9359430314960626
0
LINE
8
BLACK
6
CONTINUOUS
10
3.1108950393700785
20
-5.9359430314960626
11
3.1108462204724407
21
-5.936028661417323
0
LINE
8
BLACK
6
CONTINUOUS
10
3.1108462204724407
20
-5.936028661417323
11
3.1108462204724407
21
-5.9360738976377956
0
LINE
8
BLACK
6
CONTINUOUS
10
3.1108462204724407
20
-5.9360738976377956
11
3.1106708267716536
21
-5.9363363385826773
0
LINE
8
BLACK
6
CONTINUOUS
10
3.1106708267716536
20
-5.9363363385826773
11
3.1105146850393699
21
-5.93661031496063
0
LINE
8
BLACK
6
CONTINUOUS
10
3.1105146850393699
20
-5.93661031496063
11
3.1104742519685038
21
-5.9366305118110239
0
LINE
8
BLACK
6
CONTINUOUS
10
3.1104742519685038
20
-5.9366305118110239
11
3.1104194881889762
21
-5.936712519685039
0
LINE
8
BLACK
6
CONTINUOUS
10
3.1104194881889762
20
-5.936712519685039
11
3.1074198425196848
21
-5.9397121259842516
0
LINE
8
BLACK
6
CONTINUOUS
10
3.1074198425196848
20
-5.9397121259842516
11
3.107337874015748
21
-5.9397668503937009
0
LINE
8
BLACK
6
CONTINUOUS
10
3.107337874015748
20
-5.9397668503937009
11
3.1073176771653541
21
-5.9398073228346453
0
LINE
8
BLACK
6
CONTINUOUS
10
3.1073176771653541
20
-5.9398073228346453
11
3.1070434251968502
21
-5.9399636220472436
0
LINE
8
BLACK
6
CONTINUOUS
10
3.1070434251968502
20
-5.9399636220472436
11
3.106781220472441
21
-5.9401388582677166
0
LINE
8
BLACK
6
CONTINUOUS
10
3.106781220472441
20
-5.9401388582677166
11
3.1067360236220471
21
-5.9401388582677166
0
LINE
8
BLACK
6
CONTINUOUS
10
3.1067360236220471
20
-5.9401388582677166
11
3.1066503937007872
21
-5.9401876771653539
0
LINE
8
BLACK
6
CONTINUOUS
10
3.1066503937007872
20
-5.9401876771653539
11
3.1021509448818896
21
-5.9416874803149602
0
LINE
8
BLACK
6
CONTINUOUS
10
3.1021509448818896
20
-5.9416874803149602
11
3.1018379921259842
21
-5.9417269291338579
0
LINE
8
BLACK
6
CONTINUOUS
10
3.1018379921259842
20
-5.9417269291338579
11
3.101528464566929
21
-5.9417885039370075
0
LINE
8
BLACK
6
CONTINUOUS
10
3.101528464566929
20
-5.9417885039370075
11
3.0790312992125983
21
-5.9417885039370075
0
LINE
8
BLACK
6
CONTINUOUS
10
3.0790312992125983
20
-5.9417885039370075
11
3.078277992125984
21
-5.9416386614173229
0
LINE
8
BLACK
6
CONTINUOUS
10
3.078277992125984
20
-5.9416386614173229
11
3.0772126377952755
21
-5.9405733070866145
0
LINE
8
BLACK
6
CONTINUOUS
10
3.0772126377952755
20
-5.9405733070866145
11
3.0772126377952755
21
-5.9390666929133857
0
LINE
8
BLACK
6
CONTINUOUS
10
3.0772126377952755
20
-5.9390666929133857
11
3.078277992125984
21
-5.9380013385826773
0
LINE
8
BLACK
6
CONTINUOUS
10
3.078277992125984
20
-5.9380013385826773
11
3.0790312992125983
21
-5.9378514960629918
0
LINE
8
BLACK
6
CONTINUOUS
10
3.0790312992125983
20
-5.9378514960629918
11
3.10120905511811
21
-5.9378514960629918
0
LINE
8
BLACK
6
CONTINUOUS
10
3.10120905511811
20
-5.9378514960629918
11
3.1049645669291337
21
-5.9365996456692915
0
LINE
8
BLACK
6
CONTINUOUS
10
3.1049645669291337
20
-5.9365996456692915
11
3.1073070078740157
21
-5.9342571653543308
0
LINE
8
BLACK
6
CONTINUOUS
10
3.1073070078740157
20
-5.9342571653543308
11
3.1085588582677164
21
-5.9305017322834646
0
LINE
8
BLACK
6
CONTINUOUS
10
3.1085588582677164
20
-5.9305017322834646
11
3.1085588582677164
21
-5.9278214960629922
0
LINE
8
BLACK
6
CONTINUOUS
10
3.1085588582677164
20
-5.9278214960629922
11
3.1087087007874015
21
-5.9270681889763779
0
LINE
8
BLACK
6
CONTINUOUS
10
3.1087087007874015
20
-5.9270681889763779
11
3.1097740551181103
21
-5.9260028346456695
0
LINE
8
BLACK
6
CONTINUOUS
10
3.1097740551181103
20
-5.9260028346456695
11
3.1112806692913386
21
-5.9260028346456695
0
LINE
8
BLACK
6
CONTINUOUS
10
3.1112806692913386
20
-5.9260028346456695
11
3.112346023622047
21
-5.9270681889763779
0
LINE
8
BLACK
6
CONTINUOUS
10
3.1153456299212596
20
-5.8985717716535433
11
3.1154954724409447
21
-5.8993250787401577
0
LINE
8
BLACK
6
CONTINUOUS
10
3.1154954724409447
20
-5.8993250787401577
11
3.1154954724409447
21
-5.9233220472440946
0
LINE
8
BLACK
6
CONTINUOUS
10
3.1154954724409447
20
-5.9233220472440946
11
3.1153456299212596
21
-5.9240753543307081
0
LINE
8
BLACK
6
CONTINUOUS
10
3.1153456299212596
20
-5.9240753543307081
11
3.1142802755905512
21
-5.9251407086614174
0
LINE
8
BLACK
6
CONTINUOUS
10
3.1142802755905512
20
-5.9251407086614174
11
3.1127736614173229
21
-5.9251407086614174
0
LINE
8
BLACK
6
CONTINUOUS
10
3.1127736614173229
20
-5.9251407086614174
11
3.1117083070866141
21
-5.9240753543307081
0
LINE
8
BLACK
6
CONTINUOUS
10
3.1117083070866141
20
-5.9240753543307081
11
3.111558464566929
21
-5.9233220472440946
0
LINE
8
BLACK
6
CONTINUOUS
10
3.111558464566929
20
-5.9233220472440946
11
3.111558464566929
21
-5.8993250787401577
0
LINE
8
BLACK
6
CONTINUOUS
10
3.111558464566929
20
-5.8993250787401577
11
3.1117083070866141
21
-5.8985717716535433
0
LINE
8
BLACK
6
CONTINUOUS
10
3.1117083070866141
20
-5.8985717716535433
11
3.1127736614173229
21
-5.8975064173228349
0
LINE
8
BLACK
6
CONTINUOUS
10
3.1127736614173229
20
-5.8975064173228349
11
3.1142802755905512
21
-5.8975064173228349
0
LINE
8
BLACK
6
CONTINUOUS
10
3.1142802755905512
20
-5.8975064173228349
11
3.1153456299212596
21
-5.8985717716535433
0
LINE
8
BLACK
6
CONTINUOUS
10
3.1061246062992125
20
-5.8883768897637792
11
3.1061674409448816
21
-5.8883626377952751
0
LINE
8
BLACK
6
CONTINUOUS
10
3.1061674409448816
20
-5.8883626377952751
11
3.1064715354330708
21
-5.8884459055118112
0
LINE
8
BLACK
6
CONTINUOUS
10
3.1064715354330708
20
-5.8884459055118112
11
3.106781220472441
21
-5.8885075196850396
0
LINE
8
BLACK
6
CONTINUOUS
10
3.106781220472441
20
-5.8885075196850396
11
3.1068131496062992
21
-5.8885394488188973
0
LINE
8
BLACK
6
CONTINUOUS
10
3.1068131496062992
20
-5.8885394488188973
11
3.1069082283464566
21
-5.8885655118110236
0
LINE
8
BLACK
6
CONTINUOUS
10
3.1069082283464566
20
-5.8885655118110236
11
3.1099079133858267
21
-5.8900653149606299
0
LINE
8
BLACK
6
CONTINUOUS
10
3.1099079133858267
20
-5.8900653149606299
11
3.110217440944882
21
-5.8903055511811022
0
LINE
8
BLACK
6
CONTINUOUS
10
3.110217440944882
20
-5.8903055511811022
11
3.1103173228346455
21
-5.8903388582677163
0
LINE
8
BLACK
6
CONTINUOUS
10
3.1103173228346455
20
-5.8903388582677163
11
3.1104035826771654
21
-5.8904500393700783
0
LINE
8
BLACK
6
CONTINUOUS
10
3.1104035826771654
20
-5.8904500393700783
11
3.1105146456692911
21
-5.8905362204724412
0
LINE
8
BLACK
6
CONTINUOUS
10
3.1105146456692911
20
-5.8905362204724412
11
3.1105478740157482
21
-5.8906359448818897
0
LINE
8
BLACK
6
CONTINUOUS
10
3.1105478740157482
20
-5.8906359448818897
11
3.1107882283464567
21
-5.8909456299212595
0
LINE
8
BLACK
6
CONTINUOUS
10
3.1107882283464567
20
-5.8909456299212595
11
3.112288031496063
21
-5.8939452362204721
0
LINE
8
BLACK
6
CONTINUOUS
10
3.112288031496063
20
-5.8939452362204721
11
3.1124909055118111
21
-5.8946860236220475
0
LINE
8
BLACK
6
CONTINUOUS
10
3.1124909055118111
20
-5.8946860236220475
11
3.1120144881889762
21
-5.8961153543307088
0
LINE
8
BLACK
6
CONTINUOUS
10
3.1120144881889762
20
-5.8961153543307088
11
3.110666929133858
21
-5.8967891338582676
0
LINE
8
BLACK
6
CONTINUOUS
10
3.110666929133858
20
-5.8967891338582676
11
3.1092375984251968
21
-5.8963127165354328
0
LINE
8
BLACK
6
CONTINUOUS
10
3.1092375984251968
20
-5.8963127165354328
11
3.1087666929133859
21
-5.8957059448818896
0
LINE
8
BLACK
6
CONTINUOUS
10
3.1087666929133859
20
-5.8957059448818896
11
3.1075603149606299
21
-5.8932932283464563
0
LINE
8
BLACK
6
CONTINUOUS
10
3.1075603149606299
20
-5.8932932283464563
11
3.1055632677165352
21
-5.8922946850393698
0
LINE
8
BLACK
6
CONTINUOUS
10
3.1055632677165352
20
-5.8922946850393698
11
3.0790312992125983
21
-5.8922946850393698
0
LINE
8
BLACK
6
CONTINUOUS
10
3.0790312992125983
20
-5.8922946850393698
11
3.078277992125984
21
-5.8921448425196852
0
LINE
8
BLACK
6
CONTINUOUS
10
3.078277992125984
20
-5.8921448425196852
11
3.0772126377952755
21
-5.8910794881889759
0
LINE
8
BLACK
6
CONTINUOUS
10
3.0772126377952755
20
-5.8910794881889759
11
3.0772126377952755
21
-5.889572874015748
0
LINE
8
BLACK
6
CONTINUOUS
10
3.0772126377952755
20
-5.889572874015748
11
3.078277992125984
21
-5.8885075196850396
0
LINE
8
BLACK
6
CONTINUOUS
10
3.078277992125984
20
-5.8885075196850396
11
3.0790312992125983
21
-5.8883576771653541
0
LINE
8
BLACK
6
CONTINUOUS
10
3.0790312992125983
20
-5.8883576771653541
11
3.1060279133858266
21
-5.8883576771653541
0
LINE
8
BLACK
6
CONTINUOUS
10
3.1060279133858266
20
-5.8883576771653541
11
3.1061246062992125
21
-5.8883768897637792
0
LINE
8
BLACK
6
CONTINUOUS
10
3.1061246062992125
20
-5.8598804330708658
11
3.1061674803149604
21
-5.8598661811023618
0
LINE
8
BLACK
6
CONTINUOUS
10
3.1061674803149604
20
-5.8598661811023618
11
3.1064716929133858
21
-5.8599494881889767
0
LINE
8
BLACK
6
CONTINUOUS
10
3.1064716929133858
20
-5.8599494881889767
11
3.106781220472441
21
-5.8600110629921263
0
LINE
8
BLACK
6
CONTINUOUS
10
3.106781220472441
20
-5.8600110629921263
11
3.1068131496062992
21
-5.860042992125984
0
LINE
8
BLACK
6
CONTINUOUS
10
3.1068131496062992
20
-5.860042992125984
11
3.1069082677165354
21
-5.8600690551181103
0
LINE
8
BLACK
6
CONTINUOUS
10
3.1069082677165354
20
-5.8600690551181103
11
3.1099079133858267
21
-5.8615688976377953
0
LINE
8
BLACK
6
CONTINUOUS
10
3.1099079133858267
20
-5.8615688976377953
11
3.110217440944882
21
-5.8618091338582676
0
LINE
8
BLACK
6
CONTINUOUS
10
3.110217440944882
20
-5.8618091338582676
11
3.1103173228346455
21
-5.8618424409448817
0
LINE
8
BLACK
6
CONTINUOUS
10
3.1103173228346455
20
-5.8618424409448817
11
3.1104035826771654
21
-5.8619536220472437
0
LINE
8
BLACK
6
CONTINUOUS
10
3.1104035826771654
20
-5.8619536220472437
11
3.1105146456692911
21
-5.8620398031496066
0
LINE
8
BLACK
6
CONTINUOUS
10
3.1105146456692911
20
-5.8620398031496066
11
3.1105478740157482
21
-5.8621395275590551
0
LINE
8
BLACK
6
CONTINUOUS
10
3.1105478740157482
20
-5.8621395275590551
11
3.1107882283464567
21
-5.8624492125984249
0
LINE
8
BLACK
6
CONTINUOUS
10
3.1107882283464567
20
-5.8624492125984249
11
3.112288031496063
21
-5.8654488188976375
0
LINE
8
BLACK
6
CONTINUOUS
10
3.112288031496063
20
-5.8654488188976375
11
3.1123140551181101
21
-5.8655438976377949
0
LINE
8
BLACK
6
CONTINUOUS
10
3.1123140551181101
20
-5.8655438976377949
11
3.112346023622047
21
-5.8655758661417323
0
LINE
8
BLACK
6
CONTINUOUS
10
3.112346023622047
20
-5.8655758661417323
11
3.1124075590551179
21
-5.8658853543307083
0
LINE
8
BLACK
6
CONTINUOUS
10
3.1124075590551179
20
-5.8658853543307083
11
3.1124909055118111
21
-5.866189606299212
0
LINE
8
BLACK
6
CONTINUOUS
10
3.1124909055118111
20
-5.866189606299212
11
3.1124766141732283
21
-5.8662324409448816
0
LINE
8
BLACK
6
CONTINUOUS
10
3.1124766141732283
20
-5.8662324409448816
11
3.1124958661417321
21
-5.8663291732283467
0
LINE
8
BLACK
6
CONTINUOUS
10
3.1124958661417321
20
-5.8663291732283467
11
3.1124958661417321
21
-5.8723284251968506
0
LINE
8
BLACK
6
CONTINUOUS
10
3.1124958661417321
20
-5.8723284251968506
11
3.1124766141732283
21
-5.872425118110236
0
LINE
8
BLACK
6
CONTINUOUS
10
3.1124766141732283
20
-5.872425118110236
11
3.1124909055118111
21
-5.8724679527559056
0
LINE
8
BLACK
6
CONTINUOUS
10
3.1124909055118111
20
-5.8724679527559056
11
3.1124075590551179
21
-5.8727722440944881
0
LINE
8
BLACK
6
CONTINUOUS
10
3.1124075590551179
20
-5.8727722440944881
11
3.112346023622047
21
-5.8730817322834641
0
LINE
8
BLACK
6
CONTINUOUS
10
3.112346023622047
20
-5.8730817322834641
11
3.1123140944881889
21
-5.873113622047244
0
LINE
8
BLACK
6
CONTINUOUS
10
3.1123140944881889
20
-5.873113622047244
11
3.1122880708661418
21
-5.8732087401574802
0
LINE
8
BLACK
6
CONTINUOUS
10
3.1122880708661418
20
-5.8732087401574802
11
3.1107882283464567
21
-5.8762083858267715
0
LINE
8
BLACK
6
CONTINUOUS
10
3.1107882283464567
20
-5.8762083858267715
11
3.1103173228346455
21
-5.8768151574803147
0
LINE
8
BLACK
6
CONTINUOUS
10
3.1103173228346455
20
-5.8768151574803147
11
3.108888031496063
21
-5.8772916141732283
0
LINE
8
BLACK
6
CONTINUOUS
10
3.108888031496063
20
-5.8772916141732283
11
3.1075404724409448
21
-5.8766178346456694
0
LINE
8
BLACK
6
CONTINUOUS
10
3.1075404724409448
20
-5.8766178346456694
11
3.1070640157480316
21
-5.8751885433070861
0
LINE
8
BLACK
6
CONTINUOUS
10
3.1070640157480316
20
-5.8751885433070861
11
3.1072668897637796
21
-5.8744477559055115
0
LINE
8
BLACK
6
CONTINUOUS
10
3.1072668897637796
20
-5.8744477559055115
11
3.1085588582677164
21
-5.8718637401574805
0
LINE
8
BLACK
6
CONTINUOUS
10
3.1085588582677164
20
-5.8718637401574805
11
3.1085588582677164
21
-5.8667938582677168
0
LINE
8
BLACK
6
CONTINUOUS
10
3.1085588582677164
20
-5.8667938582677168
11
3.1075603149606299
21
-5.864796771653543
0
LINE
8
BLACK
6
CONTINUOUS
10
3.1075603149606299
20
-5.864796771653543
11
3.1055632283464565
21
-5.8637982283464565
0
LINE
8
BLACK
6
CONTINUOUS
10
3.1055632283464565
20
-5.8637982283464565
11
3.101642440944882
21
-5.8637982283464565
0
LINE
8
BLACK
6
CONTINUOUS
10
3.101642440944882
20
-5.8637982283464565
11
3.0989593307086611
21
-5.8772139370078742
0
LINE
8
BLACK
6
CONTINUOUS
10
3.0989593307086611
20
-5.8772139370078742
11
3.0988477165354329
21
-5.8774825590551183
0
LINE
8
BLACK
6
CONTINUOUS
10
3.0988477165354329
20
-5.8774825590551183
11
3.0988477165354329
21
-5.8775811811023617
0
LINE
8
BLACK
6
CONTINUOUS
10
3.0988477165354329
20
-5.8775811811023617
11
3.0987776377952754
21
-5.8776512204724405
0
LINE
8
BLACK
6
CONTINUOUS
10
3.0987776377952754
20
-5.8776512204724405
11
3.0986646456692912
21
-5.8779232283464564
0
LINE
8
BLACK
6
CONTINUOUS
10
3.0986646456692912
20
-5.8779232283464564
11
3.098187716535433
21
-5.8782411417322837
0
LINE
8
BLACK
6
CONTINUOUS
10
3.098187716535433
20
-5.8782411417322837
11
3.0977823622047245
21
-5.878646535433071
0
LINE
8
BLACK
6
CONTINUOUS
10
3.0977823622047245
20
-5.878646535433071
11
3.097493464566929
21
-5.8787039763779525
0
LINE
8
BLACK
6
CONTINUOUS
10
3.097493464566929
20
-5.8787039763779525
11
3.0974110629921259
21
-5.8787589370078734
0
LINE
8
BLACK
6
CONTINUOUS
10
3.0974110629921259
20
-5.8787589370078734
11
3.0973144094488188
21
-5.8787396062992121
0
LINE
8
BLACK
6
CONTINUOUS
10
3.0973144094488188
20
-5.8787396062992121
11
3.0970290551181101
21
-5.8787963779527557
0
LINE
8
BLACK
6
CONTINUOUS
10
3.0970290551181101
20
-5.8787963779527557
11
3.0940294094488188
21
-5.8787963779527557
0
LINE
8
BLACK
6
CONTINUOUS
10
3.0940294094488188
20
-5.8787963779527557
11
3.0939326771653541
21
-5.8787771259842518
0
LINE
8
BLACK
6
CONTINUOUS
10
3.0939326771653541
20
-5.8787771259842518
11
3.093889842519685
21
-5.8787914173228346
0
LINE
8
BLACK
6
CONTINUOUS
10
3.093889842519685
20
-5.8787914173228346
11
3.0935855905511809
21
-5.8787080708661419
0
LINE
8
BLACK
6
CONTINUOUS
10
3.0935855905511809
20
-5.8787080708661419
11
3.0932761023622048
21
-5.878646535433071
0
LINE
8
BLACK
6
CONTINUOUS
10
3.0932761023622048
20
-5.878646535433071
11
3.0932441338582675
21
-5.8786145669291336
0
LINE
8
BLACK
6
CONTINUOUS
10
3.0932441338582675
20
-5.8786145669291336
11
3.09314905511811
21
-5.8785885433070861
0
LINE
8
BLACK
6
CONTINUOUS
10
3.09314905511811
20
-5.8785885433070861
11
3.0901494488188974
21
-5.8770887401574798
0
LINE
8
BLACK
6
CONTINUOUS
10
3.0901494488188974
20
-5.8770887401574798
11
3.0898397637795276
21
-5.8768483858267713
0
LINE
8
BLACK
6
CONTINUOUS
10
3.0898397637795276
20
-5.8768483858267713
11
3.0897400393700787
21
-5.8768151574803147
0
LINE
8
BLACK
6
CONTINUOUS
10
3.0897400393700787
20
-5.8768151574803147
11
3.0896538582677167
21
-5.876704094488189
0
LINE
8
BLACK
6
CONTINUOUS
10
3.0896538582677167
20
-5.876704094488189
11
3.0895426771653542
21
-5.8766178346456694
0
LINE
8
BLACK
6
CONTINUOUS
10
3.0895426771653542
20
-5.8766178346456694
11
3.0895093700787402
21
-5.876517952755905
0
LINE
8
BLACK
6
CONTINUOUS
10
3.0895093700787402
20
-5.876517952755905
11
3.0892691338582678
21
-5.8762084251968503
0
LINE
8
BLACK
6
CONTINUOUS
10
3.0892691338582678
20
-5.8762084251968503
11
3.0877692913385828
21
-5.8732087795275589
0
LINE
8
BLACK
6
CONTINUOUS
10
3.0877692913385828
20
-5.8732087795275589
11
3.0877432283464565
21
-5.8731136614173227
0
LINE
8
BLACK
6
CONTINUOUS
10
3.0877432283464565
20
-5.8731136614173227
11
3.0877112992125983
21
-5.8730817322834641
0
LINE
8
BLACK
6
CONTINUOUS
10
3.0877112992125983
20
-5.8730817322834641
11
3.0876497244094487
21
-5.8727722047244093
0
LINE
8
BLACK
6
CONTINUOUS
10
3.0876497244094487
20
-5.8727722047244093
11
3.0875664173228348
21
-5.8724679921259844
0
LINE
8
BLACK
6
CONTINUOUS
10
3.0875664173228348
20
-5.8724679921259844
11
3.0875806692913383
21
-5.872425118110236
0
LINE
8
BLACK
6
CONTINUOUS
10
3.0875806692913383
20
-5.872425118110236
11
3.0875614566929133
21
-5.8723284251968506
0
LINE
8
BLACK
6
CONTINUOUS
10
3.0875614566929133
20
-5.8723284251968506
11
3.0875614566929133
21
-5.8663291732283467
0
LINE
8
BLACK
6
CONTINUOUS
10
3.0875614566929133
20
-5.8663291732283467
11
3.0875806692913383
21
-5.8662324409448816
0
LINE
8
BLACK
6
CONTINUOUS
10
3.0875806692913383
20
-5.8662324409448816
11
3.0875664173228348
21
-5.866189606299212
0
LINE
8
BLACK
6
CONTINUOUS
10
3.0875664173228348
20
-5.866189606299212
11
3.0876497244094487
21
-5.8658853543307083
0
LINE
8
BLACK
6
CONTINUOUS
10
3.0876497244094487
20
-5.8658853543307083
11
3.0877112992125983
21
-5.8655758661417323
0
LINE
8
BLACK
6
CONTINUOUS
10
3.0877112992125983
20
-5.8655758661417323
11
3.0877432283464565
21
-5.8655438976377949
0
LINE
8
BLACK
6
CONTINUOUS
10
3.0877432283464565
20
-5.8655438976377949
11
3.0877692913385828
21
-5.8654488188976375
0
LINE
8
BLACK
6
CONTINUOUS
10
3.0877692913385828
20
-5.8654488188976375
11
3.0892691338582678
21
-5.8624492125984249
0
LINE
8
BLACK
6
CONTINUOUS
10
3.0892691338582678
20
-5.8624492125984249
11
3.0895093700787402
21
-5.8621396456692914
0
LINE
8
BLACK
6
CONTINUOUS
10
3.0895093700787402
20
-5.8621396456692914
11
3.0895426771653542
21
-5.8620398031496066
0
LINE
8
BLACK
6
CONTINUOUS
10
3.0895426771653542
20
-5.8620398031496066
11
3.0896538582677167
21
-5.8619535039370074
0
LINE
8
BLACK
6
CONTINUOUS
10
3.0896538582677167
20
-5.8619535039370074
11
3.0897400393700787
21
-5.8618424803149605
0
LINE
8
BLACK
6
CONTINUOUS
10
3.0897400393700787
20
-5.8618424803149605
11
3.0898397637795276
21
-5.8618092125984251
0
LINE
8
BLACK
6
CONTINUOUS
10
3.0898397637795276
20
-5.8618092125984251
11
3.0901494488188974
21
-5.8615688976377953
0
LINE
8
BLACK
6
CONTINUOUS
10
3.0901494488188974
20
-5.8615688976377953
11
3.0931490157480312
21
-5.8600690551181103
0
LINE
8
BLACK
6
CONTINUOUS
10
3.0931490157480312
20
-5.8600690551181103
11
3.0932441338582675
21
-5.860042992125984
0
LINE
8
BLACK
6
CONTINUOUS
10
3.0932441338582675
20
-5.860042992125984
11
3.0932761023622048
21
-5.8600110629921263
0
LINE
8
BLACK
6
CONTINUOUS
10
3.0932761023622048
20
-5.8600110629921263
11
3.0935854724409446
21
-5.8599494881889767
0
LINE
8
BLACK
6
CONTINUOUS
10
3.0935854724409446
20
-5.8599494881889767
11
3.0938898031496063
21
-5.8598661811023618
0
LINE
8
BLACK
6
CONTINUOUS
10
3.0938898031496063
20
-5.8598661811023618
11
3.0939326377952754
21
-5.8598804330708658
0
LINE
8
BLACK
6
CONTINUOUS
10
3.0939326377952754
20
-5.8598804330708658
11
3.0940294094488188
21
-5.8598612204724407
0
LINE
8
BLACK
6
CONTINUOUS
10
3.0940294094488188
20
-5.8598612204724407
11
3.1060279133858266
21
-5.8598612204724407
0
LINE
8
BLACK
6
CONTINUOUS
10
3.1060279133858266
20
-5.8598612204724407
11
3.1061246062992125
21
-5.8598804330708658
0
LINE
8
BLACK
6
CONTINUOUS
10
3.0924970472440942
20
-5.864796771653543
11
3.091498464566929
21
-5.8667938582677168
0
LINE
8
BLACK
6
CONTINUOUS
10
3.091498464566929
20
-5.8667938582677168
11
3.091498464566929
21
-5.8718637007874017
0
LINE
8
BLACK
6
CONTINUOUS
10
3.091498464566929
20
-5.8718637007874017
11
3.0924970078740155
21
-5.8738608267716534
0
LINE
8
BLACK
6
CONTINUOUS
10
3.0924970078740155
20
-5.8738608267716534
11
3.0944940944881889
21
-5.8748593700787399
0
LINE
8
BLACK
6
CONTINUOUS
10
3.0944940944881889
20
-5.8748593700787399
11
3.0954152755905513
21
-5.8748593700787399
0
LINE
8
BLACK
6
CONTINUOUS
10
3.0954152755905513
20
-5.8748593700787399
11
3.0976274803149604
21
-5.8637982283464565
0
LINE
8
BLACK
6
CONTINUOUS
10
3.0976274803149604
20
-5.8637982283464565
11
3.0944940944881889
21
-5.8637982283464565
0
LINE
8
BLACK
6
CONTINUOUS
10
3.0944940944881889
20
-5.8637982283464565
11
3.0924970472440942
21
-5.864796771653543
0
LINE
8
BLACK
6
CONTINUOUS
10
3.1112806692913386
20
-5.8420133464566923
11
3.112346023622047
21
-5.8430787007874017
0
LINE
8
BLACK
6
CONTINUOUS
10
3.112346023622047
20
-5.8430787007874017
11
3.112346023622047
21
-5.8445853149606295
0
LINE
8
BLACK
6
CONTINUOUS
10
3.112346023622047
20
-5.8445853149606295
11
3.1112806692913386
21
-5.8456506692913388
0
LINE
8
BLACK
6
CONTINUOUS
10
3.1112806692913386
20
-5.8456506692913388
11
3.1105273622047243
21
-5.8458005118110234
0
LINE
8
BLACK
6
CONTINUOUS
10
3.1105273622047243
20
-5.8458005118110234
11
3.0959938976377952
21
-5.8458005118110234
0
LINE
8
BLACK
6
CONTINUOUS
10
3.0959938976377952
20
-5.8458005118110234
11
3.0936956692913387
21
-5.8469496062992121
0
LINE
8
BLACK
6
CONTINUOUS
10
3.0936956692913387
20
-5.8469496062992121
11
3.0926475984251969
21
-5.8479976377952756
0
LINE
8
BLACK
6
CONTINUOUS
10
3.0926475984251969
20
-5.8479976377952756
11
3.091498464566929
21
-5.8502959448818892
0
LINE
8
BLACK
6
CONTINUOUS
10
3.091498464566929
20
-5.8502959448818892
11
3.091498464566929
21
-5.8528308661417325
0
LINE
8
BLACK
6
CONTINUOUS
10
3.091498464566929
20
-5.8528308661417325
11
3.0913486220472439
21
-5.853584173228346
0
LINE
8
BLACK
6
CONTINUOUS
10
3.0913486220472439
20
-5.853584173228346
11
3.0902832677165355
21
-5.8546495275590553
0
LINE
8
BLACK
6
CONTINUOUS
10
3.0902832677165355
20
-5.8546495275590553
11
3.0887766535433072
21
-5.8546495275590553
0
LINE
8
BLACK
6
CONTINUOUS
10
3.0887766535433072
20
-5.8546495275590553
11
3.0877112992125983
21
-5.853584173228346
0
LINE
8
BLACK
6
CONTINUOUS
10
3.0877112992125983
20
-5.853584173228346
11
3.0875614566929133
21
-5.8528308661417325
0
LINE
8
BLACK
6
CONTINUOUS
10
3.0875614566929133
20
-5.8528308661417325
11
3.0875614566929133
21
-5.8498312598425199
0
LINE
8
BLACK
6
CONTINUOUS
10
3.0875614566929133
20
-5.8498312598425199
11
3.0875806692913383
21
-5.8497345275590549
0
LINE
8
BLACK
6
CONTINUOUS
10
3.0875806692913383
20
-5.8497345275590549
11
3.0875664173228348
21
-5.8496916929133853
0
LINE
8
BLACK
6
CONTINUOUS
10
3.0875664173228348
20
-5.8496916929133853
11
3.0876497244094487
21
-5.8493874409448816
0
LINE
8
BLACK
6
CONTINUOUS
10
3.0876497244094487
20
-5.8493874409448816
11
3.0877112992125983
21
-5.8490779527559056
0
LINE
8
BLACK
6
CONTINUOUS
10
3.0877112992125983
20
-5.8490779527559056
11
3.0877432283464565
21
-5.8490459842519682
0
LINE
8
BLACK
6
CONTINUOUS
10
3.0877432283464565
20
-5.8490459842519682
11
3.0877692913385828
21
-5.8489509055118107
0
LINE
8
BLACK
6
CONTINUOUS
10
3.0877692913385828
20
-5.8489509055118107
11
3.0892691338582678
21
-5.8459512598425194
0
LINE
8
BLACK
6
CONTINUOUS
10
3.0892691338582678
20
-5.8459512598425194
11
3.0894053543307085
21
-5.8457757086614173
0
LINE
8
BLACK
6
CONTINUOUS
10
3.0894053543307085
20
-5.8457757086614173
11
3.0887766535433072
21
-5.8456506692913388
0
LINE
8
BLACK
6
CONTINUOUS
10
3.0887766535433072
20
-5.8456506692913388
11
3.0877112992125983
21
-5.8445853149606295
0
LINE
8
BLACK
6
CONTINUOUS
10
3.0877112992125983
20
-5.8445853149606295
11
3.0877112992125983
21
-5.8430787007874017
0
LINE
8
BLACK
6
CONTINUOUS
10
3.0877112992125983
20
-5.8430787007874017
11
3.0887766535433072
21
-5.8420133464566923
0
LINE
8
BLACK
6
CONTINUOUS
10
3.0887766535433072
20
-5.8420133464566923
11
3.0895299606299211
21
-5.8418635039370077
0
LINE
8
BLACK
6
CONTINUOUS
10
3.0895299606299211
20
-5.8418635039370077
11
3.1105273622047243
21
-5.8418635039370077
0
LINE
8
BLACK
6
CONTINUOUS
10
3.1105273622047243
20
-5.8418635039370077
11
3.1112806692913386
21
-5.8420133464566923
0
LINE
8
BLACK
6
CONTINUOUS
10
3.1112806692913386
20
-5.8225157874015743
11
3.112346023622047
21
-5.8235811417322836
0
LINE
8
BLACK
6
CONTINUOUS
10
3.112346023622047
20
-5.8235811417322836
11
3.112346023622047
21
-5.8250877559055114
0
LINE
8
BLACK
6
CONTINUOUS
10
3.112346023622047
20
-5.8250877559055114
11
3.1112806692913386
21
-5.8261531102362207
0
LINE
8
BLACK
6
CONTINUOUS
10
3.1112806692913386
20
-5.8261531102362207
11
3.1105273622047243
21
-5.8263029527559054
0
LINE
8
BLACK
6
CONTINUOUS
10
3.1105273622047243
20
-5.8263029527559054
11
3.0959938976377952
21
-5.8263029527559054
0
LINE
8
BLACK
6
CONTINUOUS
10
3.0959938976377952
20
-5.8263029527559054
11
3.0936956692913387
21
-5.827452047244094
0
LINE
8
BLACK
6
CONTINUOUS
10
3.0936956692913387
20
-5.827452047244094
11
3.0926475984251969
21
-5.8285000787401575
0
LINE
8
BLACK
6
CONTINUOUS
10
3.0926475984251969
20
-5.8285000787401575
11
3.091498464566929
21
-5.8307983858267711
0
LINE
8
BLACK
6
CONTINUOUS
10
3.091498464566929
20
-5.8307983858267711
11
3.091498464566929
21
-5.8333333070866145
0
LINE
8
BLACK
6
CONTINUOUS
10
3.091498464566929
20
-5.8333333070866145
11
3.0913486220472439
21
-5.8340866141732279
0
LINE
8
BLACK
6
CONTINUOUS
10
3.0913486220472439
20
-5.8340866141732279
11
3.0902832677165355
21
-5.8351519685039372
0
LINE
8
BLACK
6
CONTINUOUS
10
3.0902832677165355
20
-5.8351519685039372
11
3.0887766535433072
21
-5.8351519685039372
0
LINE
8
BLACK
6
CONTINUOUS
10
3.0887766535433072
20
-5.8351519685039372
11
3.0877112992125983
21
-5.8340866141732279
0
LINE
8
BLACK
6
CONTINUOUS
10
3.0877112992125983
20
-5.8340866141732279
11
3.0875614566929133
21
-5.8333333070866145
0
LINE
8
BLACK
6
CONTINUOUS
10
3.0875614566929133
20
-5.8333333070866145
11
3.0875614566929133
21
-5.8303337007874019
0
LINE
8
BLACK
6
CONTINUOUS
10
3.0875614566929133
20
-5.8303337007874019
11
3.0875806692913383
21
-5.8302369685039368
0
LINE
8
BLACK
6
CONTINUOUS
10
3.0875806692913383
20
-5.8302369685039368
11
3.0875664173228348
21
-5.8301941338582672
0
LINE
8
BLACK
6
CONTINUOUS
10
3.0875664173228348
20
-5.8301941338582672
11
3.0876497244094487
21
-5.8298898818897635
0
LINE
8
BLACK
6
CONTINUOUS
10
3.0876497244094487
20
-5.8298898818897635
11
3.0877112992125983
21
-5.8295803937007875
0
LINE
8
BLACK
6
CONTINUOUS
10
3.0877112992125983
20
-5.8295803937007875
11
3.0877432283464565
21
-5.8295484251968501
0
LINE
8
BLACK
6
CONTINUOUS
10
3.0877432283464565
20
-5.8295484251968501
11
3.0877692913385828
21
-5.8294533464566927
0
LINE
8
BLACK
6
CONTINUOUS
10
3.0877692913385828
20
-5.8294533464566927
11
3.0892691338582678
21
-5.8264537007874013
0
LINE
8
BLACK
6
CONTINUOUS
10
3.0892691338582678
20
-5.8264537007874013
11
3.0894053543307085
21
-5.8262781496062992
0
LINE
8
BLACK
6
CONTINUOUS
10
3.0894053543307085
20
-5.8262781496062992
11
3.0887766535433072
21
-5.8261531102362207
0
LINE
8
BLACK
6
CONTINUOUS
10
3.0887766535433072
20
-5.8261531102362207
11
3.0877112992125983
21
-5.8250877559055114
0
LINE
8
BLACK
6
CONTINUOUS
10
3.0877112992125983
20
-5.8250877559055114
11
3.0877112992125983
21
-5.8235811417322836
0
LINE
8
BLACK
6
CONTINUOUS
10
3.0877112992125983
20
-5.8235811417322836
11
3.0887766535433072
21
-5.8225157874015743
0
LINE
8
BLACK
6
CONTINUOUS
10
3.0887766535433072
20
-5.8225157874015743
11
3.0895299606299211
21
-5.8223659448818896
0
LINE
8
BLACK
6
CONTINUOUS
10
3.0895299606299211
20
-5.8223659448818896
11
3.1105273622047243
21
-5.8223659448818896
0
LINE
8
BLACK
6
CONTINUOUS
10
3.1105273622047243
20
-5.8223659448818896
11
3.1112806692913386
21
-5.8225157874015743
0
LINE
8
BLACK
6
CONTINUOUS
10
3.1061246062992125
20
-5.7923888582677163
11
3.1061674803149604
21
-5.7923746062992123
0
LINE
8
BLACK
6
CONTINUOUS
10
3.1061674803149604
20
-5.7923746062992123
11
3.1064716929133858
21
-5.7924579133858263
0
LINE
8
BLACK
6
CONTINUOUS
10
3.1064716929133858
20
-5.7924579133858263
11
3.106781220472441
21
-5.7925194881889759
0
LINE
8
BLACK
6
CONTINUOUS
10
3.106781220472441
20
-5.7925194881889759
11
3.1068131496062992
21
-5.7925514173228345
0
LINE
8
BLACK
6
CONTINUOUS
10
3.1068131496062992
20
-5.7925514173228345
11
3.1069082677165354
21
-5.7925774803149608
0
LINE
8
BLACK
6
CONTINUOUS
10
3.1069082677165354
20
-5.7925774803149608
11
3.1099079133858267
21
-5.7940773228346458
0
LINE
8
BLACK
6
CONTINUOUS
10
3.1099079133858267
20
-5.7940773228346458
11
3.110217440944882
21
-5.7943175590551181
0
LINE
8
BLACK
6
CONTINUOUS
10
3.110217440944882
20
-5.7943175590551181
11
3.1103173228346455
21
-5.7943508661417322
0
LINE
8
BLACK
6
CONTINUOUS
10
3.1103173228346455
20
-5.7943508661417322
11
3.1104035826771654
21
-5.7944620472440942
0
LINE
8
BLACK
6
CONTINUOUS
10
3.1104035826771654
20
-5.7944620472440942
11
3.1105146456692911
21
-5.7945482283464562
0
LINE
8
BLACK
6
CONTINUOUS
10
3.1105146456692911
20
-5.7945482283464562
11
3.1105478740157482
21
-5.7946479527559056
0
LINE
8
BLACK
6
CONTINUOUS
10
3.1105478740157482
20
-5.7946479527559056
11
3.1107882283464567
21
-5.7949576377952754
0
LINE
8
BLACK
6
CONTINUOUS
10
3.1107882283464567
20
-5.7949576377952754
11
3.112288031496063
21
-5.797957244094488
0
LINE
8
BLACK
6
CONTINUOUS
10
3.112288031496063
20
-5.797957244094488
11
3.1123140551181101
21
-5.7980523228346454
0
LINE
8
BLACK
6
CONTINUOUS
10
3.1123140551181101
20
-5.7980523228346454
11
3.112346023622047
21
-5.7980842913385828
0
LINE
8
BLACK
6
CONTINUOUS
10
3.112346023622047
20
-5.7980842913385828
11
3.1124075590551179
21
-5.7983937795275589
0
LINE
8
BLACK
6
CONTINUOUS
10
3.1124075590551179
20
-5.7983937795275589
11
3.1124909055118111
21
-5.7986980314960626
0
LINE
8
BLACK
6
CONTINUOUS
10
3.1124909055118111
20
-5.7986980314960626
11
3.1124766141732283
21
-5.7987408661417321
0
LINE
8
BLACK
6
CONTINUOUS
10
3.1124766141732283
20
-5.7987408661417321
11
3.1124958661417321
21
-5.7988375984251963
0
LINE
8
BLACK
6
CONTINUOUS
10
3.1124958661417321
20
-5.7988375984251963
11
3.1124958661417321
21
-5.8063366535433065
0
LINE
8
BLACK
6
CONTINUOUS
10
3.1124958661417321
20
-5.8063366535433065
11
3.1124766141732283
21
-5.8064333464566928
0
LINE
8
BLACK
6
CONTINUOUS
10
3.1124766141732283
20
-5.8064333464566928
11
3.1124909055118111
21
-5.8064761811023624
0
LINE
8
BLACK
6
CONTINUOUS
10
3.1124909055118111
20
-5.8064761811023624
11
3.1124075590551179
21
-5.8067804724409449
0
LINE
8
BLACK
6
CONTINUOUS
10
3.1124075590551179
20
-5.8067804724409449
11
3.112346023622047
21
-5.8070899606299209
0
LINE
8
BLACK
6
CONTINUOUS
10
3.112346023622047
20
-5.8070899606299209
11
3.1123140944881889
21
-5.8071218503937008
0
LINE
8
BLACK
6
CONTINUOUS
10
3.1123140944881889
20
-5.8071218503937008
11
3.1122880708661418
21
-5.807216968503937
0
LINE
8
BLACK
6
CONTINUOUS
10
3.1122880708661418
20
-5.807216968503937
11
3.1118520078740155
21
-5.8080889763779524
0
LINE
8
BLACK
6
CONTINUOUS
10
3.1118520078740155
20
-5.8080889763779524
11
3.112346023622047
21
-5.8085829921259844
0
LINE
8
BLACK
6
CONTINUOUS
10
3.112346023622047
20
-5.8085829921259844
11
3.112346023622047
21
-5.8100896062992122
0
LINE
8
BLACK
6
CONTINUOUS
10
3.112346023622047
20
-5.8100896062992122
11
3.1112806692913386
21
-5.8111549606299215
0
LINE
8
BLACK
6
CONTINUOUS
10
3.1112806692913386
20
-5.8111549606299215
11
3.1105273622047243
21
-5.8113048031496062
0
LINE
8
BLACK
6
CONTINUOUS
10
3.1105273622047243
20
-5.8113048031496062
11
3.0940294094488188
21
-5.8113048031496062
0
LINE
8
BLACK
6
CONTINUOUS
10
3.0940294094488188
20
-5.8113048031496062
11
3.0939326771653541
21
-5.8112855511811023
0
LINE
8
BLACK
6
CONTINUOUS
10
3.0939326771653541
20
-5.8112855511811023
11
3.093889842519685
21
-5.8112998425196851
0
LINE
8
BLACK
6
CONTINUOUS
10
3.093889842519685
20
-5.8112998425196851
11
3.0935855905511809
21
-5.8112164960629924
0
LINE
8
BLACK
6
CONTINUOUS
10
3.0935855905511809
20
-5.8112164960629924
11
3.0932761023622048
21
-5.8111549606299215
0
LINE
8
BLACK
6
CONTINUOUS
10
3.0932761023622048
20
-5.8111549606299215
11
3.0932441338582675
21
-5.8111229921259842
0
LINE
8
BLACK
6
CONTINUOUS
10
3.0932441338582675
20
-5.8111229921259842
11
3.09314905511811
21
-5.8110969685039366
0
LINE
8
BLACK
6
CONTINUOUS
10
3.09314905511811
20
-5.8110969685039366
11
3.0901494488188974
21
-5.8095971653543304
0
LINE
8
BLACK
6
CONTINUOUS
10
3.0901494488188974
20
-5.8095971653543304
11
3.0898397637795276
21
-5.8093568110236218
0
LINE
8
BLACK
6
CONTINUOUS
10
3.0898397637795276
20
-5.8093568110236218
11
3.0897400393700787
21
-5.8093235826771652
0
LINE
8
BLACK
6
CONTINUOUS
10
3.0897400393700787
20
-5.8093235826771652
11
3.0896538582677167
21
-5.8092125196850395
0
LINE
8
BLACK
6
CONTINUOUS
10
3.0896538582677167
20
-5.8092125196850395
11
3.0895426771653542
21
-5.80912625984252
0
LINE
8
BLACK
6
CONTINUOUS
10
3.0895426771653542
20
-5.80912625984252
11
3.0895093700787402
21
-5.8090263779527556
0
LINE
8
BLACK
6
CONTINUOUS
10
3.0895093700787402
20
-5.8090263779527556
11
3.0892691338582678
21
-5.8087168503937008
0
LINE
8
BLACK
6
CONTINUOUS
10
3.0892691338582678
20
-5.8087168503937008
11
3.0877692913385828
21
-5.8057172047244094
0
LINE
8
BLACK
6
CONTINUOUS
10
3.0877692913385828
20
-5.8057172047244094
11
3.0877432283464565
21
-5.8056220866141732
0
LINE
8
BLACK
6
CONTINUOUS
10
3.0877432283464565
20
-5.8056220866141732
11
3.0877112992125983
21
-5.8055901574803146
0
LINE
8
BLACK
6
CONTINUOUS
10
3.0877112992125983
20
-5.8055901574803146
11
3.0876497244094487
21
-5.8052806299212598
0
LINE
8
BLACK
6
CONTINUOUS
10
3.0876497244094487
20
-5.8052806299212598
11
3.0875664173228348
21
-5.8049764173228349
0
LINE
8
BLACK
6
CONTINUOUS
10
3.0875664173228348
20
-5.8049764173228349
11
3.0875806692913383
21
-5.8049335433070866
0
LINE
8
BLACK
6
CONTINUOUS
10
3.0875806692913383
20
-5.8049335433070866
11
3.0875614566929133
21
-5.8048368503937002
0
LINE
8
BLACK
6
CONTINUOUS
10
3.0875614566929133
20
-5.8048368503937002
11
3.0875614566929133
21
-5.7988375984251963
0
LINE
8
BLACK
6
CONTINUOUS
10
3.0875614566929133
20
-5.7988375984251963
11
3.0875806692913383
21
-5.7987408661417321
0
LINE
8
BLACK
6
CONTINUOUS
10
3.0875806692913383
20
-5.7987408661417321
11
3.0875664173228348
21
-5.7986980314960626
0
LINE
8
BLACK
6
CONTINUOUS
10
3.0875664173228348
20
-5.7986980314960626
11
3.0876497244094487
21
-5.7983937795275589
0
LINE
8
BLACK
6
CONTINUOUS
10
3.0876497244094487
20
-5.7983937795275589
11
3.0877112992125983
21
-5.7980842913385828
0
LINE
8
BLACK
6
CONTINUOUS
10
3.0877112992125983
20
-5.7980842913385828
11
3.0877432283464565
21
-5.7980523228346454
0
LINE
8
BLACK
6
CONTINUOUS
10
3.0877432283464565
20
-5.7980523228346454
11
3.0877692913385828
21
-5.797957244094488
0
LINE
8
BLACK
6
CONTINUOUS
10
3.0877692913385828
20
-5.797957244094488
11
3.0892691338582678
21
-5.7949576377952754
0
LINE
8
BLACK
6
CONTINUOUS
10
3.0892691338582678
20
-5.7949576377952754
11
3.0897400393700787
21
-5.794350905511811
0
LINE
8
BLACK
6
CONTINUOUS
10
3.0897400393700787
20
-5.794350905511811
11
3.0911693700787399
21
-5.7938744488188973
0
LINE
8
BLACK
6
CONTINUOUS
10
3.0911693700787399
20
-5.7938744488188973
11
3.0925169291338581
21
-5.794548267716535
0
LINE
8
BLACK
6
CONTINUOUS
10
3.0925169291338581
20
-5.794548267716535
11
3.092993346456693
21
-5.7959775984251971
0
LINE
8
BLACK
6
CONTINUOUS
10
3.092993346456693
20
-5.7959775984251971
11
3.092790472440945
21
-5.7967183858267717
0
LINE
8
BLACK
6
CONTINUOUS
10
3.092790472440945
20
-5.7967183858267717
11
3.091498464566929
21
-5.7993022834645664
0
LINE
8
BLACK
6
CONTINUOUS
10
3.091498464566929
20
-5.7993022834645664
11
3.091498464566929
21
-5.8043721259842522
0
LINE
8
BLACK
6
CONTINUOUS
10
3.091498464566929
20
-5.8043721259842522
11
3.0924970078740155
21
-5.806369251968504
0
LINE
8
BLACK
6
CONTINUOUS
10
3.0924970078740155
20
-5.806369251968504
11
3.0944940944881889
21
-5.8073677952755904
0
LINE
8
BLACK
6
CONTINUOUS
10
3.0944940944881889
20
-5.8073677952755904
11
3.0958124803149607
21
-5.8073677952755904
0
LINE
8
BLACK
6
CONTINUOUS
10
3.0958124803149607
20
-5.8073677952755904
11
3.0965603543307085
21
-5.8058719685039373
0
LINE
8
BLACK
6
CONTINUOUS
10
3.0965603543307085
20
-5.8058719685039373
11
3.0965603543307085
21
-5.7988375984251963
0
LINE
8
BLACK
6
CONTINUOUS
10
3.0965603543307085
20
-5.7988375984251963
11
3.0965795669291336
21
-5.7987408661417321
0
LINE
8
BLACK
6
CONTINUOUS
10
3.0965795669291336
20
-5.7987408661417321
11
3.09656531496063
21
-5.7986980314960626
0
LINE
8
BLACK
6
CONTINUOUS
10
3.09656531496063
20
-5.7986980314960626
11
3.096648622047244
21
-5.7983937795275589
0
LINE
8
BLACK
6
CONTINUOUS
10
3.096648622047244
20
-5.7983937795275589
11
3.0967101968503936
21
-5.7980842913385828
0
LINE
8
BLACK
6
CONTINUOUS
10
3.0967101968503936
20
-5.7980842913385828
11
3.0967421259842518
21
-5.7980523228346454
0
LINE
8
BLACK
6
CONTINUOUS
10
3.0967421259842518
20
-5.7980523228346454
11
3.0967681889763781
21
-5.797957244094488
0
LINE
8
BLACK
6
CONTINUOUS
10
3.0967681889763781
20
-5.797957244094488
11
3.0982679921259844
21
-5.7949576377952754
0
LINE
8
BLACK
6
CONTINUOUS
10
3.0982679921259844
20
-5.7949576377952754
11
3.0985082283464567
21
-5.7946480314960631
0
LINE
8
BLACK
6
CONTINUOUS
10
3.0985082283464567
20
-5.7946480314960631
11
3.0985415354330708
21
-5.7945482283464562
0
LINE
8
BLACK
6
CONTINUOUS
10
3.0985415354330708
20
-5.7945482283464562
11
3.0986526377952757
21
-5.7944619685039367
0
LINE
8
BLACK
6
CONTINUOUS
10
3.0986526377952757
20
-5.7944619685039367
11
3.0987388976377952
21
-5.7943508661417322
0
LINE
8
BLACK
6
CONTINUOUS
10
3.0987388976377952
20
-5.7943508661417322
11
3.0988387007874016
21
-5.7943175590551181
0
LINE
8
BLACK
6
CONTINUOUS
10
3.0988387007874016
20
-5.7943175590551181
11
3.0991483070866139
21
-5.7940773228346458
0
LINE
8
BLACK
6
CONTINUOUS
10
3.0991483070866139
20
-5.7940773228346458
11
3.1021479527559053
21
-5.7925774803149608
0
LINE
8
BLACK
6
CONTINUOUS
10
3.1021479527559053
20
-5.7925774803149608
11
3.1022430314960627
21
-5.7925514173228345
0
LINE
8
BLACK
6
CONTINUOUS
10
3.1022430314960627
20
-5.7925514173228345
11
3.1022750000000001
21
-5.7925194881889759
0
LINE
8
BLACK
6
CONTINUOUS
10
3.1022750000000001
20
-5.7925194881889759
11
3.1025844881889761
21
-5.7924579133858263
0
LINE
8
BLACK
6
CONTINUOUS
10
3.1025844881889761
20
-5.7924579133858263
11
3.1028887401574803
21
-5.7923746062992123
0
LINE
8
BLACK
6
CONTINUOUS
10
3.1028887401574803
20
-5.7923746062992123
11
3.1029315748031494
21
-5.7923888582677163
0
LINE
8
BLACK
6
CONTINUOUS
10
3.1029315748031494
20
-5.7923888582677163
11
3.103028307086614
21
-5.7923696456692912
0
LINE
8
BLACK
6
CONTINUOUS
10
3.103028307086614
20
-5.7923696456692912
11
3.1060279133858266
21
-5.7923696456692912
0
LINE
8
BLACK
6
CONTINUOUS
10
3.1060279133858266
20
-5.7923696456692912
11
3.1061246062992125
21
-5.7923888582677163
0
LINE
8
BLACK
6
CONTINUOUS
10
3.101495866141732
20
-5.7973051968503935
11
3.1004973622047243
21
-5.7993022834645664
0
LINE
8
BLACK
6
CONTINUOUS
10
3.1004973622047243
20
-5.7993022834645664
11
3.1004973622047243
21
-5.8063366535433065
0
LINE
8
BLACK
6
CONTINUOUS
10
3.1004973622047243
20
-5.8063366535433065
11
3.1004781102362204
21
-5.8064333464566928
0
LINE
8
BLACK
6
CONTINUOUS
10
3.1004781102362204
20
-5.8064333464566928
11
3.1004924015748032
21
-5.8064761811023624
0
LINE
8
BLACK
6
CONTINUOUS
10
3.1004924015748032
20
-5.8064761811023624
11
3.10040905511811
21
-5.8067804724409449
0
LINE
8
BLACK
6
CONTINUOUS
10
3.10040905511811
20
-5.8067804724409449
11
3.1003475196850392
21
-5.8070899606299209
0
LINE
8
BLACK
6
CONTINUOUS
10
3.1003475196850392
20
-5.8070899606299209
11
3.100315590551181
21
-5.8071218503937008
0
LINE
8
BLACK
6
CONTINUOUS
10
3.100315590551181
20
-5.8071218503937008
11
3.1002895669291339
21
-5.807216968503937
0
LINE
8
BLACK
6
CONTINUOUS
10
3.1002895669291339
20
-5.807216968503937
11
3.1002141338582678
21
-5.8073677952755904
0
LINE
8
BLACK
6
CONTINUOUS
10
3.1002141338582678
20
-5.8073677952755904
11
3.1078109842519686
21
-5.8073677952755904
0
LINE
8
BLACK
6
CONTINUOUS
10
3.1078109842519686
20
-5.8073677952755904
11
3.1085588582677164
21
-5.8058719685039373
0
LINE
8
BLACK
6
CONTINUOUS
10
3.1085588582677164
20
-5.8058719685039373
11
3.1085588582677164
21
-5.7993022834645664
0
LINE
8
BLACK
6
CONTINUOUS
10
3.1085588582677164
20
-5.7993022834645664
11
3.1075603149606299
21
-5.7973051968503935
0
LINE
8
BLACK
6
CONTINUOUS
10
3.1075603149606299
20
-5.7973051968503935
11
3.1055632283464565
21
-5.796306653543307
0
LINE
8
BLACK
6
CONTINUOUS
10
3.1055632283464565
20
-5.796306653543307
11
3.1034929921259842
21
-5.796306653543307
0
LINE
8
BLACK
6
CONTINUOUS
10
3.1034929921259842
20
-5.796306653543307
11
3.101495866141732
21
-5.7973051968503935
0
LINE
8
BLACK
6
CONTINUOUS
10
3.1112806692913386
20
-5.762523267716535
11
3.112346023622047
21
-5.7635886220472443
0
LINE
8
BLACK
6
CONTINUOUS
10
3.112346023622047
20
-5.7635886220472443
11
3.1124958661417321
21
-5.7643419291338578
0
LINE
8
BLACK
6
CONTINUOUS
10
3.1124958661417321
20
-5.7643419291338578
11
3.1124958661417321
21
-5.7763404330708656
0
LINE
8
BLACK
6
CONTINUOUS
10
3.1124958661417321
20
-5.7763404330708656
11
3.1124766141732283
21
-5.776437125984252
0
LINE
8
BLACK
6
CONTINUOUS
10
3.1124766141732283
20
-5.776437125984252
11
3.1124909055118111
21
-5.7764800000000003
0
LINE
8
BLACK
6
CONTINUOUS
10
3.1124909055118111
20
-5.7764800000000003
11
3.1124075590551179
21
-5.7767842125984252
0
LINE
8
BLACK
6
CONTINUOUS
10
3.1124075590551179
20
-5.7767842125984252
11
3.112346023622047
21
-5.77709374015748
0
LINE
8
BLACK
6
CONTINUOUS
10
3.112346023622047
20
-5.77709374015748
11
3.1123140551181101
21
-5.7771256692913386
0
LINE
8
BLACK
6
CONTINUOUS
10
3.1123140551181101
20
-5.7771256692913386
11
3.112288031496063
21
-5.7772207874015749
0
LINE
8
BLACK
6
CONTINUOUS
10
3.112288031496063
20
-5.7772207874015749
11
3.1107882283464567
21
-5.7802203937007874
0
LINE
8
BLACK
6
CONTINUOUS
10
3.1107882283464567
20
-5.7802203937007874
11
3.1105947244094487
21
-5.7804696456692914
0
LINE
8
BLACK
6
CONTINUOUS
10
3.1105947244094487
20
-5.7804696456692914
11
3.1104194881889762
21
-5.7807320078740156
0
LINE
8
BLACK
6
CONTINUOUS
10
3.1104194881889762
20
-5.7807320078740156
11
3.1089196456692911
21
-5.7822318110236219
0
LINE
8
BLACK
6
CONTINUOUS
10
3.1089196456692911
20
-5.7822318110236219
11
3.1086570866141732
21
-5.7824072047244091
0
LINE
8
BLACK
6
CONTINUOUS
10
3.1086570866141732
20
-5.7824072047244091
11
3.1084080708661417
21
-5.7826005118110233
0
LINE
8
BLACK
6
CONTINUOUS
10
3.1084080708661417
20
-5.7826005118110233
11
3.1054084645669291
21
-5.7841003543307083
0
LINE
8
BLACK
6
CONTINUOUS
10
3.1054084645669291
20
-5.7841003543307083
11
3.1053133464566929
21
-5.7841263779527559
0
LINE
8
BLACK
6
CONTINUOUS
10
3.1053133464566929
20
-5.7841263779527559
11
3.1052814173228347
21
-5.7841583464566924
0
LINE
8
BLACK
6
CONTINUOUS
10
3.1052814173228347
20
-5.7841583464566924
11
3.1049718897637795
21
-5.7842198818897632
0
LINE
8
BLACK
6
CONTINUOUS
10
3.1049718897637795
20
-5.7842198818897632
11
3.1046676771653541
21
-5.7843032283464568
0
LINE
8
BLACK
6
CONTINUOUS
10
3.1046676771653541
20
-5.7843032283464568
11
3.1046248031496062
21
-5.7842889370078741
0
LINE
8
BLACK
6
CONTINUOUS
10
3.1046248031496062
20
-5.7842889370078741
11
3.1045281102362203
21
-5.7843081889763779
0
LINE
8
BLACK
6
CONTINUOUS
10
3.1045281102362203
20
-5.7843081889763779
11
3.1000286614173227
21
-5.7843081889763779
0
LINE
8
BLACK
6
CONTINUOUS
10
3.1000286614173227
20
-5.7843081889763779
11
3.0999318897637793
21
-5.7842889370078741
0
LINE
8
BLACK
6
CONTINUOUS
10
3.0999318897637793
20
-5.7842889370078741
11
3.0998890551181102
21
-5.7843032283464568
0
LINE
8
BLACK
6
CONTINUOUS
10
3.0998890551181102
20
-5.7843032283464568
11
3.0995847244094485
21
-5.7842198818897632
0
LINE
8
BLACK
6
CONTINUOUS
10
3.0995847244094485
20
-5.7842198818897632
11
3.0992753543307088
21
-5.7841583464566924
0
LINE
8
BLACK
6
CONTINUOUS
10
3.0992753543307088
20
-5.7841583464566924
11
3.0992433858267714
21
-5.7841263779527559
0
LINE
8
BLACK
6
CONTINUOUS
10
3.0992433858267714
20
-5.7841263779527559
11
3.0991482677165352
21
-5.7841003543307083
0
LINE
8
BLACK
6
CONTINUOUS
10
3.0991482677165352
20
-5.7841003543307083
11
3.0961487007874013
21
-5.7826005118110233
0
LINE
8
BLACK
6
CONTINUOUS
10
3.0961487007874013
20
-5.7826005118110233
11
3.0958995275590548
21
-5.7824071259842516
0
LINE
8
BLACK
6
CONTINUOUS
10
3.0958995275590548
20
-5.7824071259842516
11
3.0956371259842519
21
-5.7822318110236219
0
LINE
8
BLACK
6
CONTINUOUS
10
3.0956371259842519
20
-5.7822318110236219
11
3.0941372834645668
21
-5.7807320078740156
0
LINE
8
BLACK
6
CONTINUOUS
10
3.0941372834645668
20
-5.7807320078740156
11
3.0940824803149605
21
-5.7806499999999996
0
LINE
8
BLACK
6
CONTINUOUS
10
3.0940824803149605
20
-5.7806499999999996
11
3.0940420866141731
21
-5.7806298031496057
0
LINE
8
BLACK
6
CONTINUOUS
10
3.0940420866141731
20
-5.7806298031496057
11
3.0938859055118111
21
-5.780355826771653
0
LINE
8
BLACK
6
CONTINUOUS
10
3.0938859055118111
20
-5.780355826771653
11
3.0937105511811023
21
-5.7800933858267713
0
LINE
8
BLACK
6
CONTINUOUS
10
3.0937105511811023
20
-5.7800933858267713
11
3.0937105511811023
21
-5.7800481496062988
0
LINE
8
BLACK
6
CONTINUOUS
10
3.0937105511811023
20
-5.7800481496062988
11
3.0936617322834645
21
-5.7799625196850393
0
LINE
8
BLACK
6
CONTINUOUS
10
3.0936617322834645
20
-5.7799625196850393
11
3.0935440944881889
21
-5.7796096062992124
0
LINE
8
BLACK
6
CONTINUOUS
10
3.0935440944881889
20
-5.7796096062992124
11
3.0924217322834644
21
-5.7807319685039369
0
LINE
8
BLACK
6
CONTINUOUS
10
3.0924217322834644
20
-5.7807319685039369
11
3.092159409448819
21
-5.7809072440944878
0
LINE
8
BLACK
6
CONTINUOUS
10
3.092159409448819
20
-5.7809072440944878
11
3.0919101574803149
21
-5.781100708661417
0
LINE
8
BLACK
6
CONTINUOUS
10
3.0919101574803149
20
-5.781100708661417
11
3.0889104724409449
21
-5.7826005118110233
0
LINE
8
BLACK
6
CONTINUOUS
10
3.0889104724409449
20
-5.7826005118110233
11
3.0888153937007874
21
-5.7826265354330708
0
LINE
8
BLACK
6
CONTINUOUS
10
3.0888153937007874
20
-5.7826265354330708
11
3.0887834645669292
21
-5.7826585039370073
0
LINE
8
BLACK
6
CONTINUOUS
10
3.0887834645669292
20
-5.7826585039370073
11
3.088473779527559
21
-5.7827200787401569
0
LINE
8
BLACK
6
CONTINUOUS
10
3.088473779527559
20
-5.7827200787401569
11
3.0881696850393698
21
-5.7828033858267718
0
LINE
8
BLACK
6
CONTINUOUS
10
3.0881696850393698
20
-5.7828033858267718
11
3.0881268503937007
21
-5.782789094488189
0
LINE
8
BLACK
6
CONTINUOUS
10
3.0881268503937007
20
-5.782789094488189
11
3.0880301574803148
21
-5.7828083464566928
0
LINE
8
BLACK
6
CONTINUOUS
10
3.0880301574803148
20
-5.7828083464566928
11
3.0850305511811023
21
-5.7828083464566928
0
LINE
8
BLACK
6
CONTINUOUS
10
3.0850305511811023
20
-5.7828083464566928
11
3.0849338188976376
21
-5.782789094488189
0
LINE
8
BLACK
6
CONTINUOUS
10
3.0849338188976376
20
-5.782789094488189
11
3.0848910236220473
21
-5.7828033858267718
0
LINE
8
BLACK
6
CONTINUOUS
10
3.0848910236220473
20
-5.7828033858267718
11
3.0845866929133856
21
-5.7827200393700782
0
LINE
8
BLACK
6
CONTINUOUS
10
3.0845866929133856
20
-5.7827200393700782
11
3.0842772440944883
21
-5.7826585039370073
0
LINE
8
BLACK
6
CONTINUOUS
10
3.0842772440944883
20
-5.7826585039370073
11
3.0842453149606297
21
-5.7826265748031496
0
LINE
8
BLACK
6
CONTINUOUS
10
3.0842453149606297
20
-5.7826265748031496
11
3.0841502362204722
21
-5.7826005511811021
0
LINE
8
BLACK
6
CONTINUOUS
10
3.0841502362204722
20
-5.7826005511811021
11
3.0811505905511809
21
-5.781100708661417
0
LINE
8
BLACK
6
CONTINUOUS
10
3.0811505905511809
20
-5.781100708661417
11
3.0809016929133857
21
-5.780907519685039
0
LINE
8
BLACK
6
CONTINUOUS
10
3.0809016929133857
20
-5.780907519685039
11
3.0806389370078739
21
-5.7807319685039369
0
LINE
8
BLACK
6
CONTINUOUS
10
3.0806389370078739
20
-5.7807319685039369
11
3.0791391732283464
21
-5.7792321653543306
0
LINE
8
BLACK
6
CONTINUOUS
10
3.0791391732283464
20
-5.7792321653543306
11
3.0789638582677163
21
-5.7789698425196852
0
LINE
8
BLACK
6
CONTINUOUS
10
3.0789638582677163
20
-5.7789698425196852
11
3.0787704330708663
21
-5.7787205905511811
0
LINE
8
BLACK
6
CONTINUOUS
10
3.0787704330708663
20
-5.7787205905511811
11
3.07727062992126
21
-5.7757209055118111
0
LINE
8
BLACK
6
CONTINUOUS
10
3.07727062992126
20
-5.7757209055118111
11
3.0772445669291337
21
-5.7756258267716536
0
LINE
8
BLACK
6
CONTINUOUS
10
3.0772445669291337
20
-5.7756258267716536
11
3.0772126377952755
21
-5.775593897637795
0
LINE
8
BLACK
6
CONTINUOUS
10
3.0772126377952755
20
-5.775593897637795
11
3.0771510236220472
21
-5.7752842125984252
0
LINE
8
BLACK
6
CONTINUOUS
10
3.0771510236220472
20
-5.7752842125984252
11
3.077067755905512
21
-5.7749801181102365
0
LINE
8
BLACK
6
CONTINUOUS
10
3.077067755905512
20
-5.7749801181102365
11
3.0770820078740155
21
-5.7749372834645669
0
LINE
8
BLACK
6
CONTINUOUS
10
3.0770820078740155
20
-5.7749372834645669
11
3.0770627952755905
21
-5.7748405905511806
0
LINE
8
BLACK
6
CONTINUOUS
10
3.0770627952755905
20
-5.7748405905511806
11
3.0770627952755905
21
-5.7643419291338578
0
LINE
8
BLACK
6
CONTINUOUS
10
3.0770627952755905
20
-5.7643419291338578
11
3.0772126377952755
21
-5.7635886220472443
0
LINE
8
BLACK
6
CONTINUOUS
10
3.0772126377952755
20
-5.7635886220472443
11
3.078277992125984
21
-5.762523267716535
0
LINE
8
BLACK
6
CONTINUOUS
10
3.078277992125984
20
-5.762523267716535
11
3.0790312992125983
21
-5.7623734251968504
0
LINE
8
BLACK
6
CONTINUOUS
10
3.0790312992125983
20
-5.7623734251968504
11
3.1105273622047243
21
-5.7623734251968504
0
LINE
8
BLACK
6
CONTINUOUS
10
3.1105273622047243
20
-5.7623734251968504
11
3.1112806692913386
21
-5.762523267716535
0
LINE
8
BLACK
6
CONTINUOUS
10
3.0959979133858266
20
-5.7745211811023625
11
3.0972496850393698
21
-5.7782766141732278
0
LINE
8
BLACK
6
CONTINUOUS
10
3.0972496850393698
20
-5.7782766141732278
11
3.0981951181102363
21
-5.7792220472440947
0
LINE
8
BLACK
6
CONTINUOUS
10
3.0981951181102363
20
-5.7792220472440947
11
3.1004933464566928
21
-5.7803711811023621
0
LINE
8
BLACK
6
CONTINUOUS
10
3.1004933464566928
20
-5.7803711811023621
11
3.1040634251968502
21
-5.7803711811023621
0
LINE
8
BLACK
6
CONTINUOUS
10
3.1040634251968502
20
-5.7803711811023621
11
3.1063616535433072
21
-5.779222007874016
0
LINE
8
BLACK
6
CONTINUOUS
10
3.1063616535433072
20
-5.779222007874016
11
3.1074097637795273
21
-5.778173897637795
0
LINE
8
BLACK
6
CONTINUOUS
10
3.1074097637795273
20
-5.778173897637795
11
3.1085588582677164
21
-5.7758757480314955
0
LINE
8
BLACK
6
CONTINUOUS
10
3.1085588582677164
20
-5.7758757480314955
11
3.1085588582677164
21
-5.7663104330708661
0
LINE
8
BLACK
6
CONTINUOUS
10
3.1085588582677164
20
-5.7663104330708661
11
3.0959979133858266
21
-5.7663104330708661
0
LINE
8
BLACK
6
CONTINUOUS
10
3.0959979133858266
20
-5.7663104330708661
11
3.0959979133858266
21
-5.7745211811023625
0
LINE
8
BLACK
6
CONTINUOUS
10
3.0809998031496062
20
-5.7743759055118105
11
3.0821489370078741
21
-5.776674212598425
0
LINE
8
BLACK
6
CONTINUOUS
10
3.0821489370078741
20
-5.776674212598425
11
3.0831970078740158
21
-5.7777222440944884
0
LINE
8
BLACK
6
CONTINUOUS
10
3.0831970078740158
20
-5.7777222440944884
11
3.0854952362204724
21
-5.7788713385826771
0
LINE
8
BLACK
6
CONTINUOUS
10
3.0854952362204724
20
-5.7788713385826771
11
3.0875655118110235
21
-5.7788713385826771
0
LINE
8
BLACK
6
CONTINUOUS
10
3.0875655118110235
20
-5.7788713385826771
11
3.0898637795275592
21
-5.7777221653543309
0
LINE
8
BLACK
6
CONTINUOUS
10
3.0898637795275592
20
-5.7777221653543309
11
3.0909118110236218
21
-5.7766740944881887
0
LINE
8
BLACK
6
CONTINUOUS
10
3.0909118110236218
20
-5.7766740944881887
11
3.0920609055118109
21
-5.7743759055118105
0
LINE
8
BLACK
6
CONTINUOUS
10
3.0920609055118109
20
-5.7743759055118105
11
3.0920609055118109
21
-5.7663104330708661
0
LINE
8
BLACK
6
CONTINUOUS
10
3.0920609055118109
20
-5.7663104330708661
11
3.0809998031496062
21
-5.7663104330708661
0
LINE
8
BLACK
6
CONTINUOUS
10
3.0809998031496062
20
-5.7663104330708661
11
3.0809998031496062
21
-5.7743759055118105
0
CIRCLE
8
BLACK
10
3.7868436220472441
20
-2.6377952755905509
40
0.0068897637795276
0
CIRCLE
8
BLACK
10
3.8868436220472442
20
-2.6377952755905509
40
0.0068897637795276
0
CIRCLE
8
BLACK
10
2.8582677165354329
20
-5.4921259842519685
40
0.0068897637795276
0
CIRCLE
8
BLACK
10
4.5246388976377956
20
-3.0629921259842519
40
0.0068897637795276
0
CIRCLE
8
BLACK
10
4.3868436220472438
20
-3.0629921259842519
40
0.0068897637795276
0
CIRCLE
8
BLACK
10
5.0232283464566931
20
-6.0606299212598422
40
0.0068897637795276
0
CIRCLE
8
BLACK
10
4.5232283464566931
20
-6.0606299212598422
40
0.0068897637795276
0
CIRCLE
8
BLACK
10
4.9133858267716537
20
-5.9606299212598426
40
0.0068897637795276
0
CIRCLE
8
BLACK
10
4.8733858267716537
20
-5.8905511417322831
40
0.0068897637795276
0
CIRCLE
8
BLACK
10
4.8333858267716536
20
-5.9606299212598426
40
0.0068897637795276
0
CIRCLE
8
BLACK
10
4.7933858267716536
20
-5.8905511417322831
40
0.0068897637795276
0
CIRCLE
8
BLACK
10
4.7533858267716536
20
-5.9606299212598426
40
0.0068897637795276
0
CIRCLE
8
BLACK
10
4.7133858267716535
20
-5.8905511417322831
40
0.0068897637795276
0
CIRCLE
8
BLACK
10
4.6733858267716535
20
-5.9606299212598426
40
0.0068897637795276
0
CIRCLE
8
BLACK
10
4.6333858661417322
20
-5.8905511811023619
40
0.0068897637795276
0
CIRCLE
8
BLACK
10
5.0433070866141732
20
-5.7007874015748028
40
0.0068897637795276
0
CIRCLE
8
BLACK
10
4.9531496062992124
20
-5.7007874015748028
40
0.0068897637795276
0
CIRCLE
8
BLACK
10
4.593307086614173
20
-5.7007874015748028
40
0.0068897637795276
0
CIRCLE
8
BLACK
10
4.5031496062992122
20
-5.7007874015748028
40
0.0068897637795276
0
CIRCLE
8
BLACK
10
5.093307086614173
20
-5.9255905511811022
40
0.0068897637795276
0
CIRCLE
8
BLACK
10
4.4531496062992124
20
-5.9255905511811022
40
0.0068897637795276
0
CIRCLE
8
BLACK
10
3.7868436220472441
20
-2.3346456692913384
40
0.0068897637795276
0
CIRCLE
8
BLACK
10
3.8868436220472442
20
-2.3346456692913384
40
0.0068897637795276
0
CIRCLE
8
BLACK
10
2.6677165354330707
20
-2.3937007874015745
40
0.0068897637795276
0
CIRCLE
8
BLACK
10
2.7677165354330708
20
-2.3937007874015745
40
0.0068897637795276
0
CIRCLE
8
BLACK
10
2.6677165354330707
20
-2.4937007874015746
40
0.0068897637795276
0
CIRCLE
8
BLACK
10
2.7677165354330708
20
-2.4937007874015746
40
0.0068897637795276
0
CIRCLE
8
BLACK
10
2.6677165354330707
20
-2.5937007874015747
40
0.0068897637795276
0
CIRCLE
8
BLACK
10
2.7677165354330708
20
-2.5937007874015747
40
0.0068897637795276
0
CIRCLE
8
BLACK
10
2.6677165354330707
20
-2.6937007874015748
40
0.0068897637795276
0
CIRCLE
8
BLACK
10
2.7677165354330708
20
-2.6937007874015748
40
0.0068897637795276
0
CIRCLE
8
BLACK
10
2.6677165354330707
20
-2.7937007874015749
40
0.0068897637795276
0
CIRCLE
8
BLACK
10
2.7677165354330708
20
-2.7937007874015749
40
0.0068897637795276
0
CIRCLE
8
BLACK
10
2.6677165354330707
20
-2.8937007874015745
40
0.0068897637795276
0
CIRCLE
8
BLACK
10
2.7677165354330708
20
-2.8937007874015745
40
0.0068897637795276
0
CIRCLE
8
BLACK
10
2.6677165354330707
20
-2.9937007874015746
40
0.0068897637795276
0
CIRCLE
8
BLACK
10
2.7677165354330708
20
-2.9937007874015746
40
0.0068897637795276
0
CIRCLE
8
BLACK
10
2.6677165354330707
20
-3.0937007874015747
40
0.0068897637795276
0
CIRCLE
8
BLACK
10
2.7677165354330708
20
-3.0937007874015747
40
0.0068897637795276
0
CIRCLE
8
BLACK
10
2.6677165354330707
20
-3.1937007874015748
40
0.0068897637795276
0
CIRCLE
8
BLACK
10
2.7677165354330708
20
-3.1937007874015748
40
0.0068897637795276
0
CIRCLE
8
BLACK
10
2.6677165354330707
20
-3.2937007874015749
40
0.0068897637795276
0
CIRCLE
8
BLACK
10
2.7677165354330708
20
-3.2937007874015749
40
0.0068897637795276
0
CIRCLE
8
BLACK
10
2.6677165354330707
20
-3.3937007874015745
40
0.0068897637795276
0
CIRCLE
8
BLACK
10
2.7677165354330708
20
-3.3937007874015745
40
0.0068897637795276
0
CIRCLE
8
BLACK
10
2.6677165354330707
20
-3.4937007874015746
40
0.0068897637795276
0
CIRCLE
8
BLACK
10
2.7677165354330708
20
-3.4937007874015746
40
0.0068897637795276
0
CIRCLE
8
BLACK
10
2.6677165354330707
20
-3.5937007874015747
40
0.0068897637795276
0
CIRCLE
8
BLACK
10
2.7677165354330708
20
-3.5937007874015747
40
0.0068897637795276
0
CIRCLE
8
BLACK
10
2.6677165354330707
20
-3.6937007874015748
40
0.0068897637795276
0
CIRCLE
8
BLACK
10
2.7677165354330708
20
-3.6937007874015748
40
0.0068897637795276
0
CIRCLE
8
BLACK
10
2.6677165354330707
20
-3.7937007874015749
40
0.0068897637795276
0
CIRCLE
8
BLACK
10
2.7677165354330708
20
-3.7937007874015749
40
0.0068897637795276
0
CIRCLE
8
BLACK
10
2.6677165354330707
20
-3.8937007874015745
40
0.0068897637795276
0
CIRCLE
8
BLACK
10
2.7677165354330708
20
-3.8937007874015745
40
0.0068897637795276
0
CIRCLE
8
BLACK
10
2.6677165354330707
20
-3.9937007874015746
40
0.0068897637795276
0
CIRCLE
8
BLACK
10
2.7677165354330708
20
-3.9937007874015746
40
0.0068897637795276
0
CIRCLE
8
BLACK
10
2.6677165354330707
20
-4.0937007874015743
40
0.0068897637795276
0
CIRCLE
8
BLACK
10
2.7677165354330708
20
-4.0937007874015743
40
0.0068897637795276
0
CIRCLE
8
BLACK
10
2.6677165354330707
20
-4.1937007874015748
40
0.0068897637795276
0
CIRCLE
8
BLACK
10
2.7677165354330708
20
-4.1937007874015748
40
0.0068897637795276
0
CIRCLE
8
BLACK
10
2.6677165354330707
20
-4.2937007874015745
40
0.0068897637795276
0
CIRCLE
8
BLACK
10
2.7677165354330708
20
-4.2937007874015745
40
0.0068897637795276
0
CIRCLE
8
BLACK
10
3.7868436220472441
20
-2.4370078740157481
40
0.0068897637795276
0
CIRCLE
8
BLACK
10
3.8868436220472442
20
-2.4370078740157481
40
0.0068897637795276
0
CIRCLE
8
BLACK
10
2.7716535433070866
20
-1.7637795275590551
40
0.0068897637795276
0
CIRCLE
8
BLACK
10
3.7868436220472441
20
-2.7362204724409449
40
0.0068897637795276
0
CIRCLE
8
BLACK
10
3.8868436220472442
20
-2.7362204724409449
40
0.0068897637795276
0
CIRCLE
8
BLACK
10
4.7007874015748028
20
-4.515748031496063
40
0.0068897637795276
0
CIRCLE
8
BLACK
10
4.7007874015748028
20
-4.4157479527559058
40
0.0068897637795276
0
CIRCLE
8
BLACK
10
4.8307086614173231
20
-4.515748031496063
40
0.0068897637795276
0
CIRCLE
8
BLACK
10
4.8307086614173231
20
-4.4157480314960633
40
0.0068897637795276
0
CIRCLE
8
BLACK
10
4.8307086614173231
20
-4.3157480708661415
40
0.0068897637795276
0
CIRCLE
8
BLACK
10
2.2480314960629921
20
-5.4015748031496065
40
0.0068897637795276
0
CIRCLE
8
BLACK
10
5.6377952755905509
20
-2.2283464566929134
40
0.0068897637795276
0
CIRCLE
8
BLACK
10
5.6456692913385824
20
-5.3661417322834648
40
0.0068897637795276
0
CIRCLE
8
BLACK
10
3.5073160629921261
20
-2.336220472440945
40
0.0068897637795276
0
CIRCLE
8
BLACK
10
3.6073160629921257
20
-2.336220472440945
40
0.0068897637795276
0
CIRCLE
8
BLACK
10
3.5073160629921261
20
-2.4362204724409446
40
0.0068897637795276
0
CIRCLE
8
BLACK
10
3.6073160629921257
20
-2.4362204724409446
40
0.0068897637795276
0
CIRCLE
8
BLACK
10
3.5073160629921261
20
-2.5362204724409447
40
0.0068897637795276
0
CIRCLE
8
BLACK
10
3.6073160629921257
20
-2.5362204724409447
40
0.0068897637795276
0
CIRCLE
8
BLACK
10
3.5073160629921261
20
-2.6362204724409448
40
0.0068897637795276
0
CIRCLE
8
BLACK
10
3.6073160629921257
20
-2.6362204724409448
40
0.0068897637795276
0
CIRCLE
8
BLACK
10
3.5073160629921261
20
-2.7362204724409449
40
0.0068897637795276
0
CIRCLE
8
BLACK
10
3.6073160629921257
20
-2.7362204724409449
40
0.0068897637795276
0
CIRCLE
8
BLACK
10
5.1584971653543308
20
-2.1985236220472442
40
0.0068897637795276
0
CIRCLE
8
BLACK
10
5.0584971653543302
20
-2.1985236220472442
40
0.0068897637795276
0
CIRCLE
8
BLACK
10
5.1584971653543308
20
-2.0985236220472441
40
0.0068897637795276
0
CIRCLE
8
BLACK
10
5.0584971653543302
20
-2.0985236220472441
40
0.0068897637795276
0
CIRCLE
8
BLACK
10
5.1584971653543308
20
-1.9985236614173227
40
0.0068897637795276
0
CIRCLE
8
BLACK
10
5.0584971653543302
20
-1.998523622047244
40
0.0068897637795276
0
CIRCLE
8
BLACK
10
5.1584971653543308
20
-1.8985236220472441
40
0.0068897637795276
0
CIRCLE
8
BLACK
10
5.0584971653543302
20
-1.8985236220472441
40
0.0068897637795276
0
CIRCLE
8
BLACK
10
5.1584971653543308
20
-1.798523622047244
40
0.0068897637795276
0
CIRCLE
8
BLACK
10
5.0584971653543302
20
-1.798523622047244
40
0.0068897637795276
0
CIRCLE
8
BLACK
10
2.8582677165354329
20
-5.3385826771653546
40
0.0068897637795276
0
CIRCLE
8
BLACK
10
3.2709645669291336
20
-5.7440944881889759
40
0.0068897637795276
0
CIRCLE
8
BLACK
10
3.2709645669291336
20
-5.5440945275590554
40
0.0068897637795276
0
CIRCLE
8
BLACK
10
4.0709645669291339
20
-6.0440944881889767
40
0.0068897637795276
0
CIRCLE
8
BLACK
10
4.0709645669291339
20
-5.6440944881889763
40
0.0068897637795276
0
CIRCLE
8
BLACK
10
4.0709645669291339
20
-5.2440944881889759
40
0.0068897637795276
0
CIRCLE
8
BLACK
10
3.2709645669291336
20
-5.2440944881889759
40
0.0068897637795276
0
ARC
8
BLACK
10
2.8796259842519683
20
-5.7362204724409445
40
0.0688976377952756
50
-90.00000000
51
90.00000000
0
ARC
8
BLACK
10
2.8796259842519683
20
-5.7362204724409445
40
0.0688976377952756
50
90.00000000
51
270.00000000
0
LINE
8
BLACK
6
CONTINUOUS
10
2.8697834645669289
20
-6.0314960629921259
11
2.8894685039370076
21
-6.0314960629921259
0
ARC
8
BLACK
10
2.8894685039370076
20
-5.9724409448818898
40
0.0590551181102362
50
-90.00000000
51
90.00000000
0
LINE
8
BLACK
6
CONTINUOUS
10
2.8894685039370076
20
-5.9133858267716537
11
2.8697834645669289
21
-5.9133858267716537
0
ARC
8
BLACK
10
2.8697834645669289
20
-5.9724409448818898
40
0.0590551181102362
50
90.00000000
51
270.00000000
0
ARC
8
BLACK
10
2.6945866141732284
20
-5.8543307086614176
40
0.0688976377952756
50
-90.00000000
51
90.00000000
0
ARC
8
BLACK
10
2.6945866141732284
20
-5.8543307086614176
40
0.0688976377952756
50
90.00000000
51
270.00000000
0
CIRCLE
8
BLACK
10
3.7868436220472441
20
-2.6377952755905509
40
0.0068897637795276
0
CIRCLE
8
BLACK
10
3.8868436220472442
20
-2.6377952755905509
40
0.0068897637795276
0
CIRCLE
8
BLACK
10
2.8582677165354329
20
-5.4921259842519685
40
0.0068897637795276
0
CIRCLE
8
BLACK
10
4.5246388976377956
20
-3.0629921259842519
40
0.0068897637795276
0
CIRCLE
8
BLACK
10
4.3868436220472438
20
-3.0629921259842519
40
0.0068897637795276
0
CIRCLE
8
BLACK
10
5.0232283464566931
20
-6.0606299212598422
40
0.0068897637795276
0
CIRCLE
8
BLACK
10
4.5232283464566931
20
-6.0606299212598422
40
0.0068897637795276
0
CIRCLE
8
BLACK
10
4.9133858267716537
20
-5.9606299212598426
40
0.0068897637795276
0
CIRCLE
8
BLACK
10
4.8733858267716537
20
-5.8905511417322831
40
0.0068897637795276
0
CIRCLE
8
BLACK
10
4.8333858267716536
20
-5.9606299212598426
40
0.0068897637795276
0
CIRCLE
8
BLACK
10
4.7933858267716536
20
-5.8905511417322831
40
0.0068897637795276
0
CIRCLE
8
BLACK
10
4.7533858267716536
20
-5.9606299212598426
40
0.0068897637795276
0
CIRCLE
8
BLACK
10
4.7133858267716535
20
-5.8905511417322831
40
0.0068897637795276
0
CIRCLE
8
BLACK
10
4.6733858267716535
20
-5.9606299212598426
40
0.0068897637795276
0
CIRCLE
8
BLACK
10
4.6333858661417322
20
-5.8905511811023619
40
0.0068897637795276
0
CIRCLE
8
BLACK
10
5.0433070866141732
20
-5.7007874015748028
40
0.0068897637795276
0
CIRCLE
8
BLACK
10
4.9531496062992124
20
-5.7007874015748028
40
0.0068897637795276
0
CIRCLE
8
BLACK
10
4.593307086614173
20
-5.7007874015748028
40
0.0068897637795276
0
CIRCLE
8
BLACK
10
4.5031496062992122
20
-5.7007874015748028
40
0.0068897637795276
0
CIRCLE
8
BLACK
10
5.093307086614173
20
-5.9255905511811022
40
0.0068897637795276
0
CIRCLE
8
BLACK
10
4.4531496062992124
20
-5.9255905511811022
40
0.0068897637795276
0
CIRCLE
8
BLACK
10
3.7868436220472441
20
-2.3346456692913384
40
0.0068897637795276
0
CIRCLE
8
BLACK
10
3.8868436220472442
20
-2.3346456692913384
40
0.0068897637795276
0
CIRCLE
8
BLACK
10
2.6677165354330707
20
-2.3937007874015745
40
0.0068897637795276
0
CIRCLE
8
BLACK
10
2.7677165354330708
20
-2.3937007874015745
40
0.0068897637795276
0
CIRCLE
8
BLACK
10
2.6677165354330707
20
-2.4937007874015746
40
0.0068897637795276
0
CIRCLE
8
BLACK
10
2.7677165354330708
20
-2.4937007874015746
40
0.0068897637795276
0
CIRCLE
8
BLACK
10
2.6677165354330707
20
-2.5937007874015747
40
0.0068897637795276
0
CIRCLE
8
BLACK
10
2.7677165354330708
20
-2.5937007874015747
40
0.0068897637795276
0
CIRCLE
8
BLACK
10
2.6677165354330707
20
-2.6937007874015748
40
0.0068897637795276
0
CIRCLE
8
BLACK
10
2.7677165354330708
20
-2.6937007874015748
40
0.0068897637795276
0
CIRCLE
8
BLACK
10
2.6677165354330707
20
-2.7937007874015749
40
0.0068897637795276
0
CIRCLE
8
BLACK
10
2.7677165354330708
20
-2.7937007874015749
40
0.0068897637795276
0
CIRCLE
8
BLACK
10
2.6677165354330707
20
-2.8937007874015745
40
0.0068897637795276
0
CIRCLE
8
BLACK
10
2.7677165354330708
20
-2.8937007874015745
40
0.0068897637795276
0
CIRCLE
8
BLACK
10
2.6677165354330707
20
-2.9937007874015746
40
0.0068897637795276
0
CIRCLE
8
BLACK
10
2.7677165354330708
20
-2.9937007874015746
40
0.0068897637795276
0
CIRCLE
8
BLACK
10
2.6677165354330707
20
-3.0937007874015747
40
0.0068897637795276
0
CIRCLE
8
BLACK
10
2.7677165354330708
20
-3.0937007874015747
40
0.0068897637795276
0
CIRCLE
8
BLACK
10
2.6677165354330707
20
-3.1937007874015748
40
0.0068897637795276
0
CIRCLE
8
BLACK
10
2.7677165354330708
20
-3.1937007874015748
40
0.0068897637795276
0
CIRCLE
8
BLACK
10
2.6677165354330707
20
-3.2937007874015749
40
0.0068897637795276
0
CIRCLE
8
BLACK
10
2.7677165354330708
20
-3.2937007874015749
40
0.0068897637795276
0
CIRCLE
8
BLACK
10
2.6677165354330707
20
-3.3937007874015745
40
0.0068897637795276
0
CIRCLE
8
BLACK
10
2.7677165354330708
20
-3.3937007874015745
40
0.0068897637795276
0
CIRCLE
8
BLACK
10
2.6677165354330707
20
-3.4937007874015746
40
0.0068897637795276
0
CIRCLE
8
BLACK
10
2.7677165354330708
20
-3.4937007874015746
40
0.0068897637795276
0
CIRCLE
8
BLACK
10
2.6677165354330707
20
-3.5937007874015747
40
0.0068897637795276
0
CIRCLE
8
BLACK
10
2.7677165354330708
20
-3.5937007874015747
40
0.0068897637795276
0
CIRCLE
8
BLACK
10
2.6677165354330707
20
-3.6937007874015748
40
0.0068897637795276
0
CIRCLE
8
BLACK
10
2.7677165354330708
20
-3.6937007874015748
40
0.0068897637795276
0
CIRCLE
8
BLACK
10
2.6677165354330707
20
-3.7937007874015749
40
0.0068897637795276
0
CIRCLE
8
BLACK
10
2.7677165354330708
20
-3.7937007874015749
40
0.0068897637795276
0
CIRCLE
8
BLACK
10
2.6677165354330707
20
-3.8937007874015745
40
0.0068897637795276
0
CIRCLE
8
BLACK
10
2.7677165354330708
20
-3.8937007874015745
40
0.0068897637795276
0
CIRCLE
8
BLACK
10
2.6677165354330707
20
-3.9937007874015746
40
0.0068897637795276
0
CIRCLE
8
BLACK
10
2.7677165354330708
20
-3.9937007874015746
40
0.0068897637795276
0
CIRCLE
8
BLACK
10
2.6677165354330707
20
-4.0937007874015743
40
0.0068897637795276
0
CIRCLE
8
BLACK
10
2.7677165354330708
20
-4.0937007874015743
40
0.0068897637795276
0
CIRCLE
8
BLACK
10
2.6677165354330707
20
-4.1937007874015748
40
0.0068897637795276
0
CIRCLE
8
BLACK
10
2.7677165354330708
20
-4.1937007874015748
40
0.0068897637795276
0
CIRCLE
8
BLACK
10
2.6677165354330707
20
-4.2937007874015745
40
0.0068897637795276
0
CIRCLE
8
BLACK
10
2.7677165354330708
20
-4.2937007874015745
40
0.0068897637795276
0
CIRCLE
8
BLACK
10
3.7868436220472441
20
-2.4370078740157481
40
0.0068897637795276
0
CIRCLE
8
BLACK
10
3.8868436220472442
20
-2.4370078740157481
40
0.0068897637795276
0
CIRCLE
8
BLACK
10
2.7716535433070866
20
-1.7637795275590551
40
0.0068897637795276
0
CIRCLE
8
BLACK
10
3.7868436220472441
20
-2.7362204724409449
40
0.0068897637795276
0
CIRCLE
8
BLACK
10
3.8868436220472442
20
-2.7362204724409449
40
0.0068897637795276
0
CIRCLE
8
BLACK
10
4.7007874015748028
20
-4.515748031496063
40
0.0068897637795276
0
CIRCLE
8
BLACK
10
4.7007874015748028
20
-4.4157479527559058
40
0.0068897637795276
0
CIRCLE
8
BLACK
10
4.8307086614173231
20
-4.515748031496063
40
0.0068897637795276
0
CIRCLE
8
BLACK
10
4.8307086614173231
20
-4.4157480314960633
40
0.0068897637795276
0
CIRCLE
8
BLACK
10
4.8307086614173231
20
-4.3157480708661415
40
0.0068897637795276
0
CIRCLE
8
BLACK
10
2.2480314960629921
20
-5.4015748031496065
40
0.0068897637795276
0
CIRCLE
8
BLACK
10
5.6377952755905509
20
-2.2283464566929134
40
0.0068897637795276
0
CIRCLE
8
BLACK
10
5.6456692913385824
20
-5.3661417322834648
40
0.0068897637795276
0
CIRCLE
8
BLACK
10
3.5073160629921261
20
-2.336220472440945
40
0.0068897637795276
0
CIRCLE
8
BLACK
10
3.6073160629921257
20
-2.336220472440945
40
0.0068897637795276
0
CIRCLE
8
BLACK
10
3.5073160629921261
20
-2.4362204724409446
40
0.0068897637795276
0
CIRCLE
8
BLACK
10
3.6073160629921257
20
-2.4362204724409446
40
0.0068897637795276
0
CIRCLE
8
BLACK
10
3.5073160629921261
20
-2.5362204724409447
40
0.0068897637795276
0
CIRCLE
8
BLACK
10
3.6073160629921257
20
-2.5362204724409447
40
0.0068897637795276
0
CIRCLE
8
BLACK
10
3.5073160629921261
20
-2.6362204724409448
40
0.0068897637795276
0
CIRCLE
8
BLACK
10
3.6073160629921257
20
-2.6362204724409448
40
0.0068897637795276
0
CIRCLE
8
BLACK
10
3.5073160629921261
20
-2.7362204724409449
40
0.0068897637795276
0
CIRCLE
8
BLACK
10
3.6073160629921257
20
-2.7362204724409449
40
0.0068897637795276
0
CIRCLE
8
BLACK
10
5.1584971653543308
20
-2.1985236220472442
40
0.0068897637795276
0
CIRCLE
8
BLACK
10
5.0584971653543302
20
-2.1985236220472442
40
0.0068897637795276
0
CIRCLE
8
BLACK
10
5.1584971653543308
20
-2.0985236220472441
40
0.0068897637795276
0
CIRCLE
8
BLACK
10
5.0584971653543302
20
-2.0985236220472441
40
0.0068897637795276
0
CIRCLE
8
BLACK
10
5.1584971653543308
20
-1.9985236614173227
40
0.0068897637795276
0
CIRCLE
8
BLACK
10
5.0584971653543302
20
-1.998523622047244
40
0.0068897637795276
0
CIRCLE
8
BLACK
10
5.1584971653543308
20
-1.8985236220472441
40
0.0068897637795276
0
CIRCLE
8
BLACK
10
5.0584971653543302
20
-1.8985236220472441
40
0.0068897637795276
0
CIRCLE
8
BLACK
10
5.1584971653543308
20
-1.798523622047244
40
0.0068897637795276
0
CIRCLE
8
BLACK
10
5.0584971653543302
20
-1.798523622047244
40
0.0068897637795276
0
CIRCLE
8
BLACK
10
2.8582677165354329
20
-5.3385826771653546
40
0.0068897637795276
0
CIRCLE
8
BLACK
10
3.2709645669291336
20
-5.7440944881889759
40
0.0068897637795276
0
CIRCLE
8
BLACK
10
3.2709645669291336
20
-5.5440945275590554
40
0.0068897637795276
0
CIRCLE
8
BLACK
10
4.0709645669291339
20
-6.0440944881889767
40
0.0068897637795276
0
CIRCLE
8
BLACK
10
4.0709645669291339
20
-5.6440944881889763
40
0.0068897637795276
0
CIRCLE
8
BLACK
10
4.0709645669291339
20
-5.2440944881889759
40
0.0068897637795276
0
CIRCLE
8
BLACK
10
3.2709645669291336
20
-5.2440944881889759
40
0.0068897637795276
0
LINE
8
BLACK
6
CONTINUOUS
10
2.8402559055118108
20
-5.7559055118110232
11
2.9189960629921261
21
-5.7559055118110232
0
ARC
8
BLACK
10
2.9189960629921261
20
-5.7362204724409445
40
0.0196850393700787
50
-90.00000000
51
90.00000000
0
LINE
8
BLACK
6
CONTINUOUS
10
2.9189960629921261
20
-5.7165354330708658
11
2.8402559055118108
21
-5.7165354330708658
0
ARC
8
BLACK
10
2.8402559055118108
20
-5.7362204724409445
40
0.0196850393700787
50
90.00000000
51
270.00000000
0
LINE
8
BLACK
6
CONTINUOUS
10
2.8402559055118108
20
-5.9921259842519685
11
2.9189960629921261
21
-5.9921259842519685
0
ARC
8
BLACK
10
2.9189960629921261
20
-5.9724409448818898
40
0.0196850393700787
50
-90.00000000
51
90.00000000
0
LINE
8
BLACK
6
CONTINUOUS
10
2.9189960629921261
20
-5.9527559055118111
11
2.8402559055118108
21
-5.9527559055118111
0
ARC
8
BLACK
10
2.8402559055118108
20
-5.9724409448818898
40
0.0196850393700787
50
90.00000000
51
270.00000000
0
LINE
8
BLACK
6
CONTINUOUS
10
2.7142716535433071
20
-5.893700787401575
11
2.7142716535433071
21
-5.8149606299212593
0
ARC
8
BLACK
10
2.6945866141732284
20
-5.8149606299212593
40
0.0196850393700787
50
0.00000000
51
180.00000000
0
LINE
8
BLACK
6
CONTINUOUS
10
2.6749015748031497
20
-5.8149606299212593
11
2.6749015748031497
21
-5.893700787401575
0
ARC
8
BLACK
10
2.6945866141732284
20
-5.893700787401575
40
0.0196850393700787
50
180.00000000
51
360.00000000
  0
ENDSEC
  0
EOF
