  0
SECTION
  2
HEADER
  9
$ACADVER
  1
AC1018
  9
$HANDSEED
  5
FFFFFFFF
  9
$ANGBASE
  50
0.0
  9
$ANGDIR
  70
1
  9
$MEASUREMENT
  70
0
  9
$INSUNITS
  70
1
  0
ENDSEC
  0
SECTION
  2
TABLES
  0
TABLE
  2
APPID
  5
1
330
0
100
AcDbSymbolTable
 70
1
  0
APPID
  5
2
330
1
100
AcDbSymbolTableRecord
100
AcDbRegAppTableRecord
  2
ACAD
 70
0
  0
ENDTAB
  0
TABLE
  2
LTYPE
  5
3
330
0
100
AcDbSymbolTable
 70
6
  0
LTYPE
  5
4
330
3
100
AcDbSymbolTableRecord
100
AcDbLinetypeTableRecord
  2
ByBlock
 70
0
  3

 72
65
 73
0
 40
0
  0
LTYPE
  5
5
330
3
100
AcDbSymbolTableRecord
100
AcDbLinetypeTableRecord
  2
ByLayer
 70
0
  3

 72
65
 73
0
 40
0
  0
LTYPE
  5
6
330
3
100
AcDbSymbolTableRecord
100
AcDbLinetypeTableRecord
  2
CONTINUOUS
 70
0
  3
Solid line
 72
65
 73
0
 40
0
  0
LTYPE
  5
7
330
3
100
AcDbSymbolTableRecord
100
AcDbLinetypeTableRecord
  2
DASHDOT
 70
0
  3
Dash Dot ____ _ ____ _
 72
65
 73
4
 40
2
 49
1.25
 74
0
 49
-0.25
 74
0
 49
0.25
 74
0
 49
-0.25
 74
0
  0
LTYPE
  5
8
330
3
100
AcDbSymbolTableRecord
100
AcDbLinetypeTableRecord
  2
DASHED
 70
0
  3
Dashed __ __ __ __ __
 72
65
 73
2
 40
0.75
 49
0.5
 74
0
 49
-0.25
 74
0
  0
LTYPE
  5
9
330
3
100
AcDbSymbolTableRecord
100
AcDbLinetypeTableRecord
  2
DOTTED
 70
0
  3
Dotted .  .  .  .
 72
65
 73
2
 40
0.2
 49
0.0
 74
0
 49
-0.2
 74
0
  0
ENDTAB
  0
TABLE
  2
STYLE
  5
A
330
0
100
AcDbSymbolTable
 70
4
  0
STYLE
  5
B
330
A
100
AcDbSymbolTableRecord
100
AcDbTextStyleTableRecord
  2
KICAD
 70
0
 40
0
 41
1
 42
1
 50
0
 71
0
  3
isocp.shx
  0
STYLE
  5
C
330
A
100
AcDbSymbolTableRecord
100
AcDbTextStyleTableRecord
  2
KICADB
 70
0
 40
0
 41
1
 42
1
 50
0
 71
0
  3
isocp.shx
  0
STYLE
  5
D
330
A
100
AcDbSymbolTableRecord
100
AcDbTextStyleTableRecord
  2
KICADI
 70
0
 40
0
 41
1
 42
1
 50
15
 71
0
  3
isocp.shx
  0
STYLE
  5
E
330
A
100
AcDbSymbolTableRecord
100
AcDbTextStyleTableRecord
  2
KICADBI
 70
0
 40
0
 41
1
 42
1
 50
15
 71
0
  3
isocp.shx
  0
ENDTAB
  0
TABLE
  2
LAYER
  5
F
330
0
100
AcDbSymbolTable
 70
2
  0
LAYER
  5
12
330
F
100
AcDbSymbolTableRecord
100
AcDbLayerTableRecord
  2
0
 70
0
 62
7
  6
CONTINUOUS
390
10
  0
LAYER
  5
13
330
F
100
AcDbSymbolTableRecord
100
AcDbLayerTableRecord
  2
BLACK
 70
0
 62
250
  6
CONTINUOUS
390
10
  0
ENDTAB
  0
TABLE
  2
VPORT
  5
14
330
0
100
AcDbSymbolTable
 70
0
  0
ENDTAB
  0
TABLE
  2
VIEW
  5
15
330
0
100
AcDbSymbolTable
 70
0
  0
ENDTAB
  0
TABLE
  2
UCS
  5
16
330
0
100
AcDbSymbolTable
 70
0
  0
ENDTAB
  0
TABLE
  2
DIMSTYLE
  5
17
330
0
100
AcDbSymbolTable
 70
1
100
AcDbDimStyleTable
 71
0
  0
DIMSTYLE
105
18
330
17
100
AcDbSymbolTableRecord
100
AcDbDimStyleTableRecord
  2
Standard
 70
0
  0
ENDTAB
  0
TABLE
  2
BLOCK_RECORD
  5
19
330
0
100
AcDbSymbolTable
 70
3
  0
BLOCK_RECORD
  5
1A
330
19
100
AcDbSymbolTableRecord
100
AcDbBlockTableRecord
  2
*Model_Space
340
1D
 70
0
280
1
281
0
  0
BLOCK_RECORD
  5
1B
330
19
100
AcDbSymbolTableRecord
100
AcDbBlockTableRecord
  2
*Paper_Space
340
1E
 70
0
280
1
281
0
  0
BLOCK_RECORD
  5
1C
330
19
100
AcDbSymbolTableRecord
100
AcDbBlockTableRecord
  2
*Paper_Space0
340
1F
 70
0
280
1
281
0
  0
ENDTAB
  0
ENDSEC
  0
SECTION
  2
BLOCKS
  0
BLOCK
  5
23
330
1A
100
AcDbEntity
  8
0
100
AcDbBlockBegin
  2
*Model_Space
 70
0
 10
0.0
 20
0.0
 30
0.0
  3
*Model_Space
  1

  0
ENDBLK
  5
22
330
1A
100
AcDbEntity
  8
0
100
AcDbBlockEnd
  0
BLOCK
  5
25
330
1B
100
AcDbEntity
 67
1
  8
0
100
AcDbBlockBegin
  2
*Paper_Space
 70
0
 10
0.0
 20
0.0
 30
0.0
  3
*Paper_Space
  1

  0
ENDBLK
  5
24
330
1B
100
AcDbEntity
 67
1
  8
0
100
AcDbBlockEnd
  0
BLOCK
  5
27
330
1C
100
AcDbEntity
 67
1
  8
0
100
AcDbBlockBegin
  2
*Paper_Space0
 70
0
 10
0.0
 20
0.0
 30
0.0
  3
*Paper_Space0
  1

  0
ENDBLK
  5
26
330
1C
100
AcDbEntity
 67
1
  8
0
100
AcDbBlockEnd
  0
ENDSEC
  0
SECTION
  2
ENTITIES
  0
LINE
  5
28
330
1A
100
AcDbEntity
  8
BLACK
  6
CONTINUOUS
100
AcDbLine
 10
1.4570695669291338
 20
4.7056337401574799
 30
0
 11
1.4576022440944882
 21
4.7051010629921262
 31
0
  0
LINE
  5
29
330
1A
100
AcDbEntity
  8
BLACK
  6
CONTINUOUS
100
AcDbLine
 10
1.4576022440944882
 20
4.7051010629921262
 30
0
 11
1.4576771653543308
 21
4.7047244094488185
 31
0
  0
LINE
  5
2A
330
1A
100
AcDbEntity
  8
BLACK
  6
CONTINUOUS
100
AcDbLine
 10
1.4576771653543308
 20
4.7047244094488185
 30
0
 11
1.4576771653543308
 21
3.6072834645669292
 31
0
  0
LINE
  5
2B
330
1A
100
AcDbEntity
  8
BLACK
  6
CONTINUOUS
100
AcDbLine
 10
1.4576771653543308
 20
3.6072834645669292
 30
0
 11
1.6377952755905512
 21
3.6072834645669292
 31
0
  0
LINE
  5
2C
330
1A
100
AcDbEntity
  8
BLACK
  6
CONTINUOUS
100
AcDbLine
 10
1.6377952755905512
 20
3.6072834645669292
 30
0
 11
1.6523016929133858
 21
3.6065232283464566
 31
0
  0
LINE
  5
2D
330
1A
100
AcDbEntity
  8
BLACK
  6
CONTINUOUS
100
AcDbLine
 10
1.6523016929133858
 20
3.6065232283464566
 30
0
 11
1.6666491732283464
 21
3.6042507874015746
 31
0
  0
LINE
  5
2E
330
1A
100
AcDbEntity
  8
BLACK
  6
CONTINUOUS
100
AcDbLine
 10
1.6666491732283464
 20
3.6042507874015746
 30
0
 11
1.6806805118110235
 21
3.6004911023622048
 31
0
  0
LINE
  5
2F
330
1A
100
AcDbEntity
  8
BLACK
  6
CONTINUOUS
100
AcDbLine
 10
1.6806805118110235
 20
3.6004911023622048
 30
0
 11
1.6942420078740157
 21
3.5952853543307084
 31
0
  0
LINE
  5
30
330
1A
100
AcDbEntity
  8
BLACK
  6
CONTINUOUS
100
AcDbLine
 10
1.6942420078740157
 20
3.5952853543307084
 30
0
 11
1.7071850393700787
 21
3.5886905511811023
 31
0
  0
LINE
  5
31
330
1A
100
AcDbEntity
  8
BLACK
  6
CONTINUOUS
100
AcDbLine
 10
1.7071850393700787
 20
3.5886905511811023
 30
0
 11
1.7193678346456693
 21
3.580778937007874
 31
0
  0
LINE
  5
32
330
1A
100
AcDbEntity
  8
BLACK
  6
CONTINUOUS
100
AcDbLine
 10
1.7193678346456693
 20
3.580778937007874
 30
0
 11
1.7306568897637795
 21
3.5716372440944881
 31
0
  0
LINE
  5
33
330
1A
100
AcDbEntity
  8
BLACK
  6
CONTINUOUS
100
AcDbLine
 10
1.7306568897637795
 20
3.5716372440944881
 30
0
 11
1.7409285826771652
 21
3.5613655511811024
 31
0
  0
LINE
  5
34
330
1A
100
AcDbEntity
  8
BLACK
  6
CONTINUOUS
100
AcDbLine
 10
1.7409285826771652
 20
3.5613655511811024
 30
0
 11
1.7500702755905511
 21
3.5500764960629922
 31
0
  0
LINE
  5
35
330
1A
100
AcDbEntity
  8
BLACK
  6
CONTINUOUS
100
AcDbLine
 10
1.7500702755905511
 20
3.5500764960629922
 30
0
 11
1.7579818897637796
 21
3.5378937007874014
 31
0
  0
LINE
  5
36
330
1A
100
AcDbEntity
  8
BLACK
  6
CONTINUOUS
100
AcDbLine
 10
1.7579818897637796
 20
3.5378937007874014
 30
0
 11
1.7645766929133857
 21
3.5249506692913384
 31
0
  0
LINE
  5
37
330
1A
100
AcDbEntity
  8
BLACK
  6
CONTINUOUS
100
AcDbLine
 10
1.7645766929133857
 20
3.5249506692913384
 30
0
 11
1.7697824409448819
 21
3.5113891732283462
 31
0
  0
LINE
  5
38
330
1A
100
AcDbEntity
  8
BLACK
  6
CONTINUOUS
100
AcDbLine
 10
1.7697824409448819
 20
3.5113891732283462
 30
0
 11
1.7735421259842519
 21
3.4973578346456691
 31
0
  0
LINE
  5
39
330
1A
100
AcDbEntity
  8
BLACK
  6
CONTINUOUS
100
AcDbLine
 10
1.7735421259842519
 20
3.4973578346456691
 30
0
 11
1.7758145669291339
 21
3.4830103543307085
 31
0
  0
LINE
  5
3A
330
1A
100
AcDbEntity
  8
BLACK
  6
CONTINUOUS
100
AcDbLine
 10
1.7758145669291339
 20
3.4830103543307085
 30
0
 11
1.7765748031496063
 21
3.4685039370078741
 31
0
  0
LINE
  5
3B
330
1A
100
AcDbEntity
  8
BLACK
  6
CONTINUOUS
100
AcDbLine
 10
1.7765748031496063
 20
3.4685039370078741
 30
0
 11
1.7758145669291339
 21
3.4539975196850392
 31
0
  0
LINE
  5
3C
330
1A
100
AcDbEntity
  8
BLACK
  6
CONTINUOUS
100
AcDbLine
 10
1.7758145669291339
 20
3.4539975196850392
 30
0
 11
1.7735421259842519
 21
3.4396500393700786
 31
0
  0
LINE
  5
3D
330
1A
100
AcDbEntity
  8
BLACK
  6
CONTINUOUS
100
AcDbLine
 10
1.7735421259842519
 20
3.4396500393700786
 30
0
 11
1.7697824409448819
 21
3.4256187007874015
 31
0
  0
LINE
  5
3E
330
1A
100
AcDbEntity
  8
BLACK
  6
CONTINUOUS
100
AcDbLine
 10
1.7697824409448819
 20
3.4256187007874015
 30
0
 11
1.7645766929133857
 21
3.4120572047244093
 31
0
  0
LINE
  5
3F
330
1A
100
AcDbEntity
  8
BLACK
  6
CONTINUOUS
100
AcDbLine
 10
1.7645766929133857
 20
3.4120572047244093
 30
0
 11
1.7579818897637796
 21
3.3991141732283463
 31
0
  0
LINE
  5
40
330
1A
100
AcDbEntity
  8
BLACK
  6
CONTINUOUS
100
AcDbLine
 10
1.7579818897637796
 20
3.3991141732283463
 30
0
 11
1.7500702755905511
 21
3.3869313779527559
 31
0
  0
LINE
  5
41
330
1A
100
AcDbEntity
  8
BLACK
  6
CONTINUOUS
100
AcDbLine
 10
1.7500702755905511
 20
3.3869313779527559
 30
0
 11
1.7409285826771652
 21
3.3756423228346457
 31
0
  0
LINE
  5
42
330
1A
100
AcDbEntity
  8
BLACK
  6
CONTINUOUS
100
AcDbLine
 10
1.7409285826771652
 20
3.3756423228346457
 30
0
 11
1.7306568897637795
 21
3.3653706299212596
 31
0
  0
LINE
  5
43
330
1A
100
AcDbEntity
  8
BLACK
  6
CONTINUOUS
100
AcDbLine
 10
1.7306568897637795
 20
3.3653706299212596
 30
0
 11
1.7193678346456693
 21
3.3562289370078737
 31
0
  0
LINE
  5
44
330
1A
100
AcDbEntity
  8
BLACK
  6
CONTINUOUS
100
AcDbLine
 10
1.7193678346456693
 20
3.3562289370078737
 30
0
 11
1.7071850393700787
 21
3.3483173228346454
 31
0
  0
LINE
  5
45
330
1A
100
AcDbEntity
  8
BLACK
  6
CONTINUOUS
100
AcDbLine
 10
1.7071850393700787
 20
3.3483173228346454
 30
0
 11
1.6942420078740157
 21
3.3417225196850393
 31
0
  0
LINE
  5
46
330
1A
100
AcDbEntity
  8
BLACK
  6
CONTINUOUS
100
AcDbLine
 10
1.6942420078740157
 20
3.3417225196850393
 30
0
 11
1.6806805118110235
 21
3.3365167716535433
 31
0
  0
LINE
  5
47
330
1A
100
AcDbEntity
  8
BLACK
  6
CONTINUOUS
100
AcDbLine
 10
1.6806805118110235
 20
3.3365167716535433
 30
0
 11
1.6666491732283464
 21
3.3327570866141731
 31
0
  0
LINE
  5
48
330
1A
100
AcDbEntity
  8
BLACK
  6
CONTINUOUS
100
AcDbLine
 10
1.6666491732283464
 20
3.3327570866141731
 30
0
 11
1.6523016929133858
 21
3.3304846456692911
 31
0
  0
LINE
  5
49
330
1A
100
AcDbEntity
  8
BLACK
  6
CONTINUOUS
100
AcDbLine
 10
1.6523016929133858
 20
3.3304846456692911
 30
0
 11
1.6377952755905512
 21
3.329724409448819
 31
0
  0
LINE
  5
4A
330
1A
100
AcDbEntity
  8
BLACK
  6
CONTINUOUS
100
AcDbLine
 10
1.6377952755905512
 20
3.329724409448819
 30
0
 11
1.4576771653543308
 21
3.329724409448819
 31
0
  0
LINE
  5
4B
330
1A
100
AcDbEntity
  8
BLACK
  6
CONTINUOUS
100
AcDbLine
 10
1.4576771653543308
 20
3.329724409448819
 30
0
 11
1.4576771653543308
 21
0.8474409448818897
 31
0
  0
LINE
  5
4C
330
1A
100
AcDbEntity
  8
BLACK
  6
CONTINUOUS
100
AcDbLine
 10
1.4576771653543308
 20
0.8474409448818897
 30
0
 11
1.6377952755905512
 21
0.8474409448818897
 31
0
  0
LINE
  5
4D
330
1A
100
AcDbEntity
  8
BLACK
  6
CONTINUOUS
100
AcDbLine
 10
1.6377952755905512
 20
0.8474409448818897
 30
0
 11
1.6523016929133858
 21
0.8466807086614173
 31
0
  0
LINE
  5
4E
330
1A
100
AcDbEntity
  8
BLACK
  6
CONTINUOUS
100
AcDbLine
 10
1.6523016929133858
 20
0.8466807086614173
 30
0
 11
1.6666491732283464
 21
0.8444082677165354
 31
0
  0
LINE
  5
4F
330
1A
100
AcDbEntity
  8
BLACK
  6
CONTINUOUS
100
AcDbLine
 10
1.6666491732283464
 20
0.8444082677165354
 30
0
 11
1.6806805118110235
 21
0.8406485826771654
 31
0
  0
LINE
  5
50
330
1A
100
AcDbEntity
  8
BLACK
  6
CONTINUOUS
100
AcDbLine
 10
1.6806805118110235
 20
0.8406485826771654
 30
0
 11
1.6942420078740157
 21
0.8354428346456693
 31
0
  0
LINE
  5
51
330
1A
100
AcDbEntity
  8
BLACK
  6
CONTINUOUS
100
AcDbLine
 10
1.6942420078740157
 20
0.8354428346456693
 30
0
 11
1.7071850393700787
 21
0.828848031496063
 31
0
  0
LINE
  5
52
330
1A
100
AcDbEntity
  8
BLACK
  6
CONTINUOUS
100
AcDbLine
 10
1.7071850393700787
 20
0.828848031496063
 30
0
 11
1.7193678346456693
 21
0.8209364173228346
 31
0
  0
LINE
  5
53
330
1A
100
AcDbEntity
  8
BLACK
  6
CONTINUOUS
100
AcDbLine
 10
1.7193678346456693
 20
0.8209364173228346
 30
0
 11
1.7306568897637795
 21
0.8117947244094488
 31
0
  0
LINE
  5
54
330
1A
100
AcDbEntity
  8
BLACK
  6
CONTINUOUS
100
AcDbLine
 10
1.7306568897637795
 20
0.8117947244094488
 30
0
 11
1.7409285826771652
 21
0.801523031496063
 31
0
  0
LINE
  5
55
330
1A
100
AcDbEntity
  8
BLACK
  6
CONTINUOUS
100
AcDbLine
 10
1.7409285826771652
 20
0.801523031496063
 30
0
 11
1.7500702755905511
 21
0.7902339763779528
 31
0
  0
LINE
  5
56
330
1A
100
AcDbEntity
  8
BLACK
  6
CONTINUOUS
100
AcDbLine
 10
1.7500702755905511
 20
0.7902339763779528
 30
0
 11
1.7579818897637796
 21
0.7780511811023622
 31
0
  0
LINE
  5
57
330
1A
100
AcDbEntity
  8
BLACK
  6
CONTINUOUS
100
AcDbLine
 10
1.7579818897637796
 20
0.7780511811023622
 30
0
 11
1.7645766929133857
 21
0.7651081496062992
 31
0
  0
LINE
  5
58
330
1A
100
AcDbEntity
  8
BLACK
  6
CONTINUOUS
100
AcDbLine
 10
1.7645766929133857
 20
0.7651081496062992
 30
0
 11
1.7697824409448819
 21
0.7515466535433071
 31
0
  0
LINE
  5
59
330
1A
100
AcDbEntity
  8
BLACK
  6
CONTINUOUS
100
AcDbLine
 10
1.7697824409448819
 20
0.7515466535433071
 30
0
 11
1.7735421259842519
 21
0.7375153149606299
 31
0
  0
LINE
  5
5A
330
1A
100
AcDbEntity
  8
BLACK
  6
CONTINUOUS
100
AcDbLine
 10
1.7735421259842519
 20
0.7375153149606299
 30
0
 11
1.7758145669291339
 21
0.7231678346456692
 31
0
  0
LINE
  5
5B
330
1A
100
AcDbEntity
  8
BLACK
  6
CONTINUOUS
100
AcDbLine
 10
1.7758145669291339
 20
0.7231678346456692
 30
0
 11
1.7765748031496063
 21
0.7086614173228346
 31
0
  0
LINE
  5
5C
330
1A
100
AcDbEntity
  8
BLACK
  6
CONTINUOUS
100
AcDbLine
 10
1.7765748031496063
 20
0.7086614173228346
 30
0
 11
1.7758145669291339
 21
0.694155
 31
0
  0
LINE
  5
5D
330
1A
100
AcDbEntity
  8
BLACK
  6
CONTINUOUS
100
AcDbLine
 10
1.7758145669291339
 20
0.694155
 30
0
 11
1.7735421259842519
 21
0.6798075196850394
 31
0
  0
LINE
  5
5E
330
1A
100
AcDbEntity
  8
BLACK
  6
CONTINUOUS
100
AcDbLine
 10
1.7735421259842519
 20
0.6798075196850394
 30
0
 11
1.7697824409448819
 21
0.6657761811023621
 31
0
  0
LINE
  5
5F
330
1A
100
AcDbEntity
  8
BLACK
  6
CONTINUOUS
100
AcDbLine
 10
1.7697824409448819
 20
0.6657761811023621
 30
0
 11
1.7645766929133857
 21
0.6522146850393701
 31
0
  0
LINE
  5
60
330
1A
100
AcDbEntity
  8
BLACK
  6
CONTINUOUS
100
AcDbLine
 10
1.7645766929133857
 20
0.6522146850393701
 30
0
 11
1.7579818897637796
 21
0.6392716535433071
 31
0
  0
LINE
  5
61
330
1A
100
AcDbEntity
  8
BLACK
  6
CONTINUOUS
100
AcDbLine
 10
1.7579818897637796
 20
0.6392716535433071
 30
0
 11
1.7500702755905511
 21
0.6270888582677165
 31
0
  0
LINE
  5
62
330
1A
100
AcDbEntity
  8
BLACK
  6
CONTINUOUS
100
AcDbLine
 10
1.7500702755905511
 20
0.6270888582677165
 30
0
 11
1.7409285826771652
 21
0.6157998031496063
 31
0
  0
LINE
  5
63
330
1A
100
AcDbEntity
  8
BLACK
  6
CONTINUOUS
100
AcDbLine
 10
1.7409285826771652
 20
0.6157998031496063
 30
0
 11
1.7306568897637795
 21
0.6055281102362204
 31
0
  0
LINE
  5
64
330
1A
100
AcDbEntity
  8
BLACK
  6
CONTINUOUS
100
AcDbLine
 10
1.7306568897637795
 20
0.6055281102362204
 30
0
 11
1.7193678346456693
 21
0.5963864173228346
 31
0
  0
LINE
  5
65
330
1A
100
AcDbEntity
  8
BLACK
  6
CONTINUOUS
100
AcDbLine
 10
1.7193678346456693
 20
0.5963864173228346
 30
0
 11
1.7071850393700787
 21
0.5884748031496063
 31
0
  0
LINE
  5
66
330
1A
100
AcDbEntity
  8
BLACK
  6
CONTINUOUS
100
AcDbLine
 10
1.7071850393700787
 20
0.5884748031496063
 30
0
 11
1.6942420078740157
 21
0.58188
 31
0
  0
LINE
  5
67
330
1A
100
AcDbEntity
  8
BLACK
  6
CONTINUOUS
100
AcDbLine
 10
1.6942420078740157
 20
0.58188
 30
0
 11
1.6806805118110235
 21
0.576674251968504
 31
0
  0
LINE
  5
68
330
1A
100
AcDbEntity
  8
BLACK
  6
CONTINUOUS
100
AcDbLine
 10
1.6806805118110235
 20
0.576674251968504
 30
0
 11
1.6666491732283464
 21
0.5729145669291339
 31
0
  0
LINE
  5
69
330
1A
100
AcDbEntity
  8
BLACK
  6
CONTINUOUS
100
AcDbLine
 10
1.6666491732283464
 20
0.5729145669291339
 30
0
 11
1.6523016929133858
 21
0.5706421259842519
 31
0
  0
LINE
  5
6A
330
1A
100
AcDbEntity
  8
BLACK
  6
CONTINUOUS
100
AcDbLine
 10
1.6523016929133858
 20
0.5706421259842519
 30
0
 11
1.6377952755905512
 21
0.5698818897637795
 31
0
  0
LINE
  5
6B
330
1A
100
AcDbEntity
  8
BLACK
  6
CONTINUOUS
100
AcDbLine
 10
1.6377952755905512
 20
0.5698818897637795
 30
0
 11
1.4576771653543308
 21
0.5698818897637795
 31
0
  0
LINE
  5
6C
330
1A
100
AcDbEntity
  8
BLACK
  6
CONTINUOUS
100
AcDbLine
 10
1.4576771653543308
 20
0.5698818897637795
 30
0
 11
1.4576771653543308
 21
0.
 31
0
  0
LINE
  5
6D
330
1A
100
AcDbEntity
  8
BLACK
  6
CONTINUOUS
100
AcDbLine
 10
1.4576771653543308
 20
0.
 30
0
 11
1.4576022440944882
 21
-0.0003766535433071
 31
0
  0
LINE
  5
6E
330
1A
100
AcDbEntity
  8
BLACK
  6
CONTINUOUS
100
AcDbLine
 10
1.4576022440944882
 20
-0.0003766535433071
 30
0
 11
1.4570695669291338
 21
-0.0009093307086614
 31
0
  0
LINE
  5
6F
330
1A
100
AcDbEntity
  8
BLACK
  6
CONTINUOUS
100
AcDbLine
 10
1.4570695669291338
 20
-0.0009093307086614
 30
0
 11
1.4566929133858268
 21
-0.0009842519685039
 31
0
  0
LINE
  5
70
330
1A
100
AcDbEntity
  8
BLACK
  6
CONTINUOUS
100
AcDbLine
 10
1.4566929133858268
 20
-0.0009842519685039
 30
0
 11
-1.405511811023622
 21
-0.0009842519685039
 31
0
  0
LINE
  5
71
330
1A
100
AcDbEntity
  8
BLACK
  6
CONTINUOUS
100
AcDbLine
 10
-1.405511811023622
 20
-0.0009842519685039
 30
0
 11
-1.4058884645669292
 21
-0.0009093307086614
 31
0
  0
LINE
  5
72
330
1A
100
AcDbEntity
  8
BLACK
  6
CONTINUOUS
100
AcDbLine
 10
-1.4058884645669292
 20
-0.0009093307086614
 30
0
 11
-1.4064211417322834
 21
-0.0003766535433071
 31
0
  0
LINE
  5
73
330
1A
100
AcDbEntity
  8
BLACK
  6
CONTINUOUS
100
AcDbLine
 10
-1.4064211417322834
 20
-0.0003766535433071
 30
0
 11
-1.4064960629921259
 21
0.
 31
0
  0
LINE
  5
74
330
1A
100
AcDbEntity
  8
BLACK
  6
CONTINUOUS
100
AcDbLine
 10
-1.4064960629921259
 20
0.
 30
0
 11
-1.4064960629921259
 21
0.3651575196850393
 31
0
  0
LINE
  5
75
330
1A
100
AcDbEntity
  8
BLACK
  6
CONTINUOUS
100
AcDbLine
 10
-1.4064960629921259
 20
0.3651575196850393
 30
0
 11
-1.6141732283464567
 21
0.3651575196850393
 31
0
  0
LINE
  5
76
330
1A
100
AcDbEntity
  8
BLACK
  6
CONTINUOUS
100
AcDbLine
 10
-1.6141732283464567
 20
0.3651575196850393
 30
0
 11
-1.6286796456692914
 21
0.3659177559055118
 31
0
  0
LINE
  5
77
330
1A
100
AcDbEntity
  8
BLACK
  6
CONTINUOUS
100
AcDbLine
 10
-1.6286796456692914
 20
0.3659177559055118
 30
0
 11
-1.6430271259842519
 21
0.3681901968503937
 31
0
  0
LINE
  5
78
330
1A
100
AcDbEntity
  8
BLACK
  6
CONTINUOUS
100
AcDbLine
 10
-1.6430271259842519
 20
0.3681901968503937
 30
0
 11
-1.6570584645669291
 21
0.3719498818897637
 31
0
  0
LINE
  5
79
330
1A
100
AcDbEntity
  8
BLACK
  6
CONTINUOUS
100
AcDbLine
 10
-1.6570584645669291
 20
0.3719498818897637
 30
0
 11
-1.6706199212598425
 21
0.3771556299212598
 31
0
  0
LINE
  5
7A
330
1A
100
AcDbEntity
  8
BLACK
  6
CONTINUOUS
100
AcDbLine
 10
-1.6706199212598425
 20
0.3771556299212598
 30
0
 11
-1.6835629921259843
 21
0.3837504724409449
 31
0
  0
LINE
  5
7B
330
1A
100
AcDbEntity
  8
BLACK
  6
CONTINUOUS
100
AcDbLine
 10
-1.6835629921259843
 20
0.3837504724409449
 30
0
 11
-1.6957457480314959
 21
0.3916620472440945
 31
0
  0
LINE
  5
7C
330
1A
100
AcDbEntity
  8
BLACK
  6
CONTINUOUS
100
AcDbLine
 10
-1.6957457480314959
 20
0.3916620472440945
 30
0
 11
-1.7070348425196851
 21
0.400803779527559
 31
0
  0
LINE
  5
7D
330
1A
100
AcDbEntity
  8
BLACK
  6
CONTINUOUS
100
AcDbLine
 10
-1.7070348425196851
 20
0.400803779527559
 30
0
 11
-1.717306496062992
 21
0.4110754330708661
 31
0
  0
LINE
  5
7E
330
1A
100
AcDbEntity
  8
BLACK
  6
CONTINUOUS
100
AcDbLine
 10
-1.717306496062992
 20
0.4110754330708661
 30
0
 11
-1.7264481889763779
 21
0.4223644881889764
 31
0
  0
LINE
  5
7F
330
1A
100
AcDbEntity
  8
BLACK
  6
CONTINUOUS
100
AcDbLine
 10
-1.7264481889763779
 20
0.4223644881889764
 30
0
 11
-1.7343598031496064
 21
0.4345472834645669
 31
0
  0
LINE
  5
80
330
1A
100
AcDbEntity
  8
BLACK
  6
CONTINUOUS
100
AcDbLine
 10
-1.7343598031496064
 20
0.4345472834645669
 30
0
 11
-1.7409546062992125
 21
0.4474903149606299
 31
0
  0
LINE
  5
81
330
1A
100
AcDbEntity
  8
BLACK
  6
CONTINUOUS
100
AcDbLine
 10
-1.7409546062992125
 20
0.4474903149606299
 30
0
 11
-1.7461603543307087
 21
0.461051811023622
 31
0
  0
LINE
  5
82
330
1A
100
AcDbEntity
  8
BLACK
  6
CONTINUOUS
100
AcDbLine
 10
-1.7461603543307087
 20
0.461051811023622
 30
0
 11
-1.7499200393700787
 21
0.4750831496062992
 31
0
  0
LINE
  5
83
330
1A
100
AcDbEntity
  8
BLACK
  6
CONTINUOUS
100
AcDbLine
 10
-1.7499200393700787
 20
0.4750831496062992
 30
0
 11
-1.7521924803149607
 21
0.4894306299212599
 31
0
  0
LINE
  5
84
330
1A
100
AcDbEntity
  8
BLACK
  6
CONTINUOUS
100
AcDbLine
 10
-1.7521924803149607
 20
0.4894306299212599
 30
0
 11
-1.7529527165354331
 21
0.5039370078740157
 31
0
  0
LINE
  5
85
330
1A
100
AcDbEntity
  8
BLACK
  6
CONTINUOUS
100
AcDbLine
 10
-1.7529527165354331
 20
0.5039370078740157
 30
0
 11
-1.7521924803149607
 21
0.5184434251968504
 31
0
  0
LINE
  5
86
330
1A
100
AcDbEntity
  8
BLACK
  6
CONTINUOUS
100
AcDbLine
 10
-1.7521924803149607
 20
0.5184434251968504
 30
0
 11
-1.7499200393700787
 21
0.532790905511811
 31
0
  0
LINE
  5
87
330
1A
100
AcDbEntity
  8
BLACK
  6
CONTINUOUS
100
AcDbLine
 10
-1.7499200393700787
 20
0.532790905511811
 30
0
 11
-1.7461603543307087
 21
0.5468222440944882
 31
0
  0
LINE
  5
88
330
1A
100
AcDbEntity
  8
BLACK
  6
CONTINUOUS
100
AcDbLine
 10
-1.7461603543307087
 20
0.5468222440944882
 30
0
 11
-1.7409546062992125
 21
0.5603837401574803
 31
0
  0
LINE
  5
89
330
1A
100
AcDbEntity
  8
BLACK
  6
CONTINUOUS
100
AcDbLine
 10
-1.7409546062992125
 20
0.5603837401574803
 30
0
 11
-1.7343598031496064
 21
0.5733267716535433
 31
0
  0
LINE
  5
8A
330
1A
100
AcDbEntity
  8
BLACK
  6
CONTINUOUS
100
AcDbLine
 10
-1.7343598031496064
 20
0.5733267716535433
 30
0
 11
-1.7264481889763779
 21
0.5855095669291338
 31
0
  0
LINE
  5
8B
330
1A
100
AcDbEntity
  8
BLACK
  6
CONTINUOUS
100
AcDbLine
 10
-1.7264481889763779
 20
0.5855095669291338
 30
0
 11
-1.717306496062992
 21
0.5967986220472441
 31
0
  0
LINE
  5
8C
330
1A
100
AcDbEntity
  8
BLACK
  6
CONTINUOUS
100
AcDbLine
 10
-1.717306496062992
 20
0.5967986220472441
 30
0
 11
-1.7070348425196851
 21
0.6070702755905512
 31
0
  0
LINE
  5
8D
330
1A
100
AcDbEntity
  8
BLACK
  6
CONTINUOUS
100
AcDbLine
 10
-1.7070348425196851
 20
0.6070702755905512
 30
0
 11
-1.6957457480314959
 21
0.6162120078740158
 31
0
  0
LINE
  5
8E
330
1A
100
AcDbEntity
  8
BLACK
  6
CONTINUOUS
100
AcDbLine
 10
-1.6957457480314959
 20
0.6162120078740158
 30
0
 11
-1.6835629921259843
 21
0.6241235826771654
 31
0
  0
LINE
  5
8F
330
1A
100
AcDbEntity
  8
BLACK
  6
CONTINUOUS
100
AcDbLine
 10
-1.6835629921259843
 20
0.6241235826771654
 30
0
 11
-1.6706199212598425
 21
0.6307184251968504
 31
0
  0
LINE
  5
90
330
1A
100
AcDbEntity
  8
BLACK
  6
CONTINUOUS
100
AcDbLine
 10
-1.6706199212598425
 20
0.6307184251968504
 30
0
 11
-1.6570584645669291
 21
0.6359241732283465
 31
0
  0
LINE
  5
91
330
1A
100
AcDbEntity
  8
BLACK
  6
CONTINUOUS
100
AcDbLine
 10
-1.6570584645669291
 20
0.6359241732283465
 30
0
 11
-1.6430271259842519
 21
0.6396838582677166
 31
0
  0
LINE
  5
92
330
1A
100
AcDbEntity
  8
BLACK
  6
CONTINUOUS
100
AcDbLine
 10
-1.6430271259842519
 20
0.6396838582677166
 30
0
 11
-1.6286796456692914
 21
0.6419562992125984
 31
0
  0
LINE
  5
93
330
1A
100
AcDbEntity
  8
BLACK
  6
CONTINUOUS
100
AcDbLine
 10
-1.6286796456692914
 20
0.6419562992125984
 30
0
 11
-1.6141732283464567
 21
0.6427165354330708
 31
0
  0
LINE
  5
94
330
1A
100
AcDbEntity
  8
BLACK
  6
CONTINUOUS
100
AcDbLine
 10
-1.6141732283464567
 20
0.6427165354330708
 30
0
 11
-1.4064960629921259
 21
0.6427165354330708
 31
0
  0
LINE
  5
95
330
1A
100
AcDbEntity
  8
BLACK
  6
CONTINUOUS
100
AcDbLine
 10
-1.4064960629921259
 20
0.6427165354330708
 30
0
 11
-1.4064960629921259
 21
4.7047244094488185
 31
0
  0
LINE
  5
96
330
1A
100
AcDbEntity
  8
BLACK
  6
CONTINUOUS
100
AcDbLine
 10
-1.4064960629921259
 20
4.7047244094488185
 30
0
 11
-1.4064211417322834
 21
4.7051010629921262
 31
0
  0
LINE
  5
97
330
1A
100
AcDbEntity
  8
BLACK
  6
CONTINUOUS
100
AcDbLine
 10
-1.4064211417322834
 20
4.7051010629921262
 30
0
 11
-1.4058884645669292
 21
4.7056337401574799
 31
0
  0
LINE
  5
98
330
1A
100
AcDbEntity
  8
BLACK
  6
CONTINUOUS
100
AcDbLine
 10
-1.4058884645669292
 20
4.7056337401574799
 30
0
 11
-1.405511811023622
 21
4.7057086614173231
 31
0
  0
LINE
  5
99
330
1A
100
AcDbEntity
  8
BLACK
  6
CONTINUOUS
100
AcDbLine
 10
-1.405511811023622
 20
4.7057086614173231
 30
0
 11
1.4566929133858268
 21
4.7057086614173231
 31
0
  0
LINE
  5
9A
330
1A
100
AcDbEntity
  8
BLACK
  6
CONTINUOUS
100
AcDbLine
 10
1.4566929133858268
 20
4.7057086614173231
 30
0
 11
1.4570695669291338
 21
4.7056337401574799
 31
0
  0
LINE
  5
9B
330
1A
100
AcDbEntity
  8
BLACK
  6
CONTINUOUS
100
AcDbLine
 10
-1.4045275590551181
 20
4.7037401574803148
 30
0
 11
-1.4045275590551181
 21
0.6417322834645669
 31
0
  0
LINE
  5
9C
330
1A
100
AcDbEntity
  8
BLACK
  6
CONTINUOUS
100
AcDbLine
 10
-1.4045275590551181
 20
0.6417322834645669
 30
0
 11
-1.4046024803149606
 21
0.6413556299212598
 31
0
  0
LINE
  5
9D
330
1A
100
AcDbEntity
  8
BLACK
  6
CONTINUOUS
100
AcDbLine
 10
-1.4046024803149606
 20
0.6413556299212598
 30
0
 11
-1.405135157480315
 21
0.6408229527559055
 31
0
  0
LINE
  5
9E
330
1A
100
AcDbEntity
  8
BLACK
  6
CONTINUOUS
100
AcDbLine
 10
-1.405135157480315
 20
0.6408229527559055
 30
0
 11
-1.405511811023622
 21
0.640748031496063
 31
0
  0
LINE
  5
9F
330
1A
100
AcDbEntity
  8
BLACK
  6
CONTINUOUS
100
AcDbLine
 10
-1.405511811023622
 20
0.640748031496063
 30
0
 11
-1.6141732283464567
 21
0.640748031496063
 31
0
  0
LINE
  5
A0
330
1A
100
AcDbEntity
  8
BLACK
  6
CONTINUOUS
100
AcDbLine
 10
-1.6141732283464567
 20
0.640748031496063
 30
0
 11
-1.6213431889763779
 21
0.640748031496063
 31
0
  0
LINE
  5
A1
330
1A
100
AcDbEntity
  8
BLACK
  6
CONTINUOUS
100
AcDbLine
 10
-1.6213431889763779
 20
0.640748031496063
 30
0
 11
-1.6356045669291339
 21
0.639249094488189
 31
0
  0
LINE
  5
A2
330
1A
100
AcDbEntity
  8
BLACK
  6
CONTINUOUS
100
AcDbLine
 10
-1.6356045669291339
 20
0.639249094488189
 30
0
 11
-1.6496311023622048
 21
0.6362676771653543
 31
0
  0
LINE
  5
A3
330
1A
100
AcDbEntity
  8
BLACK
  6
CONTINUOUS
100
AcDbLine
 10
-1.6496311023622048
 20
0.6362676771653543
 30
0
 11
-1.6632691732283464
 21
0.6318363779527559
 31
0
  0
LINE
  5
A4
330
1A
100
AcDbEntity
  8
BLACK
  6
CONTINUOUS
100
AcDbLine
 10
-1.6632691732283464
 20
0.6318363779527559
 30
0
 11
-1.6763693700787401
 21
0.6260038188976378
 31
0
  0
LINE
  5
A5
330
1A
100
AcDbEntity
  8
BLACK
  6
CONTINUOUS
100
AcDbLine
 10
-1.6763693700787401
 20
0.6260038188976378
 30
0
 11
-1.6887881102362203
 21
0.6188338582677165
 31
0
  0
LINE
  5
A6
330
1A
100
AcDbEntity
  8
BLACK
  6
CONTINUOUS
100
AcDbLine
 10
-1.6887881102362203
 20
0.6188338582677165
 30
0
 11
-1.7003893307086613
 21
0.6104050393700787
 31
0
  0
LINE
  5
A7
330
1A
100
AcDbEntity
  8
BLACK
  6
CONTINUOUS
100
AcDbLine
 10
-1.7003893307086613
 20
0.6104050393700787
 30
0
 11
-1.7110459842519685
 21
0.6008097637795276
 31
0
  0
LINE
  5
A8
330
1A
100
AcDbEntity
  8
BLACK
  6
CONTINUOUS
100
AcDbLine
 10
-1.7110459842519685
 20
0.6008097637795276
 30
0
 11
-1.7206412598425196
 21
0.5901531496062992
 31
0
  0
LINE
  5
A9
330
1A
100
AcDbEntity
  8
BLACK
  6
CONTINUOUS
100
AcDbLine
 10
-1.7206412598425196
 20
0.5901531496062992
 30
0
 11
-1.7290700393700786
 21
0.5785518897637795
 31
0
  0
LINE
  5
AA
330
1A
100
AcDbEntity
  8
BLACK
  6
CONTINUOUS
100
AcDbLine
 10
-1.7290700393700786
 20
0.5785518897637795
 30
0
 11
-1.73624
 21
0.5661331496062992
 31
0
  0
LINE
  5
AB
330
1A
100
AcDbEntity
  8
BLACK
  6
CONTINUOUS
100
AcDbLine
 10
-1.73624
 20
0.5661331496062992
 30
0
 11
-1.742072559055118
 21
0.5530329921259842
 31
0
  0
LINE
  5
AC
330
1A
100
AcDbEntity
  8
BLACK
  6
CONTINUOUS
100
AcDbLine
 10
-1.742072559055118
 20
0.5530329921259842
 30
0
 11
-1.7465038582677166
 21
0.5393949212598425
 31
0
  0
LINE
  5
AD
330
1A
100
AcDbEntity
  8
BLACK
  6
CONTINUOUS
100
AcDbLine
 10
-1.7465038582677166
 20
0.5393949212598425
 30
0
 11
-1.7494852755905512
 21
0.5253683464566929
 31
0
  0
LINE
  5
AE
330
1A
100
AcDbEntity
  8
BLACK
  6
CONTINUOUS
100
AcDbLine
 10
-1.7494852755905512
 20
0.5253683464566929
 30
0
 11
-1.7509842125984252
 21
0.511106968503937
 31
0
  0
LINE
  5
AF
330
1A
100
AcDbEntity
  8
BLACK
  6
CONTINUOUS
100
AcDbLine
 10
-1.7509842125984252
 20
0.511106968503937
 30
0
 11
-1.7509842125984252
 21
0.4967670866141732
 31
0
  0
LINE
  5
B0
330
1A
100
AcDbEntity
  8
BLACK
  6
CONTINUOUS
100
AcDbLine
 10
-1.7509842125984252
 20
0.4967670866141732
 30
0
 11
-1.7494852755905512
 21
0.4825057086614173
 31
0
  0
LINE
  5
B1
330
1A
100
AcDbEntity
  8
BLACK
  6
CONTINUOUS
100
AcDbLine
 10
-1.7494852755905512
 20
0.4825057086614173
 30
0
 11
-1.7465038582677166
 21
0.4684791338582677
 31
0
  0
LINE
  5
B2
330
1A
100
AcDbEntity
  8
BLACK
  6
CONTINUOUS
100
AcDbLine
 10
-1.7465038582677166
 20
0.4684791338582677
 30
0
 11
-1.742072559055118
 21
0.454841062992126
 31
0
  0
LINE
  5
B3
330
1A
100
AcDbEntity
  8
BLACK
  6
CONTINUOUS
100
AcDbLine
 10
-1.742072559055118
 20
0.454841062992126
 30
0
 11
-1.73624
 21
0.441740905511811
 31
0
  0
LINE
  5
B4
330
1A
100
AcDbEntity
  8
BLACK
  6
CONTINUOUS
100
AcDbLine
 10
-1.73624
 20
0.441740905511811
 30
0
 11
-1.7290700393700786
 21
0.4293221653543307
 31
0
  0
LINE
  5
B5
330
1A
100
AcDbEntity
  8
BLACK
  6
CONTINUOUS
100
AcDbLine
 10
-1.7290700393700786
 20
0.4293221653543307
 30
0
 11
-1.7206412598425196
 21
0.417720905511811
 31
0
  0
LINE
  5
B6
330
1A
100
AcDbEntity
  8
BLACK
  6
CONTINUOUS
100
AcDbLine
 10
-1.7206412598425196
 20
0.417720905511811
 30
0
 11
-1.7110459842519685
 21
0.4070642913385827
 31
0
  0
LINE
  5
B7
330
1A
100
AcDbEntity
  8
BLACK
  6
CONTINUOUS
100
AcDbLine
 10
-1.7110459842519685
 20
0.4070642913385827
 30
0
 11
-1.7003893307086613
 21
0.3974690157480315
 31
0
  0
LINE
  5
B8
330
1A
100
AcDbEntity
  8
BLACK
  6
CONTINUOUS
100
AcDbLine
 10
-1.7003893307086613
 20
0.3974690157480315
 30
0
 11
-1.6887881102362203
 21
0.3890401968503937
 31
0
  0
LINE
  5
B9
330
1A
100
AcDbEntity
  8
BLACK
  6
CONTINUOUS
100
AcDbLine
 10
-1.6887881102362203
 20
0.3890401968503937
 30
0
 11
-1.6763693700787401
 21
0.3818702362204724
 31
0
  0
LINE
  5
BA
330
1A
100
AcDbEntity
  8
BLACK
  6
CONTINUOUS
100
AcDbLine
 10
-1.6763693700787401
 20
0.3818702362204724
 30
0
 11
-1.6632691732283464
 21
0.3760376771653543
 31
0
  0
LINE
  5
BB
330
1A
100
AcDbEntity
  8
BLACK
  6
CONTINUOUS
100
AcDbLine
 10
-1.6632691732283464
 20
0.3760376771653543
 30
0
 11
-1.6496311023622048
 21
0.3716063779527559
 31
0
  0
LINE
  5
BC
330
1A
100
AcDbEntity
  8
BLACK
  6
CONTINUOUS
100
AcDbLine
 10
-1.6496311023622048
 20
0.3716063779527559
 30
0
 11
-1.6356045669291339
 21
0.3686249606299212
 31
0
  0
LINE
  5
BD
330
1A
100
AcDbEntity
  8
BLACK
  6
CONTINUOUS
100
AcDbLine
 10
-1.6356045669291339
 20
0.3686249606299212
 30
0
 11
-1.6213431889763779
 21
0.3671260236220472
 31
0
  0
LINE
  5
BE
330
1A
100
AcDbEntity
  8
BLACK
  6
CONTINUOUS
100
AcDbLine
 10
-1.6213431889763779
 20
0.3671260236220472
 30
0
 11
-1.6141732283464567
 21
0.3671260236220472
 31
0
  0
LINE
  5
BF
330
1A
100
AcDbEntity
  8
BLACK
  6
CONTINUOUS
100
AcDbLine
 10
-1.6141732283464567
 20
0.3671260236220472
 30
0
 11
-1.405511811023622
 21
0.3671259842519685
 31
0
  0
LINE
  5
C0
330
1A
100
AcDbEntity
  8
BLACK
  6
CONTINUOUS
100
AcDbLine
 10
-1.405511811023622
 20
0.3671259842519685
 30
0
 11
-1.405135157480315
 21
0.367051062992126
 31
0
  0
LINE
  5
C1
330
1A
100
AcDbEntity
  8
BLACK
  6
CONTINUOUS
100
AcDbLine
 10
-1.405135157480315
 20
0.367051062992126
 30
0
 11
-1.4046024803149606
 21
0.3665183858267717
 31
0
  0
LINE
  5
C2
330
1A
100
AcDbEntity
  8
BLACK
  6
CONTINUOUS
100
AcDbLine
 10
-1.4046024803149606
 20
0.3665183858267717
 30
0
 11
-1.4045275590551181
 21
0.3661417322834646
 31
0
  0
LINE
  5
C3
330
1A
100
AcDbEntity
  8
BLACK
  6
CONTINUOUS
100
AcDbLine
 10
-1.4045275590551181
 20
0.3661417322834646
 30
0
 11
-1.4045275590551181
 21
0.0009842519685039
 31
0
  0
LINE
  5
C4
330
1A
100
AcDbEntity
  8
BLACK
  6
CONTINUOUS
100
AcDbLine
 10
-1.4045275590551181
 20
0.0009842519685039
 30
0
 11
1.4557086614173227
 21
0.0009842519685039
 31
0
  0
LINE
  5
C5
330
1A
100
AcDbEntity
  8
BLACK
  6
CONTINUOUS
100
AcDbLine
 10
1.4557086614173227
 20
0.0009842519685039
 30
0
 11
1.4557086614173227
 21
0.5708661417322834
 31
0
  0
LINE
  5
C6
330
1A
100
AcDbEntity
  8
BLACK
  6
CONTINUOUS
100
AcDbLine
 10
1.4557086614173227
 20
0.5708661417322834
 30
0
 11
1.4557835826771652
 21
0.5712427952755905
 31
0
  0
LINE
  5
C7
330
1A
100
AcDbEntity
  8
BLACK
  6
CONTINUOUS
100
AcDbLine
 10
1.4557835826771652
 20
0.5712427952755905
 30
0
 11
1.4563162598425197
 21
0.5717754724409448
 31
0
  0
LINE
  5
C8
330
1A
100
AcDbEntity
  8
BLACK
  6
CONTINUOUS
100
AcDbLine
 10
1.4563162598425197
 20
0.5717754724409448
 30
0
 11
1.4566929133858268
 21
0.5718503937007874
 31
0
  0
LINE
  5
C9
330
1A
100
AcDbEntity
  8
BLACK
  6
CONTINUOUS
100
AcDbLine
 10
1.4566929133858268
 20
0.5718503937007874
 30
0
 11
1.6377952755905512
 21
0.5718503937007874
 31
0
  0
LINE
  5
CA
330
1A
100
AcDbEntity
  8
BLACK
  6
CONTINUOUS
100
AcDbLine
 10
1.6377952755905512
 20
0.5718503937007874
 30
0
 11
1.6449652362204723
 21
0.5718503937007874
 31
0
  0
LINE
  5
CB
330
1A
100
AcDbEntity
  8
BLACK
  6
CONTINUOUS
100
AcDbLine
 10
1.6449652362204723
 20
0.5718503937007874
 30
0
 11
1.6592266141732284
 21
0.5733493307086615
 31
0
  0
LINE
  5
CC
330
1A
100
AcDbEntity
  8
BLACK
  6
CONTINUOUS
100
AcDbLine
 10
1.6592266141732284
 20
0.5733493307086615
 30
0
 11
1.6732531496062992
 21
0.5763307480314961
 31
0
  0
LINE
  5
CD
330
1A
100
AcDbEntity
  8
BLACK
  6
CONTINUOUS
100
AcDbLine
 10
1.6732531496062992
 20
0.5763307480314961
 30
0
 11
1.6868912598425196
 21
0.5807620472440945
 31
0
  0
LINE
  5
CE
330
1A
100
AcDbEntity
  8
BLACK
  6
CONTINUOUS
100
AcDbLine
 10
1.6868912598425196
 20
0.5807620472440945
 30
0
 11
1.6999914173228345
 21
0.5865946062992126
 31
0
  0
LINE
  5
CF
330
1A
100
AcDbEntity
  8
BLACK
  6
CONTINUOUS
100
AcDbLine
 10
1.6999914173228345
 20
0.5865946062992126
 30
0
 11
1.712410157480315
 21
0.5937645669291338
 31
0
  0
LINE
  5
D0
330
1A
100
AcDbEntity
  8
BLACK
  6
CONTINUOUS
100
AcDbLine
 10
1.712410157480315
 20
0.5937645669291338
 30
0
 11
1.7240114173228347
 21
0.6021933858267716
 31
0
  0
LINE
  5
D1
330
1A
100
AcDbEntity
  8
BLACK
  6
CONTINUOUS
100
AcDbLine
 10
1.7240114173228347
 20
0.6021933858267716
 30
0
 11
1.734668031496063
 21
0.6117886614173228
 31
0
  0
LINE
  5
D2
330
1A
100
AcDbEntity
  8
BLACK
  6
CONTINUOUS
100
AcDbLine
 10
1.734668031496063
 20
0.6117886614173228
 30
0
 11
1.744263307086614
 21
0.6224452755905512
 31
0
  0
LINE
  5
D3
330
1A
100
AcDbEntity
  8
BLACK
  6
CONTINUOUS
100
AcDbLine
 10
1.744263307086614
 20
0.6224452755905512
 30
0
 11
1.7526921259842518
 21
0.6340465354330709
 31
0
  0
LINE
  5
D4
330
1A
100
AcDbEntity
  8
BLACK
  6
CONTINUOUS
100
AcDbLine
 10
1.7526921259842518
 20
0.6340465354330709
 30
0
 11
1.7598620866141732
 21
0.6464652755905511
 31
0
  0
LINE
  5
D5
330
1A
100
AcDbEntity
  8
BLACK
  6
CONTINUOUS
100
AcDbLine
 10
1.7598620866141732
 20
0.6464652755905511
 30
0
 11
1.7656946456692912
 21
0.6595654330708661
 31
0
  0
LINE
  5
D6
330
1A
100
AcDbEntity
  8
BLACK
  6
CONTINUOUS
100
AcDbLine
 10
1.7656946456692912
 20
0.6595654330708661
 30
0
 11
1.7701259448818898
 21
0.6732035433070866
 31
0
  0
LINE
  5
D7
330
1A
100
AcDbEntity
  8
BLACK
  6
CONTINUOUS
100
AcDbLine
 10
1.7701259448818898
 20
0.6732035433070866
 30
0
 11
1.7731073622047244
 21
0.6872300787401575
 31
0
  0
LINE
  5
D8
330
1A
100
AcDbEntity
  8
BLACK
  6
CONTINUOUS
100
AcDbLine
 10
1.7731073622047244
 20
0.6872300787401575
 30
0
 11
1.7746062992125984
 21
0.7014914566929134
 31
0
  0
LINE
  5
D9
330
1A
100
AcDbEntity
  8
BLACK
  6
CONTINUOUS
100
AcDbLine
 10
1.7746062992125984
 20
0.7014914566929134
 30
0
 11
1.7746062992125984
 21
0.7158313779527559
 31
0
  0
LINE
  5
DA
330
1A
100
AcDbEntity
  8
BLACK
  6
CONTINUOUS
100
AcDbLine
 10
1.7746062992125984
 20
0.7158313779527559
 30
0
 11
1.7731073622047244
 21
0.7300927559055118
 31
0
  0
LINE
  5
DB
330
1A
100
AcDbEntity
  8
BLACK
  6
CONTINUOUS
100
AcDbLine
 10
1.7731073622047244
 20
0.7300927559055118
 30
0
 11
1.7701259448818898
 21
0.7441192913385827
 31
0
  0
LINE
  5
DC
330
1A
100
AcDbEntity
  8
BLACK
  6
CONTINUOUS
100
AcDbLine
 10
1.7701259448818898
 20
0.7441192913385827
 30
0
 11
1.7656946456692912
 21
0.7577574015748031
 31
0
  0
LINE
  5
DD
330
1A
100
AcDbEntity
  8
BLACK
  6
CONTINUOUS
100
AcDbLine
 10
1.7656946456692912
 20
0.7577574015748031
 30
0
 11
1.7598620866141732
 21
0.7708575590551181
 31
0
  0
LINE
  5
DE
330
1A
100
AcDbEntity
  8
BLACK
  6
CONTINUOUS
100
AcDbLine
 10
1.7598620866141732
 20
0.7708575590551181
 30
0
 11
1.7526921259842518
 21
0.7832762992125984
 31
0
  0
LINE
  5
DF
330
1A
100
AcDbEntity
  8
BLACK
  6
CONTINUOUS
100
AcDbLine
 10
1.7526921259842518
 20
0.7832762992125984
 30
0
 11
1.744263307086614
 21
0.7948775590551181
 31
0
  0
LINE
  5
E0
330
1A
100
AcDbEntity
  8
BLACK
  6
CONTINUOUS
100
AcDbLine
 10
1.744263307086614
 20
0.7948775590551181
 30
0
 11
1.734668031496063
 21
0.8055341732283464
 31
0
  0
LINE
  5
E1
330
1A
100
AcDbEntity
  8
BLACK
  6
CONTINUOUS
100
AcDbLine
 10
1.734668031496063
 20
0.8055341732283464
 30
0
 11
1.7240114173228347
 21
0.8151294488188976
 31
0
  0
LINE
  5
E2
330
1A
100
AcDbEntity
  8
BLACK
  6
CONTINUOUS
100
AcDbLine
 10
1.7240114173228347
 20
0.8151294488188976
 30
0
 11
1.712410157480315
 21
0.8235582677165354
 31
0
  0
LINE
  5
E3
330
1A
100
AcDbEntity
  8
BLACK
  6
CONTINUOUS
100
AcDbLine
 10
1.712410157480315
 20
0.8235582677165354
 30
0
 11
1.6999914173228345
 21
0.8307282283464567
 31
0
  0
LINE
  5
E4
330
1A
100
AcDbEntity
  8
BLACK
  6
CONTINUOUS
100
AcDbLine
 10
1.6999914173228345
 20
0.8307282283464567
 30
0
 11
1.6868912598425196
 21
0.8365607874015748
 31
0
  0
LINE
  5
E5
330
1A
100
AcDbEntity
  8
BLACK
  6
CONTINUOUS
100
AcDbLine
 10
1.6868912598425196
 20
0.8365607874015748
 30
0
 11
1.6732531496062992
 21
0.8409920866141732
 31
0
  0
LINE
  5
E6
330
1A
100
AcDbEntity
  8
BLACK
  6
CONTINUOUS
100
AcDbLine
 10
1.6732531496062992
 20
0.8409920866141732
 30
0
 11
1.6592266141732284
 21
0.8439735039370079
 31
0
  0
LINE
  5
E7
330
1A
100
AcDbEntity
  8
BLACK
  6
CONTINUOUS
100
AcDbLine
 10
1.6592266141732284
 20
0.8439735039370079
 30
0
 11
1.6449652362204723
 21
0.8454724409448818
 31
0
  0
LINE
  5
E8
330
1A
100
AcDbEntity
  8
BLACK
  6
CONTINUOUS
100
AcDbLine
 10
1.6449652362204723
 20
0.8454724409448818
 30
0
 11
1.6377952755905512
 21
0.8454724409448818
 31
0
  0
LINE
  5
E9
330
1A
100
AcDbEntity
  8
BLACK
  6
CONTINUOUS
100
AcDbLine
 10
1.6377952755905512
 20
0.8454724409448818
 30
0
 11
1.4566929133858268
 21
0.8454724409448818
 31
0
  0
LINE
  5
EA
330
1A
100
AcDbEntity
  8
BLACK
  6
CONTINUOUS
100
AcDbLine
 10
1.4566929133858268
 20
0.8454724409448818
 30
0
 11
1.4563162598425197
 21
0.8455473622047244
 31
0
  0
LINE
  5
EB
330
1A
100
AcDbEntity
  8
BLACK
  6
CONTINUOUS
100
AcDbLine
 10
1.4563162598425197
 20
0.8455473622047244
 30
0
 11
1.4557835826771652
 21
0.8460800393700787
 31
0
  0
LINE
  5
EC
330
1A
100
AcDbEntity
  8
BLACK
  6
CONTINUOUS
100
AcDbLine
 10
1.4557835826771652
 20
0.8460800393700787
 30
0
 11
1.4557086614173227
 21
0.8464566929133858
 31
0
  0
LINE
  5
ED
330
1A
100
AcDbEntity
  8
BLACK
  6
CONTINUOUS
100
AcDbLine
 10
1.4557086614173227
 20
0.8464566929133858
 30
0
 11
1.4557086614173227
 21
3.3307086614173227
 31
0
  0
LINE
  5
EE
330
1A
100
AcDbEntity
  8
BLACK
  6
CONTINUOUS
100
AcDbLine
 10
1.4557086614173227
 20
3.3307086614173227
 30
0
 11
1.4557835826771652
 21
3.3310853149606299
 31
0
  0
LINE
  5
EF
330
1A
100
AcDbEntity
  8
BLACK
  6
CONTINUOUS
100
AcDbLine
 10
1.4557835826771652
 20
3.3310853149606299
 30
0
 11
1.4563162598425197
 21
3.3316179921259841
 31
0
  0
LINE
  5
F0
330
1A
100
AcDbEntity
  8
BLACK
  6
CONTINUOUS
100
AcDbLine
 10
1.4563162598425197
 20
3.3316179921259841
 30
0
 11
1.4566929133858268
 21
3.3316929133858268
 31
0
  0
LINE
  5
F1
330
1A
100
AcDbEntity
  8
BLACK
  6
CONTINUOUS
100
AcDbLine
 10
1.4566929133858268
 20
3.3316929133858268
 30
0
 11
1.6377952755905512
 21
3.3316929133858268
 31
0
  0
LINE
  5
F2
330
1A
100
AcDbEntity
  8
BLACK
  6
CONTINUOUS
100
AcDbLine
 10
1.6377952755905512
 20
3.3316929133858268
 30
0
 11
1.6449652362204723
 21
3.3316929133858268
 31
0
  0
LINE
  5
F3
330
1A
100
AcDbEntity
  8
BLACK
  6
CONTINUOUS
100
AcDbLine
 10
1.6449652362204723
 20
3.3316929133858268
 30
0
 11
1.6592266141732284
 21
3.3331918503937006
 31
0
  0
LINE
  5
F4
330
1A
100
AcDbEntity
  8
BLACK
  6
CONTINUOUS
100
AcDbLine
 10
1.6592266141732284
 20
3.3331918503937006
 30
0
 11
1.6732531496062992
 21
3.3361732677165352
 31
0
  0
LINE
  5
F5
330
1A
100
AcDbEntity
  8
BLACK
  6
CONTINUOUS
100
AcDbLine
 10
1.6732531496062992
 20
3.3361732677165352
 30
0
 11
1.6868912598425196
 21
3.3406045669291338
 31
0
  0
LINE
  5
F6
330
1A
100
AcDbEntity
  8
BLACK
  6
CONTINUOUS
100
AcDbLine
 10
1.6868912598425196
 20
3.3406045669291338
 30
0
 11
1.6999914173228345
 21
3.3464371259842518
 31
0
  0
LINE
  5
F7
330
1A
100
AcDbEntity
  8
BLACK
  6
CONTINUOUS
100
AcDbLine
 10
1.6999914173228345
 20
3.3464371259842518
 30
0
 11
1.712410157480315
 21
3.3536070866141729
 31
0
  0
LINE
  5
F8
330
1A
100
AcDbEntity
  8
BLACK
  6
CONTINUOUS
100
AcDbLine
 10
1.712410157480315
 20
3.3536070866141729
 30
0
 11
1.7240114173228347
 21
3.362035905511811
 31
0
  0
LINE
  5
F9
330
1A
100
AcDbEntity
  8
BLACK
  6
CONTINUOUS
100
AcDbLine
 10
1.7240114173228347
 20
3.362035905511811
 30
0
 11
1.734668031496063
 21
3.3716311811023623
 31
0
  0
LINE
  5
FA
330
1A
100
AcDbEntity
  8
BLACK
  6
CONTINUOUS
100
AcDbLine
 10
1.734668031496063
 20
3.3716311811023623
 30
0
 11
1.744263307086614
 21
3.3822877952755905
 31
0
  0
LINE
  5
FB
330
1A
100
AcDbEntity
  8
BLACK
  6
CONTINUOUS
100
AcDbLine
 10
1.744263307086614
 20
3.3822877952755905
 30
0
 11
1.7526921259842518
 21
3.3938890551181102
 31
0
  0
LINE
  5
FC
330
1A
100
AcDbEntity
  8
BLACK
  6
CONTINUOUS
100
AcDbLine
 10
1.7526921259842518
 20
3.3938890551181102
 30
0
 11
1.7598620866141732
 21
3.4063077952755907
 31
0
  0
LINE
  5
FD
330
1A
100
AcDbEntity
  8
BLACK
  6
CONTINUOUS
100
AcDbLine
 10
1.7598620866141732
 20
3.4063077952755907
 30
0
 11
1.7656946456692912
 21
3.4194079527559054
 31
0
  0
LINE
  5
FE
330
1A
100
AcDbEntity
  8
BLACK
  6
CONTINUOUS
100
AcDbLine
 10
1.7656946456692912
 20
3.4194079527559054
 30
0
 11
1.7701259448818898
 21
3.4330460629921258
 31
0
  0
LINE
  5
FF
330
1A
100
AcDbEntity
  8
BLACK
  6
CONTINUOUS
100
AcDbLine
 10
1.7701259448818898
 20
3.4330460629921258
 30
0
 11
1.7731073622047244
 21
3.4470725984251969
 31
0
  0
LINE
  5
100
330
1A
100
AcDbEntity
  8
BLACK
  6
CONTINUOUS
100
AcDbLine
 10
1.7731073622047244
 20
3.4470725984251969
 30
0
 11
1.7746062992125984
 21
3.4613339763779525
 31
0
  0
LINE
  5
101
330
1A
100
AcDbEntity
  8
BLACK
  6
CONTINUOUS
100
AcDbLine
 10
1.7746062992125984
 20
3.4613339763779525
 30
0
 11
1.7746062992125984
 21
3.4756738976377952
 31
0
  0
LINE
  5
102
330
1A
100
AcDbEntity
  8
BLACK
  6
CONTINUOUS
100
AcDbLine
 10
1.7746062992125984
 20
3.4756738976377952
 30
0
 11
1.7731073622047244
 21
3.4899352755905513
 31
0
  0
LINE
  5
103
330
1A
100
AcDbEntity
  8
BLACK
  6
CONTINUOUS
100
AcDbLine
 10
1.7731073622047244
 20
3.4899352755905513
 30
0
 11
1.7701259448818898
 21
3.5039618110236219
 31
0
  0
LINE
  5
104
330
1A
100
AcDbEntity
  8
BLACK
  6
CONTINUOUS
100
AcDbLine
 10
1.7701259448818898
 20
3.5039618110236219
 30
0
 11
1.7656946456692912
 21
3.5175999212598423
 31
0
  0
LINE
  5
105
330
1A
100
AcDbEntity
  8
BLACK
  6
CONTINUOUS
100
AcDbLine
 10
1.7656946456692912
 20
3.5175999212598423
 30
0
 11
1.7598620866141732
 21
3.5307000787401575
 31
0
  0
LINE
  5
106
330
1A
100
AcDbEntity
  8
BLACK
  6
CONTINUOUS
100
AcDbLine
 10
1.7598620866141732
 20
3.5307000787401575
 30
0
 11
1.7526921259842518
 21
3.5431188188976379
 31
0
  0
LINE
  5
107
330
1A
100
AcDbEntity
  8
BLACK
  6
CONTINUOUS
100
AcDbLine
 10
1.7526921259842518
 20
3.5431188188976379
 30
0
 11
1.744263307086614
 21
3.5547200787401576
 31
0
  0
LINE
  5
108
330
1A
100
AcDbEntity
  8
BLACK
  6
CONTINUOUS
100
AcDbLine
 10
1.744263307086614
 20
3.5547200787401576
 30
0
 11
1.734668031496063
 21
3.5653766929133859
 31
0
  0
LINE
  5
109
330
1A
100
AcDbEntity
  8
BLACK
  6
CONTINUOUS
100
AcDbLine
 10
1.734668031496063
 20
3.5653766929133859
 30
0
 11
1.7240114173228347
 21
3.5749719685039367
 31
0
  0
LINE
  5
10A
330
1A
100
AcDbEntity
  8
BLACK
  6
CONTINUOUS
100
AcDbLine
 10
1.7240114173228347
 20
3.5749719685039367
 30
0
 11
1.712410157480315
 21
3.5834007874015747
 31
0
  0
LINE
  5
10B
330
1A
100
AcDbEntity
  8
BLACK
  6
CONTINUOUS
100
AcDbLine
 10
1.712410157480315
 20
3.5834007874015747
 30
0
 11
1.6999914173228345
 21
3.5905707480314959
 31
0
  0
LINE
  5
10C
330
1A
100
AcDbEntity
  8
BLACK
  6
CONTINUOUS
100
AcDbLine
 10
1.6999914173228345
 20
3.5905707480314959
 30
0
 11
1.6868912598425196
 21
3.5964033070866139
 31
0
  0
LINE
  5
10D
330
1A
100
AcDbEntity
  8
BLACK
  6
CONTINUOUS
100
AcDbLine
 10
1.6868912598425196
 20
3.5964033070866139
 30
0
 11
1.6732531496062992
 21
3.6008346062992125
 31
0
  0
LINE
  5
10E
330
1A
100
AcDbEntity
  8
BLACK
  6
CONTINUOUS
100
AcDbLine
 10
1.6732531496062992
 20
3.6008346062992125
 30
0
 11
1.6592266141732284
 21
3.6038160236220471
 31
0
  0
LINE
  5
10F
330
1A
100
AcDbEntity
  8
BLACK
  6
CONTINUOUS
100
AcDbLine
 10
1.6592266141732284
 20
3.6038160236220471
 30
0
 11
1.6449652362204723
 21
3.6053149606299213
 31
0
  0
LINE
  5
110
330
1A
100
AcDbEntity
  8
BLACK
  6
CONTINUOUS
100
AcDbLine
 10
1.6449652362204723
 20
3.6053149606299213
 30
0
 11
1.6377952755905512
 21
3.6053149606299213
 31
0
  0
LINE
  5
111
330
1A
100
AcDbEntity
  8
BLACK
  6
CONTINUOUS
100
AcDbLine
 10
1.6377952755905512
 20
3.6053149606299213
 30
0
 11
1.4566929133858268
 21
3.6053149606299213
 31
0
  0
LINE
  5
112
330
1A
100
AcDbEntity
  8
BLACK
  6
CONTINUOUS
100
AcDbLine
 10
1.4566929133858268
 20
3.6053149606299213
 30
0
 11
1.4563162598425197
 21
3.6053898818897636
 31
0
  0
LINE
  5
113
330
1A
100
AcDbEntity
  8
BLACK
  6
CONTINUOUS
100
AcDbLine
 10
1.4563162598425197
 20
3.6053898818897636
 30
0
 11
1.4557835826771652
 21
3.6059225590551178
 31
0
  0
LINE
  5
114
330
1A
100
AcDbEntity
  8
BLACK
  6
CONTINUOUS
100
AcDbLine
 10
1.4557835826771652
 20
3.6059225590551178
 30
0
 11
1.4557086614173227
 21
3.606299212598425
 31
0
  0
LINE
  5
115
330
1A
100
AcDbEntity
  8
BLACK
  6
CONTINUOUS
100
AcDbLine
 10
1.4557086614173227
 20
3.606299212598425
 30
0
 11
1.4557086614173227
 21
4.7037401574803148
 31
0
  0
LINE
  5
116
330
1A
100
AcDbEntity
  8
BLACK
  6
CONTINUOUS
100
AcDbLine
 10
1.4557086614173227
 20
4.7037401574803148
 30
0
 11
-1.4045275590551181
 21
4.7037401574803148
 31
0
  0
CIRCLE
  5
117
330
1A
100
AcDbEntity
  8
BLACK
100
AcDbCircle
 10
-0.2013453543307087
 20
3.6417322834645667
 30
0
 40
0.0068897637795276
  0
CIRCLE
  5
118
330
1A
100
AcDbEntity
  8
BLACK
100
AcDbCircle
 10
-0.1013453543307087
 20
3.6417322834645667
 30
0
 40
0.0068897637795276
  0
CIRCLE
  5
119
330
1A
100
AcDbEntity
  8
BLACK
100
AcDbCircle
 10
-1.1299212598425197
 20
0.7874015748031495
 30
0
 40
0.0068897637795276
  0
CIRCLE
  5
11A
330
1A
100
AcDbEntity
  8
BLACK
100
AcDbCircle
 10
0.5364499212598425
 20
3.2165354330708662
 30
0
 40
0.0068897637795276
  0
CIRCLE
  5
11B
330
1A
100
AcDbEntity
  8
BLACK
100
AcDbCircle
 10
0.3986546456692913
 20
3.2165354330708662
 30
0
 40
0.0068897637795276
  0
CIRCLE
  5
11C
330
1A
100
AcDbEntity
  8
BLACK
100
AcDbCircle
 10
1.0055118110236221
 20
0.2188976377952756
 30
0
 40
0.0068897637795276
  0
CIRCLE
  5
11D
330
1A
100
AcDbEntity
  8
BLACK
100
AcDbCircle
 10
0.5055118110236221
 20
0.2188976377952756
 30
0
 40
0.0068897637795276
  0
CIRCLE
  5
11E
330
1A
100
AcDbEntity
  8
BLACK
100
AcDbCircle
 10
0.8956692913385826
 20
0.3188976377952756
 30
0
 40
0.0068897637795276
  0
CIRCLE
  5
11F
330
1A
100
AcDbEntity
  8
BLACK
100
AcDbCircle
 10
0.8556692913385826
 20
0.3889764173228346
 30
0
 40
0.0068897637795276
  0
CIRCLE
  5
120
330
1A
100
AcDbEntity
  8
BLACK
100
AcDbCircle
 10
0.8156692913385827
 20
0.3188976377952756
 30
0
 40
0.0068897637795276
  0
CIRCLE
  5
121
330
1A
100
AcDbEntity
  8
BLACK
100
AcDbCircle
 10
0.7756692913385826
 20
0.3889764173228346
 30
0
 40
0.0068897637795276
  0
CIRCLE
  5
122
330
1A
100
AcDbEntity
  8
BLACK
100
AcDbCircle
 10
0.7356692913385826
 20
0.3188976377952756
 30
0
 40
0.0068897637795276
  0
CIRCLE
  5
123
330
1A
100
AcDbEntity
  8
BLACK
100
AcDbCircle
 10
0.6956692913385827
 20
0.3889764173228346
 30
0
 40
0.0068897637795276
  0
CIRCLE
  5
124
330
1A
100
AcDbEntity
  8
BLACK
100
AcDbCircle
 10
0.6556692913385826
 20
0.3188976377952756
 30
0
 40
0.0068897637795276
  0
CIRCLE
  5
125
330
1A
100
AcDbEntity
  8
BLACK
100
AcDbCircle
 10
0.6156693307086614
 20
0.3889763779527559
 30
0
 40
0.0068897637795276
  0
CIRCLE
  5
126
330
1A
100
AcDbEntity
  8
BLACK
100
AcDbCircle
 10
1.0255905511811023
 20
0.5787401574803149
 30
0
 40
0.0068897637795276
  0
CIRCLE
  5
127
330
1A
100
AcDbEntity
  8
BLACK
100
AcDbCircle
 10
0.9354330708661417
 20
0.5787401574803149
 30
0
 40
0.0068897637795276
  0
CIRCLE
  5
128
330
1A
100
AcDbEntity
  8
BLACK
100
AcDbCircle
 10
0.5755905511811024
 20
0.5787401574803149
 30
0
 40
0.0068897637795276
  0
CIRCLE
  5
129
330
1A
100
AcDbEntity
  8
BLACK
100
AcDbCircle
 10
0.4854330708661417
 20
0.5787401574803149
 30
0
 40
0.0068897637795276
  0
CIRCLE
  5
12A
330
1A
100
AcDbEntity
  8
BLACK
100
AcDbCircle
 10
1.0755905511811024
 20
0.3539370078740157
 30
0
 40
0.0068897637795276
  0
CIRCLE
  5
12B
330
1A
100
AcDbEntity
  8
BLACK
100
AcDbCircle
 10
0.4354330708661417
 20
0.3539370078740157
 30
0
 40
0.0068897637795276
  0
CIRCLE
  5
12C
330
1A
100
AcDbEntity
  8
BLACK
100
AcDbCircle
 10
-0.2013453543307087
 20
3.9448818897637796
 30
0
 40
0.0068897637795276
  0
CIRCLE
  5
12D
330
1A
100
AcDbEntity
  8
BLACK
100
AcDbCircle
 10
-0.1013453543307087
 20
3.9448818897637796
 30
0
 40
0.0068897637795276
  0
CIRCLE
  5
12E
330
1A
100
AcDbEntity
  8
BLACK
100
AcDbCircle
 10
-1.3218503937007873
 20
4.466929133858268
 30
0
 40
0.0068897637795276
  0
CIRCLE
  5
12F
330
1A
100
AcDbEntity
  8
BLACK
100
AcDbCircle
 10
-1.2218503937007874
 20
4.466929133858268
 30
0
 40
0.0068897637795276
  0
CIRCLE
  5
130
330
1A
100
AcDbEntity
  8
BLACK
100
AcDbCircle
 10
-1.3218503937007873
 20
4.3669291338582674
 30
0
 40
0.0068897637795276
  0
CIRCLE
  5
131
330
1A
100
AcDbEntity
  8
BLACK
100
AcDbCircle
 10
-1.2218503937007874
 20
4.3669291338582674
 30
0
 40
0.0068897637795276
  0
CIRCLE
  5
132
330
1A
100
AcDbEntity
  8
BLACK
100
AcDbCircle
 10
-1.3218503937007873
 20
4.2669291338582678
 30
0
 40
0.0068897637795276
  0
CIRCLE
  5
133
330
1A
100
AcDbEntity
  8
BLACK
100
AcDbCircle
 10
-1.2218503937007874
 20
4.2669291338582678
 30
0
 40
0.0068897637795276
  0
CIRCLE
  5
134
330
1A
100
AcDbEntity
  8
BLACK
100
AcDbCircle
 10
-1.3218503937007873
 20
4.1669291338582672
 30
0
 40
0.0068897637795276
  0
CIRCLE
  5
135
330
1A
100
AcDbEntity
  8
BLACK
100
AcDbCircle
 10
-1.2218503937007874
 20
4.1669291338582672
 30
0
 40
0.0068897637795276
  0
CIRCLE
  5
136
330
1A
100
AcDbEntity
  8
BLACK
100
AcDbCircle
 10
-1.3218503937007873
 20
4.0669291338582676
 30
0
 40
0.0068897637795276
  0
CIRCLE
  5
137
330
1A
100
AcDbEntity
  8
BLACK
100
AcDbCircle
 10
-1.2218503937007874
 20
4.0669291338582676
 30
0
 40
0.0068897637795276
  0
CIRCLE
  5
138
330
1A
100
AcDbEntity
  8
BLACK
100
AcDbCircle
 10
-1.3218503937007873
 20
3.9669291338582675
 30
0
 40
0.0068897637795276
  0
CIRCLE
  5
139
330
1A
100
AcDbEntity
  8
BLACK
100
AcDbCircle
 10
-1.2218503937007874
 20
3.9669291338582675
 30
0
 40
0.0068897637795276
  0
CIRCLE
  5
13A
330
1A
100
AcDbEntity
  8
BLACK
100
AcDbCircle
 10
-1.3218503937007873
 20
3.8669291338582674
 30
0
 40
0.0068897637795276
  0
CIRCLE
  5
13B
330
1A
100
AcDbEntity
  8
BLACK
100
AcDbCircle
 10
-1.2218503937007874
 20
3.8669291338582674
 30
0
 40
0.0068897637795276
  0
CIRCLE
  5
13C
330
1A
100
AcDbEntity
  8
BLACK
100
AcDbCircle
 10
-1.3218503937007873
 20
3.7669291338582678
 30
0
 40
0.0068897637795276
  0
CIRCLE
  5
13D
330
1A
100
AcDbEntity
  8
BLACK
100
AcDbCircle
 10
-1.2218503937007874
 20
3.7669291338582678
 30
0
 40
0.0068897637795276
  0
CIRCLE
  5
13E
330
1A
100
AcDbEntity
  8
BLACK
100
AcDbCircle
 10
-1.3218503937007873
 20
3.6669291338582677
 30
0
 40
0.0068897637795276
  0
CIRCLE
  5
13F
330
1A
100
AcDbEntity
  8
BLACK
100
AcDbCircle
 10
-1.2218503937007874
 20
3.6669291338582677
 30
0
 40
0.0068897637795276
  0
CIRCLE
  5
140
330
1A
100
AcDbEntity
  8
BLACK
100
AcDbCircle
 10
-1.3218503937007873
 20
3.5669291338582676
 30
0
 40
0.0068897637795276
  0
CIRCLE
  5
141
330
1A
100
AcDbEntity
  8
BLACK
100
AcDbCircle
 10
-1.2218503937007874
 20
3.5669291338582676
 30
0
 40
0.0068897637795276
  0
CIRCLE
  5
142
330
1A
100
AcDbEntity
  8
BLACK
100
AcDbCircle
 10
-1.3218503937007873
 20
3.4669291338582675
 30
0
 40
0.0068897637795276
  0
CIRCLE
  5
143
330
1A
100
AcDbEntity
  8
BLACK
100
AcDbCircle
 10
-1.2218503937007874
 20
3.4669291338582675
 30
0
 40
0.0068897637795276
  0
CIRCLE
  5
144
330
1A
100
AcDbEntity
  8
BLACK
100
AcDbCircle
 10
-1.3218503937007873
 20
3.3669291338582674
 30
0
 40
0.0068897637795276
  0
CIRCLE
  5
145
330
1A
100
AcDbEntity
  8
BLACK
100
AcDbCircle
 10
-1.2218503937007874
 20
3.3669291338582674
 30
0
 40
0.0068897637795276
  0
CIRCLE
  5
146
330
1A
100
AcDbEntity
  8
BLACK
100
AcDbCircle
 10
-1.3218503937007873
 20
3.2669291338582678
 30
0
 40
0.0068897637795276
  0
CIRCLE
  5
147
330
1A
100
AcDbEntity
  8
BLACK
100
AcDbCircle
 10
-1.2218503937007874
 20
3.2669291338582678
 30
0
 40
0.0068897637795276
  0
CIRCLE
  5
148
330
1A
100
AcDbEntity
  8
BLACK
100
AcDbCircle
 10
-1.3218503937007873
 20
3.1669291338582677
 30
0
 40
0.0068897637795276
  0
CIRCLE
  5
149
330
1A
100
AcDbEntity
  8
BLACK
100
AcDbCircle
 10
-1.2218503937007874
 20
3.1669291338582677
 30
0
 40
0.0068897637795276
  0
CIRCLE
  5
14A
330
1A
100
AcDbEntity
  8
BLACK
100
AcDbCircle
 10
-1.3218503937007873
 20
3.0669291338582676
 30
0
 40
0.0068897637795276
  0
CIRCLE
  5
14B
330
1A
100
AcDbEntity
  8
BLACK
100
AcDbCircle
 10
-1.2218503937007874
 20
3.0669291338582676
 30
0
 40
0.0068897637795276
  0
CIRCLE
  5
14C
330
1A
100
AcDbEntity
  8
BLACK
100
AcDbCircle
 10
-1.3218503937007873
 20
2.9669291338582675
 30
0
 40
0.0068897637795276
  0
CIRCLE
  5
14D
330
1A
100
AcDbEntity
  8
BLACK
100
AcDbCircle
 10
-1.2218503937007874
 20
2.9669291338582675
 30
0
 40
0.0068897637795276
  0
CIRCLE
  5
14E
330
1A
100
AcDbEntity
  8
BLACK
100
AcDbCircle
 10
-1.3218503937007873
 20
2.8669291338582679
 30
0
 40
0.0068897637795276
  0
CIRCLE
  5
14F
330
1A
100
AcDbEntity
  8
BLACK
100
AcDbCircle
 10
-1.2218503937007874
 20
2.8669291338582679
 30
0
 40
0.0068897637795276
  0
CIRCLE
  5
150
330
1A
100
AcDbEntity
  8
BLACK
100
AcDbCircle
 10
-1.3218503937007873
 20
2.7669291338582678
 30
0
 40
0.0068897637795276
  0
CIRCLE
  5
151
330
1A
100
AcDbEntity
  8
BLACK
100
AcDbCircle
 10
-1.2218503937007874
 20
2.7669291338582678
 30
0
 40
0.0068897637795276
  0
CIRCLE
  5
152
330
1A
100
AcDbEntity
  8
BLACK
100
AcDbCircle
 10
-1.3218503937007873
 20
2.6669291338582677
 30
0
 40
0.0068897637795276
  0
CIRCLE
  5
153
330
1A
100
AcDbEntity
  8
BLACK
100
AcDbCircle
 10
-1.2218503937007874
 20
2.6669291338582677
 30
0
 40
0.0068897637795276
  0
CIRCLE
  5
154
330
1A
100
AcDbEntity
  8
BLACK
100
AcDbCircle
 10
-1.3218503937007873
 20
2.5669291338582676
 30
0
 40
0.0068897637795276
  0
CIRCLE
  5
155
330
1A
100
AcDbEntity
  8
BLACK
100
AcDbCircle
 10
-1.2218503937007874
 20
2.5669291338582676
 30
0
 40
0.0068897637795276
  0
CIRCLE
  5
156
330
1A
100
AcDbEntity
  8
BLACK
100
AcDbCircle
 10
-0.2013453543307087
 20
3.8425196850393699
 30
0
 40
0.0068897637795276
  0
CIRCLE
  5
157
330
1A
100
AcDbEntity
  8
BLACK
100
AcDbCircle
 10
-0.1013453543307087
 20
3.8425196850393699
 30
0
 40
0.0068897637795276
  0
CIRCLE
  5
158
330
1A
100
AcDbEntity
  8
BLACK
100
AcDbCircle
 10
-0.2013453543307087
 20
3.5433070866141732
 30
0
 40
0.0068897637795276
  0
CIRCLE
  5
159
330
1A
100
AcDbEntity
  8
BLACK
100
AcDbCircle
 10
-0.1013453543307087
 20
3.5433070866141732
 30
0
 40
0.0068897637795276
  0
CIRCLE
  5
15A
330
1A
100
AcDbEntity
  8
BLACK
100
AcDbCircle
 10
0.7125984251968503
 20
1.7637795275590551
 30
0
 40
0.0068897637795276
  0
CIRCLE
  5
15B
330
1A
100
AcDbEntity
  8
BLACK
100
AcDbCircle
 10
0.7125984251968503
 20
1.8637796062992125
 30
0
 40
0.0068897637795276
  0
CIRCLE
  5
15C
330
1A
100
AcDbEntity
  8
BLACK
100
AcDbCircle
 10
0.84251968503937
 20
1.7637795275590551
 30
0
 40
0.0068897637795276
  0
CIRCLE
  5
15D
330
1A
100
AcDbEntity
  8
BLACK
100
AcDbCircle
 10
0.84251968503937
 20
1.8637795275590552
 30
0
 40
0.0068897637795276
  0
CIRCLE
  5
15E
330
1A
100
AcDbEntity
  8
BLACK
100
AcDbCircle
 10
0.84251968503937
 20
1.9637794881889763
 30
0
 40
0.0068897637795276
  0
CIRCLE
  5
15F
330
1A
100
AcDbEntity
  8
BLACK
100
AcDbCircle
 10
-1.6112204724409449
 20
0.5039370078740157
 30
0
 40
0.0068897637795276
  0
CIRCLE
  5
160
330
1A
100
AcDbEntity
  8
BLACK
100
AcDbCircle
 10
1.6348425196850394
 20
3.4704724409448819
 30
0
 40
0.0068897637795276
  0
CIRCLE
  5
161
330
1A
100
AcDbEntity
  8
BLACK
100
AcDbCircle
 10
1.6348425196850394
 20
0.7106299212598425
 30
0
 40
0.0068897637795276
  0
CIRCLE
  5
162
330
1A
100
AcDbEntity
  8
BLACK
100
AcDbCircle
 10
-0.4808729133858268
 20
3.9433070866141731
 30
0
 40
0.0068897637795276
  0
CIRCLE
  5
163
330
1A
100
AcDbEntity
  8
BLACK
100
AcDbCircle
 10
-0.3808729133858267
 20
3.9433070866141731
 30
0
 40
0.0068897637795276
  0
CIRCLE
  5
164
330
1A
100
AcDbEntity
  8
BLACK
100
AcDbCircle
 10
-0.4808729133858268
 20
3.843307086614173
 30
0
 40
0.0068897637795276
  0
CIRCLE
  5
165
330
1A
100
AcDbEntity
  8
BLACK
100
AcDbCircle
 10
-0.3808729133858267
 20
3.843307086614173
 30
0
 40
0.0068897637795276
  0
CIRCLE
  5
166
330
1A
100
AcDbEntity
  8
BLACK
100
AcDbCircle
 10
-0.4808729133858268
 20
3.7433070866141733
 30
0
 40
0.0068897637795276
  0
CIRCLE
  5
167
330
1A
100
AcDbEntity
  8
BLACK
100
AcDbCircle
 10
-0.3808729133858267
 20
3.7433070866141733
 30
0
 40
0.0068897637795276
  0
CIRCLE
  5
168
330
1A
100
AcDbEntity
  8
BLACK
100
AcDbCircle
 10
-0.4808729133858268
 20
3.6433070866141732
 30
0
 40
0.0068897637795276
  0
CIRCLE
  5
169
330
1A
100
AcDbEntity
  8
BLACK
100
AcDbCircle
 10
-0.3808729133858267
 20
3.6433070866141732
 30
0
 40
0.0068897637795276
  0
CIRCLE
  5
16A
330
1A
100
AcDbEntity
  8
BLACK
100
AcDbCircle
 10
-0.4808729133858268
 20
3.5433070866141732
 30
0
 40
0.0068897637795276
  0
CIRCLE
  5
16B
330
1A
100
AcDbEntity
  8
BLACK
100
AcDbCircle
 10
-0.3808729133858267
 20
3.5433070866141732
 30
0
 40
0.0068897637795276
  0
CIRCLE
  5
16C
330
1A
100
AcDbEntity
  8
BLACK
100
AcDbCircle
 10
0.937007874015748
 20
4.6023622047244093
 30
0
 40
0.0068897637795276
  0
CIRCLE
  5
16D
330
1A
100
AcDbEntity
  8
BLACK
100
AcDbCircle
 10
0.937007874015748
 20
4.5023622047244096
 30
0
 40
0.0068897637795276
  0
CIRCLE
  5
16E
330
1A
100
AcDbEntity
  8
BLACK
100
AcDbCircle
 10
0.8370078740157481
 20
4.6023622047244093
 30
0
 40
0.0068897637795276
  0
CIRCLE
  5
16F
330
1A
100
AcDbEntity
  8
BLACK
100
AcDbCircle
 10
0.8370078740157481
 20
4.5023622047244096
 30
0
 40
0.0068897637795276
  0
CIRCLE
  5
170
330
1A
100
AcDbEntity
  8
BLACK
100
AcDbCircle
 10
0.7370079133858267
 20
4.6023622047244093
 30
0
 40
0.0068897637795276
  0
CIRCLE
  5
171
330
1A
100
AcDbEntity
  8
BLACK
100
AcDbCircle
 10
0.737007874015748
 20
4.5023622047244096
 30
0
 40
0.0068897637795276
  0
CIRCLE
  5
172
330
1A
100
AcDbEntity
  8
BLACK
100
AcDbCircle
 10
0.637007874015748
 20
4.6023622047244093
 30
0
 40
0.0068897637795276
  0
CIRCLE
  5
173
330
1A
100
AcDbEntity
  8
BLACK
100
AcDbCircle
 10
0.637007874015748
 20
4.5023622047244096
 30
0
 40
0.0068897637795276
  0
CIRCLE
  5
174
330
1A
100
AcDbEntity
  8
BLACK
100
AcDbCircle
 10
0.537007874015748
 20
4.6023622047244093
 30
0
 40
0.0068897637795276
  0
CIRCLE
  5
175
330
1A
100
AcDbEntity
  8
BLACK
100
AcDbCircle
 10
0.537007874015748
 20
4.5023622047244096
 30
0
 40
0.0068897637795276
  0
CIRCLE
  5
176
330
1A
100
AcDbEntity
  8
BLACK
100
AcDbCircle
 10
-1.1299212598425197
 20
0.9409448818897638
 30
0
 40
0.0068897637795276
  0
CIRCLE
  5
177
330
1A
100
AcDbEntity
  8
BLACK
100
AcDbCircle
 10
-0.7172244094488189
 20
0.5354330708661417
 30
0
 40
0.0068897637795276
  0
CIRCLE
  5
178
330
1A
100
AcDbEntity
  8
BLACK
100
AcDbCircle
 10
-0.7172244094488189
 20
0.735433031496063
 30
0
 40
0.0068897637795276
  0
CIRCLE
  5
179
330
1A
100
AcDbEntity
  8
BLACK
100
AcDbCircle
 10
0.0827755905511811
 20
0.2354330708661417
 30
0
 40
0.0068897637795276
  0
CIRCLE
  5
17A
330
1A
100
AcDbEntity
  8
BLACK
100
AcDbCircle
 10
0.0827755905511811
 20
0.6354330708661418
 30
0
 40
0.0068897637795276
  0
CIRCLE
  5
17B
330
1A
100
AcDbEntity
  8
BLACK
100
AcDbCircle
 10
0.0827755905511811
 20
1.0354330708661417
 30
0
 40
0.0068897637795276
  0
CIRCLE
  5
17C
330
1A
100
AcDbEntity
  8
BLACK
100
AcDbCircle
 10
-0.7172244094488189
 20
1.0354330708661417
 30
0
 40
0.0068897637795276
  0
CIRCLE
  5
17D
330
1A
100
AcDbEntity
  8
BLACK
100
AcDbCircle
 10
-0.7125984251968503
 20
4.5078740157480315
 30
0
 40
0.0068897637795276
  0
ARC
  5
17E
330
1A
100
AcDbEntity
  8
BLACK
100
AcDbCircle
 10
-1.1085629921259843
 20
0.5433070866141733
 30
0
 40
0.0688976377952756
100
AcDbArc
 50
-90.00000000
 51
90.00000000
  0
ARC
  5
17F
330
1A
100
AcDbEntity
  8
BLACK
100
AcDbCircle
 10
-1.1085629921259843
 20
0.5433070866141733
 30
0
 40
0.0688976377952756
100
AcDbArc
 50
90.00000000
 51
270.00000000
  0
LINE
  5
180
330
1A
100
AcDbEntity
  8
BLACK
  6
CONTINUOUS
100
AcDbLine
 10
-1.1184055118110237
 20
0.2480314960629921
 30
0
 11
-1.098720472440945
 21
0.2480314960629921
 31
0
  0
ARC
  5
181
330
1A
100
AcDbEntity
  8
BLACK
100
AcDbCircle
 10
-1.098720472440945
 20
0.3070866141732284
 30
0
 40
0.0590551181102362
100
AcDbArc
 50
-90.00000000
 51
90.00000000
  0
LINE
  5
182
330
1A
100
AcDbEntity
  8
BLACK
  6
CONTINUOUS
100
AcDbLine
 10
-1.098720472440945
 20
0.3661417322834646
 30
0
 11
-1.1184055118110237
 21
0.3661417322834646
 31
0
  0
ARC
  5
183
330
1A
100
AcDbEntity
  8
BLACK
100
AcDbCircle
 10
-1.1184055118110237
 20
0.3070866141732284
 30
0
 40
0.0590551181102362
100
AcDbArc
 50
90.00000000
 51
270.00000000
  0
ARC
  5
184
330
1A
100
AcDbEntity
  8
BLACK
100
AcDbCircle
 10
-1.2936023622047244
 20
0.4251968503937008
 30
0
 40
0.0688976377952756
100
AcDbArc
 50
-90.00000000
 51
90.00000000
  0
ARC
  5
185
330
1A
100
AcDbEntity
  8
BLACK
100
AcDbCircle
 10
-1.2936023622047244
 20
0.4251968503937008
 30
0
 40
0.0688976377952756
100
AcDbArc
 50
90.00000000
 51
270.00000000
  0
CIRCLE
  5
186
330
1A
100
AcDbEntity
  8
BLACK
100
AcDbCircle
 10
-0.2013453543307087
 20
3.6417322834645667
 30
0
 40
0.0068897637795276
  0
CIRCLE
  5
187
330
1A
100
AcDbEntity
  8
BLACK
100
AcDbCircle
 10
-0.1013453543307087
 20
3.6417322834645667
 30
0
 40
0.0068897637795276
  0
CIRCLE
  5
188
330
1A
100
AcDbEntity
  8
BLACK
100
AcDbCircle
 10
-1.1299212598425197
 20
0.7874015748031495
 30
0
 40
0.0068897637795276
  0
CIRCLE
  5
189
330
1A
100
AcDbEntity
  8
BLACK
100
AcDbCircle
 10
0.5364499212598425
 20
3.2165354330708662
 30
0
 40
0.0068897637795276
  0
CIRCLE
  5
18A
330
1A
100
AcDbEntity
  8
BLACK
100
AcDbCircle
 10
0.3986546456692913
 20
3.2165354330708662
 30
0
 40
0.0068897637795276
  0
CIRCLE
  5
18B
330
1A
100
AcDbEntity
  8
BLACK
100
AcDbCircle
 10
1.0055118110236221
 20
0.2188976377952756
 30
0
 40
0.0068897637795276
  0
CIRCLE
  5
18C
330
1A
100
AcDbEntity
  8
BLACK
100
AcDbCircle
 10
0.5055118110236221
 20
0.2188976377952756
 30
0
 40
0.0068897637795276
  0
CIRCLE
  5
18D
330
1A
100
AcDbEntity
  8
BLACK
100
AcDbCircle
 10
0.8956692913385826
 20
0.3188976377952756
 30
0
 40
0.0068897637795276
  0
CIRCLE
  5
18E
330
1A
100
AcDbEntity
  8
BLACK
100
AcDbCircle
 10
0.8556692913385826
 20
0.3889764173228346
 30
0
 40
0.0068897637795276
  0
CIRCLE
  5
18F
330
1A
100
AcDbEntity
  8
BLACK
100
AcDbCircle
 10
0.8156692913385827
 20
0.3188976377952756
 30
0
 40
0.0068897637795276
  0
CIRCLE
  5
190
330
1A
100
AcDbEntity
  8
BLACK
100
AcDbCircle
 10
0.7756692913385826
 20
0.3889764173228346
 30
0
 40
0.0068897637795276
  0
CIRCLE
  5
191
330
1A
100
AcDbEntity
  8
BLACK
100
AcDbCircle
 10
0.7356692913385826
 20
0.3188976377952756
 30
0
 40
0.0068897637795276
  0
CIRCLE
  5
192
330
1A
100
AcDbEntity
  8
BLACK
100
AcDbCircle
 10
0.6956692913385827
 20
0.3889764173228346
 30
0
 40
0.0068897637795276
  0
CIRCLE
  5
193
330
1A
100
AcDbEntity
  8
BLACK
100
AcDbCircle
 10
0.6556692913385826
 20
0.3188976377952756
 30
0
 40
0.0068897637795276
  0
CIRCLE
  5
194
330
1A
100
AcDbEntity
  8
BLACK
100
AcDbCircle
 10
0.6156693307086614
 20
0.3889763779527559
 30
0
 40
0.0068897637795276
  0
CIRCLE
  5
195
330
1A
100
AcDbEntity
  8
BLACK
100
AcDbCircle
 10
1.0255905511811023
 20
0.5787401574803149
 30
0
 40
0.0068897637795276
  0
CIRCLE
  5
196
330
1A
100
AcDbEntity
  8
BLACK
100
AcDbCircle
 10
0.9354330708661417
 20
0.5787401574803149
 30
0
 40
0.0068897637795276
  0
CIRCLE
  5
197
330
1A
100
AcDbEntity
  8
BLACK
100
AcDbCircle
 10
0.5755905511811024
 20
0.5787401574803149
 30
0
 40
0.0068897637795276
  0
CIRCLE
  5
198
330
1A
100
AcDbEntity
  8
BLACK
100
AcDbCircle
 10
0.4854330708661417
 20
0.5787401574803149
 30
0
 40
0.0068897637795276
  0
CIRCLE
  5
199
330
1A
100
AcDbEntity
  8
BLACK
100
AcDbCircle
 10
1.0755905511811024
 20
0.3539370078740157
 30
0
 40
0.0068897637795276
  0
CIRCLE
  5
19A
330
1A
100
AcDbEntity
  8
BLACK
100
AcDbCircle
 10
0.4354330708661417
 20
0.3539370078740157
 30
0
 40
0.0068897637795276
  0
CIRCLE
  5
19B
330
1A
100
AcDbEntity
  8
BLACK
100
AcDbCircle
 10
-0.2013453543307087
 20
3.9448818897637796
 30
0
 40
0.0068897637795276
  0
CIRCLE
  5
19C
330
1A
100
AcDbEntity
  8
BLACK
100
AcDbCircle
 10
-0.1013453543307087
 20
3.9448818897637796
 30
0
 40
0.0068897637795276
  0
CIRCLE
  5
19D
330
1A
100
AcDbEntity
  8
BLACK
100
AcDbCircle
 10
-1.3218503937007873
 20
4.466929133858268
 30
0
 40
0.0068897637795276
  0
CIRCLE
  5
19E
330
1A
100
AcDbEntity
  8
BLACK
100
AcDbCircle
 10
-1.2218503937007874
 20
4.466929133858268
 30
0
 40
0.0068897637795276
  0
CIRCLE
  5
19F
330
1A
100
AcDbEntity
  8
BLACK
100
AcDbCircle
 10
-1.3218503937007873
 20
4.3669291338582674
 30
0
 40
0.0068897637795276
  0
CIRCLE
  5
1A0
330
1A
100
AcDbEntity
  8
BLACK
100
AcDbCircle
 10
-1.2218503937007874
 20
4.3669291338582674
 30
0
 40
0.0068897637795276
  0
CIRCLE
  5
1A1
330
1A
100
AcDbEntity
  8
BLACK
100
AcDbCircle
 10
-1.3218503937007873
 20
4.2669291338582678
 30
0
 40
0.0068897637795276
  0
CIRCLE
  5
1A2
330
1A
100
AcDbEntity
  8
BLACK
100
AcDbCircle
 10
-1.2218503937007874
 20
4.2669291338582678
 30
0
 40
0.0068897637795276
  0
CIRCLE
  5
1A3
330
1A
100
AcDbEntity
  8
BLACK
100
AcDbCircle
 10
-1.3218503937007873
 20
4.1669291338582672
 30
0
 40
0.0068897637795276
  0
CIRCLE
  5
1A4
330
1A
100
AcDbEntity
  8
BLACK
100
AcDbCircle
 10
-1.2218503937007874
 20
4.1669291338582672
 30
0
 40
0.0068897637795276
  0
CIRCLE
  5
1A5
330
1A
100
AcDbEntity
  8
BLACK
100
AcDbCircle
 10
-1.3218503937007873
 20
4.0669291338582676
 30
0
 40
0.0068897637795276
  0
CIRCLE
  5
1A6
330
1A
100
AcDbEntity
  8
BLACK
100
AcDbCircle
 10
-1.2218503937007874
 20
4.0669291338582676
 30
0
 40
0.0068897637795276
  0
CIRCLE
  5
1A7
330
1A
100
AcDbEntity
  8
BLACK
100
AcDbCircle
 10
-1.3218503937007873
 20
3.9669291338582675
 30
0
 40
0.0068897637795276
  0
CIRCLE
  5
1A8
330
1A
100
AcDbEntity
  8
BLACK
100
AcDbCircle
 10
-1.2218503937007874
 20
3.9669291338582675
 30
0
 40
0.0068897637795276
  0
CIRCLE
  5
1A9
330
1A
100
AcDbEntity
  8
BLACK
100
AcDbCircle
 10
-1.3218503937007873
 20
3.8669291338582674
 30
0
 40
0.0068897637795276
  0
CIRCLE
  5
1AA
330
1A
100
AcDbEntity
  8
BLACK
100
AcDbCircle
 10
-1.2218503937007874
 20
3.8669291338582674
 30
0
 40
0.0068897637795276
  0
CIRCLE
  5
1AB
330
1A
100
AcDbEntity
  8
BLACK
100
AcDbCircle
 10
-1.3218503937007873
 20
3.7669291338582678
 30
0
 40
0.0068897637795276
  0
CIRCLE
  5
1AC
330
1A
100
AcDbEntity
  8
BLACK
100
AcDbCircle
 10
-1.2218503937007874
 20
3.7669291338582678
 30
0
 40
0.0068897637795276
  0
CIRCLE
  5
1AD
330
1A
100
AcDbEntity
  8
BLACK
100
AcDbCircle
 10
-1.3218503937007873
 20
3.6669291338582677
 30
0
 40
0.0068897637795276
  0
CIRCLE
  5
1AE
330
1A
100
AcDbEntity
  8
BLACK
100
AcDbCircle
 10
-1.2218503937007874
 20
3.6669291338582677
 30
0
 40
0.0068897637795276
  0
CIRCLE
  5
1AF
330
1A
100
AcDbEntity
  8
BLACK
100
AcDbCircle
 10
-1.3218503937007873
 20
3.5669291338582676
 30
0
 40
0.0068897637795276
  0
CIRCLE
  5
1B0
330
1A
100
AcDbEntity
  8
BLACK
100
AcDbCircle
 10
-1.2218503937007874
 20
3.5669291338582676
 30
0
 40
0.0068897637795276
  0
CIRCLE
  5
1B1
330
1A
100
AcDbEntity
  8
BLACK
100
AcDbCircle
 10
-1.3218503937007873
 20
3.4669291338582675
 30
0
 40
0.0068897637795276
  0
CIRCLE
  5
1B2
330
1A
100
AcDbEntity
  8
BLACK
100
AcDbCircle
 10
-1.2218503937007874
 20
3.4669291338582675
 30
0
 40
0.0068897637795276
  0
CIRCLE
  5
1B3
330
1A
100
AcDbEntity
  8
BLACK
100
AcDbCircle
 10
-1.3218503937007873
 20
3.3669291338582674
 30
0
 40
0.0068897637795276
  0
CIRCLE
  5
1B4
330
1A
100
AcDbEntity
  8
BLACK
100
AcDbCircle
 10
-1.2218503937007874
 20
3.3669291338582674
 30
0
 40
0.0068897637795276
  0
CIRCLE
  5
1B5
330
1A
100
AcDbEntity
  8
BLACK
100
AcDbCircle
 10
-1.3218503937007873
 20
3.2669291338582678
 30
0
 40
0.0068897637795276
  0
CIRCLE
  5
1B6
330
1A
100
AcDbEntity
  8
BLACK
100
AcDbCircle
 10
-1.2218503937007874
 20
3.2669291338582678
 30
0
 40
0.0068897637795276
  0
CIRCLE
  5
1B7
330
1A
100
AcDbEntity
  8
BLACK
100
AcDbCircle
 10
-1.3218503937007873
 20
3.1669291338582677
 30
0
 40
0.0068897637795276
  0
CIRCLE
  5
1B8
330
1A
100
AcDbEntity
  8
BLACK
100
AcDbCircle
 10
-1.2218503937007874
 20
3.1669291338582677
 30
0
 40
0.0068897637795276
  0
CIRCLE
  5
1B9
330
1A
100
AcDbEntity
  8
BLACK
100
AcDbCircle
 10
-1.3218503937007873
 20
3.0669291338582676
 30
0
 40
0.0068897637795276
  0
CIRCLE
  5
1BA
330
1A
100
AcDbEntity
  8
BLACK
100
AcDbCircle
 10
-1.2218503937007874
 20
3.0669291338582676
 30
0
 40
0.0068897637795276
  0
CIRCLE
  5
1BB
330
1A
100
AcDbEntity
  8
BLACK
100
AcDbCircle
 10
-1.3218503937007873
 20
2.9669291338582675
 30
0
 40
0.0068897637795276
  0
CIRCLE
  5
1BC
330
1A
100
AcDbEntity
  8
BLACK
100
AcDbCircle
 10
-1.2218503937007874
 20
2.9669291338582675
 30
0
 40
0.0068897637795276
  0
CIRCLE
  5
1BD
330
1A
100
AcDbEntity
  8
BLACK
100
AcDbCircle
 10
-1.3218503937007873
 20
2.8669291338582679
 30
0
 40
0.0068897637795276
  0
CIRCLE
  5
1BE
330
1A
100
AcDbEntity
  8
BLACK
100
AcDbCircle
 10
-1.2218503937007874
 20
2.8669291338582679
 30
0
 40
0.0068897637795276
  0
CIRCLE
  5
1BF
330
1A
100
AcDbEntity
  8
BLACK
100
AcDbCircle
 10
-1.3218503937007873
 20
2.7669291338582678
 30
0
 40
0.0068897637795276
  0
CIRCLE
  5
1C0
330
1A
100
AcDbEntity
  8
BLACK
100
AcDbCircle
 10
-1.2218503937007874
 20
2.7669291338582678
 30
0
 40
0.0068897637795276
  0
CIRCLE
  5
1C1
330
1A
100
AcDbEntity
  8
BLACK
100
AcDbCircle
 10
-1.3218503937007873
 20
2.6669291338582677
 30
0
 40
0.0068897637795276
  0
CIRCLE
  5
1C2
330
1A
100
AcDbEntity
  8
BLACK
100
AcDbCircle
 10
-1.2218503937007874
 20
2.6669291338582677
 30
0
 40
0.0068897637795276
  0
CIRCLE
  5
1C3
330
1A
100
AcDbEntity
  8
BLACK
100
AcDbCircle
 10
-1.3218503937007873
 20
2.5669291338582676
 30
0
 40
0.0068897637795276
  0
CIRCLE
  5
1C4
330
1A
100
AcDbEntity
  8
BLACK
100
AcDbCircle
 10
-1.2218503937007874
 20
2.5669291338582676
 30
0
 40
0.0068897637795276
  0
CIRCLE
  5
1C5
330
1A
100
AcDbEntity
  8
BLACK
100
AcDbCircle
 10
-0.2013453543307087
 20
3.8425196850393699
 30
0
 40
0.0068897637795276
  0
CIRCLE
  5
1C6
330
1A
100
AcDbEntity
  8
BLACK
100
AcDbCircle
 10
-0.1013453543307087
 20
3.8425196850393699
 30
0
 40
0.0068897637795276
  0
CIRCLE
  5
1C7
330
1A
100
AcDbEntity
  8
BLACK
100
AcDbCircle
 10
-0.2013453543307087
 20
3.5433070866141732
 30
0
 40
0.0068897637795276
  0
CIRCLE
  5
1C8
330
1A
100
AcDbEntity
  8
BLACK
100
AcDbCircle
 10
-0.1013453543307087
 20
3.5433070866141732
 30
0
 40
0.0068897637795276
  0
CIRCLE
  5
1C9
330
1A
100
AcDbEntity
  8
BLACK
100
AcDbCircle
 10
0.7125984251968503
 20
1.7637795275590551
 30
0
 40
0.0068897637795276
  0
CIRCLE
  5
1CA
330
1A
100
AcDbEntity
  8
BLACK
100
AcDbCircle
 10
0.7125984251968503
 20
1.8637796062992125
 30
0
 40
0.0068897637795276
  0
CIRCLE
  5
1CB
330
1A
100
AcDbEntity
  8
BLACK
100
AcDbCircle
 10
0.84251968503937
 20
1.7637795275590551
 30
0
 40
0.0068897637795276
  0
CIRCLE
  5
1CC
330
1A
100
AcDbEntity
  8
BLACK
100
AcDbCircle
 10
0.84251968503937
 20
1.8637795275590552
 30
0
 40
0.0068897637795276
  0
CIRCLE
  5
1CD
330
1A
100
AcDbEntity
  8
BLACK
100
AcDbCircle
 10
0.84251968503937
 20
1.9637794881889763
 30
0
 40
0.0068897637795276
  0
CIRCLE
  5
1CE
330
1A
100
AcDbEntity
  8
BLACK
100
AcDbCircle
 10
-1.6112204724409449
 20
0.5039370078740157
 30
0
 40
0.0068897637795276
  0
CIRCLE
  5
1CF
330
1A
100
AcDbEntity
  8
BLACK
100
AcDbCircle
 10
1.6348425196850394
 20
3.4704724409448819
 30
0
 40
0.0068897637795276
  0
CIRCLE
  5
1D0
330
1A
100
AcDbEntity
  8
BLACK
100
AcDbCircle
 10
1.6348425196850394
 20
0.7106299212598425
 30
0
 40
0.0068897637795276
  0
CIRCLE
  5
1D1
330
1A
100
AcDbEntity
  8
BLACK
100
AcDbCircle
 10
-0.4808729133858268
 20
3.9433070866141731
 30
0
 40
0.0068897637795276
  0
CIRCLE
  5
1D2
330
1A
100
AcDbEntity
  8
BLACK
100
AcDbCircle
 10
-0.3808729133858267
 20
3.9433070866141731
 30
0
 40
0.0068897637795276
  0
CIRCLE
  5
1D3
330
1A
100
AcDbEntity
  8
BLACK
100
AcDbCircle
 10
-0.4808729133858268
 20
3.843307086614173
 30
0
 40
0.0068897637795276
  0
CIRCLE
  5
1D4
330
1A
100
AcDbEntity
  8
BLACK
100
AcDbCircle
 10
-0.3808729133858267
 20
3.843307086614173
 30
0
 40
0.0068897637795276
  0
CIRCLE
  5
1D5
330
1A
100
AcDbEntity
  8
BLACK
100
AcDbCircle
 10
-0.4808729133858268
 20
3.7433070866141733
 30
0
 40
0.0068897637795276
  0
CIRCLE
  5
1D6
330
1A
100
AcDbEntity
  8
BLACK
100
AcDbCircle
 10
-0.3808729133858267
 20
3.7433070866141733
 30
0
 40
0.0068897637795276
  0
CIRCLE
  5
1D7
330
1A
100
AcDbEntity
  8
BLACK
100
AcDbCircle
 10
-0.4808729133858268
 20
3.6433070866141732
 30
0
 40
0.0068897637795276
  0
CIRCLE
  5
1D8
330
1A
100
AcDbEntity
  8
BLACK
100
AcDbCircle
 10
-0.3808729133858267
 20
3.6433070866141732
 30
0
 40
0.0068897637795276
  0
CIRCLE
  5
1D9
330
1A
100
AcDbEntity
  8
BLACK
100
AcDbCircle
 10
-0.4808729133858268
 20
3.5433070866141732
 30
0
 40
0.0068897637795276
  0
CIRCLE
  5
1DA
330
1A
100
AcDbEntity
  8
BLACK
100
AcDbCircle
 10
-0.3808729133858267
 20
3.5433070866141732
 30
0
 40
0.0068897637795276
  0
CIRCLE
  5
1DB
330
1A
100
AcDbEntity
  8
BLACK
100
AcDbCircle
 10
0.937007874015748
 20
4.6023622047244093
 30
0
 40
0.0068897637795276
  0
CIRCLE
  5
1DC
330
1A
100
AcDbEntity
  8
BLACK
100
AcDbCircle
 10
0.937007874015748
 20
4.5023622047244096
 30
0
 40
0.0068897637795276
  0
CIRCLE
  5
1DD
330
1A
100
AcDbEntity
  8
BLACK
100
AcDbCircle
 10
0.8370078740157481
 20
4.6023622047244093
 30
0
 40
0.0068897637795276
  0
CIRCLE
  5
1DE
330
1A
100
AcDbEntity
  8
BLACK
100
AcDbCircle
 10
0.8370078740157481
 20
4.5023622047244096
 30
0
 40
0.0068897637795276
  0
CIRCLE
  5
1DF
330
1A
100
AcDbEntity
  8
BLACK
100
AcDbCircle
 10
0.7370079133858267
 20
4.6023622047244093
 30
0
 40
0.0068897637795276
  0
CIRCLE
  5
1E0
330
1A
100
AcDbEntity
  8
BLACK
100
AcDbCircle
 10
0.737007874015748
 20
4.5023622047244096
 30
0
 40
0.0068897637795276
  0
CIRCLE
  5
1E1
330
1A
100
AcDbEntity
  8
BLACK
100
AcDbCircle
 10
0.637007874015748
 20
4.6023622047244093
 30
0
 40
0.0068897637795276
  0
CIRCLE
  5
1E2
330
1A
100
AcDbEntity
  8
BLACK
100
AcDbCircle
 10
0.637007874015748
 20
4.5023622047244096
 30
0
 40
0.0068897637795276
  0
CIRCLE
  5
1E3
330
1A
100
AcDbEntity
  8
BLACK
100
AcDbCircle
 10
0.537007874015748
 20
4.6023622047244093
 30
0
 40
0.0068897637795276
  0
CIRCLE
  5
1E4
330
1A
100
AcDbEntity
  8
BLACK
100
AcDbCircle
 10
0.537007874015748
 20
4.5023622047244096
 30
0
 40
0.0068897637795276
  0
CIRCLE
  5
1E5
330
1A
100
AcDbEntity
  8
BLACK
100
AcDbCircle
 10
-1.1299212598425197
 20
0.9409448818897638
 30
0
 40
0.0068897637795276
  0
CIRCLE
  5
1E6
330
1A
100
AcDbEntity
  8
BLACK
100
AcDbCircle
 10
-0.7172244094488189
 20
0.5354330708661417
 30
0
 40
0.0068897637795276
  0
CIRCLE
  5
1E7
330
1A
100
AcDbEntity
  8
BLACK
100
AcDbCircle
 10
-0.7172244094488189
 20
0.735433031496063
 30
0
 40
0.0068897637795276
  0
CIRCLE
  5
1E8
330
1A
100
AcDbEntity
  8
BLACK
100
AcDbCircle
 10
0.0827755905511811
 20
0.2354330708661417
 30
0
 40
0.0068897637795276
  0
CIRCLE
  5
1E9
330
1A
100
AcDbEntity
  8
BLACK
100
AcDbCircle
 10
0.0827755905511811
 20
0.6354330708661418
 30
0
 40
0.0068897637795276
  0
CIRCLE
  5
1EA
330
1A
100
AcDbEntity
  8
BLACK
100
AcDbCircle
 10
0.0827755905511811
 20
1.0354330708661417
 30
0
 40
0.0068897637795276
  0
CIRCLE
  5
1EB
330
1A
100
AcDbEntity
  8
BLACK
100
AcDbCircle
 10
-0.7172244094488189
 20
1.0354330708661417
 30
0
 40
0.0068897637795276
  0
CIRCLE
  5
1EC
330
1A
100
AcDbEntity
  8
BLACK
100
AcDbCircle
 10
-0.7125984251968503
 20
4.5078740157480315
 30
0
 40
0.0068897637795276
  0
LINE
  5
1ED
330
1A
100
AcDbEntity
  8
BLACK
  6
CONTINUOUS
100
AcDbLine
 10
-1.1479330708661417
 20
0.5236220472440944
 30
0
 11
-1.0691929133858267
 21
0.5236220472440944
 31
0
  0
ARC
  5
1EE
330
1A
100
AcDbEntity
  8
BLACK
100
AcDbCircle
 10
-1.0691929133858267
 20
0.5433070866141733
 30
0
 40
0.0196850393700787
100
AcDbArc
 50
-90.00000000
 51
90.00000000
  0
LINE
  5
1EF
330
1A
100
AcDbEntity
  8
BLACK
  6
CONTINUOUS
100
AcDbLine
 10
-1.0691929133858267
 20
0.562992125984252
 30
0
 11
-1.1479330708661417
 21
0.562992125984252
 31
0
  0
ARC
  5
1F0
330
1A
100
AcDbEntity
  8
BLACK
100
AcDbCircle
 10
-1.1479330708661417
 20
0.5433070866141733
 30
0
 40
0.0196850393700787
100
AcDbArc
 50
90.00000000
 51
270.00000000
  0
LINE
  5
1F1
330
1A
100
AcDbEntity
  8
BLACK
  6
CONTINUOUS
100
AcDbLine
 10
-1.1479330708661417
 20
0.2874015748031496
 30
0
 11
-1.0691929133858267
 21
0.2874015748031496
 31
0
  0
ARC
  5
1F2
330
1A
100
AcDbEntity
  8
BLACK
100
AcDbCircle
 10
-1.0691929133858267
 20
0.3070866141732284
 30
0
 40
0.0196850393700787
100
AcDbArc
 50
-90.00000000
 51
90.00000000
  0
LINE
  5
1F3
330
1A
100
AcDbEntity
  8
BLACK
  6
CONTINUOUS
100
AcDbLine
 10
-1.0691929133858267
 20
0.3267716535433071
 30
0
 11
-1.1479330708661417
 21
0.3267716535433071
 31
0
  0
ARC
  5
1F4
330
1A
100
AcDbEntity
  8
BLACK
100
AcDbCircle
 10
-1.1479330708661417
 20
0.3070866141732284
 30
0
 40
0.0196850393700787
100
AcDbArc
 50
90.00000000
 51
270.00000000
  0
LINE
  5
1F5
330
1A
100
AcDbEntity
  8
BLACK
  6
CONTINUOUS
100
AcDbLine
 10
-1.2739173228346456
 20
0.3858267716535433
 30
0
 11
-1.2739173228346456
 21
0.4645669291338583
 31
0
  0
ARC
  5
1F6
330
1A
100
AcDbEntity
  8
BLACK
100
AcDbCircle
 10
-1.2936023622047244
 20
0.4645669291338583
 30
0
 40
0.0196850393700787
100
AcDbArc
 50
0.00000000
 51
180.00000000
  0
LINE
  5
1F7
330
1A
100
AcDbEntity
  8
BLACK
  6
CONTINUOUS
100
AcDbLine
 10
-1.3132874015748031
 20
0.4645669291338583
 30
0
 11
-1.3132874015748031
 21
0.3858267716535433
 31
0
  0
ARC
  5
1F8
330
1A
100
AcDbEntity
  8
BLACK
100
AcDbCircle
 10
-1.2936023622047244
 20
0.3858267716535433
 30
0
 40
0.0196850393700787
100
AcDbArc
 50
180.00000000
 51
360.00000000
  0
ENDSEC
  0
SECTION
  2
OBJECTS
  0
DICTIONARY
  5
20
330
0
100
AcDbDictionary
281
1
  3
ACAD_GROUP
350
1F9
  3
ACAD_LAYOUT
350
21
  3
ACAD_PLOTSTYLENAME
350
11
  0
DICTIONARY
  5
1F9
330
20
100
AcDbDictionary
281
1
  0
ACDBDICTIONARYWDFLT
  5
11
330
20
100
AcDbDictionary
281
1
  3
Normal
350
10
100
AcDbDictionaryWithDefault
340
10
  0
ACDBPLACEHOLDER
  5
10
330
11
  0
DICTIONARY
  5
21
330
20
100
AcDbDictionary
281
1
  3
Model
350
1D
  3
Layout1
350
1E
  3
Layout2
350
1F
  0
LAYOUT
  5
1D
330
21
100
AcDbPlotSettings
  1

  2
none_device
  4
A3
  6

 40
0.0
 41
0.0
 42
0.0
 43
0.0
 44
420.0
 45
297.0
 46
0.0
 47
0.0
 48
0.0
 49
0.0
140
0.0
141
0.0
142
1.0
143
1.0
 70
1024
 72
1
 73
0
 74
5
  7

 75
16
 76
0
 77
2
 78
300
147
1.0
148
0.0
149
0.0
100
AcDbLayout
  1
Model
 70
1
 71
0
 10
0.0
 20
0.0
 11
420.0
 21
297.0
 12
0.0
 22
0.0
 32
0.0
 14
1e+20
 24
1e+20
 34
1e+20
 15
-1e+20
 25
-1e+20
 35
-1e+20
146
0.0
 13
0.0
 23
0.0
 33
0.0
 16
1.0
 26
0.0
 36
0.0
 17
0.0
 27
1.0
 37
0.0
 76
0
330
1A
  0
LAYOUT
  5
1E
330
21
100
AcDbPlotSettings
  1

  2
none_device
  4
A3
  6

 40
0.0
 41
0.0
 42
0.0
 43
0.0
 44
420.0
 45
297.0
 46
0.0
 47
0.0
 48
0.0
 49
0.0
140
0.0
141
0.0
142
1.0
143
1.0
 70
0
 72
1
 73
0
 74
5
  7

 75
16
 76
0
 77
2
 78
300
147
1.0
148
0.0
149
0.0
100
AcDbLayout
  1
Layout1
 70
1
 71
1
 10
0.0
 20
0.0
 11
420.0
 21
297.0
 12
0.0
 22
0.0
 32
0.0
 14
1e+20
 24
1e+20
 34
1e+20
 15
-1e+20
 25
-1e+20
 35
-1e+20
146
0.0
 13
0.0
 23
0.0
 33
0.0
 16
1.0
 26
0.0
 36
0.0
 17
0.0
 27
1.0
 37
0.0
 76
0
330
1B
  0
LAYOUT
  5
1F
330
21
100
AcDbPlotSettings
  1

  2
none_device
  4
A3
  6

 40
0.0
 41
0.0
 42
0.0
 43
0.0
 44
420.0
 45
297.0
 46
0.0
 47
0.0
 48
0.0
 49
0.0
140
0.0
141
0.0
142
1.0
143
1.0
 70
0
 72
1
 73
0
 74
5
  7

 75
16
 76
0
 77
2
 78
300
147
1.0
148
0.0
149
0.0
100
AcDbLayout
  1
Layout2
 70
1
 71
2
 10
0.0
 20
0.0
 11
420.0
 21
297.0
 12
0.0
 22
0.0
 32
0.0
 14
1e+20
 24
1e+20
 34
1e+20
 15
-1e+20
 25
-1e+20
 35
-1e+20
146
0.0
 13
0.0
 23
0.0
 33
0.0
 16
1.0
 26
0.0
 36
0.0
 17
0.0
 27
1.0
 37
0.0
 76
0
330
1C
  0
ENDSEC
  0
EOF
