  0
SECTION
  2
HEADER
  9
$ANGBASE
  50
0.0
  9
$ANGDIR
  70
1
  9
$MEASUREMENT
  70
0
  9
$INSUNITS
  70
1
  0
ENDSEC
  0
SECTION
  2
TABLES
  0
TABLE
  2
LTYPE
  70
4
  0
LTYPE
  5
40F
  2
CONTINUOUS
  70
0
  3
Solid line
  72
65
  73
0
  40
0.0
  0
LTYPE
  5
410
  2
DASHDOT
 70
0
  3
Dash Dot ____ _ ____ _
 72
65
 73
4
 40
2.0
 49
1.25
 49
-0.25
 49
0.25
 49
-0.25
  0
LTYPE
  5
411
  2
DASHED
 70
0
  3
Dashed __ __ __ __ __
 72
65
 73
2
 40
0.75
 49
0.5
 49
-0.25
  0
LTYPE
  5
43B
  2
DOTTED
 70
0
  3
Dotted .  .  .  .
 72
65
 73
2
 40
0.2
 49
0.0
 49
-0.2
  0
ENDTAB
  0
TABLE
  2
STYLE
  70
4
  0
STYLE
  2
KICAD
  70
0
  40
0
  41
1
  42
1
  50
0
  71
0
  3
isocp.shx
  0
STYLE
  2
KICADB
  70
0
  40
0
  41
1
  42
1
  50
0
  71
0
  3
isocp.shx
  0
STYLE
  2
KICADI
  70
0
  40
0
  41
1
  42
1
  50
15
  71
0
  3
isocp.shx
  0
STYLE
  2
KICADBI
  70
0
  40
0
  41
1
  42
1
  50
15
  71
0
  3
isocp.shx
  0
ENDTAB
  0
TABLE
  2
LAYER
  70
1
  0
LAYER
  2
BLACK
  70
0
  62
250
  6
CONTINUOUS
  0
ENDTAB
  0
ENDSEC
  0
SECTION
  2
ENTITIES
0
LINE
8
BLACK
6
CONTINUOUS
10
3.0607283464566928
20
-5.6984251968503932
11
3.0616323228346456
21
-5.6986049999999997
0
LINE
8
BLACK
6
CONTINUOUS
10
3.0616323228346456
20
-5.6986049999999997
11
3.0629107480314959
21
-5.69988342519685
0
LINE
8
BLACK
6
CONTINUOUS
10
3.0629107480314959
20
-5.69988342519685
11
3.0630905511811024
21
-5.7007874015748028
0
LINE
8
BLACK
6
CONTINUOUS
10
3.0630905511811024
20
-5.7007874015748028
11
3.0630905511811024
21
-6.2795275590551176
0
LINE
8
BLACK
6
CONTINUOUS
10
3.0630905511811024
20
-6.2795275590551176
11
3.0629107480314959
21
-6.2804315354330704
0
LINE
8
BLACK
6
CONTINUOUS
10
3.0629107480314959
20
-6.2804315354330704
11
3.0616323228346456
21
-6.2817099606299207
0
LINE
8
BLACK
6
CONTINUOUS
10
3.0616323228346456
20
-6.2817099606299207
11
3.0607283464566928
21
-6.2818897637795272
0
LINE
8
BLACK
6
CONTINUOUS
10
3.0607283464566928
20
-6.2818897637795272
11
2.6985236220472442
21
-6.2818897637795272
0
LINE
8
BLACK
6
CONTINUOUS
10
2.6985236220472442
20
-6.2818897637795272
11
2.6976196456692914
21
-6.2817099606299207
0
LINE
8
BLACK
6
CONTINUOUS
10
2.6976196456692914
20
-6.2817099606299207
11
2.6963412204724411
21
-6.2804315354330704
0
LINE
8
BLACK
6
CONTINUOUS
10
2.6963412204724411
20
-6.2804315354330704
11
2.6961614173228345
21
-6.2795275590551176
0
LINE
8
BLACK
6
CONTINUOUS
10
2.6961614173228345
20
-6.2795275590551176
11
2.6961614173228345
21
-5.9330708661417324
0
LINE
8
BLACK
6
CONTINUOUS
10
2.6961614173228345
20
-5.9330708661417324
11
2.6963412204724411
21
-5.9321668897637796
0
LINE
8
BLACK
6
CONTINUOUS
10
2.6963412204724411
20
-5.9321668897637796
11
2.6976196456692914
21
-5.9308884645669293
0
LINE
8
BLACK
6
CONTINUOUS
10
2.6976196456692914
20
-5.9308884645669293
11
2.699427598425197
21
-5.9308884645669293
0
LINE
8
BLACK
6
CONTINUOUS
10
2.699427598425197
20
-5.9308884645669293
11
2.7007060236220473
21
-5.9321668897637796
0
LINE
8
BLACK
6
CONTINUOUS
10
2.7007060236220473
20
-5.9321668897637796
11
2.7008858267716533
21
-5.9330708661417324
0
LINE
8
BLACK
6
CONTINUOUS
10
2.7008858267716533
20
-5.9330708661417324
11
2.7008858267716533
21
-6.2771653543307089
0
LINE
8
BLACK
6
CONTINUOUS
10
2.7008858267716533
20
-6.2771653543307089
11
3.0583661417322836
21
-6.2771653543307089
0
LINE
8
BLACK
6
CONTINUOUS
10
3.0583661417322836
20
-6.2771653543307089
11
3.0583661417322836
21
-5.7031495669291337
0
LINE
8
BLACK
6
CONTINUOUS
10
3.0583661417322836
20
-5.7031495669291337
11
2.9583661417322835
21
-5.7031495669291337
0
LINE
8
BLACK
6
CONTINUOUS
10
2.9583661417322835
20
-5.7031495669291337
11
2.9574621653543307
21
-5.7029697637795271
0
LINE
8
BLACK
6
CONTINUOUS
10
2.9574621653543307
20
-5.7029697637795271
11
2.9561837401574804
21
-5.7016913385826768
0
LINE
8
BLACK
6
CONTINUOUS
10
2.9561837401574804
20
-5.7016913385826768
11
2.9561837401574804
21
-5.6998833858267712
0
LINE
8
BLACK
6
CONTINUOUS
10
2.9561837401574804
20
-5.6998833858267712
11
2.9574621653543307
21
-5.6986049606299209
0
LINE
8
BLACK
6
CONTINUOUS
10
2.9574621653543307
20
-5.6986049606299209
11
2.9583661417322835
21
-5.6984251574803144
0
LINE
8
BLACK
6
CONTINUOUS
10
2.9583661417322835
20
-5.6984251574803144
11
3.0607283464566928
21
-5.6984251968503932
0
LINE
8
BLACK
6
CONTINUOUS
10
2.6694326377952757
20
-6.0696441338582678
11
2.6695824803149604
21
-6.0703974409448813
0
LINE
8
BLACK
6
CONTINUOUS
10
2.6695824803149604
20
-6.0703974409448813
11
2.6695824803149604
21
-6.0898950000000003
0
LINE
8
BLACK
6
CONTINUOUS
10
2.6695824803149604
20
-6.0898950000000003
11
2.6694326377952757
21
-6.0906483070866138
0
LINE
8
BLACK
6
CONTINUOUS
10
2.6694326377952757
20
-6.0906483070866138
11
2.6683672834645669
21
-6.0917136614173231
0
LINE
8
BLACK
6
CONTINUOUS
10
2.6683672834645669
20
-6.0917136614173231
11
2.6668606692913386
21
-6.0917136614173231
0
LINE
8
BLACK
6
CONTINUOUS
10
2.6668606692913386
20
-6.0917136614173231
11
2.6657953149606297
21
-6.0906483070866138
0
LINE
8
BLACK
6
CONTINUOUS
10
2.6657953149606297
20
-6.0906483070866138
11
2.6656454724409446
21
-6.0898950000000003
0
LINE
8
BLACK
6
CONTINUOUS
10
2.6656454724409446
20
-6.0898950000000003
11
2.6656454724409446
21
-6.0751498031496061
0
LINE
8
BLACK
6
CONTINUOUS
10
2.6656454724409446
20
-6.0751498031496061
11
2.6510081496062989
21
-6.0897871259842518
0
LINE
8
BLACK
6
CONTINUOUS
10
2.6510081496062989
20
-6.0897871259842518
11
2.6509261811023621
21
-6.0898418503937011
0
LINE
8
BLACK
6
CONTINUOUS
10
2.6509261811023621
20
-6.0898418503937011
11
2.6509059842519687
21
-6.0898823228346455
0
LINE
8
BLACK
6
CONTINUOUS
10
2.6509059842519687
20
-6.0898823228346455
11
2.6506317322834647
21
-6.0900386220472438
0
LINE
8
BLACK
6
CONTINUOUS
10
2.6506317322834647
20
-6.0900386220472438
11
2.6503695275590551
21
-6.0902138582677168
0
LINE
8
BLACK
6
CONTINUOUS
10
2.6503695275590551
20
-6.0902138582677168
11
2.6503243307086612
21
-6.0902138582677168
0
LINE
8
BLACK
6
CONTINUOUS
10
2.6503243307086612
20
-6.0902138582677168
11
2.6502387007874013
21
-6.0902626771653541
0
LINE
8
BLACK
6
CONTINUOUS
10
2.6502387007874013
20
-6.0902626771653541
11
2.6457392519685037
21
-6.0917624803149604
0
LINE
8
BLACK
6
CONTINUOUS
10
2.6457392519685037
20
-6.0917624803149604
11
2.6454262992125983
21
-6.0918019291338581
0
LINE
8
BLACK
6
CONTINUOUS
10
2.6454262992125983
20
-6.0918019291338581
11
2.6451167716535431
21
-6.0918635039370077
0
LINE
8
BLACK
6
CONTINUOUS
10
2.6451167716535431
20
-6.0918635039370077
11
2.6421171653543305
21
-6.0918635039370077
0
LINE
8
BLACK
6
CONTINUOUS
10
2.6421171653543305
20
-6.0918635039370077
11
2.6420204330708659
21
-6.0918442519685039
0
LINE
8
BLACK
6
CONTINUOUS
10
2.6420204330708659
20
-6.0918442519685039
11
2.6419776377952755
21
-6.0918585433070866
0
LINE
8
BLACK
6
CONTINUOUS
10
2.6419776377952755
20
-6.0918585433070866
11
2.6416733070866143
21
-6.0917751968503939
0
LINE
8
BLACK
6
CONTINUOUS
10
2.6416733070866143
20
-6.0917751968503939
11
2.6413638582677166
21
-6.0917136614173231
0
LINE
8
BLACK
6
CONTINUOUS
10
2.6413638582677166
20
-6.0917136614173231
11
2.6413319291338584
21
-6.0916817322834644
0
LINE
8
BLACK
6
CONTINUOUS
10
2.6413319291338584
20
-6.0916817322834644
11
2.6412368503937009
21
-6.0916557086614169
0
LINE
8
BLACK
6
CONTINUOUS
10
2.6412368503937009
20
-6.0916557086614169
11
2.6382372047244096
21
-6.0901558661417319
0
LINE
8
BLACK
6
CONTINUOUS
10
2.6382372047244096
20
-6.0901558661417319
11
2.6379883070866139
21
-6.0899626771653539
0
LINE
8
BLACK
6
CONTINUOUS
10
2.6379883070866139
20
-6.0899626771653539
11
2.6377255511811022
21
-6.0897871259842518
0
LINE
8
BLACK
6
CONTINUOUS
10
2.6377255511811022
20
-6.0897871259842518
11
2.6362257874015746
21
-6.0882873228346455
0
LINE
8
BLACK
6
CONTINUOUS
10
2.6362257874015746
20
-6.0882873228346455
11
2.636050472440945
21
-6.088025
0
LINE
8
BLACK
6
CONTINUOUS
10
2.636050472440945
20
-6.088025
11
2.6358570472440945
21
-6.087775748031496
0
LINE
8
BLACK
6
CONTINUOUS
10
2.6358570472440945
20
-6.087775748031496
11
2.6343572440944882
21
-6.0847760629921259
0
LINE
8
BLACK
6
CONTINUOUS
10
2.6343572440944882
20
-6.0847760629921259
11
2.634331181102362
21
-6.0846809842519685
0
LINE
8
BLACK
6
CONTINUOUS
10
2.634331181102362
20
-6.0846809842519685
11
2.6342992519685038
21
-6.0846490551181098
0
LINE
8
BLACK
6
CONTINUOUS
10
2.6342992519685038
20
-6.0846490551181098
11
2.6342376377952754
21
-6.08433937007874
0
LINE
8
BLACK
6
CONTINUOUS
10
2.6342376377952754
20
-6.08433937007874
11
2.6341543700787402
21
-6.0840352755905514
0
LINE
8
BLACK
6
CONTINUOUS
10
2.6341543700787402
20
-6.0840352755905514
11
2.6341686220472442
21
-6.0839924409448818
0
LINE
8
BLACK
6
CONTINUOUS
10
2.6341686220472442
20
-6.0839924409448818
11
2.6341494094488187
21
-6.0838957480314964
0
LINE
8
BLACK
6
CONTINUOUS
10
2.6341494094488187
20
-6.0838957480314964
11
2.6341494094488187
21
-6.0763966929133852
0
LINE
8
BLACK
6
CONTINUOUS
10
2.6341494094488187
20
-6.0763966929133852
11
2.6341686220472442
21
-6.0762999606299211
0
LINE
8
BLACK
6
CONTINUOUS
10
2.6341686220472442
20
-6.0762999606299211
11
2.6341543700787402
21
-6.0762571259842515
0
LINE
8
BLACK
6
CONTINUOUS
10
2.6341543700787402
20
-6.0762571259842515
11
2.6342376771653542
21
-6.0759528740157478
0
LINE
8
BLACK
6
CONTINUOUS
10
2.6342376771653542
20
-6.0759528740157478
11
2.6342992519685038
21
-6.0756433858267718
0
LINE
8
BLACK
6
CONTINUOUS
10
2.6342992519685038
20
-6.0756433858267718
11
2.634331181102362
21
-6.0756114173228344
0
LINE
8
BLACK
6
CONTINUOUS
10
2.634331181102362
20
-6.0756114173228344
11
2.6343572440944882
21
-6.0755163385826769
0
LINE
8
BLACK
6
CONTINUOUS
10
2.6343572440944882
20
-6.0755163385826769
11
2.6358570472440945
21
-6.0725167322834643
0
LINE
8
BLACK
6
CONTINUOUS
10
2.6358570472440945
20
-6.0725167322834643
11
2.6360503937007875
21
-6.0722675590551178
0
LINE
8
BLACK
6
CONTINUOUS
10
2.6360503937007875
20
-6.0722675590551178
11
2.6362257480314959
21
-6.0720051574803149
0
LINE
8
BLACK
6
CONTINUOUS
10
2.6362257480314959
20
-6.0720051574803149
11
2.6377255511811022
21
-6.0705053149606298
0
LINE
8
BLACK
6
CONTINUOUS
10
2.6377255511811022
20
-6.0705053149606298
11
2.6383641732283465
21
-6.0700786220472436
0
LINE
8
BLACK
6
CONTINUOUS
10
2.6383641732283465
20
-6.0700786220472436
11
2.6398708267716535
21
-6.0700785826771648
0
LINE
8
BLACK
6
CONTINUOUS
10
2.6398708267716535
20
-6.0700785826771648
11
2.6409361417322832
21
-6.0711438976377954
0
LINE
8
BLACK
6
CONTINUOUS
10
2.6409361417322832
20
-6.0711438976377954
11
2.6409361811023619
21
-6.072650551181102
0
LINE
8
BLACK
6
CONTINUOUS
10
2.6409361811023619
20
-6.072650551181102
11
2.6405094881889761
21
-6.0732891732283463
0
LINE
8
BLACK
6
CONTINUOUS
10
2.6405094881889761
20
-6.0732891732283463
11
2.6392355118110236
21
-6.0745631496062993
0
LINE
8
BLACK
6
CONTINUOUS
10
2.6392355118110236
20
-6.0745631496062993
11
2.6380864173228344
21
-6.0768613779527554
0
LINE
8
BLACK
6
CONTINUOUS
10
2.6380864173228344
20
-6.0768613779527554
11
2.6380864173228344
21
-6.0834310629921262
0
LINE
8
BLACK
6
CONTINUOUS
10
2.6380864173228344
20
-6.0834310629921262
11
2.6392355511811023
21
-6.0857293700787398
0
LINE
8
BLACK
6
CONTINUOUS
10
2.6392355511811023
20
-6.0857293700787398
11
2.6402836220472441
21
-6.0867774015748033
0
LINE
8
BLACK
6
CONTINUOUS
10
2.6402836220472441
20
-6.0867774015748033
11
2.6425818503937006
21
-6.087926496062992
0
LINE
8
BLACK
6
CONTINUOUS
10
2.6425818503937006
20
-6.087926496062992
11
2.6447973622047245
21
-6.087926496062992
0
LINE
8
BLACK
6
CONTINUOUS
10
2.6447973622047245
20
-6.087926496062992
11
2.6485528740157478
21
-6.0866746456692908
0
LINE
8
BLACK
6
CONTINUOUS
10
2.6485528740157478
20
-6.0866746456692908
11
2.6662220472440943
21
-6.0690055118110235
0
LINE
8
BLACK
6
CONTINUOUS
10
2.6662220472440943
20
-6.0690055118110235
11
2.6668606692913386
21
-6.0685787795275585
0
LINE
8
BLACK
6
CONTINUOUS
10
2.6668606692913386
20
-6.0685787795275585
11
2.6683672834645669
21
-6.0685787795275585
0
LINE
8
BLACK
6
CONTINUOUS
10
2.6683672834645669
20
-6.0685787795275585
11
2.6694326377952757
21
-6.0696441338582678
0
LINE
8
BLACK
6
CONTINUOUS
10
2.6694326377952757
20
-6.0456471259842521
11
2.6695824803149604
21
-6.0464004330708656
0
LINE
8
BLACK
6
CONTINUOUS
10
2.6695824803149604
20
-6.0464004330708656
11
2.6695824803149604
21
-6.0494000787401569
0
LINE
8
BLACK
6
CONTINUOUS
10
2.6695824803149604
20
-6.0494000787401569
11
2.6695209055118108
21
-6.0497096062992126
0
LINE
8
BLACK
6
CONTINUOUS
10
2.6695209055118108
20
-6.0497096062992126
11
2.6694814566929135
21
-6.050022559055118
0
LINE
8
BLACK
6
CONTINUOUS
10
2.6694814566929135
20
-6.050022559055118
11
2.6679816535433072
21
-6.0545219685039369
0
LINE
8
BLACK
6
CONTINUOUS
10
2.6679816535433072
20
-6.0545219685039369
11
2.6679328346456694
21
-6.0546075984251964
0
LINE
8
BLACK
6
CONTINUOUS
10
2.6679328346456694
20
-6.0546075984251964
11
2.6679328346456694
21
-6.0546528346456689
0
LINE
8
BLACK
6
CONTINUOUS
10
2.6679328346456694
20
-6.0546528346456689
11
2.6677574409448819
21
-6.0549152755905506
0
LINE
8
BLACK
6
CONTINUOUS
10
2.6677574409448819
20
-6.0549152755905506
11
2.6676012992125981
21
-6.0551892519685042
0
LINE
8
BLACK
6
CONTINUOUS
10
2.6676012992125981
20
-6.0551892519685042
11
2.667560866141732
21
-6.0552094488188972
0
LINE
8
BLACK
6
CONTINUOUS
10
2.667560866141732
20
-6.0552094488188972
11
2.6675061023622049
21
-6.0552914566929132
0
LINE
8
BLACK
6
CONTINUOUS
10
2.6675061023622049
20
-6.0552914566929132
11
2.6645064566929135
21
-6.0582910629921258
0
LINE
8
BLACK
6
CONTINUOUS
10
2.6645064566929135
20
-6.0582910629921258
11
2.6644244881889763
21
-6.0583457874015743
0
LINE
8
BLACK
6
CONTINUOUS
10
2.6644244881889763
20
-6.0583457874015743
11
2.6644042913385828
21
-6.0583862598425196
0
LINE
8
BLACK
6
CONTINUOUS
10
2.6644042913385828
20
-6.0583862598425196
11
2.6641300393700789
21
-6.0585425590551178
0
LINE
8
BLACK
6
CONTINUOUS
10
2.6641300393700789
20
-6.0585425590551178
11
2.6638678346456692
21
-6.0587177952755908
0
LINE
8
BLACK
6
CONTINUOUS
10
2.6638678346456692
20
-6.0587177952755908
11
2.6638226377952754
21
-6.0587177952755908
0
LINE
8
BLACK
6
CONTINUOUS
10
2.6638226377952754
20
-6.0587177952755908
11
2.6637370078740159
21
-6.0587666141732281
0
LINE
8
BLACK
6
CONTINUOUS
10
2.6637370078740159
20
-6.0587666141732281
11
2.6592375590551178
21
-6.0602664173228344
0
LINE
8
BLACK
6
CONTINUOUS
10
2.6592375590551178
20
-6.0602664173228344
11
2.6589246062992125
21
-6.0603058661417322
0
LINE
8
BLACK
6
CONTINUOUS
10
2.6589246062992125
20
-6.0603058661417322
11
2.6586150787401572
21
-6.0603674409448818
0
LINE
8
BLACK
6
CONTINUOUS
10
2.6586150787401572
20
-6.0603674409448818
11
2.6361179133858266
21
-6.0603674409448818
0
LINE
8
BLACK
6
CONTINUOUS
10
2.6361179133858266
20
-6.0603674409448818
11
2.6353646062992127
21
-6.0602175984251971
0
LINE
8
BLACK
6
CONTINUOUS
10
2.6353646062992127
20
-6.0602175984251971
11
2.6342992519685038
21
-6.0591522440944878
0
LINE
8
BLACK
6
CONTINUOUS
10
2.6342992519685038
20
-6.0591522440944878
11
2.6342992519685038
21
-6.05764562992126
0
LINE
8
BLACK
6
CONTINUOUS
10
2.6342992519685038
20
-6.05764562992126
11
2.6353646062992127
21
-6.0565802755905507
0
LINE
8
BLACK
6
CONTINUOUS
10
2.6353646062992127
20
-6.0565802755905507
11
2.6361179133858266
21
-6.056430433070866
0
LINE
8
BLACK
6
CONTINUOUS
10
2.6361179133858266
20
-6.056430433070866
11
2.6582956692913386
21
-6.056430433070866
0
LINE
8
BLACK
6
CONTINUOUS
10
2.6582956692913386
20
-6.056430433070866
11
2.6620511811023619
21
-6.0551785826771649
0
LINE
8
BLACK
6
CONTINUOUS
10
2.6620511811023619
20
-6.0551785826771649
11
2.6643936220472439
21
-6.0528361023622042
0
LINE
8
BLACK
6
CONTINUOUS
10
2.6643936220472439
20
-6.0528361023622042
11
2.6656454724409446
21
-6.0490806692913388
0
LINE
8
BLACK
6
CONTINUOUS
10
2.6656454724409446
20
-6.0490806692913388
11
2.6656454724409446
21
-6.0464004330708656
0
LINE
8
BLACK
6
CONTINUOUS
10
2.6656454724409446
20
-6.0464004330708656
11
2.6657953149606297
21
-6.0456471259842521
0
LINE
8
BLACK
6
CONTINUOUS
10
2.6657953149606297
20
-6.0456471259842521
11
2.6668606692913386
21
-6.0445817716535428
0
LINE
8
BLACK
6
CONTINUOUS
10
2.6668606692913386
20
-6.0445817716535428
11
2.6683672834645669
21
-6.0445817716535428
0
LINE
8
BLACK
6
CONTINUOUS
10
2.6683672834645669
20
-6.0445817716535428
11
2.6694326377952757
21
-6.0456471259842521
0
LINE
8
BLACK
6
CONTINUOUS
10
2.805726811023622
20
-5.6986049999999997
11
2.8070052362204723
21
-5.69988342519685
0
LINE
8
BLACK
6
CONTINUOUS
10
2.8070052362204723
20
-5.69988342519685
11
2.8070052362204723
21
-5.7016913779527556
0
LINE
8
BLACK
6
CONTINUOUS
10
2.8070052362204723
20
-5.7016913779527556
11
2.805726811023622
21
-5.7029698031496059
0
LINE
8
BLACK
6
CONTINUOUS
10
2.805726811023622
20
-5.7029698031496059
11
2.8048228346456692
21
-5.7031496062992124
0
LINE
8
BLACK
6
CONTINUOUS
10
2.8048228346456692
20
-5.7031496062992124
11
2.7008858267716533
21
-5.7031496062992124
0
LINE
8
BLACK
6
CONTINUOUS
10
2.7008858267716533
20
-5.7031496062992124
11
2.7008858267716533
21
-5.7755905511811019
0
LINE
8
BLACK
6
CONTINUOUS
10
2.7008858267716533
20
-5.7755905511811019
11
2.7007060236220473
21
-5.7764945275590547
0
LINE
8
BLACK
6
CONTINUOUS
10
2.7007060236220473
20
-5.7764945275590547
11
2.699427598425197
21
-5.777772952755905
0
LINE
8
BLACK
6
CONTINUOUS
10
2.699427598425197
20
-5.777772952755905
11
2.6976196456692914
21
-5.777772952755905
0
LINE
8
BLACK
6
CONTINUOUS
10
2.6976196456692914
20
-5.777772952755905
11
2.6963412204724411
21
-5.7764945275590547
0
LINE
8
BLACK
6
CONTINUOUS
10
2.6963412204724411
20
-5.7764945275590547
11
2.6961614173228345
21
-5.7755905511811019
0
LINE
8
BLACK
6
CONTINUOUS
10
2.6961614173228345
20
-5.7755905511811019
11
2.6961614173228345
21
-5.7007874015748028
0
LINE
8
BLACK
6
CONTINUOUS
10
2.6961614173228345
20
-5.7007874015748028
11
2.6963412204724411
21
-5.69988342519685
0
LINE
8
BLACK
6
CONTINUOUS
10
2.6963412204724411
20
-5.69988342519685
11
2.6976196456692914
21
-5.6986049999999997
0
LINE
8
BLACK
6
CONTINUOUS
10
2.6976196456692914
20
-5.6986049999999997
11
2.6985236220472442
21
-5.6984251968503932
0
LINE
8
BLACK
6
CONTINUOUS
10
2.6985236220472442
20
-5.6984251968503932
11
2.8048228346456692
21
-5.6984251968503932
0
LINE
8
BLACK
6
CONTINUOUS
10
2.8048228346456692
20
-5.6984251968503932
11
2.805726811023622
21
-5.6986049999999997
0
LINE
8
BLACK
6
CONTINUOUS
10
3.0695063385826771
20
-5.6907309842519682
11
3.0707847637795274
21
-5.6920094094488185
0
LINE
8
BLACK
6
CONTINUOUS
10
3.0707847637795274
20
-5.6920094094488185
11
3.0709645669291339
21
-5.6929133858267713
0
LINE
8
BLACK
6
CONTINUOUS
10
3.0709645669291339
20
-5.6929133858267713
11
3.0709645669291339
21
-5.734251968503937
0
LINE
8
BLACK
6
CONTINUOUS
10
3.0709645669291339
20
-5.734251968503937
11
3.0707847637795274
21
-5.7351559448818898
0
LINE
8
BLACK
6
CONTINUOUS
10
3.0707847637795274
20
-5.7351559448818898
11
3.0695063385826771
21
-5.7364343700787401
0
LINE
8
BLACK
6
CONTINUOUS
10
3.0695063385826771
20
-5.7364343700787401
11
3.0676983858267715
21
-5.7364343700787401
0
LINE
8
BLACK
6
CONTINUOUS
10
3.0676983858267715
20
-5.7364343700787401
11
3.0664199606299212
21
-5.7351559448818898
0
LINE
8
BLACK
6
CONTINUOUS
10
3.0664199606299212
20
-5.7351559448818898
11
3.0662401574803151
21
-5.734251968503937
0
LINE
8
BLACK
6
CONTINUOUS
10
3.0662401574803151
20
-5.734251968503937
11
3.0662401574803151
21
-5.6952755905511809
0
LINE
8
BLACK
6
CONTINUOUS
10
3.0662401574803151
20
-5.6952755905511809
11
3.027263779527559
21
-5.6952755905511809
0
LINE
8
BLACK
6
CONTINUOUS
10
3.027263779527559
20
-5.6952755905511809
11
3.0263598031496062
21
-5.6950957874015744
0
LINE
8
BLACK
6
CONTINUOUS
10
3.0263598031496062
20
-5.6950957874015744
11
3.0250813779527559
21
-5.6938173622047241
0
LINE
8
BLACK
6
CONTINUOUS
10
3.0250813779527559
20
-5.6938173622047241
11
3.0250813779527559
21
-5.6920094094488185
0
LINE
8
BLACK
6
CONTINUOUS
10
3.0250813779527559
20
-5.6920094094488185
11
3.0263598031496062
21
-5.6907309842519682
0
LINE
8
BLACK
6
CONTINUOUS
10
3.0263598031496062
20
-5.6907309842519682
11
3.027263779527559
21
-5.6905511811023617
0
LINE
8
BLACK
6
CONTINUOUS
10
3.027263779527559
20
-5.6905511811023617
11
3.0686023622047243
21
-5.6905511811023617
0
LINE
8
BLACK
6
CONTINUOUS
10
3.0686023622047243
20
-5.6905511811023617
11
3.0695063385826771
21
-5.6907309842519682
0
CIRCLE
8
BLACK
10
3.7868436220472441
20
-2.6377952755905509
40
0.0068897637795276
0
CIRCLE
8
BLACK
10
3.8868436220472442
20
-2.6377952755905509
40
0.0068897637795276
0
CIRCLE
8
BLACK
10
2.8582677165354329
20
-5.4921259842519685
40
0.0068897637795276
0
CIRCLE
8
BLACK
10
4.5246388976377956
20
-3.0629921259842519
40
0.0068897637795276
0
CIRCLE
8
BLACK
10
4.3868436220472438
20
-3.0629921259842519
40
0.0068897637795276
0
CIRCLE
8
BLACK
10
5.0232283464566931
20
-6.0606299212598422
40
0.0068897637795276
0
CIRCLE
8
BLACK
10
4.5232283464566931
20
-6.0606299212598422
40
0.0068897637795276
0
CIRCLE
8
BLACK
10
4.9133858267716537
20
-5.9606299212598426
40
0.0068897637795276
0
CIRCLE
8
BLACK
10
4.8733858267716537
20
-5.8905511417322831
40
0.0068897637795276
0
CIRCLE
8
BLACK
10
4.8333858267716536
20
-5.9606299212598426
40
0.0068897637795276
0
CIRCLE
8
BLACK
10
4.7933858267716536
20
-5.8905511417322831
40
0.0068897637795276
0
CIRCLE
8
BLACK
10
4.7533858267716536
20
-5.9606299212598426
40
0.0068897637795276
0
CIRCLE
8
BLACK
10
4.7133858267716535
20
-5.8905511417322831
40
0.0068897637795276
0
CIRCLE
8
BLACK
10
4.6733858267716535
20
-5.9606299212598426
40
0.0068897637795276
0
CIRCLE
8
BLACK
10
4.6333858661417322
20
-5.8905511811023619
40
0.0068897637795276
0
CIRCLE
8
BLACK
10
5.0433070866141732
20
-5.7007874015748028
40
0.0068897637795276
0
CIRCLE
8
BLACK
10
4.9531496062992124
20
-5.7007874015748028
40
0.0068897637795276
0
CIRCLE
8
BLACK
10
4.593307086614173
20
-5.7007874015748028
40
0.0068897637795276
0
CIRCLE
8
BLACK
10
4.5031496062992122
20
-5.7007874015748028
40
0.0068897637795276
0
CIRCLE
8
BLACK
10
5.093307086614173
20
-5.9255905511811022
40
0.0068897637795276
0
CIRCLE
8
BLACK
10
4.4531496062992124
20
-5.9255905511811022
40
0.0068897637795276
0
CIRCLE
8
BLACK
10
3.7868436220472441
20
-2.3346456692913384
40
0.0068897637795276
0
CIRCLE
8
BLACK
10
3.8868436220472442
20
-2.3346456692913384
40
0.0068897637795276
0
CIRCLE
8
BLACK
10
2.6677165354330707
20
-2.3937007874015745
40
0.0068897637795276
0
CIRCLE
8
BLACK
10
2.7677165354330708
20
-2.3937007874015745
40
0.0068897637795276
0
CIRCLE
8
BLACK
10
2.6677165354330707
20
-2.4937007874015746
40
0.0068897637795276
0
CIRCLE
8
BLACK
10
2.7677165354330708
20
-2.4937007874015746
40
0.0068897637795276
0
CIRCLE
8
BLACK
10
2.6677165354330707
20
-2.5937007874015747
40
0.0068897637795276
0
CIRCLE
8
BLACK
10
2.7677165354330708
20
-2.5937007874015747
40
0.0068897637795276
0
CIRCLE
8
BLACK
10
2.6677165354330707
20
-2.6937007874015748
40
0.0068897637795276
0
CIRCLE
8
BLACK
10
2.7677165354330708
20
-2.6937007874015748
40
0.0068897637795276
0
CIRCLE
8
BLACK
10
2.6677165354330707
20
-2.7937007874015749
40
0.0068897637795276
0
CIRCLE
8
BLACK
10
2.7677165354330708
20
-2.7937007874015749
40
0.0068897637795276
0
CIRCLE
8
BLACK
10
2.6677165354330707
20
-2.8937007874015745
40
0.0068897637795276
0
CIRCLE
8
BLACK
10
2.7677165354330708
20
-2.8937007874015745
40
0.0068897637795276
0
CIRCLE
8
BLACK
10
2.6677165354330707
20
-2.9937007874015746
40
0.0068897637795276
0
CIRCLE
8
BLACK
10
2.7677165354330708
20
-2.9937007874015746
40
0.0068897637795276
0
CIRCLE
8
BLACK
10
2.6677165354330707
20
-3.0937007874015747
40
0.0068897637795276
0
CIRCLE
8
BLACK
10
2.7677165354330708
20
-3.0937007874015747
40
0.0068897637795276
0
CIRCLE
8
BLACK
10
2.6677165354330707
20
-3.1937007874015748
40
0.0068897637795276
0
CIRCLE
8
BLACK
10
2.7677165354330708
20
-3.1937007874015748
40
0.0068897637795276
0
CIRCLE
8
BLACK
10
2.6677165354330707
20
-3.2937007874015749
40
0.0068897637795276
0
CIRCLE
8
BLACK
10
2.7677165354330708
20
-3.2937007874015749
40
0.0068897637795276
0
CIRCLE
8
BLACK
10
2.6677165354330707
20
-3.3937007874015745
40
0.0068897637795276
0
CIRCLE
8
BLACK
10
2.7677165354330708
20
-3.3937007874015745
40
0.0068897637795276
0
CIRCLE
8
BLACK
10
2.6677165354330707
20
-3.4937007874015746
40
0.0068897637795276
0
CIRCLE
8
BLACK
10
2.7677165354330708
20
-3.4937007874015746
40
0.0068897637795276
0
CIRCLE
8
BLACK
10
2.6677165354330707
20
-3.5937007874015747
40
0.0068897637795276
0
CIRCLE
8
BLACK
10
2.7677165354330708
20
-3.5937007874015747
40
0.0068897637795276
0
CIRCLE
8
BLACK
10
2.6677165354330707
20
-3.6937007874015748
40
0.0068897637795276
0
CIRCLE
8
BLACK
10
2.7677165354330708
20
-3.6937007874015748
40
0.0068897637795276
0
CIRCLE
8
BLACK
10
2.6677165354330707
20
-3.7937007874015749
40
0.0068897637795276
0
CIRCLE
8
BLACK
10
2.7677165354330708
20
-3.7937007874015749
40
0.0068897637795276
0
CIRCLE
8
BLACK
10
2.6677165354330707
20
-3.8937007874015745
40
0.0068897637795276
0
CIRCLE
8
BLACK
10
2.7677165354330708
20
-3.8937007874015745
40
0.0068897637795276
0
CIRCLE
8
BLACK
10
2.6677165354330707
20
-3.9937007874015746
40
0.0068897637795276
0
CIRCLE
8
BLACK
10
2.7677165354330708
20
-3.9937007874015746
40
0.0068897637795276
0
CIRCLE
8
BLACK
10
2.6677165354330707
20
-4.0937007874015743
40
0.0068897637795276
0
CIRCLE
8
BLACK
10
2.7677165354330708
20
-4.0937007874015743
40
0.0068897637795276
0
CIRCLE
8
BLACK
10
2.6677165354330707
20
-4.1937007874015748
40
0.0068897637795276
0
CIRCLE
8
BLACK
10
2.7677165354330708
20
-4.1937007874015748
40
0.0068897637795276
0
CIRCLE
8
BLACK
10
2.6677165354330707
20
-4.2937007874015745
40
0.0068897637795276
0
CIRCLE
8
BLACK
10
2.7677165354330708
20
-4.2937007874015745
40
0.0068897637795276
0
CIRCLE
8
BLACK
10
3.7868436220472441
20
-2.4370078740157481
40
0.0068897637795276
0
CIRCLE
8
BLACK
10
3.8868436220472442
20
-2.4370078740157481
40
0.0068897637795276
0
CIRCLE
8
BLACK
10
2.7716535433070866
20
-1.7637795275590551
40
0.0068897637795276
0
CIRCLE
8
BLACK
10
3.7868436220472441
20
-2.7362204724409449
40
0.0068897637795276
0
CIRCLE
8
BLACK
10
3.8868436220472442
20
-2.7362204724409449
40
0.0068897637795276
0
CIRCLE
8
BLACK
10
4.7007874015748028
20
-4.515748031496063
40
0.0068897637795276
0
CIRCLE
8
BLACK
10
4.7007874015748028
20
-4.4157479527559058
40
0.0068897637795276
0
CIRCLE
8
BLACK
10
4.8307086614173231
20
-4.515748031496063
40
0.0068897637795276
0
CIRCLE
8
BLACK
10
4.8307086614173231
20
-4.4157480314960633
40
0.0068897637795276
0
CIRCLE
8
BLACK
10
4.8307086614173231
20
-4.3157480708661415
40
0.0068897637795276
0
CIRCLE
8
BLACK
10
2.2480314960629921
20
-5.4015748031496065
40
0.0068897637795276
0
CIRCLE
8
BLACK
10
5.6377952755905509
20
-2.2283464566929134
40
0.0068897637795276
0
CIRCLE
8
BLACK
10
5.6456692913385824
20
-5.3661417322834648
40
0.0068897637795276
0
CIRCLE
8
BLACK
10
3.5073160629921261
20
-2.336220472440945
40
0.0068897637795276
0
CIRCLE
8
BLACK
10
3.6073160629921257
20
-2.336220472440945
40
0.0068897637795276
0
CIRCLE
8
BLACK
10
3.5073160629921261
20
-2.4362204724409446
40
0.0068897637795276
0
CIRCLE
8
BLACK
10
3.6073160629921257
20
-2.4362204724409446
40
0.0068897637795276
0
CIRCLE
8
BLACK
10
3.5073160629921261
20
-2.5362204724409447
40
0.0068897637795276
0
CIRCLE
8
BLACK
10
3.6073160629921257
20
-2.5362204724409447
40
0.0068897637795276
0
CIRCLE
8
BLACK
10
3.5073160629921261
20
-2.6362204724409448
40
0.0068897637795276
0
CIRCLE
8
BLACK
10
3.6073160629921257
20
-2.6362204724409448
40
0.0068897637795276
0
CIRCLE
8
BLACK
10
3.5073160629921261
20
-2.7362204724409449
40
0.0068897637795276
0
CIRCLE
8
BLACK
10
3.6073160629921257
20
-2.7362204724409449
40
0.0068897637795276
0
CIRCLE
8
BLACK
10
5.1584971653543308
20
-2.1985236220472442
40
0.0068897637795276
0
CIRCLE
8
BLACK
10
5.0584971653543302
20
-2.1985236220472442
40
0.0068897637795276
0
CIRCLE
8
BLACK
10
5.1584971653543308
20
-2.0985236220472441
40
0.0068897637795276
0
CIRCLE
8
BLACK
10
5.0584971653543302
20
-2.0985236220472441
40
0.0068897637795276
0
CIRCLE
8
BLACK
10
5.1584971653543308
20
-1.9985236614173227
40
0.0068897637795276
0
CIRCLE
8
BLACK
10
5.0584971653543302
20
-1.998523622047244
40
0.0068897637795276
0
CIRCLE
8
BLACK
10
5.1584971653543308
20
-1.8985236220472441
40
0.0068897637795276
0
CIRCLE
8
BLACK
10
5.0584971653543302
20
-1.8985236220472441
40
0.0068897637795276
0
CIRCLE
8
BLACK
10
5.1584971653543308
20
-1.798523622047244
40
0.0068897637795276
0
CIRCLE
8
BLACK
10
5.0584971653543302
20
-1.798523622047244
40
0.0068897637795276
0
CIRCLE
8
BLACK
10
2.8582677165354329
20
-5.3385826771653546
40
0.0068897637795276
0
CIRCLE
8
BLACK
10
3.2709645669291336
20
-5.7440944881889759
40
0.0068897637795276
0
CIRCLE
8
BLACK
10
3.2709645669291336
20
-5.5440945275590554
40
0.0068897637795276
0
CIRCLE
8
BLACK
10
4.0709645669291339
20
-6.0440944881889767
40
0.0068897637795276
0
CIRCLE
8
BLACK
10
4.0709645669291339
20
-5.6440944881889763
40
0.0068897637795276
0
CIRCLE
8
BLACK
10
4.0709645669291339
20
-5.2440944881889759
40
0.0068897637795276
0
CIRCLE
8
BLACK
10
3.2709645669291336
20
-5.2440944881889759
40
0.0068897637795276
0
ARC
8
BLACK
10
2.8796259842519683
20
-5.7362204724409445
40
0.0688976377952756
50
-90.00000000
51
90.00000000
0
ARC
8
BLACK
10
2.8796259842519683
20
-5.7362204724409445
40
0.0688976377952756
50
90.00000000
51
270.00000000
0
LINE
8
BLACK
6
CONTINUOUS
10
2.8697834645669289
20
-6.0314960629921259
11
2.8894685039370076
21
-6.0314960629921259
0
ARC
8
BLACK
10
2.8894685039370076
20
-5.9724409448818898
40
0.0590551181102362
50
-90.00000000
51
90.00000000
0
LINE
8
BLACK
6
CONTINUOUS
10
2.8894685039370076
20
-5.9133858267716537
11
2.8697834645669289
21
-5.9133858267716537
0
ARC
8
BLACK
10
2.8697834645669289
20
-5.9724409448818898
40
0.0590551181102362
50
90.00000000
51
270.00000000
0
ARC
8
BLACK
10
2.6945866141732284
20
-5.8543307086614176
40
0.0688976377952756
50
-90.00000000
51
90.00000000
0
ARC
8
BLACK
10
2.6945866141732284
20
-5.8543307086614176
40
0.0688976377952756
50
90.00000000
51
270.00000000
0
CIRCLE
8
BLACK
10
3.7868436220472441
20
-2.6377952755905509
40
0.0068897637795276
0
CIRCLE
8
BLACK
10
3.8868436220472442
20
-2.6377952755905509
40
0.0068897637795276
0
CIRCLE
8
BLACK
10
2.8582677165354329
20
-5.4921259842519685
40
0.0068897637795276
0
CIRCLE
8
BLACK
10
4.5246388976377956
20
-3.0629921259842519
40
0.0068897637795276
0
CIRCLE
8
BLACK
10
4.3868436220472438
20
-3.0629921259842519
40
0.0068897637795276
0
CIRCLE
8
BLACK
10
5.0232283464566931
20
-6.0606299212598422
40
0.0068897637795276
0
CIRCLE
8
BLACK
10
4.5232283464566931
20
-6.0606299212598422
40
0.0068897637795276
0
CIRCLE
8
BLACK
10
4.9133858267716537
20
-5.9606299212598426
40
0.0068897637795276
0
CIRCLE
8
BLACK
10
4.8733858267716537
20
-5.8905511417322831
40
0.0068897637795276
0
CIRCLE
8
BLACK
10
4.8333858267716536
20
-5.9606299212598426
40
0.0068897637795276
0
CIRCLE
8
BLACK
10
4.7933858267716536
20
-5.8905511417322831
40
0.0068897637795276
0
CIRCLE
8
BLACK
10
4.7533858267716536
20
-5.9606299212598426
40
0.0068897637795276
0
CIRCLE
8
BLACK
10
4.7133858267716535
20
-5.8905511417322831
40
0.0068897637795276
0
CIRCLE
8
BLACK
10
4.6733858267716535
20
-5.9606299212598426
40
0.0068897637795276
0
CIRCLE
8
BLACK
10
4.6333858661417322
20
-5.8905511811023619
40
0.0068897637795276
0
CIRCLE
8
BLACK
10
5.0433070866141732
20
-5.7007874015748028
40
0.0068897637795276
0
CIRCLE
8
BLACK
10
4.9531496062992124
20
-5.7007874015748028
40
0.0068897637795276
0
CIRCLE
8
BLACK
10
4.593307086614173
20
-5.7007874015748028
40
0.0068897637795276
0
CIRCLE
8
BLACK
10
4.5031496062992122
20
-5.7007874015748028
40
0.0068897637795276
0
CIRCLE
8
BLACK
10
5.093307086614173
20
-5.9255905511811022
40
0.0068897637795276
0
CIRCLE
8
BLACK
10
4.4531496062992124
20
-5.9255905511811022
40
0.0068897637795276
0
CIRCLE
8
BLACK
10
3.7868436220472441
20
-2.3346456692913384
40
0.0068897637795276
0
CIRCLE
8
BLACK
10
3.8868436220472442
20
-2.3346456692913384
40
0.0068897637795276
0
CIRCLE
8
BLACK
10
2.6677165354330707
20
-2.3937007874015745
40
0.0068897637795276
0
CIRCLE
8
BLACK
10
2.7677165354330708
20
-2.3937007874015745
40
0.0068897637795276
0
CIRCLE
8
BLACK
10
2.6677165354330707
20
-2.4937007874015746
40
0.0068897637795276
0
CIRCLE
8
BLACK
10
2.7677165354330708
20
-2.4937007874015746
40
0.0068897637795276
0
CIRCLE
8
BLACK
10
2.6677165354330707
20
-2.5937007874015747
40
0.0068897637795276
0
CIRCLE
8
BLACK
10
2.7677165354330708
20
-2.5937007874015747
40
0.0068897637795276
0
CIRCLE
8
BLACK
10
2.6677165354330707
20
-2.6937007874015748
40
0.0068897637795276
0
CIRCLE
8
BLACK
10
2.7677165354330708
20
-2.6937007874015748
40
0.0068897637795276
0
CIRCLE
8
BLACK
10
2.6677165354330707
20
-2.7937007874015749
40
0.0068897637795276
0
CIRCLE
8
BLACK
10
2.7677165354330708
20
-2.7937007874015749
40
0.0068897637795276
0
CIRCLE
8
BLACK
10
2.6677165354330707
20
-2.8937007874015745
40
0.0068897637795276
0
CIRCLE
8
BLACK
10
2.7677165354330708
20
-2.8937007874015745
40
0.0068897637795276
0
CIRCLE
8
BLACK
10
2.6677165354330707
20
-2.9937007874015746
40
0.0068897637795276
0
CIRCLE
8
BLACK
10
2.7677165354330708
20
-2.9937007874015746
40
0.0068897637795276
0
CIRCLE
8
BLACK
10
2.6677165354330707
20
-3.0937007874015747
40
0.0068897637795276
0
CIRCLE
8
BLACK
10
2.7677165354330708
20
-3.0937007874015747
40
0.0068897637795276
0
CIRCLE
8
BLACK
10
2.6677165354330707
20
-3.1937007874015748
40
0.0068897637795276
0
CIRCLE
8
BLACK
10
2.7677165354330708
20
-3.1937007874015748
40
0.0068897637795276
0
CIRCLE
8
BLACK
10
2.6677165354330707
20
-3.2937007874015749
40
0.0068897637795276
0
CIRCLE
8
BLACK
10
2.7677165354330708
20
-3.2937007874015749
40
0.0068897637795276
0
CIRCLE
8
BLACK
10
2.6677165354330707
20
-3.3937007874015745
40
0.0068897637795276
0
CIRCLE
8
BLACK
10
2.7677165354330708
20
-3.3937007874015745
40
0.0068897637795276
0
CIRCLE
8
BLACK
10
2.6677165354330707
20
-3.4937007874015746
40
0.0068897637795276
0
CIRCLE
8
BLACK
10
2.7677165354330708
20
-3.4937007874015746
40
0.0068897637795276
0
CIRCLE
8
BLACK
10
2.6677165354330707
20
-3.5937007874015747
40
0.0068897637795276
0
CIRCLE
8
BLACK
10
2.7677165354330708
20
-3.5937007874015747
40
0.0068897637795276
0
CIRCLE
8
BLACK
10
2.6677165354330707
20
-3.6937007874015748
40
0.0068897637795276
0
CIRCLE
8
BLACK
10
2.7677165354330708
20
-3.6937007874015748
40
0.0068897637795276
0
CIRCLE
8
BLACK
10
2.6677165354330707
20
-3.7937007874015749
40
0.0068897637795276
0
CIRCLE
8
BLACK
10
2.7677165354330708
20
-3.7937007874015749
40
0.0068897637795276
0
CIRCLE
8
BLACK
10
2.6677165354330707
20
-3.8937007874015745
40
0.0068897637795276
0
CIRCLE
8
BLACK
10
2.7677165354330708
20
-3.8937007874015745
40
0.0068897637795276
0
CIRCLE
8
BLACK
10
2.6677165354330707
20
-3.9937007874015746
40
0.0068897637795276
0
CIRCLE
8
BLACK
10
2.7677165354330708
20
-3.9937007874015746
40
0.0068897637795276
0
CIRCLE
8
BLACK
10
2.6677165354330707
20
-4.0937007874015743
40
0.0068897637795276
0
CIRCLE
8
BLACK
10
2.7677165354330708
20
-4.0937007874015743
40
0.0068897637795276
0
CIRCLE
8
BLACK
10
2.6677165354330707
20
-4.1937007874015748
40
0.0068897637795276
0
CIRCLE
8
BLACK
10
2.7677165354330708
20
-4.1937007874015748
40
0.0068897637795276
0
CIRCLE
8
BLACK
10
2.6677165354330707
20
-4.2937007874015745
40
0.0068897637795276
0
CIRCLE
8
BLACK
10
2.7677165354330708
20
-4.2937007874015745
40
0.0068897637795276
0
CIRCLE
8
BLACK
10
3.7868436220472441
20
-2.4370078740157481
40
0.0068897637795276
0
CIRCLE
8
BLACK
10
3.8868436220472442
20
-2.4370078740157481
40
0.0068897637795276
0
CIRCLE
8
BLACK
10
2.7716535433070866
20
-1.7637795275590551
40
0.0068897637795276
0
CIRCLE
8
BLACK
10
3.7868436220472441
20
-2.7362204724409449
40
0.0068897637795276
0
CIRCLE
8
BLACK
10
3.8868436220472442
20
-2.7362204724409449
40
0.0068897637795276
0
CIRCLE
8
BLACK
10
4.7007874015748028
20
-4.515748031496063
40
0.0068897637795276
0
CIRCLE
8
BLACK
10
4.7007874015748028
20
-4.4157479527559058
40
0.0068897637795276
0
CIRCLE
8
BLACK
10
4.8307086614173231
20
-4.515748031496063
40
0.0068897637795276
0
CIRCLE
8
BLACK
10
4.8307086614173231
20
-4.4157480314960633
40
0.0068897637795276
0
CIRCLE
8
BLACK
10
4.8307086614173231
20
-4.3157480708661415
40
0.0068897637795276
0
CIRCLE
8
BLACK
10
2.2480314960629921
20
-5.4015748031496065
40
0.0068897637795276
0
CIRCLE
8
BLACK
10
5.6377952755905509
20
-2.2283464566929134
40
0.0068897637795276
0
CIRCLE
8
BLACK
10
5.6456692913385824
20
-5.3661417322834648
40
0.0068897637795276
0
CIRCLE
8
BLACK
10
3.5073160629921261
20
-2.336220472440945
40
0.0068897637795276
0
CIRCLE
8
BLACK
10
3.6073160629921257
20
-2.336220472440945
40
0.0068897637795276
0
CIRCLE
8
BLACK
10
3.5073160629921261
20
-2.4362204724409446
40
0.0068897637795276
0
CIRCLE
8
BLACK
10
3.6073160629921257
20
-2.4362204724409446
40
0.0068897637795276
0
CIRCLE
8
BLACK
10
3.5073160629921261
20
-2.5362204724409447
40
0.0068897637795276
0
CIRCLE
8
BLACK
10
3.6073160629921257
20
-2.5362204724409447
40
0.0068897637795276
0
CIRCLE
8
BLACK
10
3.5073160629921261
20
-2.6362204724409448
40
0.0068897637795276
0
CIRCLE
8
BLACK
10
3.6073160629921257
20
-2.6362204724409448
40
0.0068897637795276
0
CIRCLE
8
BLACK
10
3.5073160629921261
20
-2.7362204724409449
40
0.0068897637795276
0
CIRCLE
8
BLACK
10
3.6073160629921257
20
-2.7362204724409449
40
0.0068897637795276
0
CIRCLE
8
BLACK
10
5.1584971653543308
20
-2.1985236220472442
40
0.0068897637795276
0
CIRCLE
8
BLACK
10
5.0584971653543302
20
-2.1985236220472442
40
0.0068897637795276
0
CIRCLE
8
BLACK
10
5.1584971653543308
20
-2.0985236220472441
40
0.0068897637795276
0
CIRCLE
8
BLACK
10
5.0584971653543302
20
-2.0985236220472441
40
0.0068897637795276
0
CIRCLE
8
BLACK
10
5.1584971653543308
20
-1.9985236614173227
40
0.0068897637795276
0
CIRCLE
8
BLACK
10
5.0584971653543302
20
-1.998523622047244
40
0.0068897637795276
0
CIRCLE
8
BLACK
10
5.1584971653543308
20
-1.8985236220472441
40
0.0068897637795276
0
CIRCLE
8
BLACK
10
5.0584971653543302
20
-1.8985236220472441
40
0.0068897637795276
0
CIRCLE
8
BLACK
10
5.1584971653543308
20
-1.798523622047244
40
0.0068897637795276
0
CIRCLE
8
BLACK
10
5.0584971653543302
20
-1.798523622047244
40
0.0068897637795276
0
CIRCLE
8
BLACK
10
2.8582677165354329
20
-5.3385826771653546
40
0.0068897637795276
0
CIRCLE
8
BLACK
10
3.2709645669291336
20
-5.7440944881889759
40
0.0068897637795276
0
CIRCLE
8
BLACK
10
3.2709645669291336
20
-5.5440945275590554
40
0.0068897637795276
0
CIRCLE
8
BLACK
10
4.0709645669291339
20
-6.0440944881889767
40
0.0068897637795276
0
CIRCLE
8
BLACK
10
4.0709645669291339
20
-5.6440944881889763
40
0.0068897637795276
0
CIRCLE
8
BLACK
10
4.0709645669291339
20
-5.2440944881889759
40
0.0068897637795276
0
CIRCLE
8
BLACK
10
3.2709645669291336
20
-5.2440944881889759
40
0.0068897637795276
0
LINE
8
BLACK
6
CONTINUOUS
10
2.8402559055118108
20
-5.7559055118110232
11
2.9189960629921261
21
-5.7559055118110232
0
ARC
8
BLACK
10
2.9189960629921261
20
-5.7362204724409445
40
0.0196850393700787
50
-90.00000000
51
90.00000000
0
LINE
8
BLACK
6
CONTINUOUS
10
2.9189960629921261
20
-5.7165354330708658
11
2.8402559055118108
21
-5.7165354330708658
0
ARC
8
BLACK
10
2.8402559055118108
20
-5.7362204724409445
40
0.0196850393700787
50
90.00000000
51
270.00000000
0
LINE
8
BLACK
6
CONTINUOUS
10
2.8402559055118108
20
-5.9921259842519685
11
2.9189960629921261
21
-5.9921259842519685
0
ARC
8
BLACK
10
2.9189960629921261
20
-5.9724409448818898
40
0.0196850393700787
50
-90.00000000
51
90.00000000
0
LINE
8
BLACK
6
CONTINUOUS
10
2.9189960629921261
20
-5.9527559055118111
11
2.8402559055118108
21
-5.9527559055118111
0
ARC
8
BLACK
10
2.8402559055118108
20
-5.9724409448818898
40
0.0196850393700787
50
90.00000000
51
270.00000000
0
LINE
8
BLACK
6
CONTINUOUS
10
2.7142716535433071
20
-5.893700787401575
11
2.7142716535433071
21
-5.8149606299212593
0
ARC
8
BLACK
10
2.6945866141732284
20
-5.8149606299212593
40
0.0196850393700787
50
0.00000000
51
180.00000000
0
LINE
8
BLACK
6
CONTINUOUS
10
2.6749015748031497
20
-5.8149606299212593
11
2.6749015748031497
21
-5.893700787401575
0
ARC
8
BLACK
10
2.6945866141732284
20
-5.893700787401575
40
0.0196850393700787
50
180.00000000
51
360.00000000
  0
ENDSEC
  0
EOF
