  0
SECTION
  2
HEADER
  9
$ANGBASE
  50
0.0
  9
$ANGDIR
  70
1
  9
$MEASUREMENT
  70
0
  9
$INSUNITS
  70
1
  0
ENDSEC
  0
SECTION
  2
TABLES
  0
TABLE
  2
LTYPE
  70
4
  0
LTYPE
  5
40F
  2
CONTINUOUS
  70
0
  3
Solid line
  72
65
  73
0
  40
0.0
  0
LTYPE
  5
410
  2
DASHDOT
 70
0
  3
Dash Dot ____ _ ____ _
 72
65
 73
4
 40
2.0
 49
1.25
 49
-0.25
 49
0.25
 49
-0.25
  0
LTYPE
  5
411
  2
DASHED
 70
0
  3
Dashed __ __ __ __ __
 72
65
 73
2
 40
0.75
 49
0.5
 49
-0.25
  0
LTYPE
  5
43B
  2
DOTTED
 70
0
  3
Dotted .  .  .  .
 72
65
 73
2
 40
0.2
 49
0.0
 49
-0.2
  0
ENDTAB
  0
TABLE
  2
STYLE
  70
4
  0
STYLE
  2
KICAD
  70
0
  40
0
  41
1
  42
1
  50
0
  71
0
  3
isocp.shx
  0
STYLE
  2
KICADB
  70
0
  40
0
  41
1
  42
1
  50
0
  71
0
  3
isocp.shx
  0
STYLE
  2
KICADI
  70
0
  40
0
  41
1
  42
1
  50
15
  71
0
  3
isocp.shx
  0
STYLE
  2
KICADBI
  70
0
  40
0
  41
1
  42
1
  50
15
  71
0
  3
isocp.shx
  0
ENDTAB
  0
TABLE
  2
LAYER
  70
1
  0
LAYER
  2
BLACK
  70
0
  62
250
  6
CONTINUOUS
  0
ENDTAB
  0
ENDSEC
  0
SECTION
  2
ENTITIES
0
LINE
8
BLACK
6
CONTINUOUS
10
-0.976236653543307
20
0.4244503543307087
11
-0.976086811023622
21
0.4236970472440945
0
LINE
8
BLACK
6
CONTINUOUS
10
-0.976086811023622
20
0.4236970472440945
11
-0.976086811023622
21
0.4041994881889764
0
LINE
8
BLACK
6
CONTINUOUS
10
-0.976086811023622
20
0.4041994881889764
11
-0.976236653543307
21
0.4034461811023622
0
LINE
8
BLACK
6
CONTINUOUS
10
-0.976236653543307
20
0.4034461811023622
11
-0.9773020078740158
21
0.4023808267716535
0
LINE
8
BLACK
6
CONTINUOUS
10
-0.9773020078740158
20
0.4023808267716535
11
-0.9788086220472441
21
0.4023808267716535
0
LINE
8
BLACK
6
CONTINUOUS
10
-0.9788086220472441
20
0.4023808267716535
11
-0.9798739763779527
21
0.4034461811023622
0
LINE
8
BLACK
6
CONTINUOUS
10
-0.9798739763779527
20
0.4034461811023622
11
-0.9800238188976378
21
0.4041994881889764
0
LINE
8
BLACK
6
CONTINUOUS
10
-0.9800238188976378
20
0.4041994881889764
11
-0.9800238188976378
21
0.41894468503937
0
LINE
8
BLACK
6
CONTINUOUS
10
-0.9800238188976378
20
0.41894468503937
11
-0.9946611417322835
21
0.4043073622047244
0
LINE
8
BLACK
6
CONTINUOUS
10
-0.9946611417322835
20
0.4043073622047244
11
-0.9947431102362204
21
0.4042526377952756
0
LINE
8
BLACK
6
CONTINUOUS
10
-0.9947431102362204
20
0.4042526377952756
11
-0.9947633070866142
21
0.4042121653543307
0
LINE
8
BLACK
6
CONTINUOUS
10
-0.9947633070866142
20
0.4042121653543307
11
-0.995037559055118
21
0.4040558661417323
0
LINE
8
BLACK
6
CONTINUOUS
10
-0.995037559055118
20
0.4040558661417323
11
-0.9952997637795276
21
0.4038806299212598
0
LINE
8
BLACK
6
CONTINUOUS
10
-0.9952997637795276
20
0.4038806299212598
11
-0.9953449606299213
21
0.4038806299212598
0
LINE
8
BLACK
6
CONTINUOUS
10
-0.9953449606299213
20
0.4038806299212598
11
-0.9954305905511811
21
0.403831811023622
0
LINE
8
BLACK
6
CONTINUOUS
10
-0.9954305905511811
20
0.403831811023622
11
-0.9999300393700787
21
0.4023320078740157
0
LINE
8
BLACK
6
CONTINUOUS
10
-0.9999300393700787
20
0.4023320078740157
11
-1.0002429921259843
21
0.4022925590551181
0
LINE
8
BLACK
6
CONTINUOUS
10
-1.0002429921259843
20
0.4022925590551181
11
-1.0005525196850393
21
0.4022309842519685
0
LINE
8
BLACK
6
CONTINUOUS
10
-1.0005525196850393
20
0.4022309842519685
11
-1.0035521259842519
21
0.4022309842519685
0
LINE
8
BLACK
6
CONTINUOUS
10
-1.0035521259842519
20
0.4022309842519685
11
-1.0036488582677165
21
0.4022502362204725
0
LINE
8
BLACK
6
CONTINUOUS
10
-1.0036488582677165
20
0.4022502362204725
11
-1.0036916535433071
21
0.4022359448818897
0
LINE
8
BLACK
6
CONTINUOUS
10
-1.0036916535433071
20
0.4022359448818897
11
-1.0039959842519686
21
0.4023192913385827
0
LINE
8
BLACK
6
CONTINUOUS
10
-1.0039959842519686
20
0.4023192913385827
11
-1.0043054330708661
21
0.4023808267716535
0
LINE
8
BLACK
6
CONTINUOUS
10
-1.0043054330708661
20
0.4023808267716535
11
-1.0043373622047245
21
0.4024127559055118
0
LINE
8
BLACK
6
CONTINUOUS
10
-1.0043373622047245
20
0.4024127559055118
11
-1.0044324409448819
21
0.402438779527559
0
LINE
8
BLACK
6
CONTINUOUS
10
-1.0044324409448819
20
0.402438779527559
11
-1.0074320866141733
21
0.4039386220472441
0
LINE
8
BLACK
6
CONTINUOUS
10
-1.0074320866141733
20
0.4039386220472441
11
-1.0076809842519685
21
0.4041318110236221
0
LINE
8
BLACK
6
CONTINUOUS
10
-1.0076809842519685
20
0.4041318110236221
11
-1.0079437401574802
21
0.4043073622047244
0
LINE
8
BLACK
6
CONTINUOUS
10
-1.0079437401574802
20
0.4043073622047244
11
-1.0094435039370078
21
0.4058071653543307
0
LINE
8
BLACK
6
CONTINUOUS
10
-1.0094435039370078
20
0.4058071653543307
11
-1.0096188188976378
21
0.4060694881889764
0
LINE
8
BLACK
6
CONTINUOUS
10
-1.0096188188976378
20
0.4060694881889764
11
-1.0098122440944881
21
0.4063187401574803
0
LINE
8
BLACK
6
CONTINUOUS
10
-1.0098122440944881
20
0.4063187401574803
11
-1.0113120472440944
21
0.4093184251968504
0
LINE
8
BLACK
6
CONTINUOUS
10
-1.0113120472440944
20
0.4093184251968504
11
-1.0113381102362204
21
0.4094135039370079
0
LINE
8
BLACK
6
CONTINUOUS
10
-1.0113381102362204
20
0.4094135039370079
11
-1.0113700393700786
21
0.4094454330708661
0
LINE
8
BLACK
6
CONTINUOUS
10
-1.0113700393700786
20
0.4094454330708661
11
-1.011431653543307
21
0.4097551181102362
0
LINE
8
BLACK
6
CONTINUOUS
10
-1.011431653543307
20
0.4097551181102362
11
-1.0115149212598424
21
0.4100592125984252
0
LINE
8
BLACK
6
CONTINUOUS
10
-1.0115149212598424
20
0.4100592125984252
11
-1.0115006692913386
21
0.4101020472440945
0
LINE
8
BLACK
6
CONTINUOUS
10
-1.0115006692913386
20
0.4101020472440945
11
-1.0115198818897637
21
0.4101987401574803
0
LINE
8
BLACK
6
CONTINUOUS
10
-1.0115198818897637
20
0.4101987401574803
11
-1.0115198818897637
21
0.4176977952755905
0
LINE
8
BLACK
6
CONTINUOUS
10
-1.0115198818897637
20
0.4176977952755905
11
-1.0115006692913386
21
0.4177945275590551
0
LINE
8
BLACK
6
CONTINUOUS
10
-1.0115006692913386
20
0.4177945275590551
11
-1.0115149212598424
21
0.4178373622047244
0
LINE
8
BLACK
6
CONTINUOUS
10
-1.0115149212598424
20
0.4178373622047244
11
-1.0114316141732282
21
0.4181416141732283
0
LINE
8
BLACK
6
CONTINUOUS
10
-1.0114316141732282
20
0.4181416141732283
11
-1.0113700393700786
21
0.4184511023622047
0
LINE
8
BLACK
6
CONTINUOUS
10
-1.0113700393700786
20
0.4184511023622047
11
-1.0113381102362204
21
0.4184830708661417
0
LINE
8
BLACK
6
CONTINUOUS
10
-1.0113381102362204
20
0.4184830708661417
11
-1.0113120472440944
21
0.4185781496062992
0
LINE
8
BLACK
6
CONTINUOUS
10
-1.0113120472440944
20
0.4185781496062992
11
-1.0098122440944881
21
0.4215777559055118
0
LINE
8
BLACK
6
CONTINUOUS
10
-1.0098122440944881
20
0.4215777559055118
11
-1.0096188976377953
21
0.4218269291338583
0
LINE
8
BLACK
6
CONTINUOUS
10
-1.0096188976377953
20
0.4218269291338583
11
-1.0094435433070865
21
0.4220893307086614
0
LINE
8
BLACK
6
CONTINUOUS
10
-1.0094435433070865
20
0.4220893307086614
11
-1.0079437401574802
21
0.4235891732283464
0
LINE
8
BLACK
6
CONTINUOUS
10
-1.0079437401574802
20
0.4235891732283464
11
-1.0073051181102362
21
0.4240158661417323
0
LINE
8
BLACK
6
CONTINUOUS
10
-1.0073051181102362
20
0.4240158661417323
11
-1.0057984645669291
21
0.424015905511811
0
LINE
8
BLACK
6
CONTINUOUS
10
-1.0057984645669291
20
0.424015905511811
11
-1.0047331496062992
21
0.4229505905511811
0
LINE
8
BLACK
6
CONTINUOUS
10
-1.0047331496062992
20
0.4229505905511811
11
-1.0047331102362205
21
0.421443937007874
0
LINE
8
BLACK
6
CONTINUOUS
10
-1.0047331102362205
20
0.421443937007874
11
-1.0051598031496063
21
0.4208053149606299
0
LINE
8
BLACK
6
CONTINUOUS
10
-1.0051598031496063
20
0.4208053149606299
11
-1.0064337795275591
21
0.4195313385826772
0
LINE
8
BLACK
6
CONTINUOUS
10
-1.0064337795275591
20
0.4195313385826772
11
-1.007582874015748
21
0.4172331102362205
0
LINE
8
BLACK
6
CONTINUOUS
10
-1.007582874015748
20
0.4172331102362205
11
-1.007582874015748
21
0.4106634251968504
0
LINE
8
BLACK
6
CONTINUOUS
10
-1.007582874015748
20
0.4106634251968504
11
-1.0064337401574803
21
0.4083651181102362
0
LINE
8
BLACK
6
CONTINUOUS
10
-1.0064337401574803
20
0.4083651181102362
11
-1.0053856692913385
21
0.4073170866141732
0
LINE
8
BLACK
6
CONTINUOUS
10
-1.0053856692913385
20
0.4073170866141732
11
-1.0030874409448818
21
0.4061679921259843
0
LINE
8
BLACK
6
CONTINUOUS
10
-1.0030874409448818
20
0.4061679921259843
11
-1.0008719291338581
21
0.4061679921259843
0
LINE
8
BLACK
6
CONTINUOUS
10
-1.0008719291338581
20
0.4061679921259843
11
-0.9971164173228346
21
0.407419842519685
0
LINE
8
BLACK
6
CONTINUOUS
10
-0.9971164173228346
20
0.407419842519685
11
-0.9794472440944881
21
0.4250889763779527
0
LINE
8
BLACK
6
CONTINUOUS
10
-0.9794472440944881
20
0.4250889763779527
11
-0.9788086220472441
21
0.4255157086614173
0
LINE
8
BLACK
6
CONTINUOUS
10
-0.9788086220472441
20
0.4255157086614173
11
-0.9773020078740158
21
0.4255157086614173
0
LINE
8
BLACK
6
CONTINUOUS
10
-0.9773020078740158
20
0.4255157086614173
11
-0.976236653543307
21
0.4244503543307087
0
LINE
8
BLACK
6
CONTINUOUS
10
-0.976236653543307
20
0.4484473622047244
11
-0.976086811023622
21
0.4476940551181102
0
LINE
8
BLACK
6
CONTINUOUS
10
-0.976086811023622
20
0.4476940551181102
11
-0.976086811023622
21
0.4446944094488189
0
LINE
8
BLACK
6
CONTINUOUS
10
-0.976086811023622
20
0.4446944094488189
11
-0.9761483858267717
21
0.4443848818897638
0
LINE
8
BLACK
6
CONTINUOUS
10
-0.9761483858267717
20
0.4443848818897638
11
-0.9761878346456693
21
0.4440719291338582
0
LINE
8
BLACK
6
CONTINUOUS
10
-0.9761878346456693
20
0.4440719291338582
11
-0.9776876377952756
21
0.4395725196850394
0
LINE
8
BLACK
6
CONTINUOUS
10
-0.9776876377952756
20
0.4395725196850394
11
-0.9777364566929133
21
0.4394868897637795
0
LINE
8
BLACK
6
CONTINUOUS
10
-0.9777364566929133
20
0.4394868897637795
11
-0.9777364566929133
21
0.4394416535433071
0
LINE
8
BLACK
6
CONTINUOUS
10
-0.9777364566929133
20
0.4394416535433071
11
-0.9779118503937008
21
0.4391792125984252
0
LINE
8
BLACK
6
CONTINUOUS
10
-0.9779118503937008
20
0.4391792125984252
11
-0.9780679921259843
21
0.4389052362204725
0
LINE
8
BLACK
6
CONTINUOUS
10
-0.9780679921259843
20
0.4389052362204725
11
-0.9781084251968504
21
0.4388850393700787
0
LINE
8
BLACK
6
CONTINUOUS
10
-0.9781084251968504
20
0.4388850393700787
11
-0.9781631889763779
21
0.438803031496063
0
LINE
8
BLACK
6
CONTINUOUS
10
-0.9781631889763779
20
0.438803031496063
11
-0.9811628346456692
21
0.4358034251968504
0
LINE
8
BLACK
6
CONTINUOUS
10
-0.9811628346456692
20
0.4358034251968504
11
-0.9812448031496063
21
0.4357487007874016
0
LINE
8
BLACK
6
CONTINUOUS
10
-0.9812448031496063
20
0.4357487007874016
11
-0.9812649999999999
21
0.4357082283464567
0
LINE
8
BLACK
6
CONTINUOUS
10
-0.9812649999999999
20
0.4357082283464567
11
-0.9815392519685039
21
0.4355519291338583
0
LINE
8
BLACK
6
CONTINUOUS
10
-0.9815392519685039
20
0.4355519291338583
11
-0.9818014566929134
21
0.4353766929133858
0
LINE
8
BLACK
6
CONTINUOUS
10
-0.9818014566929134
20
0.4353766929133858
11
-0.981846653543307
21
0.4353766929133858
0
LINE
8
BLACK
6
CONTINUOUS
10
-0.981846653543307
20
0.4353766929133858
11
-0.981932283464567
21
0.435327874015748
0
LINE
8
BLACK
6
CONTINUOUS
10
-0.981932283464567
20
0.435327874015748
11
-0.9864317322834646
21
0.4338280708661417
0
LINE
8
BLACK
6
CONTINUOUS
10
-0.9864317322834646
20
0.4338280708661417
11
-0.9867446850393701
21
0.4337886220472441
0
LINE
8
BLACK
6
CONTINUOUS
10
-0.9867446850393701
20
0.4337886220472441
11
-0.9870542125984252
21
0.4337270472440945
0
LINE
8
BLACK
6
CONTINUOUS
10
-0.9870542125984252
20
0.4337270472440945
11
-1.0095513779527558
21
0.4337270472440945
0
LINE
8
BLACK
6
CONTINUOUS
10
-1.0095513779527558
20
0.4337270472440945
11
-1.01030468503937
21
0.4338768897637795
0
LINE
8
BLACK
6
CONTINUOUS
10
-1.01030468503937
20
0.4338768897637795
11
-1.0113700393700786
21
0.4349422440944882
0
LINE
8
BLACK
6
CONTINUOUS
10
-1.0113700393700786
20
0.4349422440944882
11
-1.0113700393700786
21
0.4364488582677165
0
LINE
8
BLACK
6
CONTINUOUS
10
-1.0113700393700786
20
0.4364488582677165
11
-1.01030468503937
21
0.4375142125984252
0
LINE
8
BLACK
6
CONTINUOUS
10
-1.01030468503937
20
0.4375142125984252
11
-1.0095513779527558
21
0.4376640551181102
0
LINE
8
BLACK
6
CONTINUOUS
10
-1.0095513779527558
20
0.4376640551181102
11
-0.9873736220472441
21
0.4376640551181102
0
LINE
8
BLACK
6
CONTINUOUS
10
-0.9873736220472441
20
0.4376640551181102
11
-0.9836181102362205
21
0.438915905511811
0
LINE
8
BLACK
6
CONTINUOUS
10
-0.9836181102362205
20
0.438915905511811
11
-0.9812756692913386
21
0.4412583858267716
0
LINE
8
BLACK
6
CONTINUOUS
10
-0.9812756692913386
20
0.4412583858267716
11
-0.9800238188976378
21
0.4450138188976378
0
LINE
8
BLACK
6
CONTINUOUS
10
-0.9800238188976378
20
0.4450138188976378
11
-0.9800238188976378
21
0.4476940551181102
0
LINE
8
BLACK
6
CONTINUOUS
10
-0.9800238188976378
20
0.4476940551181102
11
-0.9798739763779527
21
0.4484473622047244
0
LINE
8
BLACK
6
CONTINUOUS
10
-0.9798739763779527
20
0.4484473622047244
11
-0.9788086220472441
21
0.4495127165354331
0
LINE
8
BLACK
6
CONTINUOUS
10
-0.9788086220472441
20
0.4495127165354331
11
-0.9773020078740158
21
0.4495127165354331
0
LINE
8
BLACK
6
CONTINUOUS
10
-0.9773020078740158
20
0.4495127165354331
11
-0.976236653543307
21
0.4484473622047244
0
LINE
8
BLACK
6
CONTINUOUS
10
-0.9272935826771653
20
0.5781450787401574
11
-0.9268853543307086
21
0.5763838188976378
0
LINE
8
BLACK
6
CONTINUOUS
10
-0.9268853543307086
20
0.5763838188976378
11
-0.9272111417322835
21
0.5755216535433071
0
LINE
8
BLACK
6
CONTINUOUS
10
-0.9272111417322835
20
0.5755216535433071
11
-0.9398455118110236
21
0.5552632677165354
0
LINE
8
BLACK
6
CONTINUOUS
10
-0.9398455118110236
20
0.5552632677165354
11
-0.9297500787401575
21
0.5445292125984252
0
LINE
8
BLACK
6
CONTINUOUS
10
-0.9297500787401575
20
0.5445292125984252
11
-0.9293431496062992
21
0.5438778346456693
0
LINE
8
BLACK
6
CONTINUOUS
10
-0.9293431496062992
20
0.5438778346456693
11
-0.9293892913385826
21
0.5423718897637795
0
LINE
8
BLACK
6
CONTINUOUS
10
-0.9293892913385826
20
0.5423718897637795
11
-0.9294291338582676
21
0.5423344881889763
0
LINE
8
BLACK
6
CONTINUOUS
10
-0.9294291338582676
20
0.5423344881889763
11
-0.9294291338582676
21
0.0067749606299213
0
LINE
8
BLACK
6
CONTINUOUS
10
-0.9294291338582676
20
0.0067749606299213
11
-0.9272111417322835
21
0.0032185433070866
0
LINE
8
BLACK
6
CONTINUOUS
10
-0.9272111417322835
20
0.0032185433070866
11
-0.9268853543307086
21
0.0023563779527559
0
LINE
8
BLACK
6
CONTINUOUS
10
-0.9268853543307086
20
0.0023563779527559
11
-0.9272935826771653
21
0.0005951181102362
0
LINE
8
BLACK
6
CONTINUOUS
10
-0.9272935826771653
20
0.0005951181102362
11
-0.9288276377952756
21
-0.0003616141732283
0
LINE
8
BLACK
6
CONTINUOUS
10
-0.9288276377952756
20
-0.0003616141732283
11
-0.930588937007874
21
0.0000466141732283
0
LINE
8
BLACK
6
CONTINUOUS
10
-0.930588937007874
20
0.0000466141732283
11
-0.931219842519685
21
0.0007185039370079
0
LINE
8
BLACK
6
CONTINUOUS
10
-0.931219842519685
20
0.0007185039370079
11
-0.9319994488188976
21
0.0019685433070866
0
LINE
8
BLACK
6
CONTINUOUS
10
-0.9319994488188976
20
0.0019685433070866
11
-1.2849128740157481
21
0.0019685433070866
0
LINE
8
BLACK
6
CONTINUOUS
10
-1.2849128740157481
20
0.0019685433070866
11
-1.2856924803149605
21
0.0007185039370079
0
LINE
8
BLACK
6
CONTINUOUS
10
-1.2856924803149605
20
0.0007185039370079
11
-1.2863234251968503
21
0.0000466141732283
0
LINE
8
BLACK
6
CONTINUOUS
10
-1.2863234251968503
20
0.0000466141732283
11
-1.2880846850393701
21
-0.0003616141732283
0
LINE
8
BLACK
6
CONTINUOUS
10
-1.2880846850393701
20
-0.0003616141732283
11
-1.2896187795275591
21
0.0005951181102362
0
LINE
8
BLACK
6
CONTINUOUS
10
-1.2896187795275591
20
0.0005951181102362
11
-1.2900270078740157
21
0.0023563779527559
0
LINE
8
BLACK
6
CONTINUOUS
10
-1.2900270078740157
20
0.0023563779527559
11
-1.289701220472441
21
0.0032185826771654
0
LINE
8
BLACK
6
CONTINUOUS
10
-1.289701220472441
20
0.0032185826771654
11
-1.2876968503937007
21
0.0064324803149606
0
LINE
8
BLACK
6
CONTINUOUS
10
-1.2876968503937007
20
0.0064324803149606
11
-1.2876968503937007
21
0.5723077559055118
0
LINE
8
BLACK
6
CONTINUOUS
10
-1.2876968503937007
20
0.5723077559055118
11
-1.289701220472441
21
0.5755216141732283
0
LINE
8
BLACK
6
CONTINUOUS
10
-1.289701220472441
20
0.5755216141732283
11
-1.2900270078740157
21
0.5763838188976378
0
LINE
8
BLACK
6
CONTINUOUS
10
-1.2900270078740157
20
0.5763838188976378
11
-1.2896187795275591
21
0.5781450787401574
0
LINE
8
BLACK
6
CONTINUOUS
10
-1.2896187795275591
20
0.5781450787401574
11
-1.2880846850393701
21
0.579101811023622
0
LINE
8
BLACK
6
CONTINUOUS
10
-1.2880846850393701
20
0.579101811023622
11
-1.2863234251968503
21
0.5786935826771653
0
LINE
8
BLACK
6
CONTINUOUS
10
-1.2863234251968503
20
0.5786935826771653
11
-1.2856924803149605
21
0.5780216929133858
0
LINE
8
BLACK
6
CONTINUOUS
10
-1.2856924803149605
20
0.5780216929133858
11
-1.2849128740157481
21
0.5767716535433071
0
LINE
8
BLACK
6
CONTINUOUS
10
-1.2849128740157481
20
0.5767716535433071
11
-0.9609251968503937
21
0.5767716535433071
0
LINE
8
BLACK
6
CONTINUOUS
10
-0.9609251968503937
20
0.5767716535433071
11
-0.9601718897637795
21
0.5766218110236221
0
LINE
8
BLACK
6
CONTINUOUS
10
-0.9601718897637795
20
0.5766218110236221
11
-0.9601489763779527
21
0.5765988976377953
0
LINE
8
BLACK
6
CONTINUOUS
10
-0.9601489763779527
20
0.5765988976377953
11
-0.9601164960629921
21
0.576597874015748
0
LINE
8
BLACK
6
CONTINUOUS
10
-0.9601164960629921
20
0.576597874015748
11
-0.9594912598425197
21
0.5761517716535433
0
LINE
8
BLACK
6
CONTINUOUS
10
-0.9594912598425197
20
0.5761517716535433
11
-0.9431933858267716
21
0.5588229133858268
0
LINE
8
BLACK
6
CONTINUOUS
10
-0.9431933858267716
20
0.5588229133858268
11
-0.931219842519685
21
0.5780216929133858
0
LINE
8
BLACK
6
CONTINUOUS
10
-0.931219842519685
20
0.5780216929133858
11
-0.930588937007874
21
0.5786935826771653
0
LINE
8
BLACK
6
CONTINUOUS
10
-0.930588937007874
20
0.5786935826771653
11
-0.9288276377952756
21
0.579101811023622
0
LINE
8
BLACK
6
CONTINUOUS
10
-0.9288276377952756
20
0.579101811023622
11
-0.9272935826771653
21
0.5781450787401574
0
LINE
8
BLACK
6
CONTINUOUS
10
-1.198975590551181
20
0.1397637795275591
11
-1.2824575196850394
21
0.0059055511811024
0
LINE
8
BLACK
6
CONTINUOUS
10
-1.2824575196850394
20
0.0059055511811024
11
-0.9344548031496063
21
0.0059055511811024
0
LINE
8
BLACK
6
CONTINUOUS
10
-0.9344548031496063
20
0.0059055511811024
11
-1.0179367322834645
21
0.1397637795275591
0
LINE
8
BLACK
6
CONTINUOUS
10
-1.0179367322834645
20
0.1397637795275591
11
-1.198975590551181
21
0.1397637795275591
0
LINE
8
BLACK
6
CONTINUOUS
10
-1.283759842519685
20
0.1397637795275591
11
-1.283759842519685
21
0.0127452362204724
0
LINE
8
BLACK
6
CONTINUOUS
10
-1.283759842519685
20
0.0127452362204724
11
-1.2045435039370078
21
0.1397637795275591
0
LINE
8
BLACK
6
CONTINUOUS
10
-1.2045435039370078
20
0.1397637795275591
11
-1.283759842519685
21
0.1397637795275591
0
LINE
8
BLACK
6
CONTINUOUS
10
-1.0123688582677166
20
0.1397637795275591
11
-0.9333661417322835
21
0.0130877165354331
0
LINE
8
BLACK
6
CONTINUOUS
10
-0.9333661417322835
20
0.0130877165354331
11
-0.9333661417322835
21
0.1397637795275591
0
LINE
8
BLACK
6
CONTINUOUS
10
-0.9333661417322835
20
0.1397637795275591
11
-1.0123688582677166
21
0.1397637795275591
0
LINE
8
BLACK
6
CONTINUOUS
10
-1.283759842519685
20
0.1437007874015748
11
-1.2020881496062992
21
0.1437007874015748
0
LINE
8
BLACK
6
CONTINUOUS
10
-1.2020881496062992
20
0.1437007874015748
11
-1.111240157480315
21
0.2893701181102362
0
LINE
8
BLACK
6
CONTINUOUS
10
-1.111240157480315
20
0.2893701181102362
11
-1.283759842519685
21
0.565995
0
LINE
8
BLACK
6
CONTINUOUS
10
-1.283759842519685
20
0.565995
11
-1.283759842519685
21
0.1437007874015748
0
LINE
8
BLACK
6
CONTINUOUS
10
-1.1965202362204723
20
0.1437007874015748
11
-1.0203920866141731
21
0.1437007874015748
0
LINE
8
BLACK
6
CONTINUOUS
10
-1.0203920866141731
20
0.1437007874015748
11
-1.1084561811023621
21
0.284906220472441
0
LINE
8
BLACK
6
CONTINUOUS
10
-1.1084561811023621
20
0.284906220472441
11
-1.1965202362204723
21
0.1437007874015748
0
LINE
8
BLACK
6
CONTINUOUS
10
-1.1056722440944882
20
0.2893701181102362
11
-1.0148242125984253
21
0.1437007874015748
0
LINE
8
BLACK
6
CONTINUOUS
10
-1.0148242125984253
20
0.1437007874015748
11
-0.9333661417322835
21
0.1437007874015748
0
LINE
8
BLACK
6
CONTINUOUS
10
-0.9333661417322835
20
0.1437007874015748
11
-0.9333661417322835
21
0.5426274803149607
0
LINE
8
BLACK
6
CONTINUOUS
10
-0.9333661417322835
20
0.5426274803149607
11
-0.9420004330708661
21
0.5518079527559056
0
LINE
8
BLACK
6
CONTINUOUS
10
-0.9420004330708661
20
0.5518079527559056
11
-1.1056722440944882
21
0.2893701181102362
0
LINE
8
BLACK
6
CONTINUOUS
10
-1.2824575196850394
20
0.5728346456692913
11
-1.1084561811023621
21
0.2938340157480315
0
LINE
8
BLACK
6
CONTINUOUS
10
-1.1084561811023621
20
0.2938340157480315
11
-0.9453483070866141
21
0.5553675984251968
0
LINE
8
BLACK
6
CONTINUOUS
10
-0.9453483070866141
20
0.5553675984251968
11
-0.9617761417322834
21
0.5728346456692913
0
LINE
8
BLACK
6
CONTINUOUS
10
-0.9617761417322834
20
0.5728346456692913
11
-1.2824575196850394
21
0.5728346456692913
0
LINE
8
BLACK
6
CONTINUOUS
10
-0.8769083070866142
20
0.0985565748031496
11
-0.8758429527559055
21
0.0974912204724409
0
LINE
8
BLACK
6
CONTINUOUS
10
-0.8758429527559055
20
0.0974912204724409
11
-0.8758429527559055
21
0.0959846062992126
0
LINE
8
BLACK
6
CONTINUOUS
10
-0.8758429527559055
20
0.0959846062992126
11
-0.8769083070866142
21
0.0949192519685039
0
LINE
8
BLACK
6
CONTINUOUS
10
-0.8769083070866142
20
0.0949192519685039
11
-0.8776616141732283
21
0.0947694094488189
0
LINE
8
BLACK
6
CONTINUOUS
10
-0.8776616141732283
20
0.0947694094488189
11
-0.8948439763779528
21
0.0947694094488189
0
LINE
8
BLACK
6
CONTINUOUS
10
-0.8948439763779528
20
0.0947694094488189
11
-0.8955413385826771
21
0.094072125984252
0
LINE
8
BLACK
6
CONTINUOUS
10
-0.8955413385826771
20
0.094072125984252
11
-0.8966905118110235
21
0.0917738188976378
0
LINE
8
BLACK
6
CONTINUOUS
10
-0.8966905118110235
20
0.0917738188976378
11
-0.8966905118110235
21
0.088203779527559
0
LINE
8
BLACK
6
CONTINUOUS
10
-0.8966905118110235
20
0.088203779527559
11
-0.895691968503937
21
0.0862066535433071
0
LINE
8
BLACK
6
CONTINUOUS
10
-0.895691968503937
20
0.0862066535433071
11
-0.8936948818897638
21
0.0852081102362205
0
LINE
8
BLACK
6
CONTINUOUS
10
-0.8936948818897638
20
0.0852081102362205
11
-0.8776616141732283
21
0.0852081102362205
0
LINE
8
BLACK
6
CONTINUOUS
10
-0.8776616141732283
20
0.0852081102362205
11
-0.8769083070866142
21
0.0850582677165354
0
LINE
8
BLACK
6
CONTINUOUS
10
-0.8769083070866142
20
0.0850582677165354
11
-0.8758429527559055
21
0.0839929133858268
0
LINE
8
BLACK
6
CONTINUOUS
10
-0.8758429527559055
20
0.0839929133858268
11
-0.8758429527559055
21
0.0824862992125984
0
LINE
8
BLACK
6
CONTINUOUS
10
-0.8758429527559055
20
0.0824862992125984
11
-0.8769083070866142
21
0.0814209448818898
0
LINE
8
BLACK
6
CONTINUOUS
10
-0.8769083070866142
20
0.0814209448818898
11
-0.8776616141732283
21
0.0812711023622047
0
LINE
8
BLACK
6
CONTINUOUS
10
-0.8776616141732283
20
0.0812711023622047
11
-0.8941595669291338
21
0.0812711023622047
0
LINE
8
BLACK
6
CONTINUOUS
10
-0.8941595669291338
20
0.0812711023622047
11
-0.8942562992125984
21
0.0812903543307087
0
LINE
8
BLACK
6
CONTINUOUS
10
-0.8942562992125984
20
0.0812903543307087
11
-0.8942991338582676
21
0.081276062992126
0
LINE
8
BLACK
6
CONTINUOUS
10
-0.8942991338582676
20
0.081276062992126
11
-0.8946033858267717
21
0.0813594094488189
0
LINE
8
BLACK
6
CONTINUOUS
10
-0.8946033858267717
20
0.0813594094488189
11
-0.894912874015748
21
0.0814209448818898
0
LINE
8
BLACK
6
CONTINUOUS
10
-0.894912874015748
20
0.0814209448818898
11
-0.894944842519685
21
0.0814529133858268
0
LINE
8
BLACK
6
CONTINUOUS
10
-0.894944842519685
20
0.0814529133858268
11
-0.8950399212598426
21
0.081478937007874
0
LINE
8
BLACK
6
CONTINUOUS
10
-0.8950399212598426
20
0.081478937007874
11
-0.8980395275590551
21
0.0829787401574803
0
LINE
8
BLACK
6
CONTINUOUS
10
-0.8980395275590551
20
0.0829787401574803
11
-0.8983492125984252
21
0.083219094488189
0
LINE
8
BLACK
6
CONTINUOUS
10
-0.8983492125984252
20
0.083219094488189
11
-0.898448937007874
21
0.0832523228346457
0
LINE
8
BLACK
6
CONTINUOUS
10
-0.898448937007874
20
0.0832523228346457
11
-0.8985351181102362
21
0.0833633858267716
0
LINE
8
BLACK
6
CONTINUOUS
10
-0.8985351181102362
20
0.0833633858267716
11
-0.8986462992125984
21
0.0834496456692913
0
LINE
8
BLACK
6
CONTINUOUS
10
-0.8986462992125984
20
0.0834496456692913
11
-0.8986796062992126
21
0.0835495275590551
0
LINE
8
BLACK
6
CONTINUOUS
10
-0.8986796062992126
20
0.0835495275590551
11
-0.898919842519685
21
0.0838590551181102
0
LINE
8
BLACK
6
CONTINUOUS
10
-0.898919842519685
20
0.0838590551181102
11
-0.9004196850393701
21
0.0868587007874016
0
LINE
8
BLACK
6
CONTINUOUS
10
-0.9004196850393701
20
0.0868587007874016
11
-0.900445748031496
21
0.0869538188976378
0
LINE
8
BLACK
6
CONTINUOUS
10
-0.900445748031496
20
0.0869538188976378
11
-0.9004776771653543
21
0.0869857480314961
0
LINE
8
BLACK
6
CONTINUOUS
10
-0.9004776771653543
20
0.0869857480314961
11
-0.9005392519685039
21
0.0872952755905512
0
LINE
8
BLACK
6
CONTINUOUS
10
-0.9005392519685039
20
0.0872952755905512
11
-0.9006225590551181
21
0.0875994881889764
0
LINE
8
BLACK
6
CONTINUOUS
10
-0.9006225590551181
20
0.0875994881889764
11
-0.9006083070866141
21
0.0876423622047244
0
LINE
8
BLACK
6
CONTINUOUS
10
-0.9006083070866141
20
0.0876423622047244
11
-0.9006275196850394
21
0.0877390551181102
0
LINE
8
BLACK
6
CONTINUOUS
10
-0.9006275196850394
20
0.0877390551181102
11
-0.9006275196850394
21
0.0922385039370079
0
LINE
8
BLACK
6
CONTINUOUS
10
-0.9006275196850394
20
0.0922385039370079
11
-0.9006083070866141
21
0.0923352362204724
0
LINE
8
BLACK
6
CONTINUOUS
10
-0.9006083070866141
20
0.0923352362204724
11
-0.9006225590551181
21
0.0923780708661417
0
LINE
8
BLACK
6
CONTINUOUS
10
-0.9006225590551181
20
0.0923780708661417
11
-0.9005392519685039
21
0.0926823228346457
0
LINE
8
BLACK
6
CONTINUOUS
10
-0.9005392519685039
20
0.0926823228346457
11
-0.9004776771653543
21
0.092991811023622
0
LINE
8
BLACK
6
CONTINUOUS
10
-0.9004776771653543
20
0.092991811023622
11
-0.900445748031496
21
0.0930237795275591
0
LINE
8
BLACK
6
CONTINUOUS
10
-0.900445748031496
20
0.0930237795275591
11
-0.9004196850393701
21
0.0931188582677165
0
LINE
8
BLACK
6
CONTINUOUS
10
-0.9004196850393701
20
0.0931188582677165
11
-0.8995943700787401
21
0.0947694094488189
0
LINE
8
BLACK
6
CONTINUOUS
10
-0.8995943700787401
20
0.0947694094488189
11
-0.9091576771653543
21
0.0947694094488189
0
LINE
8
BLACK
6
CONTINUOUS
10
-0.9091576771653543
20
0.0947694094488189
11
-0.9099109842519685
21
0.0949192519685039
0
LINE
8
BLACK
6
CONTINUOUS
10
-0.9099109842519685
20
0.0949192519685039
11
-0.9109763385826771
21
0.0959846062992126
0
LINE
8
BLACK
6
CONTINUOUS
10
-0.9109763385826771
20
0.0959846062992126
11
-0.9109763385826771
21
0.0974912204724409
0
LINE
8
BLACK
6
CONTINUOUS
10
-0.9109763385826771
20
0.0974912204724409
11
-0.9099109842519685
21
0.0985565748031496
0
LINE
8
BLACK
6
CONTINUOUS
10
-0.9099109842519685
20
0.0985565748031496
11
-0.9091576771653543
21
0.0987064173228346
0
LINE
8
BLACK
6
CONTINUOUS
10
-0.9091576771653543
20
0.0987064173228346
11
-0.8776616141732283
21
0.0987064173228346
0
LINE
8
BLACK
6
CONTINUOUS
10
-0.8776616141732283
20
0.0987064173228346
11
-0.8769083070866142
21
0.0985565748031496
0
LINE
8
BLACK
6
CONTINUOUS
10
-0.8835641732283465
20
0.1271836614173228
11
-0.8835212992125984
21
0.1271979133858268
0
LINE
8
BLACK
6
CONTINUOUS
10
-0.8835212992125984
20
0.1271979133858268
11
-0.8832170866141732
21
0.1271146062992126
0
LINE
8
BLACK
6
CONTINUOUS
10
-0.8832170866141732
20
0.1271146062992126
11
-0.8829075590551181
21
0.127053031496063
0
LINE
8
BLACK
6
CONTINUOUS
10
-0.8829075590551181
20
0.127053031496063
11
-0.8828756299212598
21
0.1270211023622047
0
LINE
8
BLACK
6
CONTINUOUS
10
-0.8828756299212598
20
0.1270211023622047
11
-0.8827805118110236
21
0.1269950393700787
0
LINE
8
BLACK
6
CONTINUOUS
10
-0.8827805118110236
20
0.1269950393700787
11
-0.879780905511811
21
0.1254951968503937
0
LINE
8
BLACK
6
CONTINUOUS
10
-0.879780905511811
20
0.1254951968503937
11
-0.8795318897637795
21
0.1253019291338583
0
LINE
8
BLACK
6
CONTINUOUS
10
-0.8795318897637795
20
0.1253019291338583
11
-0.8792693307086614
21
0.1251264960629921
0
LINE
8
BLACK
6
CONTINUOUS
10
-0.8792693307086614
20
0.1251264960629921
11
-0.8777694881889764
21
0.1236266929133858
0
LINE
8
BLACK
6
CONTINUOUS
10
-0.8777694881889764
20
0.1236266929133858
11
-0.8775942519685039
21
0.1233643700787402
0
LINE
8
BLACK
6
CONTINUOUS
10
-0.8775942519685039
20
0.1233643700787402
11
-0.877400748031496
21
0.1231150787401575
0
LINE
8
BLACK
6
CONTINUOUS
10
-0.877400748031496
20
0.1231150787401575
11
-0.8759009448818897
21
0.1201154724409449
0
LINE
8
BLACK
6
CONTINUOUS
10
-0.8759009448818897
20
0.1201154724409449
11
-0.8758749212598425
21
0.1200203937007874
0
LINE
8
BLACK
6
CONTINUOUS
10
-0.8758749212598425
20
0.1200203937007874
11
-0.8758429527559055
21
0.1199884251968504
0
LINE
8
BLACK
6
CONTINUOUS
10
-0.8758429527559055
20
0.1199884251968504
11
-0.8757814173228347
21
0.119678937007874
0
LINE
8
BLACK
6
CONTINUOUS
10
-0.8757814173228347
20
0.119678937007874
11
-0.8756980708661417
21
0.1193746850393701
0
LINE
8
BLACK
6
CONTINUOUS
10
-0.8756980708661417
20
0.1193746850393701
11
-0.8757123622047244
21
0.1193318503937008
0
LINE
8
BLACK
6
CONTINUOUS
10
-0.8757123622047244
20
0.1193318503937008
11
-0.8756931102362204
21
0.1192351181102362
0
LINE
8
BLACK
6
CONTINUOUS
10
-0.8756931102362204
20
0.1192351181102362
11
-0.8756931102362204
21
0.1132358661417323
0
LINE
8
BLACK
6
CONTINUOUS
10
-0.8756931102362204
20
0.1132358661417323
11
-0.8757123622047244
21
0.1131391732283464
0
LINE
8
BLACK
6
CONTINUOUS
10
-0.8757123622047244
20
0.1131391732283464
11
-0.8756980708661417
21
0.1130963385826772
0
LINE
8
BLACK
6
CONTINUOUS
10
-0.8756980708661417
20
0.1130963385826772
11
-0.8757814173228347
21
0.1127920472440945
0
LINE
8
BLACK
6
CONTINUOUS
10
-0.8757814173228347
20
0.1127920472440945
11
-0.8758429527559055
21
0.1124825590551181
0
LINE
8
BLACK
6
CONTINUOUS
10
-0.8758429527559055
20
0.1124825590551181
11
-0.8758748818897638
21
0.1124506692913386
0
LINE
8
BLACK
6
CONTINUOUS
10
-0.8758748818897638
20
0.1124506692913386
11
-0.875900905511811
21
0.1123555511811024
0
LINE
8
BLACK
6
CONTINUOUS
10
-0.875900905511811
20
0.1123555511811024
11
-0.877400748031496
21
0.109355905511811
0
LINE
8
BLACK
6
CONTINUOUS
10
-0.877400748031496
20
0.109355905511811
11
-0.8778716535433071
21
0.1087491338582677
0
LINE
8
BLACK
6
CONTINUOUS
10
-0.8778716535433071
20
0.1087491338582677
11
-0.8793009448818897
21
0.1082726771653543
0
LINE
8
BLACK
6
CONTINUOUS
10
-0.8793009448818897
20
0.1082726771653543
11
-0.8806485039370079
21
0.1089464566929134
0
LINE
8
BLACK
6
CONTINUOUS
10
-0.8806485039370079
20
0.1089464566929134
11
-0.8811249606299213
21
0.1103757480314961
0
LINE
8
BLACK
6
CONTINUOUS
10
-0.8811249606299213
20
0.1103757480314961
11
-0.8809220866141733
21
0.1111165354330709
0
LINE
8
BLACK
6
CONTINUOUS
10
-0.8809220866141733
20
0.1111165354330709
11
-0.8796301181102362
21
0.1137005511811024
0
LINE
8
BLACK
6
CONTINUOUS
10
-0.8796301181102362
20
0.1137005511811024
11
-0.8796301181102362
21
0.1187704330708661
0
LINE
8
BLACK
6
CONTINUOUS
10
-0.8796301181102362
20
0.1187704330708661
11
-0.8807792125984252
21
0.1210686220472441
0
LINE
8
BLACK
6
CONTINUOUS
10
-0.8807792125984252
20
0.1210686220472441
11
-0.8818273228346456
21
0.1221167322834646
0
LINE
8
BLACK
6
CONTINUOUS
10
-0.8818273228346456
20
0.1221167322834646
11
-0.8841255511811024
21
0.1232658661417323
0
LINE
8
BLACK
6
CONTINUOUS
10
-0.8841255511811024
20
0.1232658661417323
11
-0.8921950787401575
21
0.1232658661417323
0
LINE
8
BLACK
6
CONTINUOUS
10
-0.8921950787401575
20
0.1232658661417323
11
-0.8944933070866141
21
0.1221167716535433
0
LINE
8
BLACK
6
CONTINUOUS
10
-0.8944933070866141
20
0.1221167716535433
11
-0.8955413385826771
21
0.1210687401574803
0
LINE
8
BLACK
6
CONTINUOUS
10
-0.8955413385826771
20
0.1210687401574803
11
-0.8966905118110235
21
0.1187704330708661
0
LINE
8
BLACK
6
CONTINUOUS
10
-0.8966905118110235
20
0.1187704330708661
11
-0.8966905118110235
21
0.1137005905511811
0
LINE
8
BLACK
6
CONTINUOUS
10
-0.8966905118110235
20
0.1137005905511811
11
-0.8953985039370078
21
0.1111165748031496
0
LINE
8
BLACK
6
CONTINUOUS
10
-0.8953985039370078
20
0.1111165748031496
11
-0.8951956299212598
21
0.1103757874015748
0
LINE
8
BLACK
6
CONTINUOUS
10
-0.8951956299212598
20
0.1103757874015748
11
-0.8956720472440944
21
0.1089464566929134
0
LINE
8
BLACK
6
CONTINUOUS
10
-0.8956720472440944
20
0.1089464566929134
11
-0.8970196062992126
21
0.1082726771653543
0
LINE
8
BLACK
6
CONTINUOUS
10
-0.8970196062992126
20
0.1082726771653543
11
-0.898448937007874
21
0.1087491338582677
0
LINE
8
BLACK
6
CONTINUOUS
10
-0.898448937007874
20
0.1087491338582677
11
-0.898919842519685
21
0.1093558661417323
0
LINE
8
BLACK
6
CONTINUOUS
10
-0.898919842519685
20
0.1093558661417323
11
-0.9004196850393701
21
0.1123555118110236
0
LINE
8
BLACK
6
CONTINUOUS
10
-0.9004196850393701
20
0.1123555118110236
11
-0.900445748031496
21
0.1124506299212598
0
LINE
8
BLACK
6
CONTINUOUS
10
-0.900445748031496
20
0.1124506299212598
11
-0.9004776771653543
21
0.1124825590551181
0
LINE
8
BLACK
6
CONTINUOUS
10
-0.9004776771653543
20
0.1124825590551181
11
-0.9005392519685039
21
0.1127920866141732
0
LINE
8
BLACK
6
CONTINUOUS
10
-0.9005392519685039
20
0.1127920866141732
11
-0.9006225590551181
21
0.1130962992125984
0
LINE
8
BLACK
6
CONTINUOUS
10
-0.9006225590551181
20
0.1130962992125984
11
-0.9006083070866141
21
0.1131391732283464
0
LINE
8
BLACK
6
CONTINUOUS
10
-0.9006083070866141
20
0.1131391732283464
11
-0.9006275196850394
21
0.1132358661417323
0
LINE
8
BLACK
6
CONTINUOUS
10
-0.9006275196850394
20
0.1132358661417323
11
-0.9006275196850394
21
0.1192351181102362
0
LINE
8
BLACK
6
CONTINUOUS
10
-0.9006275196850394
20
0.1192351181102362
11
-0.9006083070866141
21
0.1193318503937008
0
LINE
8
BLACK
6
CONTINUOUS
10
-0.9006083070866141
20
0.1193318503937008
11
-0.9006225590551181
21
0.1193746850393701
0
LINE
8
BLACK
6
CONTINUOUS
10
-0.9006225590551181
20
0.1193746850393701
11
-0.9005392519685039
21
0.119678937007874
0
LINE
8
BLACK
6
CONTINUOUS
10
-0.9005392519685039
20
0.119678937007874
11
-0.9004776771653543
21
0.1199884251968504
0
LINE
8
BLACK
6
CONTINUOUS
10
-0.9004776771653543
20
0.1199884251968504
11
-0.900445748031496
21
0.1200203937007874
0
LINE
8
BLACK
6
CONTINUOUS
10
-0.900445748031496
20
0.1200203937007874
11
-0.9004196850393701
21
0.1201154724409449
0
LINE
8
BLACK
6
CONTINUOUS
10
-0.9004196850393701
20
0.1201154724409449
11
-0.898919842519685
21
0.1231150787401575
0
LINE
8
BLACK
6
CONTINUOUS
10
-0.898919842519685
20
0.1231150787401575
11
-0.8987264173228346
21
0.1233643700787402
0
LINE
8
BLACK
6
CONTINUOUS
10
-0.8987264173228346
20
0.1233643700787402
11
-0.8985511023622047
21
0.1236266535433071
0
LINE
8
BLACK
6
CONTINUOUS
10
-0.8985511023622047
20
0.1236266535433071
11
-0.8970513385826772
21
0.1251264566929134
0
LINE
8
BLACK
6
CONTINUOUS
10
-0.8970513385826772
20
0.1251264566929134
11
-0.8967888976377952
21
0.1253018503937008
0
LINE
8
BLACK
6
CONTINUOUS
10
-0.8967888976377952
20
0.1253018503937008
11
-0.8965397244094488
21
0.1254951968503937
0
LINE
8
BLACK
6
CONTINUOUS
10
-0.8965397244094488
20
0.1254951968503937
11
-0.8935401574803149
21
0.1269950393700787
0
LINE
8
BLACK
6
CONTINUOUS
10
-0.8935401574803149
20
0.1269950393700787
11
-0.8934450393700787
21
0.1270211023622047
0
LINE
8
BLACK
6
CONTINUOUS
10
-0.8934450393700787
20
0.1270211023622047
11
-0.8934130708661417
21
0.127053031496063
0
LINE
8
BLACK
6
CONTINUOUS
10
-0.8934130708661417
20
0.127053031496063
11
-0.8931037007874015
21
0.1271146062992126
0
LINE
8
BLACK
6
CONTINUOUS
10
-0.8931037007874015
20
0.1271146062992126
11
-0.8927993700787401
21
0.1271979133858268
0
LINE
8
BLACK
6
CONTINUOUS
10
-0.8927993700787401
20
0.1271979133858268
11
-0.8927565354330709
21
0.1271836614173228
0
LINE
8
BLACK
6
CONTINUOUS
10
-0.8927565354330709
20
0.1271836614173228
11
-0.8926597637795275
21
0.127202874015748
0
LINE
8
BLACK
6
CONTINUOUS
10
-0.8926597637795275
20
0.127202874015748
11
-0.8836608661417322
21
0.127202874015748
0
LINE
8
BLACK
6
CONTINUOUS
10
-0.8836608661417322
20
0.127202874015748
11
-0.8835641732283465
21
0.1271836614173228
0
LINE
8
BLACK
6
CONTINUOUS
10
-0.8968403543307086
20
0.1469850393700787
11
-0.8966905118110235
21
0.1462317322834646
0
LINE
8
BLACK
6
CONTINUOUS
10
-0.8966905118110235
20
0.1462317322834646
11
-0.8966905118110235
21
0.1437007874015748
0
LINE
8
BLACK
6
CONTINUOUS
10
-0.8966905118110235
20
0.1437007874015748
11
-0.8821610629921259
21
0.1437007874015748
0
LINE
8
BLACK
6
CONTINUOUS
10
-0.8821610629921259
20
0.1437007874015748
11
-0.8820643700787402
21
0.1436815748031496
0
LINE
8
BLACK
6
CONTINUOUS
10
-0.8820643700787402
20
0.1436815748031496
11
-0.8820215354330708
21
0.1436958267716535
0
LINE
8
BLACK
6
CONTINUOUS
10
-0.8820215354330708
20
0.1436958267716535
11
-0.8817174409448819
21
0.1436125590551181
0
LINE
8
BLACK
6
CONTINUOUS
10
-0.8817174409448819
20
0.1436125590551181
11
-0.8814077559055118
21
0.1435509448818898
0
LINE
8
BLACK
6
CONTINUOUS
10
-0.8814077559055118
20
0.1435509448818898
11
-0.8813758267716535
21
0.1435190157480315
0
LINE
8
BLACK
6
CONTINUOUS
10
-0.8813758267716535
20
0.1435190157480315
11
-0.881280748031496
21
0.1434929527559055
0
LINE
8
BLACK
6
CONTINUOUS
10
-0.881280748031496
20
0.1434929527559055
11
-0.8782810629921259
21
0.1419931496062992
0
LINE
8
BLACK
6
CONTINUOUS
10
-0.8782810629921259
20
0.1419931496062992
11
-0.8779715354330708
21
0.1417529133858268
0
LINE
8
BLACK
6
CONTINUOUS
10
-0.8779715354330708
20
0.1417529133858268
11
-0.8778716535433071
21
0.1417196062992126
0
LINE
8
BLACK
6
CONTINUOUS
10
-0.8778716535433071
20
0.1417196062992126
11
-0.8777853937007873
21
0.1416084251968504
0
LINE
8
BLACK
6
CONTINUOUS
10
-0.8777853937007873
20
0.1416084251968504
11
-0.8776743307086614
21
0.1415222440944882
0
LINE
8
BLACK
6
CONTINUOUS
10
-0.8776743307086614
20
0.1415222440944882
11
-0.8776411023622047
21
0.1414225196850394
0
LINE
8
BLACK
6
CONTINUOUS
10
-0.8776411023622047
20
0.1414225196850394
11
-0.877400748031496
21
0.1411128346456693
0
LINE
8
BLACK
6
CONTINUOUS
10
-0.877400748031496
20
0.1411128346456693
11
-0.8759009448818897
21
0.1381132283464567
0
LINE
8
BLACK
6
CONTINUOUS
10
-0.8759009448818897
20
0.1381132283464567
11
-0.8758749212598425
21
0.1380181496062992
0
LINE
8
BLACK
6
CONTINUOUS
10
-0.8758749212598425
20
0.1380181496062992
11
-0.8758429527559055
21
0.1379861811023622
0
LINE
8
BLACK
6
CONTINUOUS
10
-0.8758429527559055
20
0.1379861811023622
11
-0.8757814173228347
21
0.1376766929133858
0
LINE
8
BLACK
6
CONTINUOUS
10
-0.8757814173228347
20
0.1376766929133858
11
-0.8756980708661417
21
0.1373724409448819
0
LINE
8
BLACK
6
CONTINUOUS
10
-0.8756980708661417
20
0.1373724409448819
11
-0.8757123622047244
21
0.1373296062992126
0
LINE
8
BLACK
6
CONTINUOUS
10
-0.8757123622047244
20
0.1373296062992126
11
-0.8756931102362204
21
0.137232874015748
0
LINE
8
BLACK
6
CONTINUOUS
10
-0.8756931102362204
20
0.137232874015748
11
-0.8756931102362204
21
0.1342332283464567
0
LINE
8
BLACK
6
CONTINUOUS
10
-0.8756931102362204
20
0.1342332283464567
11
-0.8758429527559055
21
0.1334799212598425
0
LINE
8
BLACK
6
CONTINUOUS
10
-0.8758429527559055
20
0.1334799212598425
11
-0.8769083070866142
21
0.1324145669291339
0
LINE
8
BLACK
6
CONTINUOUS
10
-0.8769083070866142
20
0.1324145669291339
11
-0.8784149212598426
21
0.1324145669291339
0
LINE
8
BLACK
6
CONTINUOUS
10
-0.8784149212598426
20
0.1324145669291339
11
-0.8794802755905512
21
0.1334799212598425
0
LINE
8
BLACK
6
CONTINUOUS
10
-0.8794802755905512
20
0.1334799212598425
11
-0.8796301181102362
21
0.1342332283464567
0
LINE
8
BLACK
6
CONTINUOUS
10
-0.8796301181102362
20
0.1342332283464567
11
-0.8796301181102362
21
0.136768188976378
0
LINE
8
BLACK
6
CONTINUOUS
10
-0.8796301181102362
20
0.136768188976378
11
-0.8806286614173228
21
0.1387652362204724
0
LINE
8
BLACK
6
CONTINUOUS
10
-0.8806286614173228
20
0.1387652362204724
11
-0.8826257086614173
21
0.1397637795275591
0
LINE
8
BLACK
6
CONTINUOUS
10
-0.8826257086614173
20
0.1397637795275591
11
-0.8966905118110235
21
0.1397637795275591
0
LINE
8
BLACK
6
CONTINUOUS
10
-0.8966905118110235
20
0.1397637795275591
11
-0.8966905118110235
21
0.1342332283464567
0
LINE
8
BLACK
6
CONTINUOUS
10
-0.8966905118110235
20
0.1342332283464567
11
-0.8968403543307086
21
0.1334799212598425
0
LINE
8
BLACK
6
CONTINUOUS
10
-0.8968403543307086
20
0.1334799212598425
11
-0.8979057086614173
21
0.1324145669291339
0
LINE
8
BLACK
6
CONTINUOUS
10
-0.8979057086614173
20
0.1324145669291339
11
-0.8994123228346457
21
0.1324145669291339
0
LINE
8
BLACK
6
CONTINUOUS
10
-0.8994123228346457
20
0.1324145669291339
11
-0.9004776771653543
21
0.1334799212598425
0
LINE
8
BLACK
6
CONTINUOUS
10
-0.9004776771653543
20
0.1334799212598425
11
-0.9006275196850394
21
0.1342332283464567
0
LINE
8
BLACK
6
CONTINUOUS
10
-0.9006275196850394
20
0.1342332283464567
11
-0.9006275196850394
21
0.1397637795275591
0
LINE
8
BLACK
6
CONTINUOUS
10
-0.9006275196850394
20
0.1397637795275591
11
-0.9091576771653543
21
0.1397637795275591
0
LINE
8
BLACK
6
CONTINUOUS
10
-0.9091576771653543
20
0.1397637795275591
11
-0.9099109842519685
21
0.1399136220472441
0
LINE
8
BLACK
6
CONTINUOUS
10
-0.9099109842519685
20
0.1399136220472441
11
-0.9109763385826771
21
0.1409789763779528
0
LINE
8
BLACK
6
CONTINUOUS
10
-0.9109763385826771
20
0.1409789763779528
11
-0.9109763385826771
21
0.1424855905511811
0
LINE
8
BLACK
6
CONTINUOUS
10
-0.9109763385826771
20
0.1424855905511811
11
-0.9099109842519685
21
0.1435509448818898
0
LINE
8
BLACK
6
CONTINUOUS
10
-0.9099109842519685
20
0.1435509448818898
11
-0.9091576771653543
21
0.1437007874015748
0
LINE
8
BLACK
6
CONTINUOUS
10
-0.9091576771653543
20
0.1437007874015748
11
-0.9006275196850394
21
0.1437007874015748
0
LINE
8
BLACK
6
CONTINUOUS
10
-0.9006275196850394
20
0.1437007874015748
11
-0.9006275196850394
21
0.1462317322834646
0
LINE
8
BLACK
6
CONTINUOUS
10
-0.9006275196850394
20
0.1462317322834646
11
-0.9004776771653543
21
0.1469850393700787
0
LINE
8
BLACK
6
CONTINUOUS
10
-0.9004776771653543
20
0.1469850393700787
11
-0.8994123228346457
21
0.1480503937007874
0
LINE
8
BLACK
6
CONTINUOUS
10
-0.8994123228346457
20
0.1480503937007874
11
-0.8979057086614173
21
0.1480503937007874
0
LINE
8
BLACK
6
CONTINUOUS
10
-0.8979057086614173
20
0.1480503937007874
11
-0.8968403543307086
21
0.1469850393700787
0
LINE
8
BLACK
6
CONTINUOUS
10
-0.906265905511811
20
0.1596221653543307
11
-0.9047661023622047
21
0.1581223228346457
0
LINE
8
BLACK
6
CONTINUOUS
10
-0.9047661023622047
20
0.1581223228346457
11
-0.9043394094488189
21
0.1574837007874016
0
LINE
8
BLACK
6
CONTINUOUS
10
-0.9043394094488189
20
0.1574837007874016
11
-0.9043394094488189
21
0.1559770472440945
0
LINE
8
BLACK
6
CONTINUOUS
10
-0.9043394094488189
20
0.1559770472440945
11
-0.9047661417322834
21
0.1553384251968504
0
LINE
8
BLACK
6
CONTINUOUS
10
-0.9047661417322834
20
0.1553384251968504
11
-0.9062659448818897
21
0.1538386614173228
0
LINE
8
BLACK
6
CONTINUOUS
10
-0.9062659448818897
20
0.1538386614173228
11
-0.9069045669291338
21
0.1534119291338583
0
LINE
8
BLACK
6
CONTINUOUS
10
-0.9069045669291338
20
0.1534119291338583
11
-0.9084111811023622
21
0.1534119291338583
0
LINE
8
BLACK
6
CONTINUOUS
10
-0.9084111811023622
20
0.1534119291338583
11
-0.9084112204724409
21
0.1534119291338583
0
LINE
8
BLACK
6
CONTINUOUS
10
-0.9084112204724409
20
0.1534119291338583
11
-0.909049842519685
21
0.1538386614173228
0
LINE
8
BLACK
6
CONTINUOUS
10
-0.909049842519685
20
0.1538386614173228
11
-0.9105496062992126
21
0.1553384645669291
0
LINE
8
BLACK
6
CONTINUOUS
10
-0.9105496062992126
20
0.1553384645669291
11
-0.9109762598425196
21
0.155976968503937
0
LINE
8
BLACK
6
CONTINUOUS
10
-0.9109762598425196
20
0.155976968503937
11
-0.9109763385826771
21
0.1559770472440945
0
LINE
8
BLACK
6
CONTINUOUS
10
-0.9109763385826771
20
0.1559770472440945
11
-0.9109763385826771
21
0.1574837007874016
0
LINE
8
BLACK
6
CONTINUOUS
10
-0.9109763385826771
20
0.1574837007874016
11
-0.9105496456692913
21
0.1581223228346457
0
LINE
8
BLACK
6
CONTINUOUS
10
-0.9105496456692913
20
0.1581223228346457
11
-0.909049842519685
21
0.1596221653543307
0
LINE
8
BLACK
6
CONTINUOUS
10
-0.909049842519685
20
0.1596221653543307
11
-0.9084112204724409
21
0.1600488582677165
0
LINE
8
BLACK
6
CONTINUOUS
10
-0.9084112204724409
20
0.1600488582677165
11
-0.9084111811023622
21
0.1600488976377953
0
LINE
8
BLACK
6
CONTINUOUS
10
-0.9084111811023622
20
0.1600488976377953
11
-0.9069045275590552
21
0.1600488976377953
0
LINE
8
BLACK
6
CONTINUOUS
10
-0.9069045275590552
20
0.1600488976377953
11
-0.906265905511811
21
0.1596221653543307
0
LINE
8
BLACK
6
CONTINUOUS
10
-0.8769083070866142
20
0.1585490551181102
11
-0.8758429527559055
21
0.1574837007874016
0
LINE
8
BLACK
6
CONTINUOUS
10
-0.8758429527559055
20
0.1574837007874016
11
-0.8758429527559055
21
0.1559770866141732
0
LINE
8
BLACK
6
CONTINUOUS
10
-0.8758429527559055
20
0.1559770866141732
11
-0.8769083070866142
21
0.1549117322834646
0
LINE
8
BLACK
6
CONTINUOUS
10
-0.8769083070866142
20
0.1549117322834646
11
-0.8776616141732283
21
0.1547618897637795
0
LINE
8
BLACK
6
CONTINUOUS
10
-0.8776616141732283
20
0.1547618897637795
11
-0.8986590157480315
21
0.1547618897637795
0
LINE
8
BLACK
6
CONTINUOUS
10
-0.8986590157480315
20
0.1547618897637795
11
-0.8994123228346457
21
0.1549117322834646
0
LINE
8
BLACK
6
CONTINUOUS
10
-0.8994123228346457
20
0.1549117322834646
11
-0.9004776771653543
21
0.1559770866141732
0
LINE
8
BLACK
6
CONTINUOUS
10
-0.9004776771653543
20
0.1559770866141732
11
-0.9004776771653543
21
0.1574837007874016
0
LINE
8
BLACK
6
CONTINUOUS
10
-0.9004776771653543
20
0.1574837007874016
11
-0.8994123228346457
21
0.1585490551181102
0
LINE
8
BLACK
6
CONTINUOUS
10
-0.8994123228346457
20
0.1585490551181102
11
-0.8986590157480315
21
0.1586988976377953
0
LINE
8
BLACK
6
CONTINUOUS
10
-0.8986590157480315
20
0.1586988976377953
11
-0.8776616141732283
21
0.1586988976377953
0
LINE
8
BLACK
6
CONTINUOUS
10
-0.8776616141732283
20
0.1586988976377953
11
-0.8769083070866142
21
0.1585490551181102
0
LINE
8
BLACK
6
CONTINUOUS
10
-0.8981182283464567
20
0.1946186614173228
11
-0.8771208267716535
21
0.1886194094488189
0
LINE
8
BLACK
6
CONTINUOUS
10
-0.8771208267716535
20
0.1886194094488189
11
-0.8764376377952756
21
0.1882683858267717
0
LINE
8
BLACK
6
CONTINUOUS
10
-0.8764376377952756
20
0.1882683858267717
11
-0.876373779527559
21
0.1881533858267717
0
LINE
8
BLACK
6
CONTINUOUS
10
-0.876373779527559
20
0.1881533858267717
11
-0.8762527952755905
21
0.1881015354330709
0
LINE
8
BLACK
6
CONTINUOUS
10
-0.8762527952755905
20
0.1881015354330709
11
-0.8760158267716536
21
0.1875090551181102
0
LINE
8
BLACK
6
CONTINUOUS
10
-0.8760158267716536
20
0.1875090551181102
11
-0.8757059842519684
21
0.1869513385826772
0
LINE
8
BLACK
6
CONTINUOUS
10
-0.8757059842519684
20
0.1869513385826772
11
-0.8757421653543307
21
0.186824842519685
0
LINE
8
BLACK
6
CONTINUOUS
10
-0.8757421653543307
20
0.186824842519685
11
-0.8756932677165354
21
0.1867026771653543
0
LINE
8
BLACK
6
CONTINUOUS
10
-0.8756932677165354
20
0.1867026771653543
11
-0.8759446062992126
21
0.1861162204724409
0
LINE
8
BLACK
6
CONTINUOUS
10
-0.8759446062992126
20
0.1861162204724409
11
-0.8761198818897638
21
0.1855027165354331
0
LINE
8
BLACK
6
CONTINUOUS
10
-0.8761198818897638
20
0.1855027165354331
11
-0.8762349212598425
21
0.1854388582677165
0
LINE
8
BLACK
6
CONTINUOUS
10
-0.8762349212598425
20
0.1854388582677165
11
-0.8762867322834645
21
0.1853178346456693
0
LINE
8
BLACK
6
CONTINUOUS
10
-0.8762867322834645
20
0.1853178346456693
11
-0.8769305118110235
21
0.184898937007874
0
LINE
8
BLACK
6
CONTINUOUS
10
-0.8769305118110235
20
0.184898937007874
11
-0.8873593700787401
21
0.1807274015748032
0
LINE
8
BLACK
6
CONTINUOUS
10
-0.8873593700787401
20
0.1807274015748032
11
-0.8769305118110235
21
0.1765558661417323
0
LINE
8
BLACK
6
CONTINUOUS
10
-0.8769305118110235
20
0.1765558661417323
11
-0.8762867322834645
21
0.176136968503937
0
LINE
8
BLACK
6
CONTINUOUS
10
-0.8762867322834645
20
0.176136968503937
11
-0.8762349212598425
21
0.1760159842519685
0
LINE
8
BLACK
6
CONTINUOUS
10
-0.8762349212598425
20
0.1760159842519685
11
-0.8761198818897638
21
0.1759520866141732
0
LINE
8
BLACK
6
CONTINUOUS
10
-0.8761198818897638
20
0.1759520866141732
11
-0.8759446062992126
21
0.1753386220472441
0
LINE
8
BLACK
6
CONTINUOUS
10
-0.8759446062992126
20
0.1753386220472441
11
-0.8756932677165354
21
0.174752125984252
0
LINE
8
BLACK
6
CONTINUOUS
10
-0.8756932677165354
20
0.174752125984252
11
-0.8757421653543307
21
0.17463
0
LINE
8
BLACK
6
CONTINUOUS
10
-0.8757421653543307
20
0.17463
11
-0.8757059842519684
21
0.1745034645669291
0
LINE
8
BLACK
6
CONTINUOUS
10
-0.8757059842519684
20
0.1745034645669291
11
-0.8760158267716536
21
0.1739457874015748
0
LINE
8
BLACK
6
CONTINUOUS
10
-0.8760158267716536
20
0.1739457874015748
11
-0.8762527952755905
21
0.1733532677165354
0
LINE
8
BLACK
6
CONTINUOUS
10
-0.8762527952755905
20
0.1733532677165354
11
-0.876373779527559
21
0.1733014566929134
0
LINE
8
BLACK
6
CONTINUOUS
10
-0.876373779527559
20
0.1733014566929134
11
-0.8764376377952756
21
0.1731864173228346
0
LINE
8
BLACK
6
CONTINUOUS
10
-0.8764376377952756
20
0.1731864173228346
11
-0.8771208267716535
21
0.1728353937007874
0
LINE
8
BLACK
6
CONTINUOUS
10
-0.8771208267716535
20
0.1728353937007874
11
-0.8981182283464567
21
0.1668361417322834
0
LINE
8
BLACK
6
CONTINUOUS
10
-0.8981182283464567
20
0.1668361417322834
11
-0.8988837007874015
21
0.1667732677165354
0
LINE
8
BLACK
6
CONTINUOUS
10
-0.8988837007874015
20
0.1667732677165354
11
-0.9002007480314961
21
0.1675049606299213
0
LINE
8
BLACK
6
CONTINUOUS
10
-0.9002007480314961
20
0.1675049606299213
11
-0.9006146456692913
21
0.1689535826771653
0
LINE
8
BLACK
6
CONTINUOUS
10
-0.9006146456692913
20
0.1689535826771653
11
-0.8998829527559055
21
0.1702706299212598
0
LINE
8
BLACK
6
CONTINUOUS
10
-0.8998829527559055
20
0.1702706299212598
11
-0.8991998031496062
21
0.1706216535433071
0
LINE
8
BLACK
6
CONTINUOUS
10
-0.8991998031496062
20
0.1706216535433071
11
-0.8837391338582677
21
0.1750390157480315
0
LINE
8
BLACK
6
CONTINUOUS
10
-0.8837391338582677
20
0.1750390157480315
11
-0.8933908661417322
21
0.1788996850393701
0
LINE
8
BLACK
6
CONTINUOUS
10
-0.8933908661417322
20
0.1788996850393701
11
-0.8940346062992126
21
0.1793185826771654
0
LINE
8
BLACK
6
CONTINUOUS
10
-0.8940346062992126
20
0.1793185826771654
11
-0.8940448031496063
21
0.1793424015748031
0
LINE
8
BLACK
6
CONTINUOUS
10
-0.8940448031496063
20
0.1793424015748031
11
-0.8940685826771654
21
0.1793525590551181
0
LINE
8
BLACK
6
CONTINUOUS
10
-0.8940685826771654
20
0.1793525590551181
11
-0.8943403937007873
21
0.1800320866141732
0
LINE
8
BLACK
6
CONTINUOUS
10
-0.8943403937007873
20
0.1800320866141732
11
-0.8946281102362205
21
0.1807034251968504
0
LINE
8
BLACK
6
CONTINUOUS
10
-0.8946281102362205
20
0.1807034251968504
11
-0.8946185433070866
21
0.1807274015748032
0
LINE
8
BLACK
6
CONTINUOUS
10
-0.8946185433070866
20
0.1807274015748032
11
-0.8946281102362205
21
0.1807513779527559
0
LINE
8
BLACK
6
CONTINUOUS
10
-0.8946281102362205
20
0.1807513779527559
11
-0.8943403937007873
21
0.1814227165354331
0
LINE
8
BLACK
6
CONTINUOUS
10
-0.8943403937007873
20
0.1814227165354331
11
-0.8940685826771654
21
0.1821022440944882
0
LINE
8
BLACK
6
CONTINUOUS
10
-0.8940685826771654
20
0.1821022440944882
11
-0.8940448031496063
21
0.1821124409448819
0
LINE
8
BLACK
6
CONTINUOUS
10
-0.8940448031496063
20
0.1821124409448819
11
-0.8940346062992126
21
0.1821362204724409
0
LINE
8
BLACK
6
CONTINUOUS
10
-0.8940346062992126
20
0.1821362204724409
11
-0.8933908661417322
21
0.1825551181102362
0
LINE
8
BLACK
6
CONTINUOUS
10
-0.8933908661417322
20
0.1825551181102362
11
-0.8837391338582677
21
0.1864158267716535
0
LINE
8
BLACK
6
CONTINUOUS
10
-0.8837391338582677
20
0.1864158267716535
11
-0.8991998031496062
21
0.1908331496062992
0
LINE
8
BLACK
6
CONTINUOUS
10
-0.8991998031496062
20
0.1908331496062992
11
-0.8998829527559055
21
0.1911841732283465
0
LINE
8
BLACK
6
CONTINUOUS
10
-0.8998829527559055
20
0.1911841732283465
11
-0.9006146456692913
21
0.1925012204724409
0
LINE
8
BLACK
6
CONTINUOUS
10
-0.9006146456692913
20
0.1925012204724409
11
-0.9002007480314961
21
0.193949842519685
0
LINE
8
BLACK
6
CONTINUOUS
10
-0.9002007480314961
20
0.193949842519685
11
-0.8988837007874015
21
0.1946815354330709
0
LINE
8
BLACK
6
CONTINUOUS
10
-0.8988837007874015
20
0.1946815354330709
11
-0.8981182283464567
21
0.1946186614173228
0
LINE
8
BLACK
6
CONTINUOUS
10
-0.9000621259842519
20
0.2231716535433071
11
-0.900019251968504
21
0.223185905511811
0
LINE
8
BLACK
6
CONTINUOUS
10
-0.900019251968504
20
0.223185905511811
11
-0.8997150393700787
21
0.2231025984251968
0
LINE
8
BLACK
6
CONTINUOUS
10
-0.8997150393700787
20
0.2231025984251968
11
-0.8994055118110236
21
0.2230410236220473
0
LINE
8
BLACK
6
CONTINUOUS
10
-0.8994055118110236
20
0.2230410236220473
11
-0.8993735826771654
21
0.223009094488189
0
LINE
8
BLACK
6
CONTINUOUS
10
-0.8993735826771654
20
0.223009094488189
11
-0.8992784645669291
21
0.222983031496063
0
LINE
8
BLACK
6
CONTINUOUS
10
-0.8992784645669291
20
0.222983031496063
11
-0.8962788188976378
21
0.2214831889763779
0
LINE
8
BLACK
6
CONTINUOUS
10
-0.8962788188976378
20
0.2214831889763779
11
-0.8960295669291338
21
0.2212897637795276
0
LINE
8
BLACK
6
CONTINUOUS
10
-0.8960295669291338
20
0.2212897637795276
11
-0.8957672440944882
21
0.2211144488188976
0
LINE
8
BLACK
6
CONTINUOUS
10
-0.8957672440944882
20
0.2211144488188976
11
-0.8942674409448819
21
0.2196146850393701
0
LINE
8
BLACK
6
CONTINUOUS
10
-0.8942674409448819
20
0.2196146850393701
11
-0.8940920866141732
21
0.2193522440944882
0
LINE
8
BLACK
6
CONTINUOUS
10
-0.8940920866141732
20
0.2193522440944882
11
-0.8938987007874015
21
0.2191030708661417
0
LINE
8
BLACK
6
CONTINUOUS
10
-0.8938987007874015
20
0.2191030708661417
11
-0.8923988976377952
21
0.2161034645669291
0
LINE
8
BLACK
6
CONTINUOUS
10
-0.8923988976377952
20
0.2161034645669291
11
-0.892341968503937
21
0.2158955511811023
0
LINE
8
BLACK
6
CONTINUOUS
10
-0.892341968503937
20
0.2158955511811023
11
-0.892249842519685
21
0.2157005511811023
0
LINE
8
BLACK
6
CONTINUOUS
10
-0.892249842519685
20
0.2157005511811023
11
-0.8908024803149606
21
0.2099109842519685
0
LINE
8
BLACK
6
CONTINUOUS
10
-0.8908024803149606
20
0.2099109842519685
11
-0.889542125984252
21
0.2073902755905512
0
LINE
8
BLACK
6
CONTINUOUS
10
-0.889542125984252
20
0.2073902755905512
11
-0.8884940551181102
21
0.2063422440944882
0
LINE
8
BLACK
6
CONTINUOUS
10
-0.8884940551181102
20
0.2063422440944882
11
-0.8861958267716535
21
0.2051931102362205
0
LINE
8
BLACK
6
CONTINUOUS
10
-0.8861958267716535
20
0.2051931102362205
11
-0.8841255511811024
21
0.2051931102362205
0
LINE
8
BLACK
6
CONTINUOUS
10
-0.8841255511811024
20
0.2051931102362205
11
-0.8818273622047244
21
0.2063422440944882
0
LINE
8
BLACK
6
CONTINUOUS
10
-0.8818273622047244
20
0.2063422440944882
11
-0.8807792125984252
21
0.2073903937007874
0
LINE
8
BLACK
6
CONTINUOUS
10
-0.8807792125984252
20
0.2073903937007874
11
-0.8796301181102362
21
0.2096885433070866
0
LINE
8
BLACK
6
CONTINUOUS
10
-0.8796301181102362
20
0.2096885433070866
11
-0.8796301181102362
21
0.2164035433070866
0
LINE
8
BLACK
6
CONTINUOUS
10
-0.8796301181102362
20
0.2164035433070866
11
-0.8810288976377952
21
0.2205998818897638
0
LINE
8
BLACK
6
CONTINUOUS
10
-0.8810288976377952
20
0.2205998818897638
11
-0.8811249606299213
21
0.2213618897637795
0
LINE
8
BLACK
6
CONTINUOUS
10
-0.8811249606299213
20
0.2213618897637795
11
-0.8804511811023622
21
0.2227094881889764
0
LINE
8
BLACK
6
CONTINUOUS
10
-0.8804511811023622
20
0.2227094881889764
11
-0.8790218897637795
21
0.223185905511811
0
LINE
8
BLACK
6
CONTINUOUS
10
-0.8790218897637795
20
0.223185905511811
11
-0.8776742913385827
21
0.222512125984252
0
LINE
8
BLACK
6
CONTINUOUS
10
-0.8776742913385827
20
0.222512125984252
11
-0.8772939370078739
21
0.221844842519685
0
LINE
8
BLACK
6
CONTINUOUS
10
-0.8772939370078739
20
0.221844842519685
11
-0.8757941338582677
21
0.2173453937007874
0
LINE
8
BLACK
6
CONTINUOUS
10
-0.8757941338582677
20
0.2173453937007874
11
-0.87575468503937
21
0.2170324803149606
0
LINE
8
BLACK
6
CONTINUOUS
10
-0.87575468503937
20
0.2170324803149606
11
-0.8756931102362204
21
0.2167229133858268
0
LINE
8
BLACK
6
CONTINUOUS
10
-0.8756931102362204
20
0.2167229133858268
11
-0.8756931102362204
21
0.2092238582677165
0
LINE
8
BLACK
6
CONTINUOUS
10
-0.8756931102362204
20
0.2092238582677165
11
-0.8757123622047244
21
0.2091271653543307
0
LINE
8
BLACK
6
CONTINUOUS
10
-0.8757123622047244
20
0.2091271653543307
11
-0.8756980708661417
21
0.2090843307086614
0
LINE
8
BLACK
6
CONTINUOUS
10
-0.8756980708661417
20
0.2090843307086614
11
-0.8757814173228347
21
0.2087800393700787
0
LINE
8
BLACK
6
CONTINUOUS
10
-0.8757814173228347
20
0.2087800393700787
11
-0.8758429527559055
21
0.2084705511811024
0
LINE
8
BLACK
6
CONTINUOUS
10
-0.8758429527559055
20
0.2084705511811024
11
-0.8758748818897638
21
0.2084386614173228
0
LINE
8
BLACK
6
CONTINUOUS
10
-0.8758748818897638
20
0.2084386614173228
11
-0.875900905511811
21
0.2083435433070866
0
LINE
8
BLACK
6
CONTINUOUS
10
-0.875900905511811
20
0.2083435433070866
11
-0.877400748031496
21
0.2053438976377953
0
LINE
8
BLACK
6
CONTINUOUS
10
-0.877400748031496
20
0.2053438976377953
11
-0.8775940551181102
21
0.2050948818897638
0
LINE
8
BLACK
6
CONTINUOUS
10
-0.8775940551181102
20
0.2050948818897638
11
-0.8777694881889764
21
0.2048322440944882
0
LINE
8
BLACK
6
CONTINUOUS
10
-0.8777694881889764
20
0.2048322440944882
11
-0.8792693307086614
21
0.2033324409448819
0
LINE
8
BLACK
6
CONTINUOUS
10
-0.8792693307086614
20
0.2033324409448819
11
-0.8795317716535432
21
0.203157125984252
0
LINE
8
BLACK
6
CONTINUOUS
10
-0.8795317716535432
20
0.203157125984252
11
-0.879780905511811
21
0.2029637401574803
0
LINE
8
BLACK
6
CONTINUOUS
10
-0.879780905511811
20
0.2029637401574803
11
-0.8827805118110236
21
0.201463937007874
0
LINE
8
BLACK
6
CONTINUOUS
10
-0.8827805118110236
20
0.201463937007874
11
-0.8828756299212598
21
0.2014379133858268
0
LINE
8
BLACK
6
CONTINUOUS
10
-0.8828756299212598
20
0.2014379133858268
11
-0.8829075590551181
21
0.2014059448818898
0
LINE
8
BLACK
6
CONTINUOUS
10
-0.8829075590551181
20
0.2014059448818898
11
-0.8832170866141732
21
0.2013444094488189
0
LINE
8
BLACK
6
CONTINUOUS
10
-0.8832170866141732
20
0.2013444094488189
11
-0.8835212992125984
21
0.201261062992126
0
LINE
8
BLACK
6
CONTINUOUS
10
-0.8835212992125984
20
0.201261062992126
11
-0.8835641732283465
21
0.2012753543307086
0
LINE
8
BLACK
6
CONTINUOUS
10
-0.8835641732283465
20
0.2012753543307086
11
-0.8836608661417322
21
0.2012561023622047
0
LINE
8
BLACK
6
CONTINUOUS
10
-0.8836608661417322
20
0.2012561023622047
11
-0.8866605118110236
21
0.2012561023622047
0
LINE
8
BLACK
6
CONTINUOUS
10
-0.8866605118110236
20
0.2012561023622047
11
-0.8867572440944882
21
0.2012753543307086
0
LINE
8
BLACK
6
CONTINUOUS
10
-0.8867572440944882
20
0.2012753543307086
11
-0.8868000787401574
21
0.201261062992126
0
LINE
8
BLACK
6
CONTINUOUS
10
-0.8868000787401574
20
0.201261062992126
11
-0.8871043307086613
21
0.2013444094488189
0
LINE
8
BLACK
6
CONTINUOUS
10
-0.8871043307086613
20
0.2013444094488189
11
-0.8874138188976378
21
0.2014059448818898
0
LINE
8
BLACK
6
CONTINUOUS
10
-0.8874138188976378
20
0.2014059448818898
11
-0.8874457874015748
21
0.2014379133858268
0
LINE
8
BLACK
6
CONTINUOUS
10
-0.8874457874015748
20
0.2014379133858268
11
-0.8875408661417322
21
0.201463937007874
0
LINE
8
BLACK
6
CONTINUOUS
10
-0.8875408661417322
20
0.201463937007874
11
-0.8905404724409448
21
0.2029637401574803
0
LINE
8
BLACK
6
CONTINUOUS
10
-0.8905404724409448
20
0.2029637401574803
11
-0.8907896456692913
21
0.203157125984252
0
LINE
8
BLACK
6
CONTINUOUS
10
-0.8907896456692913
20
0.203157125984252
11
-0.8910520866141732
21
0.2033324803149606
0
LINE
8
BLACK
6
CONTINUOUS
10
-0.8910520866141732
20
0.2033324803149606
11
-0.8925518503937008
21
0.2048322834645669
0
LINE
8
BLACK
6
CONTINUOUS
10
-0.8925518503937008
20
0.2048322834645669
11
-0.8927271653543307
21
0.2050946062992126
0
LINE
8
BLACK
6
CONTINUOUS
10
-0.8927271653543307
20
0.2050946062992126
11
-0.8929205905511811
21
0.2053438582677165
0
LINE
8
BLACK
6
CONTINUOUS
10
-0.8929205905511811
20
0.2053438582677165
11
-0.8944204330708662
21
0.2083435039370079
0
LINE
8
BLACK
6
CONTINUOUS
10
-0.8944204330708662
20
0.2083435039370079
11
-0.8944774015748032
21
0.2085514566929134
0
LINE
8
BLACK
6
CONTINUOUS
10
-0.8944774015748032
20
0.2085514566929134
11
-0.8945694881889763
21
0.2087464173228346
0
LINE
8
BLACK
6
CONTINUOUS
10
-0.8945694881889763
20
0.2087464173228346
11
-0.8960169291338582
21
0.2145361023622047
0
LINE
8
BLACK
6
CONTINUOUS
10
-0.8960169291338582
20
0.2145361023622047
11
-0.8972772047244094
21
0.2170566535433071
0
LINE
8
BLACK
6
CONTINUOUS
10
-0.8972772047244094
20
0.2170566535433071
11
-0.8983252362204724
21
0.2181047244094488
0
LINE
8
BLACK
6
CONTINUOUS
10
-0.8983252362204724
20
0.2181047244094488
11
-0.9006235039370079
21
0.2192538582677165
0
LINE
8
BLACK
6
CONTINUOUS
10
-0.9006235039370079
20
0.2192538582677165
11
-0.9026937401574803
21
0.2192538582677165
0
LINE
8
BLACK
6
CONTINUOUS
10
-0.9026937401574803
20
0.2192538582677165
11
-0.9049920078740157
21
0.2181047244094488
0
LINE
8
BLACK
6
CONTINUOUS
10
-0.9049920078740157
20
0.2181047244094488
11
-0.9060400787401575
21
0.2170566929133858
0
LINE
8
BLACK
6
CONTINUOUS
10
-0.9060400787401575
20
0.2170566929133858
11
-0.9071891732283465
21
0.2147584251968504
0
LINE
8
BLACK
6
CONTINUOUS
10
-0.9071891732283465
20
0.2147584251968504
11
-0.9071891732283465
21
0.2080434251968504
0
LINE
8
BLACK
6
CONTINUOUS
10
-0.9071891732283465
20
0.2080434251968504
11
-0.9057903937007874
21
0.2038470866141732
0
LINE
8
BLACK
6
CONTINUOUS
10
-0.9057903937007874
20
0.2038470866141732
11
-0.9056943307086613
21
0.2030850787401575
0
LINE
8
BLACK
6
CONTINUOUS
10
-0.9056943307086613
20
0.2030850787401575
11
-0.9063681102362204
21
0.2017374803149606
0
LINE
8
BLACK
6
CONTINUOUS
10
-0.9063681102362204
20
0.2017374803149606
11
-0.9077974015748032
21
0.201261062992126
0
LINE
8
BLACK
6
CONTINUOUS
10
-0.9077974015748032
20
0.201261062992126
11
-0.909145
21
0.201934842519685
0
LINE
8
BLACK
6
CONTINUOUS
10
-0.909145
20
0.201934842519685
11
-0.9095253543307087
21
0.202602125984252
0
LINE
8
BLACK
6
CONTINUOUS
10
-0.9095253543307087
20
0.202602125984252
11
-0.911025157480315
21
0.2071015354330709
0
LINE
8
BLACK
6
CONTINUOUS
10
-0.911025157480315
20
0.2071015354330709
11
-0.9110646456692914
21
0.2074144881889764
0
LINE
8
BLACK
6
CONTINUOUS
10
-0.9110646456692914
20
0.2074144881889764
11
-0.9111261811023622
21
0.2077240157480315
0
LINE
8
BLACK
6
CONTINUOUS
10
-0.9111261811023622
20
0.2077240157480315
11
-0.9111261811023622
21
0.2152231102362205
0
LINE
8
BLACK
6
CONTINUOUS
10
-0.9111261811023622
20
0.2152231102362205
11
-0.911106968503937
21
0.215319842519685
0
LINE
8
BLACK
6
CONTINUOUS
10
-0.911106968503937
20
0.215319842519685
11
-0.9111212204724409
21
0.2153626771653543
0
LINE
8
BLACK
6
CONTINUOUS
10
-0.9111212204724409
20
0.2153626771653543
11
-0.9110379133858267
21
0.2156669291338583
0
LINE
8
BLACK
6
CONTINUOUS
10
-0.9110379133858267
20
0.2156669291338583
11
-0.9109763385826771
21
0.2159764173228347
0
LINE
8
BLACK
6
CONTINUOUS
10
-0.9109763385826771
20
0.2159764173228347
11
-0.9109444094488188
21
0.2160083858267716
0
LINE
8
BLACK
6
CONTINUOUS
10
-0.9109444094488188
20
0.2160083858267716
11
-0.9109183464566929
21
0.2161034645669291
0
LINE
8
BLACK
6
CONTINUOUS
10
-0.9109183464566929
20
0.2161034645669291
11
-0.9094185433070866
21
0.2191030708661417
0
LINE
8
BLACK
6
CONTINUOUS
10
-0.9094185433070866
20
0.2191030708661417
11
-0.9092250393700787
21
0.2193524803149606
0
LINE
8
BLACK
6
CONTINUOUS
10
-0.9092250393700787
20
0.2193524803149606
11
-0.9090498031496063
21
0.2196146456692913
0
LINE
8
BLACK
6
CONTINUOUS
10
-0.9090498031496063
20
0.2196146456692913
11
-0.9075500393700787
21
0.2211144488188976
0
LINE
8
BLACK
6
CONTINUOUS
10
-0.9075500393700787
20
0.2211144488188976
11
-0.9072875984251968
21
0.221289842519685
0
LINE
8
BLACK
6
CONTINUOUS
10
-0.9072875984251968
20
0.221289842519685
11
-0.9070384251968504
21
0.2214831889763779
0
LINE
8
BLACK
6
CONTINUOUS
10
-0.9070384251968504
20
0.2214831889763779
11
-0.9040387795275591
21
0.222983031496063
0
LINE
8
BLACK
6
CONTINUOUS
10
-0.9040387795275591
20
0.222983031496063
11
-0.9039437007874016
21
0.223009094488189
0
LINE
8
BLACK
6
CONTINUOUS
10
-0.9039437007874016
20
0.223009094488189
11
-0.9039117322834646
21
0.2230410236220473
0
LINE
8
BLACK
6
CONTINUOUS
10
-0.9039117322834646
20
0.2230410236220473
11
-0.9036022440944882
21
0.2231025984251968
0
LINE
8
BLACK
6
CONTINUOUS
10
-0.9036022440944882
20
0.2231025984251968
11
-0.9032979921259843
21
0.223185905511811
0
LINE
8
BLACK
6
CONTINUOUS
10
-0.9032979921259843
20
0.223185905511811
11
-0.9032551574803149
21
0.2231716535433071
0
LINE
8
BLACK
6
CONTINUOUS
10
-0.9032551574803149
20
0.2231716535433071
11
-0.9031584251968504
21
0.2231908661417323
0
LINE
8
BLACK
6
CONTINUOUS
10
-0.9031584251968504
20
0.2231908661417323
11
-0.9001588188976378
21
0.2231908661417323
0
LINE
8
BLACK
6
CONTINUOUS
10
-0.9001588188976378
20
0.2231908661417323
11
-0.9000621259842519
21
0.2231716535433071
0
LINE
8
BLACK
6
CONTINUOUS
10
-0.8728433464566929
20
0.2519718897637795
11
-0.8726935039370078
21
0.2512185826771653
0
LINE
8
BLACK
6
CONTINUOUS
10
-0.8726935039370078
20
0.2512185826771653
11
-0.8726935039370078
21
0.2272216141732283
0
LINE
8
BLACK
6
CONTINUOUS
10
-0.8726935039370078
20
0.2272216141732283
11
-0.8728433464566929
21
0.2264683070866142
0
LINE
8
BLACK
6
CONTINUOUS
10
-0.8728433464566929
20
0.2264683070866142
11
-0.8739087007874016
21
0.2254029527559055
0
LINE
8
BLACK
6
CONTINUOUS
10
-0.8739087007874016
20
0.2254029527559055
11
-0.8754153149606299
21
0.2254029527559055
0
LINE
8
BLACK
6
CONTINUOUS
10
-0.8754153149606299
20
0.2254029527559055
11
-0.8764806692913386
21
0.2264683070866142
0
LINE
8
BLACK
6
CONTINUOUS
10
-0.8764806692913386
20
0.2264683070866142
11
-0.8766305118110236
21
0.2272216141732283
0
LINE
8
BLACK
6
CONTINUOUS
10
-0.8766305118110236
20
0.2272216141732283
11
-0.8766305118110236
21
0.2512185826771653
0
LINE
8
BLACK
6
CONTINUOUS
10
-0.8766305118110236
20
0.2512185826771653
11
-0.8764806692913386
21
0.2519718897637795
0
LINE
8
BLACK
6
CONTINUOUS
10
-0.8764806692913386
20
0.2519718897637795
11
-0.8754153149606299
21
0.2530372440944882
0
LINE
8
BLACK
6
CONTINUOUS
10
-0.8754153149606299
20
0.2530372440944882
11
-0.8739087007874016
21
0.2530372440944882
0
LINE
8
BLACK
6
CONTINUOUS
10
-0.8739087007874016
20
0.2530372440944882
11
-0.8728433464566929
21
0.2519718897637795
0
LINE
8
BLACK
6
CONTINUOUS
10
-0.8769083070866142
20
0.271035
11
-0.8758429527559055
21
0.2699696456692913
0
LINE
8
BLACK
6
CONTINUOUS
10
-0.8758429527559055
20
0.2699696456692913
11
-0.8758429527559055
21
0.268463031496063
0
LINE
8
BLACK
6
CONTINUOUS
10
-0.8758429527559055
20
0.268463031496063
11
-0.8769083070866142
21
0.2673976771653543
0
LINE
8
BLACK
6
CONTINUOUS
10
-0.8769083070866142
20
0.2673976771653543
11
-0.8776616141732283
21
0.2672478346456693
0
LINE
8
BLACK
6
CONTINUOUS
10
-0.8776616141732283
20
0.2672478346456693
11
-0.8858451181102363
21
0.2672478346456693
0
LINE
8
BLACK
6
CONTINUOUS
10
-0.8858451181102363
20
0.2672478346456693
11
-0.8866632677165354
21
0.2664297244094488
0
LINE
8
BLACK
6
CONTINUOUS
10
-0.8866632677165354
20
0.2664297244094488
11
-0.8764805118110236
21
0.2587926377952756
0
LINE
8
BLACK
6
CONTINUOUS
10
-0.8764805118110236
20
0.2587926377952756
11
-0.8759677559055118
21
0.2582207874015748
0
LINE
8
BLACK
6
CONTINUOUS
10
-0.8759677559055118
20
0.2582207874015748
11
-0.87575468503937
21
0.2567292913385827
0
LINE
8
BLACK
6
CONTINUOUS
10
-0.87575468503937
20
0.2567292913385827
11
-0.8766586614173228
21
0.2555239763779528
0
LINE
8
BLACK
6
CONTINUOUS
10
-0.8766586614173228
20
0.2555239763779528
11
-0.8781501574803149
21
0.255310905511811
0
LINE
8
BLACK
6
CONTINUOUS
10
-0.8781501574803149
20
0.255310905511811
11
-0.878842716535433
21
0.255643031496063
0
LINE
8
BLACK
6
CONTINUOUS
10
-0.878842716535433
20
0.255643031496063
11
-0.8894754330708661
21
0.2636175984251968
0
LINE
8
BLACK
6
CONTINUOUS
10
-0.8894754330708661
20
0.2636175984251968
11
-0.8972670866141732
21
0.255825905511811
0
LINE
8
BLACK
6
CONTINUOUS
10
-0.8972670866141732
20
0.255825905511811
11
-0.8979057086614173
21
0.2553991732283464
0
LINE
8
BLACK
6
CONTINUOUS
10
-0.8979057086614173
20
0.2553991732283464
11
-0.8994123228346457
21
0.2553991732283464
0
LINE
8
BLACK
6
CONTINUOUS
10
-0.8994123228346457
20
0.2553991732283464
11
-0.9004776771653543
21
0.2564645275590551
0
LINE
8
BLACK
6
CONTINUOUS
10
-0.9004776771653543
20
0.2564645275590551
11
-0.9004776771653543
21
0.2579711417322835
0
LINE
8
BLACK
6
CONTINUOUS
10
-0.9004776771653543
20
0.2579711417322835
11
-0.9000509448818897
21
0.2586097637795275
0
LINE
8
BLACK
6
CONTINUOUS
10
-0.9000509448818897
20
0.2586097637795275
11
-0.8914129133858267
21
0.2672478346456693
0
LINE
8
BLACK
6
CONTINUOUS
10
-0.8914129133858267
20
0.2672478346456693
11
-0.9091576771653543
21
0.2672478346456693
0
LINE
8
BLACK
6
CONTINUOUS
10
-0.9091576771653543
20
0.2672478346456693
11
-0.9099109842519685
21
0.2673976771653543
0
LINE
8
BLACK
6
CONTINUOUS
10
-0.9099109842519685
20
0.2673976771653543
11
-0.9109763385826771
21
0.268463031496063
0
LINE
8
BLACK
6
CONTINUOUS
10
-0.9109763385826771
20
0.268463031496063
11
-0.9109763385826771
21
0.2699696456692913
0
LINE
8
BLACK
6
CONTINUOUS
10
-0.9109763385826771
20
0.2699696456692913
11
-0.9099109842519685
21
0.271035
0
LINE
8
BLACK
6
CONTINUOUS
10
-0.9099109842519685
20
0.271035
11
-0.9091576771653543
21
0.2711848425196851
0
LINE
8
BLACK
6
CONTINUOUS
10
-0.9091576771653543
20
0.2711848425196851
11
-0.8776616141732283
21
0.2711848425196851
0
LINE
8
BLACK
6
CONTINUOUS
10
-0.8776616141732283
20
0.2711848425196851
11
-0.8769083070866142
21
0.271035
0
LINE
8
BLACK
6
CONTINUOUS
10
-0.8835641732283465
20
0.2996620866141732
11
-0.8835212992125984
21
0.2996763385826772
0
LINE
8
BLACK
6
CONTINUOUS
10
-0.8835212992125984
20
0.2996763385826772
11
-0.8832170866141732
21
0.299593031496063
0
LINE
8
BLACK
6
CONTINUOUS
10
-0.8832170866141732
20
0.299593031496063
11
-0.8829075590551181
21
0.2995314566929134
0
LINE
8
BLACK
6
CONTINUOUS
10
-0.8829075590551181
20
0.2995314566929134
11
-0.8828756299212598
21
0.2994995275590551
0
LINE
8
BLACK
6
CONTINUOUS
10
-0.8828756299212598
20
0.2994995275590551
11
-0.8827805118110236
21
0.2994734645669291
0
LINE
8
BLACK
6
CONTINUOUS
10
-0.8827805118110236
20
0.2994734645669291
11
-0.879780905511811
21
0.2979736220472441
0
LINE
8
BLACK
6
CONTINUOUS
10
-0.879780905511811
20
0.2979736220472441
11
-0.8795318897637795
21
0.2977803543307087
0
LINE
8
BLACK
6
CONTINUOUS
10
-0.8795318897637795
20
0.2977803543307087
11
-0.8792693307086614
21
0.2976049212598425
0
LINE
8
BLACK
6
CONTINUOUS
10
-0.8792693307086614
20
0.2976049212598425
11
-0.8777694881889764
21
0.2961051181102362
0
LINE
8
BLACK
6
CONTINUOUS
10
-0.8777694881889764
20
0.2961051181102362
11
-0.8775942519685039
21
0.2958427952755905
0
LINE
8
BLACK
6
CONTINUOUS
10
-0.8775942519685039
20
0.2958427952755905
11
-0.877400748031496
21
0.2955935039370078
0
LINE
8
BLACK
6
CONTINUOUS
10
-0.877400748031496
20
0.2955935039370078
11
-0.8759009448818897
21
0.2925938976377953
0
LINE
8
BLACK
6
CONTINUOUS
10
-0.8759009448818897
20
0.2925938976377953
11
-0.8758749212598425
21
0.2924988188976378
0
LINE
8
BLACK
6
CONTINUOUS
10
-0.8758749212598425
20
0.2924988188976378
11
-0.8758429527559055
21
0.2924668503937008
0
LINE
8
BLACK
6
CONTINUOUS
10
-0.8758429527559055
20
0.2924668503937008
11
-0.8757814173228347
21
0.2921573622047244
0
LINE
8
BLACK
6
CONTINUOUS
10
-0.8757814173228347
20
0.2921573622047244
11
-0.8756980708661417
21
0.2918531102362205
0
LINE
8
BLACK
6
CONTINUOUS
10
-0.8756980708661417
20
0.2918531102362205
11
-0.8757123622047244
21
0.2918102755905512
0
LINE
8
BLACK
6
CONTINUOUS
10
-0.8757123622047244
20
0.2918102755905512
11
-0.8756931102362204
21
0.2917135433070866
0
LINE
8
BLACK
6
CONTINUOUS
10
-0.8756931102362204
20
0.2917135433070866
11
-0.8756931102362204
21
0.2857142913385827
0
LINE
8
BLACK
6
CONTINUOUS
10
-0.8756931102362204
20
0.2857142913385827
11
-0.8757123622047244
21
0.2856175984251969
0
LINE
8
BLACK
6
CONTINUOUS
10
-0.8757123622047244
20
0.2856175984251969
11
-0.8756980708661417
21
0.2855747637795276
0
LINE
8
BLACK
6
CONTINUOUS
10
-0.8756980708661417
20
0.2855747637795276
11
-0.8757814173228347
21
0.2852704724409449
0
LINE
8
BLACK
6
CONTINUOUS
10
-0.8757814173228347
20
0.2852704724409449
11
-0.8758429527559055
21
0.2849609842519685
0
LINE
8
BLACK
6
CONTINUOUS
10
-0.8758429527559055
20
0.2849609842519685
11
-0.8758748818897638
21
0.284929094488189
0
LINE
8
BLACK
6
CONTINUOUS
10
-0.8758748818897638
20
0.284929094488189
11
-0.875900905511811
21
0.2848339763779528
0
LINE
8
BLACK
6
CONTINUOUS
10
-0.875900905511811
20
0.2848339763779528
11
-0.877400748031496
21
0.2818343307086614
0
LINE
8
BLACK
6
CONTINUOUS
10
-0.877400748031496
20
0.2818343307086614
11
-0.8778716535433071
21
0.2812275590551181
0
LINE
8
BLACK
6
CONTINUOUS
10
-0.8778716535433071
20
0.2812275590551181
11
-0.8793009448818897
21
0.2807511023622047
0
LINE
8
BLACK
6
CONTINUOUS
10
-0.8793009448818897
20
0.2807511023622047
11
-0.8806485039370079
21
0.2814248818897638
0
LINE
8
BLACK
6
CONTINUOUS
10
-0.8806485039370079
20
0.2814248818897638
11
-0.8811249606299213
21
0.2828541732283464
0
LINE
8
BLACK
6
CONTINUOUS
10
-0.8811249606299213
20
0.2828541732283464
11
-0.8809220866141733
21
0.2835949606299212
0
LINE
8
BLACK
6
CONTINUOUS
10
-0.8809220866141733
20
0.2835949606299212
11
-0.8796301181102362
21
0.2861789763779528
0
LINE
8
BLACK
6
CONTINUOUS
10
-0.8796301181102362
20
0.2861789763779528
11
-0.8796301181102362
21
0.2912488582677165
0
LINE
8
BLACK
6
CONTINUOUS
10
-0.8796301181102362
20
0.2912488582677165
11
-0.8807792125984252
21
0.2935470472440945
0
LINE
8
BLACK
6
CONTINUOUS
10
-0.8807792125984252
20
0.2935470472440945
11
-0.8818273228346456
21
0.294595157480315
0
LINE
8
BLACK
6
CONTINUOUS
10
-0.8818273228346456
20
0.294595157480315
11
-0.8841255511811024
21
0.2957442913385827
0
LINE
8
BLACK
6
CONTINUOUS
10
-0.8841255511811024
20
0.2957442913385827
11
-0.8921950787401575
21
0.2957442913385827
0
LINE
8
BLACK
6
CONTINUOUS
10
-0.8921950787401575
20
0.2957442913385827
11
-0.8944933070866141
21
0.2945951968503937
0
LINE
8
BLACK
6
CONTINUOUS
10
-0.8944933070866141
20
0.2945951968503937
11
-0.8955413385826771
21
0.2935471653543307
0
LINE
8
BLACK
6
CONTINUOUS
10
-0.8955413385826771
20
0.2935471653543307
11
-0.8966905118110235
21
0.2912488582677165
0
LINE
8
BLACK
6
CONTINUOUS
10
-0.8966905118110235
20
0.2912488582677165
11
-0.8966905118110235
21
0.2861790157480315
0
LINE
8
BLACK
6
CONTINUOUS
10
-0.8966905118110235
20
0.2861790157480315
11
-0.8953985039370078
21
0.283595
0
LINE
8
BLACK
6
CONTINUOUS
10
-0.8953985039370078
20
0.283595
11
-0.8951956299212598
21
0.2828542125984252
0
LINE
8
BLACK
6
CONTINUOUS
10
-0.8951956299212598
20
0.2828542125984252
11
-0.8956720472440944
21
0.2814248818897638
0
LINE
8
BLACK
6
CONTINUOUS
10
-0.8956720472440944
20
0.2814248818897638
11
-0.8970196062992126
21
0.2807511023622047
0
LINE
8
BLACK
6
CONTINUOUS
10
-0.8970196062992126
20
0.2807511023622047
11
-0.898448937007874
21
0.2812275590551181
0
LINE
8
BLACK
6
CONTINUOUS
10
-0.898448937007874
20
0.2812275590551181
11
-0.898919842519685
21
0.2818342913385827
0
LINE
8
BLACK
6
CONTINUOUS
10
-0.898919842519685
20
0.2818342913385827
11
-0.9004196850393701
21
0.284833937007874
0
LINE
8
BLACK
6
CONTINUOUS
10
-0.9004196850393701
20
0.284833937007874
11
-0.900445748031496
21
0.2849290551181102
0
LINE
8
BLACK
6
CONTINUOUS
10
-0.900445748031496
20
0.2849290551181102
11
-0.9004776771653543
21
0.2849609842519685
0
LINE
8
BLACK
6
CONTINUOUS
10
-0.9004776771653543
20
0.2849609842519685
11
-0.9005392519685039
21
0.2852705118110236
0
LINE
8
BLACK
6
CONTINUOUS
10
-0.9005392519685039
20
0.2852705118110236
11
-0.9006225590551181
21
0.2855747244094488
0
LINE
8
BLACK
6
CONTINUOUS
10
-0.9006225590551181
20
0.2855747244094488
11
-0.9006083070866141
21
0.2856175984251969
0
LINE
8
BLACK
6
CONTINUOUS
10
-0.9006083070866141
20
0.2856175984251969
11
-0.9006275196850394
21
0.2857142913385827
0
LINE
8
BLACK
6
CONTINUOUS
10
-0.9006275196850394
20
0.2857142913385827
11
-0.9006275196850394
21
0.2917135433070866
0
LINE
8
BLACK
6
CONTINUOUS
10
-0.9006275196850394
20
0.2917135433070866
11
-0.9006083070866141
21
0.2918102755905512
0
LINE
8
BLACK
6
CONTINUOUS
10
-0.9006083070866141
20
0.2918102755905512
11
-0.9006225590551181
21
0.2918531102362205
0
LINE
8
BLACK
6
CONTINUOUS
10
-0.9006225590551181
20
0.2918531102362205
11
-0.9005392519685039
21
0.2921573622047244
0
LINE
8
BLACK
6
CONTINUOUS
10
-0.9005392519685039
20
0.2921573622047244
11
-0.9004776771653543
21
0.2924668503937008
0
LINE
8
BLACK
6
CONTINUOUS
10
-0.9004776771653543
20
0.2924668503937008
11
-0.900445748031496
21
0.2924988188976378
0
LINE
8
BLACK
6
CONTINUOUS
10
-0.900445748031496
20
0.2924988188976378
11
-0.9004196850393701
21
0.2925938976377953
0
LINE
8
BLACK
6
CONTINUOUS
10
-0.9004196850393701
20
0.2925938976377953
11
-0.898919842519685
21
0.2955935039370078
0
LINE
8
BLACK
6
CONTINUOUS
10
-0.898919842519685
20
0.2955935039370078
11
-0.8987264173228346
21
0.2958427952755905
0
LINE
8
BLACK
6
CONTINUOUS
10
-0.8987264173228346
20
0.2958427952755905
11
-0.8985511023622047
21
0.2961050787401575
0
LINE
8
BLACK
6
CONTINUOUS
10
-0.8985511023622047
20
0.2961050787401575
11
-0.8970513385826772
21
0.2976048818897638
0
LINE
8
BLACK
6
CONTINUOUS
10
-0.8970513385826772
20
0.2976048818897638
11
-0.8967888976377952
21
0.2977802755905511
0
LINE
8
BLACK
6
CONTINUOUS
10
-0.8967888976377952
20
0.2977802755905511
11
-0.8965397244094488
21
0.2979736220472441
0
LINE
8
BLACK
6
CONTINUOUS
10
-0.8965397244094488
20
0.2979736220472441
11
-0.8935401574803149
21
0.2994734645669291
0
LINE
8
BLACK
6
CONTINUOUS
10
-0.8935401574803149
20
0.2994734645669291
11
-0.8934450393700787
21
0.2994995275590551
0
LINE
8
BLACK
6
CONTINUOUS
10
-0.8934450393700787
20
0.2994995275590551
11
-0.8934130708661417
21
0.2995314566929134
0
LINE
8
BLACK
6
CONTINUOUS
10
-0.8934130708661417
20
0.2995314566929134
11
-0.8931037007874015
21
0.299593031496063
0
LINE
8
BLACK
6
CONTINUOUS
10
-0.8931037007874015
20
0.299593031496063
11
-0.8927993700787401
21
0.2996763385826772
0
LINE
8
BLACK
6
CONTINUOUS
10
-0.8927993700787401
20
0.2996763385826772
11
-0.8927565354330709
21
0.2996620866141732
0
LINE
8
BLACK
6
CONTINUOUS
10
-0.8927565354330709
20
0.2996620866141732
11
-0.8926597637795275
21
0.2996812992125984
0
LINE
8
BLACK
6
CONTINUOUS
10
-0.8926597637795275
20
0.2996812992125984
11
-0.8836608661417322
21
0.2996812992125984
0
LINE
8
BLACK
6
CONTINUOUS
10
-0.8836608661417322
20
0.2996812992125984
11
-0.8835641732283465
21
0.2996620866141732
0
LINE
8
BLACK
6
CONTINUOUS
10
-0.8820643700787402
20
0.3281585433070866
11
-0.8820214960629921
21
0.3281727952755906
0
LINE
8
BLACK
6
CONTINUOUS
10
-0.8820214960629921
20
0.3281727952755906
11
-0.8817172834645669
21
0.3280894881889764
0
LINE
8
BLACK
6
CONTINUOUS
10
-0.8817172834645669
20
0.3280894881889764
11
-0.8814077559055118
21
0.3280279133858268
0
LINE
8
BLACK
6
CONTINUOUS
10
-0.8814077559055118
20
0.3280279133858268
11
-0.8813758267716535
21
0.3279959842519685
0
LINE
8
BLACK
6
CONTINUOUS
10
-0.8813758267716535
20
0.3279959842519685
11
-0.8812807086614173
21
0.3279699212598425
0
LINE
8
BLACK
6
CONTINUOUS
10
-0.8812807086614173
20
0.3279699212598425
11
-0.8782810629921259
21
0.3264700787401575
0
LINE
8
BLACK
6
CONTINUOUS
10
-0.8782810629921259
20
0.3264700787401575
11
-0.8779715354330708
21
0.326229842519685
0
LINE
8
BLACK
6
CONTINUOUS
10
-0.8779715354330708
20
0.326229842519685
11
-0.8778716535433071
21
0.3261965354330709
0
LINE
8
BLACK
6
CONTINUOUS
10
-0.8778716535433071
20
0.3261965354330709
11
-0.8777853937007873
21
0.3260853543307087
0
LINE
8
BLACK
6
CONTINUOUS
10
-0.8777853937007873
20
0.3260853543307087
11
-0.8776743307086614
21
0.3259991732283464
0
LINE
8
BLACK
6
CONTINUOUS
10
-0.8776743307086614
20
0.3259991732283464
11
-0.8776411023622047
21
0.3258994488188977
0
LINE
8
BLACK
6
CONTINUOUS
10
-0.8776411023622047
20
0.3258994488188977
11
-0.877400748031496
21
0.3255897637795275
0
LINE
8
BLACK
6
CONTINUOUS
10
-0.877400748031496
20
0.3255897637795275
11
-0.8759009448818897
21
0.3225901574803149
0
LINE
8
BLACK
6
CONTINUOUS
10
-0.8759009448818897
20
0.3225901574803149
11
-0.8758749212598425
21
0.3224950787401575
0
LINE
8
BLACK
6
CONTINUOUS
10
-0.8758749212598425
20
0.3224950787401575
11
-0.8758429527559055
21
0.3224631102362205
0
LINE
8
BLACK
6
CONTINUOUS
10
-0.8758429527559055
20
0.3224631102362205
11
-0.8757814173228347
21
0.3221536220472441
0
LINE
8
BLACK
6
CONTINUOUS
10
-0.8757814173228347
20
0.3221536220472441
11
-0.8756980708661417
21
0.3218493700787401
0
LINE
8
BLACK
6
CONTINUOUS
10
-0.8756980708661417
20
0.3218493700787401
11
-0.8757123622047244
21
0.3218065354330709
0
LINE
8
BLACK
6
CONTINUOUS
10
-0.8757123622047244
20
0.3218065354330709
11
-0.8756931102362204
21
0.3217098031496063
0
LINE
8
BLACK
6
CONTINUOUS
10
-0.8756931102362204
20
0.3217098031496063
11
-0.8756931102362204
21
0.3142107480314961
0
LINE
8
BLACK
6
CONTINUOUS
10
-0.8756931102362204
20
0.3142107480314961
11
-0.8757123622047244
21
0.3141140551181102
0
LINE
8
BLACK
6
CONTINUOUS
10
-0.8757123622047244
20
0.3141140551181102
11
-0.8756980708661417
21
0.314071220472441
0
LINE
8
BLACK
6
CONTINUOUS
10
-0.8756980708661417
20
0.314071220472441
11
-0.8757814173228347
21
0.3137669291338583
0
LINE
8
BLACK
6
CONTINUOUS
10
-0.8757814173228347
20
0.3137669291338583
11
-0.8758429527559055
21
0.3134574409448819
0
LINE
8
BLACK
6
CONTINUOUS
10
-0.8758429527559055
20
0.3134574409448819
11
-0.8758748818897638
21
0.3134255511811024
0
LINE
8
BLACK
6
CONTINUOUS
10
-0.8758748818897638
20
0.3134255511811024
11
-0.875900905511811
21
0.3133304330708661
0
LINE
8
BLACK
6
CONTINUOUS
10
-0.875900905511811
20
0.3133304330708661
11
-0.8763369685039369
21
0.3124584251968504
0
LINE
8
BLACK
6
CONTINUOUS
10
-0.8763369685039369
20
0.3124584251968504
11
-0.8758429527559055
21
0.3119644094488189
0
LINE
8
BLACK
6
CONTINUOUS
10
-0.8758429527559055
20
0.3119644094488189
11
-0.8758429527559055
21
0.3104577952755905
0
LINE
8
BLACK
6
CONTINUOUS
10
-0.8758429527559055
20
0.3104577952755905
11
-0.8769083070866142
21
0.3093924409448819
0
LINE
8
BLACK
6
CONTINUOUS
10
-0.8769083070866142
20
0.3093924409448819
11
-0.8776616141732283
21
0.3092425984251969
0
LINE
8
BLACK
6
CONTINUOUS
10
-0.8776616141732283
20
0.3092425984251969
11
-0.8941595669291338
21
0.3092425984251969
0
LINE
8
BLACK
6
CONTINUOUS
10
-0.8941595669291338
20
0.3092425984251969
11
-0.8942562992125984
21
0.3092618503937008
0
LINE
8
BLACK
6
CONTINUOUS
10
-0.8942562992125984
20
0.3092618503937008
11
-0.8942991338582676
21
0.3092475590551181
0
LINE
8
BLACK
6
CONTINUOUS
10
-0.8942991338582676
20
0.3092475590551181
11
-0.8946033858267717
21
0.309330905511811
0
LINE
8
BLACK
6
CONTINUOUS
10
-0.8946033858267717
20
0.309330905511811
11
-0.894912874015748
21
0.3093924409448819
0
LINE
8
BLACK
6
CONTINUOUS
10
-0.894912874015748
20
0.3093924409448819
11
-0.894944842519685
21
0.3094244094488189
0
LINE
8
BLACK
6
CONTINUOUS
10
-0.894944842519685
20
0.3094244094488189
11
-0.8950399212598426
21
0.3094504330708661
0
LINE
8
BLACK
6
CONTINUOUS
10
-0.8950399212598426
20
0.3094504330708661
11
-0.8980395275590551
21
0.3109502362204724
0
LINE
8
BLACK
6
CONTINUOUS
10
-0.8980395275590551
20
0.3109502362204724
11
-0.8983492125984252
21
0.3111905905511811
0
LINE
8
BLACK
6
CONTINUOUS
10
-0.8983492125984252
20
0.3111905905511811
11
-0.898448937007874
21
0.3112238188976378
0
LINE
8
BLACK
6
CONTINUOUS
10
-0.898448937007874
20
0.3112238188976378
11
-0.8985351181102362
21
0.3113348818897638
0
LINE
8
BLACK
6
CONTINUOUS
10
-0.8985351181102362
20
0.3113348818897638
11
-0.8986462992125984
21
0.3114211417322835
0
LINE
8
BLACK
6
CONTINUOUS
10
-0.8986462992125984
20
0.3114211417322835
11
-0.8986796062992126
21
0.3115210236220473
0
LINE
8
BLACK
6
CONTINUOUS
10
-0.8986796062992126
20
0.3115210236220473
11
-0.898919842519685
21
0.3118305511811024
0
LINE
8
BLACK
6
CONTINUOUS
10
-0.898919842519685
20
0.3118305511811024
11
-0.9004196850393701
21
0.3148301968503937
0
LINE
8
BLACK
6
CONTINUOUS
10
-0.9004196850393701
20
0.3148301968503937
11
-0.900445748031496
21
0.3149253149606299
0
LINE
8
BLACK
6
CONTINUOUS
10
-0.900445748031496
20
0.3149253149606299
11
-0.9004776771653543
21
0.3149572440944882
0
LINE
8
BLACK
6
CONTINUOUS
10
-0.9004776771653543
20
0.3149572440944882
11
-0.9005392519685039
21
0.3152667716535433
0
LINE
8
BLACK
6
CONTINUOUS
10
-0.9005392519685039
20
0.3152667716535433
11
-0.9006225590551181
21
0.3155709842519685
0
LINE
8
BLACK
6
CONTINUOUS
10
-0.9006225590551181
20
0.3155709842519685
11
-0.9006083070866141
21
0.3156138582677165
0
LINE
8
BLACK
6
CONTINUOUS
10
-0.9006083070866141
20
0.3156138582677165
11
-0.9006275196850394
21
0.3157105511811024
0
LINE
8
BLACK
6
CONTINUOUS
10
-0.9006275196850394
20
0.3157105511811024
11
-0.9006275196850394
21
0.3217098031496063
0
LINE
8
BLACK
6
CONTINUOUS
10
-0.9006275196850394
20
0.3217098031496063
11
-0.9006083070866141
21
0.3218065354330709
0
LINE
8
BLACK
6
CONTINUOUS
10
-0.9006083070866141
20
0.3218065354330709
11
-0.9006225590551181
21
0.3218493700787401
0
LINE
8
BLACK
6
CONTINUOUS
10
-0.9006225590551181
20
0.3218493700787401
11
-0.9005392519685039
21
0.3221536220472441
0
LINE
8
BLACK
6
CONTINUOUS
10
-0.9005392519685039
20
0.3221536220472441
11
-0.9004776771653543
21
0.3224631102362205
0
LINE
8
BLACK
6
CONTINUOUS
10
-0.9004776771653543
20
0.3224631102362205
11
-0.900445748031496
21
0.3224950787401575
0
LINE
8
BLACK
6
CONTINUOUS
10
-0.900445748031496
20
0.3224950787401575
11
-0.9004196850393701
21
0.3225901574803149
0
LINE
8
BLACK
6
CONTINUOUS
10
-0.9004196850393701
20
0.3225901574803149
11
-0.898919842519685
21
0.3255897637795275
0
LINE
8
BLACK
6
CONTINUOUS
10
-0.898919842519685
20
0.3255897637795275
11
-0.898448937007874
21
0.3261964960629921
0
LINE
8
BLACK
6
CONTINUOUS
10
-0.898448937007874
20
0.3261964960629921
11
-0.8970196062992126
21
0.3266729527559055
0
LINE
8
BLACK
6
CONTINUOUS
10
-0.8970196062992126
20
0.3266729527559055
11
-0.8956720472440944
21
0.3259991338582677
0
LINE
8
BLACK
6
CONTINUOUS
10
-0.8956720472440944
20
0.3259991338582677
11
-0.8951956299212598
21
0.3245698031496063
0
LINE
8
BLACK
6
CONTINUOUS
10
-0.8951956299212598
20
0.3245698031496063
11
-0.8953985039370078
21
0.3238290157480315
0
LINE
8
BLACK
6
CONTINUOUS
10
-0.8953985039370078
20
0.3238290157480315
11
-0.8966905118110235
21
0.3212451181102362
0
LINE
8
BLACK
6
CONTINUOUS
10
-0.8966905118110235
20
0.3212451181102362
11
-0.8966905118110235
21
0.3161752755905512
0
LINE
8
BLACK
6
CONTINUOUS
10
-0.8966905118110235
20
0.3161752755905512
11
-0.895691968503937
21
0.3141781496062992
0
LINE
8
BLACK
6
CONTINUOUS
10
-0.895691968503937
20
0.3141781496062992
11
-0.8936948818897638
21
0.3131796062992126
0
LINE
8
BLACK
6
CONTINUOUS
10
-0.8936948818897638
20
0.3131796062992126
11
-0.8923764960629921
21
0.3131796062992126
0
LINE
8
BLACK
6
CONTINUOUS
10
-0.8923764960629921
20
0.3131796062992126
11
-0.891628622047244
21
0.3146754330708662
0
LINE
8
BLACK
6
CONTINUOUS
10
-0.891628622047244
20
0.3146754330708662
11
-0.891628622047244
21
0.3217098031496063
0
LINE
8
BLACK
6
CONTINUOUS
10
-0.891628622047244
20
0.3217098031496063
11
-0.8916094094488188
21
0.3218065354330709
0
LINE
8
BLACK
6
CONTINUOUS
10
-0.8916094094488188
20
0.3218065354330709
11
-0.8916236614173229
21
0.3218493700787401
0
LINE
8
BLACK
6
CONTINUOUS
10
-0.8916236614173229
20
0.3218493700787401
11
-0.8915403543307087
21
0.3221536220472441
0
LINE
8
BLACK
6
CONTINUOUS
10
-0.8915403543307087
20
0.3221536220472441
11
-0.8914787795275591
21
0.3224631102362205
0
LINE
8
BLACK
6
CONTINUOUS
10
-0.8914787795275591
20
0.3224631102362205
11
-0.8914468503937008
21
0.3224950787401575
0
LINE
8
BLACK
6
CONTINUOUS
10
-0.8914468503937008
20
0.3224950787401575
11
-0.8914207874015748
21
0.3225901574803149
0
LINE
8
BLACK
6
CONTINUOUS
10
-0.8914207874015748
20
0.3225901574803149
11
-0.8899209842519685
21
0.3255897637795275
0
LINE
8
BLACK
6
CONTINUOUS
10
-0.8899209842519685
20
0.3255897637795275
11
-0.889680748031496
21
0.3258993700787401
0
LINE
8
BLACK
6
CONTINUOUS
10
-0.889680748031496
20
0.3258993700787401
11
-0.8896474409448819
21
0.3259991732283464
0
LINE
8
BLACK
6
CONTINUOUS
10
-0.8896474409448819
20
0.3259991732283464
11
-0.8895363385826771
21
0.3260854330708661
0
LINE
8
BLACK
6
CONTINUOUS
10
-0.8895363385826771
20
0.3260854330708661
11
-0.8894500787401575
21
0.3261965354330709
0
LINE
8
BLACK
6
CONTINUOUS
10
-0.8894500787401575
20
0.3261965354330709
11
-0.8893502755905511
21
0.326229842519685
0
LINE
8
BLACK
6
CONTINUOUS
10
-0.8893502755905511
20
0.326229842519685
11
-0.8890406692913385
21
0.3264700787401575
0
LINE
8
BLACK
6
CONTINUOUS
10
-0.8890406692913385
20
0.3264700787401575
11
-0.8860410236220472
21
0.3279699212598425
0
LINE
8
BLACK
6
CONTINUOUS
10
-0.8860410236220472
20
0.3279699212598425
11
-0.8859459448818897
21
0.3279959842519685
0
LINE
8
BLACK
6
CONTINUOUS
10
-0.8859459448818897
20
0.3279959842519685
11
-0.8859139763779528
21
0.3280279133858268
0
LINE
8
BLACK
6
CONTINUOUS
10
-0.8859139763779528
20
0.3280279133858268
11
-0.8856044881889764
21
0.3280894881889764
0
LINE
8
BLACK
6
CONTINUOUS
10
-0.8856044881889764
20
0.3280894881889764
11
-0.8853002362204724
21
0.3281727952755906
0
LINE
8
BLACK
6
CONTINUOUS
10
-0.8853002362204724
20
0.3281727952755906
11
-0.8852574015748031
21
0.3281585433070866
0
LINE
8
BLACK
6
CONTINUOUS
10
-0.8852574015748031
20
0.3281585433070866
11
-0.8851606692913385
21
0.3281777559055118
0
LINE
8
BLACK
6
CONTINUOUS
10
-0.8851606692913385
20
0.3281777559055118
11
-0.8821610629921259
21
0.3281777559055118
0
LINE
8
BLACK
6
CONTINUOUS
10
-0.8821610629921259
20
0.3281777559055118
11
-0.8820643700787402
21
0.3281585433070866
0
LINE
8
BLACK
6
CONTINUOUS
10
-0.8866931102362204
20
0.3232422047244095
11
-0.8876916141732283
21
0.3212451181102362
0
LINE
8
BLACK
6
CONTINUOUS
10
-0.8876916141732283
20
0.3212451181102362
11
-0.8876916141732283
21
0.3142107480314961
0
LINE
8
BLACK
6
CONTINUOUS
10
-0.8876916141732283
20
0.3142107480314961
11
-0.8877108661417322
21
0.3141140551181102
0
LINE
8
BLACK
6
CONTINUOUS
10
-0.8877108661417322
20
0.3141140551181102
11
-0.8876965748031496
21
0.314071220472441
0
LINE
8
BLACK
6
CONTINUOUS
10
-0.8876965748031496
20
0.314071220472441
11
-0.8877799212598425
21
0.3137669291338583
0
LINE
8
BLACK
6
CONTINUOUS
10
-0.8877799212598425
20
0.3137669291338583
11
-0.8878414566929134
21
0.3134574409448819
0
LINE
8
BLACK
6
CONTINUOUS
10
-0.8878414566929134
20
0.3134574409448819
11
-0.8878733858267717
21
0.3134255511811024
0
LINE
8
BLACK
6
CONTINUOUS
10
-0.8878733858267717
20
0.3134255511811024
11
-0.8878994094488188
21
0.3133304330708661
0
LINE
8
BLACK
6
CONTINUOUS
10
-0.8878994094488188
20
0.3133304330708661
11
-0.8879748425196851
21
0.3131796062992126
0
LINE
8
BLACK
6
CONTINUOUS
10
-0.8879748425196851
20
0.3131796062992126
11
-0.8803779921259842
21
0.3131796062992126
0
LINE
8
BLACK
6
CONTINUOUS
10
-0.8803779921259842
20
0.3131796062992126
11
-0.8796301181102362
21
0.3146754330708662
0
LINE
8
BLACK
6
CONTINUOUS
10
-0.8796301181102362
20
0.3146754330708662
11
-0.8796301181102362
21
0.3212451181102362
0
LINE
8
BLACK
6
CONTINUOUS
10
-0.8796301181102362
20
0.3212451181102362
11
-0.8806286614173228
21
0.3232422047244095
0
LINE
8
BLACK
6
CONTINUOUS
10
-0.8806286614173228
20
0.3232422047244095
11
-0.8826257480314961
21
0.3242407480314961
0
LINE
8
BLACK
6
CONTINUOUS
10
-0.8826257480314961
20
0.3242407480314961
11
-0.8846959842519685
21
0.3242407480314961
0
LINE
8
BLACK
6
CONTINUOUS
10
-0.8846959842519685
20
0.3242407480314961
11
-0.8866931102362204
21
0.3232422047244095
0
LINE
8
BLACK
6
CONTINUOUS
10
-0.8758429527559055
20
0.3524593700787402
11
-0.8756931102362204
21
0.351706062992126
0
LINE
8
BLACK
6
CONTINUOUS
10
-0.8756931102362204
20
0.351706062992126
11
-0.8756931102362204
21
0.3487064173228346
0
LINE
8
BLACK
6
CONTINUOUS
10
-0.8756931102362204
20
0.3487064173228346
11
-0.87575468503937
21
0.3483968897637795
0
LINE
8
BLACK
6
CONTINUOUS
10
-0.87575468503937
20
0.3483968897637795
11
-0.8757941338582677
21
0.348083937007874
0
LINE
8
BLACK
6
CONTINUOUS
10
-0.8757941338582677
20
0.348083937007874
11
-0.8772939370078739
21
0.3435845275590551
0
LINE
8
BLACK
6
CONTINUOUS
10
-0.8772939370078739
20
0.3435845275590551
11
-0.8773427559055118
21
0.3434988976377953
0
LINE
8
BLACK
6
CONTINUOUS
10
-0.8773427559055118
20
0.3434988976377953
11
-0.8773427559055118
21
0.3434536614173228
0
LINE
8
BLACK
6
CONTINUOUS
10
-0.8773427559055118
20
0.3434536614173228
11
-0.8775181496062991
21
0.3431912204724409
0
LINE
8
BLACK
6
CONTINUOUS
10
-0.8775181496062991
20
0.3431912204724409
11
-0.8776742913385827
21
0.3429172440944882
0
LINE
8
BLACK
6
CONTINUOUS
10
-0.8776742913385827
20
0.3429172440944882
11
-0.8777147244094488
21
0.3428970472440945
0
LINE
8
BLACK
6
CONTINUOUS
10
-0.8777147244094488
20
0.3428970472440945
11
-0.8777694881889764
21
0.3428150393700787
0
LINE
8
BLACK
6
CONTINUOUS
10
-0.8777694881889764
20
0.3428150393700787
11
-0.8807691338582677
21
0.3398154330708661
0
LINE
8
BLACK
6
CONTINUOUS
10
-0.8807691338582677
20
0.3398154330708661
11
-0.8808511023622047
21
0.3397607086614173
0
LINE
8
BLACK
6
CONTINUOUS
10
-0.8808511023622047
20
0.3397607086614173
11
-0.8808712992125984
21
0.3397202362204724
0
LINE
8
BLACK
6
CONTINUOUS
10
-0.8808712992125984
20
0.3397202362204724
11
-0.8811455511811024
21
0.339563937007874
0
LINE
8
BLACK
6
CONTINUOUS
10
-0.8811455511811024
20
0.339563937007874
11
-0.8814077559055118
21
0.3393887007874016
0
LINE
8
BLACK
6
CONTINUOUS
10
-0.8814077559055118
20
0.3393887007874016
11
-0.8814529527559055
21
0.3393887007874016
0
LINE
8
BLACK
6
CONTINUOUS
10
-0.8814529527559055
20
0.3393887007874016
11
-0.8815385826771653
21
0.3393398818897638
0
LINE
8
BLACK
6
CONTINUOUS
10
-0.8815385826771653
20
0.3393398818897638
11
-0.886038031496063
21
0.3378400787401575
0
LINE
8
BLACK
6
CONTINUOUS
10
-0.886038031496063
20
0.3378400787401575
11
-0.8863509842519685
21
0.3378006299212598
0
LINE
8
BLACK
6
CONTINUOUS
10
-0.8863509842519685
20
0.3378006299212598
11
-0.8866605118110236
21
0.3377390551181103
0
LINE
8
BLACK
6
CONTINUOUS
10
-0.8866605118110236
20
0.3377390551181103
11
-0.9091576771653543
21
0.3377390551181103
0
LINE
8
BLACK
6
CONTINUOUS
10
-0.9091576771653543
20
0.3377390551181103
11
-0.9099109842519685
21
0.3378888976377953
0
LINE
8
BLACK
6
CONTINUOUS
10
-0.9099109842519685
20
0.3378888976377953
11
-0.9109763385826771
21
0.3389542519685039
0
LINE
8
BLACK
6
CONTINUOUS
10
-0.9109763385826771
20
0.3389542519685039
11
-0.9109763385826771
21
0.3404608661417323
0
LINE
8
BLACK
6
CONTINUOUS
10
-0.9109763385826771
20
0.3404608661417323
11
-0.9099109842519685
21
0.3415262204724409
0
LINE
8
BLACK
6
CONTINUOUS
10
-0.9099109842519685
20
0.3415262204724409
11
-0.9091576771653543
21
0.341676062992126
0
LINE
8
BLACK
6
CONTINUOUS
10
-0.9091576771653543
20
0.341676062992126
11
-0.8869799212598425
21
0.341676062992126
0
LINE
8
BLACK
6
CONTINUOUS
10
-0.8869799212598425
20
0.341676062992126
11
-0.8832244094488189
21
0.3429279133858268
0
LINE
8
BLACK
6
CONTINUOUS
10
-0.8832244094488189
20
0.3429279133858268
11
-0.880881968503937
21
0.3452703937007874
0
LINE
8
BLACK
6
CONTINUOUS
10
-0.880881968503937
20
0.3452703937007874
11
-0.8796301181102362
21
0.3490258267716536
0
LINE
8
BLACK
6
CONTINUOUS
10
-0.8796301181102362
20
0.3490258267716536
11
-0.8796301181102362
21
0.351706062992126
0
LINE
8
BLACK
6
CONTINUOUS
10
-0.8796301181102362
20
0.351706062992126
11
-0.8794802755905512
21
0.3524593700787402
0
LINE
8
BLACK
6
CONTINUOUS
10
-0.8794802755905512
20
0.3524593700787402
11
-0.8784149212598426
21
0.3535247244094488
0
LINE
8
BLACK
6
CONTINUOUS
10
-0.8784149212598426
20
0.3535247244094488
11
-0.8769083070866142
21
0.3535247244094488
0
LINE
8
BLACK
6
CONTINUOUS
10
-0.8769083070866142
20
0.3535247244094488
11
-0.8758429527559055
21
0.3524593700787402
0
LINE
8
BLACK
6
CONTINUOUS
10
-0.8728433464566929
20
0.3809557874015748
11
-0.8726935039370078
21
0.3802024803149606
0
LINE
8
BLACK
6
CONTINUOUS
10
-0.8726935039370078
20
0.3802024803149606
11
-0.8726935039370078
21
0.3562055118110236
0
LINE
8
BLACK
6
CONTINUOUS
10
-0.8726935039370078
20
0.3562055118110236
11
-0.8728433464566929
21
0.3554522047244094
0
LINE
8
BLACK
6
CONTINUOUS
10
-0.8728433464566929
20
0.3554522047244094
11
-0.8739087007874016
21
0.3543868503937008
0
LINE
8
BLACK
6
CONTINUOUS
10
-0.8739087007874016
20
0.3543868503937008
11
-0.8754153149606299
21
0.3543868503937008
0
LINE
8
BLACK
6
CONTINUOUS
10
-0.8754153149606299
20
0.3543868503937008
11
-0.8764806692913386
21
0.3554522047244094
0
LINE
8
BLACK
6
CONTINUOUS
10
-0.8764806692913386
20
0.3554522047244094
11
-0.8766305118110236
21
0.3562055118110236
0
LINE
8
BLACK
6
CONTINUOUS
10
-0.8766305118110236
20
0.3562055118110236
11
-0.8766305118110236
21
0.3802024803149606
0
LINE
8
BLACK
6
CONTINUOUS
10
-0.8766305118110236
20
0.3802024803149606
11
-0.8764806692913386
21
0.3809557874015748
0
LINE
8
BLACK
6
CONTINUOUS
10
-0.8764806692913386
20
0.3809557874015748
11
-0.8754153149606299
21
0.3820211417322835
0
LINE
8
BLACK
6
CONTINUOUS
10
-0.8754153149606299
20
0.3820211417322835
11
-0.8739087007874016
21
0.3820211417322835
0
LINE
8
BLACK
6
CONTINUOUS
10
-0.8739087007874016
20
0.3820211417322835
11
-0.8728433464566929
21
0.3809557874015748
0
LINE
8
BLACK
6
CONTINUOUS
10
-0.8820643700787402
20
0.3911506692913386
11
-0.8820215354330708
21
0.3911649212598425
0
LINE
8
BLACK
6
CONTINUOUS
10
-0.8820215354330708
20
0.3911649212598425
11
-0.8817174409448819
21
0.3910816535433071
0
LINE
8
BLACK
6
CONTINUOUS
10
-0.8817174409448819
20
0.3910816535433071
11
-0.8814077559055118
21
0.3910200393700787
0
LINE
8
BLACK
6
CONTINUOUS
10
-0.8814077559055118
20
0.3910200393700787
11
-0.8813758267716535
21
0.3909881102362205
0
LINE
8
BLACK
6
CONTINUOUS
10
-0.8813758267716535
20
0.3909881102362205
11
-0.881280748031496
21
0.3909620472440945
0
LINE
8
BLACK
6
CONTINUOUS
10
-0.881280748031496
20
0.3909620472440945
11
-0.8782810629921259
21
0.3894622440944882
0
LINE
8
BLACK
6
CONTINUOUS
10
-0.8782810629921259
20
0.3894622440944882
11
-0.8779715354330708
21
0.3892220078740157
0
LINE
8
BLACK
6
CONTINUOUS
10
-0.8779715354330708
20
0.3892220078740157
11
-0.8778716535433071
21
0.3891887007874016
0
LINE
8
BLACK
6
CONTINUOUS
10
-0.8778716535433071
20
0.3891887007874016
11
-0.8777853937007873
21
0.3890775196850393
0
LINE
8
BLACK
6
CONTINUOUS
10
-0.8777853937007873
20
0.3890775196850393
11
-0.8776743307086614
21
0.3889913385826771
0
LINE
8
BLACK
6
CONTINUOUS
10
-0.8776743307086614
20
0.3889913385826771
11
-0.8776411023622047
21
0.3888916141732283
0
LINE
8
BLACK
6
CONTINUOUS
10
-0.8776411023622047
20
0.3888916141732283
11
-0.877400748031496
21
0.3885819291338583
0
LINE
8
BLACK
6
CONTINUOUS
10
-0.877400748031496
20
0.3885819291338583
11
-0.8759009448818897
21
0.3855823228346457
0
LINE
8
BLACK
6
CONTINUOUS
10
-0.8759009448818897
20
0.3855823228346457
11
-0.8756980708661417
21
0.3848415354330709
0
LINE
8
BLACK
6
CONTINUOUS
10
-0.8756980708661417
20
0.3848415354330709
11
-0.8761744881889764
21
0.3834122047244095
0
LINE
8
BLACK
6
CONTINUOUS
10
-0.8761744881889764
20
0.3834122047244095
11
-0.8775220472440944
21
0.3827384251968504
0
LINE
8
BLACK
6
CONTINUOUS
10
-0.8775220472440944
20
0.3827384251968504
11
-0.8789513779527559
21
0.383214842519685
0
LINE
8
BLACK
6
CONTINUOUS
10
-0.8789513779527559
20
0.383214842519685
11
-0.8794222834645669
21
0.3838216141732284
0
LINE
8
BLACK
6
CONTINUOUS
10
-0.8794222834645669
20
0.3838216141732284
11
-0.8806286614173228
21
0.3862343307086614
0
LINE
8
BLACK
6
CONTINUOUS
10
-0.8806286614173228
20
0.3862343307086614
11
-0.8826257086614173
21
0.387232874015748
0
LINE
8
BLACK
6
CONTINUOUS
10
-0.8826257086614173
20
0.387232874015748
11
-0.9091576771653543
21
0.387232874015748
0
LINE
8
BLACK
6
CONTINUOUS
10
-0.9091576771653543
20
0.387232874015748
11
-0.9099109842519685
21
0.387382716535433
0
LINE
8
BLACK
6
CONTINUOUS
10
-0.9099109842519685
20
0.387382716535433
11
-0.9109763385826771
21
0.3884480708661417
0
LINE
8
BLACK
6
CONTINUOUS
10
-0.9109763385826771
20
0.3884480708661417
11
-0.9109763385826771
21
0.3899546850393701
0
LINE
8
BLACK
6
CONTINUOUS
10
-0.9109763385826771
20
0.3899546850393701
11
-0.9099109842519685
21
0.3910200393700787
0
LINE
8
BLACK
6
CONTINUOUS
10
-0.9099109842519685
20
0.3910200393700787
11
-0.9091576771653543
21
0.3911698818897638
0
LINE
8
BLACK
6
CONTINUOUS
10
-0.9091576771653543
20
0.3911698818897638
11
-0.8821610629921259
21
0.3911698818897638
0
LINE
8
BLACK
6
CONTINUOUS
10
-0.8821610629921259
20
0.3911698818897638
11
-0.8820643700787402
21
0.3911506692913386
0
LINE
8
BLACK
6
CONTINUOUS
10
-0.8820643700787402
20
0.419647125984252
11
-0.8820214960629921
21
0.4196613779527559
0
LINE
8
BLACK
6
CONTINUOUS
10
-0.8820214960629921
20
0.4196613779527559
11
-0.8817172834645669
21
0.4195780708661417
0
LINE
8
BLACK
6
CONTINUOUS
10
-0.8817172834645669
20
0.4195780708661417
11
-0.8814077559055118
21
0.4195164960629921
0
LINE
8
BLACK
6
CONTINUOUS
10
-0.8814077559055118
20
0.4195164960629921
11
-0.8813758267716535
21
0.4194845669291338
0
LINE
8
BLACK
6
CONTINUOUS
10
-0.8813758267716535
20
0.4194845669291338
11
-0.8812807086614173
21
0.4194585039370078
0
LINE
8
BLACK
6
CONTINUOUS
10
-0.8812807086614173
20
0.4194585039370078
11
-0.8782810629921259
21
0.4179586614173229
0
LINE
8
BLACK
6
CONTINUOUS
10
-0.8782810629921259
20
0.4179586614173229
11
-0.8779715354330708
21
0.4177184251968504
0
LINE
8
BLACK
6
CONTINUOUS
10
-0.8779715354330708
20
0.4177184251968504
11
-0.8778716535433071
21
0.4176851181102362
0
LINE
8
BLACK
6
CONTINUOUS
10
-0.8778716535433071
20
0.4176851181102362
11
-0.8777853937007873
21
0.417573937007874
0
LINE
8
BLACK
6
CONTINUOUS
10
-0.8777853937007873
20
0.417573937007874
11
-0.8776743307086614
21
0.4174877559055118
0
LINE
8
BLACK
6
CONTINUOUS
10
-0.8776743307086614
20
0.4174877559055118
11
-0.8776411023622047
21
0.417388031496063
0
LINE
8
BLACK
6
CONTINUOUS
10
-0.8776411023622047
20
0.417388031496063
11
-0.877400748031496
21
0.4170783464566929
0
LINE
8
BLACK
6
CONTINUOUS
10
-0.877400748031496
20
0.4170783464566929
11
-0.8759009448818897
21
0.4140787401574803
0
LINE
8
BLACK
6
CONTINUOUS
10
-0.8759009448818897
20
0.4140787401574803
11
-0.8758749212598425
21
0.4139836614173228
0
LINE
8
BLACK
6
CONTINUOUS
10
-0.8758749212598425
20
0.4139836614173228
11
-0.8758429527559055
21
0.4139516929133858
0
LINE
8
BLACK
6
CONTINUOUS
10
-0.8758429527559055
20
0.4139516929133858
11
-0.8757814173228347
21
0.4136422047244094
0
LINE
8
BLACK
6
CONTINUOUS
10
-0.8757814173228347
20
0.4136422047244094
11
-0.8756980708661417
21
0.4133379527559055
0
LINE
8
BLACK
6
CONTINUOUS
10
-0.8756980708661417
20
0.4133379527559055
11
-0.8757123622047244
21
0.4132951181102362
0
LINE
8
BLACK
6
CONTINUOUS
10
-0.8757123622047244
20
0.4132951181102362
11
-0.8756931102362204
21
0.4131983858267717
0
LINE
8
BLACK
6
CONTINUOUS
10
-0.8756931102362204
20
0.4131983858267717
11
-0.8756931102362204
21
0.4071991338582677
0
LINE
8
BLACK
6
CONTINUOUS
10
-0.8756931102362204
20
0.4071991338582677
11
-0.8757123622047244
21
0.4071024409448819
0
LINE
8
BLACK
6
CONTINUOUS
10
-0.8757123622047244
20
0.4071024409448819
11
-0.8756980708661417
21
0.4070596062992126
0
LINE
8
BLACK
6
CONTINUOUS
10
-0.8756980708661417
20
0.4070596062992126
11
-0.8757814173228347
21
0.4067553149606299
0
LINE
8
BLACK
6
CONTINUOUS
10
-0.8757814173228347
20
0.4067553149606299
11
-0.8758429527559055
21
0.4064458267716535
0
LINE
8
BLACK
6
CONTINUOUS
10
-0.8758429527559055
20
0.4064458267716535
11
-0.8758748818897638
21
0.406413937007874
0
LINE
8
BLACK
6
CONTINUOUS
10
-0.8758748818897638
20
0.406413937007874
11
-0.875900905511811
21
0.4063188188976378
0
LINE
8
BLACK
6
CONTINUOUS
10
-0.875900905511811
20
0.4063188188976378
11
-0.877400748031496
21
0.4033191732283464
0
LINE
8
BLACK
6
CONTINUOUS
10
-0.877400748031496
20
0.4033191732283464
11
-0.8778716535433071
21
0.4027124015748031
0
LINE
8
BLACK
6
CONTINUOUS
10
-0.8778716535433071
20
0.4027124015748031
11
-0.8793009448818897
21
0.4022359448818897
0
LINE
8
BLACK
6
CONTINUOUS
10
-0.8793009448818897
20
0.4022359448818897
11
-0.8806485039370079
21
0.4029097244094488
0
LINE
8
BLACK
6
CONTINUOUS
10
-0.8806485039370079
20
0.4029097244094488
11
-0.8811249606299213
21
0.4043390157480315
0
LINE
8
BLACK
6
CONTINUOUS
10
-0.8811249606299213
20
0.4043390157480315
11
-0.8809220866141733
21
0.4050798031496063
0
LINE
8
BLACK
6
CONTINUOUS
10
-0.8809220866141733
20
0.4050798031496063
11
-0.8796301181102362
21
0.4076638188976378
0
LINE
8
BLACK
6
CONTINUOUS
10
-0.8796301181102362
20
0.4076638188976378
11
-0.8796301181102362
21
0.4127337007874016
0
LINE
8
BLACK
6
CONTINUOUS
10
-0.8796301181102362
20
0.4127337007874016
11
-0.8806286614173228
21
0.4147307874015748
0
LINE
8
BLACK
6
CONTINUOUS
10
-0.8806286614173228
20
0.4147307874015748
11
-0.8826257480314961
21
0.4157293307086614
0
LINE
8
BLACK
6
CONTINUOUS
10
-0.8826257480314961
20
0.4157293307086614
11
-0.8865465354330708
21
0.4157293307086614
0
LINE
8
BLACK
6
CONTINUOUS
10
-0.8865465354330708
20
0.4157293307086614
11
-0.8892296456692913
21
0.4023136220472441
0
LINE
8
BLACK
6
CONTINUOUS
10
-0.8892296456692913
20
0.4023136220472441
11
-0.8893412598425197
21
0.402045
0
LINE
8
BLACK
6
CONTINUOUS
10
-0.8893412598425197
20
0.402045
11
-0.8893412598425197
21
0.4019463779527559
0
LINE
8
BLACK
6
CONTINUOUS
10
-0.8893412598425197
20
0.4019463779527559
11
-0.8894113385826772
21
0.4018763385826772
0
LINE
8
BLACK
6
CONTINUOUS
10
-0.8894113385826772
20
0.4018763385826772
11
-0.8895243307086614
21
0.4016043307086614
0
LINE
8
BLACK
6
CONTINUOUS
10
-0.8895243307086614
20
0.4016043307086614
11
-0.8900012598425197
21
0.4012864173228347
0
LINE
8
BLACK
6
CONTINUOUS
10
-0.8900012598425197
20
0.4012864173228347
11
-0.8904066141732283
21
0.4008810236220473
0
LINE
8
BLACK
6
CONTINUOUS
10
-0.8904066141732283
20
0.4008810236220473
11
-0.8906955118110236
21
0.4008235826771653
0
LINE
8
BLACK
6
CONTINUOUS
10
-0.8906955118110236
20
0.4008235826771653
11
-0.8907779133858268
21
0.4007686220472441
0
LINE
8
BLACK
6
CONTINUOUS
10
-0.8907779133858268
20
0.4007686220472441
11
-0.8908745669291338
21
0.4007879527559055
0
LINE
8
BLACK
6
CONTINUOUS
10
-0.8908745669291338
20
0.4007879527559055
11
-0.8911599212598424
21
0.4007311811023622
0
LINE
8
BLACK
6
CONTINUOUS
10
-0.8911599212598424
20
0.4007311811023622
11
-0.8941595669291338
21
0.4007311811023622
0
LINE
8
BLACK
6
CONTINUOUS
10
-0.8941595669291338
20
0.4007311811023622
11
-0.8942562992125984
21
0.4007504330708661
0
LINE
8
BLACK
6
CONTINUOUS
10
-0.8942562992125984
20
0.4007504330708661
11
-0.8942991338582676
21
0.4007361417322834
0
LINE
8
BLACK
6
CONTINUOUS
10
-0.8942991338582676
20
0.4007361417322834
11
-0.8946033858267717
21
0.4008194881889764
0
LINE
8
BLACK
6
CONTINUOUS
10
-0.8946033858267717
20
0.4008194881889764
11
-0.894912874015748
21
0.4008810236220473
0
LINE
8
BLACK
6
CONTINUOUS
10
-0.894912874015748
20
0.4008810236220473
11
-0.894944842519685
21
0.4009129921259842
0
LINE
8
BLACK
6
CONTINUOUS
10
-0.894944842519685
20
0.4009129921259842
11
-0.8950399212598426
21
0.4009390157480315
0
LINE
8
BLACK
6
CONTINUOUS
10
-0.8950399212598426
20
0.4009390157480315
11
-0.8980395275590551
21
0.4024388188976378
0
LINE
8
BLACK
6
CONTINUOUS
10
-0.8980395275590551
20
0.4024388188976378
11
-0.8983492125984252
21
0.4026791732283465
0
LINE
8
BLACK
6
CONTINUOUS
10
-0.8983492125984252
20
0.4026791732283465
11
-0.898448937007874
21
0.4027124015748031
0
LINE
8
BLACK
6
CONTINUOUS
10
-0.898448937007874
20
0.4027124015748031
11
-0.8985351181102362
21
0.4028234645669291
0
LINE
8
BLACK
6
CONTINUOUS
10
-0.8985351181102362
20
0.4028234645669291
11
-0.8986462992125984
21
0.4029097244094488
0
LINE
8
BLACK
6
CONTINUOUS
10
-0.8986462992125984
20
0.4029097244094488
11
-0.8986796062992126
21
0.4030096062992126
0
LINE
8
BLACK
6
CONTINUOUS
10
-0.8986796062992126
20
0.4030096062992126
11
-0.898919842519685
21
0.4033191338582677
0
LINE
8
BLACK
6
CONTINUOUS
10
-0.898919842519685
20
0.4033191338582677
11
-0.9004196850393701
21
0.4063187795275591
0
LINE
8
BLACK
6
CONTINUOUS
10
-0.9004196850393701
20
0.4063187795275591
11
-0.900445748031496
21
0.4064138976377953
0
LINE
8
BLACK
6
CONTINUOUS
10
-0.900445748031496
20
0.4064138976377953
11
-0.9004776771653543
21
0.4064458267716535
0
LINE
8
BLACK
6
CONTINUOUS
10
-0.9004776771653543
20
0.4064458267716535
11
-0.9005392519685039
21
0.4067553543307086
0
LINE
8
BLACK
6
CONTINUOUS
10
-0.9005392519685039
20
0.4067553543307086
11
-0.9006225590551181
21
0.4070595669291339
0
LINE
8
BLACK
6
CONTINUOUS
10
-0.9006225590551181
20
0.4070595669291339
11
-0.9006083070866141
21
0.4071024409448819
0
LINE
8
BLACK
6
CONTINUOUS
10
-0.9006083070866141
20
0.4071024409448819
11
-0.9006275196850394
21
0.4071991338582677
0
LINE
8
BLACK
6
CONTINUOUS
10
-0.9006275196850394
20
0.4071991338582677
11
-0.9006275196850394
21
0.4131983858267717
0
LINE
8
BLACK
6
CONTINUOUS
10
-0.9006275196850394
20
0.4131983858267717
11
-0.9006083070866141
21
0.4132951181102362
0
LINE
8
BLACK
6
CONTINUOUS
10
-0.9006083070866141
20
0.4132951181102362
11
-0.9006225590551181
21
0.4133379527559055
0
LINE
8
BLACK
6
CONTINUOUS
10
-0.9006225590551181
20
0.4133379527559055
11
-0.9005392519685039
21
0.4136422047244094
0
LINE
8
BLACK
6
CONTINUOUS
10
-0.9005392519685039
20
0.4136422047244094
11
-0.9004776771653543
21
0.4139516929133858
0
LINE
8
BLACK
6
CONTINUOUS
10
-0.9004776771653543
20
0.4139516929133858
11
-0.900445748031496
21
0.4139836614173228
0
LINE
8
BLACK
6
CONTINUOUS
10
-0.900445748031496
20
0.4139836614173228
11
-0.9004196850393701
21
0.4140787401574803
0
LINE
8
BLACK
6
CONTINUOUS
10
-0.9004196850393701
20
0.4140787401574803
11
-0.898919842519685
21
0.4170783464566929
0
LINE
8
BLACK
6
CONTINUOUS
10
-0.898919842519685
20
0.4170783464566929
11
-0.8986796062992126
21
0.4173879133858268
0
LINE
8
BLACK
6
CONTINUOUS
10
-0.8986796062992126
20
0.4173879133858268
11
-0.8986462992125984
21
0.4174877559055118
0
LINE
8
BLACK
6
CONTINUOUS
10
-0.8986462992125984
20
0.4174877559055118
11
-0.8985351181102362
21
0.4175740551181102
0
LINE
8
BLACK
6
CONTINUOUS
10
-0.8985351181102362
20
0.4175740551181102
11
-0.898448937007874
21
0.4176850787401575
0
LINE
8
BLACK
6
CONTINUOUS
10
-0.898448937007874
20
0.4176850787401575
11
-0.8983492125984252
21
0.4177183464566929
0
LINE
8
BLACK
6
CONTINUOUS
10
-0.8983492125984252
20
0.4177183464566929
11
-0.8980395275590551
21
0.4179586614173229
0
LINE
8
BLACK
6
CONTINUOUS
10
-0.8980395275590551
20
0.4179586614173229
11
-0.8950399606299212
21
0.4194585039370078
0
LINE
8
BLACK
6
CONTINUOUS
10
-0.8950399606299212
20
0.4194585039370078
11
-0.894944842519685
21
0.4194845669291338
0
LINE
8
BLACK
6
CONTINUOUS
10
-0.894944842519685
20
0.4194845669291338
11
-0.894912874015748
21
0.4195164960629921
0
LINE
8
BLACK
6
CONTINUOUS
10
-0.894912874015748
20
0.4195164960629921
11
-0.8946035039370078
21
0.4195780708661417
0
LINE
8
BLACK
6
CONTINUOUS
10
-0.8946035039370078
20
0.4195780708661417
11
-0.8942991732283464
21
0.4196613779527559
0
LINE
8
BLACK
6
CONTINUOUS
10
-0.8942991732283464
20
0.4196613779527559
11
-0.8942563385826772
21
0.419647125984252
0
LINE
8
BLACK
6
CONTINUOUS
10
-0.8942563385826772
20
0.419647125984252
11
-0.8941595669291338
21
0.4196663385826772
0
LINE
8
BLACK
6
CONTINUOUS
10
-0.8941595669291338
20
0.4196663385826772
11
-0.8821610629921259
21
0.4196663385826772
0
LINE
8
BLACK
6
CONTINUOUS
10
-0.8821610629921259
20
0.4196663385826772
11
-0.8820643700787402
21
0.419647125984252
0
LINE
8
BLACK
6
CONTINUOUS
10
-0.8956919291338582
20
0.4147307874015748
11
-0.8966905118110235
21
0.4127337007874016
0
LINE
8
BLACK
6
CONTINUOUS
10
-0.8966905118110235
20
0.4127337007874016
11
-0.8966905118110235
21
0.4076638582677165
0
LINE
8
BLACK
6
CONTINUOUS
10
-0.8966905118110235
20
0.4076638582677165
11
-0.895691968503937
21
0.4056667322834646
0
LINE
8
BLACK
6
CONTINUOUS
10
-0.895691968503937
20
0.4056667322834646
11
-0.8936948818897638
21
0.404668188976378
0
LINE
8
BLACK
6
CONTINUOUS
10
-0.8936948818897638
20
0.404668188976378
11
-0.8927737007874016
21
0.404668188976378
0
LINE
8
BLACK
6
CONTINUOUS
10
-0.8927737007874016
20
0.404668188976378
11
-0.8905614960629921
21
0.4157293307086614
0
LINE
8
BLACK
6
CONTINUOUS
10
-0.8905614960629921
20
0.4157293307086614
11
-0.8936948818897638
21
0.4157293307086614
0
LINE
8
BLACK
6
CONTINUOUS
10
-0.8936948818897638
20
0.4157293307086614
11
-0.8956919291338582
21
0.4147307874015748
0
LINE
8
BLACK
6
CONTINUOUS
10
-0.8769083070866142
20
0.4375142125984252
11
-0.8758429527559055
21
0.4364488582677165
0
LINE
8
BLACK
6
CONTINUOUS
10
-0.8758429527559055
20
0.4364488582677165
11
-0.8758429527559055
21
0.4349422440944882
0
LINE
8
BLACK
6
CONTINUOUS
10
-0.8758429527559055
20
0.4349422440944882
11
-0.8769083070866142
21
0.4338768897637795
0
LINE
8
BLACK
6
CONTINUOUS
10
-0.8769083070866142
20
0.4338768897637795
11
-0.8776616141732283
21
0.4337270472440945
0
LINE
8
BLACK
6
CONTINUOUS
10
-0.8776616141732283
20
0.4337270472440945
11
-0.8921950787401575
21
0.4337270472440945
0
LINE
8
BLACK
6
CONTINUOUS
10
-0.8921950787401575
20
0.4337270472440945
11
-0.8944933070866141
21
0.4325779527559055
0
LINE
8
BLACK
6
CONTINUOUS
10
-0.8944933070866141
20
0.4325779527559055
11
-0.8955413779527559
21
0.4315299212598425
0
LINE
8
BLACK
6
CONTINUOUS
10
-0.8955413779527559
20
0.4315299212598425
11
-0.8966905118110235
21
0.4292316141732284
0
LINE
8
BLACK
6
CONTINUOUS
10
-0.8966905118110235
20
0.4292316141732284
11
-0.8966905118110235
21
0.4266966929133858
0
LINE
8
BLACK
6
CONTINUOUS
10
-0.8966905118110235
20
0.4266966929133858
11
-0.8968403543307086
21
0.4259433858267717
0
LINE
8
BLACK
6
CONTINUOUS
10
-0.8968403543307086
20
0.4259433858267717
11
-0.8979057086614173
21
0.424878031496063
0
LINE
8
BLACK
6
CONTINUOUS
10
-0.8979057086614173
20
0.424878031496063
11
-0.8994123228346457
21
0.424878031496063
0
LINE
8
BLACK
6
CONTINUOUS
10
-0.8994123228346457
20
0.424878031496063
11
-0.9004776771653543
21
0.4259433858267717
0
LINE
8
BLACK
6
CONTINUOUS
10
-0.9004776771653543
20
0.4259433858267717
11
-0.9006275196850394
21
0.4266966929133858
0
LINE
8
BLACK
6
CONTINUOUS
10
-0.9006275196850394
20
0.4266966929133858
11
-0.9006275196850394
21
0.4296962992125984
0
LINE
8
BLACK
6
CONTINUOUS
10
-0.9006275196850394
20
0.4296962992125984
11
-0.9006083070866141
21
0.429793031496063
0
LINE
8
BLACK
6
CONTINUOUS
10
-0.9006083070866141
20
0.429793031496063
11
-0.9006225590551181
21
0.4298358661417322
0
LINE
8
BLACK
6
CONTINUOUS
10
-0.9006225590551181
20
0.4298358661417322
11
-0.9005392519685039
21
0.4301401181102362
0
LINE
8
BLACK
6
CONTINUOUS
10
-0.9005392519685039
20
0.4301401181102362
11
-0.9004776771653543
21
0.4304496062992126
0
LINE
8
BLACK
6
CONTINUOUS
10
-0.9004776771653543
20
0.4304496062992126
11
-0.900445748031496
21
0.4304815748031496
0
LINE
8
BLACK
6
CONTINUOUS
10
-0.900445748031496
20
0.4304815748031496
11
-0.9004196850393701
21
0.4305766535433071
0
LINE
8
BLACK
6
CONTINUOUS
10
-0.9004196850393701
20
0.4305766535433071
11
-0.898919842519685
21
0.4335762992125984
0
LINE
8
BLACK
6
CONTINUOUS
10
-0.898919842519685
20
0.4335762992125984
11
-0.898783622047244
21
0.4337518503937008
0
LINE
8
BLACK
6
CONTINUOUS
10
-0.898783622047244
20
0.4337518503937008
11
-0.8994123228346457
21
0.4338768897637795
0
LINE
8
BLACK
6
CONTINUOUS
10
-0.8994123228346457
20
0.4338768897637795
11
-0.9004776771653543
21
0.4349422440944882
0
LINE
8
BLACK
6
CONTINUOUS
10
-0.9004776771653543
20
0.4349422440944882
11
-0.9004776771653543
21
0.4364488582677165
0
LINE
8
BLACK
6
CONTINUOUS
10
-0.9004776771653543
20
0.4364488582677165
11
-0.8994123228346457
21
0.4375142125984252
0
LINE
8
BLACK
6
CONTINUOUS
10
-0.8994123228346457
20
0.4375142125984252
11
-0.8986590157480315
21
0.4376640551181102
0
LINE
8
BLACK
6
CONTINUOUS
10
-0.8986590157480315
20
0.4376640551181102
11
-0.8776616141732283
21
0.4376640551181102
0
LINE
8
BLACK
6
CONTINUOUS
10
-0.8776616141732283
20
0.4376640551181102
11
-0.8769083070866142
21
0.4375142125984252
0
LINE
8
BLACK
6
CONTINUOUS
10
-0.8769083070866142
20
0.4570117716535433
11
-0.8758429527559055
21
0.4559464173228346
0
LINE
8
BLACK
6
CONTINUOUS
10
-0.8758429527559055
20
0.4559464173228346
11
-0.8758429527559055
21
0.4544398031496063
0
LINE
8
BLACK
6
CONTINUOUS
10
-0.8758429527559055
20
0.4544398031496063
11
-0.8769083070866142
21
0.4533744488188976
0
LINE
8
BLACK
6
CONTINUOUS
10
-0.8769083070866142
20
0.4533744488188976
11
-0.8776616141732283
21
0.4532246062992126
0
LINE
8
BLACK
6
CONTINUOUS
10
-0.8776616141732283
20
0.4532246062992126
11
-0.8921950787401575
21
0.4532246062992126
0
LINE
8
BLACK
6
CONTINUOUS
10
-0.8921950787401575
20
0.4532246062992126
11
-0.8944933070866141
21
0.4520755118110236
0
LINE
8
BLACK
6
CONTINUOUS
10
-0.8944933070866141
20
0.4520755118110236
11
-0.8955413779527559
21
0.4510274803149606
0
LINE
8
BLACK
6
CONTINUOUS
10
-0.8955413779527559
20
0.4510274803149606
11
-0.8966905118110235
21
0.4487291732283464
0
LINE
8
BLACK
6
CONTINUOUS
10
-0.8966905118110235
20
0.4487291732283464
11
-0.8966905118110235
21
0.4461942519685039
0
LINE
8
BLACK
6
CONTINUOUS
10
-0.8966905118110235
20
0.4461942519685039
11
-0.8968403543307086
21
0.4454409448818897
0
LINE
8
BLACK
6
CONTINUOUS
10
-0.8968403543307086
20
0.4454409448818897
11
-0.8979057086614173
21
0.4443755905511811
0
LINE
8
BLACK
6
CONTINUOUS
10
-0.8979057086614173
20
0.4443755905511811
11
-0.8994123228346457
21
0.4443755905511811
0
LINE
8
BLACK
6
CONTINUOUS
10
-0.8994123228346457
20
0.4443755905511811
11
-0.9004776771653543
21
0.4454409448818897
0
LINE
8
BLACK
6
CONTINUOUS
10
-0.9004776771653543
20
0.4454409448818897
11
-0.9006275196850394
21
0.4461942519685039
0
LINE
8
BLACK
6
CONTINUOUS
10
-0.9006275196850394
20
0.4461942519685039
11
-0.9006275196850394
21
0.4491938582677165
0
LINE
8
BLACK
6
CONTINUOUS
10
-0.9006275196850394
20
0.4491938582677165
11
-0.9006083070866141
21
0.4492905905511811
0
LINE
8
BLACK
6
CONTINUOUS
10
-0.9006083070866141
20
0.4492905905511811
11
-0.9006225590551181
21
0.4493334251968504
0
LINE
8
BLACK
6
CONTINUOUS
10
-0.9006225590551181
20
0.4493334251968504
11
-0.9005392519685039
21
0.4496376771653543
0
LINE
8
BLACK
6
CONTINUOUS
10
-0.9005392519685039
20
0.4496376771653543
11
-0.9004776771653543
21
0.4499471653543307
0
LINE
8
BLACK
6
CONTINUOUS
10
-0.9004776771653543
20
0.4499471653543307
11
-0.900445748031496
21
0.4499791338582677
0
LINE
8
BLACK
6
CONTINUOUS
10
-0.900445748031496
20
0.4499791338582677
11
-0.9004196850393701
21
0.4500742125984252
0
LINE
8
BLACK
6
CONTINUOUS
10
-0.9004196850393701
20
0.4500742125984252
11
-0.898919842519685
21
0.4530738582677165
0
LINE
8
BLACK
6
CONTINUOUS
10
-0.898919842519685
20
0.4530738582677165
11
-0.898783622047244
21
0.4532494094488189
0
LINE
8
BLACK
6
CONTINUOUS
10
-0.898783622047244
20
0.4532494094488189
11
-0.8994123228346457
21
0.4533744488188976
0
LINE
8
BLACK
6
CONTINUOUS
10
-0.8994123228346457
20
0.4533744488188976
11
-0.9004776771653543
21
0.4544398031496063
0
LINE
8
BLACK
6
CONTINUOUS
10
-0.9004776771653543
20
0.4544398031496063
11
-0.9004776771653543
21
0.4559464173228346
0
LINE
8
BLACK
6
CONTINUOUS
10
-0.9004776771653543
20
0.4559464173228346
11
-0.8994123228346457
21
0.4570117716535433
0
LINE
8
BLACK
6
CONTINUOUS
10
-0.8994123228346457
20
0.4570117716535433
11
-0.8986590157480315
21
0.4571616141732283
0
LINE
8
BLACK
6
CONTINUOUS
10
-0.8986590157480315
20
0.4571616141732283
11
-0.8776616141732283
21
0.4571616141732283
0
LINE
8
BLACK
6
CONTINUOUS
10
-0.8776616141732283
20
0.4571616141732283
11
-0.8769083070866142
21
0.4570117716535433
0
LINE
8
BLACK
6
CONTINUOUS
10
-0.8820643700787402
20
0.4871387007874016
11
-0.8820214960629921
21
0.4871529527559055
0
LINE
8
BLACK
6
CONTINUOUS
10
-0.8820214960629921
20
0.4871529527559055
11
-0.8817172834645669
21
0.4870696456692913
0
LINE
8
BLACK
6
CONTINUOUS
10
-0.8817172834645669
20
0.4870696456692913
11
-0.8814077559055118
21
0.4870080708661417
0
LINE
8
BLACK
6
CONTINUOUS
10
-0.8814077559055118
20
0.4870080708661417
11
-0.8813758267716535
21
0.4869761417322834
0
LINE
8
BLACK
6
CONTINUOUS
10
-0.8813758267716535
20
0.4869761417322834
11
-0.8812807086614173
21
0.4869500787401574
0
LINE
8
BLACK
6
CONTINUOUS
10
-0.8812807086614173
20
0.4869500787401574
11
-0.8782810629921259
21
0.4854502362204725
0
LINE
8
BLACK
6
CONTINUOUS
10
-0.8782810629921259
20
0.4854502362204725
11
-0.8779715354330708
21
0.48521
0
LINE
8
BLACK
6
CONTINUOUS
10
-0.8779715354330708
20
0.48521
11
-0.8778716535433071
21
0.4851766929133858
0
LINE
8
BLACK
6
CONTINUOUS
10
-0.8778716535433071
20
0.4851766929133858
11
-0.8777853937007873
21
0.4850655118110236
0
LINE
8
BLACK
6
CONTINUOUS
10
-0.8777853937007873
20
0.4850655118110236
11
-0.8776743307086614
21
0.4849793307086614
0
LINE
8
BLACK
6
CONTINUOUS
10
-0.8776743307086614
20
0.4849793307086614
11
-0.8776411023622047
21
0.4848796062992126
0
LINE
8
BLACK
6
CONTINUOUS
10
-0.8776411023622047
20
0.4848796062992126
11
-0.877400748031496
21
0.4845699212598425
0
LINE
8
BLACK
6
CONTINUOUS
10
-0.877400748031496
20
0.4845699212598425
11
-0.8759009448818897
21
0.4815703149606299
0
LINE
8
BLACK
6
CONTINUOUS
10
-0.8759009448818897
20
0.4815703149606299
11
-0.8758749212598425
21
0.4814752362204724
0
LINE
8
BLACK
6
CONTINUOUS
10
-0.8758749212598425
20
0.4814752362204724
11
-0.8758429527559055
21
0.4814432677165354
0
LINE
8
BLACK
6
CONTINUOUS
10
-0.8758429527559055
20
0.4814432677165354
11
-0.8757814173228347
21
0.481133779527559
0
LINE
8
BLACK
6
CONTINUOUS
10
-0.8757814173228347
20
0.481133779527559
11
-0.8756980708661417
21
0.4808295275590551
0
LINE
8
BLACK
6
CONTINUOUS
10
-0.8756980708661417
20
0.4808295275590551
11
-0.8757123622047244
21
0.4807866929133858
0
LINE
8
BLACK
6
CONTINUOUS
10
-0.8757123622047244
20
0.4807866929133858
11
-0.8756931102362204
21
0.4806899606299213
0
LINE
8
BLACK
6
CONTINUOUS
10
-0.8756931102362204
20
0.4806899606299213
11
-0.8756931102362204
21
0.473190905511811
0
LINE
8
BLACK
6
CONTINUOUS
10
-0.8756931102362204
20
0.473190905511811
11
-0.8757123622047244
21
0.4730942125984252
0
LINE
8
BLACK
6
CONTINUOUS
10
-0.8757123622047244
20
0.4730942125984252
11
-0.8756980708661417
21
0.4730513779527559
0
LINE
8
BLACK
6
CONTINUOUS
10
-0.8756980708661417
20
0.4730513779527559
11
-0.8757814173228347
21
0.4727470866141732
0
LINE
8
BLACK
6
CONTINUOUS
10
-0.8757814173228347
20
0.4727470866141732
11
-0.8758429527559055
21
0.4724375984251968
0
LINE
8
BLACK
6
CONTINUOUS
10
-0.8758429527559055
20
0.4724375984251968
11
-0.8758748818897638
21
0.4724057086614173
0
LINE
8
BLACK
6
CONTINUOUS
10
-0.8758748818897638
20
0.4724057086614173
11
-0.875900905511811
21
0.4723105905511811
0
LINE
8
BLACK
6
CONTINUOUS
10
-0.875900905511811
20
0.4723105905511811
11
-0.8763369685039369
21
0.4714385826771653
0
LINE
8
BLACK
6
CONTINUOUS
10
-0.8763369685039369
20
0.4714385826771653
11
-0.8758429527559055
21
0.4709445669291338
0
LINE
8
BLACK
6
CONTINUOUS
10
-0.8758429527559055
20
0.4709445669291338
11
-0.8758429527559055
21
0.4694379527559055
0
LINE
8
BLACK
6
CONTINUOUS
10
-0.8758429527559055
20
0.4694379527559055
11
-0.8769083070866142
21
0.4683725984251969
0
LINE
8
BLACK
6
CONTINUOUS
10
-0.8769083070866142
20
0.4683725984251969
11
-0.8776616141732283
21
0.4682227559055118
0
LINE
8
BLACK
6
CONTINUOUS
10
-0.8776616141732283
20
0.4682227559055118
11
-0.8941595669291338
21
0.4682227559055118
0
LINE
8
BLACK
6
CONTINUOUS
10
-0.8941595669291338
20
0.4682227559055118
11
-0.8942562992125984
21
0.4682420078740158
0
LINE
8
BLACK
6
CONTINUOUS
10
-0.8942562992125984
20
0.4682420078740158
11
-0.8942991338582676
21
0.468227716535433
0
LINE
8
BLACK
6
CONTINUOUS
10
-0.8942991338582676
20
0.468227716535433
11
-0.8946033858267717
21
0.468311062992126
0
LINE
8
BLACK
6
CONTINUOUS
10
-0.8946033858267717
20
0.468311062992126
11
-0.894912874015748
21
0.4683725984251969
0
LINE
8
BLACK
6
CONTINUOUS
10
-0.894912874015748
20
0.4683725984251969
11
-0.894944842519685
21
0.4684045669291338
0
LINE
8
BLACK
6
CONTINUOUS
10
-0.894944842519685
20
0.4684045669291338
11
-0.8950399212598426
21
0.4684305905511811
0
LINE
8
BLACK
6
CONTINUOUS
10
-0.8950399212598426
20
0.4684305905511811
11
-0.8980395275590551
21
0.4699303937007874
0
LINE
8
BLACK
6
CONTINUOUS
10
-0.8980395275590551
20
0.4699303937007874
11
-0.8983492125984252
21
0.4701707480314961
0
LINE
8
BLACK
6
CONTINUOUS
10
-0.8983492125984252
20
0.4701707480314961
11
-0.898448937007874
21
0.4702039763779527
0
LINE
8
BLACK
6
CONTINUOUS
10
-0.898448937007874
20
0.4702039763779527
11
-0.8985351181102362
21
0.4703150393700787
0
LINE
8
BLACK
6
CONTINUOUS
10
-0.8985351181102362
20
0.4703150393700787
11
-0.8986462992125984
21
0.4704012992125984
0
LINE
8
BLACK
6
CONTINUOUS
10
-0.8986462992125984
20
0.4704012992125984
11
-0.8986796062992126
21
0.4705011811023622
0
LINE
8
BLACK
6
CONTINUOUS
10
-0.8986796062992126
20
0.4705011811023622
11
-0.898919842519685
21
0.4708107086614173
0
LINE
8
BLACK
6
CONTINUOUS
10
-0.898919842519685
20
0.4708107086614173
11
-0.9004196850393701
21
0.4738103543307087
0
LINE
8
BLACK
6
CONTINUOUS
10
-0.9004196850393701
20
0.4738103543307087
11
-0.900445748031496
21
0.4739054724409449
0
LINE
8
BLACK
6
CONTINUOUS
10
-0.900445748031496
20
0.4739054724409449
11
-0.9004776771653543
21
0.4739374015748031
0
LINE
8
BLACK
6
CONTINUOUS
10
-0.9004776771653543
20
0.4739374015748031
11
-0.9005392519685039
21
0.4742469291338582
0
LINE
8
BLACK
6
CONTINUOUS
10
-0.9005392519685039
20
0.4742469291338582
11
-0.9006225590551181
21
0.4745511417322835
0
LINE
8
BLACK
6
CONTINUOUS
10
-0.9006225590551181
20
0.4745511417322835
11
-0.9006083070866141
21
0.4745940157480315
0
LINE
8
BLACK
6
CONTINUOUS
10
-0.9006083070866141
20
0.4745940157480315
11
-0.9006275196850394
21
0.4746907086614173
0
LINE
8
BLACK
6
CONTINUOUS
10
-0.9006275196850394
20
0.4746907086614173
11
-0.9006275196850394
21
0.4806899606299213
0
LINE
8
BLACK
6
CONTINUOUS
10
-0.9006275196850394
20
0.4806899606299213
11
-0.9006083070866141
21
0.4807866929133858
0
LINE
8
BLACK
6
CONTINUOUS
10
-0.9006083070866141
20
0.4807866929133858
11
-0.9006225590551181
21
0.4808295275590551
0
LINE
8
BLACK
6
CONTINUOUS
10
-0.9006225590551181
20
0.4808295275590551
11
-0.9005392519685039
21
0.481133779527559
0
LINE
8
BLACK
6
CONTINUOUS
10
-0.9005392519685039
20
0.481133779527559
11
-0.9004776771653543
21
0.4814432677165354
0
LINE
8
BLACK
6
CONTINUOUS
10
-0.9004776771653543
20
0.4814432677165354
11
-0.900445748031496
21
0.4814752362204724
0
LINE
8
BLACK
6
CONTINUOUS
10
-0.900445748031496
20
0.4814752362204724
11
-0.9004196850393701
21
0.4815703149606299
0
LINE
8
BLACK
6
CONTINUOUS
10
-0.9004196850393701
20
0.4815703149606299
11
-0.898919842519685
21
0.4845699212598425
0
LINE
8
BLACK
6
CONTINUOUS
10
-0.898919842519685
20
0.4845699212598425
11
-0.898448937007874
21
0.4851766535433071
0
LINE
8
BLACK
6
CONTINUOUS
10
-0.898448937007874
20
0.4851766535433071
11
-0.8970196062992126
21
0.4856531102362205
0
LINE
8
BLACK
6
CONTINUOUS
10
-0.8970196062992126
20
0.4856531102362205
11
-0.8956720472440944
21
0.4849792913385826
0
LINE
8
BLACK
6
CONTINUOUS
10
-0.8956720472440944
20
0.4849792913385826
11
-0.8951956299212598
21
0.4835499606299212
0
LINE
8
BLACK
6
CONTINUOUS
10
-0.8951956299212598
20
0.4835499606299212
11
-0.8953985039370078
21
0.4828091732283464
0
LINE
8
BLACK
6
CONTINUOUS
10
-0.8953985039370078
20
0.4828091732283464
11
-0.8966905118110235
21
0.4802252755905512
0
LINE
8
BLACK
6
CONTINUOUS
10
-0.8966905118110235
20
0.4802252755905512
11
-0.8966905118110235
21
0.4751554330708661
0
LINE
8
BLACK
6
CONTINUOUS
10
-0.8966905118110235
20
0.4751554330708661
11
-0.895691968503937
21
0.4731583070866142
0
LINE
8
BLACK
6
CONTINUOUS
10
-0.895691968503937
20
0.4731583070866142
11
-0.8936948818897638
21
0.4721597637795276
0
LINE
8
BLACK
6
CONTINUOUS
10
-0.8936948818897638
20
0.4721597637795276
11
-0.8923764960629921
21
0.4721597637795276
0
LINE
8
BLACK
6
CONTINUOUS
10
-0.8923764960629921
20
0.4721597637795276
11
-0.891628622047244
21
0.4736555905511811
0
LINE
8
BLACK
6
CONTINUOUS
10
-0.891628622047244
20
0.4736555905511811
11
-0.891628622047244
21
0.4806899606299213
0
LINE
8
BLACK
6
CONTINUOUS
10
-0.891628622047244
20
0.4806899606299213
11
-0.8916094094488188
21
0.4807866929133858
0
LINE
8
BLACK
6
CONTINUOUS
10
-0.8916094094488188
20
0.4807866929133858
11
-0.8916236614173229
21
0.4808295275590551
0
LINE
8
BLACK
6
CONTINUOUS
10
-0.8916236614173229
20
0.4808295275590551
11
-0.8915403543307087
21
0.481133779527559
0
LINE
8
BLACK
6
CONTINUOUS
10
-0.8915403543307087
20
0.481133779527559
11
-0.8914787795275591
21
0.4814432677165354
0
LINE
8
BLACK
6
CONTINUOUS
10
-0.8914787795275591
20
0.4814432677165354
11
-0.8914468503937008
21
0.4814752362204724
0
LINE
8
BLACK
6
CONTINUOUS
10
-0.8914468503937008
20
0.4814752362204724
11
-0.8914207874015748
21
0.4815703149606299
0
LINE
8
BLACK
6
CONTINUOUS
10
-0.8914207874015748
20
0.4815703149606299
11
-0.8899209842519685
21
0.4845699212598425
0
LINE
8
BLACK
6
CONTINUOUS
10
-0.8899209842519685
20
0.4845699212598425
11
-0.889680748031496
21
0.4848795275590551
0
LINE
8
BLACK
6
CONTINUOUS
10
-0.889680748031496
20
0.4848795275590551
11
-0.8896474409448819
21
0.4849793307086614
0
LINE
8
BLACK
6
CONTINUOUS
10
-0.8896474409448819
20
0.4849793307086614
11
-0.8895363385826771
21
0.4850655905511811
0
LINE
8
BLACK
6
CONTINUOUS
10
-0.8895363385826771
20
0.4850655905511811
11
-0.8894500787401575
21
0.4851766929133858
0
LINE
8
BLACK
6
CONTINUOUS
10
-0.8894500787401575
20
0.4851766929133858
11
-0.8893502755905511
21
0.48521
0
LINE
8
BLACK
6
CONTINUOUS
10
-0.8893502755905511
20
0.48521
11
-0.8890406692913385
21
0.4854502362204725
0
LINE
8
BLACK
6
CONTINUOUS
10
-0.8890406692913385
20
0.4854502362204725
11
-0.8860410236220472
21
0.4869500787401574
0
LINE
8
BLACK
6
CONTINUOUS
10
-0.8860410236220472
20
0.4869500787401574
11
-0.8859459448818897
21
0.4869761417322834
0
LINE
8
BLACK
6
CONTINUOUS
10
-0.8859459448818897
20
0.4869761417322834
11
-0.8859139763779528
21
0.4870080708661417
0
LINE
8
BLACK
6
CONTINUOUS
10
-0.8859139763779528
20
0.4870080708661417
11
-0.8856044881889764
21
0.4870696456692913
0
LINE
8
BLACK
6
CONTINUOUS
10
-0.8856044881889764
20
0.4870696456692913
11
-0.8853002362204724
21
0.4871529527559055
0
LINE
8
BLACK
6
CONTINUOUS
10
-0.8853002362204724
20
0.4871529527559055
11
-0.8852574015748031
21
0.4871387007874016
0
LINE
8
BLACK
6
CONTINUOUS
10
-0.8852574015748031
20
0.4871387007874016
11
-0.8851606692913385
21
0.4871579133858268
0
LINE
8
BLACK
6
CONTINUOUS
10
-0.8851606692913385
20
0.4871579133858268
11
-0.8821610629921259
21
0.4871579133858268
0
LINE
8
BLACK
6
CONTINUOUS
10
-0.8821610629921259
20
0.4871579133858268
11
-0.8820643700787402
21
0.4871387007874016
0
LINE
8
BLACK
6
CONTINUOUS
10
-0.8866931102362204
20
0.4822223622047244
11
-0.8876916141732283
21
0.4802252755905512
0
LINE
8
BLACK
6
CONTINUOUS
10
-0.8876916141732283
20
0.4802252755905512
11
-0.8876916141732283
21
0.473190905511811
0
LINE
8
BLACK
6
CONTINUOUS
10
-0.8876916141732283
20
0.473190905511811
11
-0.8877108661417322
21
0.4730942125984252
0
LINE
8
BLACK
6
CONTINUOUS
10
-0.8877108661417322
20
0.4730942125984252
11
-0.8876965748031496
21
0.4730513779527559
0
LINE
8
BLACK
6
CONTINUOUS
10
-0.8876965748031496
20
0.4730513779527559
11
-0.8877799212598425
21
0.4727470866141732
0
LINE
8
BLACK
6
CONTINUOUS
10
-0.8877799212598425
20
0.4727470866141732
11
-0.8878414566929134
21
0.4724375984251968
0
LINE
8
BLACK
6
CONTINUOUS
10
-0.8878414566929134
20
0.4724375984251968
11
-0.8878733858267717
21
0.4724057086614173
0
LINE
8
BLACK
6
CONTINUOUS
10
-0.8878733858267717
20
0.4724057086614173
11
-0.8878994094488188
21
0.4723105905511811
0
LINE
8
BLACK
6
CONTINUOUS
10
-0.8878994094488188
20
0.4723105905511811
11
-0.8879748425196851
21
0.4721597637795276
0
LINE
8
BLACK
6
CONTINUOUS
10
-0.8879748425196851
20
0.4721597637795276
11
-0.8803779921259842
21
0.4721597637795276
0
LINE
8
BLACK
6
CONTINUOUS
10
-0.8803779921259842
20
0.4721597637795276
11
-0.8796301181102362
21
0.4736555905511811
0
LINE
8
BLACK
6
CONTINUOUS
10
-0.8796301181102362
20
0.4736555905511811
11
-0.8796301181102362
21
0.4802252755905512
0
LINE
8
BLACK
6
CONTINUOUS
10
-0.8796301181102362
20
0.4802252755905512
11
-0.8806286614173228
21
0.4822223622047244
0
LINE
8
BLACK
6
CONTINUOUS
10
-0.8806286614173228
20
0.4822223622047244
11
-0.8826257480314961
21
0.483220905511811
0
LINE
8
BLACK
6
CONTINUOUS
10
-0.8826257480314961
20
0.483220905511811
11
-0.8846959842519685
21
0.483220905511811
0
LINE
8
BLACK
6
CONTINUOUS
10
-0.8846959842519685
20
0.483220905511811
11
-0.8866931102362204
21
0.4822223622047244
0
LINE
8
BLACK
6
CONTINUOUS
10
-0.8769083070866142
20
0.5170042913385826
11
-0.8758429527559055
21
0.515938937007874
0
LINE
8
BLACK
6
CONTINUOUS
10
-0.8758429527559055
20
0.515938937007874
11
-0.8756931102362204
21
0.5151856299212598
0
LINE
8
BLACK
6
CONTINUOUS
10
-0.8756931102362204
20
0.5151856299212598
11
-0.8756931102362204
21
0.503187125984252
0
LINE
8
BLACK
6
CONTINUOUS
10
-0.8756931102362204
20
0.503187125984252
11
-0.8757123622047244
21
0.5030904330708661
0
LINE
8
BLACK
6
CONTINUOUS
10
-0.8757123622047244
20
0.5030904330708661
11
-0.8756980708661417
21
0.5030475590551181
0
LINE
8
BLACK
6
CONTINUOUS
10
-0.8756980708661417
20
0.5030475590551181
11
-0.8757814173228347
21
0.5027433464566929
0
LINE
8
BLACK
6
CONTINUOUS
10
-0.8757814173228347
20
0.5027433464566929
11
-0.8758429527559055
21
0.5024338188976378
0
LINE
8
BLACK
6
CONTINUOUS
10
-0.8758429527559055
20
0.5024338188976378
11
-0.8758749212598425
21
0.5024018897637795
0
LINE
8
BLACK
6
CONTINUOUS
10
-0.8758749212598425
20
0.5024018897637795
11
-0.8759009448818897
21
0.5023067716535433
0
LINE
8
BLACK
6
CONTINUOUS
10
-0.8759009448818897
20
0.5023067716535433
11
-0.877400748031496
21
0.4993071653543307
0
LINE
8
BLACK
6
CONTINUOUS
10
-0.877400748031496
20
0.4993071653543307
11
-0.8775942519685039
21
0.4990579133858268
0
LINE
8
BLACK
6
CONTINUOUS
10
-0.8775942519685039
20
0.4990579133858268
11
-0.8777694881889764
21
0.4987955511811024
0
LINE
8
BLACK
6
CONTINUOUS
10
-0.8777694881889764
20
0.4987955511811024
11
-0.8792693307086614
21
0.4972957480314961
0
LINE
8
BLACK
6
CONTINUOUS
10
-0.8792693307086614
20
0.4972957480314961
11
-0.8795318897637795
21
0.4971203543307087
0
LINE
8
BLACK
6
CONTINUOUS
10
-0.8795318897637795
20
0.4971203543307087
11
-0.879780905511811
21
0.4969270472440945
0
LINE
8
BLACK
6
CONTINUOUS
10
-0.879780905511811
20
0.4969270472440945
11
-0.8827805118110236
21
0.4954272047244094
0
LINE
8
BLACK
6
CONTINUOUS
10
-0.8827805118110236
20
0.4954272047244094
11
-0.8828756299212598
21
0.4954011811023622
0
LINE
8
BLACK
6
CONTINUOUS
10
-0.8828756299212598
20
0.4954011811023622
11
-0.8829075590551181
21
0.4953692125984252
0
LINE
8
BLACK
6
CONTINUOUS
10
-0.8829075590551181
20
0.4953692125984252
11
-0.8832170866141732
21
0.4953076771653543
0
LINE
8
BLACK
6
CONTINUOUS
10
-0.8832170866141732
20
0.4953076771653543
11
-0.8835212992125984
21
0.4952243307086614
0
LINE
8
BLACK
6
CONTINUOUS
10
-0.8835212992125984
20
0.4952243307086614
11
-0.8835641732283465
21
0.4952386220472441
0
LINE
8
BLACK
6
CONTINUOUS
10
-0.8835641732283465
20
0.4952386220472441
11
-0.8836608661417322
21
0.4952193700787402
0
LINE
8
BLACK
6
CONTINUOUS
10
-0.8836608661417322
20
0.4952193700787402
11
-0.8881603149606299
21
0.4952193700787402
0
LINE
8
BLACK
6
CONTINUOUS
10
-0.8881603149606299
20
0.4952193700787402
11
-0.8882570866141732
21
0.4952386220472441
0
LINE
8
BLACK
6
CONTINUOUS
10
-0.8882570866141732
20
0.4952386220472441
11
-0.8882999212598425
21
0.4952243307086614
0
LINE
8
BLACK
6
CONTINUOUS
10
-0.8882999212598425
20
0.4952243307086614
11
-0.8886042519685039
21
0.4953076771653543
0
LINE
8
BLACK
6
CONTINUOUS
10
-0.8886042519685039
20
0.4953076771653543
11
-0.8889136220472441
21
0.4953692125984252
0
LINE
8
BLACK
6
CONTINUOUS
10
-0.8889136220472441
20
0.4953692125984252
11
-0.8889455905511811
21
0.4954011811023622
0
LINE
8
BLACK
6
CONTINUOUS
10
-0.8889455905511811
20
0.4954011811023622
11
-0.8890407086614173
21
0.4954272047244094
0
LINE
8
BLACK
6
CONTINUOUS
10
-0.8890407086614173
20
0.4954272047244094
11
-0.8920402755905512
21
0.4969270472440945
0
LINE
8
BLACK
6
CONTINUOUS
10
-0.8920402755905512
20
0.4969270472440945
11
-0.8922894488188976
21
0.4971204330708661
0
LINE
8
BLACK
6
CONTINUOUS
10
-0.8922894488188976
20
0.4971204330708661
11
-0.8925518503937008
21
0.4972957480314961
0
LINE
8
BLACK
6
CONTINUOUS
10
-0.8925518503937008
20
0.4972957480314961
11
-0.8940516929133858
21
0.4987955511811024
0
LINE
8
BLACK
6
CONTINUOUS
10
-0.8940516929133858
20
0.4987955511811024
11
-0.8941064960629921
21
0.4988775590551181
0
LINE
8
BLACK
6
CONTINUOUS
10
-0.8941064960629921
20
0.4988775590551181
11
-0.8941468897637795
21
0.4988977559055118
0
LINE
8
BLACK
6
CONTINUOUS
10
-0.8941468897637795
20
0.4988977559055118
11
-0.8943030708661417
21
0.4991717322834646
0
LINE
8
BLACK
6
CONTINUOUS
10
-0.8943030708661417
20
0.4991717322834646
11
-0.8944784251968504
21
0.4994341732283464
0
LINE
8
BLACK
6
CONTINUOUS
10
-0.8944784251968504
20
0.4994341732283464
11
-0.8944784251968504
21
0.4994794094488189
0
LINE
8
BLACK
6
CONTINUOUS
10
-0.8944784251968504
20
0.4994794094488189
11
-0.8945272440944881
21
0.4995650393700787
0
LINE
8
BLACK
6
CONTINUOUS
10
-0.8945272440944881
20
0.4995650393700787
11
-0.8946448818897638
21
0.4999179527559055
0
LINE
8
BLACK
6
CONTINUOUS
10
-0.8946448818897638
20
0.4999179527559055
11
-0.8957672440944882
21
0.4987955905511811
0
LINE
8
BLACK
6
CONTINUOUS
10
-0.8957672440944882
20
0.4987955905511811
11
-0.8960295669291338
21
0.4986203149606299
0
LINE
8
BLACK
6
CONTINUOUS
10
-0.8960295669291338
20
0.4986203149606299
11
-0.8962788188976378
21
0.4984268503937008
0
LINE
8
BLACK
6
CONTINUOUS
10
-0.8962788188976378
20
0.4984268503937008
11
-0.8992785039370078
21
0.4969270472440945
0
LINE
8
BLACK
6
CONTINUOUS
10
-0.8992785039370078
20
0.4969270472440945
11
-0.8993735826771654
21
0.4969010236220472
0
LINE
8
BLACK
6
CONTINUOUS
10
-0.8993735826771654
20
0.4969010236220472
11
-0.8994055118110236
21
0.4968690551181102
0
LINE
8
BLACK
6
CONTINUOUS
10
-0.8994055118110236
20
0.4968690551181102
11
-0.8997151968503937
21
0.4968074803149606
0
LINE
8
BLACK
6
CONTINUOUS
10
-0.8997151968503937
20
0.4968074803149606
11
-0.9000192913385826
21
0.4967241732283464
0
LINE
8
BLACK
6
CONTINUOUS
10
-0.9000192913385826
20
0.4967241732283464
11
-0.9000621259842519
21
0.4967384645669291
0
LINE
8
BLACK
6
CONTINUOUS
10
-0.9000621259842519
20
0.4967384645669291
11
-0.9001588188976378
21
0.4967192125984252
0
LINE
8
BLACK
6
CONTINUOUS
10
-0.9001588188976378
20
0.4967192125984252
11
-0.9031584251968504
21
0.4967192125984252
0
LINE
8
BLACK
6
CONTINUOUS
10
-0.9031584251968504
20
0.4967192125984252
11
-0.9032551574803149
21
0.4967384645669291
0
LINE
8
BLACK
6
CONTINUOUS
10
-0.9032551574803149
20
0.4967384645669291
11
-0.9032979527559055
21
0.4967241732283464
0
LINE
8
BLACK
6
CONTINUOUS
10
-0.9032979527559055
20
0.4967241732283464
11
-0.9036022834645669
21
0.4968075196850393
0
LINE
8
BLACK
6
CONTINUOUS
10
-0.9036022834645669
20
0.4968075196850393
11
-0.9039117322834646
21
0.4968690551181102
0
LINE
8
BLACK
6
CONTINUOUS
10
-0.9039117322834646
20
0.4968690551181102
11
-0.9039436614173229
21
0.4969009842519685
0
LINE
8
BLACK
6
CONTINUOUS
10
-0.9039436614173229
20
0.4969009842519685
11
-0.9040387401574803
21
0.4969270078740157
0
LINE
8
BLACK
6
CONTINUOUS
10
-0.9040387401574803
20
0.4969270078740157
11
-0.9070383858267717
21
0.4984268503937008
0
LINE
8
BLACK
6
CONTINUOUS
10
-0.9070383858267717
20
0.4984268503937008
11
-0.9072872834645669
21
0.4986200393700787
0
LINE
8
BLACK
6
CONTINUOUS
10
-0.9072872834645669
20
0.4986200393700787
11
-0.9075500393700787
21
0.4987955905511811
0
LINE
8
BLACK
6
CONTINUOUS
10
-0.9075500393700787
20
0.4987955905511811
11
-0.9090498031496063
21
0.5002953937007873
0
LINE
8
BLACK
6
CONTINUOUS
10
-0.9090498031496063
20
0.5002953937007873
11
-0.9092251181102362
21
0.500557716535433
0
LINE
8
BLACK
6
CONTINUOUS
10
-0.9092251181102362
20
0.500557716535433
11
-0.9094185433070866
21
0.500806968503937
0
LINE
8
BLACK
6
CONTINUOUS
10
-0.9094185433070866
20
0.500806968503937
11
-0.9109183464566929
21
0.5038066535433071
0
LINE
8
BLACK
6
CONTINUOUS
10
-0.9109183464566929
20
0.5038066535433071
11
-0.9109444094488188
21
0.5039017322834646
0
LINE
8
BLACK
6
CONTINUOUS
10
-0.9109444094488188
20
0.5039017322834646
11
-0.9109763385826771
21
0.5039336614173229
0
LINE
8
BLACK
6
CONTINUOUS
10
-0.9109763385826771
20
0.5039336614173229
11
-0.9110379527559055
21
0.5042433464566929
0
LINE
8
BLACK
6
CONTINUOUS
10
-0.9110379527559055
20
0.5042433464566929
11
-0.9111212204724409
21
0.5045474409448819
0
LINE
8
BLACK
6
CONTINUOUS
10
-0.9111212204724409
20
0.5045474409448819
11
-0.911106968503937
21
0.5045902755905511
0
LINE
8
BLACK
6
CONTINUOUS
10
-0.911106968503937
20
0.5045902755905511
11
-0.9111261811023622
21
0.504686968503937
0
LINE
8
BLACK
6
CONTINUOUS
10
-0.9111261811023622
20
0.504686968503937
11
-0.9111261811023622
21
0.5151856299212598
0
LINE
8
BLACK
6
CONTINUOUS
10
-0.9111261811023622
20
0.5151856299212598
11
-0.9109763385826771
21
0.515938937007874
0
LINE
8
BLACK
6
CONTINUOUS
10
-0.9109763385826771
20
0.515938937007874
11
-0.9099109842519685
21
0.5170042913385826
0
LINE
8
BLACK
6
CONTINUOUS
10
-0.9099109842519685
20
0.5170042913385826
11
-0.9091576771653543
21
0.5171541338582677
0
LINE
8
BLACK
6
CONTINUOUS
10
-0.9091576771653543
20
0.5171541338582677
11
-0.8776616141732283
21
0.5171541338582677
0
LINE
8
BLACK
6
CONTINUOUS
10
-0.8776616141732283
20
0.5171541338582677
11
-0.8769083070866142
21
0.5170042913385826
0
LINE
8
BLACK
6
CONTINUOUS
10
-0.8921910629921259
20
0.5050063779527559
11
-0.8909392913385826
21
0.5012509448818897
0
LINE
8
BLACK
6
CONTINUOUS
10
-0.8909392913385826
20
0.5012509448818897
11
-0.8899938582677165
21
0.5003055118110236
0
LINE
8
BLACK
6
CONTINUOUS
10
-0.8899938582677165
20
0.5003055118110236
11
-0.8876956299212598
21
0.4991563779527559
0
LINE
8
BLACK
6
CONTINUOUS
10
-0.8876956299212598
20
0.4991563779527559
11
-0.8841255511811024
21
0.4991563779527559
0
LINE
8
BLACK
6
CONTINUOUS
10
-0.8841255511811024
20
0.4991563779527559
11
-0.8818273228346456
21
0.5003055511811023
0
LINE
8
BLACK
6
CONTINUOUS
10
-0.8818273228346456
20
0.5003055511811023
11
-0.8807792125984252
21
0.5013536614173228
0
LINE
8
BLACK
6
CONTINUOUS
10
-0.8807792125984252
20
0.5013536614173228
11
-0.8796301181102362
21
0.503651811023622
0
LINE
8
BLACK
6
CONTINUOUS
10
-0.8796301181102362
20
0.503651811023622
11
-0.8796301181102362
21
0.513217125984252
0
LINE
8
BLACK
6
CONTINUOUS
10
-0.8796301181102362
20
0.513217125984252
11
-0.8921910629921259
21
0.513217125984252
0
LINE
8
BLACK
6
CONTINUOUS
10
-0.8921910629921259
20
0.513217125984252
11
-0.8921910629921259
21
0.5050063779527559
0
LINE
8
BLACK
6
CONTINUOUS
10
-0.9071891732283465
20
0.505151653543307
11
-0.9060400393700787
21
0.5028533464566929
0
LINE
8
BLACK
6
CONTINUOUS
10
-0.9060400393700787
20
0.5028533464566929
11
-0.904991968503937
21
0.5018053149606299
0
LINE
8
BLACK
6
CONTINUOUS
10
-0.904991968503937
20
0.5018053149606299
11
-0.9026937401574803
21
0.500656220472441
0
LINE
8
BLACK
6
CONTINUOUS
10
-0.9026937401574803
20
0.500656220472441
11
-0.9006234645669291
21
0.500656220472441
0
LINE
8
BLACK
6
CONTINUOUS
10
-0.9006234645669291
20
0.500656220472441
11
-0.8983251968503937
21
0.5018053937007874
0
LINE
8
BLACK
6
CONTINUOUS
10
-0.8983251968503937
20
0.5018053937007874
11
-0.8972771653543307
21
0.5028534645669291
0
LINE
8
BLACK
6
CONTINUOUS
10
-0.8972771653543307
20
0.5028534645669291
11
-0.8961280708661417
21
0.505151653543307
0
LINE
8
BLACK
6
CONTINUOUS
10
-0.8961280708661417
20
0.505151653543307
11
-0.8961280708661417
21
0.513217125984252
0
LINE
8
BLACK
6
CONTINUOUS
10
-0.8961280708661417
20
0.513217125984252
11
-0.9071891732283465
21
0.513217125984252
0
LINE
8
BLACK
6
CONTINUOUS
10
-0.9071891732283465
20
0.513217125984252
11
-0.9071891732283465
21
0.505151653543307
0
LINE
8
BLACK
6
CONTINUOUS
10
-0.6924862204724409
20
4.6262460629921263
11
-0.6793592125984251
21
4.6232499212598421
0
LINE
8
BLACK
6
CONTINUOUS
10
-0.6793592125984251
20
4.6232499212598421
11
-0.6666501968503937
21
4.6188028346456695
0
LINE
8
BLACK
6
CONTINUOUS
10
-0.6666501968503937
20
4.6188028346456695
11
-0.6545190157480315
21
4.6129607874015743
0
LINE
8
BLACK
6
CONTINUOUS
10
-0.6545190157480315
20
4.6129607874015743
11
-0.6431182283464567
21
4.6057972047244098
0
LINE
8
BLACK
6
CONTINUOUS
10
-0.6431182283464567
20
4.6057972047244098
11
-0.6325911811023622
21
4.5974021653543309
0
LINE
8
BLACK
6
CONTINUOUS
10
-0.6325911811023622
20
4.5974021653543309
11
-0.6230702755905512
21
4.5878812598425194
0
LINE
8
BLACK
6
CONTINUOUS
10
-0.6230702755905512
20
4.5878812598425194
11
-0.6146752362204724
21
4.5773542125984248
0
LINE
8
BLACK
6
CONTINUOUS
10
-0.6146752362204724
20
4.5773542125984248
11
-0.6075116535433071
21
4.5659534251968505
0
LINE
8
BLACK
6
CONTINUOUS
10
-0.6075116535433071
20
4.5659534251968505
11
-0.6016696062992126
21
4.553822244094488
0
LINE
8
BLACK
6
CONTINUOUS
10
-0.6016696062992126
20
4.553822244094488
11
-0.5972225196850394
21
4.5411132283464566
0
LINE
8
BLACK
6
CONTINUOUS
10
-0.5972225196850394
20
4.5411132283464566
11
-0.5942263779527559
21
4.5279862204724406
0
LINE
8
BLACK
6
CONTINUOUS
10
-0.5942263779527559
20
4.5279862204724406
11
-0.5927188188976378
21
4.5146062992125984
0
LINE
8
BLACK
6
CONTINUOUS
10
-0.5927188188976378
20
4.5146062992125984
11
-0.5927188188976378
21
4.5011417322834646
0
LINE
8
BLACK
6
CONTINUOUS
10
-0.5927188188976378
20
4.5011417322834646
11
-0.5942263779527559
21
4.4877618110236224
0
LINE
8
BLACK
6
CONTINUOUS
10
-0.5942263779527559
20
4.4877618110236224
11
-0.5972225196850394
21
4.4746348031496064
0
LINE
8
BLACK
6
CONTINUOUS
10
-0.5972225196850394
20
4.4746348031496064
11
-0.6016696062992126
21
4.461925787401575
0
LINE
8
BLACK
6
CONTINUOUS
10
-0.6016696062992126
20
4.461925787401575
11
-0.6075116535433071
21
4.4497946062992124
0
LINE
8
BLACK
6
CONTINUOUS
10
-0.6075116535433071
20
4.4497946062992124
11
-0.6146752362204724
21
4.4383938188976373
0
LINE
8
BLACK
6
CONTINUOUS
10
-0.6146752362204724
20
4.4383938188976373
11
-0.6230702755905512
21
4.4278667716535436
0
LINE
8
BLACK
6
CONTINUOUS
10
-0.6230702755905512
20
4.4278667716535436
11
-0.6325911811023622
21
4.4183458661417321
0
LINE
8
BLACK
6
CONTINUOUS
10
-0.6325911811023622
20
4.4183458661417321
11
-0.6431182283464567
21
4.4099508267716532
0
LINE
8
BLACK
6
CONTINUOUS
10
-0.6431182283464567
20
4.4099508267716532
11
-0.6545190157480315
21
4.4027872440944877
0
LINE
8
BLACK
6
CONTINUOUS
10
-0.6545190157480315
20
4.4027872440944877
11
-0.6666501968503937
21
4.3969451968503934
0
LINE
8
BLACK
6
CONTINUOUS
10
-0.6666501968503937
20
4.3969451968503934
11
-0.6793592125984251
21
4.3924981102362199
0
LINE
8
BLACK
6
CONTINUOUS
10
-0.6793592125984251
20
4.3924981102362199
11
-0.6924862204724409
21
4.3895019685039367
0
LINE
8
BLACK
6
CONTINUOUS
10
-0.6924862204724409
20
4.3895019685039367
11
-0.7058661417322835
21
4.3879944094488188
0
LINE
8
BLACK
6
CONTINUOUS
10
-0.7058661417322835
20
4.3879944094488188
11
-0.7193307086614174
21
4.3879944094488188
0
LINE
8
BLACK
6
CONTINUOUS
10
-0.7193307086614174
20
4.3879944094488188
11
-0.7327106299212598
21
4.3895019685039367
0
LINE
8
BLACK
6
CONTINUOUS
10
-0.7327106299212598
20
4.3895019685039367
11
-0.7458376377952756
21
4.3924981102362199
0
LINE
8
BLACK
6
CONTINUOUS
10
-0.7458376377952756
20
4.3924981102362199
11
-0.7585466535433071
21
4.3969451968503934
0
LINE
8
BLACK
6
CONTINUOUS
10
-0.7585466535433071
20
4.3969451968503934
11
-0.7706778346456693
21
4.4027872440944877
0
LINE
8
BLACK
6
CONTINUOUS
10
-0.7706778346456693
20
4.4027872440944877
11
-0.7820786220472441
21
4.4099508267716532
0
LINE
8
BLACK
6
CONTINUOUS
10
-0.7820786220472441
20
4.4099508267716532
11
-0.7926056692913386
21
4.4183458661417321
0
LINE
8
BLACK
6
CONTINUOUS
10
-0.7926056692913386
20
4.4183458661417321
11
-0.8021265748031496
21
4.4278667716535436
0
LINE
8
BLACK
6
CONTINUOUS
10
-0.8021265748031496
20
4.4278667716535436
11
-0.8105216141732283
21
4.4383938188976373
0
LINE
8
BLACK
6
CONTINUOUS
10
-0.8105216141732283
20
4.4383938188976373
11
-0.8176851968503936
21
4.4497946062992124
0
LINE
8
BLACK
6
CONTINUOUS
10
-0.8176851968503936
20
4.4497946062992124
11
-0.8235272440944882
21
4.461925787401575
0
LINE
8
BLACK
6
CONTINUOUS
10
-0.8235272440944882
20
4.461925787401575
11
-0.8279743307086614
21
4.4746348031496064
0
LINE
8
BLACK
6
CONTINUOUS
10
-0.8279743307086614
20
4.4746348031496064
11
-0.8309704724409449
21
4.4877618110236224
0
LINE
8
BLACK
6
CONTINUOUS
10
-0.8309704724409449
20
4.4877618110236224
11
-0.8324780314960629
21
4.5011417322834646
0
LINE
8
BLACK
6
CONTINUOUS
10
-0.8324780314960629
20
4.5011417322834646
11
-0.8324780314960629
21
4.5143958267716533
0
LINE
8
BLACK
6
CONTINUOUS
10
-0.8324780314960629
20
4.5143958267716533
11
-0.8324780314960629
21
4.5146062992125984
0
LINE
8
BLACK
6
CONTINUOUS
10
-0.8324780314960629
20
4.5146062992125984
11
-0.8309704724409449
21
4.5279862204724406
0
LINE
8
BLACK
6
CONTINUOUS
10
-0.8309704724409449
20
4.5279862204724406
11
-0.8279743307086614
21
4.5411132283464566
0
LINE
8
BLACK
6
CONTINUOUS
10
-0.8279743307086614
20
4.5411132283464566
11
-0.8235272440944882
21
4.553822244094488
0
LINE
8
BLACK
6
CONTINUOUS
10
-0.8235272440944882
20
4.553822244094488
11
-0.8176851968503936
21
4.5659534251968505
0
LINE
8
BLACK
6
CONTINUOUS
10
-0.8176851968503936
20
4.5659534251968505
11
-0.8105216141732283
21
4.5773542125984248
0
LINE
8
BLACK
6
CONTINUOUS
10
-0.8105216141732283
20
4.5773542125984248
11
-0.8021265748031496
21
4.5878812598425194
0
LINE
8
BLACK
6
CONTINUOUS
10
-0.8021265748031496
20
4.5878812598425194
11
-0.7926056692913386
21
4.5974021653543309
0
LINE
8
BLACK
6
CONTINUOUS
10
-0.7926056692913386
20
4.5974021653543309
11
-0.7820786220472441
21
4.6057972047244098
0
LINE
8
BLACK
6
CONTINUOUS
10
-0.7820786220472441
20
4.6057972047244098
11
-0.7706778346456693
21
4.6129607874015743
0
LINE
8
BLACK
6
CONTINUOUS
10
-0.7706778346456693
20
4.6129607874015743
11
-0.7585466535433071
21
4.6188028346456695
0
LINE
8
BLACK
6
CONTINUOUS
10
-0.7585466535433071
20
4.6188028346456695
11
-0.7458376377952756
21
4.6232499212598421
0
LINE
8
BLACK
6
CONTINUOUS
10
-0.7458376377952756
20
4.6232499212598421
11
-0.7327106299212598
21
4.6262460629921263
0
LINE
8
BLACK
6
CONTINUOUS
10
-0.7327106299212598
20
4.6262460629921263
11
-0.7193307086614174
21
4.6277536220472442
0
LINE
8
BLACK
6
CONTINUOUS
10
-0.7193307086614174
20
4.6277536220472442
11
-0.7058661417322835
21
4.6277536220472442
0
LINE
8
BLACK
6
CONTINUOUS
10
-0.7058661417322835
20
4.6277536220472442
11
-0.6924862204724409
21
4.6262460629921263
0
LINE
8
BLACK
6
CONTINUOUS
10
-0.8287299212598425
20
4.5013522047244097
11
-0.8272695275590551
21
4.4883906299212599
0
LINE
8
BLACK
6
CONTINUOUS
10
-0.8272695275590551
20
4.4883906299212599
11
-0.8243670472440945
21
4.475674015748031
0
LINE
8
BLACK
6
CONTINUOUS
10
-0.8243670472440945
20
4.475674015748031
11
-0.8200590157480315
21
4.4633624015748028
0
LINE
8
BLACK
6
CONTINUOUS
10
-0.8200590157480315
20
4.4633624015748028
11
-0.8143996062992126
21
4.4516105118110234
0
LINE
8
BLACK
6
CONTINUOUS
10
-0.8143996062992126
20
4.4516105118110234
11
-0.8074599606299212
21
4.4405661417322833
0
LINE
8
BLACK
6
CONTINUOUS
10
-0.8074599606299212
20
4.4405661417322833
11
-0.7993274015748031
21
4.4303682677165357
0
LINE
8
BLACK
6
CONTINUOUS
10
-0.7993274015748031
20
4.4303682677165357
11
-0.7901041732283465
21
4.4211450393700789
0
LINE
8
BLACK
6
CONTINUOUS
10
-0.7901041732283465
20
4.4211450393700789
11
-0.7799062992125984
21
4.4130124803149604
0
LINE
8
BLACK
6
CONTINUOUS
10
-0.7799062992125984
20
4.4130124803149604
11
-0.7688619291338582
21
4.406072834645669
0
LINE
8
BLACK
6
CONTINUOUS
10
-0.7688619291338582
20
4.406072834645669
11
-0.7571100393700787
21
4.4004134251968505
0
LINE
8
BLACK
6
CONTINUOUS
10
-0.7571100393700787
20
4.4004134251968505
11
-0.7447984251968504
21
4.396105393700787
0
LINE
8
BLACK
6
CONTINUOUS
10
-0.7447984251968504
20
4.396105393700787
11
-0.732081811023622
21
4.393202913385827
0
LINE
8
BLACK
6
CONTINUOUS
10
-0.732081811023622
20
4.393202913385827
11
-0.7191202362204724
21
4.3917425196850397
0
LINE
8
BLACK
6
CONTINUOUS
10
-0.7191202362204724
20
4.3917425196850397
11
-0.7060766141732283
21
4.3917425196850397
0
LINE
8
BLACK
6
CONTINUOUS
10
-0.7060766141732283
20
4.3917425196850397
11
-0.6931150393700787
21
4.393202913385827
0
LINE
8
BLACK
6
CONTINUOUS
10
-0.6931150393700787
20
4.393202913385827
11
-0.6803984251968503
21
4.396105393700787
0
LINE
8
BLACK
6
CONTINUOUS
10
-0.6803984251968503
20
4.396105393700787
11
-0.668086811023622
21
4.4004134251968505
0
LINE
8
BLACK
6
CONTINUOUS
10
-0.668086811023622
20
4.4004134251968505
11
-0.6563349212598425
21
4.406072834645669
0
LINE
8
BLACK
6
CONTINUOUS
10
-0.6563349212598425
20
4.406072834645669
11
-0.6452905511811023
21
4.4130124803149604
0
LINE
8
BLACK
6
CONTINUOUS
10
-0.6452905511811023
20
4.4130124803149604
11
-0.6350926771653543
21
4.4211450393700789
0
LINE
8
BLACK
6
CONTINUOUS
10
-0.6350926771653543
20
4.4211450393700789
11
-0.6258694488188976
21
4.4303682677165357
0
LINE
8
BLACK
6
CONTINUOUS
10
-0.6258694488188976
20
4.4303682677165357
11
-0.6177368897637795
21
4.4405661417322833
0
LINE
8
BLACK
6
CONTINUOUS
10
-0.6177368897637795
20
4.4405661417322833
11
-0.6107972440944882
21
4.4516105118110234
0
LINE
8
BLACK
6
CONTINUOUS
10
-0.6107972440944882
20
4.4516105118110234
11
-0.6051378346456693
21
4.4633624015748028
0
LINE
8
BLACK
6
CONTINUOUS
10
-0.6051378346456693
20
4.4633624015748028
11
-0.6008298031496063
21
4.475674015748031
0
LINE
8
BLACK
6
CONTINUOUS
10
-0.6008298031496063
20
4.475674015748031
11
-0.5979273228346457
21
4.4883906299212599
0
LINE
8
BLACK
6
CONTINUOUS
10
-0.5979273228346457
20
4.4883906299212599
11
-0.5964669291338582
21
4.5013522047244097
0
LINE
8
BLACK
6
CONTINUOUS
10
-0.5964669291338582
20
4.5013522047244097
11
-0.5964669291338582
21
4.5143958267716533
0
LINE
8
BLACK
6
CONTINUOUS
10
-0.5964669291338582
20
4.5143958267716533
11
-0.5979273228346457
21
4.527357401574803
0
LINE
8
BLACK
6
CONTINUOUS
10
-0.5979273228346457
20
4.527357401574803
11
-0.6008298031496063
21
4.540074015748031
0
LINE
8
BLACK
6
CONTINUOUS
10
-0.6008298031496063
20
4.540074015748031
11
-0.6051378346456693
21
4.5523856299212602
0
LINE
8
BLACK
6
CONTINUOUS
10
-0.6051378346456693
20
4.5523856299212602
11
-0.6107972440944882
21
4.5641375196850396
0
LINE
8
BLACK
6
CONTINUOUS
10
-0.6107972440944882
20
4.5641375196850396
11
-0.6177368897637795
21
4.5751818897637797
0
LINE
8
BLACK
6
CONTINUOUS
10
-0.6177368897637795
20
4.5751818897637797
11
-0.6258694488188976
21
4.5853797637795273
0
LINE
8
BLACK
6
CONTINUOUS
10
-0.6258694488188976
20
4.5853797637795273
11
-0.6350926771653543
21
4.5946029921259841
0
LINE
8
BLACK
6
CONTINUOUS
10
-0.6350926771653543
20
4.5946029921259841
11
-0.6452905511811023
21
4.6027355511811026
0
LINE
8
BLACK
6
CONTINUOUS
10
-0.6452905511811023
20
4.6027355511811026
11
-0.6563349212598425
21
4.609675196850394
0
LINE
8
BLACK
6
CONTINUOUS
10
-0.6563349212598425
20
4.609675196850394
11
-0.668086811023622
21
4.6153346062992124
0
LINE
8
BLACK
6
CONTINUOUS
10
-0.668086811023622
20
4.6153346062992124
11
-0.6803984251968503
21
4.6196426377952751
0
LINE
8
BLACK
6
CONTINUOUS
10
-0.6803984251968503
20
4.6196426377952751
11
-0.6931150393700787
21
4.6225451181102359
0
LINE
8
BLACK
6
CONTINUOUS
10
-0.6931150393700787
20
4.6225451181102359
11
-0.7060766141732283
21
4.6240055118110233
0
LINE
8
BLACK
6
CONTINUOUS
10
-0.7060766141732283
20
4.6240055118110233
11
-0.7191202362204724
21
4.6240055118110233
0
LINE
8
BLACK
6
CONTINUOUS
10
-0.7191202362204724
20
4.6240055118110233
11
-0.732081811023622
21
4.6225451181102359
0
LINE
8
BLACK
6
CONTINUOUS
10
-0.732081811023622
20
4.6225451181102359
11
-0.7447984251968504
21
4.6196426377952751
0
LINE
8
BLACK
6
CONTINUOUS
10
-0.7447984251968504
20
4.6196426377952751
11
-0.7571100393700787
21
4.6153346062992124
0
LINE
8
BLACK
6
CONTINUOUS
10
-0.7571100393700787
20
4.6153346062992124
11
-0.7688619291338582
21
4.609675196850394
0
LINE
8
BLACK
6
CONTINUOUS
10
-0.7688619291338582
20
4.609675196850394
11
-0.7799062992125984
21
4.6027355511811026
0
LINE
8
BLACK
6
CONTINUOUS
10
-0.7799062992125984
20
4.6027355511811026
11
-0.7901041732283465
21
4.5946029921259841
0
LINE
8
BLACK
6
CONTINUOUS
10
-0.7901041732283465
20
4.5946029921259841
11
-0.7993274015748031
21
4.5853797637795273
0
LINE
8
BLACK
6
CONTINUOUS
10
-0.7993274015748031
20
4.5853797637795273
11
-0.8074599606299212
21
4.5751818897637797
0
LINE
8
BLACK
6
CONTINUOUS
10
-0.8074599606299212
20
4.5751818897637797
11
-0.8143996062992126
21
4.5641375196850396
0
LINE
8
BLACK
6
CONTINUOUS
10
-0.8143996062992126
20
4.5641375196850396
11
-0.8200590157480315
21
4.5523856299212602
0
LINE
8
BLACK
6
CONTINUOUS
10
-0.8200590157480315
20
4.5523856299212602
11
-0.8243670472440945
21
4.540074015748031
0
LINE
8
BLACK
6
CONTINUOUS
10
-0.8243670472440945
20
4.540074015748031
11
-0.8272695275590551
21
4.527357401574803
0
LINE
8
BLACK
6
CONTINUOUS
10
-0.8272695275590551
20
4.527357401574803
11
-0.8287299212598425
21
4.5143958267716533
0
LINE
8
BLACK
6
CONTINUOUS
10
-0.8287299212598425
20
4.5143958267716533
11
-0.8287299212598425
21
4.5013522047244097
0
CIRCLE
8
BLACK
10
-0.2013453543307087
20
3.6417322834645667
40
0.0068897637795276
0
CIRCLE
8
BLACK
10
-0.1013453543307087
20
3.6417322834645667
40
0.0068897637795276
0
CIRCLE
8
BLACK
10
-1.1299212598425197
20
0.7874015748031495
40
0.0068897637795276
0
CIRCLE
8
BLACK
10
0.5364499212598425
20
3.2165354330708662
40
0.0068897637795276
0
CIRCLE
8
BLACK
10
0.3986546456692913
20
3.2165354330708662
40
0.0068897637795276
0
CIRCLE
8
BLACK
10
1.0055118110236221
20
0.2188976377952756
40
0.0068897637795276
0
CIRCLE
8
BLACK
10
0.5055118110236221
20
0.2188976377952756
40
0.0068897637795276
0
CIRCLE
8
BLACK
10
0.8956692913385826
20
0.3188976377952756
40
0.0068897637795276
0
CIRCLE
8
BLACK
10
0.8556692913385826
20
0.3889764173228346
40
0.0068897637795276
0
CIRCLE
8
BLACK
10
0.8156692913385827
20
0.3188976377952756
40
0.0068897637795276
0
CIRCLE
8
BLACK
10
0.7756692913385826
20
0.3889764173228346
40
0.0068897637795276
0
CIRCLE
8
BLACK
10
0.7356692913385826
20
0.3188976377952756
40
0.0068897637795276
0
CIRCLE
8
BLACK
10
0.6956692913385827
20
0.3889764173228346
40
0.0068897637795276
0
CIRCLE
8
BLACK
10
0.6556692913385826
20
0.3188976377952756
40
0.0068897637795276
0
CIRCLE
8
BLACK
10
0.6156693307086614
20
0.3889763779527559
40
0.0068897637795276
0
CIRCLE
8
BLACK
10
1.0255905511811023
20
0.5787401574803149
40
0.0068897637795276
0
CIRCLE
8
BLACK
10
0.9354330708661417
20
0.5787401574803149
40
0.0068897637795276
0
CIRCLE
8
BLACK
10
0.5755905511811024
20
0.5787401574803149
40
0.0068897637795276
0
CIRCLE
8
BLACK
10
0.4854330708661417
20
0.5787401574803149
40
0.0068897637795276
0
CIRCLE
8
BLACK
10
1.0755905511811024
20
0.3539370078740157
40
0.0068897637795276
0
CIRCLE
8
BLACK
10
0.4354330708661417
20
0.3539370078740157
40
0.0068897637795276
0
CIRCLE
8
BLACK
10
-0.2013453543307087
20
3.9448818897637796
40
0.0068897637795276
0
CIRCLE
8
BLACK
10
-0.1013453543307087
20
3.9448818897637796
40
0.0068897637795276
0
CIRCLE
8
BLACK
10
-1.3218503937007873
20
4.466929133858268
40
0.0068897637795276
0
CIRCLE
8
BLACK
10
-1.2218503937007874
20
4.466929133858268
40
0.0068897637795276
0
CIRCLE
8
BLACK
10
-1.3218503937007873
20
4.3669291338582674
40
0.0068897637795276
0
CIRCLE
8
BLACK
10
-1.2218503937007874
20
4.3669291338582674
40
0.0068897637795276
0
CIRCLE
8
BLACK
10
-1.3218503937007873
20
4.2669291338582678
40
0.0068897637795276
0
CIRCLE
8
BLACK
10
-1.2218503937007874
20
4.2669291338582678
40
0.0068897637795276
0
CIRCLE
8
BLACK
10
-1.3218503937007873
20
4.1669291338582672
40
0.0068897637795276
0
CIRCLE
8
BLACK
10
-1.2218503937007874
20
4.1669291338582672
40
0.0068897637795276
0
CIRCLE
8
BLACK
10
-1.3218503937007873
20
4.0669291338582676
40
0.0068897637795276
0
CIRCLE
8
BLACK
10
-1.2218503937007874
20
4.0669291338582676
40
0.0068897637795276
0
CIRCLE
8
BLACK
10
-1.3218503937007873
20
3.9669291338582675
40
0.0068897637795276
0
CIRCLE
8
BLACK
10
-1.2218503937007874
20
3.9669291338582675
40
0.0068897637795276
0
CIRCLE
8
BLACK
10
-1.3218503937007873
20
3.8669291338582674
40
0.0068897637795276
0
CIRCLE
8
BLACK
10
-1.2218503937007874
20
3.8669291338582674
40
0.0068897637795276
0
CIRCLE
8
BLACK
10
-1.3218503937007873
20
3.7669291338582678
40
0.0068897637795276
0
CIRCLE
8
BLACK
10
-1.2218503937007874
20
3.7669291338582678
40
0.0068897637795276
0
CIRCLE
8
BLACK
10
-1.3218503937007873
20
3.6669291338582677
40
0.0068897637795276
0
CIRCLE
8
BLACK
10
-1.2218503937007874
20
3.6669291338582677
40
0.0068897637795276
0
CIRCLE
8
BLACK
10
-1.3218503937007873
20
3.5669291338582676
40
0.0068897637795276
0
CIRCLE
8
BLACK
10
-1.2218503937007874
20
3.5669291338582676
40
0.0068897637795276
0
CIRCLE
8
BLACK
10
-1.3218503937007873
20
3.4669291338582675
40
0.0068897637795276
0
CIRCLE
8
BLACK
10
-1.2218503937007874
20
3.4669291338582675
40
0.0068897637795276
0
CIRCLE
8
BLACK
10
-1.3218503937007873
20
3.3669291338582674
40
0.0068897637795276
0
CIRCLE
8
BLACK
10
-1.2218503937007874
20
3.3669291338582674
40
0.0068897637795276
0
CIRCLE
8
BLACK
10
-1.3218503937007873
20
3.2669291338582678
40
0.0068897637795276
0
CIRCLE
8
BLACK
10
-1.2218503937007874
20
3.2669291338582678
40
0.0068897637795276
0
CIRCLE
8
BLACK
10
-1.3218503937007873
20
3.1669291338582677
40
0.0068897637795276
0
CIRCLE
8
BLACK
10
-1.2218503937007874
20
3.1669291338582677
40
0.0068897637795276
0
CIRCLE
8
BLACK
10
-1.3218503937007873
20
3.0669291338582676
40
0.0068897637795276
0
CIRCLE
8
BLACK
10
-1.2218503937007874
20
3.0669291338582676
40
0.0068897637795276
0
CIRCLE
8
BLACK
10
-1.3218503937007873
20
2.9669291338582675
40
0.0068897637795276
0
CIRCLE
8
BLACK
10
-1.2218503937007874
20
2.9669291338582675
40
0.0068897637795276
0
CIRCLE
8
BLACK
10
-1.3218503937007873
20
2.8669291338582679
40
0.0068897637795276
0
CIRCLE
8
BLACK
10
-1.2218503937007874
20
2.8669291338582679
40
0.0068897637795276
0
CIRCLE
8
BLACK
10
-1.3218503937007873
20
2.7669291338582678
40
0.0068897637795276
0
CIRCLE
8
BLACK
10
-1.2218503937007874
20
2.7669291338582678
40
0.0068897637795276
0
CIRCLE
8
BLACK
10
-1.3218503937007873
20
2.6669291338582677
40
0.0068897637795276
0
CIRCLE
8
BLACK
10
-1.2218503937007874
20
2.6669291338582677
40
0.0068897637795276
0
CIRCLE
8
BLACK
10
-1.3218503937007873
20
2.5669291338582676
40
0.0068897637795276
0
CIRCLE
8
BLACK
10
-1.2218503937007874
20
2.5669291338582676
40
0.0068897637795276
0
CIRCLE
8
BLACK
10
-0.2013453543307087
20
3.8425196850393699
40
0.0068897637795276
0
CIRCLE
8
BLACK
10
-0.1013453543307087
20
3.8425196850393699
40
0.0068897637795276
0
CIRCLE
8
BLACK
10
-0.2013453543307087
20
3.5433070866141732
40
0.0068897637795276
0
CIRCLE
8
BLACK
10
-0.1013453543307087
20
3.5433070866141732
40
0.0068897637795276
0
CIRCLE
8
BLACK
10
0.7125984251968503
20
1.7637795275590551
40
0.0068897637795276
0
CIRCLE
8
BLACK
10
0.7125984251968503
20
1.8637796062992125
40
0.0068897637795276
0
CIRCLE
8
BLACK
10
0.84251968503937
20
1.7637795275590551
40
0.0068897637795276
0
CIRCLE
8
BLACK
10
0.84251968503937
20
1.8637795275590552
40
0.0068897637795276
0
CIRCLE
8
BLACK
10
0.84251968503937
20
1.9637794881889763
40
0.0068897637795276
0
CIRCLE
8
BLACK
10
-1.6112204724409449
20
0.5039370078740157
40
0.0068897637795276
0
CIRCLE
8
BLACK
10
1.6348425196850394
20
3.4704724409448819
40
0.0068897637795276
0
CIRCLE
8
BLACK
10
1.6348425196850394
20
0.7106299212598425
40
0.0068897637795276
0
CIRCLE
8
BLACK
10
-0.4808729133858268
20
3.9433070866141731
40
0.0068897637795276
0
CIRCLE
8
BLACK
10
-0.3808729133858267
20
3.9433070866141731
40
0.0068897637795276
0
CIRCLE
8
BLACK
10
-0.4808729133858268
20
3.843307086614173
40
0.0068897637795276
0
CIRCLE
8
BLACK
10
-0.3808729133858267
20
3.843307086614173
40
0.0068897637795276
0
CIRCLE
8
BLACK
10
-0.4808729133858268
20
3.7433070866141733
40
0.0068897637795276
0
CIRCLE
8
BLACK
10
-0.3808729133858267
20
3.7433070866141733
40
0.0068897637795276
0
CIRCLE
8
BLACK
10
-0.4808729133858268
20
3.6433070866141732
40
0.0068897637795276
0
CIRCLE
8
BLACK
10
-0.3808729133858267
20
3.6433070866141732
40
0.0068897637795276
0
CIRCLE
8
BLACK
10
-0.4808729133858268
20
3.5433070866141732
40
0.0068897637795276
0
CIRCLE
8
BLACK
10
-0.3808729133858267
20
3.5433070866141732
40
0.0068897637795276
0
CIRCLE
8
BLACK
10
0.937007874015748
20
4.6023622047244093
40
0.0068897637795276
0
CIRCLE
8
BLACK
10
0.937007874015748
20
4.5023622047244096
40
0.0068897637795276
0
CIRCLE
8
BLACK
10
0.8370078740157481
20
4.6023622047244093
40
0.0068897637795276
0
CIRCLE
8
BLACK
10
0.8370078740157481
20
4.5023622047244096
40
0.0068897637795276
0
CIRCLE
8
BLACK
10
0.7370079133858267
20
4.6023622047244093
40
0.0068897637795276
0
CIRCLE
8
BLACK
10
0.737007874015748
20
4.5023622047244096
40
0.0068897637795276
0
CIRCLE
8
BLACK
10
0.637007874015748
20
4.6023622047244093
40
0.0068897637795276
0
CIRCLE
8
BLACK
10
0.637007874015748
20
4.5023622047244096
40
0.0068897637795276
0
CIRCLE
8
BLACK
10
0.537007874015748
20
4.6023622047244093
40
0.0068897637795276
0
CIRCLE
8
BLACK
10
0.537007874015748
20
4.5023622047244096
40
0.0068897637795276
0
CIRCLE
8
BLACK
10
-1.1299212598425197
20
0.9409448818897638
40
0.0068897637795276
0
CIRCLE
8
BLACK
10
-0.7172244094488189
20
0.5354330708661417
40
0.0068897637795276
0
CIRCLE
8
BLACK
10
-0.7172244094488189
20
0.735433031496063
40
0.0068897637795276
0
CIRCLE
8
BLACK
10
0.0827755905511811
20
0.2354330708661417
40
0.0068897637795276
0
CIRCLE
8
BLACK
10
0.0827755905511811
20
0.6354330708661418
40
0.0068897637795276
0
CIRCLE
8
BLACK
10
0.0827755905511811
20
1.0354330708661417
40
0.0068897637795276
0
CIRCLE
8
BLACK
10
-0.7172244094488189
20
1.0354330708661417
40
0.0068897637795276
0
CIRCLE
8
BLACK
10
-0.7125984251968503
20
4.5078740157480315
40
0.0068897637795276
0
ARC
8
BLACK
10
-1.1085629921259843
20
0.5433070866141733
40
0.0688976377952756
50
-90.00000000
51
90.00000000
0
ARC
8
BLACK
10
-1.1085629921259843
20
0.5433070866141733
40
0.0688976377952756
50
90.00000000
51
270.00000000
0
LINE
8
BLACK
6
CONTINUOUS
10
-1.1184055118110237
20
0.2480314960629921
11
-1.098720472440945
21
0.2480314960629921
0
ARC
8
BLACK
10
-1.098720472440945
20
0.3070866141732284
40
0.0590551181102362
50
-90.00000000
51
90.00000000
0
LINE
8
BLACK
6
CONTINUOUS
10
-1.098720472440945
20
0.3661417322834646
11
-1.1184055118110237
21
0.3661417322834646
0
ARC
8
BLACK
10
-1.1184055118110237
20
0.3070866141732284
40
0.0590551181102362
50
90.00000000
51
270.00000000
0
ARC
8
BLACK
10
-1.2936023622047244
20
0.4251968503937008
40
0.0688976377952756
50
-90.00000000
51
90.00000000
0
ARC
8
BLACK
10
-1.2936023622047244
20
0.4251968503937008
40
0.0688976377952756
50
90.00000000
51
270.00000000
0
CIRCLE
8
BLACK
10
-0.2013453543307087
20
3.6417322834645667
40
0.0068897637795276
0
CIRCLE
8
BLACK
10
-0.1013453543307087
20
3.6417322834645667
40
0.0068897637795276
0
CIRCLE
8
BLACK
10
-1.1299212598425197
20
0.7874015748031495
40
0.0068897637795276
0
CIRCLE
8
BLACK
10
0.5364499212598425
20
3.2165354330708662
40
0.0068897637795276
0
CIRCLE
8
BLACK
10
0.3986546456692913
20
3.2165354330708662
40
0.0068897637795276
0
CIRCLE
8
BLACK
10
1.0055118110236221
20
0.2188976377952756
40
0.0068897637795276
0
CIRCLE
8
BLACK
10
0.5055118110236221
20
0.2188976377952756
40
0.0068897637795276
0
CIRCLE
8
BLACK
10
0.8956692913385826
20
0.3188976377952756
40
0.0068897637795276
0
CIRCLE
8
BLACK
10
0.8556692913385826
20
0.3889764173228346
40
0.0068897637795276
0
CIRCLE
8
BLACK
10
0.8156692913385827
20
0.3188976377952756
40
0.0068897637795276
0
CIRCLE
8
BLACK
10
0.7756692913385826
20
0.3889764173228346
40
0.0068897637795276
0
CIRCLE
8
BLACK
10
0.7356692913385826
20
0.3188976377952756
40
0.0068897637795276
0
CIRCLE
8
BLACK
10
0.6956692913385827
20
0.3889764173228346
40
0.0068897637795276
0
CIRCLE
8
BLACK
10
0.6556692913385826
20
0.3188976377952756
40
0.0068897637795276
0
CIRCLE
8
BLACK
10
0.6156693307086614
20
0.3889763779527559
40
0.0068897637795276
0
CIRCLE
8
BLACK
10
1.0255905511811023
20
0.5787401574803149
40
0.0068897637795276
0
CIRCLE
8
BLACK
10
0.9354330708661417
20
0.5787401574803149
40
0.0068897637795276
0
CIRCLE
8
BLACK
10
0.5755905511811024
20
0.5787401574803149
40
0.0068897637795276
0
CIRCLE
8
BLACK
10
0.4854330708661417
20
0.5787401574803149
40
0.0068897637795276
0
CIRCLE
8
BLACK
10
1.0755905511811024
20
0.3539370078740157
40
0.0068897637795276
0
CIRCLE
8
BLACK
10
0.4354330708661417
20
0.3539370078740157
40
0.0068897637795276
0
CIRCLE
8
BLACK
10
-0.2013453543307087
20
3.9448818897637796
40
0.0068897637795276
0
CIRCLE
8
BLACK
10
-0.1013453543307087
20
3.9448818897637796
40
0.0068897637795276
0
CIRCLE
8
BLACK
10
-1.3218503937007873
20
4.466929133858268
40
0.0068897637795276
0
CIRCLE
8
BLACK
10
-1.2218503937007874
20
4.466929133858268
40
0.0068897637795276
0
CIRCLE
8
BLACK
10
-1.3218503937007873
20
4.3669291338582674
40
0.0068897637795276
0
CIRCLE
8
BLACK
10
-1.2218503937007874
20
4.3669291338582674
40
0.0068897637795276
0
CIRCLE
8
BLACK
10
-1.3218503937007873
20
4.2669291338582678
40
0.0068897637795276
0
CIRCLE
8
BLACK
10
-1.2218503937007874
20
4.2669291338582678
40
0.0068897637795276
0
CIRCLE
8
BLACK
10
-1.3218503937007873
20
4.1669291338582672
40
0.0068897637795276
0
CIRCLE
8
BLACK
10
-1.2218503937007874
20
4.1669291338582672
40
0.0068897637795276
0
CIRCLE
8
BLACK
10
-1.3218503937007873
20
4.0669291338582676
40
0.0068897637795276
0
CIRCLE
8
BLACK
10
-1.2218503937007874
20
4.0669291338582676
40
0.0068897637795276
0
CIRCLE
8
BLACK
10
-1.3218503937007873
20
3.9669291338582675
40
0.0068897637795276
0
CIRCLE
8
BLACK
10
-1.2218503937007874
20
3.9669291338582675
40
0.0068897637795276
0
CIRCLE
8
BLACK
10
-1.3218503937007873
20
3.8669291338582674
40
0.0068897637795276
0
CIRCLE
8
BLACK
10
-1.2218503937007874
20
3.8669291338582674
40
0.0068897637795276
0
CIRCLE
8
BLACK
10
-1.3218503937007873
20
3.7669291338582678
40
0.0068897637795276
0
CIRCLE
8
BLACK
10
-1.2218503937007874
20
3.7669291338582678
40
0.0068897637795276
0
CIRCLE
8
BLACK
10
-1.3218503937007873
20
3.6669291338582677
40
0.0068897637795276
0
CIRCLE
8
BLACK
10
-1.2218503937007874
20
3.6669291338582677
40
0.0068897637795276
0
CIRCLE
8
BLACK
10
-1.3218503937007873
20
3.5669291338582676
40
0.0068897637795276
0
CIRCLE
8
BLACK
10
-1.2218503937007874
20
3.5669291338582676
40
0.0068897637795276
0
CIRCLE
8
BLACK
10
-1.3218503937007873
20
3.4669291338582675
40
0.0068897637795276
0
CIRCLE
8
BLACK
10
-1.2218503937007874
20
3.4669291338582675
40
0.0068897637795276
0
CIRCLE
8
BLACK
10
-1.3218503937007873
20
3.3669291338582674
40
0.0068897637795276
0
CIRCLE
8
BLACK
10
-1.2218503937007874
20
3.3669291338582674
40
0.0068897637795276
0
CIRCLE
8
BLACK
10
-1.3218503937007873
20
3.2669291338582678
40
0.0068897637795276
0
CIRCLE
8
BLACK
10
-1.2218503937007874
20
3.2669291338582678
40
0.0068897637795276
0
CIRCLE
8
BLACK
10
-1.3218503937007873
20
3.1669291338582677
40
0.0068897637795276
0
CIRCLE
8
BLACK
10
-1.2218503937007874
20
3.1669291338582677
40
0.0068897637795276
0
CIRCLE
8
BLACK
10
-1.3218503937007873
20
3.0669291338582676
40
0.0068897637795276
0
CIRCLE
8
BLACK
10
-1.2218503937007874
20
3.0669291338582676
40
0.0068897637795276
0
CIRCLE
8
BLACK
10
-1.3218503937007873
20
2.9669291338582675
40
0.0068897637795276
0
CIRCLE
8
BLACK
10
-1.2218503937007874
20
2.9669291338582675
40
0.0068897637795276
0
CIRCLE
8
BLACK
10
-1.3218503937007873
20
2.8669291338582679
40
0.0068897637795276
0
CIRCLE
8
BLACK
10
-1.2218503937007874
20
2.8669291338582679
40
0.0068897637795276
0
CIRCLE
8
BLACK
10
-1.3218503937007873
20
2.7669291338582678
40
0.0068897637795276
0
CIRCLE
8
BLACK
10
-1.2218503937007874
20
2.7669291338582678
40
0.0068897637795276
0
CIRCLE
8
BLACK
10
-1.3218503937007873
20
2.6669291338582677
40
0.0068897637795276
0
CIRCLE
8
BLACK
10
-1.2218503937007874
20
2.6669291338582677
40
0.0068897637795276
0
CIRCLE
8
BLACK
10
-1.3218503937007873
20
2.5669291338582676
40
0.0068897637795276
0
CIRCLE
8
BLACK
10
-1.2218503937007874
20
2.5669291338582676
40
0.0068897637795276
0
CIRCLE
8
BLACK
10
-0.2013453543307087
20
3.8425196850393699
40
0.0068897637795276
0
CIRCLE
8
BLACK
10
-0.1013453543307087
20
3.8425196850393699
40
0.0068897637795276
0
CIRCLE
8
BLACK
10
-0.2013453543307087
20
3.5433070866141732
40
0.0068897637795276
0
CIRCLE
8
BLACK
10
-0.1013453543307087
20
3.5433070866141732
40
0.0068897637795276
0
CIRCLE
8
BLACK
10
0.7125984251968503
20
1.7637795275590551
40
0.0068897637795276
0
CIRCLE
8
BLACK
10
0.7125984251968503
20
1.8637796062992125
40
0.0068897637795276
0
CIRCLE
8
BLACK
10
0.84251968503937
20
1.7637795275590551
40
0.0068897637795276
0
CIRCLE
8
BLACK
10
0.84251968503937
20
1.8637795275590552
40
0.0068897637795276
0
CIRCLE
8
BLACK
10
0.84251968503937
20
1.9637794881889763
40
0.0068897637795276
0
CIRCLE
8
BLACK
10
-1.6112204724409449
20
0.5039370078740157
40
0.0068897637795276
0
CIRCLE
8
BLACK
10
1.6348425196850394
20
3.4704724409448819
40
0.0068897637795276
0
CIRCLE
8
BLACK
10
1.6348425196850394
20
0.7106299212598425
40
0.0068897637795276
0
CIRCLE
8
BLACK
10
-0.4808729133858268
20
3.9433070866141731
40
0.0068897637795276
0
CIRCLE
8
BLACK
10
-0.3808729133858267
20
3.9433070866141731
40
0.0068897637795276
0
CIRCLE
8
BLACK
10
-0.4808729133858268
20
3.843307086614173
40
0.0068897637795276
0
CIRCLE
8
BLACK
10
-0.3808729133858267
20
3.843307086614173
40
0.0068897637795276
0
CIRCLE
8
BLACK
10
-0.4808729133858268
20
3.7433070866141733
40
0.0068897637795276
0
CIRCLE
8
BLACK
10
-0.3808729133858267
20
3.7433070866141733
40
0.0068897637795276
0
CIRCLE
8
BLACK
10
-0.4808729133858268
20
3.6433070866141732
40
0.0068897637795276
0
CIRCLE
8
BLACK
10
-0.3808729133858267
20
3.6433070866141732
40
0.0068897637795276
0
CIRCLE
8
BLACK
10
-0.4808729133858268
20
3.5433070866141732
40
0.0068897637795276
0
CIRCLE
8
BLACK
10
-0.3808729133858267
20
3.5433070866141732
40
0.0068897637795276
0
CIRCLE
8
BLACK
10
0.937007874015748
20
4.6023622047244093
40
0.0068897637795276
0
CIRCLE
8
BLACK
10
0.937007874015748
20
4.5023622047244096
40
0.0068897637795276
0
CIRCLE
8
BLACK
10
0.8370078740157481
20
4.6023622047244093
40
0.0068897637795276
0
CIRCLE
8
BLACK
10
0.8370078740157481
20
4.5023622047244096
40
0.0068897637795276
0
CIRCLE
8
BLACK
10
0.7370079133858267
20
4.6023622047244093
40
0.0068897637795276
0
CIRCLE
8
BLACK
10
0.737007874015748
20
4.5023622047244096
40
0.0068897637795276
0
CIRCLE
8
BLACK
10
0.637007874015748
20
4.6023622047244093
40
0.0068897637795276
0
CIRCLE
8
BLACK
10
0.637007874015748
20
4.5023622047244096
40
0.0068897637795276
0
CIRCLE
8
BLACK
10
0.537007874015748
20
4.6023622047244093
40
0.0068897637795276
0
CIRCLE
8
BLACK
10
0.537007874015748
20
4.5023622047244096
40
0.0068897637795276
0
CIRCLE
8
BLACK
10
-1.1299212598425197
20
0.9409448818897638
40
0.0068897637795276
0
CIRCLE
8
BLACK
10
-0.7172244094488189
20
0.5354330708661417
40
0.0068897637795276
0
CIRCLE
8
BLACK
10
-0.7172244094488189
20
0.735433031496063
40
0.0068897637795276
0
CIRCLE
8
BLACK
10
0.0827755905511811
20
0.2354330708661417
40
0.0068897637795276
0
CIRCLE
8
BLACK
10
0.0827755905511811
20
0.6354330708661418
40
0.0068897637795276
0
CIRCLE
8
BLACK
10
0.0827755905511811
20
1.0354330708661417
40
0.0068897637795276
0
CIRCLE
8
BLACK
10
-0.7172244094488189
20
1.0354330708661417
40
0.0068897637795276
0
CIRCLE
8
BLACK
10
-0.7125984251968503
20
4.5078740157480315
40
0.0068897637795276
0
LINE
8
BLACK
6
CONTINUOUS
10
-1.1479330708661417
20
0.5236220472440944
11
-1.0691929133858267
21
0.5236220472440944
0
ARC
8
BLACK
10
-1.0691929133858267
20
0.5433070866141733
40
0.0196850393700787
50
-90.00000000
51
90.00000000
0
LINE
8
BLACK
6
CONTINUOUS
10
-1.0691929133858267
20
0.562992125984252
11
-1.1479330708661417
21
0.562992125984252
0
ARC
8
BLACK
10
-1.1479330708661417
20
0.5433070866141733
40
0.0196850393700787
50
90.00000000
51
270.00000000
0
LINE
8
BLACK
6
CONTINUOUS
10
-1.1479330708661417
20
0.2874015748031496
11
-1.0691929133858267
21
0.2874015748031496
0
ARC
8
BLACK
10
-1.0691929133858267
20
0.3070866141732284
40
0.0196850393700787
50
-90.00000000
51
90.00000000
0
LINE
8
BLACK
6
CONTINUOUS
10
-1.0691929133858267
20
0.3267716535433071
11
-1.1479330708661417
21
0.3267716535433071
0
ARC
8
BLACK
10
-1.1479330708661417
20
0.3070866141732284
40
0.0196850393700787
50
90.00000000
51
270.00000000
0
LINE
8
BLACK
6
CONTINUOUS
10
-1.2739173228346456
20
0.3858267716535433
11
-1.2739173228346456
21
0.4645669291338583
0
ARC
8
BLACK
10
-1.2936023622047244
20
0.4645669291338583
40
0.0196850393700787
50
0.00000000
51
180.00000000
0
LINE
8
BLACK
6
CONTINUOUS
10
-1.3132874015748031
20
0.4645669291338583
11
-1.3132874015748031
21
0.3858267716535433
0
ARC
8
BLACK
10
-1.2936023622047244
20
0.3858267716535433
40
0.0196850393700787
50
180.00000000
51
360.00000000
  0
ENDSEC
  0
EOF
