  0
SECTION
  2
HEADER
  9
$ACADVER
  1
AC1018
  9
$HANDSEED
  5
FFFFFFFF
  9
$ANGBASE
  50
0.0
  9
$ANGDIR
  70
1
  9
$MEASUREMENT
  70
0
  9
$INSUNITS
  70
1
  0
ENDSEC
  0
SECTION
  2
TABLES
  0
TABLE
  2
APPID
  5
1
330
0
100
AcDbSymbolTable
 70
1
  0
APPID
  5
2
330
1
100
AcDbSymbolTableRecord
100
AcDbRegAppTableRecord
  2
ACAD
 70
0
  0
ENDTAB
  0
TABLE
  2
LTYPE
  5
3
330
0
100
AcDbSymbolTable
 70
6
  0
LTYPE
  5
4
330
3
100
AcDbSymbolTableRecord
100
AcDbLinetypeTableRecord
  2
ByBlock
 70
0
  3

 72
65
 73
0
 40
0
  0
LTYPE
  5
5
330
3
100
AcDbSymbolTableRecord
100
AcDbLinetypeTableRecord
  2
ByLayer
 70
0
  3

 72
65
 73
0
 40
0
  0
LTYPE
  5
6
330
3
100
AcDbSymbolTableRecord
100
AcDbLinetypeTableRecord
  2
CONTINUOUS
 70
0
  3
Solid line
 72
65
 73
0
 40
0
  0
LTYPE
  5
7
330
3
100
AcDbSymbolTableRecord
100
AcDbLinetypeTableRecord
  2
DASHDOT
 70
0
  3
Dash Dot ____ _ ____ _
 72
65
 73
4
 40
2
 49
1.25
 74
0
 49
-0.25
 74
0
 49
0.25
 74
0
 49
-0.25
 74
0
  0
LTYPE
  5
8
330
3
100
AcDbSymbolTableRecord
100
AcDbLinetypeTableRecord
  2
DASHED
 70
0
  3
Dashed __ __ __ __ __
 72
65
 73
2
 40
0.75
 49
0.5
 74
0
 49
-0.25
 74
0
  0
LTYPE
  5
9
330
3
100
AcDbSymbolTableRecord
100
AcDbLinetypeTableRecord
  2
DOTTED
 70
0
  3
Dotted .  .  .  .
 72
65
 73
2
 40
0.2
 49
0.0
 74
0
 49
-0.2
 74
0
  0
ENDTAB
  0
TABLE
  2
STYLE
  5
A
330
0
100
AcDbSymbolTable
 70
4
  0
STYLE
  5
B
330
A
100
AcDbSymbolTableRecord
100
AcDbTextStyleTableRecord
  2
KICAD
 70
0
 40
0
 41
1
 42
1
 50
0
 71
0
  3
isocp.shx
  0
STYLE
  5
C
330
A
100
AcDbSymbolTableRecord
100
AcDbTextStyleTableRecord
  2
KICADB
 70
0
 40
0
 41
1
 42
1
 50
0
 71
0
  3
isocp.shx
  0
STYLE
  5
D
330
A
100
AcDbSymbolTableRecord
100
AcDbTextStyleTableRecord
  2
KICADI
 70
0
 40
0
 41
1
 42
1
 50
15
 71
0
  3
isocp.shx
  0
STYLE
  5
E
330
A
100
AcDbSymbolTableRecord
100
AcDbTextStyleTableRecord
  2
KICADBI
 70
0
 40
0
 41
1
 42
1
 50
15
 71
0
  3
isocp.shx
  0
ENDTAB
  0
TABLE
  2
LAYER
  5
F
330
0
100
AcDbSymbolTable
 70
2
  0
LAYER
  5
12
330
F
100
AcDbSymbolTableRecord
100
AcDbLayerTableRecord
  2
0
 70
0
 62
7
  6
CONTINUOUS
390
10
  0
LAYER
  5
13
330
F
100
AcDbSymbolTableRecord
100
AcDbLayerTableRecord
  2
BLACK
 70
0
 62
250
  6
CONTINUOUS
390
10
  0
ENDTAB
  0
TABLE
  2
VPORT
  5
14
330
0
100
AcDbSymbolTable
 70
0
  0
ENDTAB
  0
TABLE
  2
VIEW
  5
15
330
0
100
AcDbSymbolTable
 70
0
  0
ENDTAB
  0
TABLE
  2
UCS
  5
16
330
0
100
AcDbSymbolTable
 70
0
  0
ENDTAB
  0
TABLE
  2
DIMSTYLE
  5
17
330
0
100
AcDbSymbolTable
 70
1
100
AcDbDimStyleTable
 71
0
  0
DIMSTYLE
105
18
330
17
100
AcDbSymbolTableRecord
100
AcDbDimStyleTableRecord
  2
Standard
 70
0
  0
ENDTAB
  0
TABLE
  2
BLOCK_RECORD
  5
19
330
0
100
AcDbSymbolTable
 70
3
  0
BLOCK_RECORD
  5
1A
330
19
100
AcDbSymbolTableRecord
100
AcDbBlockTableRecord
  2
*Model_Space
340
1D
 70
0
280
1
281
0
  0
BLOCK_RECORD
  5
1B
330
19
100
AcDbSymbolTableRecord
100
AcDbBlockTableRecord
  2
*Paper_Space
340
1E
 70
0
280
1
281
0
  0
BLOCK_RECORD
  5
1C
330
19
100
AcDbSymbolTableRecord
100
AcDbBlockTableRecord
  2
*Paper_Space0
340
1F
 70
0
280
1
281
0
  0
ENDTAB
  0
ENDSEC
  0
SECTION
  2
BLOCKS
  0
BLOCK
  5
23
330
1A
100
AcDbEntity
  8
0
100
AcDbBlockBegin
  2
*Model_Space
 70
0
 10
0.0
 20
0.0
 30
0.0
  3
*Model_Space
  1

  0
ENDBLK
  5
22
330
1A
100
AcDbEntity
  8
0
100
AcDbBlockEnd
  0
BLOCK
  5
25
330
1B
100
AcDbEntity
 67
1
  8
0
100
AcDbBlockBegin
  2
*Paper_Space
 70
0
 10
0.0
 20
0.0
 30
0.0
  3
*Paper_Space
  1

  0
ENDBLK
  5
24
330
1B
100
AcDbEntity
 67
1
  8
0
100
AcDbBlockEnd
  0
BLOCK
  5
27
330
1C
100
AcDbEntity
 67
1
  8
0
100
AcDbBlockBegin
  2
*Paper_Space0
 70
0
 10
0.0
 20
0.0
 30
0.0
  3
*Paper_Space0
  1

  0
ENDBLK
  5
26
330
1C
100
AcDbEntity
 67
1
  8
0
100
AcDbBlockEnd
  0
ENDSEC
  0
SECTION
  2
ENTITIES
  0
CIRCLE
  5
28
330
1A
100
AcDbEntity
  8
BLACK
100
AcDbCircle
 10
-0.2013453543307087
 20
3.6417322834645667
 30
0
 40
0.0068897637795276
  0
CIRCLE
  5
29
330
1A
100
AcDbEntity
  8
BLACK
100
AcDbCircle
 10
-0.1013453543307087
 20
3.6417322834645667
 30
0
 40
0.0068897637795276
  0
CIRCLE
  5
2A
330
1A
100
AcDbEntity
  8
BLACK
100
AcDbCircle
 10
-1.1299212598425197
 20
0.7874015748031495
 30
0
 40
0.0068897637795276
  0
CIRCLE
  5
2B
330
1A
100
AcDbEntity
  8
BLACK
100
AcDbCircle
 10
0.5364499212598425
 20
3.2165354330708662
 30
0
 40
0.0068897637795276
  0
CIRCLE
  5
2C
330
1A
100
AcDbEntity
  8
BLACK
100
AcDbCircle
 10
0.3986546456692913
 20
3.2165354330708662
 30
0
 40
0.0068897637795276
  0
CIRCLE
  5
2D
330
1A
100
AcDbEntity
  8
BLACK
100
AcDbCircle
 10
1.0055118110236221
 20
0.2188976377952756
 30
0
 40
0.0068897637795276
  0
CIRCLE
  5
2E
330
1A
100
AcDbEntity
  8
BLACK
100
AcDbCircle
 10
0.5055118110236221
 20
0.2188976377952756
 30
0
 40
0.0068897637795276
  0
CIRCLE
  5
2F
330
1A
100
AcDbEntity
  8
BLACK
100
AcDbCircle
 10
0.8956692913385826
 20
0.3188976377952756
 30
0
 40
0.0068897637795276
  0
CIRCLE
  5
30
330
1A
100
AcDbEntity
  8
BLACK
100
AcDbCircle
 10
0.8556692913385826
 20
0.3889764173228346
 30
0
 40
0.0068897637795276
  0
CIRCLE
  5
31
330
1A
100
AcDbEntity
  8
BLACK
100
AcDbCircle
 10
0.8156692913385827
 20
0.3188976377952756
 30
0
 40
0.0068897637795276
  0
CIRCLE
  5
32
330
1A
100
AcDbEntity
  8
BLACK
100
AcDbCircle
 10
0.7756692913385826
 20
0.3889764173228346
 30
0
 40
0.0068897637795276
  0
CIRCLE
  5
33
330
1A
100
AcDbEntity
  8
BLACK
100
AcDbCircle
 10
0.7356692913385826
 20
0.3188976377952756
 30
0
 40
0.0068897637795276
  0
CIRCLE
  5
34
330
1A
100
AcDbEntity
  8
BLACK
100
AcDbCircle
 10
0.6956692913385827
 20
0.3889764173228346
 30
0
 40
0.0068897637795276
  0
CIRCLE
  5
35
330
1A
100
AcDbEntity
  8
BLACK
100
AcDbCircle
 10
0.6556692913385826
 20
0.3188976377952756
 30
0
 40
0.0068897637795276
  0
CIRCLE
  5
36
330
1A
100
AcDbEntity
  8
BLACK
100
AcDbCircle
 10
0.6156693307086614
 20
0.3889763779527559
 30
0
 40
0.0068897637795276
  0
CIRCLE
  5
37
330
1A
100
AcDbEntity
  8
BLACK
100
AcDbCircle
 10
1.0255905511811023
 20
0.5787401574803149
 30
0
 40
0.0068897637795276
  0
CIRCLE
  5
38
330
1A
100
AcDbEntity
  8
BLACK
100
AcDbCircle
 10
0.9354330708661417
 20
0.5787401574803149
 30
0
 40
0.0068897637795276
  0
CIRCLE
  5
39
330
1A
100
AcDbEntity
  8
BLACK
100
AcDbCircle
 10
0.5755905511811024
 20
0.5787401574803149
 30
0
 40
0.0068897637795276
  0
CIRCLE
  5
3A
330
1A
100
AcDbEntity
  8
BLACK
100
AcDbCircle
 10
0.4854330708661417
 20
0.5787401574803149
 30
0
 40
0.0068897637795276
  0
CIRCLE
  5
3B
330
1A
100
AcDbEntity
  8
BLACK
100
AcDbCircle
 10
1.0755905511811024
 20
0.3539370078740157
 30
0
 40
0.0068897637795276
  0
CIRCLE
  5
3C
330
1A
100
AcDbEntity
  8
BLACK
100
AcDbCircle
 10
0.4354330708661417
 20
0.3539370078740157
 30
0
 40
0.0068897637795276
  0
CIRCLE
  5
3D
330
1A
100
AcDbEntity
  8
BLACK
100
AcDbCircle
 10
-0.2013453543307087
 20
3.9448818897637796
 30
0
 40
0.0068897637795276
  0
CIRCLE
  5
3E
330
1A
100
AcDbEntity
  8
BLACK
100
AcDbCircle
 10
-0.1013453543307087
 20
3.9448818897637796
 30
0
 40
0.0068897637795276
  0
CIRCLE
  5
3F
330
1A
100
AcDbEntity
  8
BLACK
100
AcDbCircle
 10
-1.3218503937007873
 20
4.466929133858268
 30
0
 40
0.0068897637795276
  0
CIRCLE
  5
40
330
1A
100
AcDbEntity
  8
BLACK
100
AcDbCircle
 10
-1.2218503937007874
 20
4.466929133858268
 30
0
 40
0.0068897637795276
  0
CIRCLE
  5
41
330
1A
100
AcDbEntity
  8
BLACK
100
AcDbCircle
 10
-1.3218503937007873
 20
4.3669291338582674
 30
0
 40
0.0068897637795276
  0
CIRCLE
  5
42
330
1A
100
AcDbEntity
  8
BLACK
100
AcDbCircle
 10
-1.2218503937007874
 20
4.3669291338582674
 30
0
 40
0.0068897637795276
  0
CIRCLE
  5
43
330
1A
100
AcDbEntity
  8
BLACK
100
AcDbCircle
 10
-1.3218503937007873
 20
4.2669291338582678
 30
0
 40
0.0068897637795276
  0
CIRCLE
  5
44
330
1A
100
AcDbEntity
  8
BLACK
100
AcDbCircle
 10
-1.2218503937007874
 20
4.2669291338582678
 30
0
 40
0.0068897637795276
  0
CIRCLE
  5
45
330
1A
100
AcDbEntity
  8
BLACK
100
AcDbCircle
 10
-1.3218503937007873
 20
4.1669291338582672
 30
0
 40
0.0068897637795276
  0
CIRCLE
  5
46
330
1A
100
AcDbEntity
  8
BLACK
100
AcDbCircle
 10
-1.2218503937007874
 20
4.1669291338582672
 30
0
 40
0.0068897637795276
  0
CIRCLE
  5
47
330
1A
100
AcDbEntity
  8
BLACK
100
AcDbCircle
 10
-1.3218503937007873
 20
4.0669291338582676
 30
0
 40
0.0068897637795276
  0
CIRCLE
  5
48
330
1A
100
AcDbEntity
  8
BLACK
100
AcDbCircle
 10
-1.2218503937007874
 20
4.0669291338582676
 30
0
 40
0.0068897637795276
  0
CIRCLE
  5
49
330
1A
100
AcDbEntity
  8
BLACK
100
AcDbCircle
 10
-1.3218503937007873
 20
3.9669291338582675
 30
0
 40
0.0068897637795276
  0
CIRCLE
  5
4A
330
1A
100
AcDbEntity
  8
BLACK
100
AcDbCircle
 10
-1.2218503937007874
 20
3.9669291338582675
 30
0
 40
0.0068897637795276
  0
CIRCLE
  5
4B
330
1A
100
AcDbEntity
  8
BLACK
100
AcDbCircle
 10
-1.3218503937007873
 20
3.8669291338582674
 30
0
 40
0.0068897637795276
  0
CIRCLE
  5
4C
330
1A
100
AcDbEntity
  8
BLACK
100
AcDbCircle
 10
-1.2218503937007874
 20
3.8669291338582674
 30
0
 40
0.0068897637795276
  0
CIRCLE
  5
4D
330
1A
100
AcDbEntity
  8
BLACK
100
AcDbCircle
 10
-1.3218503937007873
 20
3.7669291338582678
 30
0
 40
0.0068897637795276
  0
CIRCLE
  5
4E
330
1A
100
AcDbEntity
  8
BLACK
100
AcDbCircle
 10
-1.2218503937007874
 20
3.7669291338582678
 30
0
 40
0.0068897637795276
  0
CIRCLE
  5
4F
330
1A
100
AcDbEntity
  8
BLACK
100
AcDbCircle
 10
-1.3218503937007873
 20
3.6669291338582677
 30
0
 40
0.0068897637795276
  0
CIRCLE
  5
50
330
1A
100
AcDbEntity
  8
BLACK
100
AcDbCircle
 10
-1.2218503937007874
 20
3.6669291338582677
 30
0
 40
0.0068897637795276
  0
CIRCLE
  5
51
330
1A
100
AcDbEntity
  8
BLACK
100
AcDbCircle
 10
-1.3218503937007873
 20
3.5669291338582676
 30
0
 40
0.0068897637795276
  0
CIRCLE
  5
52
330
1A
100
AcDbEntity
  8
BLACK
100
AcDbCircle
 10
-1.2218503937007874
 20
3.5669291338582676
 30
0
 40
0.0068897637795276
  0
CIRCLE
  5
53
330
1A
100
AcDbEntity
  8
BLACK
100
AcDbCircle
 10
-1.3218503937007873
 20
3.4669291338582675
 30
0
 40
0.0068897637795276
  0
CIRCLE
  5
54
330
1A
100
AcDbEntity
  8
BLACK
100
AcDbCircle
 10
-1.2218503937007874
 20
3.4669291338582675
 30
0
 40
0.0068897637795276
  0
CIRCLE
  5
55
330
1A
100
AcDbEntity
  8
BLACK
100
AcDbCircle
 10
-1.3218503937007873
 20
3.3669291338582674
 30
0
 40
0.0068897637795276
  0
CIRCLE
  5
56
330
1A
100
AcDbEntity
  8
BLACK
100
AcDbCircle
 10
-1.2218503937007874
 20
3.3669291338582674
 30
0
 40
0.0068897637795276
  0
CIRCLE
  5
57
330
1A
100
AcDbEntity
  8
BLACK
100
AcDbCircle
 10
-1.3218503937007873
 20
3.2669291338582678
 30
0
 40
0.0068897637795276
  0
CIRCLE
  5
58
330
1A
100
AcDbEntity
  8
BLACK
100
AcDbCircle
 10
-1.2218503937007874
 20
3.2669291338582678
 30
0
 40
0.0068897637795276
  0
CIRCLE
  5
59
330
1A
100
AcDbEntity
  8
BLACK
100
AcDbCircle
 10
-1.3218503937007873
 20
3.1669291338582677
 30
0
 40
0.0068897637795276
  0
CIRCLE
  5
5A
330
1A
100
AcDbEntity
  8
BLACK
100
AcDbCircle
 10
-1.2218503937007874
 20
3.1669291338582677
 30
0
 40
0.0068897637795276
  0
CIRCLE
  5
5B
330
1A
100
AcDbEntity
  8
BLACK
100
AcDbCircle
 10
-1.3218503937007873
 20
3.0669291338582676
 30
0
 40
0.0068897637795276
  0
CIRCLE
  5
5C
330
1A
100
AcDbEntity
  8
BLACK
100
AcDbCircle
 10
-1.2218503937007874
 20
3.0669291338582676
 30
0
 40
0.0068897637795276
  0
CIRCLE
  5
5D
330
1A
100
AcDbEntity
  8
BLACK
100
AcDbCircle
 10
-1.3218503937007873
 20
2.9669291338582675
 30
0
 40
0.0068897637795276
  0
CIRCLE
  5
5E
330
1A
100
AcDbEntity
  8
BLACK
100
AcDbCircle
 10
-1.2218503937007874
 20
2.9669291338582675
 30
0
 40
0.0068897637795276
  0
CIRCLE
  5
5F
330
1A
100
AcDbEntity
  8
BLACK
100
AcDbCircle
 10
-1.3218503937007873
 20
2.8669291338582679
 30
0
 40
0.0068897637795276
  0
CIRCLE
  5
60
330
1A
100
AcDbEntity
  8
BLACK
100
AcDbCircle
 10
-1.2218503937007874
 20
2.8669291338582679
 30
0
 40
0.0068897637795276
  0
CIRCLE
  5
61
330
1A
100
AcDbEntity
  8
BLACK
100
AcDbCircle
 10
-1.3218503937007873
 20
2.7669291338582678
 30
0
 40
0.0068897637795276
  0
CIRCLE
  5
62
330
1A
100
AcDbEntity
  8
BLACK
100
AcDbCircle
 10
-1.2218503937007874
 20
2.7669291338582678
 30
0
 40
0.0068897637795276
  0
CIRCLE
  5
63
330
1A
100
AcDbEntity
  8
BLACK
100
AcDbCircle
 10
-1.3218503937007873
 20
2.6669291338582677
 30
0
 40
0.0068897637795276
  0
CIRCLE
  5
64
330
1A
100
AcDbEntity
  8
BLACK
100
AcDbCircle
 10
-1.2218503937007874
 20
2.6669291338582677
 30
0
 40
0.0068897637795276
  0
CIRCLE
  5
65
330
1A
100
AcDbEntity
  8
BLACK
100
AcDbCircle
 10
-1.3218503937007873
 20
2.5669291338582676
 30
0
 40
0.0068897637795276
  0
CIRCLE
  5
66
330
1A
100
AcDbEntity
  8
BLACK
100
AcDbCircle
 10
-1.2218503937007874
 20
2.5669291338582676
 30
0
 40
0.0068897637795276
  0
CIRCLE
  5
67
330
1A
100
AcDbEntity
  8
BLACK
100
AcDbCircle
 10
-0.2013453543307087
 20
3.8425196850393699
 30
0
 40
0.0068897637795276
  0
CIRCLE
  5
68
330
1A
100
AcDbEntity
  8
BLACK
100
AcDbCircle
 10
-0.1013453543307087
 20
3.8425196850393699
 30
0
 40
0.0068897637795276
  0
CIRCLE
  5
69
330
1A
100
AcDbEntity
  8
BLACK
100
AcDbCircle
 10
-0.2013453543307087
 20
3.5433070866141732
 30
0
 40
0.0068897637795276
  0
CIRCLE
  5
6A
330
1A
100
AcDbEntity
  8
BLACK
100
AcDbCircle
 10
-0.1013453543307087
 20
3.5433070866141732
 30
0
 40
0.0068897637795276
  0
CIRCLE
  5
6B
330
1A
100
AcDbEntity
  8
BLACK
100
AcDbCircle
 10
0.7125984251968503
 20
1.7637795275590551
 30
0
 40
0.0068897637795276
  0
CIRCLE
  5
6C
330
1A
100
AcDbEntity
  8
BLACK
100
AcDbCircle
 10
0.7125984251968503
 20
1.8637796062992125
 30
0
 40
0.0068897637795276
  0
CIRCLE
  5
6D
330
1A
100
AcDbEntity
  8
BLACK
100
AcDbCircle
 10
0.84251968503937
 20
1.7637795275590551
 30
0
 40
0.0068897637795276
  0
CIRCLE
  5
6E
330
1A
100
AcDbEntity
  8
BLACK
100
AcDbCircle
 10
0.84251968503937
 20
1.8637795275590552
 30
0
 40
0.0068897637795276
  0
CIRCLE
  5
6F
330
1A
100
AcDbEntity
  8
BLACK
100
AcDbCircle
 10
0.84251968503937
 20
1.9637794881889763
 30
0
 40
0.0068897637795276
  0
CIRCLE
  5
70
330
1A
100
AcDbEntity
  8
BLACK
100
AcDbCircle
 10
-1.6112204724409449
 20
0.5039370078740157
 30
0
 40
0.0068897637795276
  0
CIRCLE
  5
71
330
1A
100
AcDbEntity
  8
BLACK
100
AcDbCircle
 10
1.6348425196850394
 20
3.4704724409448819
 30
0
 40
0.0068897637795276
  0
CIRCLE
  5
72
330
1A
100
AcDbEntity
  8
BLACK
100
AcDbCircle
 10
1.6348425196850394
 20
0.7106299212598425
 30
0
 40
0.0068897637795276
  0
CIRCLE
  5
73
330
1A
100
AcDbEntity
  8
BLACK
100
AcDbCircle
 10
-0.4808729133858268
 20
3.9433070866141731
 30
0
 40
0.0068897637795276
  0
CIRCLE
  5
74
330
1A
100
AcDbEntity
  8
BLACK
100
AcDbCircle
 10
-0.3808729133858267
 20
3.9433070866141731
 30
0
 40
0.0068897637795276
  0
CIRCLE
  5
75
330
1A
100
AcDbEntity
  8
BLACK
100
AcDbCircle
 10
-0.4808729133858268
 20
3.843307086614173
 30
0
 40
0.0068897637795276
  0
CIRCLE
  5
76
330
1A
100
AcDbEntity
  8
BLACK
100
AcDbCircle
 10
-0.3808729133858267
 20
3.843307086614173
 30
0
 40
0.0068897637795276
  0
CIRCLE
  5
77
330
1A
100
AcDbEntity
  8
BLACK
100
AcDbCircle
 10
-0.4808729133858268
 20
3.7433070866141733
 30
0
 40
0.0068897637795276
  0
CIRCLE
  5
78
330
1A
100
AcDbEntity
  8
BLACK
100
AcDbCircle
 10
-0.3808729133858267
 20
3.7433070866141733
 30
0
 40
0.0068897637795276
  0
CIRCLE
  5
79
330
1A
100
AcDbEntity
  8
BLACK
100
AcDbCircle
 10
-0.4808729133858268
 20
3.6433070866141732
 30
0
 40
0.0068897637795276
  0
CIRCLE
  5
7A
330
1A
100
AcDbEntity
  8
BLACK
100
AcDbCircle
 10
-0.3808729133858267
 20
3.6433070866141732
 30
0
 40
0.0068897637795276
  0
CIRCLE
  5
7B
330
1A
100
AcDbEntity
  8
BLACK
100
AcDbCircle
 10
-0.4808729133858268
 20
3.5433070866141732
 30
0
 40
0.0068897637795276
  0
CIRCLE
  5
7C
330
1A
100
AcDbEntity
  8
BLACK
100
AcDbCircle
 10
-0.3808729133858267
 20
3.5433070866141732
 30
0
 40
0.0068897637795276
  0
CIRCLE
  5
7D
330
1A
100
AcDbEntity
  8
BLACK
100
AcDbCircle
 10
0.937007874015748
 20
4.6023622047244093
 30
0
 40
0.0068897637795276
  0
CIRCLE
  5
7E
330
1A
100
AcDbEntity
  8
BLACK
100
AcDbCircle
 10
0.937007874015748
 20
4.5023622047244096
 30
0
 40
0.0068897637795276
  0
CIRCLE
  5
7F
330
1A
100
AcDbEntity
  8
BLACK
100
AcDbCircle
 10
0.8370078740157481
 20
4.6023622047244093
 30
0
 40
0.0068897637795276
  0
CIRCLE
  5
80
330
1A
100
AcDbEntity
  8
BLACK
100
AcDbCircle
 10
0.8370078740157481
 20
4.5023622047244096
 30
0
 40
0.0068897637795276
  0
CIRCLE
  5
81
330
1A
100
AcDbEntity
  8
BLACK
100
AcDbCircle
 10
0.7370079133858267
 20
4.6023622047244093
 30
0
 40
0.0068897637795276
  0
CIRCLE
  5
82
330
1A
100
AcDbEntity
  8
BLACK
100
AcDbCircle
 10
0.737007874015748
 20
4.5023622047244096
 30
0
 40
0.0068897637795276
  0
CIRCLE
  5
83
330
1A
100
AcDbEntity
  8
BLACK
100
AcDbCircle
 10
0.637007874015748
 20
4.6023622047244093
 30
0
 40
0.0068897637795276
  0
CIRCLE
  5
84
330
1A
100
AcDbEntity
  8
BLACK
100
AcDbCircle
 10
0.637007874015748
 20
4.5023622047244096
 30
0
 40
0.0068897637795276
  0
CIRCLE
  5
85
330
1A
100
AcDbEntity
  8
BLACK
100
AcDbCircle
 10
0.537007874015748
 20
4.6023622047244093
 30
0
 40
0.0068897637795276
  0
CIRCLE
  5
86
330
1A
100
AcDbEntity
  8
BLACK
100
AcDbCircle
 10
0.537007874015748
 20
4.5023622047244096
 30
0
 40
0.0068897637795276
  0
CIRCLE
  5
87
330
1A
100
AcDbEntity
  8
BLACK
100
AcDbCircle
 10
-1.1299212598425197
 20
0.9409448818897638
 30
0
 40
0.0068897637795276
  0
CIRCLE
  5
88
330
1A
100
AcDbEntity
  8
BLACK
100
AcDbCircle
 10
-0.7172244094488189
 20
0.5354330708661417
 30
0
 40
0.0068897637795276
  0
CIRCLE
  5
89
330
1A
100
AcDbEntity
  8
BLACK
100
AcDbCircle
 10
-0.7172244094488189
 20
0.735433031496063
 30
0
 40
0.0068897637795276
  0
CIRCLE
  5
8A
330
1A
100
AcDbEntity
  8
BLACK
100
AcDbCircle
 10
0.0827755905511811
 20
0.2354330708661417
 30
0
 40
0.0068897637795276
  0
CIRCLE
  5
8B
330
1A
100
AcDbEntity
  8
BLACK
100
AcDbCircle
 10
0.0827755905511811
 20
0.6354330708661418
 30
0
 40
0.0068897637795276
  0
CIRCLE
  5
8C
330
1A
100
AcDbEntity
  8
BLACK
100
AcDbCircle
 10
0.0827755905511811
 20
1.0354330708661417
 30
0
 40
0.0068897637795276
  0
CIRCLE
  5
8D
330
1A
100
AcDbEntity
  8
BLACK
100
AcDbCircle
 10
-0.7172244094488189
 20
1.0354330708661417
 30
0
 40
0.0068897637795276
  0
CIRCLE
  5
8E
330
1A
100
AcDbEntity
  8
BLACK
100
AcDbCircle
 10
-0.7125984251968503
 20
4.5078740157480315
 30
0
 40
0.0068897637795276
  0
ARC
  5
8F
330
1A
100
AcDbEntity
  8
BLACK
100
AcDbCircle
 10
-1.1085629921259843
 20
0.5433070866141733
 30
0
 40
0.0688976377952756
100
AcDbArc
 50
-90.00000000
 51
90.00000000
  0
ARC
  5
90
330
1A
100
AcDbEntity
  8
BLACK
100
AcDbCircle
 10
-1.1085629921259843
 20
0.5433070866141733
 30
0
 40
0.0688976377952756
100
AcDbArc
 50
90.00000000
 51
270.00000000
  0
LINE
  5
91
330
1A
100
AcDbEntity
  8
BLACK
  6
CONTINUOUS
100
AcDbLine
 10
-1.1184055118110237
 20
0.2480314960629921
 30
0
 11
-1.098720472440945
 21
0.2480314960629921
 31
0
  0
ARC
  5
92
330
1A
100
AcDbEntity
  8
BLACK
100
AcDbCircle
 10
-1.098720472440945
 20
0.3070866141732284
 30
0
 40
0.0590551181102362
100
AcDbArc
 50
-90.00000000
 51
90.00000000
  0
LINE
  5
93
330
1A
100
AcDbEntity
  8
BLACK
  6
CONTINUOUS
100
AcDbLine
 10
-1.098720472440945
 20
0.3661417322834646
 30
0
 11
-1.1184055118110237
 21
0.3661417322834646
 31
0
  0
ARC
  5
94
330
1A
100
AcDbEntity
  8
BLACK
100
AcDbCircle
 10
-1.1184055118110237
 20
0.3070866141732284
 30
0
 40
0.0590551181102362
100
AcDbArc
 50
90.00000000
 51
270.00000000
  0
ARC
  5
95
330
1A
100
AcDbEntity
  8
BLACK
100
AcDbCircle
 10
-1.2936023622047244
 20
0.4251968503937008
 30
0
 40
0.0688976377952756
100
AcDbArc
 50
-90.00000000
 51
90.00000000
  0
ARC
  5
96
330
1A
100
AcDbEntity
  8
BLACK
100
AcDbCircle
 10
-1.2936023622047244
 20
0.4251968503937008
 30
0
 40
0.0688976377952756
100
AcDbArc
 50
90.00000000
 51
270.00000000
  0
ENDSEC
  0
SECTION
  2
OBJECTS
  0
DICTIONARY
  5
20
330
0
100
AcDbDictionary
281
1
  3
ACAD_GROUP
350
97
  3
ACAD_LAYOUT
350
21
  3
ACAD_PLOTSTYLENAME
350
11
  0
DICTIONARY
  5
97
330
20
100
AcDbDictionary
281
1
  0
ACDBDICTIONARYWDFLT
  5
11
330
20
100
AcDbDictionary
281
1
  3
Normal
350
10
100
AcDbDictionaryWithDefault
340
10
  0
ACDBPLACEHOLDER
  5
10
330
11
  0
DICTIONARY
  5
21
330
20
100
AcDbDictionary
281
1
  3
Model
350
1D
  3
Layout1
350
1E
  3
Layout2
350
1F
  0
LAYOUT
  5
1D
330
21
100
AcDbPlotSettings
  1

  2
none_device
  4
A3
  6

 40
0.0
 41
0.0
 42
0.0
 43
0.0
 44
420.0
 45
297.0
 46
0.0
 47
0.0
 48
0.0
 49
0.0
140
0.0
141
0.0
142
1.0
143
1.0
 70
1024
 72
1
 73
0
 74
5
  7

 75
16
 76
0
 77
2
 78
300
147
1.0
148
0.0
149
0.0
100
AcDbLayout
  1
Model
 70
1
 71
0
 10
0.0
 20
0.0
 11
420.0
 21
297.0
 12
0.0
 22
0.0
 32
0.0
 14
1e+20
 24
1e+20
 34
1e+20
 15
-1e+20
 25
-1e+20
 35
-1e+20
146
0.0
 13
0.0
 23
0.0
 33
0.0
 16
1.0
 26
0.0
 36
0.0
 17
0.0
 27
1.0
 37
0.0
 76
0
330
1A
  0
LAYOUT
  5
1E
330
21
100
AcDbPlotSettings
  1

  2
none_device
  4
A3
  6

 40
0.0
 41
0.0
 42
0.0
 43
0.0
 44
420.0
 45
297.0
 46
0.0
 47
0.0
 48
0.0
 49
0.0
140
0.0
141
0.0
142
1.0
143
1.0
 70
0
 72
1
 73
0
 74
5
  7

 75
16
 76
0
 77
2
 78
300
147
1.0
148
0.0
149
0.0
100
AcDbLayout
  1
Layout1
 70
1
 71
1
 10
0.0
 20
0.0
 11
420.0
 21
297.0
 12
0.0
 22
0.0
 32
0.0
 14
1e+20
 24
1e+20
 34
1e+20
 15
-1e+20
 25
-1e+20
 35
-1e+20
146
0.0
 13
0.0
 23
0.0
 33
0.0
 16
1.0
 26
0.0
 36
0.0
 17
0.0
 27
1.0
 37
0.0
 76
0
330
1B
  0
LAYOUT
  5
1F
330
21
100
AcDbPlotSettings
  1

  2
none_device
  4
A3
  6

 40
0.0
 41
0.0
 42
0.0
 43
0.0
 44
420.0
 45
297.0
 46
0.0
 47
0.0
 48
0.0
 49
0.0
140
0.0
141
0.0
142
1.0
143
1.0
 70
0
 72
1
 73
0
 74
5
  7

 75
16
 76
0
 77
2
 78
300
147
1.0
148
0.0
149
0.0
100
AcDbLayout
  1
Layout2
 70
1
 71
2
 10
0.0
 20
0.0
 11
420.0
 21
297.0
 12
0.0
 22
0.0
 32
0.0
 14
1e+20
 24
1e+20
 34
1e+20
 15
-1e+20
 25
-1e+20
 35
-1e+20
146
0.0
 13
0.0
 23
0.0
 33
0.0
 16
1.0
 26
0.0
 36
0.0
 17
0.0
 27
1.0
 37
0.0
 76
0
330
1C
  0
ENDSEC
  0
EOF
