  0
SECTION
  2
HEADER
  9
$ACADVER
  1
AC1018
  9
$HANDSEED
  5
FFFFFFFF
  9
$ANGBASE
  50
0.0
  9
$ANGDIR
  70
1
  9
$MEASUREMENT
  70
0
  9
$INSUNITS
  70
1
  0
ENDSEC
  0
SECTION
  2
TABLES
  0
TABLE
  2
APPID
  5
1
330
0
100
AcDbSymbolTable
 70
1
  0
APPID
  5
2
330
1
100
AcDbSymbolTableRecord
100
AcDbRegAppTableRecord
  2
ACAD
 70
0
  0
ENDTAB
  0
TABLE
  2
LTYPE
  5
3
330
0
100
AcDbSymbolTable
 70
6
  0
LTYPE
  5
4
330
3
100
AcDbSymbolTableRecord
100
AcDbLinetypeTableRecord
  2
ByBlock
 70
0
  3

 72
65
 73
0
 40
0
  0
LTYPE
  5
5
330
3
100
AcDbSymbolTableRecord
100
AcDbLinetypeTableRecord
  2
ByLayer
 70
0
  3

 72
65
 73
0
 40
0
  0
LTYPE
  5
6
330
3
100
AcDbSymbolTableRecord
100
AcDbLinetypeTableRecord
  2
CONTINUOUS
 70
0
  3
Solid line
 72
65
 73
0
 40
0
  0
LTYPE
  5
7
330
3
100
AcDbSymbolTableRecord
100
AcDbLinetypeTableRecord
  2
DASHDOT
 70
0
  3
Dash Dot ____ _ ____ _
 72
65
 73
4
 40
2
 49
1.25
 74
0
 49
-0.25
 74
0
 49
0.25
 74
0
 49
-0.25
 74
0
  0
LTYPE
  5
8
330
3
100
AcDbSymbolTableRecord
100
AcDbLinetypeTableRecord
  2
DASHED
 70
0
  3
Dashed __ __ __ __ __
 72
65
 73
2
 40
0.75
 49
0.5
 74
0
 49
-0.25
 74
0
  0
LTYPE
  5
9
330
3
100
AcDbSymbolTableRecord
100
AcDbLinetypeTableRecord
  2
DOTTED
 70
0
  3
Dotted .  .  .  .
 72
65
 73
2
 40
0.2
 49
0.0
 74
0
 49
-0.2
 74
0
  0
ENDTAB
  0
TABLE
  2
STYLE
  5
A
330
0
100
AcDbSymbolTable
 70
4
  0
STYLE
  5
B
330
A
100
AcDbSymbolTableRecord
100
AcDbTextStyleTableRecord
  2
KICAD
 70
0
 40
0
 41
1
 42
1
 50
0
 71
0
  3
isocp.shx
  0
STYLE
  5
C
330
A
100
AcDbSymbolTableRecord
100
AcDbTextStyleTableRecord
  2
KICADB
 70
0
 40
0
 41
1
 42
1
 50
0
 71
0
  3
isocp.shx
  0
STYLE
  5
D
330
A
100
AcDbSymbolTableRecord
100
AcDbTextStyleTableRecord
  2
KICADI
 70
0
 40
0
 41
1
 42
1
 50
15
 71
0
  3
isocp.shx
  0
STYLE
  5
E
330
A
100
AcDbSymbolTableRecord
100
AcDbTextStyleTableRecord
  2
KICADBI
 70
0
 40
0
 41
1
 42
1
 50
15
 71
0
  3
isocp.shx
  0
ENDTAB
  0
TABLE
  2
LAYER
  5
F
330
0
100
AcDbSymbolTable
 70
2
  0
LAYER
  5
12
330
F
100
AcDbSymbolTableRecord
100
AcDbLayerTableRecord
  2
0
 70
0
 62
7
  6
CONTINUOUS
390
10
  0
LAYER
  5
13
330
F
100
AcDbSymbolTableRecord
100
AcDbLayerTableRecord
  2
BLACK
 70
0
 62
250
  6
CONTINUOUS
390
10
  0
ENDTAB
  0
TABLE
  2
VPORT
  5
14
330
0
100
AcDbSymbolTable
 70
0
  0
ENDTAB
  0
TABLE
  2
VIEW
  5
15
330
0
100
AcDbSymbolTable
 70
0
  0
ENDTAB
  0
TABLE
  2
UCS
  5
16
330
0
100
AcDbSymbolTable
 70
0
  0
ENDTAB
  0
TABLE
  2
DIMSTYLE
  5
17
330
0
100
AcDbSymbolTable
 70
1
100
AcDbDimStyleTable
 71
0
  0
DIMSTYLE
105
18
330
17
100
AcDbSymbolTableRecord
100
AcDbDimStyleTableRecord
  2
Standard
 70
0
  0
ENDTAB
  0
TABLE
  2
BLOCK_RECORD
  5
19
330
0
100
AcDbSymbolTable
 70
3
  0
BLOCK_RECORD
  5
1A
330
19
100
AcDbSymbolTableRecord
100
AcDbBlockTableRecord
  2
*Model_Space
340
1D
 70
0
280
1
281
0
  0
BLOCK_RECORD
  5
1B
330
19
100
AcDbSymbolTableRecord
100
AcDbBlockTableRecord
  2
*Paper_Space
340
1E
 70
0
280
1
281
0
  0
BLOCK_RECORD
  5
1C
330
19
100
AcDbSymbolTableRecord
100
AcDbBlockTableRecord
  2
*Paper_Space0
340
1F
 70
0
280
1
281
0
  0
ENDTAB
  0
ENDSEC
  0
SECTION
  2
BLOCKS
  0
BLOCK
  5
23
330
1A
100
AcDbEntity
  8
0
100
AcDbBlockBegin
  2
*Model_Space
 70
0
 10
0.0
 20
0.0
 30
0.0
  3
*Model_Space
  1

  0
ENDBLK
  5
22
330
1A
100
AcDbEntity
  8
0
100
AcDbBlockEnd
  0
BLOCK
  5
25
330
1B
100
AcDbEntity
 67
1
  8
0
100
AcDbBlockBegin
  2
*Paper_Space
 70
0
 10
0.0
 20
0.0
 30
0.0
  3
*Paper_Space
  1

  0
ENDBLK
  5
24
330
1B
100
AcDbEntity
 67
1
  8
0
100
AcDbBlockEnd
  0
BLOCK
  5
27
330
1C
100
AcDbEntity
 67
1
  8
0
100
AcDbBlockBegin
  2
*Paper_Space0
 70
0
 10
0.0
 20
0.0
 30
0.0
  3
*Paper_Space0
  1

  0
ENDBLK
  5
26
330
1C
100
AcDbEntity
 67
1
  8
0
100
AcDbBlockEnd
  0
ENDSEC
  0
SECTION
  2
ENTITIES
  0
LINE
  5
28
330
1A
100
AcDbEntity
  8
BLACK
  6
CONTINUOUS
100
AcDbLine
 10
-0.9274606299212598
 20
0.5811023622047244
 30
0
 11
-0.9265566535433071
 21
0.5809225590551181
 31
0
  0
LINE
  5
29
330
1A
100
AcDbEntity
  8
BLACK
  6
CONTINUOUS
100
AcDbLine
 10
-0.9265566535433071
 20
0.5809225590551181
 30
0
 11
-0.9252782283464567
 21
0.5796441338582677
 31
0
  0
LINE
  5
2A
330
1A
100
AcDbEntity
  8
BLACK
  6
CONTINUOUS
100
AcDbLine
 10
-0.9252782283464567
 20
0.5796441338582677
 30
0
 11
-0.9250984251968504
 21
0.5787401574803149
 31
0
  0
LINE
  5
2B
330
1A
100
AcDbEntity
  8
BLACK
  6
CONTINUOUS
100
AcDbLine
 10
-0.9250984251968504
 20
0.5787401574803149
 30
0
 11
-0.9250984251968504
 21
0.
 31
0
  0
LINE
  5
2C
330
1A
100
AcDbEntity
  8
BLACK
  6
CONTINUOUS
100
AcDbLine
 10
-0.9250984251968504
 20
0.
 30
0
 11
-0.9252782283464567
 21
-0.0009039763779528
 31
0
  0
LINE
  5
2D
330
1A
100
AcDbEntity
  8
BLACK
  6
CONTINUOUS
100
AcDbLine
 10
-0.9252782283464567
 20
-0.0009039763779528
 30
0
 11
-0.9265566535433071
 21
-0.0021824015748031
 31
0
  0
LINE
  5
2E
330
1A
100
AcDbEntity
  8
BLACK
  6
CONTINUOUS
100
AcDbLine
 10
-0.9265566535433071
 20
-0.0021824015748031
 30
0
 11
-0.9274606299212598
 21
-0.0023622047244094
 31
0
  0
LINE
  5
2F
330
1A
100
AcDbEntity
  8
BLACK
  6
CONTINUOUS
100
AcDbLine
 10
-0.9274606299212598
 20
-0.0023622047244094
 30
0
 11
-1.2896653543307086
 21
-0.0023622047244094
 31
0
  0
LINE
  5
30
330
1A
100
AcDbEntity
  8
BLACK
  6
CONTINUOUS
100
AcDbLine
 10
-1.2896653543307086
 20
-0.0023622047244094
 30
0
 11
-1.2905693307086614
 21
-0.0021824015748031
 31
0
  0
LINE
  5
31
330
1A
100
AcDbEntity
  8
BLACK
  6
CONTINUOUS
100
AcDbLine
 10
-1.2905693307086614
 20
-0.0021824015748031
 30
0
 11
-1.2918477559055117
 21
-0.0009039763779528
 31
0
  0
LINE
  5
32
330
1A
100
AcDbEntity
  8
BLACK
  6
CONTINUOUS
100
AcDbLine
 10
-1.2918477559055117
 20
-0.0009039763779528
 30
0
 11
-1.292027559055118
 21
0.
 31
0
  0
LINE
  5
33
330
1A
100
AcDbEntity
  8
BLACK
  6
CONTINUOUS
100
AcDbLine
 10
-1.292027559055118
 20
0.
 30
0
 11
-1.292027559055118
 21
0.3464566929133858
 31
0
  0
LINE
  5
34
330
1A
100
AcDbEntity
  8
BLACK
  6
CONTINUOUS
100
AcDbLine
 10
-1.292027559055118
 20
0.3464566929133858
 30
0
 11
-1.2918477559055117
 21
0.3473606692913386
 31
0
  0
LINE
  5
35
330
1A
100
AcDbEntity
  8
BLACK
  6
CONTINUOUS
100
AcDbLine
 10
-1.2918477559055117
 20
0.3473606692913386
 30
0
 11
-1.2905693307086614
 21
0.348639094488189
 31
0
  0
LINE
  5
36
330
1A
100
AcDbEntity
  8
BLACK
  6
CONTINUOUS
100
AcDbLine
 10
-1.2905693307086614
 20
0.348639094488189
 30
0
 11
-1.2887613779527558
 21
0.348639094488189
 31
0
  0
LINE
  5
37
330
1A
100
AcDbEntity
  8
BLACK
  6
CONTINUOUS
100
AcDbLine
 10
-1.2887613779527558
 20
0.348639094488189
 30
0
 11
-1.2874829527559055
 21
0.3473606692913386
 31
0
  0
LINE
  5
38
330
1A
100
AcDbEntity
  8
BLACK
  6
CONTINUOUS
100
AcDbLine
 10
-1.2874829527559055
 20
0.3473606692913386
 30
0
 11
-1.2873031496062992
 21
0.3464566929133858
 31
0
  0
LINE
  5
39
330
1A
100
AcDbEntity
  8
BLACK
  6
CONTINUOUS
100
AcDbLine
 10
-1.2873031496062992
 20
0.3464566929133858
 30
0
 11
-1.2873031496062992
 21
0.0023622047244094
 31
0
  0
LINE
  5
3A
330
1A
100
AcDbEntity
  8
BLACK
  6
CONTINUOUS
100
AcDbLine
 10
-1.2873031496062992
 20
0.0023622047244094
 30
0
 11
-0.9298228346456693
 21
0.0023622047244094
 31
0
  0
LINE
  5
3B
330
1A
100
AcDbEntity
  8
BLACK
  6
CONTINUOUS
100
AcDbLine
 10
-0.9298228346456693
 20
0.0023622047244094
 30
0
 11
-0.9298228346456693
 21
0.5763779921259843
 31
0
  0
LINE
  5
3C
330
1A
100
AcDbEntity
  8
BLACK
  6
CONTINUOUS
100
AcDbLine
 10
-0.9298228346456693
 20
0.5763779921259843
 30
0
 11
-1.0298228346456693
 21
0.5763779921259843
 31
0
  0
LINE
  5
3D
330
1A
100
AcDbEntity
  8
BLACK
  6
CONTINUOUS
100
AcDbLine
 10
-1.0298228346456693
 20
0.5763779921259843
 30
0
 11
-1.0307268110236221
 21
0.5765577952755906
 31
0
  0
LINE
  5
3E
330
1A
100
AcDbEntity
  8
BLACK
  6
CONTINUOUS
100
AcDbLine
 10
-1.0307268110236221
 20
0.5765577952755906
 30
0
 11
-1.0320052362204724
 21
0.577836220472441
 31
0
  0
LINE
  5
3F
330
1A
100
AcDbEntity
  8
BLACK
  6
CONTINUOUS
100
AcDbLine
 10
-1.0320052362204724
 20
0.577836220472441
 30
0
 11
-1.0320052362204724
 21
0.5796441732283465
 31
0
  0
LINE
  5
40
330
1A
100
AcDbEntity
  8
BLACK
  6
CONTINUOUS
100
AcDbLine
 10
-1.0320052362204724
 20
0.5796441732283465
 30
0
 11
-1.0307268110236221
 21
0.5809225984251969
 31
0
  0
LINE
  5
41
330
1A
100
AcDbEntity
  8
BLACK
  6
CONTINUOUS
100
AcDbLine
 10
-1.0307268110236221
 20
0.5809225984251969
 30
0
 11
-1.0298228346456693
 21
0.5811024015748031
 31
0
  0
LINE
  5
42
330
1A
100
AcDbEntity
  8
BLACK
  6
CONTINUOUS
100
AcDbLine
 10
-1.0298228346456693
 20
0.5811024015748031
 30
0
 11
-0.9274606299212598
 21
0.5811023622047244
 31
0
  0
LINE
  5
43
330
1A
100
AcDbEntity
  8
BLACK
  6
CONTINUOUS
100
AcDbLine
 10
-1.318756338582677
 20
0.2098834251968504
 30
0
 11
-1.3186064960629922
 21
0.2091301181102362
 31
0
  0
LINE
  5
44
330
1A
100
AcDbEntity
  8
BLACK
  6
CONTINUOUS
100
AcDbLine
 10
-1.3186064960629922
 20
0.2091301181102362
 30
0
 11
-1.3186064960629922
 21
0.1896325590551181
 31
0
  0
LINE
  5
45
330
1A
100
AcDbEntity
  8
BLACK
  6
CONTINUOUS
100
AcDbLine
 10
-1.3186064960629922
 20
0.1896325590551181
 30
0
 11
-1.318756338582677
 21
0.1888792519685039
 31
0
  0
LINE
  5
46
330
1A
100
AcDbEntity
  8
BLACK
  6
CONTINUOUS
100
AcDbLine
 10
-1.318756338582677
 20
0.1888792519685039
 30
0
 11
-1.3198216929133857
 21
0.1878138976377953
 31
0
  0
LINE
  5
47
330
1A
100
AcDbEntity
  8
BLACK
  6
CONTINUOUS
100
AcDbLine
 10
-1.3198216929133857
 20
0.1878138976377953
 30
0
 11
-1.3213283070866142
 21
0.1878138976377953
 31
0
  0
LINE
  5
48
330
1A
100
AcDbEntity
  8
BLACK
  6
CONTINUOUS
100
AcDbLine
 10
-1.3213283070866142
 20
0.1878138976377953
 30
0
 11
-1.3223936614173228
 21
0.1888792519685039
 31
0
  0
LINE
  5
49
330
1A
100
AcDbEntity
  8
BLACK
  6
CONTINUOUS
100
AcDbLine
 10
-1.3223936614173228
 20
0.1888792519685039
 30
0
 11
-1.3225435039370079
 21
0.1896325590551181
 31
0
  0
LINE
  5
4A
330
1A
100
AcDbEntity
  8
BLACK
  6
CONTINUOUS
100
AcDbLine
 10
-1.3225435039370079
 20
0.1896325590551181
 30
0
 11
-1.3225435039370079
 21
0.2043777559055118
 31
0
  0
LINE
  5
4B
330
1A
100
AcDbEntity
  8
BLACK
  6
CONTINUOUS
100
AcDbLine
 10
-1.3225435039370079
 20
0.2043777559055118
 30
0
 11
-1.3371808267716536
 21
0.1897404330708661
 31
0
  0
LINE
  5
4C
330
1A
100
AcDbEntity
  8
BLACK
  6
CONTINUOUS
100
AcDbLine
 10
-1.3371808267716536
 20
0.1897404330708661
 30
0
 11
-1.3372627952755904
 21
0.1896857086614173
 31
0
  0
LINE
  5
4D
330
1A
100
AcDbEntity
  8
BLACK
  6
CONTINUOUS
100
AcDbLine
 10
-1.3372627952755904
 20
0.1896857086614173
 30
0
 11
-1.3372829921259841
 21
0.1896452362204724
 31
0
  0
LINE
  5
4E
330
1A
100
AcDbEntity
  8
BLACK
  6
CONTINUOUS
100
AcDbLine
 10
-1.3372829921259841
 20
0.1896452362204724
 30
0
 11
-1.3375572440944881
 21
0.189488937007874
 31
0
  0
LINE
  5
4F
330
1A
100
AcDbEntity
  8
BLACK
  6
CONTINUOUS
100
AcDbLine
 10
-1.3375572440944881
 20
0.189488937007874
 30
0
 11
-1.3378194488188977
 21
0.1893137007874016
 31
0
  0
LINE
  5
50
330
1A
100
AcDbEntity
  8
BLACK
  6
CONTINUOUS
100
AcDbLine
 10
-1.3378194488188977
 20
0.1893137007874016
 30
0
 11
-1.3378646456692913
 21
0.1893137007874016
 31
0
  0
LINE
  5
51
330
1A
100
AcDbEntity
  8
BLACK
  6
CONTINUOUS
100
AcDbLine
 10
-1.3378646456692913
 20
0.1893137007874016
 30
0
 11
-1.3379502755905512
 21
0.1892648818897638
 31
0
  0
LINE
  5
52
330
1A
100
AcDbEntity
  8
BLACK
  6
CONTINUOUS
100
AcDbLine
 10
-1.3379502755905512
 20
0.1892648818897638
 30
0
 11
-1.3424497244094489
 21
0.1877650787401575
 31
0
  0
LINE
  5
53
330
1A
100
AcDbEntity
  8
BLACK
  6
CONTINUOUS
100
AcDbLine
 10
-1.3424497244094489
 20
0.1877650787401575
 30
0
 11
-1.3427626771653542
 21
0.1877256299212599
 31
0
  0
LINE
  5
54
330
1A
100
AcDbEntity
  8
BLACK
  6
CONTINUOUS
100
AcDbLine
 10
-1.3427626771653542
 20
0.1877256299212599
 30
0
 11
-1.3430722047244095
 21
0.1876640551181102
 31
0
  0
LINE
  5
55
330
1A
100
AcDbEntity
  8
BLACK
  6
CONTINUOUS
100
AcDbLine
 10
-1.3430722047244095
 20
0.1876640551181102
 30
0
 11
-1.3460718110236221
 21
0.1876640551181102
 31
0
  0
LINE
  5
56
330
1A
100
AcDbEntity
  8
BLACK
  6
CONTINUOUS
100
AcDbLine
 10
-1.3460718110236221
 20
0.1876640551181102
 30
0
 11
-1.3461685433070867
 21
0.1876833070866142
 31
0
  0
LINE
  5
57
330
1A
100
AcDbEntity
  8
BLACK
  6
CONTINUOUS
100
AcDbLine
 10
-1.3461685433070867
 20
0.1876833070866142
 30
0
 11
-1.3462113385826771
 21
0.1876690157480315
 31
0
  0
LINE
  5
58
330
1A
100
AcDbEntity
  8
BLACK
  6
CONTINUOUS
100
AcDbLine
 10
-1.3462113385826771
 20
0.1876690157480315
 30
0
 11
-1.3465156692913385
 21
0.1877523622047244
 31
0
  0
LINE
  5
59
330
1A
100
AcDbEntity
  8
BLACK
  6
CONTINUOUS
100
AcDbLine
 10
-1.3465156692913385
 20
0.1877523622047244
 30
0
 11
-1.3468251181102362
 21
0.1878138976377953
 31
0
  0
LINE
  5
5A
330
1A
100
AcDbEntity
  8
BLACK
  6
CONTINUOUS
100
AcDbLine
 10
-1.3468251181102362
 20
0.1878138976377953
 30
0
 11
-1.3468570472440944
 21
0.1878458267716535
 31
0
  0
LINE
  5
5B
330
1A
100
AcDbEntity
  8
BLACK
  6
CONTINUOUS
100
AcDbLine
 10
-1.3468570472440944
 20
0.1878458267716535
 30
0
 11
-1.3469521259842518
 21
0.1878718503937008
 31
0
  0
LINE
  5
5C
330
1A
100
AcDbEntity
  8
BLACK
  6
CONTINUOUS
100
AcDbLine
 10
-1.3469521259842518
 20
0.1878718503937008
 30
0
 11
-1.3499517716535432
 21
0.1893716929133858
 31
0
  0
LINE
  5
5D
330
1A
100
AcDbEntity
  8
BLACK
  6
CONTINUOUS
100
AcDbLine
 10
-1.3499517716535432
 20
0.1893716929133858
 30
0
 11
-1.3502006692913386
 21
0.1895648818897638
 31
0
  0
LINE
  5
5E
330
1A
100
AcDbEntity
  8
BLACK
  6
CONTINUOUS
100
AcDbLine
 10
-1.3502006692913386
 20
0.1895648818897638
 30
0
 11
-1.3504634251968504
 21
0.1897404330708661
 31
0
  0
LINE
  5
5F
330
1A
100
AcDbEntity
  8
BLACK
  6
CONTINUOUS
100
AcDbLine
 10
-1.3504634251968504
 20
0.1897404330708661
 30
0
 11
-1.3519631889763779
 21
0.1912402362204724
 31
0
  0
LINE
  5
60
330
1A
100
AcDbEntity
  8
BLACK
  6
CONTINUOUS
100
AcDbLine
 10
-1.3519631889763779
 20
0.1912402362204724
 30
0
 11
-1.3521385039370077
 21
0.1915025590551181
 31
0
  0
LINE
  5
61
330
1A
100
AcDbEntity
  8
BLACK
  6
CONTINUOUS
100
AcDbLine
 10
-1.3521385039370077
 20
0.1915025590551181
 30
0
 11
-1.3523319291338582
 21
0.191751811023622
 31
0
  0
LINE
  5
62
330
1A
100
AcDbEntity
  8
BLACK
  6
CONTINUOUS
100
AcDbLine
 10
-1.3523319291338582
 20
0.191751811023622
 30
0
 11
-1.3538317322834645
 21
0.1947514960629921
 31
0
  0
LINE
  5
63
330
1A
100
AcDbEntity
  8
BLACK
  6
CONTINUOUS
100
AcDbLine
 10
-1.3538317322834645
 20
0.1947514960629921
 30
0
 11
-1.3538577952755906
 21
0.1948465748031496
 31
0
  0
LINE
  5
64
330
1A
100
AcDbEntity
  8
BLACK
  6
CONTINUOUS
100
AcDbLine
 10
-1.3538577952755906
 20
0.1948465748031496
 30
0
 11
-1.3538897244094488
 21
0.1948785039370079
 31
0
  0
LINE
  5
65
330
1A
100
AcDbEntity
  8
BLACK
  6
CONTINUOUS
100
AcDbLine
 10
-1.3538897244094488
 20
0.1948785039370079
 30
0
 11
-1.3539513385826771
 21
0.1951881889763779
 31
0
  0
LINE
  5
66
330
1A
100
AcDbEntity
  8
BLACK
  6
CONTINUOUS
100
AcDbLine
 10
-1.3539513385826771
 20
0.1951881889763779
 30
0
 11
-1.3540346062992126
 21
0.1954922834645669
 31
0
  0
LINE
  5
67
330
1A
100
AcDbEntity
  8
BLACK
  6
CONTINUOUS
100
AcDbLine
 10
-1.3540346062992126
 20
0.1954922834645669
 30
0
 11
-1.3540203543307086
 21
0.1955351181102362
 31
0
  0
LINE
  5
68
330
1A
100
AcDbEntity
  8
BLACK
  6
CONTINUOUS
100
AcDbLine
 10
-1.3540203543307086
 20
0.1955351181102362
 30
0
 11
-1.3540395669291339
 21
0.195631811023622
 31
0
  0
LINE
  5
69
330
1A
100
AcDbEntity
  8
BLACK
  6
CONTINUOUS
100
AcDbLine
 10
-1.3540395669291339
 20
0.195631811023622
 30
0
 11
-1.3540395669291339
 21
0.2031308661417323
 31
0
  0
LINE
  5
6A
330
1A
100
AcDbEntity
  8
BLACK
  6
CONTINUOUS
100
AcDbLine
 10
-1.3540395669291339
 20
0.2031308661417323
 30
0
 11
-1.3540203543307086
 21
0.2032275984251969
 31
0
  0
LINE
  5
6B
330
1A
100
AcDbEntity
  8
BLACK
  6
CONTINUOUS
100
AcDbLine
 10
-1.3540203543307086
 20
0.2032275984251969
 30
0
 11
-1.3540346062992126
 21
0.2032704330708661
 31
0
  0
LINE
  5
6C
330
1A
100
AcDbEntity
  8
BLACK
  6
CONTINUOUS
100
AcDbLine
 10
-1.3540346062992126
 20
0.2032704330708661
 30
0
 11
-1.3539512992125984
 21
0.2035746850393701
 31
0
  0
LINE
  5
6D
330
1A
100
AcDbEntity
  8
BLACK
  6
CONTINUOUS
100
AcDbLine
 10
-1.3539512992125984
 20
0.2035746850393701
 30
0
 11
-1.3538897244094488
 21
0.2038841732283465
 31
0
  0
LINE
  5
6E
330
1A
100
AcDbEntity
  8
BLACK
  6
CONTINUOUS
100
AcDbLine
 10
-1.3538897244094488
 20
0.2038841732283465
 30
0
 11
-1.3538577952755906
 21
0.2039161417322835
 31
0
  0
LINE
  5
6F
330
1A
100
AcDbEntity
  8
BLACK
  6
CONTINUOUS
100
AcDbLine
 10
-1.3538577952755906
 20
0.2039161417322835
 30
0
 11
-1.3538317322834645
 21
0.2040112204724409
 31
0
  0
LINE
  5
70
330
1A
100
AcDbEntity
  8
BLACK
  6
CONTINUOUS
100
AcDbLine
 10
-1.3538317322834645
 20
0.2040112204724409
 30
0
 11
-1.3523319291338582
 21
0.2070108267716535
 31
0
  0
LINE
  5
71
330
1A
100
AcDbEntity
  8
BLACK
  6
CONTINUOUS
100
AcDbLine
 10
-1.3523319291338582
 20
0.2070108267716535
 30
0
 11
-1.3521385826771652
 21
0.20726
 31
0
  0
LINE
  5
72
330
1A
100
AcDbEntity
  8
BLACK
  6
CONTINUOUS
100
AcDbLine
 10
-1.3521385826771652
 20
0.20726
 30
0
 11
-1.3519632283464567
 21
0.2075224015748031
 31
0
  0
LINE
  5
73
330
1A
100
AcDbEntity
  8
BLACK
  6
CONTINUOUS
100
AcDbLine
 10
-1.3519632283464567
 20
0.2075224015748031
 30
0
 11
-1.3504634251968504
 21
0.2090222440944882
 31
0
  0
LINE
  5
74
330
1A
100
AcDbEntity
  8
BLACK
  6
CONTINUOUS
100
AcDbLine
 10
-1.3504634251968504
 20
0.2090222440944882
 30
0
 11
-1.3498248031496063
 21
0.209448937007874
 31
0
  0
LINE
  5
75
330
1A
100
AcDbEntity
  8
BLACK
  6
CONTINUOUS
100
AcDbLine
 10
-1.3498248031496063
 20
0.209448937007874
 30
0
 11
-1.3483181496062993
 21
0.2094489763779528
 31
0
  0
LINE
  5
76
330
1A
100
AcDbEntity
  8
BLACK
  6
CONTINUOUS
100
AcDbLine
 10
-1.3483181496062993
 20
0.2094489763779528
 30
0
 11
-1.3472528346456694
 21
0.2083836614173228
 31
0
  0
LINE
  5
77
330
1A
100
AcDbEntity
  8
BLACK
  6
CONTINUOUS
100
AcDbLine
 10
-1.3472528346456694
 20
0.2083836614173228
 30
0
 11
-1.3472527952755906
 21
0.2068770078740158
 31
0
  0
LINE
  5
78
330
1A
100
AcDbEntity
  8
BLACK
  6
CONTINUOUS
100
AcDbLine
 10
-1.3472527952755906
 20
0.2068770078740158
 30
0
 11
-1.3476794881889764
 21
0.2062383858267716
 31
0
  0
LINE
  5
79
330
1A
100
AcDbEntity
  8
BLACK
  6
CONTINUOUS
100
AcDbLine
 10
-1.3476794881889764
 20
0.2062383858267716
 30
0
 11
-1.348953464566929
 21
0.2049644094488189
 31
0
  0
LINE
  5
7A
330
1A
100
AcDbEntity
  8
BLACK
  6
CONTINUOUS
100
AcDbLine
 10
-1.348953464566929
 20
0.2049644094488189
 30
0
 11
-1.3501025590551181
 21
0.2026661811023622
 31
0
  0
LINE
  5
7B
330
1A
100
AcDbEntity
  8
BLACK
  6
CONTINUOUS
100
AcDbLine
 10
-1.3501025590551181
 20
0.2026661811023622
 30
0
 11
-1.3501025590551181
 21
0.1960964960629921
 31
0
  0
LINE
  5
7C
330
1A
100
AcDbEntity
  8
BLACK
  6
CONTINUOUS
100
AcDbLine
 10
-1.3501025590551181
 20
0.1960964960629921
 30
0
 11
-1.3489534251968505
 21
0.193798188976378
 31
0
  0
LINE
  5
7D
330
1A
100
AcDbEntity
  8
BLACK
  6
CONTINUOUS
100
AcDbLine
 10
-1.3489534251968505
 20
0.193798188976378
 30
0
 11
-1.3479053543307087
 21
0.192750157480315
 31
0
  0
LINE
  5
7E
330
1A
100
AcDbEntity
  8
BLACK
  6
CONTINUOUS
100
AcDbLine
 10
-1.3479053543307087
 20
0.192750157480315
 30
0
 11
-1.3456071259842519
 21
0.191601062992126
 31
0
  0
LINE
  5
7F
330
1A
100
AcDbEntity
  8
BLACK
  6
CONTINUOUS
100
AcDbLine
 10
-1.3456071259842519
 20
0.191601062992126
 30
0
 11
-1.3433916141732283
 21
0.191601062992126
 31
0
  0
LINE
  5
80
330
1A
100
AcDbEntity
  8
BLACK
  6
CONTINUOUS
100
AcDbLine
 10
-1.3433916141732283
 20
0.191601062992126
 30
0
 11
-1.3396361023622048
 21
0.1928529133858268
 31
0
  0
LINE
  5
81
330
1A
100
AcDbEntity
  8
BLACK
  6
CONTINUOUS
100
AcDbLine
 10
-1.3396361023622048
 20
0.1928529133858268
 30
0
 11
-1.3219669291338583
 21
0.2105220472440945
 31
0
  0
LINE
  5
82
330
1A
100
AcDbEntity
  8
BLACK
  6
CONTINUOUS
100
AcDbLine
 10
-1.3219669291338583
 20
0.2105220472440945
 30
0
 11
-1.3213283070866142
 21
0.2109487795275591
 31
0
  0
LINE
  5
83
330
1A
100
AcDbEntity
  8
BLACK
  6
CONTINUOUS
100
AcDbLine
 10
-1.3213283070866142
 20
0.2109487795275591
 30
0
 11
-1.3198216929133857
 21
0.2109487795275591
 31
0
  0
LINE
  5
84
330
1A
100
AcDbEntity
  8
BLACK
  6
CONTINUOUS
100
AcDbLine
 10
-1.3198216929133857
 20
0.2109487795275591
 30
0
 11
-1.318756338582677
 21
0.2098834251968504
 31
0
  0
LINE
  5
85
330
1A
100
AcDbEntity
  8
BLACK
  6
CONTINUOUS
100
AcDbLine
 10
-1.318756338582677
 20
0.2338804330708661
 30
0
 11
-1.3186064960629922
 21
0.233127125984252
 31
0
  0
LINE
  5
86
330
1A
100
AcDbEntity
  8
BLACK
  6
CONTINUOUS
100
AcDbLine
 10
-1.3186064960629922
 20
0.233127125984252
 30
0
 11
-1.3186064960629922
 21
0.2301274803149606
 31
0
  0
LINE
  5
87
330
1A
100
AcDbEntity
  8
BLACK
  6
CONTINUOUS
100
AcDbLine
 10
-1.3186064960629922
 20
0.2301274803149606
 30
0
 11
-1.3186680708661418
 21
0.2298179527559055
 31
0
  0
LINE
  5
88
330
1A
100
AcDbEntity
  8
BLACK
  6
CONTINUOUS
100
AcDbLine
 10
-1.3186680708661418
 20
0.2298179527559055
 30
0
 11
-1.3187075196850393
 21
0.229505
 31
0
  0
LINE
  5
89
330
1A
100
AcDbEntity
  8
BLACK
  6
CONTINUOUS
100
AcDbLine
 10
-1.3187075196850393
 20
0.229505
 30
0
 11
-1.3202073228346456
 21
0.2250055905511811
 31
0
  0
LINE
  5
8A
330
1A
100
AcDbEntity
  8
BLACK
  6
CONTINUOUS
100
AcDbLine
 10
-1.3202073228346456
 20
0.2250055905511811
 30
0
 11
-1.3202561417322833
 21
0.2249199606299213
 31
0
  0
LINE
  5
8B
330
1A
100
AcDbEntity
  8
BLACK
  6
CONTINUOUS
100
AcDbLine
 10
-1.3202561417322833
 20
0.2249199606299213
 30
0
 11
-1.3202561417322833
 21
0.2248747244094488
 31
0
  0
LINE
  5
8C
330
1A
100
AcDbEntity
  8
BLACK
  6
CONTINUOUS
100
AcDbLine
 10
-1.3202561417322833
 20
0.2248747244094488
 30
0
 11
-1.3204315354330709
 21
0.2246122834645669
 31
0
  0
LINE
  5
8D
330
1A
100
AcDbEntity
  8
BLACK
  6
CONTINUOUS
100
AcDbLine
 10
-1.3204315354330709
 20
0.2246122834645669
 30
0
 11
-1.3205876771653542
 21
0.2243383070866142
 31
0
  0
LINE
  5
8E
330
1A
100
AcDbEntity
  8
BLACK
  6
CONTINUOUS
100
AcDbLine
 10
-1.3205876771653542
 20
0.2243383070866142
 30
0
 11
-1.3206281102362205
 21
0.2243181102362205
 31
0
  0
LINE
  5
8F
330
1A
100
AcDbEntity
  8
BLACK
  6
CONTINUOUS
100
AcDbLine
 10
-1.3206281102362205
 20
0.2243181102362205
 30
0
 11
-1.3206828740157479
 21
0.2242361023622047
 31
0
  0
LINE
  5
90
330
1A
100
AcDbEntity
  8
BLACK
  6
CONTINUOUS
100
AcDbLine
 10
-1.3206828740157479
 20
0.2242361023622047
 30
0
 11
-1.3236825196850392
 21
0.2212364960629921
 31
0
  0
LINE
  5
91
330
1A
100
AcDbEntity
  8
BLACK
  6
CONTINUOUS
100
AcDbLine
 10
-1.3236825196850392
 20
0.2212364960629921
 30
0
 11
-1.3237644881889763
 21
0.2211817716535433
 31
0
  0
LINE
  5
92
330
1A
100
AcDbEntity
  8
BLACK
  6
CONTINUOUS
100
AcDbLine
 10
-1.3237644881889763
 20
0.2211817716535433
 30
0
 11
-1.32378468503937
 21
0.2211412992125984
 31
0
  0
LINE
  5
93
330
1A
100
AcDbEntity
  8
BLACK
  6
CONTINUOUS
100
AcDbLine
 10
-1.32378468503937
 20
0.2211412992125984
 30
0
 11
-1.3240589370078739
 21
0.220985
 31
0
  0
LINE
  5
94
330
1A
100
AcDbEntity
  8
BLACK
  6
CONTINUOUS
100
AcDbLine
 10
-1.3240589370078739
 20
0.220985
 30
0
 11
-1.3243211417322833
 21
0.2208097637795275
 31
0
  0
LINE
  5
95
330
1A
100
AcDbEntity
  8
BLACK
  6
CONTINUOUS
100
AcDbLine
 10
-1.3243211417322833
 20
0.2208097637795275
 30
0
 11
-1.3243663385826772
 21
0.2208097637795275
 31
0
  0
LINE
  5
96
330
1A
100
AcDbEntity
  8
BLACK
  6
CONTINUOUS
100
AcDbLine
 10
-1.3243663385826772
 20
0.2208097637795275
 30
0
 11
-1.3244519685039369
 21
0.2207609448818898
 31
0
  0
LINE
  5
97
330
1A
100
AcDbEntity
  8
BLACK
  6
CONTINUOUS
100
AcDbLine
 10
-1.3244519685039369
 20
0.2207609448818898
 30
0
 11
-1.3289514173228345
 21
0.2192611417322834
 31
0
  0
LINE
  5
98
330
1A
100
AcDbEntity
  8
BLACK
  6
CONTINUOUS
100
AcDbLine
 10
-1.3289514173228345
 20
0.2192611417322834
 30
0
 11
-1.3292643700787401
 21
0.2192216929133858
 31
0
  0
LINE
  5
99
330
1A
100
AcDbEntity
  8
BLACK
  6
CONTINUOUS
100
AcDbLine
 10
-1.3292643700787401
 20
0.2192216929133858
 30
0
 11
-1.3295738976377953
 21
0.2191601181102362
 31
0
  0
LINE
  5
9A
330
1A
100
AcDbEntity
  8
BLACK
  6
CONTINUOUS
100
AcDbLine
 10
-1.3295738976377953
 20
0.2191601181102362
 30
0
 11
-1.352071062992126
 21
0.2191601181102362
 31
0
  0
LINE
  5
9B
330
1A
100
AcDbEntity
  8
BLACK
  6
CONTINUOUS
100
AcDbLine
 10
-1.352071062992126
 20
0.2191601181102362
 30
0
 11
-1.3528243700787401
 21
0.2193099606299213
 31
0
  0
LINE
  5
9C
330
1A
100
AcDbEntity
  8
BLACK
  6
CONTINUOUS
100
AcDbLine
 10
-1.3528243700787401
 20
0.2193099606299213
 30
0
 11
-1.3538897244094488
 21
0.2203753149606299
 31
0
  0
LINE
  5
9D
330
1A
100
AcDbEntity
  8
BLACK
  6
CONTINUOUS
100
AcDbLine
 10
-1.3538897244094488
 20
0.2203753149606299
 30
0
 11
-1.3538897244094488
 21
0.2218819291338583
 31
0
  0
LINE
  5
9E
330
1A
100
AcDbEntity
  8
BLACK
  6
CONTINUOUS
100
AcDbLine
 10
-1.3538897244094488
 20
0.2218819291338583
 30
0
 11
-1.3528243700787401
 21
0.2229472834645669
 31
0
  0
LINE
  5
9F
330
1A
100
AcDbEntity
  8
BLACK
  6
CONTINUOUS
100
AcDbLine
 10
-1.3528243700787401
 20
0.2229472834645669
 30
0
 11
-1.352071062992126
 21
0.223097125984252
 31
0
  0
LINE
  5
A0
330
1A
100
AcDbEntity
  8
BLACK
  6
CONTINUOUS
100
AcDbLine
 10
-1.352071062992126
 20
0.223097125984252
 30
0
 11
-1.3298933070866141
 21
0.223097125984252
 31
0
  0
LINE
  5
A1
330
1A
100
AcDbEntity
  8
BLACK
  6
CONTINUOUS
100
AcDbLine
 10
-1.3298933070866141
 20
0.223097125984252
 30
0
 11
-1.3261377952755906
 21
0.2243489763779528
 31
0
  0
LINE
  5
A2
330
1A
100
AcDbEntity
  8
BLACK
  6
CONTINUOUS
100
AcDbLine
 10
-1.3261377952755906
 20
0.2243489763779528
 30
0
 11
-1.3237953543307086
 21
0.2266914566929134
 31
0
  0
LINE
  5
A3
330
1A
100
AcDbEntity
  8
BLACK
  6
CONTINUOUS
100
AcDbLine
 10
-1.3237953543307086
 20
0.2266914566929134
 30
0
 11
-1.3225435039370079
 21
0.2304468897637795
 31
0
  0
LINE
  5
A4
330
1A
100
AcDbEntity
  8
BLACK
  6
CONTINUOUS
100
AcDbLine
 10
-1.3225435039370079
 20
0.2304468897637795
 30
0
 11
-1.3225435039370079
 21
0.233127125984252
 31
0
  0
LINE
  5
A5
330
1A
100
AcDbEntity
  8
BLACK
  6
CONTINUOUS
100
AcDbLine
 10
-1.3225435039370079
 20
0.233127125984252
 30
0
 11
-1.3223936614173228
 21
0.2338804330708661
 31
0
  0
LINE
  5
A6
330
1A
100
AcDbEntity
  8
BLACK
  6
CONTINUOUS
100
AcDbLine
 10
-1.3223936614173228
 20
0.2338804330708661
 30
0
 11
-1.3213283070866142
 21
0.2349457874015748
 31
0
  0
LINE
  5
A7
330
1A
100
AcDbEntity
  8
BLACK
  6
CONTINUOUS
100
AcDbLine
 10
-1.3213283070866142
 20
0.2349457874015748
 30
0
 11
-1.3198216929133857
 21
0.2349457874015748
 31
0
  0
LINE
  5
A8
330
1A
100
AcDbEntity
  8
BLACK
  6
CONTINUOUS
100
AcDbLine
 10
-1.3198216929133857
 20
0.2349457874015748
 30
0
 11
-1.318756338582677
 21
0.2338804330708661
 31
0
  0
LINE
  5
A9
330
1A
100
AcDbEntity
  8
BLACK
  6
CONTINUOUS
100
AcDbLine
 10
-1.1824621653543306
 20
0.5809225590551181
 30
0
 11
-1.1811837401574803
 21
0.5796441338582677
 31
0
  0
LINE
  5
AA
330
1A
100
AcDbEntity
  8
BLACK
  6
CONTINUOUS
100
AcDbLine
 10
-1.1811837401574803
 20
0.5796441338582677
 30
0
 11
-1.1811837401574803
 21
0.5778361811023622
 31
0
  0
LINE
  5
AB
330
1A
100
AcDbEntity
  8
BLACK
  6
CONTINUOUS
100
AcDbLine
 10
-1.1811837401574803
 20
0.5778361811023622
 30
0
 11
-1.1824621653543306
 21
0.5765577559055118
 31
0
  0
LINE
  5
AC
330
1A
100
AcDbEntity
  8
BLACK
  6
CONTINUOUS
100
AcDbLine
 10
-1.1824621653543306
 20
0.5765577559055118
 30
0
 11
-1.1833661417322834
 21
0.5763779527559055
 31
0
  0
LINE
  5
AD
330
1A
100
AcDbEntity
  8
BLACK
  6
CONTINUOUS
100
AcDbLine
 10
-1.1833661417322834
 20
0.5763779527559055
 30
0
 11
-1.2873031496062992
 21
0.5763779527559055
 31
0
  0
LINE
  5
AE
330
1A
100
AcDbEntity
  8
BLACK
  6
CONTINUOUS
100
AcDbLine
 10
-1.2873031496062992
 20
0.5763779527559055
 30
0
 11
-1.2873031496062992
 21
0.5039370078740157
 31
0
  0
LINE
  5
AF
330
1A
100
AcDbEntity
  8
BLACK
  6
CONTINUOUS
100
AcDbLine
 10
-1.2873031496062992
 20
0.5039370078740157
 30
0
 11
-1.2874829527559055
 21
0.5030330314960629
 31
0
  0
LINE
  5
B0
330
1A
100
AcDbEntity
  8
BLACK
  6
CONTINUOUS
100
AcDbLine
 10
-1.2874829527559055
 20
0.5030330314960629
 30
0
 11
-1.2887613779527558
 21
0.5017546062992125
 31
0
  0
LINE
  5
B1
330
1A
100
AcDbEntity
  8
BLACK
  6
CONTINUOUS
100
AcDbLine
 10
-1.2887613779527558
 20
0.5017546062992125
 30
0
 11
-1.2905693307086614
 21
0.5017546062992125
 31
0
  0
LINE
  5
B2
330
1A
100
AcDbEntity
  8
BLACK
  6
CONTINUOUS
100
AcDbLine
 10
-1.2905693307086614
 20
0.5017546062992125
 30
0
 11
-1.2918477559055117
 21
0.5030330314960629
 31
0
  0
LINE
  5
B3
330
1A
100
AcDbEntity
  8
BLACK
  6
CONTINUOUS
100
AcDbLine
 10
-1.2918477559055117
 20
0.5030330314960629
 30
0
 11
-1.292027559055118
 21
0.5039370078740157
 31
0
  0
LINE
  5
B4
330
1A
100
AcDbEntity
  8
BLACK
  6
CONTINUOUS
100
AcDbLine
 10
-1.292027559055118
 20
0.5039370078740157
 30
0
 11
-1.292027559055118
 21
0.5787401574803149
 31
0
  0
LINE
  5
B5
330
1A
100
AcDbEntity
  8
BLACK
  6
CONTINUOUS
100
AcDbLine
 10
-1.292027559055118
 20
0.5787401574803149
 30
0
 11
-1.2918477559055117
 21
0.5796441338582677
 31
0
  0
LINE
  5
B6
330
1A
100
AcDbEntity
  8
BLACK
  6
CONTINUOUS
100
AcDbLine
 10
-1.2918477559055117
 20
0.5796441338582677
 30
0
 11
-1.2905693307086614
 21
0.5809225590551181
 31
0
  0
LINE
  5
B7
330
1A
100
AcDbEntity
  8
BLACK
  6
CONTINUOUS
100
AcDbLine
 10
-1.2905693307086614
 20
0.5809225590551181
 30
0
 11
-1.2896653543307086
 21
0.5811023622047244
 31
0
  0
LINE
  5
B8
330
1A
100
AcDbEntity
  8
BLACK
  6
CONTINUOUS
100
AcDbLine
 10
-1.2896653543307086
 20
0.5811023622047244
 30
0
 11
-1.1833661417322834
 21
0.5811023622047244
 31
0
  0
LINE
  5
B9
330
1A
100
AcDbEntity
  8
BLACK
  6
CONTINUOUS
100
AcDbLine
 10
-1.1833661417322834
 20
0.5811023622047244
 30
0
 11
-1.1824621653543306
 21
0.5809225590551181
 31
0
  0
LINE
  5
BA
330
1A
100
AcDbEntity
  8
BLACK
  6
CONTINUOUS
100
AcDbLine
 10
-0.9186826377952756
 20
0.5887965748031496
 30
0
 11
-0.9174042125984252
 21
0.5875181496062992
 31
0
  0
LINE
  5
BB
330
1A
100
AcDbEntity
  8
BLACK
  6
CONTINUOUS
100
AcDbLine
 10
-0.9174042125984252
 20
0.5875181496062992
 30
0
 11
-0.9172244094488189
 21
0.5866141732283464
 31
0
  0
LINE
  5
BC
330
1A
100
AcDbEntity
  8
BLACK
  6
CONTINUOUS
100
AcDbLine
 10
-0.9172244094488189
 20
0.5866141732283464
 30
0
 11
-0.9172244094488189
 21
0.5452755905511811
 31
0
  0
LINE
  5
BD
330
1A
100
AcDbEntity
  8
BLACK
  6
CONTINUOUS
100
AcDbLine
 10
-0.9172244094488189
 20
0.5452755905511811
 30
0
 11
-0.9174042125984252
 21
0.5443716141732283
 31
0
  0
LINE
  5
BE
330
1A
100
AcDbEntity
  8
BLACK
  6
CONTINUOUS
100
AcDbLine
 10
-0.9174042125984252
 20
0.5443716141732283
 30
0
 11
-0.9186826377952756
 21
0.5430931889763779
 31
0
  0
LINE
  5
BF
330
1A
100
AcDbEntity
  8
BLACK
  6
CONTINUOUS
100
AcDbLine
 10
-0.9186826377952756
 20
0.5430931889763779
 30
0
 11
-0.9204905905511811
 21
0.5430931889763779
 31
0
  0
LINE
  5
C0
330
1A
100
AcDbEntity
  8
BLACK
  6
CONTINUOUS
100
AcDbLine
 10
-0.9204905905511811
 20
0.5430931889763779
 30
0
 11
-0.9217690157480315
 21
0.5443716141732283
 31
0
  0
LINE
  5
C1
330
1A
100
AcDbEntity
  8
BLACK
  6
CONTINUOUS
100
AcDbLine
 10
-0.9217690157480315
 20
0.5443716141732283
 30
0
 11
-0.9219488188976378
 21
0.5452755905511811
 31
0
  0
LINE
  5
C2
330
1A
100
AcDbEntity
  8
BLACK
  6
CONTINUOUS
100
AcDbLine
 10
-0.9219488188976378
 20
0.5452755905511811
 30
0
 11
-0.9219488188976378
 21
0.584251968503937
 31
0
  0
LINE
  5
C3
330
1A
100
AcDbEntity
  8
BLACK
  6
CONTINUOUS
100
AcDbLine
 10
-0.9219488188976378
 20
0.584251968503937
 30
0
 11
-0.9609251968503937
 21
0.584251968503937
 31
0
  0
LINE
  5
C4
330
1A
100
AcDbEntity
  8
BLACK
  6
CONTINUOUS
100
AcDbLine
 10
-0.9609251968503937
 20
0.584251968503937
 30
0
 11
-0.9618291732283465
 21
0.5844317716535433
 31
0
  0
LINE
  5
C5
330
1A
100
AcDbEntity
  8
BLACK
  6
CONTINUOUS
100
AcDbLine
 10
-0.9618291732283465
 20
0.5844317716535433
 30
0
 11
-0.9631075984251968
 21
0.5857101968503937
 31
0
  0
LINE
  5
C6
330
1A
100
AcDbEntity
  8
BLACK
  6
CONTINUOUS
100
AcDbLine
 10
-0.9631075984251968
 20
0.5857101968503937
 30
0
 11
-0.9631075984251968
 21
0.5875181496062992
 31
0
  0
LINE
  5
C7
330
1A
100
AcDbEntity
  8
BLACK
  6
CONTINUOUS
100
AcDbLine
 10
-0.9631075984251968
 20
0.5875181496062992
 30
0
 11
-0.9618291732283465
 21
0.5887965748031496
 31
0
  0
LINE
  5
C8
330
1A
100
AcDbEntity
  8
BLACK
  6
CONTINUOUS
100
AcDbLine
 10
-0.9618291732283465
 20
0.5887965748031496
 30
0
 11
-0.9609251968503937
 21
0.5889763779527559
 31
0
  0
LINE
  5
C9
330
1A
100
AcDbEntity
  8
BLACK
  6
CONTINUOUS
100
AcDbLine
 10
-0.9609251968503937
 20
0.5889763779527559
 30
0
 11
-0.9195866141732283
 21
0.5889763779527559
 31
0
  0
LINE
  5
CA
330
1A
100
AcDbEntity
  8
BLACK
  6
CONTINUOUS
100
AcDbLine
 10
-0.9195866141732283
 20
0.5889763779527559
 30
0
 11
-0.9186826377952756
 21
0.5887965748031496
 31
0
  0
CIRCLE
  5
CB
330
1A
100
AcDbEntity
  8
BLACK
100
AcDbCircle
 10
-0.2013453543307087
 20
3.6417322834645667
 30
0
 40
0.0068897637795276
  0
CIRCLE
  5
CC
330
1A
100
AcDbEntity
  8
BLACK
100
AcDbCircle
 10
-0.1013453543307087
 20
3.6417322834645667
 30
0
 40
0.0068897637795276
  0
CIRCLE
  5
CD
330
1A
100
AcDbEntity
  8
BLACK
100
AcDbCircle
 10
-1.1299212598425197
 20
0.7874015748031495
 30
0
 40
0.0068897637795276
  0
CIRCLE
  5
CE
330
1A
100
AcDbEntity
  8
BLACK
100
AcDbCircle
 10
0.5364499212598425
 20
3.2165354330708662
 30
0
 40
0.0068897637795276
  0
CIRCLE
  5
CF
330
1A
100
AcDbEntity
  8
BLACK
100
AcDbCircle
 10
0.3986546456692913
 20
3.2165354330708662
 30
0
 40
0.0068897637795276
  0
CIRCLE
  5
D0
330
1A
100
AcDbEntity
  8
BLACK
100
AcDbCircle
 10
1.0055118110236221
 20
0.2188976377952756
 30
0
 40
0.0068897637795276
  0
CIRCLE
  5
D1
330
1A
100
AcDbEntity
  8
BLACK
100
AcDbCircle
 10
0.5055118110236221
 20
0.2188976377952756
 30
0
 40
0.0068897637795276
  0
CIRCLE
  5
D2
330
1A
100
AcDbEntity
  8
BLACK
100
AcDbCircle
 10
0.8956692913385826
 20
0.3188976377952756
 30
0
 40
0.0068897637795276
  0
CIRCLE
  5
D3
330
1A
100
AcDbEntity
  8
BLACK
100
AcDbCircle
 10
0.8556692913385826
 20
0.3889764173228346
 30
0
 40
0.0068897637795276
  0
CIRCLE
  5
D4
330
1A
100
AcDbEntity
  8
BLACK
100
AcDbCircle
 10
0.8156692913385827
 20
0.3188976377952756
 30
0
 40
0.0068897637795276
  0
CIRCLE
  5
D5
330
1A
100
AcDbEntity
  8
BLACK
100
AcDbCircle
 10
0.7756692913385826
 20
0.3889764173228346
 30
0
 40
0.0068897637795276
  0
CIRCLE
  5
D6
330
1A
100
AcDbEntity
  8
BLACK
100
AcDbCircle
 10
0.7356692913385826
 20
0.3188976377952756
 30
0
 40
0.0068897637795276
  0
CIRCLE
  5
D7
330
1A
100
AcDbEntity
  8
BLACK
100
AcDbCircle
 10
0.6956692913385827
 20
0.3889764173228346
 30
0
 40
0.0068897637795276
  0
CIRCLE
  5
D8
330
1A
100
AcDbEntity
  8
BLACK
100
AcDbCircle
 10
0.6556692913385826
 20
0.3188976377952756
 30
0
 40
0.0068897637795276
  0
CIRCLE
  5
D9
330
1A
100
AcDbEntity
  8
BLACK
100
AcDbCircle
 10
0.6156693307086614
 20
0.3889763779527559
 30
0
 40
0.0068897637795276
  0
CIRCLE
  5
DA
330
1A
100
AcDbEntity
  8
BLACK
100
AcDbCircle
 10
1.0255905511811023
 20
0.5787401574803149
 30
0
 40
0.0068897637795276
  0
CIRCLE
  5
DB
330
1A
100
AcDbEntity
  8
BLACK
100
AcDbCircle
 10
0.9354330708661417
 20
0.5787401574803149
 30
0
 40
0.0068897637795276
  0
CIRCLE
  5
DC
330
1A
100
AcDbEntity
  8
BLACK
100
AcDbCircle
 10
0.5755905511811024
 20
0.5787401574803149
 30
0
 40
0.0068897637795276
  0
CIRCLE
  5
DD
330
1A
100
AcDbEntity
  8
BLACK
100
AcDbCircle
 10
0.4854330708661417
 20
0.5787401574803149
 30
0
 40
0.0068897637795276
  0
CIRCLE
  5
DE
330
1A
100
AcDbEntity
  8
BLACK
100
AcDbCircle
 10
1.0755905511811024
 20
0.3539370078740157
 30
0
 40
0.0068897637795276
  0
CIRCLE
  5
DF
330
1A
100
AcDbEntity
  8
BLACK
100
AcDbCircle
 10
0.4354330708661417
 20
0.3539370078740157
 30
0
 40
0.0068897637795276
  0
CIRCLE
  5
E0
330
1A
100
AcDbEntity
  8
BLACK
100
AcDbCircle
 10
-0.2013453543307087
 20
3.9448818897637796
 30
0
 40
0.0068897637795276
  0
CIRCLE
  5
E1
330
1A
100
AcDbEntity
  8
BLACK
100
AcDbCircle
 10
-0.1013453543307087
 20
3.9448818897637796
 30
0
 40
0.0068897637795276
  0
CIRCLE
  5
E2
330
1A
100
AcDbEntity
  8
BLACK
100
AcDbCircle
 10
-1.3218503937007873
 20
4.466929133858268
 30
0
 40
0.0068897637795276
  0
CIRCLE
  5
E3
330
1A
100
AcDbEntity
  8
BLACK
100
AcDbCircle
 10
-1.2218503937007874
 20
4.466929133858268
 30
0
 40
0.0068897637795276
  0
CIRCLE
  5
E4
330
1A
100
AcDbEntity
  8
BLACK
100
AcDbCircle
 10
-1.3218503937007873
 20
4.3669291338582674
 30
0
 40
0.0068897637795276
  0
CIRCLE
  5
E5
330
1A
100
AcDbEntity
  8
BLACK
100
AcDbCircle
 10
-1.2218503937007874
 20
4.3669291338582674
 30
0
 40
0.0068897637795276
  0
CIRCLE
  5
E6
330
1A
100
AcDbEntity
  8
BLACK
100
AcDbCircle
 10
-1.3218503937007873
 20
4.2669291338582678
 30
0
 40
0.0068897637795276
  0
CIRCLE
  5
E7
330
1A
100
AcDbEntity
  8
BLACK
100
AcDbCircle
 10
-1.2218503937007874
 20
4.2669291338582678
 30
0
 40
0.0068897637795276
  0
CIRCLE
  5
E8
330
1A
100
AcDbEntity
  8
BLACK
100
AcDbCircle
 10
-1.3218503937007873
 20
4.1669291338582672
 30
0
 40
0.0068897637795276
  0
CIRCLE
  5
E9
330
1A
100
AcDbEntity
  8
BLACK
100
AcDbCircle
 10
-1.2218503937007874
 20
4.1669291338582672
 30
0
 40
0.0068897637795276
  0
CIRCLE
  5
EA
330
1A
100
AcDbEntity
  8
BLACK
100
AcDbCircle
 10
-1.3218503937007873
 20
4.0669291338582676
 30
0
 40
0.0068897637795276
  0
CIRCLE
  5
EB
330
1A
100
AcDbEntity
  8
BLACK
100
AcDbCircle
 10
-1.2218503937007874
 20
4.0669291338582676
 30
0
 40
0.0068897637795276
  0
CIRCLE
  5
EC
330
1A
100
AcDbEntity
  8
BLACK
100
AcDbCircle
 10
-1.3218503937007873
 20
3.9669291338582675
 30
0
 40
0.0068897637795276
  0
CIRCLE
  5
ED
330
1A
100
AcDbEntity
  8
BLACK
100
AcDbCircle
 10
-1.2218503937007874
 20
3.9669291338582675
 30
0
 40
0.0068897637795276
  0
CIRCLE
  5
EE
330
1A
100
AcDbEntity
  8
BLACK
100
AcDbCircle
 10
-1.3218503937007873
 20
3.8669291338582674
 30
0
 40
0.0068897637795276
  0
CIRCLE
  5
EF
330
1A
100
AcDbEntity
  8
BLACK
100
AcDbCircle
 10
-1.2218503937007874
 20
3.8669291338582674
 30
0
 40
0.0068897637795276
  0
CIRCLE
  5
F0
330
1A
100
AcDbEntity
  8
BLACK
100
AcDbCircle
 10
-1.3218503937007873
 20
3.7669291338582678
 30
0
 40
0.0068897637795276
  0
CIRCLE
  5
F1
330
1A
100
AcDbEntity
  8
BLACK
100
AcDbCircle
 10
-1.2218503937007874
 20
3.7669291338582678
 30
0
 40
0.0068897637795276
  0
CIRCLE
  5
F2
330
1A
100
AcDbEntity
  8
BLACK
100
AcDbCircle
 10
-1.3218503937007873
 20
3.6669291338582677
 30
0
 40
0.0068897637795276
  0
CIRCLE
  5
F3
330
1A
100
AcDbEntity
  8
BLACK
100
AcDbCircle
 10
-1.2218503937007874
 20
3.6669291338582677
 30
0
 40
0.0068897637795276
  0
CIRCLE
  5
F4
330
1A
100
AcDbEntity
  8
BLACK
100
AcDbCircle
 10
-1.3218503937007873
 20
3.5669291338582676
 30
0
 40
0.0068897637795276
  0
CIRCLE
  5
F5
330
1A
100
AcDbEntity
  8
BLACK
100
AcDbCircle
 10
-1.2218503937007874
 20
3.5669291338582676
 30
0
 40
0.0068897637795276
  0
CIRCLE
  5
F6
330
1A
100
AcDbEntity
  8
BLACK
100
AcDbCircle
 10
-1.3218503937007873
 20
3.4669291338582675
 30
0
 40
0.0068897637795276
  0
CIRCLE
  5
F7
330
1A
100
AcDbEntity
  8
BLACK
100
AcDbCircle
 10
-1.2218503937007874
 20
3.4669291338582675
 30
0
 40
0.0068897637795276
  0
CIRCLE
  5
F8
330
1A
100
AcDbEntity
  8
BLACK
100
AcDbCircle
 10
-1.3218503937007873
 20
3.3669291338582674
 30
0
 40
0.0068897637795276
  0
CIRCLE
  5
F9
330
1A
100
AcDbEntity
  8
BLACK
100
AcDbCircle
 10
-1.2218503937007874
 20
3.3669291338582674
 30
0
 40
0.0068897637795276
  0
CIRCLE
  5
FA
330
1A
100
AcDbEntity
  8
BLACK
100
AcDbCircle
 10
-1.3218503937007873
 20
3.2669291338582678
 30
0
 40
0.0068897637795276
  0
CIRCLE
  5
FB
330
1A
100
AcDbEntity
  8
BLACK
100
AcDbCircle
 10
-1.2218503937007874
 20
3.2669291338582678
 30
0
 40
0.0068897637795276
  0
CIRCLE
  5
FC
330
1A
100
AcDbEntity
  8
BLACK
100
AcDbCircle
 10
-1.3218503937007873
 20
3.1669291338582677
 30
0
 40
0.0068897637795276
  0
CIRCLE
  5
FD
330
1A
100
AcDbEntity
  8
BLACK
100
AcDbCircle
 10
-1.2218503937007874
 20
3.1669291338582677
 30
0
 40
0.0068897637795276
  0
CIRCLE
  5
FE
330
1A
100
AcDbEntity
  8
BLACK
100
AcDbCircle
 10
-1.3218503937007873
 20
3.0669291338582676
 30
0
 40
0.0068897637795276
  0
CIRCLE
  5
FF
330
1A
100
AcDbEntity
  8
BLACK
100
AcDbCircle
 10
-1.2218503937007874
 20
3.0669291338582676
 30
0
 40
0.0068897637795276
  0
CIRCLE
  5
100
330
1A
100
AcDbEntity
  8
BLACK
100
AcDbCircle
 10
-1.3218503937007873
 20
2.9669291338582675
 30
0
 40
0.0068897637795276
  0
CIRCLE
  5
101
330
1A
100
AcDbEntity
  8
BLACK
100
AcDbCircle
 10
-1.2218503937007874
 20
2.9669291338582675
 30
0
 40
0.0068897637795276
  0
CIRCLE
  5
102
330
1A
100
AcDbEntity
  8
BLACK
100
AcDbCircle
 10
-1.3218503937007873
 20
2.8669291338582679
 30
0
 40
0.0068897637795276
  0
CIRCLE
  5
103
330
1A
100
AcDbEntity
  8
BLACK
100
AcDbCircle
 10
-1.2218503937007874
 20
2.8669291338582679
 30
0
 40
0.0068897637795276
  0
CIRCLE
  5
104
330
1A
100
AcDbEntity
  8
BLACK
100
AcDbCircle
 10
-1.3218503937007873
 20
2.7669291338582678
 30
0
 40
0.0068897637795276
  0
CIRCLE
  5
105
330
1A
100
AcDbEntity
  8
BLACK
100
AcDbCircle
 10
-1.2218503937007874
 20
2.7669291338582678
 30
0
 40
0.0068897637795276
  0
CIRCLE
  5
106
330
1A
100
AcDbEntity
  8
BLACK
100
AcDbCircle
 10
-1.3218503937007873
 20
2.6669291338582677
 30
0
 40
0.0068897637795276
  0
CIRCLE
  5
107
330
1A
100
AcDbEntity
  8
BLACK
100
AcDbCircle
 10
-1.2218503937007874
 20
2.6669291338582677
 30
0
 40
0.0068897637795276
  0
CIRCLE
  5
108
330
1A
100
AcDbEntity
  8
BLACK
100
AcDbCircle
 10
-1.3218503937007873
 20
2.5669291338582676
 30
0
 40
0.0068897637795276
  0
CIRCLE
  5
109
330
1A
100
AcDbEntity
  8
BLACK
100
AcDbCircle
 10
-1.2218503937007874
 20
2.5669291338582676
 30
0
 40
0.0068897637795276
  0
CIRCLE
  5
10A
330
1A
100
AcDbEntity
  8
BLACK
100
AcDbCircle
 10
-0.2013453543307087
 20
3.8425196850393699
 30
0
 40
0.0068897637795276
  0
CIRCLE
  5
10B
330
1A
100
AcDbEntity
  8
BLACK
100
AcDbCircle
 10
-0.1013453543307087
 20
3.8425196850393699
 30
0
 40
0.0068897637795276
  0
CIRCLE
  5
10C
330
1A
100
AcDbEntity
  8
BLACK
100
AcDbCircle
 10
-0.2013453543307087
 20
3.5433070866141732
 30
0
 40
0.0068897637795276
  0
CIRCLE
  5
10D
330
1A
100
AcDbEntity
  8
BLACK
100
AcDbCircle
 10
-0.1013453543307087
 20
3.5433070866141732
 30
0
 40
0.0068897637795276
  0
CIRCLE
  5
10E
330
1A
100
AcDbEntity
  8
BLACK
100
AcDbCircle
 10
0.7125984251968503
 20
1.7637795275590551
 30
0
 40
0.0068897637795276
  0
CIRCLE
  5
10F
330
1A
100
AcDbEntity
  8
BLACK
100
AcDbCircle
 10
0.7125984251968503
 20
1.8637796062992125
 30
0
 40
0.0068897637795276
  0
CIRCLE
  5
110
330
1A
100
AcDbEntity
  8
BLACK
100
AcDbCircle
 10
0.84251968503937
 20
1.7637795275590551
 30
0
 40
0.0068897637795276
  0
CIRCLE
  5
111
330
1A
100
AcDbEntity
  8
BLACK
100
AcDbCircle
 10
0.84251968503937
 20
1.8637795275590552
 30
0
 40
0.0068897637795276
  0
CIRCLE
  5
112
330
1A
100
AcDbEntity
  8
BLACK
100
AcDbCircle
 10
0.84251968503937
 20
1.9637794881889763
 30
0
 40
0.0068897637795276
  0
CIRCLE
  5
113
330
1A
100
AcDbEntity
  8
BLACK
100
AcDbCircle
 10
-1.6112204724409449
 20
0.5039370078740157
 30
0
 40
0.0068897637795276
  0
CIRCLE
  5
114
330
1A
100
AcDbEntity
  8
BLACK
100
AcDbCircle
 10
1.6348425196850394
 20
3.4704724409448819
 30
0
 40
0.0068897637795276
  0
CIRCLE
  5
115
330
1A
100
AcDbEntity
  8
BLACK
100
AcDbCircle
 10
1.6348425196850394
 20
0.7106299212598425
 30
0
 40
0.0068897637795276
  0
CIRCLE
  5
116
330
1A
100
AcDbEntity
  8
BLACK
100
AcDbCircle
 10
-0.4808729133858268
 20
3.9433070866141731
 30
0
 40
0.0068897637795276
  0
CIRCLE
  5
117
330
1A
100
AcDbEntity
  8
BLACK
100
AcDbCircle
 10
-0.3808729133858267
 20
3.9433070866141731
 30
0
 40
0.0068897637795276
  0
CIRCLE
  5
118
330
1A
100
AcDbEntity
  8
BLACK
100
AcDbCircle
 10
-0.4808729133858268
 20
3.843307086614173
 30
0
 40
0.0068897637795276
  0
CIRCLE
  5
119
330
1A
100
AcDbEntity
  8
BLACK
100
AcDbCircle
 10
-0.3808729133858267
 20
3.843307086614173
 30
0
 40
0.0068897637795276
  0
CIRCLE
  5
11A
330
1A
100
AcDbEntity
  8
BLACK
100
AcDbCircle
 10
-0.4808729133858268
 20
3.7433070866141733
 30
0
 40
0.0068897637795276
  0
CIRCLE
  5
11B
330
1A
100
AcDbEntity
  8
BLACK
100
AcDbCircle
 10
-0.3808729133858267
 20
3.7433070866141733
 30
0
 40
0.0068897637795276
  0
CIRCLE
  5
11C
330
1A
100
AcDbEntity
  8
BLACK
100
AcDbCircle
 10
-0.4808729133858268
 20
3.6433070866141732
 30
0
 40
0.0068897637795276
  0
CIRCLE
  5
11D
330
1A
100
AcDbEntity
  8
BLACK
100
AcDbCircle
 10
-0.3808729133858267
 20
3.6433070866141732
 30
0
 40
0.0068897637795276
  0
CIRCLE
  5
11E
330
1A
100
AcDbEntity
  8
BLACK
100
AcDbCircle
 10
-0.4808729133858268
 20
3.5433070866141732
 30
0
 40
0.0068897637795276
  0
CIRCLE
  5
11F
330
1A
100
AcDbEntity
  8
BLACK
100
AcDbCircle
 10
-0.3808729133858267
 20
3.5433070866141732
 30
0
 40
0.0068897637795276
  0
CIRCLE
  5
120
330
1A
100
AcDbEntity
  8
BLACK
100
AcDbCircle
 10
0.937007874015748
 20
4.6023622047244093
 30
0
 40
0.0068897637795276
  0
CIRCLE
  5
121
330
1A
100
AcDbEntity
  8
BLACK
100
AcDbCircle
 10
0.937007874015748
 20
4.5023622047244096
 30
0
 40
0.0068897637795276
  0
CIRCLE
  5
122
330
1A
100
AcDbEntity
  8
BLACK
100
AcDbCircle
 10
0.8370078740157481
 20
4.6023622047244093
 30
0
 40
0.0068897637795276
  0
CIRCLE
  5
123
330
1A
100
AcDbEntity
  8
BLACK
100
AcDbCircle
 10
0.8370078740157481
 20
4.5023622047244096
 30
0
 40
0.0068897637795276
  0
CIRCLE
  5
124
330
1A
100
AcDbEntity
  8
BLACK
100
AcDbCircle
 10
0.7370079133858267
 20
4.6023622047244093
 30
0
 40
0.0068897637795276
  0
CIRCLE
  5
125
330
1A
100
AcDbEntity
  8
BLACK
100
AcDbCircle
 10
0.737007874015748
 20
4.5023622047244096
 30
0
 40
0.0068897637795276
  0
CIRCLE
  5
126
330
1A
100
AcDbEntity
  8
BLACK
100
AcDbCircle
 10
0.637007874015748
 20
4.6023622047244093
 30
0
 40
0.0068897637795276
  0
CIRCLE
  5
127
330
1A
100
AcDbEntity
  8
BLACK
100
AcDbCircle
 10
0.637007874015748
 20
4.5023622047244096
 30
0
 40
0.0068897637795276
  0
CIRCLE
  5
128
330
1A
100
AcDbEntity
  8
BLACK
100
AcDbCircle
 10
0.537007874015748
 20
4.6023622047244093
 30
0
 40
0.0068897637795276
  0
CIRCLE
  5
129
330
1A
100
AcDbEntity
  8
BLACK
100
AcDbCircle
 10
0.537007874015748
 20
4.5023622047244096
 30
0
 40
0.0068897637795276
  0
CIRCLE
  5
12A
330
1A
100
AcDbEntity
  8
BLACK
100
AcDbCircle
 10
-1.1299212598425197
 20
0.9409448818897638
 30
0
 40
0.0068897637795276
  0
CIRCLE
  5
12B
330
1A
100
AcDbEntity
  8
BLACK
100
AcDbCircle
 10
-0.7172244094488189
 20
0.5354330708661417
 30
0
 40
0.0068897637795276
  0
CIRCLE
  5
12C
330
1A
100
AcDbEntity
  8
BLACK
100
AcDbCircle
 10
-0.7172244094488189
 20
0.735433031496063
 30
0
 40
0.0068897637795276
  0
CIRCLE
  5
12D
330
1A
100
AcDbEntity
  8
BLACK
100
AcDbCircle
 10
0.0827755905511811
 20
0.2354330708661417
 30
0
 40
0.0068897637795276
  0
CIRCLE
  5
12E
330
1A
100
AcDbEntity
  8
BLACK
100
AcDbCircle
 10
0.0827755905511811
 20
0.6354330708661418
 30
0
 40
0.0068897637795276
  0
CIRCLE
  5
12F
330
1A
100
AcDbEntity
  8
BLACK
100
AcDbCircle
 10
0.0827755905511811
 20
1.0354330708661417
 30
0
 40
0.0068897637795276
  0
CIRCLE
  5
130
330
1A
100
AcDbEntity
  8
BLACK
100
AcDbCircle
 10
-0.7172244094488189
 20
1.0354330708661417
 30
0
 40
0.0068897637795276
  0
CIRCLE
  5
131
330
1A
100
AcDbEntity
  8
BLACK
100
AcDbCircle
 10
-0.7125984251968503
 20
4.5078740157480315
 30
0
 40
0.0068897637795276
  0
ARC
  5
132
330
1A
100
AcDbEntity
  8
BLACK
100
AcDbCircle
 10
-1.1085629921259843
 20
0.5433070866141733
 30
0
 40
0.0688976377952756
100
AcDbArc
 50
-90.00000000
 51
90.00000000
  0
ARC
  5
133
330
1A
100
AcDbEntity
  8
BLACK
100
AcDbCircle
 10
-1.1085629921259843
 20
0.5433070866141733
 30
0
 40
0.0688976377952756
100
AcDbArc
 50
90.00000000
 51
270.00000000
  0
LINE
  5
134
330
1A
100
AcDbEntity
  8
BLACK
  6
CONTINUOUS
100
AcDbLine
 10
-1.1184055118110237
 20
0.2480314960629921
 30
0
 11
-1.098720472440945
 21
0.2480314960629921
 31
0
  0
ARC
  5
135
330
1A
100
AcDbEntity
  8
BLACK
100
AcDbCircle
 10
-1.098720472440945
 20
0.3070866141732284
 30
0
 40
0.0590551181102362
100
AcDbArc
 50
-90.00000000
 51
90.00000000
  0
LINE
  5
136
330
1A
100
AcDbEntity
  8
BLACK
  6
CONTINUOUS
100
AcDbLine
 10
-1.098720472440945
 20
0.3661417322834646
 30
0
 11
-1.1184055118110237
 21
0.3661417322834646
 31
0
  0
ARC
  5
137
330
1A
100
AcDbEntity
  8
BLACK
100
AcDbCircle
 10
-1.1184055118110237
 20
0.3070866141732284
 30
0
 40
0.0590551181102362
100
AcDbArc
 50
90.00000000
 51
270.00000000
  0
ARC
  5
138
330
1A
100
AcDbEntity
  8
BLACK
100
AcDbCircle
 10
-1.2936023622047244
 20
0.4251968503937008
 30
0
 40
0.0688976377952756
100
AcDbArc
 50
-90.00000000
 51
90.00000000
  0
ARC
  5
139
330
1A
100
AcDbEntity
  8
BLACK
100
AcDbCircle
 10
-1.2936023622047244
 20
0.4251968503937008
 30
0
 40
0.0688976377952756
100
AcDbArc
 50
90.00000000
 51
270.00000000
  0
ENDSEC
  0
SECTION
  2
OBJECTS
  0
DICTIONARY
  5
20
330
0
100
AcDbDictionary
281
1
  3
ACAD_GROUP
350
13A
  3
ACAD_LAYOUT
350
21
  3
ACAD_PLOTSTYLENAME
350
11
  0
DICTIONARY
  5
13A
330
20
100
AcDbDictionary
281
1
  0
ACDBDICTIONARYWDFLT
  5
11
330
20
100
AcDbDictionary
281
1
  3
Normal
350
10
100
AcDbDictionaryWithDefault
340
10
  0
ACDBPLACEHOLDER
  5
10
330
11
  0
DICTIONARY
  5
21
330
20
100
AcDbDictionary
281
1
  3
Model
350
1D
  3
Layout1
350
1E
  3
Layout2
350
1F
  0
LAYOUT
  5
1D
330
21
100
AcDbPlotSettings
  1

  2
none_device
  4
A3
  6

 40
0.0
 41
0.0
 42
0.0
 43
0.0
 44
420.0
 45
297.0
 46
0.0
 47
0.0
 48
0.0
 49
0.0
140
0.0
141
0.0
142
1.0
143
1.0
 70
1024
 72
1
 73
0
 74
5
  7

 75
16
 76
0
 77
2
 78
300
147
1.0
148
0.0
149
0.0
100
AcDbLayout
  1
Model
 70
1
 71
0
 10
0.0
 20
0.0
 11
420.0
 21
297.0
 12
0.0
 22
0.0
 32
0.0
 14
1e+20
 24
1e+20
 34
1e+20
 15
-1e+20
 25
-1e+20
 35
-1e+20
146
0.0
 13
0.0
 23
0.0
 33
0.0
 16
1.0
 26
0.0
 36
0.0
 17
0.0
 27
1.0
 37
0.0
 76
0
330
1A
  0
LAYOUT
  5
1E
330
21
100
AcDbPlotSettings
  1

  2
none_device
  4
A3
  6

 40
0.0
 41
0.0
 42
0.0
 43
0.0
 44
420.0
 45
297.0
 46
0.0
 47
0.0
 48
0.0
 49
0.0
140
0.0
141
0.0
142
1.0
143
1.0
 70
0
 72
1
 73
0
 74
5
  7

 75
16
 76
0
 77
2
 78
300
147
1.0
148
0.0
149
0.0
100
AcDbLayout
  1
Layout1
 70
1
 71
1
 10
0.0
 20
0.0
 11
420.0
 21
297.0
 12
0.0
 22
0.0
 32
0.0
 14
1e+20
 24
1e+20
 34
1e+20
 15
-1e+20
 25
-1e+20
 35
-1e+20
146
0.0
 13
0.0
 23
0.0
 33
0.0
 16
1.0
 26
0.0
 36
0.0
 17
0.0
 27
1.0
 37
0.0
 76
0
330
1B
  0
LAYOUT
  5
1F
330
21
100
AcDbPlotSettings
  1

  2
none_device
  4
A3
  6

 40
0.0
 41
0.0
 42
0.0
 43
0.0
 44
420.0
 45
297.0
 46
0.0
 47
0.0
 48
0.0
 49
0.0
140
0.0
141
0.0
142
1.0
143
1.0
 70
0
 72
1
 73
0
 74
5
  7

 75
16
 76
0
 77
2
 78
300
147
1.0
148
0.0
149
0.0
100
AcDbLayout
  1
Layout2
 70
1
 71
2
 10
0.0
 20
0.0
 11
420.0
 21
297.0
 12
0.0
 22
0.0
 32
0.0
 14
1e+20
 24
1e+20
 34
1e+20
 15
-1e+20
 25
-1e+20
 35
-1e+20
146
0.0
 13
0.0
 23
0.0
 33
0.0
 16
1.0
 26
0.0
 36
0.0
 17
0.0
 27
1.0
 37
0.0
 76
0
330
1C
  0
ENDSEC
  0
EOF
