  0
SECTION
  2
HEADER
  9
$ANGBASE
  50
0.0
  9
$ANGDIR
  70
1
  9
$MEASUREMENT
  70
0
  9
$INSUNITS
  70
1
  0
ENDSEC
  0
SECTION
  2
TABLES
  0
TABLE
  2
LTYPE
  70
4
  0
LTYPE
  5
40F
  2
CONTINUOUS
  70
0
  3
Solid line
  72
65
  73
0
  40
0.0
  0
LTYPE
  5
410
  2
DASHDOT
 70
0
  3
Dash Dot ____ _ ____ _
 72
65
 73
4
 40
2.0
 49
1.25
 49
-0.25
 49
0.25
 49
-0.25
  0
LTYPE
  5
411
  2
DASHED
 70
0
  3
Dashed __ __ __ __ __
 72
65
 73
2
 40
0.75
 49
0.5
 49
-0.25
  0
LTYPE
  5
43B
  2
DOTTED
 70
0
  3
Dotted .  .  .  .
 72
65
 73
2
 40
0.2
 49
0.0
 49
-0.2
  0
ENDTAB
  0
TABLE
  2
STYLE
  70
4
  0
STYLE
  2
KICAD
  70
0
  40
0
  41
1
  42
1
  50
0
  71
0
  3
isocp.shx
  0
STYLE
  2
KICADB
  70
0
  40
0
  41
1
  42
1
  50
0
  71
0
  3
isocp.shx
  0
STYLE
  2
KICADI
  70
0
  40
0
  41
1
  42
1
  50
15
  71
0
  3
isocp.shx
  0
STYLE
  2
KICADBI
  70
0
  40
0
  41
1
  42
1
  50
15
  71
0
  3
isocp.shx
  0
ENDTAB
  0
TABLE
  2
LAYER
  70
1
  0
LAYER
  2
BLACK
  70
0
  62
250
  6
CONTINUOUS
  0
ENDTAB
  0
ENDSEC
  0
SECTION
  2
ENTITIES
0
LINE
8
BLACK
6
CONTINUOUS
10
-0.9274606299212598
20
0.5811023622047244
11
-0.9265566535433071
21
0.5809225590551181
0
LINE
8
BLACK
6
CONTINUOUS
10
-0.9265566535433071
20
0.5809225590551181
11
-0.9252782283464567
21
0.5796441338582677
0
LINE
8
BLACK
6
CONTINUOUS
10
-0.9252782283464567
20
0.5796441338582677
11
-0.9250984251968504
21
0.5787401574803149
0
LINE
8
BLACK
6
CONTINUOUS
10
-0.9250984251968504
20
0.5787401574803149
11
-0.9250984251968504
21
0.
0
LINE
8
BLACK
6
CONTINUOUS
10
-0.9250984251968504
20
0.
11
-0.9252782283464567
21
-0.0009039763779528
0
LINE
8
BLACK
6
CONTINUOUS
10
-0.9252782283464567
20
-0.0009039763779528
11
-0.9265566535433071
21
-0.0021824015748031
0
LINE
8
BLACK
6
CONTINUOUS
10
-0.9265566535433071
20
-0.0021824015748031
11
-0.9274606299212598
21
-0.0023622047244094
0
LINE
8
BLACK
6
CONTINUOUS
10
-0.9274606299212598
20
-0.0023622047244094
11
-1.2896653543307086
21
-0.0023622047244094
0
LINE
8
BLACK
6
CONTINUOUS
10
-1.2896653543307086
20
-0.0023622047244094
11
-1.2905693307086614
21
-0.0021824015748031
0
LINE
8
BLACK
6
CONTINUOUS
10
-1.2905693307086614
20
-0.0021824015748031
11
-1.2918477559055117
21
-0.0009039763779528
0
LINE
8
BLACK
6
CONTINUOUS
10
-1.2918477559055117
20
-0.0009039763779528
11
-1.292027559055118
21
0.
0
LINE
8
BLACK
6
CONTINUOUS
10
-1.292027559055118
20
0.
11
-1.292027559055118
21
0.3464566929133858
0
LINE
8
BLACK
6
CONTINUOUS
10
-1.292027559055118
20
0.3464566929133858
11
-1.2918477559055117
21
0.3473606692913386
0
LINE
8
BLACK
6
CONTINUOUS
10
-1.2918477559055117
20
0.3473606692913386
11
-1.2905693307086614
21
0.348639094488189
0
LINE
8
BLACK
6
CONTINUOUS
10
-1.2905693307086614
20
0.348639094488189
11
-1.2887613779527558
21
0.348639094488189
0
LINE
8
BLACK
6
CONTINUOUS
10
-1.2887613779527558
20
0.348639094488189
11
-1.2874829527559055
21
0.3473606692913386
0
LINE
8
BLACK
6
CONTINUOUS
10
-1.2874829527559055
20
0.3473606692913386
11
-1.2873031496062992
21
0.3464566929133858
0
LINE
8
BLACK
6
CONTINUOUS
10
-1.2873031496062992
20
0.3464566929133858
11
-1.2873031496062992
21
0.0023622047244094
0
LINE
8
BLACK
6
CONTINUOUS
10
-1.2873031496062992
20
0.0023622047244094
11
-0.9298228346456693
21
0.0023622047244094
0
LINE
8
BLACK
6
CONTINUOUS
10
-0.9298228346456693
20
0.0023622047244094
11
-0.9298228346456693
21
0.5763779921259843
0
LINE
8
BLACK
6
CONTINUOUS
10
-0.9298228346456693
20
0.5763779921259843
11
-1.0298228346456693
21
0.5763779921259843
0
LINE
8
BLACK
6
CONTINUOUS
10
-1.0298228346456693
20
0.5763779921259843
11
-1.0307268110236221
21
0.5765577952755906
0
LINE
8
BLACK
6
CONTINUOUS
10
-1.0307268110236221
20
0.5765577952755906
11
-1.0320052362204724
21
0.577836220472441
0
LINE
8
BLACK
6
CONTINUOUS
10
-1.0320052362204724
20
0.577836220472441
11
-1.0320052362204724
21
0.5796441732283465
0
LINE
8
BLACK
6
CONTINUOUS
10
-1.0320052362204724
20
0.5796441732283465
11
-1.0307268110236221
21
0.5809225984251969
0
LINE
8
BLACK
6
CONTINUOUS
10
-1.0307268110236221
20
0.5809225984251969
11
-1.0298228346456693
21
0.5811024015748031
0
LINE
8
BLACK
6
CONTINUOUS
10
-1.0298228346456693
20
0.5811024015748031
11
-0.9274606299212598
21
0.5811023622047244
0
LINE
8
BLACK
6
CONTINUOUS
10
-1.318756338582677
20
0.2098834251968504
11
-1.3186064960629922
21
0.2091301181102362
0
LINE
8
BLACK
6
CONTINUOUS
10
-1.3186064960629922
20
0.2091301181102362
11
-1.3186064960629922
21
0.1896325590551181
0
LINE
8
BLACK
6
CONTINUOUS
10
-1.3186064960629922
20
0.1896325590551181
11
-1.318756338582677
21
0.1888792519685039
0
LINE
8
BLACK
6
CONTINUOUS
10
-1.318756338582677
20
0.1888792519685039
11
-1.3198216929133857
21
0.1878138976377953
0
LINE
8
BLACK
6
CONTINUOUS
10
-1.3198216929133857
20
0.1878138976377953
11
-1.3213283070866142
21
0.1878138976377953
0
LINE
8
BLACK
6
CONTINUOUS
10
-1.3213283070866142
20
0.1878138976377953
11
-1.3223936614173228
21
0.1888792519685039
0
LINE
8
BLACK
6
CONTINUOUS
10
-1.3223936614173228
20
0.1888792519685039
11
-1.3225435039370079
21
0.1896325590551181
0
LINE
8
BLACK
6
CONTINUOUS
10
-1.3225435039370079
20
0.1896325590551181
11
-1.3225435039370079
21
0.2043777559055118
0
LINE
8
BLACK
6
CONTINUOUS
10
-1.3225435039370079
20
0.2043777559055118
11
-1.3371808267716536
21
0.1897404330708661
0
LINE
8
BLACK
6
CONTINUOUS
10
-1.3371808267716536
20
0.1897404330708661
11
-1.3372627952755904
21
0.1896857086614173
0
LINE
8
BLACK
6
CONTINUOUS
10
-1.3372627952755904
20
0.1896857086614173
11
-1.3372829921259841
21
0.1896452362204724
0
LINE
8
BLACK
6
CONTINUOUS
10
-1.3372829921259841
20
0.1896452362204724
11
-1.3375572440944881
21
0.189488937007874
0
LINE
8
BLACK
6
CONTINUOUS
10
-1.3375572440944881
20
0.189488937007874
11
-1.3378194488188977
21
0.1893137007874016
0
LINE
8
BLACK
6
CONTINUOUS
10
-1.3378194488188977
20
0.1893137007874016
11
-1.3378646456692913
21
0.1893137007874016
0
LINE
8
BLACK
6
CONTINUOUS
10
-1.3378646456692913
20
0.1893137007874016
11
-1.3379502755905512
21
0.1892648818897638
0
LINE
8
BLACK
6
CONTINUOUS
10
-1.3379502755905512
20
0.1892648818897638
11
-1.3424497244094489
21
0.1877650787401575
0
LINE
8
BLACK
6
CONTINUOUS
10
-1.3424497244094489
20
0.1877650787401575
11
-1.3427626771653542
21
0.1877256299212599
0
LINE
8
BLACK
6
CONTINUOUS
10
-1.3427626771653542
20
0.1877256299212599
11
-1.3430722047244095
21
0.1876640551181102
0
LINE
8
BLACK
6
CONTINUOUS
10
-1.3430722047244095
20
0.1876640551181102
11
-1.3460718110236221
21
0.1876640551181102
0
LINE
8
BLACK
6
CONTINUOUS
10
-1.3460718110236221
20
0.1876640551181102
11
-1.3461685433070867
21
0.1876833070866142
0
LINE
8
BLACK
6
CONTINUOUS
10
-1.3461685433070867
20
0.1876833070866142
11
-1.3462113385826771
21
0.1876690157480315
0
LINE
8
BLACK
6
CONTINUOUS
10
-1.3462113385826771
20
0.1876690157480315
11
-1.3465156692913385
21
0.1877523622047244
0
LINE
8
BLACK
6
CONTINUOUS
10
-1.3465156692913385
20
0.1877523622047244
11
-1.3468251181102362
21
0.1878138976377953
0
LINE
8
BLACK
6
CONTINUOUS
10
-1.3468251181102362
20
0.1878138976377953
11
-1.3468570472440944
21
0.1878458267716535
0
LINE
8
BLACK
6
CONTINUOUS
10
-1.3468570472440944
20
0.1878458267716535
11
-1.3469521259842518
21
0.1878718503937008
0
LINE
8
BLACK
6
CONTINUOUS
10
-1.3469521259842518
20
0.1878718503937008
11
-1.3499517716535432
21
0.1893716929133858
0
LINE
8
BLACK
6
CONTINUOUS
10
-1.3499517716535432
20
0.1893716929133858
11
-1.3502006692913386
21
0.1895648818897638
0
LINE
8
BLACK
6
CONTINUOUS
10
-1.3502006692913386
20
0.1895648818897638
11
-1.3504634251968504
21
0.1897404330708661
0
LINE
8
BLACK
6
CONTINUOUS
10
-1.3504634251968504
20
0.1897404330708661
11
-1.3519631889763779
21
0.1912402362204724
0
LINE
8
BLACK
6
CONTINUOUS
10
-1.3519631889763779
20
0.1912402362204724
11
-1.3521385039370077
21
0.1915025590551181
0
LINE
8
BLACK
6
CONTINUOUS
10
-1.3521385039370077
20
0.1915025590551181
11
-1.3523319291338582
21
0.191751811023622
0
LINE
8
BLACK
6
CONTINUOUS
10
-1.3523319291338582
20
0.191751811023622
11
-1.3538317322834645
21
0.1947514960629921
0
LINE
8
BLACK
6
CONTINUOUS
10
-1.3538317322834645
20
0.1947514960629921
11
-1.3538577952755906
21
0.1948465748031496
0
LINE
8
BLACK
6
CONTINUOUS
10
-1.3538577952755906
20
0.1948465748031496
11
-1.3538897244094488
21
0.1948785039370079
0
LINE
8
BLACK
6
CONTINUOUS
10
-1.3538897244094488
20
0.1948785039370079
11
-1.3539513385826771
21
0.1951881889763779
0
LINE
8
BLACK
6
CONTINUOUS
10
-1.3539513385826771
20
0.1951881889763779
11
-1.3540346062992126
21
0.1954922834645669
0
LINE
8
BLACK
6
CONTINUOUS
10
-1.3540346062992126
20
0.1954922834645669
11
-1.3540203543307086
21
0.1955351181102362
0
LINE
8
BLACK
6
CONTINUOUS
10
-1.3540203543307086
20
0.1955351181102362
11
-1.3540395669291339
21
0.195631811023622
0
LINE
8
BLACK
6
CONTINUOUS
10
-1.3540395669291339
20
0.195631811023622
11
-1.3540395669291339
21
0.2031308661417323
0
LINE
8
BLACK
6
CONTINUOUS
10
-1.3540395669291339
20
0.2031308661417323
11
-1.3540203543307086
21
0.2032275984251969
0
LINE
8
BLACK
6
CONTINUOUS
10
-1.3540203543307086
20
0.2032275984251969
11
-1.3540346062992126
21
0.2032704330708661
0
LINE
8
BLACK
6
CONTINUOUS
10
-1.3540346062992126
20
0.2032704330708661
11
-1.3539512992125984
21
0.2035746850393701
0
LINE
8
BLACK
6
CONTINUOUS
10
-1.3539512992125984
20
0.2035746850393701
11
-1.3538897244094488
21
0.2038841732283465
0
LINE
8
BLACK
6
CONTINUOUS
10
-1.3538897244094488
20
0.2038841732283465
11
-1.3538577952755906
21
0.2039161417322835
0
LINE
8
BLACK
6
CONTINUOUS
10
-1.3538577952755906
20
0.2039161417322835
11
-1.3538317322834645
21
0.2040112204724409
0
LINE
8
BLACK
6
CONTINUOUS
10
-1.3538317322834645
20
0.2040112204724409
11
-1.3523319291338582
21
0.2070108267716535
0
LINE
8
BLACK
6
CONTINUOUS
10
-1.3523319291338582
20
0.2070108267716535
11
-1.3521385826771652
21
0.20726
0
LINE
8
BLACK
6
CONTINUOUS
10
-1.3521385826771652
20
0.20726
11
-1.3519632283464567
21
0.2075224015748031
0
LINE
8
BLACK
6
CONTINUOUS
10
-1.3519632283464567
20
0.2075224015748031
11
-1.3504634251968504
21
0.2090222440944882
0
LINE
8
BLACK
6
CONTINUOUS
10
-1.3504634251968504
20
0.2090222440944882
11
-1.3498248031496063
21
0.209448937007874
0
LINE
8
BLACK
6
CONTINUOUS
10
-1.3498248031496063
20
0.209448937007874
11
-1.3483181496062993
21
0.2094489763779528
0
LINE
8
BLACK
6
CONTINUOUS
10
-1.3483181496062993
20
0.2094489763779528
11
-1.3472528346456694
21
0.2083836614173228
0
LINE
8
BLACK
6
CONTINUOUS
10
-1.3472528346456694
20
0.2083836614173228
11
-1.3472527952755906
21
0.2068770078740158
0
LINE
8
BLACK
6
CONTINUOUS
10
-1.3472527952755906
20
0.2068770078740158
11
-1.3476794881889764
21
0.2062383858267716
0
LINE
8
BLACK
6
CONTINUOUS
10
-1.3476794881889764
20
0.2062383858267716
11
-1.348953464566929
21
0.2049644094488189
0
LINE
8
BLACK
6
CONTINUOUS
10
-1.348953464566929
20
0.2049644094488189
11
-1.3501025590551181
21
0.2026661811023622
0
LINE
8
BLACK
6
CONTINUOUS
10
-1.3501025590551181
20
0.2026661811023622
11
-1.3501025590551181
21
0.1960964960629921
0
LINE
8
BLACK
6
CONTINUOUS
10
-1.3501025590551181
20
0.1960964960629921
11
-1.3489534251968505
21
0.193798188976378
0
LINE
8
BLACK
6
CONTINUOUS
10
-1.3489534251968505
20
0.193798188976378
11
-1.3479053543307087
21
0.192750157480315
0
LINE
8
BLACK
6
CONTINUOUS
10
-1.3479053543307087
20
0.192750157480315
11
-1.3456071259842519
21
0.191601062992126
0
LINE
8
BLACK
6
CONTINUOUS
10
-1.3456071259842519
20
0.191601062992126
11
-1.3433916141732283
21
0.191601062992126
0
LINE
8
BLACK
6
CONTINUOUS
10
-1.3433916141732283
20
0.191601062992126
11
-1.3396361023622048
21
0.1928529133858268
0
LINE
8
BLACK
6
CONTINUOUS
10
-1.3396361023622048
20
0.1928529133858268
11
-1.3219669291338583
21
0.2105220472440945
0
LINE
8
BLACK
6
CONTINUOUS
10
-1.3219669291338583
20
0.2105220472440945
11
-1.3213283070866142
21
0.2109487795275591
0
LINE
8
BLACK
6
CONTINUOUS
10
-1.3213283070866142
20
0.2109487795275591
11
-1.3198216929133857
21
0.2109487795275591
0
LINE
8
BLACK
6
CONTINUOUS
10
-1.3198216929133857
20
0.2109487795275591
11
-1.318756338582677
21
0.2098834251968504
0
LINE
8
BLACK
6
CONTINUOUS
10
-1.318756338582677
20
0.2338804330708661
11
-1.3186064960629922
21
0.233127125984252
0
LINE
8
BLACK
6
CONTINUOUS
10
-1.3186064960629922
20
0.233127125984252
11
-1.3186064960629922
21
0.2301274803149606
0
LINE
8
BLACK
6
CONTINUOUS
10
-1.3186064960629922
20
0.2301274803149606
11
-1.3186680708661418
21
0.2298179527559055
0
LINE
8
BLACK
6
CONTINUOUS
10
-1.3186680708661418
20
0.2298179527559055
11
-1.3187075196850393
21
0.229505
0
LINE
8
BLACK
6
CONTINUOUS
10
-1.3187075196850393
20
0.229505
11
-1.3202073228346456
21
0.2250055905511811
0
LINE
8
BLACK
6
CONTINUOUS
10
-1.3202073228346456
20
0.2250055905511811
11
-1.3202561417322833
21
0.2249199606299213
0
LINE
8
BLACK
6
CONTINUOUS
10
-1.3202561417322833
20
0.2249199606299213
11
-1.3202561417322833
21
0.2248747244094488
0
LINE
8
BLACK
6
CONTINUOUS
10
-1.3202561417322833
20
0.2248747244094488
11
-1.3204315354330709
21
0.2246122834645669
0
LINE
8
BLACK
6
CONTINUOUS
10
-1.3204315354330709
20
0.2246122834645669
11
-1.3205876771653542
21
0.2243383070866142
0
LINE
8
BLACK
6
CONTINUOUS
10
-1.3205876771653542
20
0.2243383070866142
11
-1.3206281102362205
21
0.2243181102362205
0
LINE
8
BLACK
6
CONTINUOUS
10
-1.3206281102362205
20
0.2243181102362205
11
-1.3206828740157479
21
0.2242361023622047
0
LINE
8
BLACK
6
CONTINUOUS
10
-1.3206828740157479
20
0.2242361023622047
11
-1.3236825196850392
21
0.2212364960629921
0
LINE
8
BLACK
6
CONTINUOUS
10
-1.3236825196850392
20
0.2212364960629921
11
-1.3237644881889763
21
0.2211817716535433
0
LINE
8
BLACK
6
CONTINUOUS
10
-1.3237644881889763
20
0.2211817716535433
11
-1.32378468503937
21
0.2211412992125984
0
LINE
8
BLACK
6
CONTINUOUS
10
-1.32378468503937
20
0.2211412992125984
11
-1.3240589370078739
21
0.220985
0
LINE
8
BLACK
6
CONTINUOUS
10
-1.3240589370078739
20
0.220985
11
-1.3243211417322833
21
0.2208097637795275
0
LINE
8
BLACK
6
CONTINUOUS
10
-1.3243211417322833
20
0.2208097637795275
11
-1.3243663385826772
21
0.2208097637795275
0
LINE
8
BLACK
6
CONTINUOUS
10
-1.3243663385826772
20
0.2208097637795275
11
-1.3244519685039369
21
0.2207609448818898
0
LINE
8
BLACK
6
CONTINUOUS
10
-1.3244519685039369
20
0.2207609448818898
11
-1.3289514173228345
21
0.2192611417322834
0
LINE
8
BLACK
6
CONTINUOUS
10
-1.3289514173228345
20
0.2192611417322834
11
-1.3292643700787401
21
0.2192216929133858
0
LINE
8
BLACK
6
CONTINUOUS
10
-1.3292643700787401
20
0.2192216929133858
11
-1.3295738976377953
21
0.2191601181102362
0
LINE
8
BLACK
6
CONTINUOUS
10
-1.3295738976377953
20
0.2191601181102362
11
-1.352071062992126
21
0.2191601181102362
0
LINE
8
BLACK
6
CONTINUOUS
10
-1.352071062992126
20
0.2191601181102362
11
-1.3528243700787401
21
0.2193099606299213
0
LINE
8
BLACK
6
CONTINUOUS
10
-1.3528243700787401
20
0.2193099606299213
11
-1.3538897244094488
21
0.2203753149606299
0
LINE
8
BLACK
6
CONTINUOUS
10
-1.3538897244094488
20
0.2203753149606299
11
-1.3538897244094488
21
0.2218819291338583
0
LINE
8
BLACK
6
CONTINUOUS
10
-1.3538897244094488
20
0.2218819291338583
11
-1.3528243700787401
21
0.2229472834645669
0
LINE
8
BLACK
6
CONTINUOUS
10
-1.3528243700787401
20
0.2229472834645669
11
-1.352071062992126
21
0.223097125984252
0
LINE
8
BLACK
6
CONTINUOUS
10
-1.352071062992126
20
0.223097125984252
11
-1.3298933070866141
21
0.223097125984252
0
LINE
8
BLACK
6
CONTINUOUS
10
-1.3298933070866141
20
0.223097125984252
11
-1.3261377952755906
21
0.2243489763779528
0
LINE
8
BLACK
6
CONTINUOUS
10
-1.3261377952755906
20
0.2243489763779528
11
-1.3237953543307086
21
0.2266914566929134
0
LINE
8
BLACK
6
CONTINUOUS
10
-1.3237953543307086
20
0.2266914566929134
11
-1.3225435039370079
21
0.2304468897637795
0
LINE
8
BLACK
6
CONTINUOUS
10
-1.3225435039370079
20
0.2304468897637795
11
-1.3225435039370079
21
0.233127125984252
0
LINE
8
BLACK
6
CONTINUOUS
10
-1.3225435039370079
20
0.233127125984252
11
-1.3223936614173228
21
0.2338804330708661
0
LINE
8
BLACK
6
CONTINUOUS
10
-1.3223936614173228
20
0.2338804330708661
11
-1.3213283070866142
21
0.2349457874015748
0
LINE
8
BLACK
6
CONTINUOUS
10
-1.3213283070866142
20
0.2349457874015748
11
-1.3198216929133857
21
0.2349457874015748
0
LINE
8
BLACK
6
CONTINUOUS
10
-1.3198216929133857
20
0.2349457874015748
11
-1.318756338582677
21
0.2338804330708661
0
LINE
8
BLACK
6
CONTINUOUS
10
-1.1824621653543306
20
0.5809225590551181
11
-1.1811837401574803
21
0.5796441338582677
0
LINE
8
BLACK
6
CONTINUOUS
10
-1.1811837401574803
20
0.5796441338582677
11
-1.1811837401574803
21
0.5778361811023622
0
LINE
8
BLACK
6
CONTINUOUS
10
-1.1811837401574803
20
0.5778361811023622
11
-1.1824621653543306
21
0.5765577559055118
0
LINE
8
BLACK
6
CONTINUOUS
10
-1.1824621653543306
20
0.5765577559055118
11
-1.1833661417322834
21
0.5763779527559055
0
LINE
8
BLACK
6
CONTINUOUS
10
-1.1833661417322834
20
0.5763779527559055
11
-1.2873031496062992
21
0.5763779527559055
0
LINE
8
BLACK
6
CONTINUOUS
10
-1.2873031496062992
20
0.5763779527559055
11
-1.2873031496062992
21
0.5039370078740157
0
LINE
8
BLACK
6
CONTINUOUS
10
-1.2873031496062992
20
0.5039370078740157
11
-1.2874829527559055
21
0.5030330314960629
0
LINE
8
BLACK
6
CONTINUOUS
10
-1.2874829527559055
20
0.5030330314960629
11
-1.2887613779527558
21
0.5017546062992125
0
LINE
8
BLACK
6
CONTINUOUS
10
-1.2887613779527558
20
0.5017546062992125
11
-1.2905693307086614
21
0.5017546062992125
0
LINE
8
BLACK
6
CONTINUOUS
10
-1.2905693307086614
20
0.5017546062992125
11
-1.2918477559055117
21
0.5030330314960629
0
LINE
8
BLACK
6
CONTINUOUS
10
-1.2918477559055117
20
0.5030330314960629
11
-1.292027559055118
21
0.5039370078740157
0
LINE
8
BLACK
6
CONTINUOUS
10
-1.292027559055118
20
0.5039370078740157
11
-1.292027559055118
21
0.5787401574803149
0
LINE
8
BLACK
6
CONTINUOUS
10
-1.292027559055118
20
0.5787401574803149
11
-1.2918477559055117
21
0.5796441338582677
0
LINE
8
BLACK
6
CONTINUOUS
10
-1.2918477559055117
20
0.5796441338582677
11
-1.2905693307086614
21
0.5809225590551181
0
LINE
8
BLACK
6
CONTINUOUS
10
-1.2905693307086614
20
0.5809225590551181
11
-1.2896653543307086
21
0.5811023622047244
0
LINE
8
BLACK
6
CONTINUOUS
10
-1.2896653543307086
20
0.5811023622047244
11
-1.1833661417322834
21
0.5811023622047244
0
LINE
8
BLACK
6
CONTINUOUS
10
-1.1833661417322834
20
0.5811023622047244
11
-1.1824621653543306
21
0.5809225590551181
0
LINE
8
BLACK
6
CONTINUOUS
10
-0.9186826377952756
20
0.5887965748031496
11
-0.9174042125984252
21
0.5875181496062992
0
LINE
8
BLACK
6
CONTINUOUS
10
-0.9174042125984252
20
0.5875181496062992
11
-0.9172244094488189
21
0.5866141732283464
0
LINE
8
BLACK
6
CONTINUOUS
10
-0.9172244094488189
20
0.5866141732283464
11
-0.9172244094488189
21
0.5452755905511811
0
LINE
8
BLACK
6
CONTINUOUS
10
-0.9172244094488189
20
0.5452755905511811
11
-0.9174042125984252
21
0.5443716141732283
0
LINE
8
BLACK
6
CONTINUOUS
10
-0.9174042125984252
20
0.5443716141732283
11
-0.9186826377952756
21
0.5430931889763779
0
LINE
8
BLACK
6
CONTINUOUS
10
-0.9186826377952756
20
0.5430931889763779
11
-0.9204905905511811
21
0.5430931889763779
0
LINE
8
BLACK
6
CONTINUOUS
10
-0.9204905905511811
20
0.5430931889763779
11
-0.9217690157480315
21
0.5443716141732283
0
LINE
8
BLACK
6
CONTINUOUS
10
-0.9217690157480315
20
0.5443716141732283
11
-0.9219488188976378
21
0.5452755905511811
0
LINE
8
BLACK
6
CONTINUOUS
10
-0.9219488188976378
20
0.5452755905511811
11
-0.9219488188976378
21
0.584251968503937
0
LINE
8
BLACK
6
CONTINUOUS
10
-0.9219488188976378
20
0.584251968503937
11
-0.9609251968503937
21
0.584251968503937
0
LINE
8
BLACK
6
CONTINUOUS
10
-0.9609251968503937
20
0.584251968503937
11
-0.9618291732283465
21
0.5844317716535433
0
LINE
8
BLACK
6
CONTINUOUS
10
-0.9618291732283465
20
0.5844317716535433
11
-0.9631075984251968
21
0.5857101968503937
0
LINE
8
BLACK
6
CONTINUOUS
10
-0.9631075984251968
20
0.5857101968503937
11
-0.9631075984251968
21
0.5875181496062992
0
LINE
8
BLACK
6
CONTINUOUS
10
-0.9631075984251968
20
0.5875181496062992
11
-0.9618291732283465
21
0.5887965748031496
0
LINE
8
BLACK
6
CONTINUOUS
10
-0.9618291732283465
20
0.5887965748031496
11
-0.9609251968503937
21
0.5889763779527559
0
LINE
8
BLACK
6
CONTINUOUS
10
-0.9609251968503937
20
0.5889763779527559
11
-0.9195866141732283
21
0.5889763779527559
0
LINE
8
BLACK
6
CONTINUOUS
10
-0.9195866141732283
20
0.5889763779527559
11
-0.9186826377952756
21
0.5887965748031496
0
CIRCLE
8
BLACK
10
-0.2013453543307087
20
3.6417322834645667
40
0.0068897637795276
0
CIRCLE
8
BLACK
10
-0.1013453543307087
20
3.6417322834645667
40
0.0068897637795276
0
CIRCLE
8
BLACK
10
-1.1299212598425197
20
0.7874015748031495
40
0.0068897637795276
0
CIRCLE
8
BLACK
10
0.5364499212598425
20
3.2165354330708662
40
0.0068897637795276
0
CIRCLE
8
BLACK
10
0.3986546456692913
20
3.2165354330708662
40
0.0068897637795276
0
CIRCLE
8
BLACK
10
1.0055118110236221
20
0.2188976377952756
40
0.0068897637795276
0
CIRCLE
8
BLACK
10
0.5055118110236221
20
0.2188976377952756
40
0.0068897637795276
0
CIRCLE
8
BLACK
10
0.8956692913385826
20
0.3188976377952756
40
0.0068897637795276
0
CIRCLE
8
BLACK
10
0.8556692913385826
20
0.3889764173228346
40
0.0068897637795276
0
CIRCLE
8
BLACK
10
0.8156692913385827
20
0.3188976377952756
40
0.0068897637795276
0
CIRCLE
8
BLACK
10
0.7756692913385826
20
0.3889764173228346
40
0.0068897637795276
0
CIRCLE
8
BLACK
10
0.7356692913385826
20
0.3188976377952756
40
0.0068897637795276
0
CIRCLE
8
BLACK
10
0.6956692913385827
20
0.3889764173228346
40
0.0068897637795276
0
CIRCLE
8
BLACK
10
0.6556692913385826
20
0.3188976377952756
40
0.0068897637795276
0
CIRCLE
8
BLACK
10
0.6156693307086614
20
0.3889763779527559
40
0.0068897637795276
0
CIRCLE
8
BLACK
10
1.0255905511811023
20
0.5787401574803149
40
0.0068897637795276
0
CIRCLE
8
BLACK
10
0.9354330708661417
20
0.5787401574803149
40
0.0068897637795276
0
CIRCLE
8
BLACK
10
0.5755905511811024
20
0.5787401574803149
40
0.0068897637795276
0
CIRCLE
8
BLACK
10
0.4854330708661417
20
0.5787401574803149
40
0.0068897637795276
0
CIRCLE
8
BLACK
10
1.0755905511811024
20
0.3539370078740157
40
0.0068897637795276
0
CIRCLE
8
BLACK
10
0.4354330708661417
20
0.3539370078740157
40
0.0068897637795276
0
CIRCLE
8
BLACK
10
-0.2013453543307087
20
3.9448818897637796
40
0.0068897637795276
0
CIRCLE
8
BLACK
10
-0.1013453543307087
20
3.9448818897637796
40
0.0068897637795276
0
CIRCLE
8
BLACK
10
-1.3218503937007873
20
4.466929133858268
40
0.0068897637795276
0
CIRCLE
8
BLACK
10
-1.2218503937007874
20
4.466929133858268
40
0.0068897637795276
0
CIRCLE
8
BLACK
10
-1.3218503937007873
20
4.3669291338582674
40
0.0068897637795276
0
CIRCLE
8
BLACK
10
-1.2218503937007874
20
4.3669291338582674
40
0.0068897637795276
0
CIRCLE
8
BLACK
10
-1.3218503937007873
20
4.2669291338582678
40
0.0068897637795276
0
CIRCLE
8
BLACK
10
-1.2218503937007874
20
4.2669291338582678
40
0.0068897637795276
0
CIRCLE
8
BLACK
10
-1.3218503937007873
20
4.1669291338582672
40
0.0068897637795276
0
CIRCLE
8
BLACK
10
-1.2218503937007874
20
4.1669291338582672
40
0.0068897637795276
0
CIRCLE
8
BLACK
10
-1.3218503937007873
20
4.0669291338582676
40
0.0068897637795276
0
CIRCLE
8
BLACK
10
-1.2218503937007874
20
4.0669291338582676
40
0.0068897637795276
0
CIRCLE
8
BLACK
10
-1.3218503937007873
20
3.9669291338582675
40
0.0068897637795276
0
CIRCLE
8
BLACK
10
-1.2218503937007874
20
3.9669291338582675
40
0.0068897637795276
0
CIRCLE
8
BLACK
10
-1.3218503937007873
20
3.8669291338582674
40
0.0068897637795276
0
CIRCLE
8
BLACK
10
-1.2218503937007874
20
3.8669291338582674
40
0.0068897637795276
0
CIRCLE
8
BLACK
10
-1.3218503937007873
20
3.7669291338582678
40
0.0068897637795276
0
CIRCLE
8
BLACK
10
-1.2218503937007874
20
3.7669291338582678
40
0.0068897637795276
0
CIRCLE
8
BLACK
10
-1.3218503937007873
20
3.6669291338582677
40
0.0068897637795276
0
CIRCLE
8
BLACK
10
-1.2218503937007874
20
3.6669291338582677
40
0.0068897637795276
0
CIRCLE
8
BLACK
10
-1.3218503937007873
20
3.5669291338582676
40
0.0068897637795276
0
CIRCLE
8
BLACK
10
-1.2218503937007874
20
3.5669291338582676
40
0.0068897637795276
0
CIRCLE
8
BLACK
10
-1.3218503937007873
20
3.4669291338582675
40
0.0068897637795276
0
CIRCLE
8
BLACK
10
-1.2218503937007874
20
3.4669291338582675
40
0.0068897637795276
0
CIRCLE
8
BLACK
10
-1.3218503937007873
20
3.3669291338582674
40
0.0068897637795276
0
CIRCLE
8
BLACK
10
-1.2218503937007874
20
3.3669291338582674
40
0.0068897637795276
0
CIRCLE
8
BLACK
10
-1.3218503937007873
20
3.2669291338582678
40
0.0068897637795276
0
CIRCLE
8
BLACK
10
-1.2218503937007874
20
3.2669291338582678
40
0.0068897637795276
0
CIRCLE
8
BLACK
10
-1.3218503937007873
20
3.1669291338582677
40
0.0068897637795276
0
CIRCLE
8
BLACK
10
-1.2218503937007874
20
3.1669291338582677
40
0.0068897637795276
0
CIRCLE
8
BLACK
10
-1.3218503937007873
20
3.0669291338582676
40
0.0068897637795276
0
CIRCLE
8
BLACK
10
-1.2218503937007874
20
3.0669291338582676
40
0.0068897637795276
0
CIRCLE
8
BLACK
10
-1.3218503937007873
20
2.9669291338582675
40
0.0068897637795276
0
CIRCLE
8
BLACK
10
-1.2218503937007874
20
2.9669291338582675
40
0.0068897637795276
0
CIRCLE
8
BLACK
10
-1.3218503937007873
20
2.8669291338582679
40
0.0068897637795276
0
CIRCLE
8
BLACK
10
-1.2218503937007874
20
2.8669291338582679
40
0.0068897637795276
0
CIRCLE
8
BLACK
10
-1.3218503937007873
20
2.7669291338582678
40
0.0068897637795276
0
CIRCLE
8
BLACK
10
-1.2218503937007874
20
2.7669291338582678
40
0.0068897637795276
0
CIRCLE
8
BLACK
10
-1.3218503937007873
20
2.6669291338582677
40
0.0068897637795276
0
CIRCLE
8
BLACK
10
-1.2218503937007874
20
2.6669291338582677
40
0.0068897637795276
0
CIRCLE
8
BLACK
10
-1.3218503937007873
20
2.5669291338582676
40
0.0068897637795276
0
CIRCLE
8
BLACK
10
-1.2218503937007874
20
2.5669291338582676
40
0.0068897637795276
0
CIRCLE
8
BLACK
10
-0.2013453543307087
20
3.8425196850393699
40
0.0068897637795276
0
CIRCLE
8
BLACK
10
-0.1013453543307087
20
3.8425196850393699
40
0.0068897637795276
0
CIRCLE
8
BLACK
10
-0.2013453543307087
20
3.5433070866141732
40
0.0068897637795276
0
CIRCLE
8
BLACK
10
-0.1013453543307087
20
3.5433070866141732
40
0.0068897637795276
0
CIRCLE
8
BLACK
10
0.7125984251968503
20
1.7637795275590551
40
0.0068897637795276
0
CIRCLE
8
BLACK
10
0.7125984251968503
20
1.8637796062992125
40
0.0068897637795276
0
CIRCLE
8
BLACK
10
0.84251968503937
20
1.7637795275590551
40
0.0068897637795276
0
CIRCLE
8
BLACK
10
0.84251968503937
20
1.8637795275590552
40
0.0068897637795276
0
CIRCLE
8
BLACK
10
0.84251968503937
20
1.9637794881889763
40
0.0068897637795276
0
CIRCLE
8
BLACK
10
-1.6112204724409449
20
0.5039370078740157
40
0.0068897637795276
0
CIRCLE
8
BLACK
10
1.6348425196850394
20
3.4704724409448819
40
0.0068897637795276
0
CIRCLE
8
BLACK
10
1.6348425196850394
20
0.7106299212598425
40
0.0068897637795276
0
CIRCLE
8
BLACK
10
-0.4808729133858268
20
3.9433070866141731
40
0.0068897637795276
0
CIRCLE
8
BLACK
10
-0.3808729133858267
20
3.9433070866141731
40
0.0068897637795276
0
CIRCLE
8
BLACK
10
-0.4808729133858268
20
3.843307086614173
40
0.0068897637795276
0
CIRCLE
8
BLACK
10
-0.3808729133858267
20
3.843307086614173
40
0.0068897637795276
0
CIRCLE
8
BLACK
10
-0.4808729133858268
20
3.7433070866141733
40
0.0068897637795276
0
CIRCLE
8
BLACK
10
-0.3808729133858267
20
3.7433070866141733
40
0.0068897637795276
0
CIRCLE
8
BLACK
10
-0.4808729133858268
20
3.6433070866141732
40
0.0068897637795276
0
CIRCLE
8
BLACK
10
-0.3808729133858267
20
3.6433070866141732
40
0.0068897637795276
0
CIRCLE
8
BLACK
10
-0.4808729133858268
20
3.5433070866141732
40
0.0068897637795276
0
CIRCLE
8
BLACK
10
-0.3808729133858267
20
3.5433070866141732
40
0.0068897637795276
0
CIRCLE
8
BLACK
10
0.937007874015748
20
4.6023622047244093
40
0.0068897637795276
0
CIRCLE
8
BLACK
10
0.937007874015748
20
4.5023622047244096
40
0.0068897637795276
0
CIRCLE
8
BLACK
10
0.8370078740157481
20
4.6023622047244093
40
0.0068897637795276
0
CIRCLE
8
BLACK
10
0.8370078740157481
20
4.5023622047244096
40
0.0068897637795276
0
CIRCLE
8
BLACK
10
0.7370079133858267
20
4.6023622047244093
40
0.0068897637795276
0
CIRCLE
8
BLACK
10
0.737007874015748
20
4.5023622047244096
40
0.0068897637795276
0
CIRCLE
8
BLACK
10
0.637007874015748
20
4.6023622047244093
40
0.0068897637795276
0
CIRCLE
8
BLACK
10
0.637007874015748
20
4.5023622047244096
40
0.0068897637795276
0
CIRCLE
8
BLACK
10
0.537007874015748
20
4.6023622047244093
40
0.0068897637795276
0
CIRCLE
8
BLACK
10
0.537007874015748
20
4.5023622047244096
40
0.0068897637795276
0
CIRCLE
8
BLACK
10
-1.1299212598425197
20
0.9409448818897638
40
0.0068897637795276
0
CIRCLE
8
BLACK
10
-0.7172244094488189
20
0.5354330708661417
40
0.0068897637795276
0
CIRCLE
8
BLACK
10
-0.7172244094488189
20
0.735433031496063
40
0.0068897637795276
0
CIRCLE
8
BLACK
10
0.0827755905511811
20
0.2354330708661417
40
0.0068897637795276
0
CIRCLE
8
BLACK
10
0.0827755905511811
20
0.6354330708661418
40
0.0068897637795276
0
CIRCLE
8
BLACK
10
0.0827755905511811
20
1.0354330708661417
40
0.0068897637795276
0
CIRCLE
8
BLACK
10
-0.7172244094488189
20
1.0354330708661417
40
0.0068897637795276
0
CIRCLE
8
BLACK
10
-0.7125984251968503
20
4.5078740157480315
40
0.0068897637795276
0
ARC
8
BLACK
10
-1.1085629921259843
20
0.5433070866141733
40
0.0688976377952756
50
-90.00000000
51
90.00000000
0
ARC
8
BLACK
10
-1.1085629921259843
20
0.5433070866141733
40
0.0688976377952756
50
90.00000000
51
270.00000000
0
LINE
8
BLACK
6
CONTINUOUS
10
-1.1184055118110237
20
0.2480314960629921
11
-1.098720472440945
21
0.2480314960629921
0
ARC
8
BLACK
10
-1.098720472440945
20
0.3070866141732284
40
0.0590551181102362
50
-90.00000000
51
90.00000000
0
LINE
8
BLACK
6
CONTINUOUS
10
-1.098720472440945
20
0.3661417322834646
11
-1.1184055118110237
21
0.3661417322834646
0
ARC
8
BLACK
10
-1.1184055118110237
20
0.3070866141732284
40
0.0590551181102362
50
90.00000000
51
270.00000000
0
ARC
8
BLACK
10
-1.2936023622047244
20
0.4251968503937008
40
0.0688976377952756
50
-90.00000000
51
90.00000000
0
ARC
8
BLACK
10
-1.2936023622047244
20
0.4251968503937008
40
0.0688976377952756
50
90.00000000
51
270.00000000
0
CIRCLE
8
BLACK
10
-0.2013453543307087
20
3.6417322834645667
40
0.0068897637795276
0
CIRCLE
8
BLACK
10
-0.1013453543307087
20
3.6417322834645667
40
0.0068897637795276
0
CIRCLE
8
BLACK
10
-1.1299212598425197
20
0.7874015748031495
40
0.0068897637795276
0
CIRCLE
8
BLACK
10
0.5364499212598425
20
3.2165354330708662
40
0.0068897637795276
0
CIRCLE
8
BLACK
10
0.3986546456692913
20
3.2165354330708662
40
0.0068897637795276
0
CIRCLE
8
BLACK
10
1.0055118110236221
20
0.2188976377952756
40
0.0068897637795276
0
CIRCLE
8
BLACK
10
0.5055118110236221
20
0.2188976377952756
40
0.0068897637795276
0
CIRCLE
8
BLACK
10
0.8956692913385826
20
0.3188976377952756
40
0.0068897637795276
0
CIRCLE
8
BLACK
10
0.8556692913385826
20
0.3889764173228346
40
0.0068897637795276
0
CIRCLE
8
BLACK
10
0.8156692913385827
20
0.3188976377952756
40
0.0068897637795276
0
CIRCLE
8
BLACK
10
0.7756692913385826
20
0.3889764173228346
40
0.0068897637795276
0
CIRCLE
8
BLACK
10
0.7356692913385826
20
0.3188976377952756
40
0.0068897637795276
0
CIRCLE
8
BLACK
10
0.6956692913385827
20
0.3889764173228346
40
0.0068897637795276
0
CIRCLE
8
BLACK
10
0.6556692913385826
20
0.3188976377952756
40
0.0068897637795276
0
CIRCLE
8
BLACK
10
0.6156693307086614
20
0.3889763779527559
40
0.0068897637795276
0
CIRCLE
8
BLACK
10
1.0255905511811023
20
0.5787401574803149
40
0.0068897637795276
0
CIRCLE
8
BLACK
10
0.9354330708661417
20
0.5787401574803149
40
0.0068897637795276
0
CIRCLE
8
BLACK
10
0.5755905511811024
20
0.5787401574803149
40
0.0068897637795276
0
CIRCLE
8
BLACK
10
0.4854330708661417
20
0.5787401574803149
40
0.0068897637795276
0
CIRCLE
8
BLACK
10
1.0755905511811024
20
0.3539370078740157
40
0.0068897637795276
0
CIRCLE
8
BLACK
10
0.4354330708661417
20
0.3539370078740157
40
0.0068897637795276
0
CIRCLE
8
BLACK
10
-0.2013453543307087
20
3.9448818897637796
40
0.0068897637795276
0
CIRCLE
8
BLACK
10
-0.1013453543307087
20
3.9448818897637796
40
0.0068897637795276
0
CIRCLE
8
BLACK
10
-1.3218503937007873
20
4.466929133858268
40
0.0068897637795276
0
CIRCLE
8
BLACK
10
-1.2218503937007874
20
4.466929133858268
40
0.0068897637795276
0
CIRCLE
8
BLACK
10
-1.3218503937007873
20
4.3669291338582674
40
0.0068897637795276
0
CIRCLE
8
BLACK
10
-1.2218503937007874
20
4.3669291338582674
40
0.0068897637795276
0
CIRCLE
8
BLACK
10
-1.3218503937007873
20
4.2669291338582678
40
0.0068897637795276
0
CIRCLE
8
BLACK
10
-1.2218503937007874
20
4.2669291338582678
40
0.0068897637795276
0
CIRCLE
8
BLACK
10
-1.3218503937007873
20
4.1669291338582672
40
0.0068897637795276
0
CIRCLE
8
BLACK
10
-1.2218503937007874
20
4.1669291338582672
40
0.0068897637795276
0
CIRCLE
8
BLACK
10
-1.3218503937007873
20
4.0669291338582676
40
0.0068897637795276
0
CIRCLE
8
BLACK
10
-1.2218503937007874
20
4.0669291338582676
40
0.0068897637795276
0
CIRCLE
8
BLACK
10
-1.3218503937007873
20
3.9669291338582675
40
0.0068897637795276
0
CIRCLE
8
BLACK
10
-1.2218503937007874
20
3.9669291338582675
40
0.0068897637795276
0
CIRCLE
8
BLACK
10
-1.3218503937007873
20
3.8669291338582674
40
0.0068897637795276
0
CIRCLE
8
BLACK
10
-1.2218503937007874
20
3.8669291338582674
40
0.0068897637795276
0
CIRCLE
8
BLACK
10
-1.3218503937007873
20
3.7669291338582678
40
0.0068897637795276
0
CIRCLE
8
BLACK
10
-1.2218503937007874
20
3.7669291338582678
40
0.0068897637795276
0
CIRCLE
8
BLACK
10
-1.3218503937007873
20
3.6669291338582677
40
0.0068897637795276
0
CIRCLE
8
BLACK
10
-1.2218503937007874
20
3.6669291338582677
40
0.0068897637795276
0
CIRCLE
8
BLACK
10
-1.3218503937007873
20
3.5669291338582676
40
0.0068897637795276
0
CIRCLE
8
BLACK
10
-1.2218503937007874
20
3.5669291338582676
40
0.0068897637795276
0
CIRCLE
8
BLACK
10
-1.3218503937007873
20
3.4669291338582675
40
0.0068897637795276
0
CIRCLE
8
BLACK
10
-1.2218503937007874
20
3.4669291338582675
40
0.0068897637795276
0
CIRCLE
8
BLACK
10
-1.3218503937007873
20
3.3669291338582674
40
0.0068897637795276
0
CIRCLE
8
BLACK
10
-1.2218503937007874
20
3.3669291338582674
40
0.0068897637795276
0
CIRCLE
8
BLACK
10
-1.3218503937007873
20
3.2669291338582678
40
0.0068897637795276
0
CIRCLE
8
BLACK
10
-1.2218503937007874
20
3.2669291338582678
40
0.0068897637795276
0
CIRCLE
8
BLACK
10
-1.3218503937007873
20
3.1669291338582677
40
0.0068897637795276
0
CIRCLE
8
BLACK
10
-1.2218503937007874
20
3.1669291338582677
40
0.0068897637795276
0
CIRCLE
8
BLACK
10
-1.3218503937007873
20
3.0669291338582676
40
0.0068897637795276
0
CIRCLE
8
BLACK
10
-1.2218503937007874
20
3.0669291338582676
40
0.0068897637795276
0
CIRCLE
8
BLACK
10
-1.3218503937007873
20
2.9669291338582675
40
0.0068897637795276
0
CIRCLE
8
BLACK
10
-1.2218503937007874
20
2.9669291338582675
40
0.0068897637795276
0
CIRCLE
8
BLACK
10
-1.3218503937007873
20
2.8669291338582679
40
0.0068897637795276
0
CIRCLE
8
BLACK
10
-1.2218503937007874
20
2.8669291338582679
40
0.0068897637795276
0
CIRCLE
8
BLACK
10
-1.3218503937007873
20
2.7669291338582678
40
0.0068897637795276
0
CIRCLE
8
BLACK
10
-1.2218503937007874
20
2.7669291338582678
40
0.0068897637795276
0
CIRCLE
8
BLACK
10
-1.3218503937007873
20
2.6669291338582677
40
0.0068897637795276
0
CIRCLE
8
BLACK
10
-1.2218503937007874
20
2.6669291338582677
40
0.0068897637795276
0
CIRCLE
8
BLACK
10
-1.3218503937007873
20
2.5669291338582676
40
0.0068897637795276
0
CIRCLE
8
BLACK
10
-1.2218503937007874
20
2.5669291338582676
40
0.0068897637795276
0
CIRCLE
8
BLACK
10
-0.2013453543307087
20
3.8425196850393699
40
0.0068897637795276
0
CIRCLE
8
BLACK
10
-0.1013453543307087
20
3.8425196850393699
40
0.0068897637795276
0
CIRCLE
8
BLACK
10
-0.2013453543307087
20
3.5433070866141732
40
0.0068897637795276
0
CIRCLE
8
BLACK
10
-0.1013453543307087
20
3.5433070866141732
40
0.0068897637795276
0
CIRCLE
8
BLACK
10
0.7125984251968503
20
1.7637795275590551
40
0.0068897637795276
0
CIRCLE
8
BLACK
10
0.7125984251968503
20
1.8637796062992125
40
0.0068897637795276
0
CIRCLE
8
BLACK
10
0.84251968503937
20
1.7637795275590551
40
0.0068897637795276
0
CIRCLE
8
BLACK
10
0.84251968503937
20
1.8637795275590552
40
0.0068897637795276
0
CIRCLE
8
BLACK
10
0.84251968503937
20
1.9637794881889763
40
0.0068897637795276
0
CIRCLE
8
BLACK
10
-1.6112204724409449
20
0.5039370078740157
40
0.0068897637795276
0
CIRCLE
8
BLACK
10
1.6348425196850394
20
3.4704724409448819
40
0.0068897637795276
0
CIRCLE
8
BLACK
10
1.6348425196850394
20
0.7106299212598425
40
0.0068897637795276
0
CIRCLE
8
BLACK
10
-0.4808729133858268
20
3.9433070866141731
40
0.0068897637795276
0
CIRCLE
8
BLACK
10
-0.3808729133858267
20
3.9433070866141731
40
0.0068897637795276
0
CIRCLE
8
BLACK
10
-0.4808729133858268
20
3.843307086614173
40
0.0068897637795276
0
CIRCLE
8
BLACK
10
-0.3808729133858267
20
3.843307086614173
40
0.0068897637795276
0
CIRCLE
8
BLACK
10
-0.4808729133858268
20
3.7433070866141733
40
0.0068897637795276
0
CIRCLE
8
BLACK
10
-0.3808729133858267
20
3.7433070866141733
40
0.0068897637795276
0
CIRCLE
8
BLACK
10
-0.4808729133858268
20
3.6433070866141732
40
0.0068897637795276
0
CIRCLE
8
BLACK
10
-0.3808729133858267
20
3.6433070866141732
40
0.0068897637795276
0
CIRCLE
8
BLACK
10
-0.4808729133858268
20
3.5433070866141732
40
0.0068897637795276
0
CIRCLE
8
BLACK
10
-0.3808729133858267
20
3.5433070866141732
40
0.0068897637795276
0
CIRCLE
8
BLACK
10
0.937007874015748
20
4.6023622047244093
40
0.0068897637795276
0
CIRCLE
8
BLACK
10
0.937007874015748
20
4.5023622047244096
40
0.0068897637795276
0
CIRCLE
8
BLACK
10
0.8370078740157481
20
4.6023622047244093
40
0.0068897637795276
0
CIRCLE
8
BLACK
10
0.8370078740157481
20
4.5023622047244096
40
0.0068897637795276
0
CIRCLE
8
BLACK
10
0.7370079133858267
20
4.6023622047244093
40
0.0068897637795276
0
CIRCLE
8
BLACK
10
0.737007874015748
20
4.5023622047244096
40
0.0068897637795276
0
CIRCLE
8
BLACK
10
0.637007874015748
20
4.6023622047244093
40
0.0068897637795276
0
CIRCLE
8
BLACK
10
0.637007874015748
20
4.5023622047244096
40
0.0068897637795276
0
CIRCLE
8
BLACK
10
0.537007874015748
20
4.6023622047244093
40
0.0068897637795276
0
CIRCLE
8
BLACK
10
0.537007874015748
20
4.5023622047244096
40
0.0068897637795276
0
CIRCLE
8
BLACK
10
-1.1299212598425197
20
0.9409448818897638
40
0.0068897637795276
0
CIRCLE
8
BLACK
10
-0.7172244094488189
20
0.5354330708661417
40
0.0068897637795276
0
CIRCLE
8
BLACK
10
-0.7172244094488189
20
0.735433031496063
40
0.0068897637795276
0
CIRCLE
8
BLACK
10
0.0827755905511811
20
0.2354330708661417
40
0.0068897637795276
0
CIRCLE
8
BLACK
10
0.0827755905511811
20
0.6354330708661418
40
0.0068897637795276
0
CIRCLE
8
BLACK
10
0.0827755905511811
20
1.0354330708661417
40
0.0068897637795276
0
CIRCLE
8
BLACK
10
-0.7172244094488189
20
1.0354330708661417
40
0.0068897637795276
0
CIRCLE
8
BLACK
10
-0.7125984251968503
20
4.5078740157480315
40
0.0068897637795276
0
LINE
8
BLACK
6
CONTINUOUS
10
-1.1479330708661417
20
0.5236220472440944
11
-1.0691929133858267
21
0.5236220472440944
0
ARC
8
BLACK
10
-1.0691929133858267
20
0.5433070866141733
40
0.0196850393700787
50
-90.00000000
51
90.00000000
0
LINE
8
BLACK
6
CONTINUOUS
10
-1.0691929133858267
20
0.562992125984252
11
-1.1479330708661417
21
0.562992125984252
0
ARC
8
BLACK
10
-1.1479330708661417
20
0.5433070866141733
40
0.0196850393700787
50
90.00000000
51
270.00000000
0
LINE
8
BLACK
6
CONTINUOUS
10
-1.1479330708661417
20
0.2874015748031496
11
-1.0691929133858267
21
0.2874015748031496
0
ARC
8
BLACK
10
-1.0691929133858267
20
0.3070866141732284
40
0.0196850393700787
50
-90.00000000
51
90.00000000
0
LINE
8
BLACK
6
CONTINUOUS
10
-1.0691929133858267
20
0.3267716535433071
11
-1.1479330708661417
21
0.3267716535433071
0
ARC
8
BLACK
10
-1.1479330708661417
20
0.3070866141732284
40
0.0196850393700787
50
90.00000000
51
270.00000000
0
LINE
8
BLACK
6
CONTINUOUS
10
-1.2739173228346456
20
0.3858267716535433
11
-1.2739173228346456
21
0.4645669291338583
0
ARC
8
BLACK
10
-1.2936023622047244
20
0.4645669291338583
40
0.0196850393700787
50
0.00000000
51
180.00000000
0
LINE
8
BLACK
6
CONTINUOUS
10
-1.3132874015748031
20
0.4645669291338583
11
-1.3132874015748031
21
0.3858267716535433
0
ARC
8
BLACK
10
-1.2936023622047244
20
0.3858267716535433
40
0.0196850393700787
50
180.00000000
51
360.00000000
  0
ENDSEC
  0
EOF
