  0
SECTION
  2
HEADER
  9
$ANGBASE
  50
0.0
  9
$ANGDIR
  70
1
  9
$MEASUREMENT
  70
0
  0
ENDSEC
  0
SECTION
  2
TABLES
  0
TABLE
  2
LTYPE
  70
4
  0
LTYPE
  5
40F
  2
CONTINUOUS
  70
0
  3
Solid line
  72
65
  73
0
  40
0.0
  0
LTYPE
  5
410
  2
DASHDOT
 70
0
  3
Dash Dot ____ _ ____ _
 72
65
 73
4
 40
2.0
 49
1.25
 49
-0.25
 49
0.25
 49
-0.25
  0
LTYPE
  5
411
  2
DASHED
 70
0
  3
Dashed __ __ __ __ __
 72
65
 73
2
 40
0.75
 49
0.5
 49
-0.25
  0
LTYPE
  5
43B
  2
DOTTED
 70
0
  3
Dotted .  .  .  .
 72
65
 73
2
 40
0.2
 49
0.0
 49
-0.2
  0
ENDTAB
  0
TABLE
  2
STYLE
  70
4
  0
STYLE
  2
KICAD
  70
0
  40
0
  41
1
  42
1
  50
0
  71
0
  3
isocp.shx
  0
STYLE
  2
KICADB
  70
0
  40
0
  41
1
  42
1
  50
0
  71
0
  3
isocp.shx
  0
STYLE
  2
KICADI
  70
0
  40
0
  41
1
  42
1
  50
15
  71
0
  3
isocp.shx
  0
STYLE
  2
KICADBI
  70
0
  40
0
  41
1
  42
1
  50
15
  71
0
  3
isocp.shx
  0
ENDTAB
  0
TABLE
  2
LAYER
  70
1
  0
LAYER
  2
BLACK
  70
0
  62
7
  6
CONTINUOUS
  0
ENDTAB
  0
ENDSEC
  0
SECTION
  2
ENTITIES
0
LINE
8
BLACK
6
CONTINUOUS
10
4.5711324015748032
20
-2.990088937007874
11
4.5719470472440946
21
-2.9909035826771655
0
LINE
8
BLACK
6
CONTINUOUS
10
4.5719470472440946
20
-2.9909035826771655
11
4.5723879527559053
21
-2.9919679921259843
0
LINE
8
BLACK
6
CONTINUOUS
10
4.5723879527559053
20
-2.9919679921259843
11
4.5724446850393701
21
-2.9925440551181102
0
LINE
8
BLACK
6
CONTINUOUS
10
4.5724446850393701
20
-2.9925440551181102
11
4.5724446850393701
21
-3.0079126377952754
0
LINE
8
BLACK
6
CONTINUOUS
10
4.5724446850393701
20
-3.0079126377952754
11
4.5899011811023618
21
-2.9904561417322832
0
LINE
8
BLACK
6
CONTINUOUS
10
4.5899011811023618
20
-2.9904561417322832
11
4.5903486220472436
21
-2.990088937007874
0
LINE
8
BLACK
6
CONTINUOUS
10
4.5903486220472436
20
-2.990088937007874
11
4.5914130314960628
21
-2.989648031496063
0
LINE
8
BLACK
6
CONTINUOUS
10
4.5914130314960628
20
-2.989648031496063
11
4.5925651181102358
21
-2.989648031496063
0
LINE
8
BLACK
6
CONTINUOUS
10
4.5925651181102358
20
-2.989648031496063
11
4.5936295669291338
21
-2.990088937007874
0
LINE
8
BLACK
6
CONTINUOUS
10
4.5936295669291338
20
-2.990088937007874
11
4.5944442125984253
21
-2.9909035826771655
0
LINE
8
BLACK
6
CONTINUOUS
10
4.5944442125984253
20
-2.9909035826771655
11
4.5948851181102359
21
-2.9919680314960631
0
LINE
8
BLACK
6
CONTINUOUS
10
4.5948851181102359
20
-2.9919680314960631
11
4.5948851181102359
21
-2.993120118110236
0
LINE
8
BLACK
6
CONTINUOUS
10
4.5948851181102359
20
-2.993120118110236
11
4.5944442125984253
21
-2.9941845275590548
0
LINE
8
BLACK
6
CONTINUOUS
10
4.5944442125984253
20
-2.9941845275590548
11
4.5940770078740156
21
-2.9946319685039371
0
LINE
8
BLACK
6
CONTINUOUS
10
4.5940770078740156
20
-2.9946319685039371
11
4.5790149606299213
21
-3.0096939763779527
0
LINE
8
BLACK
6
CONTINUOUS
10
4.5790149606299213
20
-3.0096939763779527
11
4.5943512992125983
21
-3.0301424803149604
0
LINE
8
BLACK
6
CONTINUOUS
10
4.5943512992125983
20
-3.0301424803149604
11
4.5946515748031498
21
-3.0306373622047245
0
LINE
8
BLACK
6
CONTINUOUS
10
4.5946515748031498
20
-3.0306373622047245
11
4.594937480314961
21
-3.0317534645669291
0
LINE
8
BLACK
6
CONTINUOUS
10
4.594937480314961
20
-3.0317534645669291
11
4.5947745275590552
21
-3.032893937007874
0
LINE
8
BLACK
6
CONTINUOUS
10
4.5947745275590552
20
-3.032893937007874
11
4.5941875590551184
21
-3.0338853149606297
0
LINE
8
BLACK
6
CONTINUOUS
10
4.5941875590551184
20
-3.0338853149606297
11
4.5932658661417323
21
-3.0345766141732282
0
LINE
8
BLACK
6
CONTINUOUS
10
4.5932658661417323
20
-3.0345766141732282
11
4.5921498031496064
21
-3.0348625196850394
0
LINE
8
BLACK
6
CONTINUOUS
10
4.5921498031496064
20
-3.0348625196850394
11
4.5910092913385823
21
-3.0346996062992124
0
LINE
8
BLACK
6
CONTINUOUS
10
4.5910092913385823
20
-3.0346996062992124
11
4.590017913385827
21
-3.0341125984251969
0
LINE
8
BLACK
6
CONTINUOUS
10
4.590017913385827
20
-3.0341125984251969
11
4.5896268897637791
21
-3.0336857874015748
0
LINE
8
BLACK
6
CONTINUOUS
10
4.5896268897637791
20
-3.0336857874015748
11
4.5747967322834642
21
-3.0139122047244093
0
LINE
8
BLACK
6
CONTINUOUS
10
4.5747967322834642
20
-3.0139122047244093
11
4.5724446850393701
21
-3.0162642913385826
0
LINE
8
BLACK
6
CONTINUOUS
10
4.5724446850393701
20
-3.0162642913385826
11
4.5724446850393701
21
-3.0319141338582676
0
LINE
8
BLACK
6
CONTINUOUS
10
4.5724446850393701
20
-3.0319141338582676
11
4.5723879527559053
21
-3.0324901968503934
0
LINE
8
BLACK
6
CONTINUOUS
10
4.5723879527559053
20
-3.0324901968503934
11
4.5719470472440946
21
-3.0335546062992127
0
LINE
8
BLACK
6
CONTINUOUS
10
4.5719470472440946
20
-3.0335546062992127
11
4.5711324015748032
21
-3.0343692519685037
0
LINE
8
BLACK
6
CONTINUOUS
10
4.5711324015748032
20
-3.0343692519685037
11
4.5700679921259839
21
-3.0348101574803148
0
LINE
8
BLACK
6
CONTINUOUS
10
4.5700679921259839
20
-3.0348101574803148
11
4.5689158661417322
21
-3.0348101574803148
0
LINE
8
BLACK
6
CONTINUOUS
10
4.5689158661417322
20
-3.0348101574803148
11
4.5678514566929129
21
-3.0343692519685037
0
LINE
8
BLACK
6
CONTINUOUS
10
4.5678514566929129
20
-3.0343692519685037
11
4.5670368110236224
21
-3.0335546062992127
0
LINE
8
BLACK
6
CONTINUOUS
10
4.5670368110236224
20
-3.0335546062992127
11
4.5665959055118108
21
-3.0324901968503934
0
LINE
8
BLACK
6
CONTINUOUS
10
4.5665959055118108
20
-3.0324901968503934
11
4.566539173228346
21
-3.0319141338582676
0
LINE
8
BLACK
6
CONTINUOUS
10
4.566539173228346
20
-3.0319141338582676
11
4.566539173228346
21
-2.9925440551181102
0
LINE
8
BLACK
6
CONTINUOUS
10
4.566539173228346
20
-2.9925440551181102
11
4.5665959055118108
21
-2.9919679921259843
0
LINE
8
BLACK
6
CONTINUOUS
10
4.5665959055118108
20
-2.9919679921259843
11
4.5670368110236224
21
-2.9909035826771655
0
LINE
8
BLACK
6
CONTINUOUS
10
4.5670368110236224
20
-2.9909035826771655
11
4.5678514566929129
21
-2.990088937007874
0
LINE
8
BLACK
6
CONTINUOUS
10
4.5678514566929129
20
-2.990088937007874
11
4.5689158661417322
21
-2.989648031496063
0
LINE
8
BLACK
6
CONTINUOUS
10
4.5689158661417322
20
-2.989648031496063
11
4.5700679921259839
21
-2.989648031496063
0
LINE
8
BLACK
6
CONTINUOUS
10
4.5700679921259839
20
-2.989648031496063
11
4.5711324015748032
21
-2.990088937007874
0
LINE
8
BLACK
6
CONTINUOUS
10
5.1841875590551183
20
-2.197977559055118
11
5.1851789370078736
21
-2.1985645275590548
0
LINE
8
BLACK
6
CONTINUOUS
10
5.1851789370078736
20
-2.1985645275590548
11
5.1855699606299215
21
-2.1989913385826769
0
LINE
8
BLACK
6
CONTINUOUS
10
5.1855699606299215
20
-2.1989913385826769
11
5.2004000787401576
21
-2.2187648818897636
0
LINE
8
BLACK
6
CONTINUOUS
10
5.2004000787401576
20
-2.2187648818897636
11
5.2027521653543305
21
-2.2164128346456691
0
LINE
8
BLACK
6
CONTINUOUS
10
5.2027521653543305
20
-2.2164128346456691
11
5.2027521653543305
21
-2.2007629921259841
0
LINE
8
BLACK
6
CONTINUOUS
10
5.2027521653543305
20
-2.2007629921259841
11
5.2028088976377953
21
-2.2001869291338583
0
LINE
8
BLACK
6
CONTINUOUS
10
5.2028088976377953
20
-2.2001869291338583
11
5.2032498031496059
21
-2.1991225196850395
0
LINE
8
BLACK
6
CONTINUOUS
10
5.2032498031496059
20
-2.1991225196850395
11
5.2040644488188974
21
-2.198307874015748
0
LINE
8
BLACK
6
CONTINUOUS
10
5.2040644488188974
20
-2.198307874015748
11
5.2051288582677167
21
-2.1978669685039369
0
LINE
8
BLACK
6
CONTINUOUS
10
5.2051288582677167
20
-2.1978669685039369
11
5.2062809842519684
21
-2.1978669685039369
0
LINE
8
BLACK
6
CONTINUOUS
10
5.2062809842519684
20
-2.1978669685039369
11
5.2073453937007876
21
-2.198307874015748
0
LINE
8
BLACK
6
CONTINUOUS
10
5.2073453937007876
20
-2.198307874015748
11
5.2081600393700782
21
-2.1991225196850395
0
LINE
8
BLACK
6
CONTINUOUS
10
5.2081600393700782
20
-2.1991225196850395
11
5.2086009448818897
21
-2.2001869291338583
0
LINE
8
BLACK
6
CONTINUOUS
10
5.2086009448818897
20
-2.2001869291338583
11
5.2086576771653545
21
-2.2007629921259841
0
LINE
8
BLACK
6
CONTINUOUS
10
5.2086576771653545
20
-2.2007629921259841
11
5.2086576771653545
21
-2.2401330708661416
0
LINE
8
BLACK
6
CONTINUOUS
10
5.2086576771653545
20
-2.2401330708661416
11
5.2086009448818897
21
-2.2407091338582679
0
LINE
8
BLACK
6
CONTINUOUS
10
5.2086009448818897
20
-2.2407091338582679
11
5.2081600393700782
21
-2.2417735433070867
0
LINE
8
BLACK
6
CONTINUOUS
10
5.2081600393700782
20
-2.2417735433070867
11
5.2073453937007876
21
-2.2425881889763777
0
LINE
8
BLACK
6
CONTINUOUS
10
5.2073453937007876
20
-2.2425881889763777
11
5.2062809842519684
21
-2.2430290944881888
0
LINE
8
BLACK
6
CONTINUOUS
10
5.2062809842519684
20
-2.2430290944881888
11
5.2051288582677167
21
-2.2430290944881888
0
LINE
8
BLACK
6
CONTINUOUS
10
5.2051288582677167
20
-2.2430290944881888
11
5.2040644488188974
21
-2.2425881889763777
0
LINE
8
BLACK
6
CONTINUOUS
10
5.2040644488188974
20
-2.2425881889763777
11
5.2032498031496059
21
-2.2417735433070867
0
LINE
8
BLACK
6
CONTINUOUS
10
5.2032498031496059
20
-2.2417735433070867
11
5.2028088976377953
21
-2.2407091338582679
0
LINE
8
BLACK
6
CONTINUOUS
10
5.2028088976377953
20
-2.2407091338582679
11
5.2027521653543305
21
-2.2401330708661416
0
LINE
8
BLACK
6
CONTINUOUS
10
5.2027521653543305
20
-2.2401330708661416
11
5.2027521653543305
21
-2.2247644881889763
0
LINE
8
BLACK
6
CONTINUOUS
10
5.2027521653543305
20
-2.2247644881889763
11
5.1852956692913388
21
-2.2422209842519685
0
LINE
8
BLACK
6
CONTINUOUS
10
5.1852956692913388
20
-2.2422209842519685
11
5.184848228346457
21
-2.2425881889763777
0
LINE
8
BLACK
6
CONTINUOUS
10
5.184848228346457
20
-2.2425881889763777
11
5.183783779527559
21
-2.2430290944881888
0
LINE
8
BLACK
6
CONTINUOUS
10
5.183783779527559
20
-2.2430290944881888
11
5.1826317322834647
21
-2.2430290944881888
0
LINE
8
BLACK
6
CONTINUOUS
10
5.1826317322834647
20
-2.2430290944881888
11
5.1815672834645667
21
-2.2425881889763777
0
LINE
8
BLACK
6
CONTINUOUS
10
5.1815672834645667
20
-2.2425881889763777
11
5.1807526377952753
21
-2.2417735433070867
0
LINE
8
BLACK
6
CONTINUOUS
10
5.1807526377952753
20
-2.2417735433070867
11
5.1803117322834646
21
-2.2407090944881891
0
LINE
8
BLACK
6
CONTINUOUS
10
5.1803117322834646
20
-2.2407090944881891
11
5.1803117322834646
21
-2.2395570472440944
0
LINE
8
BLACK
6
CONTINUOUS
10
5.1803117322834646
20
-2.2395570472440944
11
5.1807526377952753
21
-2.2384925984251969
0
LINE
8
BLACK
6
CONTINUOUS
10
5.1807526377952753
20
-2.2384925984251969
11
5.1811198425196849
21
-2.2380451574803151
0
LINE
8
BLACK
6
CONTINUOUS
10
5.1811198425196849
20
-2.2380451574803151
11
5.1961818503937005
21
-2.2229831102362203
0
LINE
8
BLACK
6
CONTINUOUS
10
5.1961818503937005
20
-2.2229831102362203
11
5.1808455511811022
21
-2.2025346456692914
0
LINE
8
BLACK
6
CONTINUOUS
10
5.1808455511811022
20
-2.2025346456692914
11
5.1805453149606295
21
-2.2020397637795277
0
LINE
8
BLACK
6
CONTINUOUS
10
5.1805453149606295
20
-2.2020397637795277
11
5.1802593700787396
21
-2.2009237007874014
0
LINE
8
BLACK
6
CONTINUOUS
10
5.1802593700787396
20
-2.2009237007874014
11
5.1804223228346453
21
-2.1997831889763777
0
LINE
8
BLACK
6
CONTINUOUS
10
5.1804223228346453
20
-2.1997831889763777
11
5.1810092913385821
21
-2.198791811023622
0
LINE
8
BLACK
6
CONTINUOUS
10
5.1810092913385821
20
-2.198791811023622
11
5.1819309842519683
21
-2.1981005511811023
0
LINE
8
BLACK
6
CONTINUOUS
10
5.1819309842519683
20
-2.1981005511811023
11
5.1830470472440942
21
-2.1978146062992128
0
LINE
8
BLACK
6
CONTINUOUS
10
5.1830470472440942
20
-2.1978146062992128
11
5.1841875590551183
21
-2.197977559055118
0
CIRCLE
8
BLACK
10
3.0299212598425198
20
-1.9135826771653544
40
0.0068897637795276
0
CIRCLE
8
BLACK
10
3.1299212598425195
20
-1.9135826771653544
40
0.0068897637795276
0
CIRCLE
8
BLACK
10
5.2753937401574804
20
-2.2206692913385826
40
0.0068897637795276
0
CIRCLE
8
BLACK
10
3.7677165354330708
20
-2.3387795275590553
40
0.0068897637795276
0
CIRCLE
8
BLACK
10
3.6299212598425195
20
-2.3387795275590553
40
0.0068897637795276
0
CIRCLE
8
BLACK
10
4.409448818897638
20
-4.7637795275590546
40
0.0068897637795276
0
CIRCLE
8
BLACK
10
3.9094488188976375
20
-4.7637795275590546
40
0.0068897637795276
0
CIRCLE
8
BLACK
10
4.2996062992125985
20
-4.663779527559055
40
0.0068897637795276
0
CIRCLE
8
BLACK
10
4.2596062992125985
20
-4.5937007480314955
40
0.0068897637795276
0
CIRCLE
8
BLACK
10
4.2196062992125984
20
-4.663779527559055
40
0.0068897637795276
0
CIRCLE
8
BLACK
10
4.1796062992125984
20
-4.5937007480314955
40
0.0068897637795276
0
CIRCLE
8
BLACK
10
4.1396062992125984
20
-4.663779527559055
40
0.0068897637795276
0
CIRCLE
8
BLACK
10
4.0996062992125983
20
-4.5937007480314955
40
0.0068897637795276
0
CIRCLE
8
BLACK
10
4.0596062992125983
20
-4.663779527559055
40
0.0068897637795276
0
CIRCLE
8
BLACK
10
4.019606338582677
20
-4.5937007874015743
40
0.0068897637795276
0
CIRCLE
8
BLACK
10
4.429527559055118
20
-4.4039370078740152
40
0.0068897637795276
0
CIRCLE
8
BLACK
10
4.3393700787401572
20
-4.4039370078740152
40
0.0068897637795276
0
CIRCLE
8
BLACK
10
3.9795275590551182
20
-4.4039370078740152
40
0.0068897637795276
0
CIRCLE
8
BLACK
10
3.8893700787401575
20
-4.4039370078740152
40
0.0068897637795276
0
CIRCLE
8
BLACK
10
4.4795275590551178
20
-4.6287401574803146
40
0.0068897637795276
0
CIRCLE
8
BLACK
10
3.8393700787401572
20
-4.6287401574803146
40
0.0068897637795276
0
CIRCLE
8
BLACK
10
3.0299212598425198
20
-1.6104330708661416
40
0.0068897637795276
0
CIRCLE
8
BLACK
10
3.1299212598425195
20
-1.6104330708661416
40
0.0068897637795276
0
CIRCLE
8
BLACK
10
2.0929133858267717
20
-1.0159448818897638
40
0.0068897637795276
0
CIRCLE
8
BLACK
10
2.1929133858267718
20
-1.0159448818897638
40
0.0068897637795276
0
CIRCLE
8
BLACK
10
2.0929133858267717
20
-1.1159448818897637
40
0.0068897637795276
0
CIRCLE
8
BLACK
10
2.1929133858267718
20
-1.1159448818897637
40
0.0068897637795276
0
CIRCLE
8
BLACK
10
2.0929133858267717
20
-1.2159448818897638
40
0.0068897637795276
0
CIRCLE
8
BLACK
10
2.1929133858267718
20
-1.2159448818897638
40
0.0068897637795276
0
CIRCLE
8
BLACK
10
2.0929133858267717
20
-1.3159448818897637
40
0.0068897637795276
0
CIRCLE
8
BLACK
10
2.1929133858267718
20
-1.3159448818897637
40
0.0068897637795276
0
CIRCLE
8
BLACK
10
2.0929133858267717
20
-1.4159448818897638
40
0.0068897637795276
0
CIRCLE
8
BLACK
10
2.1929133858267718
20
-1.4159448818897638
40
0.0068897637795276
0
CIRCLE
8
BLACK
10
2.0929133858267717
20
-1.5159448818897638
40
0.0068897637795276
0
CIRCLE
8
BLACK
10
2.1929133858267718
20
-1.5159448818897638
40
0.0068897637795276
0
CIRCLE
8
BLACK
10
2.0929133858267717
20
-1.6159448818897637
40
0.0068897637795276
0
CIRCLE
8
BLACK
10
2.1929133858267718
20
-1.6159448818897637
40
0.0068897637795276
0
CIRCLE
8
BLACK
10
2.0929133858267717
20
-1.7159448818897638
40
0.0068897637795276
0
CIRCLE
8
BLACK
10
2.1929133858267718
20
-1.7159448818897638
40
0.0068897637795276
0
CIRCLE
8
BLACK
10
2.0929133858267717
20
-1.8159448818897637
40
0.0068897637795276
0
CIRCLE
8
BLACK
10
2.1929133858267718
20
-1.8159448818897637
40
0.0068897637795276
0
CIRCLE
8
BLACK
10
2.0929133858267717
20
-1.9159448818897638
40
0.0068897637795276
0
CIRCLE
8
BLACK
10
2.1929133858267718
20
-1.9159448818897638
40
0.0068897637795276
0
CIRCLE
8
BLACK
10
2.0929133858267717
20
-2.0159448818897636
40
0.0068897637795276
0
CIRCLE
8
BLACK
10
2.1929133858267718
20
-2.0159448818897636
40
0.0068897637795276
0
CIRCLE
8
BLACK
10
2.0929133858267717
20
-2.1159448818897637
40
0.0068897637795276
0
CIRCLE
8
BLACK
10
2.1929133858267718
20
-2.1159448818897637
40
0.0068897637795276
0
CIRCLE
8
BLACK
10
2.0929133858267717
20
-2.2159448818897638
40
0.0068897637795276
0
CIRCLE
8
BLACK
10
2.1929133858267718
20
-2.2159448818897638
40
0.0068897637795276
0
CIRCLE
8
BLACK
10
2.0929133858267717
20
-2.3159448818897639
40
0.0068897637795276
0
CIRCLE
8
BLACK
10
2.1929133858267718
20
-2.3159448818897639
40
0.0068897637795276
0
CIRCLE
8
BLACK
10
2.0929133858267717
20
-2.4159448818897635
40
0.0068897637795276
0
CIRCLE
8
BLACK
10
2.1929133858267718
20
-2.4159448818897635
40
0.0068897637795276
0
CIRCLE
8
BLACK
10
2.0929133858267717
20
-2.5159448818897636
40
0.0068897637795276
0
CIRCLE
8
BLACK
10
2.1929133858267718
20
-2.5159448818897636
40
0.0068897637795276
0
CIRCLE
8
BLACK
10
2.0929133858267717
20
-2.6159448818897637
40
0.0068897637795276
0
CIRCLE
8
BLACK
10
2.1929133858267718
20
-2.6159448818897637
40
0.0068897637795276
0
CIRCLE
8
BLACK
10
2.0929133858267717
20
-2.7159448818897638
40
0.0068897637795276
0
CIRCLE
8
BLACK
10
2.1929133858267718
20
-2.7159448818897638
40
0.0068897637795276
0
CIRCLE
8
BLACK
10
2.0929133858267717
20
-2.8159448818897639
40
0.0068897637795276
0
CIRCLE
8
BLACK
10
2.1929133858267718
20
-2.8159448818897639
40
0.0068897637795276
0
CIRCLE
8
BLACK
10
2.0929133858267717
20
-2.9159448818897635
40
0.0068897637795276
0
CIRCLE
8
BLACK
10
2.1929133858267718
20
-2.9159448818897635
40
0.0068897637795276
0
CIRCLE
8
BLACK
10
3.0299212598425198
20
-1.7127952755905511
40
0.0068897637795276
0
CIRCLE
8
BLACK
10
3.1299212598425195
20
-1.7127952755905511
40
0.0068897637795276
0
CIRCLE
8
BLACK
10
1.0905511811023623
20
-6.71259842519685
40
0.0068897637795276
0
CIRCLE
8
BLACK
10
4.4998031496062989
20
-3.0120078740157479
40
0.0068897637795276
0
CIRCLE
8
BLACK
10
3.0299212598425198
20
-2.0120078740157479
40
0.0068897637795276
0
CIRCLE
8
BLACK
10
3.1299212598425195
20
-2.0120078740157479
40
0.0068897637795276
0
CIRCLE
8
BLACK
10
4.0866141732283463
20
-3.2755905511811023
40
0.0068897637795276
0
CIRCLE
8
BLACK
10
4.0866141732283463
20
-3.1755904724409447
40
0.0068897637795276
0
CIRCLE
8
BLACK
10
4.2165354330708658
20
-3.2755905511811023
40
0.0068897637795276
0
CIRCLE
8
BLACK
10
4.2165354330708658
20
-3.1755905511811022
40
0.0068897637795276
0
CIRCLE
8
BLACK
10
4.2165354330708658
20
-3.0755905905511809
40
0.0068897637795276
0
CIRCLE
8
BLACK
10
1.0905511811023623
20
-5.8740771653543309
40
0.0068897637795276
0
CIRCLE
8
BLACK
10
1.0905511811023623
20
-6.4330913385826767
40
0.0068897637795276
0
CIRCLE
8
BLACK
10
1.0905511811023623
20
-6.1535842519685042
40
0.0068897637795276
0
CIRCLE
8
BLACK
10
2.7503937007874013
20
-1.612007874015748
40
0.0068897637795276
0
CIRCLE
8
BLACK
10
2.8503937007874014
20
-1.612007874015748
40
0.0068897637795276
0
CIRCLE
8
BLACK
10
2.7503937007874013
20
-1.7120078740157481
40
0.0068897637795276
0
CIRCLE
8
BLACK
10
2.8503937007874014
20
-1.7120078740157481
40
0.0068897637795276
0
CIRCLE
8
BLACK
10
2.7503937007874013
20
-1.8120078740157479
40
0.0068897637795276
0
CIRCLE
8
BLACK
10
2.8503937007874014
20
-1.8120078740157479
40
0.0068897637795276
0
CIRCLE
8
BLACK
10
2.7503937007874013
20
-1.912007874015748
40
0.0068897637795276
0
CIRCLE
8
BLACK
10
2.8503937007874014
20
-1.912007874015748
40
0.0068897637795276
0
CIRCLE
8
BLACK
10
2.7503937007874013
20
-2.0120078740157479
40
0.0068897637795276
0
CIRCLE
8
BLACK
10
2.8503937007874014
20
-2.0120078740157479
40
0.0068897637795276
0
CIRCLE
8
BLACK
10
4.4015748031496065
20
-1.4743110236220471
40
0.0068897637795276
0
CIRCLE
8
BLACK
10
4.3015748031496059
20
-1.4743110236220471
40
0.0068897637795276
0
CIRCLE
8
BLACK
10
4.4015748031496065
20
-1.3743110236220473
40
0.0068897637795276
0
CIRCLE
8
BLACK
10
4.3015748031496059
20
-1.3743110236220473
40
0.0068897637795276
0
CIRCLE
8
BLACK
10
4.4015748031496065
20
-1.2743110629921259
40
0.0068897637795276
0
CIRCLE
8
BLACK
10
4.3015748031496059
20
-1.2743110236220472
40
0.0068897637795276
0
CIRCLE
8
BLACK
10
4.4015748031496065
20
-1.1743110236220473
40
0.0068897637795276
0
CIRCLE
8
BLACK
10
4.3015748031496059
20
-1.1743110236220473
40
0.0068897637795276
0
CIRCLE
8
BLACK
10
4.4015748031496065
20
-1.0743110236220472
40
0.0068897637795276
0
CIRCLE
8
BLACK
10
4.3015748031496059
20
-1.0743110236220472
40
0.0068897637795276
0
CIRCLE
8
BLACK
10
2.7511811023622048
20
-4.5196850393700787
40
0.0068897637795276
0
CIRCLE
8
BLACK
10
2.7511811023622048
20
-4.3196850787401573
40
0.0068897637795276
0
CIRCLE
8
BLACK
10
3.5511811023622046
20
-4.8196850393700785
40
0.0068897637795276
0
CIRCLE
8
BLACK
10
3.5511811023622046
20
-4.4196850393700791
40
0.0068897637795276
0
CIRCLE
8
BLACK
10
3.5511811023622046
20
-4.0196850393700787
40
0.0068897637795276
0
CIRCLE
8
BLACK
10
2.7511811023622048
20
-4.0196850393700787
40
0.0068897637795276
0
CIRCLE
8
BLACK
10
3.0299212598425198
20
-1.9135826771653544
40
0.0068897637795276
0
CIRCLE
8
BLACK
10
3.1299212598425195
20
-1.9135826771653544
40
0.0068897637795276
0
CIRCLE
8
BLACK
10
5.2753937401574804
20
-2.2206692913385826
40
0.0068897637795276
0
CIRCLE
8
BLACK
10
3.7677165354330708
20
-2.3387795275590553
40
0.0068897637795276
0
CIRCLE
8
BLACK
10
3.6299212598425195
20
-2.3387795275590553
40
0.0068897637795276
0
CIRCLE
8
BLACK
10
4.409448818897638
20
-4.7637795275590546
40
0.0068897637795276
0
CIRCLE
8
BLACK
10
3.9094488188976375
20
-4.7637795275590546
40
0.0068897637795276
0
CIRCLE
8
BLACK
10
4.2996062992125985
20
-4.663779527559055
40
0.0068897637795276
0
CIRCLE
8
BLACK
10
4.2596062992125985
20
-4.5937007480314955
40
0.0068897637795276
0
CIRCLE
8
BLACK
10
4.2196062992125984
20
-4.663779527559055
40
0.0068897637795276
0
CIRCLE
8
BLACK
10
4.1796062992125984
20
-4.5937007480314955
40
0.0068897637795276
0
CIRCLE
8
BLACK
10
4.1396062992125984
20
-4.663779527559055
40
0.0068897637795276
0
CIRCLE
8
BLACK
10
4.0996062992125983
20
-4.5937007480314955
40
0.0068897637795276
0
CIRCLE
8
BLACK
10
4.0596062992125983
20
-4.663779527559055
40
0.0068897637795276
0
CIRCLE
8
BLACK
10
4.019606338582677
20
-4.5937007874015743
40
0.0068897637795276
0
CIRCLE
8
BLACK
10
4.429527559055118
20
-4.4039370078740152
40
0.0068897637795276
0
CIRCLE
8
BLACK
10
4.3393700787401572
20
-4.4039370078740152
40
0.0068897637795276
0
CIRCLE
8
BLACK
10
3.9795275590551182
20
-4.4039370078740152
40
0.0068897637795276
0
CIRCLE
8
BLACK
10
3.8893700787401575
20
-4.4039370078740152
40
0.0068897637795276
0
CIRCLE
8
BLACK
10
4.4795275590551178
20
-4.6287401574803146
40
0.0068897637795276
0
CIRCLE
8
BLACK
10
3.8393700787401572
20
-4.6287401574803146
40
0.0068897637795276
0
CIRCLE
8
BLACK
10
3.0299212598425198
20
-1.6104330708661416
40
0.0068897637795276
0
CIRCLE
8
BLACK
10
3.1299212598425195
20
-1.6104330708661416
40
0.0068897637795276
0
CIRCLE
8
BLACK
10
2.0929133858267717
20
-1.0159448818897638
40
0.0068897637795276
0
CIRCLE
8
BLACK
10
2.1929133858267718
20
-1.0159448818897638
40
0.0068897637795276
0
CIRCLE
8
BLACK
10
2.0929133858267717
20
-1.1159448818897637
40
0.0068897637795276
0
CIRCLE
8
BLACK
10
2.1929133858267718
20
-1.1159448818897637
40
0.0068897637795276
0
CIRCLE
8
BLACK
10
2.0929133858267717
20
-1.2159448818897638
40
0.0068897637795276
0
CIRCLE
8
BLACK
10
2.1929133858267718
20
-1.2159448818897638
40
0.0068897637795276
0
CIRCLE
8
BLACK
10
2.0929133858267717
20
-1.3159448818897637
40
0.0068897637795276
0
CIRCLE
8
BLACK
10
2.1929133858267718
20
-1.3159448818897637
40
0.0068897637795276
0
CIRCLE
8
BLACK
10
2.0929133858267717
20
-1.4159448818897638
40
0.0068897637795276
0
CIRCLE
8
BLACK
10
2.1929133858267718
20
-1.4159448818897638
40
0.0068897637795276
0
CIRCLE
8
BLACK
10
2.0929133858267717
20
-1.5159448818897638
40
0.0068897637795276
0
CIRCLE
8
BLACK
10
2.1929133858267718
20
-1.5159448818897638
40
0.0068897637795276
0
CIRCLE
8
BLACK
10
2.0929133858267717
20
-1.6159448818897637
40
0.0068897637795276
0
CIRCLE
8
BLACK
10
2.1929133858267718
20
-1.6159448818897637
40
0.0068897637795276
0
CIRCLE
8
BLACK
10
2.0929133858267717
20
-1.7159448818897638
40
0.0068897637795276
0
CIRCLE
8
BLACK
10
2.1929133858267718
20
-1.7159448818897638
40
0.0068897637795276
0
CIRCLE
8
BLACK
10
2.0929133858267717
20
-1.8159448818897637
40
0.0068897637795276
0
CIRCLE
8
BLACK
10
2.1929133858267718
20
-1.8159448818897637
40
0.0068897637795276
0
CIRCLE
8
BLACK
10
2.0929133858267717
20
-1.9159448818897638
40
0.0068897637795276
0
CIRCLE
8
BLACK
10
2.1929133858267718
20
-1.9159448818897638
40
0.0068897637795276
0
CIRCLE
8
BLACK
10
2.0929133858267717
20
-2.0159448818897636
40
0.0068897637795276
0
CIRCLE
8
BLACK
10
2.1929133858267718
20
-2.0159448818897636
40
0.0068897637795276
0
CIRCLE
8
BLACK
10
2.0929133858267717
20
-2.1159448818897637
40
0.0068897637795276
0
CIRCLE
8
BLACK
10
2.1929133858267718
20
-2.1159448818897637
40
0.0068897637795276
0
CIRCLE
8
BLACK
10
2.0929133858267717
20
-2.2159448818897638
40
0.0068897637795276
0
CIRCLE
8
BLACK
10
2.1929133858267718
20
-2.2159448818897638
40
0.0068897637795276
0
CIRCLE
8
BLACK
10
2.0929133858267717
20
-2.3159448818897639
40
0.0068897637795276
0
CIRCLE
8
BLACK
10
2.1929133858267718
20
-2.3159448818897639
40
0.0068897637795276
0
CIRCLE
8
BLACK
10
2.0929133858267717
20
-2.4159448818897635
40
0.0068897637795276
0
CIRCLE
8
BLACK
10
2.1929133858267718
20
-2.4159448818897635
40
0.0068897637795276
0
CIRCLE
8
BLACK
10
2.0929133858267717
20
-2.5159448818897636
40
0.0068897637795276
0
CIRCLE
8
BLACK
10
2.1929133858267718
20
-2.5159448818897636
40
0.0068897637795276
0
CIRCLE
8
BLACK
10
2.0929133858267717
20
-2.6159448818897637
40
0.0068897637795276
0
CIRCLE
8
BLACK
10
2.1929133858267718
20
-2.6159448818897637
40
0.0068897637795276
0
CIRCLE
8
BLACK
10
2.0929133858267717
20
-2.7159448818897638
40
0.0068897637795276
0
CIRCLE
8
BLACK
10
2.1929133858267718
20
-2.7159448818897638
40
0.0068897637795276
0
CIRCLE
8
BLACK
10
2.0929133858267717
20
-2.8159448818897639
40
0.0068897637795276
0
CIRCLE
8
BLACK
10
2.1929133858267718
20
-2.8159448818897639
40
0.0068897637795276
0
CIRCLE
8
BLACK
10
2.0929133858267717
20
-2.9159448818897635
40
0.0068897637795276
0
CIRCLE
8
BLACK
10
2.1929133858267718
20
-2.9159448818897635
40
0.0068897637795276
0
CIRCLE
8
BLACK
10
3.0299212598425198
20
-1.7127952755905511
40
0.0068897637795276
0
CIRCLE
8
BLACK
10
3.1299212598425195
20
-1.7127952755905511
40
0.0068897637795276
0
CIRCLE
8
BLACK
10
1.0905511811023623
20
-6.71259842519685
40
0.0068897637795276
0
CIRCLE
8
BLACK
10
4.4998031496062989
20
-3.0120078740157479
40
0.0068897637795276
0
CIRCLE
8
BLACK
10
3.0299212598425198
20
-2.0120078740157479
40
0.0068897637795276
0
CIRCLE
8
BLACK
10
3.1299212598425195
20
-2.0120078740157479
40
0.0068897637795276
0
CIRCLE
8
BLACK
10
4.0866141732283463
20
-3.2755905511811023
40
0.0068897637795276
0
CIRCLE
8
BLACK
10
4.0866141732283463
20
-3.1755904724409447
40
0.0068897637795276
0
CIRCLE
8
BLACK
10
4.2165354330708658
20
-3.2755905511811023
40
0.0068897637795276
0
CIRCLE
8
BLACK
10
4.2165354330708658
20
-3.1755905511811022
40
0.0068897637795276
0
CIRCLE
8
BLACK
10
4.2165354330708658
20
-3.0755905905511809
40
0.0068897637795276
0
CIRCLE
8
BLACK
10
1.0905511811023623
20
-5.8740771653543309
40
0.0068897637795276
0
CIRCLE
8
BLACK
10
1.0905511811023623
20
-6.4330913385826767
40
0.0068897637795276
0
CIRCLE
8
BLACK
10
1.0905511811023623
20
-6.1535842519685042
40
0.0068897637795276
0
CIRCLE
8
BLACK
10
2.7503937007874013
20
-1.612007874015748
40
0.0068897637795276
0
CIRCLE
8
BLACK
10
2.8503937007874014
20
-1.612007874015748
40
0.0068897637795276
0
CIRCLE
8
BLACK
10
2.7503937007874013
20
-1.7120078740157481
40
0.0068897637795276
0
CIRCLE
8
BLACK
10
2.8503937007874014
20
-1.7120078740157481
40
0.0068897637795276
0
CIRCLE
8
BLACK
10
2.7503937007874013
20
-1.8120078740157479
40
0.0068897637795276
0
CIRCLE
8
BLACK
10
2.8503937007874014
20
-1.8120078740157479
40
0.0068897637795276
0
CIRCLE
8
BLACK
10
2.7503937007874013
20
-1.912007874015748
40
0.0068897637795276
0
CIRCLE
8
BLACK
10
2.8503937007874014
20
-1.912007874015748
40
0.0068897637795276
0
CIRCLE
8
BLACK
10
2.7503937007874013
20
-2.0120078740157479
40
0.0068897637795276
0
CIRCLE
8
BLACK
10
2.8503937007874014
20
-2.0120078740157479
40
0.0068897637795276
0
CIRCLE
8
BLACK
10
4.4015748031496065
20
-1.4743110236220471
40
0.0068897637795276
0
CIRCLE
8
BLACK
10
4.3015748031496059
20
-1.4743110236220471
40
0.0068897637795276
0
CIRCLE
8
BLACK
10
4.4015748031496065
20
-1.3743110236220473
40
0.0068897637795276
0
CIRCLE
8
BLACK
10
4.3015748031496059
20
-1.3743110236220473
40
0.0068897637795276
0
CIRCLE
8
BLACK
10
4.4015748031496065
20
-1.2743110629921259
40
0.0068897637795276
0
CIRCLE
8
BLACK
10
4.3015748031496059
20
-1.2743110236220472
40
0.0068897637795276
0
CIRCLE
8
BLACK
10
4.4015748031496065
20
-1.1743110236220473
40
0.0068897637795276
0
CIRCLE
8
BLACK
10
4.3015748031496059
20
-1.1743110236220473
40
0.0068897637795276
0
CIRCLE
8
BLACK
10
4.4015748031496065
20
-1.0743110236220472
40
0.0068897637795276
0
CIRCLE
8
BLACK
10
4.3015748031496059
20
-1.0743110236220472
40
0.0068897637795276
0
CIRCLE
8
BLACK
10
2.7511811023622048
20
-4.5196850393700787
40
0.0068897637795276
0
CIRCLE
8
BLACK
10
2.7511811023622048
20
-4.3196850787401573
40
0.0068897637795276
0
CIRCLE
8
BLACK
10
3.5511811023622046
20
-4.8196850393700785
40
0.0068897637795276
0
CIRCLE
8
BLACK
10
3.5511811023622046
20
-4.4196850393700791
40
0.0068897637795276
0
CIRCLE
8
BLACK
10
3.5511811023622046
20
-4.0196850393700787
40
0.0068897637795276
0
CIRCLE
8
BLACK
10
2.7511811023622048
20
-4.0196850393700787
40
0.0068897637795276
  0
ENDSEC
  0
EOF
