  0
SECTION
  2
HEADER
  9
$ANGBASE
  50
0.0
  9
$ANGDIR
  70
1
  9
$MEASUREMENT
  70
0
  9
$INSUNITS
  70
1
  0
ENDSEC
  0
SECTION
  2
TABLES
  0
TABLE
  2
LTYPE
  70
4
  0
LTYPE
  5
40F
  2
CONTINUOUS
  70
0
  3
Solid line
  72
65
  73
0
  40
0.0
  0
LTYPE
  5
410
  2
DASHDOT
 70
0
  3
Dash Dot ____ _ ____ _
 72
65
 73
4
 40
2.0
 49
1.25
 49
-0.25
 49
0.25
 49
-0.25
  0
LTYPE
  5
411
  2
DASHED
 70
0
  3
Dashed __ __ __ __ __
 72
65
 73
2
 40
0.75
 49
0.5
 49
-0.25
  0
LTYPE
  5
43B
  2
DOTTED
 70
0
  3
Dotted .  .  .  .
 72
65
 73
2
 40
0.2
 49
0.0
 49
-0.2
  0
ENDTAB
  0
TABLE
  2
STYLE
  70
4
  0
STYLE
  2
KICAD
  70
0
  40
0
  41
1
  42
1
  50
0
  71
0
  3
isocp.shx
  0
STYLE
  2
KICADB
  70
0
  40
0
  41
1
  42
1
  50
0
  71
0
  3
isocp.shx
  0
STYLE
  2
KICADI
  70
0
  40
0
  41
1
  42
1
  50
15
  71
0
  3
isocp.shx
  0
STYLE
  2
KICADBI
  70
0
  40
0
  41
1
  42
1
  50
15
  71
0
  3
isocp.shx
  0
ENDTAB
  0
TABLE
  2
LAYER
  70
1
  0
LAYER
  2
BLACK
  70
0
  62
250
  6
CONTINUOUS
  0
ENDTAB
  0
ENDSEC
  0
SECTION
  2
ENTITIES
0
LINE
8
BLACK
6
CONTINUOUS
10
1.4570695669291338
20
4.7056337401574799
11
1.4576022440944882
21
4.7051010629921262
0
LINE
8
BLACK
6
CONTINUOUS
10
1.4576022440944882
20
4.7051010629921262
11
1.4576771653543308
21
4.7047244094488185
0
LINE
8
BLACK
6
CONTINUOUS
10
1.4576771653543308
20
4.7047244094488185
11
1.4576771653543308
21
3.6072834645669292
0
LINE
8
BLACK
6
CONTINUOUS
10
1.4576771653543308
20
3.6072834645669292
11
1.6377952755905512
21
3.6072834645669292
0
LINE
8
BLACK
6
CONTINUOUS
10
1.6377952755905512
20
3.6072834645669292
11
1.6523016929133858
21
3.6065232283464566
0
LINE
8
BLACK
6
CONTINUOUS
10
1.6523016929133858
20
3.6065232283464566
11
1.6666491732283464
21
3.6042507874015746
0
LINE
8
BLACK
6
CONTINUOUS
10
1.6666491732283464
20
3.6042507874015746
11
1.6806805118110235
21
3.6004911023622048
0
LINE
8
BLACK
6
CONTINUOUS
10
1.6806805118110235
20
3.6004911023622048
11
1.6942420078740157
21
3.5952853543307084
0
LINE
8
BLACK
6
CONTINUOUS
10
1.6942420078740157
20
3.5952853543307084
11
1.7071850393700787
21
3.5886905511811023
0
LINE
8
BLACK
6
CONTINUOUS
10
1.7071850393700787
20
3.5886905511811023
11
1.7193678346456693
21
3.580778937007874
0
LINE
8
BLACK
6
CONTINUOUS
10
1.7193678346456693
20
3.580778937007874
11
1.7306568897637795
21
3.5716372440944881
0
LINE
8
BLACK
6
CONTINUOUS
10
1.7306568897637795
20
3.5716372440944881
11
1.7409285826771652
21
3.5613655511811024
0
LINE
8
BLACK
6
CONTINUOUS
10
1.7409285826771652
20
3.5613655511811024
11
1.7500702755905511
21
3.5500764960629922
0
LINE
8
BLACK
6
CONTINUOUS
10
1.7500702755905511
20
3.5500764960629922
11
1.7579818897637796
21
3.5378937007874014
0
LINE
8
BLACK
6
CONTINUOUS
10
1.7579818897637796
20
3.5378937007874014
11
1.7645766929133857
21
3.5249506692913384
0
LINE
8
BLACK
6
CONTINUOUS
10
1.7645766929133857
20
3.5249506692913384
11
1.7697824409448819
21
3.5113891732283462
0
LINE
8
BLACK
6
CONTINUOUS
10
1.7697824409448819
20
3.5113891732283462
11
1.7735421259842519
21
3.4973578346456691
0
LINE
8
BLACK
6
CONTINUOUS
10
1.7735421259842519
20
3.4973578346456691
11
1.7758145669291339
21
3.4830103543307085
0
LINE
8
BLACK
6
CONTINUOUS
10
1.7758145669291339
20
3.4830103543307085
11
1.7765748031496063
21
3.4685039370078741
0
LINE
8
BLACK
6
CONTINUOUS
10
1.7765748031496063
20
3.4685039370078741
11
1.7758145669291339
21
3.4539975196850392
0
LINE
8
BLACK
6
CONTINUOUS
10
1.7758145669291339
20
3.4539975196850392
11
1.7735421259842519
21
3.4396500393700786
0
LINE
8
BLACK
6
CONTINUOUS
10
1.7735421259842519
20
3.4396500393700786
11
1.7697824409448819
21
3.4256187007874015
0
LINE
8
BLACK
6
CONTINUOUS
10
1.7697824409448819
20
3.4256187007874015
11
1.7645766929133857
21
3.4120572047244093
0
LINE
8
BLACK
6
CONTINUOUS
10
1.7645766929133857
20
3.4120572047244093
11
1.7579818897637796
21
3.3991141732283463
0
LINE
8
BLACK
6
CONTINUOUS
10
1.7579818897637796
20
3.3991141732283463
11
1.7500702755905511
21
3.3869313779527559
0
LINE
8
BLACK
6
CONTINUOUS
10
1.7500702755905511
20
3.3869313779527559
11
1.7409285826771652
21
3.3756423228346457
0
LINE
8
BLACK
6
CONTINUOUS
10
1.7409285826771652
20
3.3756423228346457
11
1.7306568897637795
21
3.3653706299212596
0
LINE
8
BLACK
6
CONTINUOUS
10
1.7306568897637795
20
3.3653706299212596
11
1.7193678346456693
21
3.3562289370078737
0
LINE
8
BLACK
6
CONTINUOUS
10
1.7193678346456693
20
3.3562289370078737
11
1.7071850393700787
21
3.3483173228346454
0
LINE
8
BLACK
6
CONTINUOUS
10
1.7071850393700787
20
3.3483173228346454
11
1.6942420078740157
21
3.3417225196850393
0
LINE
8
BLACK
6
CONTINUOUS
10
1.6942420078740157
20
3.3417225196850393
11
1.6806805118110235
21
3.3365167716535433
0
LINE
8
BLACK
6
CONTINUOUS
10
1.6806805118110235
20
3.3365167716535433
11
1.6666491732283464
21
3.3327570866141731
0
LINE
8
BLACK
6
CONTINUOUS
10
1.6666491732283464
20
3.3327570866141731
11
1.6523016929133858
21
3.3304846456692911
0
LINE
8
BLACK
6
CONTINUOUS
10
1.6523016929133858
20
3.3304846456692911
11
1.6377952755905512
21
3.329724409448819
0
LINE
8
BLACK
6
CONTINUOUS
10
1.6377952755905512
20
3.329724409448819
11
1.4576771653543308
21
3.329724409448819
0
LINE
8
BLACK
6
CONTINUOUS
10
1.4576771653543308
20
3.329724409448819
11
1.4576771653543308
21
0.8474409448818897
0
LINE
8
BLACK
6
CONTINUOUS
10
1.4576771653543308
20
0.8474409448818897
11
1.6377952755905512
21
0.8474409448818897
0
LINE
8
BLACK
6
CONTINUOUS
10
1.6377952755905512
20
0.8474409448818897
11
1.6523016929133858
21
0.8466807086614173
0
LINE
8
BLACK
6
CONTINUOUS
10
1.6523016929133858
20
0.8466807086614173
11
1.6666491732283464
21
0.8444082677165354
0
LINE
8
BLACK
6
CONTINUOUS
10
1.6666491732283464
20
0.8444082677165354
11
1.6806805118110235
21
0.8406485826771654
0
LINE
8
BLACK
6
CONTINUOUS
10
1.6806805118110235
20
0.8406485826771654
11
1.6942420078740157
21
0.8354428346456693
0
LINE
8
BLACK
6
CONTINUOUS
10
1.6942420078740157
20
0.8354428346456693
11
1.7071850393700787
21
0.828848031496063
0
LINE
8
BLACK
6
CONTINUOUS
10
1.7071850393700787
20
0.828848031496063
11
1.7193678346456693
21
0.8209364173228346
0
LINE
8
BLACK
6
CONTINUOUS
10
1.7193678346456693
20
0.8209364173228346
11
1.7306568897637795
21
0.8117947244094488
0
LINE
8
BLACK
6
CONTINUOUS
10
1.7306568897637795
20
0.8117947244094488
11
1.7409285826771652
21
0.801523031496063
0
LINE
8
BLACK
6
CONTINUOUS
10
1.7409285826771652
20
0.801523031496063
11
1.7500702755905511
21
0.7902339763779528
0
LINE
8
BLACK
6
CONTINUOUS
10
1.7500702755905511
20
0.7902339763779528
11
1.7579818897637796
21
0.7780511811023622
0
LINE
8
BLACK
6
CONTINUOUS
10
1.7579818897637796
20
0.7780511811023622
11
1.7645766929133857
21
0.7651081496062992
0
LINE
8
BLACK
6
CONTINUOUS
10
1.7645766929133857
20
0.7651081496062992
11
1.7697824409448819
21
0.7515466535433071
0
LINE
8
BLACK
6
CONTINUOUS
10
1.7697824409448819
20
0.7515466535433071
11
1.7735421259842519
21
0.7375153149606299
0
LINE
8
BLACK
6
CONTINUOUS
10
1.7735421259842519
20
0.7375153149606299
11
1.7758145669291339
21
0.7231678346456692
0
LINE
8
BLACK
6
CONTINUOUS
10
1.7758145669291339
20
0.7231678346456692
11
1.7765748031496063
21
0.7086614173228346
0
LINE
8
BLACK
6
CONTINUOUS
10
1.7765748031496063
20
0.7086614173228346
11
1.7758145669291339
21
0.694155
0
LINE
8
BLACK
6
CONTINUOUS
10
1.7758145669291339
20
0.694155
11
1.7735421259842519
21
0.6798075196850394
0
LINE
8
BLACK
6
CONTINUOUS
10
1.7735421259842519
20
0.6798075196850394
11
1.7697824409448819
21
0.6657761811023621
0
LINE
8
BLACK
6
CONTINUOUS
10
1.7697824409448819
20
0.6657761811023621
11
1.7645766929133857
21
0.6522146850393701
0
LINE
8
BLACK
6
CONTINUOUS
10
1.7645766929133857
20
0.6522146850393701
11
1.7579818897637796
21
0.6392716535433071
0
LINE
8
BLACK
6
CONTINUOUS
10
1.7579818897637796
20
0.6392716535433071
11
1.7500702755905511
21
0.6270888582677165
0
LINE
8
BLACK
6
CONTINUOUS
10
1.7500702755905511
20
0.6270888582677165
11
1.7409285826771652
21
0.6157998031496063
0
LINE
8
BLACK
6
CONTINUOUS
10
1.7409285826771652
20
0.6157998031496063
11
1.7306568897637795
21
0.6055281102362204
0
LINE
8
BLACK
6
CONTINUOUS
10
1.7306568897637795
20
0.6055281102362204
11
1.7193678346456693
21
0.5963864173228346
0
LINE
8
BLACK
6
CONTINUOUS
10
1.7193678346456693
20
0.5963864173228346
11
1.7071850393700787
21
0.5884748031496063
0
LINE
8
BLACK
6
CONTINUOUS
10
1.7071850393700787
20
0.5884748031496063
11
1.6942420078740157
21
0.58188
0
LINE
8
BLACK
6
CONTINUOUS
10
1.6942420078740157
20
0.58188
11
1.6806805118110235
21
0.576674251968504
0
LINE
8
BLACK
6
CONTINUOUS
10
1.6806805118110235
20
0.576674251968504
11
1.6666491732283464
21
0.5729145669291339
0
LINE
8
BLACK
6
CONTINUOUS
10
1.6666491732283464
20
0.5729145669291339
11
1.6523016929133858
21
0.5706421259842519
0
LINE
8
BLACK
6
CONTINUOUS
10
1.6523016929133858
20
0.5706421259842519
11
1.6377952755905512
21
0.5698818897637795
0
LINE
8
BLACK
6
CONTINUOUS
10
1.6377952755905512
20
0.5698818897637795
11
1.4576771653543308
21
0.5698818897637795
0
LINE
8
BLACK
6
CONTINUOUS
10
1.4576771653543308
20
0.5698818897637795
11
1.4576771653543308
21
0.
0
LINE
8
BLACK
6
CONTINUOUS
10
1.4576771653543308
20
0.
11
1.4576022440944882
21
-0.0003766535433071
0
LINE
8
BLACK
6
CONTINUOUS
10
1.4576022440944882
20
-0.0003766535433071
11
1.4570695669291338
21
-0.0009093307086614
0
LINE
8
BLACK
6
CONTINUOUS
10
1.4570695669291338
20
-0.0009093307086614
11
1.4566929133858268
21
-0.0009842519685039
0
LINE
8
BLACK
6
CONTINUOUS
10
1.4566929133858268
20
-0.0009842519685039
11
-1.405511811023622
21
-0.0009842519685039
0
LINE
8
BLACK
6
CONTINUOUS
10
-1.405511811023622
20
-0.0009842519685039
11
-1.4058884645669292
21
-0.0009093307086614
0
LINE
8
BLACK
6
CONTINUOUS
10
-1.4058884645669292
20
-0.0009093307086614
11
-1.4064211417322834
21
-0.0003766535433071
0
LINE
8
BLACK
6
CONTINUOUS
10
-1.4064211417322834
20
-0.0003766535433071
11
-1.4064960629921259
21
0.
0
LINE
8
BLACK
6
CONTINUOUS
10
-1.4064960629921259
20
0.
11
-1.4064960629921259
21
0.3651575196850393
0
LINE
8
BLACK
6
CONTINUOUS
10
-1.4064960629921259
20
0.3651575196850393
11
-1.6141732283464567
21
0.3651575196850393
0
LINE
8
BLACK
6
CONTINUOUS
10
-1.6141732283464567
20
0.3651575196850393
11
-1.6286796456692914
21
0.3659177559055118
0
LINE
8
BLACK
6
CONTINUOUS
10
-1.6286796456692914
20
0.3659177559055118
11
-1.6430271259842519
21
0.3681901968503937
0
LINE
8
BLACK
6
CONTINUOUS
10
-1.6430271259842519
20
0.3681901968503937
11
-1.6570584645669291
21
0.3719498818897637
0
LINE
8
BLACK
6
CONTINUOUS
10
-1.6570584645669291
20
0.3719498818897637
11
-1.6706199212598425
21
0.3771556299212598
0
LINE
8
BLACK
6
CONTINUOUS
10
-1.6706199212598425
20
0.3771556299212598
11
-1.6835629921259843
21
0.3837504724409449
0
LINE
8
BLACK
6
CONTINUOUS
10
-1.6835629921259843
20
0.3837504724409449
11
-1.6957457480314959
21
0.3916620472440945
0
LINE
8
BLACK
6
CONTINUOUS
10
-1.6957457480314959
20
0.3916620472440945
11
-1.7070348425196851
21
0.400803779527559
0
LINE
8
BLACK
6
CONTINUOUS
10
-1.7070348425196851
20
0.400803779527559
11
-1.717306496062992
21
0.4110754330708661
0
LINE
8
BLACK
6
CONTINUOUS
10
-1.717306496062992
20
0.4110754330708661
11
-1.7264481889763779
21
0.4223644881889764
0
LINE
8
BLACK
6
CONTINUOUS
10
-1.7264481889763779
20
0.4223644881889764
11
-1.7343598031496064
21
0.4345472834645669
0
LINE
8
BLACK
6
CONTINUOUS
10
-1.7343598031496064
20
0.4345472834645669
11
-1.7409546062992125
21
0.4474903149606299
0
LINE
8
BLACK
6
CONTINUOUS
10
-1.7409546062992125
20
0.4474903149606299
11
-1.7461603543307087
21
0.461051811023622
0
LINE
8
BLACK
6
CONTINUOUS
10
-1.7461603543307087
20
0.461051811023622
11
-1.7499200393700787
21
0.4750831496062992
0
LINE
8
BLACK
6
CONTINUOUS
10
-1.7499200393700787
20
0.4750831496062992
11
-1.7521924803149607
21
0.4894306299212599
0
LINE
8
BLACK
6
CONTINUOUS
10
-1.7521924803149607
20
0.4894306299212599
11
-1.7529527165354331
21
0.5039370078740157
0
LINE
8
BLACK
6
CONTINUOUS
10
-1.7529527165354331
20
0.5039370078740157
11
-1.7521924803149607
21
0.5184434251968504
0
LINE
8
BLACK
6
CONTINUOUS
10
-1.7521924803149607
20
0.5184434251968504
11
-1.7499200393700787
21
0.532790905511811
0
LINE
8
BLACK
6
CONTINUOUS
10
-1.7499200393700787
20
0.532790905511811
11
-1.7461603543307087
21
0.5468222440944882
0
LINE
8
BLACK
6
CONTINUOUS
10
-1.7461603543307087
20
0.5468222440944882
11
-1.7409546062992125
21
0.5603837401574803
0
LINE
8
BLACK
6
CONTINUOUS
10
-1.7409546062992125
20
0.5603837401574803
11
-1.7343598031496064
21
0.5733267716535433
0
LINE
8
BLACK
6
CONTINUOUS
10
-1.7343598031496064
20
0.5733267716535433
11
-1.7264481889763779
21
0.5855095669291338
0
LINE
8
BLACK
6
CONTINUOUS
10
-1.7264481889763779
20
0.5855095669291338
11
-1.717306496062992
21
0.5967986220472441
0
LINE
8
BLACK
6
CONTINUOUS
10
-1.717306496062992
20
0.5967986220472441
11
-1.7070348425196851
21
0.6070702755905512
0
LINE
8
BLACK
6
CONTINUOUS
10
-1.7070348425196851
20
0.6070702755905512
11
-1.6957457480314959
21
0.6162120078740158
0
LINE
8
BLACK
6
CONTINUOUS
10
-1.6957457480314959
20
0.6162120078740158
11
-1.6835629921259843
21
0.6241235826771654
0
LINE
8
BLACK
6
CONTINUOUS
10
-1.6835629921259843
20
0.6241235826771654
11
-1.6706199212598425
21
0.6307184251968504
0
LINE
8
BLACK
6
CONTINUOUS
10
-1.6706199212598425
20
0.6307184251968504
11
-1.6570584645669291
21
0.6359241732283465
0
LINE
8
BLACK
6
CONTINUOUS
10
-1.6570584645669291
20
0.6359241732283465
11
-1.6430271259842519
21
0.6396838582677166
0
LINE
8
BLACK
6
CONTINUOUS
10
-1.6430271259842519
20
0.6396838582677166
11
-1.6286796456692914
21
0.6419562992125984
0
LINE
8
BLACK
6
CONTINUOUS
10
-1.6286796456692914
20
0.6419562992125984
11
-1.6141732283464567
21
0.6427165354330708
0
LINE
8
BLACK
6
CONTINUOUS
10
-1.6141732283464567
20
0.6427165354330708
11
-1.4064960629921259
21
0.6427165354330708
0
LINE
8
BLACK
6
CONTINUOUS
10
-1.4064960629921259
20
0.6427165354330708
11
-1.4064960629921259
21
4.7047244094488185
0
LINE
8
BLACK
6
CONTINUOUS
10
-1.4064960629921259
20
4.7047244094488185
11
-1.4064211417322834
21
4.7051010629921262
0
LINE
8
BLACK
6
CONTINUOUS
10
-1.4064211417322834
20
4.7051010629921262
11
-1.4058884645669292
21
4.7056337401574799
0
LINE
8
BLACK
6
CONTINUOUS
10
-1.4058884645669292
20
4.7056337401574799
11
-1.405511811023622
21
4.7057086614173231
0
LINE
8
BLACK
6
CONTINUOUS
10
-1.405511811023622
20
4.7057086614173231
11
1.4566929133858268
21
4.7057086614173231
0
LINE
8
BLACK
6
CONTINUOUS
10
1.4566929133858268
20
4.7057086614173231
11
1.4570695669291338
21
4.7056337401574799
0
LINE
8
BLACK
6
CONTINUOUS
10
-1.4045275590551181
20
4.7037401574803148
11
-1.4045275590551181
21
0.6417322834645669
0
LINE
8
BLACK
6
CONTINUOUS
10
-1.4045275590551181
20
0.6417322834645669
11
-1.4046024803149606
21
0.6413556299212598
0
LINE
8
BLACK
6
CONTINUOUS
10
-1.4046024803149606
20
0.6413556299212598
11
-1.405135157480315
21
0.6408229527559055
0
LINE
8
BLACK
6
CONTINUOUS
10
-1.405135157480315
20
0.6408229527559055
11
-1.405511811023622
21
0.640748031496063
0
LINE
8
BLACK
6
CONTINUOUS
10
-1.405511811023622
20
0.640748031496063
11
-1.6141732283464567
21
0.640748031496063
0
LINE
8
BLACK
6
CONTINUOUS
10
-1.6141732283464567
20
0.640748031496063
11
-1.6213431889763779
21
0.640748031496063
0
LINE
8
BLACK
6
CONTINUOUS
10
-1.6213431889763779
20
0.640748031496063
11
-1.6356045669291339
21
0.639249094488189
0
LINE
8
BLACK
6
CONTINUOUS
10
-1.6356045669291339
20
0.639249094488189
11
-1.6496311023622048
21
0.6362676771653543
0
LINE
8
BLACK
6
CONTINUOUS
10
-1.6496311023622048
20
0.6362676771653543
11
-1.6632691732283464
21
0.6318363779527559
0
LINE
8
BLACK
6
CONTINUOUS
10
-1.6632691732283464
20
0.6318363779527559
11
-1.6763693700787401
21
0.6260038188976378
0
LINE
8
BLACK
6
CONTINUOUS
10
-1.6763693700787401
20
0.6260038188976378
11
-1.6887881102362203
21
0.6188338582677165
0
LINE
8
BLACK
6
CONTINUOUS
10
-1.6887881102362203
20
0.6188338582677165
11
-1.7003893307086613
21
0.6104050393700787
0
LINE
8
BLACK
6
CONTINUOUS
10
-1.7003893307086613
20
0.6104050393700787
11
-1.7110459842519685
21
0.6008097637795276
0
LINE
8
BLACK
6
CONTINUOUS
10
-1.7110459842519685
20
0.6008097637795276
11
-1.7206412598425196
21
0.5901531496062992
0
LINE
8
BLACK
6
CONTINUOUS
10
-1.7206412598425196
20
0.5901531496062992
11
-1.7290700393700786
21
0.5785518897637795
0
LINE
8
BLACK
6
CONTINUOUS
10
-1.7290700393700786
20
0.5785518897637795
11
-1.73624
21
0.5661331496062992
0
LINE
8
BLACK
6
CONTINUOUS
10
-1.73624
20
0.5661331496062992
11
-1.742072559055118
21
0.5530329921259842
0
LINE
8
BLACK
6
CONTINUOUS
10
-1.742072559055118
20
0.5530329921259842
11
-1.7465038582677166
21
0.5393949212598425
0
LINE
8
BLACK
6
CONTINUOUS
10
-1.7465038582677166
20
0.5393949212598425
11
-1.7494852755905512
21
0.5253683464566929
0
LINE
8
BLACK
6
CONTINUOUS
10
-1.7494852755905512
20
0.5253683464566929
11
-1.7509842125984252
21
0.511106968503937
0
LINE
8
BLACK
6
CONTINUOUS
10
-1.7509842125984252
20
0.511106968503937
11
-1.7509842125984252
21
0.4967670866141732
0
LINE
8
BLACK
6
CONTINUOUS
10
-1.7509842125984252
20
0.4967670866141732
11
-1.7494852755905512
21
0.4825057086614173
0
LINE
8
BLACK
6
CONTINUOUS
10
-1.7494852755905512
20
0.4825057086614173
11
-1.7465038582677166
21
0.4684791338582677
0
LINE
8
BLACK
6
CONTINUOUS
10
-1.7465038582677166
20
0.4684791338582677
11
-1.742072559055118
21
0.454841062992126
0
LINE
8
BLACK
6
CONTINUOUS
10
-1.742072559055118
20
0.454841062992126
11
-1.73624
21
0.441740905511811
0
LINE
8
BLACK
6
CONTINUOUS
10
-1.73624
20
0.441740905511811
11
-1.7290700393700786
21
0.4293221653543307
0
LINE
8
BLACK
6
CONTINUOUS
10
-1.7290700393700786
20
0.4293221653543307
11
-1.7206412598425196
21
0.417720905511811
0
LINE
8
BLACK
6
CONTINUOUS
10
-1.7206412598425196
20
0.417720905511811
11
-1.7110459842519685
21
0.4070642913385827
0
LINE
8
BLACK
6
CONTINUOUS
10
-1.7110459842519685
20
0.4070642913385827
11
-1.7003893307086613
21
0.3974690157480315
0
LINE
8
BLACK
6
CONTINUOUS
10
-1.7003893307086613
20
0.3974690157480315
11
-1.6887881102362203
21
0.3890401968503937
0
LINE
8
BLACK
6
CONTINUOUS
10
-1.6887881102362203
20
0.3890401968503937
11
-1.6763693700787401
21
0.3818702362204724
0
LINE
8
BLACK
6
CONTINUOUS
10
-1.6763693700787401
20
0.3818702362204724
11
-1.6632691732283464
21
0.3760376771653543
0
LINE
8
BLACK
6
CONTINUOUS
10
-1.6632691732283464
20
0.3760376771653543
11
-1.6496311023622048
21
0.3716063779527559
0
LINE
8
BLACK
6
CONTINUOUS
10
-1.6496311023622048
20
0.3716063779527559
11
-1.6356045669291339
21
0.3686249606299212
0
LINE
8
BLACK
6
CONTINUOUS
10
-1.6356045669291339
20
0.3686249606299212
11
-1.6213431889763779
21
0.3671260236220472
0
LINE
8
BLACK
6
CONTINUOUS
10
-1.6213431889763779
20
0.3671260236220472
11
-1.6141732283464567
21
0.3671260236220472
0
LINE
8
BLACK
6
CONTINUOUS
10
-1.6141732283464567
20
0.3671260236220472
11
-1.405511811023622
21
0.3671259842519685
0
LINE
8
BLACK
6
CONTINUOUS
10
-1.405511811023622
20
0.3671259842519685
11
-1.405135157480315
21
0.367051062992126
0
LINE
8
BLACK
6
CONTINUOUS
10
-1.405135157480315
20
0.367051062992126
11
-1.4046024803149606
21
0.3665183858267717
0
LINE
8
BLACK
6
CONTINUOUS
10
-1.4046024803149606
20
0.3665183858267717
11
-1.4045275590551181
21
0.3661417322834646
0
LINE
8
BLACK
6
CONTINUOUS
10
-1.4045275590551181
20
0.3661417322834646
11
-1.4045275590551181
21
0.0009842519685039
0
LINE
8
BLACK
6
CONTINUOUS
10
-1.4045275590551181
20
0.0009842519685039
11
1.4557086614173227
21
0.0009842519685039
0
LINE
8
BLACK
6
CONTINUOUS
10
1.4557086614173227
20
0.0009842519685039
11
1.4557086614173227
21
0.5708661417322834
0
LINE
8
BLACK
6
CONTINUOUS
10
1.4557086614173227
20
0.5708661417322834
11
1.4557835826771652
21
0.5712427952755905
0
LINE
8
BLACK
6
CONTINUOUS
10
1.4557835826771652
20
0.5712427952755905
11
1.4563162598425197
21
0.5717754724409448
0
LINE
8
BLACK
6
CONTINUOUS
10
1.4563162598425197
20
0.5717754724409448
11
1.4566929133858268
21
0.5718503937007874
0
LINE
8
BLACK
6
CONTINUOUS
10
1.4566929133858268
20
0.5718503937007874
11
1.6377952755905512
21
0.5718503937007874
0
LINE
8
BLACK
6
CONTINUOUS
10
1.6377952755905512
20
0.5718503937007874
11
1.6449652362204723
21
0.5718503937007874
0
LINE
8
BLACK
6
CONTINUOUS
10
1.6449652362204723
20
0.5718503937007874
11
1.6592266141732284
21
0.5733493307086615
0
LINE
8
BLACK
6
CONTINUOUS
10
1.6592266141732284
20
0.5733493307086615
11
1.6732531496062992
21
0.5763307480314961
0
LINE
8
BLACK
6
CONTINUOUS
10
1.6732531496062992
20
0.5763307480314961
11
1.6868912598425196
21
0.5807620472440945
0
LINE
8
BLACK
6
CONTINUOUS
10
1.6868912598425196
20
0.5807620472440945
11
1.6999914173228345
21
0.5865946062992126
0
LINE
8
BLACK
6
CONTINUOUS
10
1.6999914173228345
20
0.5865946062992126
11
1.712410157480315
21
0.5937645669291338
0
LINE
8
BLACK
6
CONTINUOUS
10
1.712410157480315
20
0.5937645669291338
11
1.7240114173228347
21
0.6021933858267716
0
LINE
8
BLACK
6
CONTINUOUS
10
1.7240114173228347
20
0.6021933858267716
11
1.734668031496063
21
0.6117886614173228
0
LINE
8
BLACK
6
CONTINUOUS
10
1.734668031496063
20
0.6117886614173228
11
1.744263307086614
21
0.6224452755905512
0
LINE
8
BLACK
6
CONTINUOUS
10
1.744263307086614
20
0.6224452755905512
11
1.7526921259842518
21
0.6340465354330709
0
LINE
8
BLACK
6
CONTINUOUS
10
1.7526921259842518
20
0.6340465354330709
11
1.7598620866141732
21
0.6464652755905511
0
LINE
8
BLACK
6
CONTINUOUS
10
1.7598620866141732
20
0.6464652755905511
11
1.7656946456692912
21
0.6595654330708661
0
LINE
8
BLACK
6
CONTINUOUS
10
1.7656946456692912
20
0.6595654330708661
11
1.7701259448818898
21
0.6732035433070866
0
LINE
8
BLACK
6
CONTINUOUS
10
1.7701259448818898
20
0.6732035433070866
11
1.7731073622047244
21
0.6872300787401575
0
LINE
8
BLACK
6
CONTINUOUS
10
1.7731073622047244
20
0.6872300787401575
11
1.7746062992125984
21
0.7014914566929134
0
LINE
8
BLACK
6
CONTINUOUS
10
1.7746062992125984
20
0.7014914566929134
11
1.7746062992125984
21
0.7158313779527559
0
LINE
8
BLACK
6
CONTINUOUS
10
1.7746062992125984
20
0.7158313779527559
11
1.7731073622047244
21
0.7300927559055118
0
LINE
8
BLACK
6
CONTINUOUS
10
1.7731073622047244
20
0.7300927559055118
11
1.7701259448818898
21
0.7441192913385827
0
LINE
8
BLACK
6
CONTINUOUS
10
1.7701259448818898
20
0.7441192913385827
11
1.7656946456692912
21
0.7577574015748031
0
LINE
8
BLACK
6
CONTINUOUS
10
1.7656946456692912
20
0.7577574015748031
11
1.7598620866141732
21
0.7708575590551181
0
LINE
8
BLACK
6
CONTINUOUS
10
1.7598620866141732
20
0.7708575590551181
11
1.7526921259842518
21
0.7832762992125984
0
LINE
8
BLACK
6
CONTINUOUS
10
1.7526921259842518
20
0.7832762992125984
11
1.744263307086614
21
0.7948775590551181
0
LINE
8
BLACK
6
CONTINUOUS
10
1.744263307086614
20
0.7948775590551181
11
1.734668031496063
21
0.8055341732283464
0
LINE
8
BLACK
6
CONTINUOUS
10
1.734668031496063
20
0.8055341732283464
11
1.7240114173228347
21
0.8151294488188976
0
LINE
8
BLACK
6
CONTINUOUS
10
1.7240114173228347
20
0.8151294488188976
11
1.712410157480315
21
0.8235582677165354
0
LINE
8
BLACK
6
CONTINUOUS
10
1.712410157480315
20
0.8235582677165354
11
1.6999914173228345
21
0.8307282283464567
0
LINE
8
BLACK
6
CONTINUOUS
10
1.6999914173228345
20
0.8307282283464567
11
1.6868912598425196
21
0.8365607874015748
0
LINE
8
BLACK
6
CONTINUOUS
10
1.6868912598425196
20
0.8365607874015748
11
1.6732531496062992
21
0.8409920866141732
0
LINE
8
BLACK
6
CONTINUOUS
10
1.6732531496062992
20
0.8409920866141732
11
1.6592266141732284
21
0.8439735039370079
0
LINE
8
BLACK
6
CONTINUOUS
10
1.6592266141732284
20
0.8439735039370079
11
1.6449652362204723
21
0.8454724409448818
0
LINE
8
BLACK
6
CONTINUOUS
10
1.6449652362204723
20
0.8454724409448818
11
1.6377952755905512
21
0.8454724409448818
0
LINE
8
BLACK
6
CONTINUOUS
10
1.6377952755905512
20
0.8454724409448818
11
1.4566929133858268
21
0.8454724409448818
0
LINE
8
BLACK
6
CONTINUOUS
10
1.4566929133858268
20
0.8454724409448818
11
1.4563162598425197
21
0.8455473622047244
0
LINE
8
BLACK
6
CONTINUOUS
10
1.4563162598425197
20
0.8455473622047244
11
1.4557835826771652
21
0.8460800393700787
0
LINE
8
BLACK
6
CONTINUOUS
10
1.4557835826771652
20
0.8460800393700787
11
1.4557086614173227
21
0.8464566929133858
0
LINE
8
BLACK
6
CONTINUOUS
10
1.4557086614173227
20
0.8464566929133858
11
1.4557086614173227
21
3.3307086614173227
0
LINE
8
BLACK
6
CONTINUOUS
10
1.4557086614173227
20
3.3307086614173227
11
1.4557835826771652
21
3.3310853149606299
0
LINE
8
BLACK
6
CONTINUOUS
10
1.4557835826771652
20
3.3310853149606299
11
1.4563162598425197
21
3.3316179921259841
0
LINE
8
BLACK
6
CONTINUOUS
10
1.4563162598425197
20
3.3316179921259841
11
1.4566929133858268
21
3.3316929133858268
0
LINE
8
BLACK
6
CONTINUOUS
10
1.4566929133858268
20
3.3316929133858268
11
1.6377952755905512
21
3.3316929133858268
0
LINE
8
BLACK
6
CONTINUOUS
10
1.6377952755905512
20
3.3316929133858268
11
1.6449652362204723
21
3.3316929133858268
0
LINE
8
BLACK
6
CONTINUOUS
10
1.6449652362204723
20
3.3316929133858268
11
1.6592266141732284
21
3.3331918503937006
0
LINE
8
BLACK
6
CONTINUOUS
10
1.6592266141732284
20
3.3331918503937006
11
1.6732531496062992
21
3.3361732677165352
0
LINE
8
BLACK
6
CONTINUOUS
10
1.6732531496062992
20
3.3361732677165352
11
1.6868912598425196
21
3.3406045669291338
0
LINE
8
BLACK
6
CONTINUOUS
10
1.6868912598425196
20
3.3406045669291338
11
1.6999914173228345
21
3.3464371259842518
0
LINE
8
BLACK
6
CONTINUOUS
10
1.6999914173228345
20
3.3464371259842518
11
1.712410157480315
21
3.3536070866141729
0
LINE
8
BLACK
6
CONTINUOUS
10
1.712410157480315
20
3.3536070866141729
11
1.7240114173228347
21
3.362035905511811
0
LINE
8
BLACK
6
CONTINUOUS
10
1.7240114173228347
20
3.362035905511811
11
1.734668031496063
21
3.3716311811023623
0
LINE
8
BLACK
6
CONTINUOUS
10
1.734668031496063
20
3.3716311811023623
11
1.744263307086614
21
3.3822877952755905
0
LINE
8
BLACK
6
CONTINUOUS
10
1.744263307086614
20
3.3822877952755905
11
1.7526921259842518
21
3.3938890551181102
0
LINE
8
BLACK
6
CONTINUOUS
10
1.7526921259842518
20
3.3938890551181102
11
1.7598620866141732
21
3.4063077952755907
0
LINE
8
BLACK
6
CONTINUOUS
10
1.7598620866141732
20
3.4063077952755907
11
1.7656946456692912
21
3.4194079527559054
0
LINE
8
BLACK
6
CONTINUOUS
10
1.7656946456692912
20
3.4194079527559054
11
1.7701259448818898
21
3.4330460629921258
0
LINE
8
BLACK
6
CONTINUOUS
10
1.7701259448818898
20
3.4330460629921258
11
1.7731073622047244
21
3.4470725984251969
0
LINE
8
BLACK
6
CONTINUOUS
10
1.7731073622047244
20
3.4470725984251969
11
1.7746062992125984
21
3.4613339763779525
0
LINE
8
BLACK
6
CONTINUOUS
10
1.7746062992125984
20
3.4613339763779525
11
1.7746062992125984
21
3.4756738976377952
0
LINE
8
BLACK
6
CONTINUOUS
10
1.7746062992125984
20
3.4756738976377952
11
1.7731073622047244
21
3.4899352755905513
0
LINE
8
BLACK
6
CONTINUOUS
10
1.7731073622047244
20
3.4899352755905513
11
1.7701259448818898
21
3.5039618110236219
0
LINE
8
BLACK
6
CONTINUOUS
10
1.7701259448818898
20
3.5039618110236219
11
1.7656946456692912
21
3.5175999212598423
0
LINE
8
BLACK
6
CONTINUOUS
10
1.7656946456692912
20
3.5175999212598423
11
1.7598620866141732
21
3.5307000787401575
0
LINE
8
BLACK
6
CONTINUOUS
10
1.7598620866141732
20
3.5307000787401575
11
1.7526921259842518
21
3.5431188188976379
0
LINE
8
BLACK
6
CONTINUOUS
10
1.7526921259842518
20
3.5431188188976379
11
1.744263307086614
21
3.5547200787401576
0
LINE
8
BLACK
6
CONTINUOUS
10
1.744263307086614
20
3.5547200787401576
11
1.734668031496063
21
3.5653766929133859
0
LINE
8
BLACK
6
CONTINUOUS
10
1.734668031496063
20
3.5653766929133859
11
1.7240114173228347
21
3.5749719685039367
0
LINE
8
BLACK
6
CONTINUOUS
10
1.7240114173228347
20
3.5749719685039367
11
1.712410157480315
21
3.5834007874015747
0
LINE
8
BLACK
6
CONTINUOUS
10
1.712410157480315
20
3.5834007874015747
11
1.6999914173228345
21
3.5905707480314959
0
LINE
8
BLACK
6
CONTINUOUS
10
1.6999914173228345
20
3.5905707480314959
11
1.6868912598425196
21
3.5964033070866139
0
LINE
8
BLACK
6
CONTINUOUS
10
1.6868912598425196
20
3.5964033070866139
11
1.6732531496062992
21
3.6008346062992125
0
LINE
8
BLACK
6
CONTINUOUS
10
1.6732531496062992
20
3.6008346062992125
11
1.6592266141732284
21
3.6038160236220471
0
LINE
8
BLACK
6
CONTINUOUS
10
1.6592266141732284
20
3.6038160236220471
11
1.6449652362204723
21
3.6053149606299213
0
LINE
8
BLACK
6
CONTINUOUS
10
1.6449652362204723
20
3.6053149606299213
11
1.6377952755905512
21
3.6053149606299213
0
LINE
8
BLACK
6
CONTINUOUS
10
1.6377952755905512
20
3.6053149606299213
11
1.4566929133858268
21
3.6053149606299213
0
LINE
8
BLACK
6
CONTINUOUS
10
1.4566929133858268
20
3.6053149606299213
11
1.4563162598425197
21
3.6053898818897636
0
LINE
8
BLACK
6
CONTINUOUS
10
1.4563162598425197
20
3.6053898818897636
11
1.4557835826771652
21
3.6059225590551178
0
LINE
8
BLACK
6
CONTINUOUS
10
1.4557835826771652
20
3.6059225590551178
11
1.4557086614173227
21
3.606299212598425
0
LINE
8
BLACK
6
CONTINUOUS
10
1.4557086614173227
20
3.606299212598425
11
1.4557086614173227
21
4.7037401574803148
0
LINE
8
BLACK
6
CONTINUOUS
10
1.4557086614173227
20
4.7037401574803148
11
-1.4045275590551181
21
4.7037401574803148
0
CIRCLE
8
BLACK
10
-0.2013453543307087
20
3.6417322834645667
40
0.0068897637795276
0
CIRCLE
8
BLACK
10
-0.1013453543307087
20
3.6417322834645667
40
0.0068897637795276
0
CIRCLE
8
BLACK
10
-1.1299212598425197
20
0.7874015748031495
40
0.0068897637795276
0
CIRCLE
8
BLACK
10
0.5364499212598425
20
3.2165354330708662
40
0.0068897637795276
0
CIRCLE
8
BLACK
10
0.3986546456692913
20
3.2165354330708662
40
0.0068897637795276
0
CIRCLE
8
BLACK
10
1.0055118110236221
20
0.2188976377952756
40
0.0068897637795276
0
CIRCLE
8
BLACK
10
0.5055118110236221
20
0.2188976377952756
40
0.0068897637795276
0
CIRCLE
8
BLACK
10
0.8956692913385826
20
0.3188976377952756
40
0.0068897637795276
0
CIRCLE
8
BLACK
10
0.8556692913385826
20
0.3889764173228346
40
0.0068897637795276
0
CIRCLE
8
BLACK
10
0.8156692913385827
20
0.3188976377952756
40
0.0068897637795276
0
CIRCLE
8
BLACK
10
0.7756692913385826
20
0.3889764173228346
40
0.0068897637795276
0
CIRCLE
8
BLACK
10
0.7356692913385826
20
0.3188976377952756
40
0.0068897637795276
0
CIRCLE
8
BLACK
10
0.6956692913385827
20
0.3889764173228346
40
0.0068897637795276
0
CIRCLE
8
BLACK
10
0.6556692913385826
20
0.3188976377952756
40
0.0068897637795276
0
CIRCLE
8
BLACK
10
0.6156693307086614
20
0.3889763779527559
40
0.0068897637795276
0
CIRCLE
8
BLACK
10
1.0255905511811023
20
0.5787401574803149
40
0.0068897637795276
0
CIRCLE
8
BLACK
10
0.9354330708661417
20
0.5787401574803149
40
0.0068897637795276
0
CIRCLE
8
BLACK
10
0.5755905511811024
20
0.5787401574803149
40
0.0068897637795276
0
CIRCLE
8
BLACK
10
0.4854330708661417
20
0.5787401574803149
40
0.0068897637795276
0
CIRCLE
8
BLACK
10
1.0755905511811024
20
0.3539370078740157
40
0.0068897637795276
0
CIRCLE
8
BLACK
10
0.4354330708661417
20
0.3539370078740157
40
0.0068897637795276
0
CIRCLE
8
BLACK
10
-0.2013453543307087
20
3.9448818897637796
40
0.0068897637795276
0
CIRCLE
8
BLACK
10
-0.1013453543307087
20
3.9448818897637796
40
0.0068897637795276
0
CIRCLE
8
BLACK
10
-1.3218503937007873
20
4.466929133858268
40
0.0068897637795276
0
CIRCLE
8
BLACK
10
-1.2218503937007874
20
4.466929133858268
40
0.0068897637795276
0
CIRCLE
8
BLACK
10
-1.3218503937007873
20
4.3669291338582674
40
0.0068897637795276
0
CIRCLE
8
BLACK
10
-1.2218503937007874
20
4.3669291338582674
40
0.0068897637795276
0
CIRCLE
8
BLACK
10
-1.3218503937007873
20
4.2669291338582678
40
0.0068897637795276
0
CIRCLE
8
BLACK
10
-1.2218503937007874
20
4.2669291338582678
40
0.0068897637795276
0
CIRCLE
8
BLACK
10
-1.3218503937007873
20
4.1669291338582672
40
0.0068897637795276
0
CIRCLE
8
BLACK
10
-1.2218503937007874
20
4.1669291338582672
40
0.0068897637795276
0
CIRCLE
8
BLACK
10
-1.3218503937007873
20
4.0669291338582676
40
0.0068897637795276
0
CIRCLE
8
BLACK
10
-1.2218503937007874
20
4.0669291338582676
40
0.0068897637795276
0
CIRCLE
8
BLACK
10
-1.3218503937007873
20
3.9669291338582675
40
0.0068897637795276
0
CIRCLE
8
BLACK
10
-1.2218503937007874
20
3.9669291338582675
40
0.0068897637795276
0
CIRCLE
8
BLACK
10
-1.3218503937007873
20
3.8669291338582674
40
0.0068897637795276
0
CIRCLE
8
BLACK
10
-1.2218503937007874
20
3.8669291338582674
40
0.0068897637795276
0
CIRCLE
8
BLACK
10
-1.3218503937007873
20
3.7669291338582678
40
0.0068897637795276
0
CIRCLE
8
BLACK
10
-1.2218503937007874
20
3.7669291338582678
40
0.0068897637795276
0
CIRCLE
8
BLACK
10
-1.3218503937007873
20
3.6669291338582677
40
0.0068897637795276
0
CIRCLE
8
BLACK
10
-1.2218503937007874
20
3.6669291338582677
40
0.0068897637795276
0
CIRCLE
8
BLACK
10
-1.3218503937007873
20
3.5669291338582676
40
0.0068897637795276
0
CIRCLE
8
BLACK
10
-1.2218503937007874
20
3.5669291338582676
40
0.0068897637795276
0
CIRCLE
8
BLACK
10
-1.3218503937007873
20
3.4669291338582675
40
0.0068897637795276
0
CIRCLE
8
BLACK
10
-1.2218503937007874
20
3.4669291338582675
40
0.0068897637795276
0
CIRCLE
8
BLACK
10
-1.3218503937007873
20
3.3669291338582674
40
0.0068897637795276
0
CIRCLE
8
BLACK
10
-1.2218503937007874
20
3.3669291338582674
40
0.0068897637795276
0
CIRCLE
8
BLACK
10
-1.3218503937007873
20
3.2669291338582678
40
0.0068897637795276
0
CIRCLE
8
BLACK
10
-1.2218503937007874
20
3.2669291338582678
40
0.0068897637795276
0
CIRCLE
8
BLACK
10
-1.3218503937007873
20
3.1669291338582677
40
0.0068897637795276
0
CIRCLE
8
BLACK
10
-1.2218503937007874
20
3.1669291338582677
40
0.0068897637795276
0
CIRCLE
8
BLACK
10
-1.3218503937007873
20
3.0669291338582676
40
0.0068897637795276
0
CIRCLE
8
BLACK
10
-1.2218503937007874
20
3.0669291338582676
40
0.0068897637795276
0
CIRCLE
8
BLACK
10
-1.3218503937007873
20
2.9669291338582675
40
0.0068897637795276
0
CIRCLE
8
BLACK
10
-1.2218503937007874
20
2.9669291338582675
40
0.0068897637795276
0
CIRCLE
8
BLACK
10
-1.3218503937007873
20
2.8669291338582679
40
0.0068897637795276
0
CIRCLE
8
BLACK
10
-1.2218503937007874
20
2.8669291338582679
40
0.0068897637795276
0
CIRCLE
8
BLACK
10
-1.3218503937007873
20
2.7669291338582678
40
0.0068897637795276
0
CIRCLE
8
BLACK
10
-1.2218503937007874
20
2.7669291338582678
40
0.0068897637795276
0
CIRCLE
8
BLACK
10
-1.3218503937007873
20
2.6669291338582677
40
0.0068897637795276
0
CIRCLE
8
BLACK
10
-1.2218503937007874
20
2.6669291338582677
40
0.0068897637795276
0
CIRCLE
8
BLACK
10
-1.3218503937007873
20
2.5669291338582676
40
0.0068897637795276
0
CIRCLE
8
BLACK
10
-1.2218503937007874
20
2.5669291338582676
40
0.0068897637795276
0
CIRCLE
8
BLACK
10
-0.2013453543307087
20
3.8425196850393699
40
0.0068897637795276
0
CIRCLE
8
BLACK
10
-0.1013453543307087
20
3.8425196850393699
40
0.0068897637795276
0
CIRCLE
8
BLACK
10
-0.2013453543307087
20
3.5433070866141732
40
0.0068897637795276
0
CIRCLE
8
BLACK
10
-0.1013453543307087
20
3.5433070866141732
40
0.0068897637795276
0
CIRCLE
8
BLACK
10
0.7125984251968503
20
1.7637795275590551
40
0.0068897637795276
0
CIRCLE
8
BLACK
10
0.7125984251968503
20
1.8637796062992125
40
0.0068897637795276
0
CIRCLE
8
BLACK
10
0.84251968503937
20
1.7637795275590551
40
0.0068897637795276
0
CIRCLE
8
BLACK
10
0.84251968503937
20
1.8637795275590552
40
0.0068897637795276
0
CIRCLE
8
BLACK
10
0.84251968503937
20
1.9637794881889763
40
0.0068897637795276
0
CIRCLE
8
BLACK
10
-1.6112204724409449
20
0.5039370078740157
40
0.0068897637795276
0
CIRCLE
8
BLACK
10
1.6348425196850394
20
3.4704724409448819
40
0.0068897637795276
0
CIRCLE
8
BLACK
10
1.6348425196850394
20
0.7106299212598425
40
0.0068897637795276
0
CIRCLE
8
BLACK
10
-0.4808729133858268
20
3.9433070866141731
40
0.0068897637795276
0
CIRCLE
8
BLACK
10
-0.3808729133858267
20
3.9433070866141731
40
0.0068897637795276
0
CIRCLE
8
BLACK
10
-0.4808729133858268
20
3.843307086614173
40
0.0068897637795276
0
CIRCLE
8
BLACK
10
-0.3808729133858267
20
3.843307086614173
40
0.0068897637795276
0
CIRCLE
8
BLACK
10
-0.4808729133858268
20
3.7433070866141733
40
0.0068897637795276
0
CIRCLE
8
BLACK
10
-0.3808729133858267
20
3.7433070866141733
40
0.0068897637795276
0
CIRCLE
8
BLACK
10
-0.4808729133858268
20
3.6433070866141732
40
0.0068897637795276
0
CIRCLE
8
BLACK
10
-0.3808729133858267
20
3.6433070866141732
40
0.0068897637795276
0
CIRCLE
8
BLACK
10
-0.4808729133858268
20
3.5433070866141732
40
0.0068897637795276
0
CIRCLE
8
BLACK
10
-0.3808729133858267
20
3.5433070866141732
40
0.0068897637795276
0
CIRCLE
8
BLACK
10
0.937007874015748
20
4.6023622047244093
40
0.0068897637795276
0
CIRCLE
8
BLACK
10
0.937007874015748
20
4.5023622047244096
40
0.0068897637795276
0
CIRCLE
8
BLACK
10
0.8370078740157481
20
4.6023622047244093
40
0.0068897637795276
0
CIRCLE
8
BLACK
10
0.8370078740157481
20
4.5023622047244096
40
0.0068897637795276
0
CIRCLE
8
BLACK
10
0.7370079133858267
20
4.6023622047244093
40
0.0068897637795276
0
CIRCLE
8
BLACK
10
0.737007874015748
20
4.5023622047244096
40
0.0068897637795276
0
CIRCLE
8
BLACK
10
0.637007874015748
20
4.6023622047244093
40
0.0068897637795276
0
CIRCLE
8
BLACK
10
0.637007874015748
20
4.5023622047244096
40
0.0068897637795276
0
CIRCLE
8
BLACK
10
0.537007874015748
20
4.6023622047244093
40
0.0068897637795276
0
CIRCLE
8
BLACK
10
0.537007874015748
20
4.5023622047244096
40
0.0068897637795276
0
CIRCLE
8
BLACK
10
-1.1299212598425197
20
0.9409448818897638
40
0.0068897637795276
0
CIRCLE
8
BLACK
10
-0.7172244094488189
20
0.5354330708661417
40
0.0068897637795276
0
CIRCLE
8
BLACK
10
-0.7172244094488189
20
0.735433031496063
40
0.0068897637795276
0
CIRCLE
8
BLACK
10
0.0827755905511811
20
0.2354330708661417
40
0.0068897637795276
0
CIRCLE
8
BLACK
10
0.0827755905511811
20
0.6354330708661418
40
0.0068897637795276
0
CIRCLE
8
BLACK
10
0.0827755905511811
20
1.0354330708661417
40
0.0068897637795276
0
CIRCLE
8
BLACK
10
-0.7172244094488189
20
1.0354330708661417
40
0.0068897637795276
0
CIRCLE
8
BLACK
10
-0.7125984251968503
20
4.5078740157480315
40
0.0068897637795276
0
ARC
8
BLACK
10
-1.1085629921259843
20
0.5433070866141733
40
0.0688976377952756
50
-90.00000000
51
90.00000000
0
ARC
8
BLACK
10
-1.1085629921259843
20
0.5433070866141733
40
0.0688976377952756
50
90.00000000
51
270.00000000
0
LINE
8
BLACK
6
CONTINUOUS
10
-1.1184055118110237
20
0.2480314960629921
11
-1.098720472440945
21
0.2480314960629921
0
ARC
8
BLACK
10
-1.098720472440945
20
0.3070866141732284
40
0.0590551181102362
50
-90.00000000
51
90.00000000
0
LINE
8
BLACK
6
CONTINUOUS
10
-1.098720472440945
20
0.3661417322834646
11
-1.1184055118110237
21
0.3661417322834646
0
ARC
8
BLACK
10
-1.1184055118110237
20
0.3070866141732284
40
0.0590551181102362
50
90.00000000
51
270.00000000
0
ARC
8
BLACK
10
-1.2936023622047244
20
0.4251968503937008
40
0.0688976377952756
50
-90.00000000
51
90.00000000
0
ARC
8
BLACK
10
-1.2936023622047244
20
0.4251968503937008
40
0.0688976377952756
50
90.00000000
51
270.00000000
0
CIRCLE
8
BLACK
10
-0.2013453543307087
20
3.6417322834645667
40
0.0068897637795276
0
CIRCLE
8
BLACK
10
-0.1013453543307087
20
3.6417322834645667
40
0.0068897637795276
0
CIRCLE
8
BLACK
10
-1.1299212598425197
20
0.7874015748031495
40
0.0068897637795276
0
CIRCLE
8
BLACK
10
0.5364499212598425
20
3.2165354330708662
40
0.0068897637795276
0
CIRCLE
8
BLACK
10
0.3986546456692913
20
3.2165354330708662
40
0.0068897637795276
0
CIRCLE
8
BLACK
10
1.0055118110236221
20
0.2188976377952756
40
0.0068897637795276
0
CIRCLE
8
BLACK
10
0.5055118110236221
20
0.2188976377952756
40
0.0068897637795276
0
CIRCLE
8
BLACK
10
0.8956692913385826
20
0.3188976377952756
40
0.0068897637795276
0
CIRCLE
8
BLACK
10
0.8556692913385826
20
0.3889764173228346
40
0.0068897637795276
0
CIRCLE
8
BLACK
10
0.8156692913385827
20
0.3188976377952756
40
0.0068897637795276
0
CIRCLE
8
BLACK
10
0.7756692913385826
20
0.3889764173228346
40
0.0068897637795276
0
CIRCLE
8
BLACK
10
0.7356692913385826
20
0.3188976377952756
40
0.0068897637795276
0
CIRCLE
8
BLACK
10
0.6956692913385827
20
0.3889764173228346
40
0.0068897637795276
0
CIRCLE
8
BLACK
10
0.6556692913385826
20
0.3188976377952756
40
0.0068897637795276
0
CIRCLE
8
BLACK
10
0.6156693307086614
20
0.3889763779527559
40
0.0068897637795276
0
CIRCLE
8
BLACK
10
1.0255905511811023
20
0.5787401574803149
40
0.0068897637795276
0
CIRCLE
8
BLACK
10
0.9354330708661417
20
0.5787401574803149
40
0.0068897637795276
0
CIRCLE
8
BLACK
10
0.5755905511811024
20
0.5787401574803149
40
0.0068897637795276
0
CIRCLE
8
BLACK
10
0.4854330708661417
20
0.5787401574803149
40
0.0068897637795276
0
CIRCLE
8
BLACK
10
1.0755905511811024
20
0.3539370078740157
40
0.0068897637795276
0
CIRCLE
8
BLACK
10
0.4354330708661417
20
0.3539370078740157
40
0.0068897637795276
0
CIRCLE
8
BLACK
10
-0.2013453543307087
20
3.9448818897637796
40
0.0068897637795276
0
CIRCLE
8
BLACK
10
-0.1013453543307087
20
3.9448818897637796
40
0.0068897637795276
0
CIRCLE
8
BLACK
10
-1.3218503937007873
20
4.466929133858268
40
0.0068897637795276
0
CIRCLE
8
BLACK
10
-1.2218503937007874
20
4.466929133858268
40
0.0068897637795276
0
CIRCLE
8
BLACK
10
-1.3218503937007873
20
4.3669291338582674
40
0.0068897637795276
0
CIRCLE
8
BLACK
10
-1.2218503937007874
20
4.3669291338582674
40
0.0068897637795276
0
CIRCLE
8
BLACK
10
-1.3218503937007873
20
4.2669291338582678
40
0.0068897637795276
0
CIRCLE
8
BLACK
10
-1.2218503937007874
20
4.2669291338582678
40
0.0068897637795276
0
CIRCLE
8
BLACK
10
-1.3218503937007873
20
4.1669291338582672
40
0.0068897637795276
0
CIRCLE
8
BLACK
10
-1.2218503937007874
20
4.1669291338582672
40
0.0068897637795276
0
CIRCLE
8
BLACK
10
-1.3218503937007873
20
4.0669291338582676
40
0.0068897637795276
0
CIRCLE
8
BLACK
10
-1.2218503937007874
20
4.0669291338582676
40
0.0068897637795276
0
CIRCLE
8
BLACK
10
-1.3218503937007873
20
3.9669291338582675
40
0.0068897637795276
0
CIRCLE
8
BLACK
10
-1.2218503937007874
20
3.9669291338582675
40
0.0068897637795276
0
CIRCLE
8
BLACK
10
-1.3218503937007873
20
3.8669291338582674
40
0.0068897637795276
0
CIRCLE
8
BLACK
10
-1.2218503937007874
20
3.8669291338582674
40
0.0068897637795276
0
CIRCLE
8
BLACK
10
-1.3218503937007873
20
3.7669291338582678
40
0.0068897637795276
0
CIRCLE
8
BLACK
10
-1.2218503937007874
20
3.7669291338582678
40
0.0068897637795276
0
CIRCLE
8
BLACK
10
-1.3218503937007873
20
3.6669291338582677
40
0.0068897637795276
0
CIRCLE
8
BLACK
10
-1.2218503937007874
20
3.6669291338582677
40
0.0068897637795276
0
CIRCLE
8
BLACK
10
-1.3218503937007873
20
3.5669291338582676
40
0.0068897637795276
0
CIRCLE
8
BLACK
10
-1.2218503937007874
20
3.5669291338582676
40
0.0068897637795276
0
CIRCLE
8
BLACK
10
-1.3218503937007873
20
3.4669291338582675
40
0.0068897637795276
0
CIRCLE
8
BLACK
10
-1.2218503937007874
20
3.4669291338582675
40
0.0068897637795276
0
CIRCLE
8
BLACK
10
-1.3218503937007873
20
3.3669291338582674
40
0.0068897637795276
0
CIRCLE
8
BLACK
10
-1.2218503937007874
20
3.3669291338582674
40
0.0068897637795276
0
CIRCLE
8
BLACK
10
-1.3218503937007873
20
3.2669291338582678
40
0.0068897637795276
0
CIRCLE
8
BLACK
10
-1.2218503937007874
20
3.2669291338582678
40
0.0068897637795276
0
CIRCLE
8
BLACK
10
-1.3218503937007873
20
3.1669291338582677
40
0.0068897637795276
0
CIRCLE
8
BLACK
10
-1.2218503937007874
20
3.1669291338582677
40
0.0068897637795276
0
CIRCLE
8
BLACK
10
-1.3218503937007873
20
3.0669291338582676
40
0.0068897637795276
0
CIRCLE
8
BLACK
10
-1.2218503937007874
20
3.0669291338582676
40
0.0068897637795276
0
CIRCLE
8
BLACK
10
-1.3218503937007873
20
2.9669291338582675
40
0.0068897637795276
0
CIRCLE
8
BLACK
10
-1.2218503937007874
20
2.9669291338582675
40
0.0068897637795276
0
CIRCLE
8
BLACK
10
-1.3218503937007873
20
2.8669291338582679
40
0.0068897637795276
0
CIRCLE
8
BLACK
10
-1.2218503937007874
20
2.8669291338582679
40
0.0068897637795276
0
CIRCLE
8
BLACK
10
-1.3218503937007873
20
2.7669291338582678
40
0.0068897637795276
0
CIRCLE
8
BLACK
10
-1.2218503937007874
20
2.7669291338582678
40
0.0068897637795276
0
CIRCLE
8
BLACK
10
-1.3218503937007873
20
2.6669291338582677
40
0.0068897637795276
0
CIRCLE
8
BLACK
10
-1.2218503937007874
20
2.6669291338582677
40
0.0068897637795276
0
CIRCLE
8
BLACK
10
-1.3218503937007873
20
2.5669291338582676
40
0.0068897637795276
0
CIRCLE
8
BLACK
10
-1.2218503937007874
20
2.5669291338582676
40
0.0068897637795276
0
CIRCLE
8
BLACK
10
-0.2013453543307087
20
3.8425196850393699
40
0.0068897637795276
0
CIRCLE
8
BLACK
10
-0.1013453543307087
20
3.8425196850393699
40
0.0068897637795276
0
CIRCLE
8
BLACK
10
-0.2013453543307087
20
3.5433070866141732
40
0.0068897637795276
0
CIRCLE
8
BLACK
10
-0.1013453543307087
20
3.5433070866141732
40
0.0068897637795276
0
CIRCLE
8
BLACK
10
0.7125984251968503
20
1.7637795275590551
40
0.0068897637795276
0
CIRCLE
8
BLACK
10
0.7125984251968503
20
1.8637796062992125
40
0.0068897637795276
0
CIRCLE
8
BLACK
10
0.84251968503937
20
1.7637795275590551
40
0.0068897637795276
0
CIRCLE
8
BLACK
10
0.84251968503937
20
1.8637795275590552
40
0.0068897637795276
0
CIRCLE
8
BLACK
10
0.84251968503937
20
1.9637794881889763
40
0.0068897637795276
0
CIRCLE
8
BLACK
10
-1.6112204724409449
20
0.5039370078740157
40
0.0068897637795276
0
CIRCLE
8
BLACK
10
1.6348425196850394
20
3.4704724409448819
40
0.0068897637795276
0
CIRCLE
8
BLACK
10
1.6348425196850394
20
0.7106299212598425
40
0.0068897637795276
0
CIRCLE
8
BLACK
10
-0.4808729133858268
20
3.9433070866141731
40
0.0068897637795276
0
CIRCLE
8
BLACK
10
-0.3808729133858267
20
3.9433070866141731
40
0.0068897637795276
0
CIRCLE
8
BLACK
10
-0.4808729133858268
20
3.843307086614173
40
0.0068897637795276
0
CIRCLE
8
BLACK
10
-0.3808729133858267
20
3.843307086614173
40
0.0068897637795276
0
CIRCLE
8
BLACK
10
-0.4808729133858268
20
3.7433070866141733
40
0.0068897637795276
0
CIRCLE
8
BLACK
10
-0.3808729133858267
20
3.7433070866141733
40
0.0068897637795276
0
CIRCLE
8
BLACK
10
-0.4808729133858268
20
3.6433070866141732
40
0.0068897637795276
0
CIRCLE
8
BLACK
10
-0.3808729133858267
20
3.6433070866141732
40
0.0068897637795276
0
CIRCLE
8
BLACK
10
-0.4808729133858268
20
3.5433070866141732
40
0.0068897637795276
0
CIRCLE
8
BLACK
10
-0.3808729133858267
20
3.5433070866141732
40
0.0068897637795276
0
CIRCLE
8
BLACK
10
0.937007874015748
20
4.6023622047244093
40
0.0068897637795276
0
CIRCLE
8
BLACK
10
0.937007874015748
20
4.5023622047244096
40
0.0068897637795276
0
CIRCLE
8
BLACK
10
0.8370078740157481
20
4.6023622047244093
40
0.0068897637795276
0
CIRCLE
8
BLACK
10
0.8370078740157481
20
4.5023622047244096
40
0.0068897637795276
0
CIRCLE
8
BLACK
10
0.7370079133858267
20
4.6023622047244093
40
0.0068897637795276
0
CIRCLE
8
BLACK
10
0.737007874015748
20
4.5023622047244096
40
0.0068897637795276
0
CIRCLE
8
BLACK
10
0.637007874015748
20
4.6023622047244093
40
0.0068897637795276
0
CIRCLE
8
BLACK
10
0.637007874015748
20
4.5023622047244096
40
0.0068897637795276
0
CIRCLE
8
BLACK
10
0.537007874015748
20
4.6023622047244093
40
0.0068897637795276
0
CIRCLE
8
BLACK
10
0.537007874015748
20
4.5023622047244096
40
0.0068897637795276
0
CIRCLE
8
BLACK
10
-1.1299212598425197
20
0.9409448818897638
40
0.0068897637795276
0
CIRCLE
8
BLACK
10
-0.7172244094488189
20
0.5354330708661417
40
0.0068897637795276
0
CIRCLE
8
BLACK
10
-0.7172244094488189
20
0.735433031496063
40
0.0068897637795276
0
CIRCLE
8
BLACK
10
0.0827755905511811
20
0.2354330708661417
40
0.0068897637795276
0
CIRCLE
8
BLACK
10
0.0827755905511811
20
0.6354330708661418
40
0.0068897637795276
0
CIRCLE
8
BLACK
10
0.0827755905511811
20
1.0354330708661417
40
0.0068897637795276
0
CIRCLE
8
BLACK
10
-0.7172244094488189
20
1.0354330708661417
40
0.0068897637795276
0
CIRCLE
8
BLACK
10
-0.7125984251968503
20
4.5078740157480315
40
0.0068897637795276
0
LINE
8
BLACK
6
CONTINUOUS
10
-1.1479330708661417
20
0.5236220472440944
11
-1.0691929133858267
21
0.5236220472440944
0
ARC
8
BLACK
10
-1.0691929133858267
20
0.5433070866141733
40
0.0196850393700787
50
-90.00000000
51
90.00000000
0
LINE
8
BLACK
6
CONTINUOUS
10
-1.0691929133858267
20
0.562992125984252
11
-1.1479330708661417
21
0.562992125984252
0
ARC
8
BLACK
10
-1.1479330708661417
20
0.5433070866141733
40
0.0196850393700787
50
90.00000000
51
270.00000000
0
LINE
8
BLACK
6
CONTINUOUS
10
-1.1479330708661417
20
0.2874015748031496
11
-1.0691929133858267
21
0.2874015748031496
0
ARC
8
BLACK
10
-1.0691929133858267
20
0.3070866141732284
40
0.0196850393700787
50
-90.00000000
51
90.00000000
0
LINE
8
BLACK
6
CONTINUOUS
10
-1.0691929133858267
20
0.3267716535433071
11
-1.1479330708661417
21
0.3267716535433071
0
ARC
8
BLACK
10
-1.1479330708661417
20
0.3070866141732284
40
0.0196850393700787
50
90.00000000
51
270.00000000
0
LINE
8
BLACK
6
CONTINUOUS
10
-1.2739173228346456
20
0.3858267716535433
11
-1.2739173228346456
21
0.4645669291338583
0
ARC
8
BLACK
10
-1.2936023622047244
20
0.4645669291338583
40
0.0196850393700787
50
0.00000000
51
180.00000000
0
LINE
8
BLACK
6
CONTINUOUS
10
-1.3132874015748031
20
0.4645669291338583
11
-1.3132874015748031
21
0.3858267716535433
0
ARC
8
BLACK
10
-1.2936023622047244
20
0.3858267716535433
40
0.0196850393700787
50
180.00000000
51
360.00000000
  0
ENDSEC
  0
EOF
