  0
SECTION
  2
HEADER
  9
$ANGBASE
  50
0.0
  9
$ANGDIR
  70
1
  9
$MEASUREMENT
  70
0
  9
$INSUNITS
  70
1
  0
ENDSEC
  0
SECTION
  2
TABLES
  0
TABLE
  2
LTYPE
  70
4
  0
LTYPE
  5
40F
  2
CONTINUOUS
  70
0
  3
Solid line
  72
65
  73
0
  40
0.0
  0
LTYPE
  5
410
  2
DASHDOT
 70
0
  3
Dash Dot ____ _ ____ _
 72
65
 73
4
 40
2.0
 49
1.25
 49
-0.25
 49
0.25
 49
-0.25
  0
LTYPE
  5
411
  2
DASHED
 70
0
  3
Dashed __ __ __ __ __
 72
65
 73
2
 40
0.75
 49
0.5
 49
-0.25
  0
LTYPE
  5
43B
  2
DOTTED
 70
0
  3
Dotted .  .  .  .
 72
65
 73
2
 40
0.2
 49
0.0
 49
-0.2
  0
ENDTAB
  0
TABLE
  2
STYLE
  70
4
  0
STYLE
  2
KICAD
  70
0
  40
0
  41
1
  42
1
  50
0
  71
0
  3
isocp.shx
  0
STYLE
  2
KICADB
  70
0
  40
0
  41
1
  42
1
  50
0
  71
0
  3
isocp.shx
  0
STYLE
  2
KICADI
  70
0
  40
0
  41
1
  42
1
  50
15
  71
0
  3
isocp.shx
  0
STYLE
  2
KICADBI
  70
0
  40
0
  41
1
  42
1
  50
15
  71
0
  3
isocp.shx
  0
ENDTAB
  0
TABLE
  2
LAYER
  70
1
  0
LAYER
  2
BLACK
  70
0
  62
250
  6
CONTINUOUS
  0
ENDTAB
  0
ENDSEC
  0
SECTION
  2
ENTITIES
0
CIRCLE
8
BLACK
10
3.7868436220472441
20
-2.6377952755905509
40
0.0068897637795276
0
CIRCLE
8
BLACK
10
3.8868436220472442
20
-2.6377952755905509
40
0.0068897637795276
0
CIRCLE
8
BLACK
10
2.8582677165354329
20
-5.4921259842519685
40
0.0068897637795276
0
CIRCLE
8
BLACK
10
4.5246388976377956
20
-3.0629921259842519
40
0.0068897637795276
0
CIRCLE
8
BLACK
10
4.3868436220472438
20
-3.0629921259842519
40
0.0068897637795276
0
CIRCLE
8
BLACK
10
5.0232283464566931
20
-6.0606299212598422
40
0.0068897637795276
0
CIRCLE
8
BLACK
10
4.5232283464566931
20
-6.0606299212598422
40
0.0068897637795276
0
CIRCLE
8
BLACK
10
4.9133858267716537
20
-5.9606299212598426
40
0.0068897637795276
0
CIRCLE
8
BLACK
10
4.8733858267716537
20
-5.8905511417322831
40
0.0068897637795276
0
CIRCLE
8
BLACK
10
4.8333858267716536
20
-5.9606299212598426
40
0.0068897637795276
0
CIRCLE
8
BLACK
10
4.7933858267716536
20
-5.8905511417322831
40
0.0068897637795276
0
CIRCLE
8
BLACK
10
4.7533858267716536
20
-5.9606299212598426
40
0.0068897637795276
0
CIRCLE
8
BLACK
10
4.7133858267716535
20
-5.8905511417322831
40
0.0068897637795276
0
CIRCLE
8
BLACK
10
4.6733858267716535
20
-5.9606299212598426
40
0.0068897637795276
0
CIRCLE
8
BLACK
10
4.6333858661417322
20
-5.8905511811023619
40
0.0068897637795276
0
CIRCLE
8
BLACK
10
5.0433070866141732
20
-5.7007874015748028
40
0.0068897637795276
0
CIRCLE
8
BLACK
10
4.9531496062992124
20
-5.7007874015748028
40
0.0068897637795276
0
CIRCLE
8
BLACK
10
4.593307086614173
20
-5.7007874015748028
40
0.0068897637795276
0
CIRCLE
8
BLACK
10
4.5031496062992122
20
-5.7007874015748028
40
0.0068897637795276
0
CIRCLE
8
BLACK
10
5.093307086614173
20
-5.9255905511811022
40
0.0068897637795276
0
CIRCLE
8
BLACK
10
4.4531496062992124
20
-5.9255905511811022
40
0.0068897637795276
0
CIRCLE
8
BLACK
10
3.7868436220472441
20
-2.3346456692913384
40
0.0068897637795276
0
CIRCLE
8
BLACK
10
3.8868436220472442
20
-2.3346456692913384
40
0.0068897637795276
0
CIRCLE
8
BLACK
10
2.6677165354330707
20
-2.3937007874015745
40
0.0068897637795276
0
CIRCLE
8
BLACK
10
2.7677165354330708
20
-2.3937007874015745
40
0.0068897637795276
0
CIRCLE
8
BLACK
10
2.6677165354330707
20
-2.4937007874015746
40
0.0068897637795276
0
CIRCLE
8
BLACK
10
2.7677165354330708
20
-2.4937007874015746
40
0.0068897637795276
0
CIRCLE
8
BLACK
10
2.6677165354330707
20
-2.5937007874015747
40
0.0068897637795276
0
CIRCLE
8
BLACK
10
2.7677165354330708
20
-2.5937007874015747
40
0.0068897637795276
0
CIRCLE
8
BLACK
10
2.6677165354330707
20
-2.6937007874015748
40
0.0068897637795276
0
CIRCLE
8
BLACK
10
2.7677165354330708
20
-2.6937007874015748
40
0.0068897637795276
0
CIRCLE
8
BLACK
10
2.6677165354330707
20
-2.7937007874015749
40
0.0068897637795276
0
CIRCLE
8
BLACK
10
2.7677165354330708
20
-2.7937007874015749
40
0.0068897637795276
0
CIRCLE
8
BLACK
10
2.6677165354330707
20
-2.8937007874015745
40
0.0068897637795276
0
CIRCLE
8
BLACK
10
2.7677165354330708
20
-2.8937007874015745
40
0.0068897637795276
0
CIRCLE
8
BLACK
10
2.6677165354330707
20
-2.9937007874015746
40
0.0068897637795276
0
CIRCLE
8
BLACK
10
2.7677165354330708
20
-2.9937007874015746
40
0.0068897637795276
0
CIRCLE
8
BLACK
10
2.6677165354330707
20
-3.0937007874015747
40
0.0068897637795276
0
CIRCLE
8
BLACK
10
2.7677165354330708
20
-3.0937007874015747
40
0.0068897637795276
0
CIRCLE
8
BLACK
10
2.6677165354330707
20
-3.1937007874015748
40
0.0068897637795276
0
CIRCLE
8
BLACK
10
2.7677165354330708
20
-3.1937007874015748
40
0.0068897637795276
0
CIRCLE
8
BLACK
10
2.6677165354330707
20
-3.2937007874015749
40
0.0068897637795276
0
CIRCLE
8
BLACK
10
2.7677165354330708
20
-3.2937007874015749
40
0.0068897637795276
0
CIRCLE
8
BLACK
10
2.6677165354330707
20
-3.3937007874015745
40
0.0068897637795276
0
CIRCLE
8
BLACK
10
2.7677165354330708
20
-3.3937007874015745
40
0.0068897637795276
0
CIRCLE
8
BLACK
10
2.6677165354330707
20
-3.4937007874015746
40
0.0068897637795276
0
CIRCLE
8
BLACK
10
2.7677165354330708
20
-3.4937007874015746
40
0.0068897637795276
0
CIRCLE
8
BLACK
10
2.6677165354330707
20
-3.5937007874015747
40
0.0068897637795276
0
CIRCLE
8
BLACK
10
2.7677165354330708
20
-3.5937007874015747
40
0.0068897637795276
0
CIRCLE
8
BLACK
10
2.6677165354330707
20
-3.6937007874015748
40
0.0068897637795276
0
CIRCLE
8
BLACK
10
2.7677165354330708
20
-3.6937007874015748
40
0.0068897637795276
0
CIRCLE
8
BLACK
10
2.6677165354330707
20
-3.7937007874015749
40
0.0068897637795276
0
CIRCLE
8
BLACK
10
2.7677165354330708
20
-3.7937007874015749
40
0.0068897637795276
0
CIRCLE
8
BLACK
10
2.6677165354330707
20
-3.8937007874015745
40
0.0068897637795276
0
CIRCLE
8
BLACK
10
2.7677165354330708
20
-3.8937007874015745
40
0.0068897637795276
0
CIRCLE
8
BLACK
10
2.6677165354330707
20
-3.9937007874015746
40
0.0068897637795276
0
CIRCLE
8
BLACK
10
2.7677165354330708
20
-3.9937007874015746
40
0.0068897637795276
0
CIRCLE
8
BLACK
10
2.6677165354330707
20
-4.0937007874015743
40
0.0068897637795276
0
CIRCLE
8
BLACK
10
2.7677165354330708
20
-4.0937007874015743
40
0.0068897637795276
0
CIRCLE
8
BLACK
10
2.6677165354330707
20
-4.1937007874015748
40
0.0068897637795276
0
CIRCLE
8
BLACK
10
2.7677165354330708
20
-4.1937007874015748
40
0.0068897637795276
0
CIRCLE
8
BLACK
10
2.6677165354330707
20
-4.2937007874015745
40
0.0068897637795276
0
CIRCLE
8
BLACK
10
2.7677165354330708
20
-4.2937007874015745
40
0.0068897637795276
0
CIRCLE
8
BLACK
10
3.7868436220472441
20
-2.4370078740157481
40
0.0068897637795276
0
CIRCLE
8
BLACK
10
3.8868436220472442
20
-2.4370078740157481
40
0.0068897637795276
0
CIRCLE
8
BLACK
10
2.7716535433070866
20
-1.7637795275590551
40
0.0068897637795276
0
CIRCLE
8
BLACK
10
3.7868436220472441
20
-2.7362204724409449
40
0.0068897637795276
0
CIRCLE
8
BLACK
10
3.8868436220472442
20
-2.7362204724409449
40
0.0068897637795276
0
CIRCLE
8
BLACK
10
4.7007874015748028
20
-4.515748031496063
40
0.0068897637795276
0
CIRCLE
8
BLACK
10
4.7007874015748028
20
-4.4157479527559058
40
0.0068897637795276
0
CIRCLE
8
BLACK
10
4.8307086614173231
20
-4.515748031496063
40
0.0068897637795276
0
CIRCLE
8
BLACK
10
4.8307086614173231
20
-4.4157480314960633
40
0.0068897637795276
0
CIRCLE
8
BLACK
10
4.8307086614173231
20
-4.3157480708661415
40
0.0068897637795276
0
CIRCLE
8
BLACK
10
2.2480314960629921
20
-5.4015748031496065
40
0.0068897637795276
0
CIRCLE
8
BLACK
10
5.6377952755905509
20
-2.2283464566929134
40
0.0068897637795276
0
CIRCLE
8
BLACK
10
5.6456692913385824
20
-5.3661417322834648
40
0.0068897637795276
0
CIRCLE
8
BLACK
10
3.5073160629921261
20
-2.336220472440945
40
0.0068897637795276
0
CIRCLE
8
BLACK
10
3.6073160629921257
20
-2.336220472440945
40
0.0068897637795276
0
CIRCLE
8
BLACK
10
3.5073160629921261
20
-2.4362204724409446
40
0.0068897637795276
0
CIRCLE
8
BLACK
10
3.6073160629921257
20
-2.4362204724409446
40
0.0068897637795276
0
CIRCLE
8
BLACK
10
3.5073160629921261
20
-2.5362204724409447
40
0.0068897637795276
0
CIRCLE
8
BLACK
10
3.6073160629921257
20
-2.5362204724409447
40
0.0068897637795276
0
CIRCLE
8
BLACK
10
3.5073160629921261
20
-2.6362204724409448
40
0.0068897637795276
0
CIRCLE
8
BLACK
10
3.6073160629921257
20
-2.6362204724409448
40
0.0068897637795276
0
CIRCLE
8
BLACK
10
3.5073160629921261
20
-2.7362204724409449
40
0.0068897637795276
0
CIRCLE
8
BLACK
10
3.6073160629921257
20
-2.7362204724409449
40
0.0068897637795276
0
CIRCLE
8
BLACK
10
5.1584971653543308
20
-2.1985236220472442
40
0.0068897637795276
0
CIRCLE
8
BLACK
10
5.0584971653543302
20
-2.1985236220472442
40
0.0068897637795276
0
CIRCLE
8
BLACK
10
5.1584971653543308
20
-2.0985236220472441
40
0.0068897637795276
0
CIRCLE
8
BLACK
10
5.0584971653543302
20
-2.0985236220472441
40
0.0068897637795276
0
CIRCLE
8
BLACK
10
5.1584971653543308
20
-1.9985236614173227
40
0.0068897637795276
0
CIRCLE
8
BLACK
10
5.0584971653543302
20
-1.998523622047244
40
0.0068897637795276
0
CIRCLE
8
BLACK
10
5.1584971653543308
20
-1.8985236220472441
40
0.0068897637795276
0
CIRCLE
8
BLACK
10
5.0584971653543302
20
-1.8985236220472441
40
0.0068897637795276
0
CIRCLE
8
BLACK
10
5.1584971653543308
20
-1.798523622047244
40
0.0068897637795276
0
CIRCLE
8
BLACK
10
5.0584971653543302
20
-1.798523622047244
40
0.0068897637795276
0
CIRCLE
8
BLACK
10
2.8582677165354329
20
-5.3385826771653546
40
0.0068897637795276
0
CIRCLE
8
BLACK
10
3.2709645669291336
20
-5.7440944881889759
40
0.0068897637795276
0
CIRCLE
8
BLACK
10
3.2709645669291336
20
-5.5440945275590554
40
0.0068897637795276
0
CIRCLE
8
BLACK
10
4.0709645669291339
20
-6.0440944881889767
40
0.0068897637795276
0
CIRCLE
8
BLACK
10
4.0709645669291339
20
-5.6440944881889763
40
0.0068897637795276
0
CIRCLE
8
BLACK
10
4.0709645669291339
20
-5.2440944881889759
40
0.0068897637795276
0
CIRCLE
8
BLACK
10
3.2709645669291336
20
-5.2440944881889759
40
0.0068897637795276
0
LINE
8
BLACK
6
CONTINUOUS
10
2.8402559055118108
20
-5.7559055118110232
11
2.9189960629921261
21
-5.7559055118110232
0
ARC
8
BLACK
10
2.9189960629921261
20
-5.7362204724409445
40
0.0196850393700787
50
-90.00000000
51
90.00000000
0
LINE
8
BLACK
6
CONTINUOUS
10
2.9189960629921261
20
-5.7165354330708658
11
2.8402559055118108
21
-5.7165354330708658
0
ARC
8
BLACK
10
2.8402559055118108
20
-5.7362204724409445
40
0.0196850393700787
50
90.00000000
51
270.00000000
0
LINE
8
BLACK
6
CONTINUOUS
10
2.8402559055118108
20
-5.9921259842519685
11
2.9189960629921261
21
-5.9921259842519685
0
ARC
8
BLACK
10
2.9189960629921261
20
-5.9724409448818898
40
0.0196850393700787
50
-90.00000000
51
90.00000000
0
LINE
8
BLACK
6
CONTINUOUS
10
2.9189960629921261
20
-5.9527559055118111
11
2.8402559055118108
21
-5.9527559055118111
0
ARC
8
BLACK
10
2.8402559055118108
20
-5.9724409448818898
40
0.0196850393700787
50
90.00000000
51
270.00000000
0
LINE
8
BLACK
6
CONTINUOUS
10
2.7142716535433071
20
-5.893700787401575
11
2.7142716535433071
21
-5.8149606299212593
0
ARC
8
BLACK
10
2.6945866141732284
20
-5.8149606299212593
40
0.0196850393700787
50
0.00000000
51
180.00000000
0
LINE
8
BLACK
6
CONTINUOUS
10
2.6749015748031497
20
-5.8149606299212593
11
2.6749015748031497
21
-5.893700787401575
0
ARC
8
BLACK
10
2.6945866141732284
20
-5.893700787401575
40
0.0196850393700787
50
180.00000000
51
360.00000000
  0
ENDSEC
  0
EOF
