M48
; DRILL file {KiCad 9.0.7+1} date 2026-05-18T10:40:01+0000
; FORMAT={3:3/ absolute / metric / suppress leading zeros}
; #@! TF.CreationDate,2026-05-18T10:40:01+00:00
; #@! TF.GenerationSoftware,Kicad,Pcbnew,9.0.7+1
; #@! TF.FileFunction,Plated,1,2,PTH
FMAT,2
METRIC,TZ
; #@! TA.AperFunction,Plated,PTH,ViaDrill
T1C0.300
; #@! TA.AperFunction,Plated,PTH,ComponentDrill
T2C0.800
; #@! TA.AperFunction,Plated,PTH,ComponentDrill
T3C0.889
; #@! TA.AperFunction,Plated,PTH,ComponentDrill
T4C0.890
; #@! TA.AperFunction,Plated,PTH,ComponentDrill
T5C1.000
; #@! TA.AperFunction,Plated,PTH,ComponentDrill
T6C1.240
; #@! TA.AperFunction,Plated,PTH,ComponentDrill
T7C1.400
; #@! TA.AperFunction,Plated,PTH,ComponentDrill
T8C1.570
; #@! TA.AperFunction,Plated,PTH,ComponentDrill
T9C3.000
%
G90
G05
T1
X-32500Y31200
X-32300Y94900
X-30900Y42600
X-28200Y79500
X-24300Y88400
X-22500Y61000
X-21100Y74800
X-19200Y68600
X-18600Y96500
X-17600Y73200
X-17600Y62300
X-17600Y52100
X-17100Y87300
X-16700Y108900
X-16600Y5500
X-16200Y116600
X-15600Y14900
X-15200Y28700
X-14100Y25300
X-13900Y59000
X-13400Y28100
X-13200Y60200
X-12200Y1700
X-12000Y8900
X-11100Y38000
X-11100Y33400
X-9700Y68700
X-9600Y73200
X-9400Y79500
X-9400Y33200
X-8300Y33500
X-8200Y39300
X-7600Y29300
X-7274Y91300
X-7200Y27800
X-7000Y32800
X-6200Y58800
X-4200Y26300
X-4000Y28900
X-3700Y66000
X-2000Y32500
X800Y33100
X1600Y78500
X1626Y87700
X3226Y92100
X3826Y90600
X4700Y74900
X6300Y113600
X6500Y108500
X6500Y106900
X6500Y105100
X6600Y103400
X9200Y12671
X9400Y108900
X9400Y107200
X9500Y113600
X9800Y12671
X10400Y12671
X11300Y38200
X13200Y43500
X13300Y64300
X13400Y38000
X13500Y33100
X13926Y96600
X14226Y102100
X14300Y16400
X15726Y92300
X15800Y24900
X15800Y20400
X16300Y68200
X16606Y95080
X17326Y90900
X17500Y26800
X17800Y19600
X18700Y21000
X19326Y107200
X19600Y20000
X19600Y14700
X19700Y25000
X21588Y107750
X22400Y11900
X22926Y111700
X23326Y92500
X23526Y104200
X24100Y18600
X24500Y33100
X24900Y78300
X25100Y11900
X26000Y81900
X26500Y21100
X26526Y92663
X26605Y95079
X27900Y24800
X29000Y15600
X30100Y19400
X31300Y13900
X31500Y27100
X31600Y73400
X32200Y19400
X32726Y87800
X33450Y14150
X33800Y28600
X34500Y25400
X35200Y26700
X35200Y19400
X35400Y38000
X35400Y33100
T2
X10126Y81700
X13626Y81700
T3
X-12214Y100160
X-12214Y97620
X-12214Y95080
X-12214Y92540
X-12214Y90000
X-9674Y100160
X-9674Y97620
X-9674Y95080
X-9674Y92540
X-9674Y90000
X-5114Y100200
X-5114Y97600
X-5114Y92500
X-5114Y90000
X-2574Y100200
X-2574Y97600
X-2574Y92500
X-2574Y90000
X18100Y47340
X18100Y44800
T4
X13080Y14700
X15370Y14700
X16388Y9880
X17404Y8100
X18420Y9880
X19436Y8100
X20452Y9880
X21468Y8100
X22484Y9880
X23500Y8100
X24510Y14700
X26800Y14700
T5
X-33540Y98700
X-33540Y96160
X-33540Y93620
X-33540Y91080
X-33540Y88540
X-33540Y86000
X-33540Y83460
X-33540Y80920
X-33540Y78380
X-33540Y75840
X-33540Y73300
X-33540Y70760
X-33540Y68220
X-33540Y65680
X-33540Y63140
X-33540Y60600
X-33540Y58060
X-33540Y55520
X-33540Y52980
X-33540Y50440
X-31000Y98700
X-31000Y96160
X-31000Y93620
X-31000Y91080
X-31000Y88540
X-31000Y86000
X-31000Y83460
X-31000Y80920
X-31000Y78380
X-31000Y75840
X-31000Y73300
X-31000Y70760
X-31000Y68220
X-31000Y65680
X-31000Y63140
X-31000Y60600
X-31000Y58060
X-31000Y55520
X-31000Y52980
X-31000Y50440
X21400Y49880
X21400Y47340
X21400Y44800
X27186Y113818
X27186Y111277
X27186Y108738
X27186Y106198
X27186Y103658
X29726Y113818
X29726Y111277
X29726Y108737
X29726Y106198
X29726Y103658
T6
X-18217Y26300
X-18217Y18680
X-18217Y13600
X2103Y26300
X2103Y16140
X2103Y5980
T7
X-28700Y23900
X-28700Y20000
T8
X11810Y8990
X28070Y8990
T9
X-40925Y12800
X-27200Y108300
X41525Y88150
X41525Y18050
T5
G00X-32858Y9800
M15
G01X-32858Y11800
M16
G05
G00X-29158Y13800
M15
G01X-27158Y13800
M16
G05
G00X-29158Y7800
M15
G01X-27158Y7800
M16
G05
M30
