%TF.GenerationSoftware,KiCad,Pcbnew,10.0.1-10.0.1~ubuntu25.10.1*%
%TF.CreationDate,2026-05-16T02:43:42+00:00*%
%TF.ProjectId,RETERMINT01,52455445-524d-4494-9e54-30312e6b6963,rev?*%
%TF.SameCoordinates,Original*%
%TF.FileFunction,Soldermask,Top*%
%TF.FilePolarity,Negative*%
%FSLAX46Y46*%
G04 Gerber Fmt 4.6, Leading zero omitted, Abs format (unit mm)*
G04 Created by KiCad (PCBNEW 10.0.1-10.0.1~ubuntu25.10.1) date 2026-05-16 02:43:42*
%MOMM*%
%LPD*%
G01*
G04 APERTURE LIST*
G04 Aperture macros list*
%AMRoundRect*
0 Rectangle with rounded corners*
0 $1 Rounding radius*
0 $2 $3 $4 $5 $6 $7 $8 $9 X,Y pos of 4 corners*
0 Add a 4 corners polygon primitive as box body*
4,1,4,$2,$3,$4,$5,$6,$7,$8,$9,$2,$3,0*
0 Add four circle primitives for the rounded corners*
1,1,$1+$1,$2,$3*
1,1,$1+$1,$4,$5*
1,1,$1+$1,$6,$7*
1,1,$1+$1,$8,$9*
0 Add four rect primitives between the rounded corners*
20,1,$1+$1,$2,$3,$4,$5,0*
20,1,$1+$1,$4,$5,$6,$7,0*
20,1,$1+$1,$6,$7,$8,$9,0*
20,1,$1+$1,$8,$9,$2,$3,0*%
%AMRotRect*
0 Rectangle, with rotation*
0 The origin of the aperture is its center*
0 $1 length*
0 $2 width*
0 $3 Rotation angle, in degrees counterclockwise*
0 Add horizontal line*
21,1,$1,$2,0,0,$3*%
%AMFreePoly0*
4,1,23,0.550000,-0.750000,0.000000,-0.750000,0.000000,-0.745722,-0.065263,-0.745722,-0.191342,-0.711940,-0.304381,-0.646677,-0.396677,-0.554381,-0.461940,-0.441342,-0.495722,-0.315263,-0.495722,-0.250000,-0.500000,-0.250000,-0.500000,0.250000,-0.495722,0.250000,-0.495722,0.315263,-0.461940,0.441342,-0.396677,0.554381,-0.304381,0.646677,-0.191342,0.711940,-0.065263,0.745722,0.000000,0.745722,
0.000000,0.750000,0.550000,0.750000,0.550000,-0.750000,0.550000,-0.750000,$1*%
%AMFreePoly1*
4,1,23,0.000000,0.745722,0.065263,0.745722,0.191342,0.711940,0.304381,0.646677,0.396677,0.554381,0.461940,0.441342,0.495722,0.315263,0.495722,0.250000,0.500000,0.250000,0.500000,-0.250000,0.495722,-0.250000,0.495722,-0.315263,0.461940,-0.441342,0.396677,-0.554381,0.304381,-0.646677,0.191342,-0.711940,0.065263,-0.745722,0.000000,-0.745722,0.000000,-0.750000,-0.550000,-0.750000,
-0.550000,0.750000,0.000000,0.750000,0.000000,0.745722,0.000000,0.745722,$1*%
%AMFreePoly2*
4,1,25,0.400623,0.750000,0.405000,0.750000,0.405000,0.749313,0.474203,0.738459,0.540801,0.697786,0.586765,0.634723,0.605097,0.558870,0.593005,0.481777,0.559112,0.389328,0.517820,0.196775,0.503933,0.000335,0.517726,-0.196112,0.558927,-0.388685,0.592775,-0.481149,0.604830,-0.558249,0.586462,-0.634093,0.540468,-0.697134,0.473851,-0.737775,0.405000,-0.748540,0.405000,-0.750000,
-0.645000,-0.750000,-0.645000,0.750000,0.394830,0.750000,0.397110,0.750551,0.400623,0.750000,0.400623,0.750000,$1*%
G04 Aperture macros list end*
%ADD10C,0.000000*%
%ADD11RoundRect,0.150000X-0.512500X-0.150000X0.512500X-0.150000X0.512500X0.150000X-0.512500X0.150000X0*%
%ADD12FreePoly0,0.000000*%
%ADD13R,1.000000X1.500000*%
%ADD14FreePoly1,0.000000*%
%ADD15R,1.524000X1.524000*%
%ADD16C,2.700000*%
%ADD17FreePoly2,0.000000*%
%ADD18FreePoly2,180.000000*%
%ADD19RoundRect,0.150000X-0.150000X0.875000X-0.150000X-0.875000X0.150000X-0.875000X0.150000X0.875000X0*%
%ADD20R,0.889000X1.397000*%
%ADD21RoundRect,0.250000X0.550000X0.550000X-0.550000X0.550000X-0.550000X-0.550000X0.550000X-0.550000X0*%
%ADD22C,1.600000*%
%ADD23RoundRect,0.250000X-0.650000X1.000000X-0.650000X-1.000000X0.650000X-1.000000X0.650000X1.000000X0*%
%ADD24C,3.250000*%
%ADD25R,1.500000X1.500000*%
%ADD26C,1.500000*%
%ADD27C,2.300000*%
%ADD28R,0.370000X1.125000*%
%ADD29R,0.250000X1.100000*%
%ADD30R,0.127000X0.127000*%
%ADD31R,0.800000X0.250000*%
%ADD32R,1.520000X0.300000*%
%ADD33R,1.700000X1.700000*%
%ADD34C,1.700000*%
%ADD35R,1.397000X0.889000*%
%ADD36RoundRect,0.150000X-0.150000X0.512500X-0.150000X-0.512500X0.150000X-0.512500X0.150000X0.512500X0*%
%ADD37C,6.000000*%
%ADD38RoundRect,0.150000X0.150000X-0.587500X0.150000X0.587500X-0.150000X0.587500X-0.150000X-0.587500X0*%
%ADD39RotRect,0.889000X1.397000X45.000000*%
%ADD40RoundRect,0.150000X-0.587500X-0.150000X0.587500X-0.150000X0.587500X0.150000X-0.587500X0.150000X0*%
%ADD41RoundRect,0.200000X-0.200000X0.700000X-0.200000X-0.700000X0.200000X-0.700000X0.200000X0.700000X0*%
%ADD42RoundRect,0.100000X0.400000X0.400000X-0.400000X0.400000X-0.400000X-0.400000X0.400000X-0.400000X0*%
%ADD43RoundRect,0.105000X0.420000X0.995000X-0.420000X0.995000X-0.420000X-0.995000X0.420000X-0.995000X0*%
%ADD44RoundRect,0.250000X-1.075000X0.375000X-1.075000X-0.375000X1.075000X-0.375000X1.075000X0.375000X0*%
%ADD45RoundRect,0.147500X0.147500X0.172500X-0.147500X0.172500X-0.147500X-0.172500X0.147500X-0.172500X0*%
%ADD46RoundRect,0.500000X0.500000X-0.500000X0.500000X0.500000X-0.500000X0.500000X-0.500000X-0.500000X0*%
%ADD47C,2.000000*%
G04 APERTURE END LIST*
%TO.C,JP1*%
G36*
X112750000Y-52555000D02*
G01*
X114250000Y-52555000D01*
X114250000Y-54055000D01*
X112750000Y-54055000D01*
X112750000Y-52555000D01*
G37*
D10*
%TO.C,U7*%
G36*
X81075063Y-91225001D02*
G01*
X81325189Y-91225001D01*
X81325189Y-90850001D01*
X81575189Y-90850001D01*
X81575189Y-91225001D01*
X81825315Y-91225001D01*
X81825315Y-90850001D01*
X82075315Y-90850001D01*
X82075315Y-91225001D01*
X82325441Y-91225001D01*
X82325441Y-90850001D01*
X82575441Y-90850001D01*
X82575441Y-91225001D01*
X82675063Y-91225001D01*
X82675063Y-92325001D01*
X80625063Y-92325001D01*
X80625063Y-91225001D01*
X80825063Y-91225001D01*
X80825063Y-90850001D01*
X81075063Y-90850001D01*
X81075063Y-91225001D01*
G37*
G36*
X82675063Y-94375001D02*
G01*
X82575441Y-94375001D01*
X82575441Y-94750001D01*
X82325441Y-94750001D01*
X82325441Y-94375001D01*
X82075315Y-94375001D01*
X82075315Y-94750001D01*
X81825315Y-94750001D01*
X81825315Y-94375001D01*
X81575189Y-94375001D01*
X81575189Y-94750001D01*
X81325189Y-94750001D01*
X81325189Y-94375001D01*
X81075063Y-94375001D01*
X81075063Y-94750001D01*
X80825063Y-94750001D01*
X80825063Y-94375001D01*
X80625063Y-94375001D01*
X80625063Y-93275001D01*
X82675063Y-93275001D01*
X82675063Y-94375001D01*
G37*
%TD*%
D11*
%TO.C,U1*%
X103662500Y-32405002D03*
X103662500Y-33355001D03*
X103662500Y-34305000D03*
X105937500Y-34305000D03*
X105937500Y-33355001D03*
X105937500Y-32405002D03*
%TD*%
D12*
%TO.C,JP1*%
X112200000Y-53305000D03*
D13*
X113500000Y-53305000D03*
D14*
X114800000Y-53305000D03*
%TD*%
D15*
%TO.C,J4*%
X76960000Y-48605000D03*
X79500000Y-48605000D03*
%TD*%
D16*
%TO.C,D3*%
X133995001Y-56405000D03*
D17*
X132090002Y-56405000D03*
D18*
X135900000Y-56405000D03*
%TD*%
D19*
%TO.C,U4*%
X99145000Y-87500000D03*
X97875000Y-87499999D03*
X96605000Y-87500000D03*
X95335000Y-87500000D03*
X94065000Y-87500000D03*
X92795000Y-87500000D03*
X91525000Y-87499999D03*
X90255000Y-87500000D03*
X90255000Y-96800000D03*
X91525000Y-96800001D03*
X92795000Y-96800000D03*
X94065000Y-96800000D03*
X95335000Y-96800000D03*
X96605000Y-96800000D03*
X97875000Y-96800001D03*
X99145000Y-96800000D03*
%TD*%
D20*
%TO.C,R17*%
X60742802Y-100272000D03*
X62647802Y-100272000D03*
%TD*%
%TO.C,R16*%
X113362900Y-73066200D03*
X115267900Y-73066200D03*
%TD*%
D21*
%TO.C,C1*%
X95700000Y-59405000D03*
D22*
X92200000Y-59405000D03*
%TD*%
D23*
%TO.C,D1*%
X100600000Y-57104999D03*
X100600000Y-61105001D03*
%TD*%
D24*
%TO.C,J10*%
X112000000Y-121000000D03*
X99300000Y-121000000D03*
D25*
X109210000Y-118460000D03*
D26*
X108194000Y-116679999D03*
X107178000Y-118460000D03*
X106162000Y-116679999D03*
X105146000Y-118460000D03*
X104130000Y-116679999D03*
X103114000Y-118460000D03*
X102098001Y-116680000D03*
X112510000Y-111860000D03*
X110220000Y-111860000D03*
X101080000Y-111860000D03*
X98790000Y-111860000D03*
D27*
X113780000Y-117570000D03*
X97520000Y-117570000D03*
%TD*%
D20*
%TO.C,R18*%
X60742802Y-102946000D03*
X62647802Y-102946000D03*
%TD*%
D15*
%TO.C,J11*%
X76960000Y-40905000D03*
X79500000Y-40905000D03*
%TD*%
D28*
%TO.C,U7*%
X78690000Y-94187501D03*
D29*
X79499811Y-94200001D03*
X79999938Y-94200001D03*
D30*
X81700189Y-94200001D03*
X81700189Y-91400001D03*
D29*
X79999938Y-91400001D03*
X79499811Y-91400001D03*
D28*
X78690000Y-91412501D03*
D31*
X78600000Y-92300002D03*
D32*
X78960001Y-92800001D03*
D31*
X78600000Y-93300000D03*
%TD*%
D33*
%TO.C,J7*%
X53160000Y-25805000D03*
D34*
X55700000Y-25805000D03*
X53160000Y-28345000D03*
X55700000Y-28345000D03*
X53160000Y-30885000D03*
X55700000Y-30885000D03*
X53160000Y-33425000D03*
X55700000Y-33425000D03*
X53160000Y-35965000D03*
X55700000Y-35965000D03*
X53160000Y-38505000D03*
X55700000Y-38505000D03*
X53160000Y-41045000D03*
X55700000Y-41045000D03*
X53160000Y-43585000D03*
X55700000Y-43585000D03*
X53160000Y-46125000D03*
X55700000Y-46125000D03*
X53160000Y-48665000D03*
X55700000Y-48665000D03*
X53160000Y-51205000D03*
X55700000Y-51205000D03*
X53160000Y-53745000D03*
X55700000Y-53745000D03*
X53160000Y-56285000D03*
X55700000Y-56285000D03*
X53160000Y-58825000D03*
X55700000Y-58825000D03*
X53160000Y-61365000D03*
X55700000Y-61365000D03*
X53160000Y-63905000D03*
X55700000Y-63905000D03*
X53160000Y-66445000D03*
X55700000Y-66445000D03*
X53160000Y-68985000D03*
X55700000Y-68985000D03*
X53160000Y-71525000D03*
X55700000Y-71525000D03*
X53160000Y-74065000D03*
X55700000Y-74065000D03*
%TD*%
D19*
%TO.C,U5*%
X121100000Y-87500000D03*
X119830000Y-87499999D03*
X118560000Y-87500000D03*
X117290000Y-87500000D03*
X116020000Y-87500000D03*
X114750000Y-87500000D03*
X113480000Y-87499999D03*
X112210000Y-87500000D03*
X112210000Y-96800000D03*
X113480000Y-96800001D03*
X114750000Y-96800000D03*
X116020000Y-96800000D03*
X117290000Y-96800000D03*
X118560000Y-96800000D03*
X119830000Y-96800001D03*
X121100000Y-96800000D03*
%TD*%
D20*
%TO.C,R10*%
X130495001Y-56605000D03*
X128590001Y-56605000D03*
%TD*%
D35*
%TO.C,R13*%
X95200000Y-111400000D03*
X95200000Y-109495000D03*
%TD*%
D20*
%TO.C,R8*%
X84600000Y-47105000D03*
X82695000Y-47105000D03*
%TD*%
D15*
%TO.C,J16*%
X76960000Y-43505000D03*
X79500000Y-43505000D03*
%TD*%
D20*
%TO.C,R6*%
X84600000Y-48905000D03*
X82695000Y-48905000D03*
%TD*%
D35*
%TO.C,C4*%
X108600000Y-50347500D03*
X108600000Y-48442500D03*
%TD*%
D19*
%TO.C,U6*%
X110145000Y-87550000D03*
X108875000Y-87549999D03*
X107605000Y-87550000D03*
X106335000Y-87550000D03*
X105065000Y-87550000D03*
X103795000Y-87550000D03*
X102525000Y-87549999D03*
X101255000Y-87550000D03*
X101255000Y-96850000D03*
X102525000Y-96850001D03*
X103795000Y-96850000D03*
X105065000Y-96850000D03*
X106335000Y-96850000D03*
X107605000Y-96850000D03*
X108875000Y-96850001D03*
X110145000Y-96850000D03*
%TD*%
D36*
%TO.C,U2*%
X112344999Y-48710000D03*
X111395000Y-48710000D03*
X110445001Y-48710000D03*
X110445001Y-50985000D03*
X112344999Y-50985000D03*
%TD*%
D37*
%TO.C,M4*%
X27700000Y-170500000D03*
%TD*%
D16*
%TO.C,D6*%
X114295000Y-76505000D03*
D18*
X116200000Y-76505000D03*
D17*
X112390000Y-76505000D03*
%TD*%
D35*
%TO.C,C5*%
X105200000Y-54405000D03*
X105200000Y-52500000D03*
%TD*%
D15*
%TO.C,J5*%
X76960000Y-51105000D03*
X79500000Y-51105000D03*
%TD*%
%TO.C,J8*%
X103800000Y-83200000D03*
X103800000Y-80659998D03*
%TD*%
D20*
%TO.C,C2*%
X112900000Y-46447500D03*
X110995000Y-46447500D03*
%TD*%
D23*
%TO.C,D2*%
X108500000Y-41847500D03*
X108500000Y-45847502D03*
%TD*%
D20*
%TO.C,C3*%
X113695000Y-51047500D03*
X115600000Y-51047500D03*
%TD*%
D33*
%TO.C,JP2*%
X107100000Y-83200000D03*
D34*
X107100000Y-80660000D03*
X107100000Y-78120001D03*
%TD*%
D35*
%TO.C,R15*%
X118500000Y-84600000D03*
X118500000Y-82695000D03*
%TD*%
D37*
%TO.C,M1*%
X27700000Y-149201560D03*
%TD*%
D35*
%TO.C,R3*%
X66800000Y-45757500D03*
X66800000Y-43852500D03*
%TD*%
D38*
%TO.C,D5*%
X104500000Y-105900000D03*
X106400000Y-105900000D03*
X105450000Y-104024999D03*
%TD*%
D37*
%TO.C,M3*%
X27700000Y-163400520D03*
%TD*%
D39*
%TO.C,R5*%
X98152962Y-35552038D03*
X99500000Y-34205000D03*
%TD*%
D35*
%TO.C,R1*%
X103500000Y-59200000D03*
X103500000Y-61105000D03*
%TD*%
%TO.C,R2*%
X66800000Y-47105000D03*
X66800000Y-49010000D03*
%TD*%
D40*
%TO.C,Q2*%
X74487802Y-126030000D03*
X74487802Y-127930000D03*
X76362802Y-126980000D03*
%TD*%
D35*
%TO.C,R21*%
X92900000Y-84100000D03*
X92900000Y-82195000D03*
%TD*%
D37*
%TO.C,M2*%
X27700000Y-156301040D03*
%TD*%
D41*
%TO.C,U3*%
X102900000Y-40105000D03*
X101800000Y-40105000D03*
X100700000Y-40105000D03*
X99600000Y-40105000D03*
X98500000Y-40105000D03*
X97400000Y-40105000D03*
X96300000Y-40105000D03*
X93300000Y-40105000D03*
X92200000Y-40105000D03*
X91100000Y-40105000D03*
X90000000Y-40105000D03*
X88900000Y-40105000D03*
X88900000Y-52105000D03*
X90000000Y-52105000D03*
X91100000Y-52105000D03*
X92200000Y-52105000D03*
X93300000Y-52105000D03*
X96300000Y-52105000D03*
X97400000Y-52105000D03*
X98500000Y-52105000D03*
X99600000Y-52105000D03*
X100700000Y-52105000D03*
X101800000Y-52105000D03*
X102900000Y-52105000D03*
%TD*%
D42*
%TO.C,J3*%
X90000000Y-31205000D03*
D43*
X88525000Y-29705000D03*
D42*
X90000000Y-28205000D03*
D43*
X91475000Y-29705000D03*
%TD*%
D44*
%TO.C,L1*%
X111900000Y-41847502D03*
X111900000Y-44647500D03*
%TD*%
D20*
%TO.C,R7*%
X84600000Y-50705000D03*
X82695000Y-50705000D03*
%TD*%
D39*
%TO.C,R4*%
X99726481Y-36978519D03*
X101073519Y-35631481D03*
%TD*%
D15*
%TO.C,J6*%
X69860000Y-40945000D03*
X72400000Y-40945000D03*
X69860000Y-43485000D03*
X72400000Y-43485000D03*
X69860000Y-46025000D03*
X72400000Y-46025000D03*
X69860000Y-48565000D03*
X72400000Y-48565000D03*
X69860000Y-51105000D03*
X72400000Y-51105000D03*
%TD*%
D38*
%TO.C,D7*%
X112600000Y-106100000D03*
X114500000Y-106100000D03*
X113550000Y-104224999D03*
%TD*%
D45*
%TO.C,L2*%
X90985000Y-35205000D03*
X90015000Y-35205000D03*
%TD*%
D40*
%TO.C,Q1*%
X113525000Y-62255000D03*
X113525000Y-64155000D03*
X115400000Y-63205000D03*
%TD*%
D33*
%TO.C,J1*%
X111800000Y-37447500D03*
D34*
X109260000Y-37447500D03*
X111800000Y-34907500D03*
X109260000Y-34907500D03*
X111800000Y-32367501D03*
X109260000Y-32367500D03*
X111800000Y-29827500D03*
X109260000Y-29827500D03*
X111800000Y-27287500D03*
X109260000Y-27287500D03*
%TD*%
D20*
%TO.C,R14*%
X109120000Y-61355000D03*
X111025000Y-61355000D03*
%TD*%
D35*
%TO.C,C7*%
X94900000Y-35205000D03*
X94900000Y-37110000D03*
%TD*%
D38*
%TO.C,D4*%
X100600000Y-106000000D03*
X102500000Y-106000000D03*
X101550000Y-104124999D03*
%TD*%
D35*
%TO.C,C10*%
X76600189Y-91300001D03*
X76600189Y-93205001D03*
%TD*%
D46*
%TO.C,PS1*%
X69880000Y-114800000D03*
D47*
X69880000Y-109720001D03*
X90200000Y-122420000D03*
X90200000Y-112260000D03*
X90200000Y-102100000D03*
X69880000Y-102100000D03*
%TD*%
D35*
%TO.C,R12*%
X95200000Y-114752500D03*
X95200000Y-112847500D03*
%TD*%
%TO.C,R11*%
X93000000Y-37157500D03*
X93000000Y-35252500D03*
%TD*%
D20*
%TO.C,R9*%
X84600000Y-45205000D03*
X82695000Y-45205000D03*
%TD*%
M02*
