%TF.GenerationSoftware,KiCad,Pcbnew,10.0.1-10.0.1~ubuntu25.10.1*%
%TF.CreationDate,2026-06-06T02:55:12+00:00*%
%TF.ProjectId,RETERMINT01,52455445-524d-4494-9e54-30312e6b6963,rev?*%
%TF.SameCoordinates,Original*%
%TF.FileFunction,Soldermask,Top*%
%TF.FilePolarity,Negative*%
%FSLAX46Y46*%
G04 Gerber Fmt 4.6, Leading zero omitted, Abs format (unit mm)*
G04 Created by KiCad (PCBNEW 10.0.1-10.0.1~ubuntu25.10.1) date 2026-06-06 02:55:12*
%MOMM*%
%LPD*%
G01*
G04 APERTURE LIST*
G04 Aperture macros list*
%AMRoundRect*
0 Rectangle with rounded corners*
0 $1 Rounding radius*
0 $2 $3 $4 $5 $6 $7 $8 $9 X,Y pos of 4 corners*
0 Add a 4 corners polygon primitive as box body*
4,1,4,$2,$3,$4,$5,$6,$7,$8,$9,$2,$3,0*
0 Add four circle primitives for the rounded corners*
1,1,$1+$1,$2,$3*
1,1,$1+$1,$4,$5*
1,1,$1+$1,$6,$7*
1,1,$1+$1,$8,$9*
0 Add four rect primitives between the rounded corners*
20,1,$1+$1,$2,$3,$4,$5,0*
20,1,$1+$1,$4,$5,$6,$7,0*
20,1,$1+$1,$6,$7,$8,$9,0*
20,1,$1+$1,$8,$9,$2,$3,0*%
%AMFreePoly0*
4,1,23,0.550000,-0.750000,0.000000,-0.750000,0.000000,-0.745722,-0.065263,-0.745722,-0.191342,-0.711940,-0.304381,-0.646677,-0.396677,-0.554381,-0.461940,-0.441342,-0.495722,-0.315263,-0.495722,-0.250000,-0.500000,-0.250000,-0.500000,0.250000,-0.495722,0.250000,-0.495722,0.315263,-0.461940,0.441342,-0.396677,0.554381,-0.304381,0.646677,-0.191342,0.711940,-0.065263,0.745722,0.000000,0.745722,
0.000000,0.750000,0.550000,0.750000,0.550000,-0.750000,0.550000,-0.750000,$1*%
%AMFreePoly1*
4,1,23,0.000000,0.745722,0.065263,0.745722,0.191342,0.711940,0.304381,0.646677,0.396677,0.554381,0.461940,0.441342,0.495722,0.315263,0.495722,0.250000,0.500000,0.250000,0.500000,-0.250000,0.495722,-0.250000,0.495722,-0.315263,0.461940,-0.441342,0.396677,-0.554381,0.304381,-0.646677,0.191342,-0.711940,0.065263,-0.745722,0.000000,-0.745722,0.000000,-0.750000,-0.550000,-0.750000,
-0.550000,0.750000,0.000000,0.750000,0.000000,0.745722,0.000000,0.745722,$1*%
%AMFreePoly2*
4,1,23,0.500000,-0.750000,0.000000,-0.750000,0.000000,-0.745722,-0.065263,-0.745722,-0.191342,-0.711940,-0.304381,-0.646677,-0.396677,-0.554381,-0.461940,-0.441342,-0.495722,-0.315263,-0.495722,-0.250000,-0.500000,-0.250000,-0.500000,0.250000,-0.495722,0.250000,-0.495722,0.315263,-0.461940,0.441342,-0.396677,0.554381,-0.304381,0.646677,-0.191342,0.711940,-0.065263,0.745722,0.000000,0.745722,
0.000000,0.750000,0.500000,0.750000,0.500000,-0.750000,0.500000,-0.750000,$1*%
%AMFreePoly3*
4,1,23,0.000000,0.745722,0.065263,0.745722,0.191342,0.711940,0.304381,0.646677,0.396677,0.554381,0.461940,0.441342,0.495722,0.315263,0.495722,0.250000,0.500000,0.250000,0.500000,-0.250000,0.495722,-0.250000,0.495722,-0.315263,0.461940,-0.441342,0.396677,-0.554381,0.304381,-0.646677,0.191342,-0.711940,0.065263,-0.745722,0.000000,-0.745722,0.000000,-0.750000,-0.500000,-0.750000,
-0.500000,0.750000,0.000000,0.750000,0.000000,0.745722,0.000000,0.745722,$1*%
%AMFreePoly4*
4,1,21,0.550000,-1.025000,-0.550000,-1.025000,-0.550000,-0.925378,-0.925000,-0.925378,-0.925000,-0.675378,-0.550000,-0.675378,-0.550000,-0.425252,-0.925000,-0.425252,-0.925000,-0.175252,-0.550000,-0.175252,-0.550000,0.074874,-0.925000,0.074874,-0.925000,0.324874,-0.550000,0.324874,-0.550000,0.575000,-0.925000,0.575000,-0.925000,0.825000,-0.550000,0.825000,-0.550000,1.025000,0.550000,1.025000,
0.550000,-1.025000,0.550000,-1.025000,$1*%
%AMFreePoly5*
4,1,23,0.550000,0.824999,0.925000,0.824999,0.925000,0.574999,0.550000,0.574999,0.550000,0.324873,0.925000,0.324873,0.925000,0.074873,0.550000,0.074873,0.550000,-0.175253,0.925000,-0.175253,0.925000,-0.425253,0.550000,-0.425253,0.550000,-0.675379,0.925000,-0.675379,0.925000,-0.925379,0.550000,-0.925379,0.550000,-1.025001,0.450000,-1.025001,0.450000,-1.024999,-0.550000,-1.024999,
-0.550000,1.024999,0.550000,1.024999,0.550000,0.824999,0.550000,0.824999,$1*%
G04 Aperture macros list end*
%ADD10C,0.000000*%
%ADD11RoundRect,0.150000X-0.512500X-0.150000X0.512500X-0.150000X0.512500X0.150000X-0.512500X0.150000X0*%
%ADD12FreePoly0,0.000000*%
%ADD13R,1.000000X1.500000*%
%ADD14FreePoly1,0.000000*%
%ADD15R,1.524000X1.524000*%
%ADD16RoundRect,0.250000X-0.375000X-0.625000X0.375000X-0.625000X0.375000X0.625000X-0.375000X0.625000X0*%
%ADD17RoundRect,0.150000X-0.150000X0.875000X-0.150000X-0.875000X0.150000X-0.875000X0.150000X0.875000X0*%
%ADD18C,2.600000*%
%ADD19RoundRect,0.250000X-0.262500X-0.450000X0.262500X-0.450000X0.262500X0.450000X-0.262500X0.450000X0*%
%ADD20RoundRect,0.243750X0.456250X-0.243750X0.456250X0.243750X-0.456250X0.243750X-0.456250X-0.243750X0*%
%ADD21FreePoly2,180.000000*%
%ADD22FreePoly3,180.000000*%
%ADD23RoundRect,0.250000X0.262500X0.450000X-0.262500X0.450000X-0.262500X-0.450000X0.262500X-0.450000X0*%
%ADD24RoundRect,0.250000X0.250000X0.475000X-0.250000X0.475000X-0.250000X-0.475000X0.250000X-0.475000X0*%
%ADD25RoundRect,0.250000X0.550000X0.550000X-0.550000X0.550000X-0.550000X-0.550000X0.550000X-0.550000X0*%
%ADD26C,1.600000*%
%ADD27RoundRect,0.250000X-0.650000X1.000000X-0.650000X-1.000000X0.650000X-1.000000X0.650000X1.000000X0*%
%ADD28C,3.250000*%
%ADD29R,1.500000X1.500000*%
%ADD30C,1.500000*%
%ADD31C,2.300000*%
%ADD32RoundRect,0.250000X-0.250000X-0.475000X0.250000X-0.475000X0.250000X0.475000X-0.250000X0.475000X0*%
%ADD33RoundRect,0.250000X-0.450000X0.262500X-0.450000X-0.262500X0.450000X-0.262500X0.450000X0.262500X0*%
%ADD34R,0.370000X1.125000*%
%ADD35R,0.250000X1.100000*%
%ADD36FreePoly4,90.000000*%
%ADD37FreePoly5,90.000000*%
%ADD38R,0.800000X0.250000*%
%ADD39R,1.520000X0.300000*%
%ADD40R,1.700000X1.700000*%
%ADD41C,1.700000*%
%ADD42RoundRect,0.250000X0.450000X-0.262500X0.450000X0.262500X-0.450000X0.262500X-0.450000X-0.262500X0*%
%ADD43RoundRect,0.250000X0.475000X-0.250000X0.475000X0.250000X-0.475000X0.250000X-0.475000X-0.250000X0*%
%ADD44RoundRect,0.150000X-0.150000X0.512500X-0.150000X-0.512500X0.150000X-0.512500X0.150000X0.512500X0*%
%ADD45RoundRect,0.250000X1.400000X1.000000X-1.400000X1.000000X-1.400000X-1.000000X1.400000X-1.000000X0*%
%ADD46RoundRect,0.250000X-0.475000X0.250000X-0.475000X-0.250000X0.475000X-0.250000X0.475000X0.250000X0*%
%ADD47RoundRect,0.250000X-0.503814X-0.132583X-0.132583X-0.503814X0.503814X0.132583X0.132583X0.503814X0*%
%ADD48RoundRect,0.250000X0.132583X-0.503814X0.503814X-0.132583X-0.132583X0.503814X-0.503814X0.132583X0*%
%ADD49C,6.000000*%
%ADD50RoundRect,0.150000X0.150000X-0.587500X0.150000X0.587500X-0.150000X0.587500X-0.150000X-0.587500X0*%
%ADD51RoundRect,0.150000X-0.150000X0.587500X-0.150000X-0.587500X0.150000X-0.587500X0.150000X0.587500X0*%
%ADD52RoundRect,0.200000X-0.200000X0.700000X-0.200000X-0.700000X0.200000X-0.700000X0.200000X0.700000X0*%
%ADD53RoundRect,0.100000X0.400000X0.400000X-0.400000X0.400000X-0.400000X-0.400000X0.400000X-0.400000X0*%
%ADD54RoundRect,0.105000X0.420000X0.995000X-0.420000X0.995000X-0.420000X-0.995000X0.420000X-0.995000X0*%
%ADD55RoundRect,0.250000X-1.075000X0.375000X-1.075000X-0.375000X1.075000X-0.375000X1.075000X0.375000X0*%
%ADD56RoundRect,0.243750X-0.456250X0.243750X-0.456250X-0.243750X0.456250X-0.243750X0.456250X0.243750X0*%
%ADD57RoundRect,0.147500X0.147500X0.172500X-0.147500X0.172500X-0.147500X-0.172500X0.147500X-0.172500X0*%
%ADD58RoundRect,0.150000X-0.587500X-0.150000X0.587500X-0.150000X0.587500X0.150000X-0.587500X0.150000X0*%
%ADD59RoundRect,0.500000X0.500000X-0.500000X0.500000X0.500000X-0.500000X0.500000X-0.500000X-0.500000X0*%
%ADD60C,2.000000*%
%ADD61R,3.500000X3.500000*%
%ADD62RoundRect,0.750000X1.000000X-0.750000X1.000000X0.750000X-1.000000X0.750000X-1.000000X-0.750000X0*%
%ADD63RoundRect,0.875000X0.875000X-0.875000X0.875000X0.875000X-0.875000X0.875000X-0.875000X-0.875000X0*%
G04 APERTURE END LIST*
%TO.C,JP1*%
G36*
X30675828Y88550000D02*
G01*
X32175828Y88550000D01*
X32175828Y87050000D01*
X30675828Y87050000D01*
X30675828Y88550000D01*
G37*
D10*
%TO.C,JP2*%
G36*
X-20600001Y99450000D02*
G01*
X-20900001Y99450000D01*
X-20900001Y100950000D01*
X-20600001Y100950000D01*
X-20600001Y99450000D01*
G37*
%TO.C,U1*%
G36*
X-4624937Y36774999D02*
G01*
X-4374811Y36774999D01*
X-4374811Y37149999D01*
X-4124811Y37149999D01*
X-4124811Y36774999D01*
X-3874685Y36774999D01*
X-3874685Y37149999D01*
X-3624685Y37149999D01*
X-3624685Y36774999D01*
X-3374559Y36774999D01*
X-3374559Y37149999D01*
X-3124559Y37149999D01*
X-3124559Y36774999D01*
X-3024937Y36774999D01*
X-3024937Y35674999D01*
X-5074937Y35674999D01*
X-5074937Y36774999D01*
X-4874937Y36774999D01*
X-4874937Y37149999D01*
X-4624937Y37149999D01*
X-4624937Y36774999D01*
G37*
G36*
X-3024937Y33624999D02*
G01*
X-3124559Y33624999D01*
X-3124559Y33249999D01*
X-3374559Y33249999D01*
X-3374559Y33624999D01*
X-3624685Y33624999D01*
X-3624685Y33249999D01*
X-3874685Y33249999D01*
X-3874685Y33624999D01*
X-4124811Y33624999D01*
X-4124811Y33249999D01*
X-4374811Y33249999D01*
X-4374811Y33624999D01*
X-4624937Y33624999D01*
X-4624937Y33249999D01*
X-4874937Y33249999D01*
X-4874937Y33624999D01*
X-5074937Y33624999D01*
X-5074937Y34724999D01*
X-3024937Y34724999D01*
X-3024937Y33624999D01*
G37*
%TD*%
D11*
%TO.C,U2*%
X21588328Y108699998D03*
X21588328Y107749999D03*
X21588328Y106800000D03*
X23863328Y106800000D03*
X23863328Y107749999D03*
X23863328Y108699998D03*
%TD*%
D12*
%TO.C,JP1*%
X30125828Y87800000D03*
D13*
X31425828Y87800000D03*
D14*
X32725828Y87800000D03*
%TD*%
D15*
%TO.C,J4*%
X-5114172Y92500000D03*
X-2574172Y92500000D03*
%TD*%
D16*
%TO.C,D3*%
X31000001Y79000000D03*
X33799999Y79000000D03*
%TD*%
D17*
%TO.C,U5*%
X13445000Y40500000D03*
X12175000Y40500001D03*
X10905000Y40500000D03*
X9635000Y40500000D03*
X8365000Y40500000D03*
X7095000Y40500000D03*
X5825000Y40500001D03*
X4555000Y40500000D03*
X4555000Y31200000D03*
X5825000Y31199999D03*
X7095000Y31200000D03*
X8365000Y31200000D03*
X9635000Y31200000D03*
X10905000Y31200000D03*
X12175000Y31199999D03*
X13445000Y31200000D03*
%TD*%
D18*
%TO.C,TP2*%
X-28700000Y20000000D03*
%TD*%
D19*
%TO.C,R2*%
X-19125000Y39200000D03*
X-17300000Y39200000D03*
%TD*%
D20*
%TO.C,F2*%
X-25000000Y22162499D03*
X-25000000Y24037501D03*
%TD*%
D21*
%TO.C,JP2*%
X-20100002Y100200000D03*
D22*
X-21400000Y100200000D03*
%TD*%
D23*
%TO.C,R22*%
X-15187500Y79412500D03*
X-17012500Y79412500D03*
%TD*%
D24*
%TO.C,C3*%
X-6600000Y30900000D03*
X-8499998Y30900000D03*
%TD*%
D25*
%TO.C,C1*%
X13625828Y81700000D03*
D26*
X10125828Y81700000D03*
%TD*%
D27*
%TO.C,D1*%
X18525828Y84000001D03*
X18525828Y79999999D03*
%TD*%
D28*
%TO.C,J11*%
X25540000Y5560000D03*
X12840000Y5560000D03*
D29*
X22750000Y8100000D03*
D30*
X21734000Y9880001D03*
X20718000Y8100000D03*
X19702000Y9880001D03*
X18686000Y8100000D03*
X17670000Y9880001D03*
X16654000Y8100000D03*
X15638001Y9880000D03*
X26050000Y14700000D03*
X23760000Y14700000D03*
X14620000Y14700000D03*
X12330000Y14700000D03*
D31*
X27320000Y8990000D03*
X11060000Y8990000D03*
%TD*%
D23*
%TO.C,R4*%
X-17275000Y37000000D03*
X-19100000Y37000000D03*
%TD*%
D32*
%TO.C,C2*%
X-5100000Y30900000D03*
X-3200000Y30900000D03*
%TD*%
D33*
%TO.C,R25*%
X33800000Y17125000D03*
X33800000Y15300000D03*
%TD*%
D19*
%TO.C,R23*%
X19087500Y28300000D03*
X20912500Y28300000D03*
%TD*%
D15*
%TO.C,J6*%
X-5114172Y100200000D03*
X-2574172Y100200000D03*
%TD*%
D34*
%TO.C,U1*%
X-7010000Y33812499D03*
D35*
X-6200189Y33799999D03*
X-5700062Y33799999D03*
D36*
X-4049937Y34174999D03*
D37*
X-4049938Y36224999D03*
D35*
X-5700062Y36599999D03*
X-6200189Y36599999D03*
D34*
X-7010000Y36587499D03*
D38*
X-7100000Y35699998D03*
D39*
X-6739999Y35199999D03*
D38*
X-7100000Y34700000D03*
%TD*%
D40*
%TO.C,J10*%
X-33575000Y114025000D03*
D41*
X-31035000Y114025000D03*
X-33575000Y111485000D03*
X-31035000Y111485000D03*
X-33575000Y108945000D03*
X-31035000Y108945000D03*
X-33575000Y106405000D03*
X-31035000Y106405000D03*
X-33575000Y103865000D03*
X-31035000Y103865000D03*
X-33575000Y101325000D03*
X-31035000Y101325000D03*
X-33575000Y98785000D03*
X-31035000Y98785000D03*
X-33575000Y96245000D03*
X-31035000Y96245000D03*
X-33575000Y93705000D03*
X-31035000Y93705000D03*
X-33575000Y91165000D03*
X-31035000Y91165000D03*
X-33575000Y88625000D03*
X-31035000Y88625000D03*
X-33575000Y86085000D03*
X-31035000Y86085000D03*
X-33575000Y83545000D03*
X-31035000Y83545000D03*
X-33575000Y81005000D03*
X-31035000Y81005000D03*
X-33575000Y78465000D03*
X-31035000Y78465000D03*
X-33575000Y75925000D03*
X-31035000Y75925000D03*
X-33575000Y73385000D03*
X-31035000Y73385000D03*
X-33575000Y70845000D03*
X-31035000Y70845000D03*
X-33575000Y68305000D03*
X-31035000Y68305000D03*
X-33575000Y65765000D03*
X-31035000Y65765000D03*
%TD*%
D17*
%TO.C,U6*%
X35400000Y40500000D03*
X34130000Y40500001D03*
X32860000Y40500000D03*
X31590000Y40500000D03*
X30320000Y40500000D03*
X29050000Y40500000D03*
X27780000Y40500001D03*
X26510000Y40500000D03*
X26510000Y31200000D03*
X27780000Y31199999D03*
X29050000Y31200000D03*
X30320000Y31200000D03*
X31590000Y31200000D03*
X32860000Y31200000D03*
X34130000Y31199999D03*
X35400000Y31200000D03*
%TD*%
D23*
%TO.C,R18*%
X29012500Y79000000D03*
X27187500Y79000000D03*
%TD*%
D42*
%TO.C,R8*%
X6600000Y14300000D03*
X6600000Y16125000D03*
%TD*%
D23*
%TO.C,R13*%
X2485828Y94100000D03*
X660828Y94100000D03*
%TD*%
D15*
%TO.C,J7*%
X-5114172Y97600000D03*
X-2574172Y97600000D03*
%TD*%
D19*
%TO.C,R3*%
X-19112500Y41300000D03*
X-17287500Y41300000D03*
%TD*%
D23*
%TO.C,R11*%
X2482198Y92141688D03*
X657198Y92141688D03*
%TD*%
D43*
%TO.C,C9*%
X26525828Y90760000D03*
X26525828Y92660000D03*
%TD*%
D17*
%TO.C,U7*%
X24445000Y40450000D03*
X23175000Y40450001D03*
X21905000Y40450000D03*
X20635000Y40450000D03*
X19365000Y40450000D03*
X18095000Y40450000D03*
X16825000Y40450001D03*
X15555000Y40450000D03*
X15555000Y31150000D03*
X16825000Y31149999D03*
X18095000Y31150000D03*
X19365000Y31150000D03*
X20635000Y31150000D03*
X21905000Y31150000D03*
X23175000Y31149999D03*
X24445000Y31150000D03*
%TD*%
D44*
%TO.C,U3*%
X30270827Y92395000D03*
X29320828Y92395000D03*
X28370829Y92395000D03*
X28370829Y90120000D03*
X30270827Y90120000D03*
%TD*%
D16*
%TO.C,D6*%
X-19500000Y1600000D03*
X-16700000Y1600000D03*
%TD*%
D43*
%TO.C,C6*%
X23600000Y86702500D03*
X23600000Y88602500D03*
%TD*%
D45*
%TO.C,D8*%
X8700000Y19700000D03*
X8700000Y26500000D03*
%TD*%
D15*
%TO.C,J5*%
X-5114172Y90000000D03*
X-2574172Y90000000D03*
%TD*%
%TO.C,J9*%
X18100000Y44800000D03*
X18100000Y47340002D03*
%TD*%
D24*
%TO.C,C5*%
X30823328Y94657500D03*
X28923328Y94657500D03*
%TD*%
D46*
%TO.C,C4*%
X-100000Y32949999D03*
X-100000Y31050001D03*
%TD*%
D30*
%TO.C,TP3*%
X-8200000Y39300000D03*
%TD*%
%TO.C,TP4*%
X33800000Y22500000D03*
%TD*%
D24*
%TO.C,C12*%
X8300000Y10200000D03*
X6400002Y10200000D03*
%TD*%
D47*
%TO.C,R21*%
X28654765Y28145235D03*
X29945235Y26854765D03*
%TD*%
D27*
%TO.C,D2*%
X26425828Y99257500D03*
X26425828Y95257498D03*
%TD*%
D32*
%TO.C,C8*%
X31850000Y90057500D03*
X33750000Y90057500D03*
%TD*%
D48*
%TO.C,R20*%
X13654765Y25954765D03*
X14945235Y27245235D03*
%TD*%
D40*
%TO.C,JP3*%
X21400000Y44800000D03*
D41*
X21400000Y47340000D03*
X21400000Y49879999D03*
%TD*%
D42*
%TO.C,R17*%
X32800000Y43440000D03*
X32800000Y45265000D03*
%TD*%
D49*
%TO.C,M1*%
X-40925000Y12800000D03*
%TD*%
D42*
%TO.C,R6*%
X-15274172Y95600000D03*
X-15274172Y97425000D03*
%TD*%
D50*
%TO.C,D7*%
X18800000Y22100000D03*
X20700000Y22100000D03*
X19750000Y23975001D03*
%TD*%
D49*
%TO.C,M3*%
X41525000Y88150000D03*
%TD*%
D48*
%TO.C,R10*%
X16107074Y105581246D03*
X17397544Y106871716D03*
%TD*%
D24*
%TO.C,C11*%
X8249999Y8100000D03*
X6350001Y8100000D03*
%TD*%
D33*
%TO.C,R1*%
X21425828Y81865000D03*
X21425828Y80040000D03*
%TD*%
%TO.C,R5*%
X-15274172Y93960000D03*
X-15274172Y92135000D03*
%TD*%
D51*
%TO.C,Q1*%
X-17300000Y34100000D03*
X-19200000Y34100000D03*
X-18250000Y32224999D03*
%TD*%
D42*
%TO.C,R16*%
X7200000Y43940000D03*
X7200000Y45765000D03*
%TD*%
D49*
%TO.C,M2*%
X41525000Y18050000D03*
%TD*%
D52*
%TO.C,U4*%
X20825828Y101000000D03*
X19725828Y101000000D03*
X18625828Y101000000D03*
X17525828Y101000000D03*
X16425828Y101000000D03*
X15325828Y101000000D03*
X14225828Y101000000D03*
X11225828Y101000000D03*
X10125828Y101000000D03*
X9025828Y101000000D03*
X7925828Y101000000D03*
X6825828Y101000000D03*
X6825828Y89000000D03*
X7925828Y89000000D03*
X9025828Y89000000D03*
X10125828Y89000000D03*
X11225828Y89000000D03*
X14225828Y89000000D03*
X15325828Y89000000D03*
X16425828Y89000000D03*
X17525828Y89000000D03*
X18625828Y89000000D03*
X19725828Y89000000D03*
X20825828Y89000000D03*
%TD*%
D53*
%TO.C,J8*%
X7925828Y109900000D03*
D54*
X6450828Y111400000D03*
D53*
X7925828Y112900000D03*
D54*
X9400828Y111400000D03*
%TD*%
D55*
%TO.C,L1*%
X29825828Y99400000D03*
X29825828Y96600002D03*
%TD*%
D56*
%TO.C,F1*%
X-25000000Y19975002D03*
X-25000000Y18100000D03*
%TD*%
D23*
%TO.C,R12*%
X2485828Y90200000D03*
X660828Y90200000D03*
%TD*%
D48*
%TO.C,R9*%
X17680593Y104154765D03*
X18971063Y105445235D03*
%TD*%
D33*
%TO.C,R24*%
X31300000Y17012500D03*
X31300000Y15187500D03*
%TD*%
D15*
%TO.C,J3*%
X-12214172Y100160000D03*
X-9674172Y100160000D03*
X-12214172Y97620000D03*
X-9674172Y97620000D03*
X-12214172Y95080000D03*
X-9674172Y95080000D03*
X-12214172Y92540000D03*
X-9674172Y92540000D03*
X-12214172Y90000000D03*
X-9674172Y90000000D03*
%TD*%
D50*
%TO.C,D5*%
X26900000Y21900000D03*
X28800000Y21900000D03*
X27850000Y23775001D03*
%TD*%
D57*
%TO.C,L2*%
X8910828Y105900000D03*
X7940828Y105900000D03*
%TD*%
D58*
%TO.C,Q2*%
X-16775000Y83662500D03*
X-16775000Y81762500D03*
X-14900000Y82712500D03*
%TD*%
D40*
%TO.C,J1*%
X29725828Y103657500D03*
D41*
X27185828Y103657500D03*
X29725828Y106197500D03*
X27185828Y106197500D03*
X29725828Y108737499D03*
X27185828Y108737500D03*
X29725828Y111277500D03*
X27185828Y111277500D03*
X29725828Y113817500D03*
X27185828Y113817500D03*
%TD*%
D33*
%TO.C,R19*%
X-17100000Y87300000D03*
X-17100000Y85475000D03*
%TD*%
D46*
%TO.C,C10*%
X12942387Y105859230D03*
X12942387Y103959230D03*
%TD*%
D50*
%TO.C,D4*%
X14900000Y22000000D03*
X16800000Y22000000D03*
X15850000Y23875001D03*
%TD*%
D46*
%TO.C,C7*%
X-9500000Y36697499D03*
X-9500000Y34797499D03*
%TD*%
D18*
%TO.C,TP1*%
X-28700000Y23900000D03*
%TD*%
D59*
%TO.C,PS1*%
X-18217500Y13600000D03*
D60*
X-18217500Y18679999D03*
X2102500Y5980000D03*
X2102500Y16140000D03*
X2102500Y26300000D03*
X-18217500Y26300000D03*
%TD*%
D23*
%TO.C,R7*%
X8312500Y12500000D03*
X6487500Y12500000D03*
%TD*%
D42*
%TO.C,R15*%
X10925828Y103987500D03*
X10925828Y105812500D03*
%TD*%
D23*
%TO.C,R14*%
X2489457Y96054306D03*
X664457Y96054306D03*
%TD*%
D49*
%TO.C,M4*%
X-18100000Y114500000D03*
%TD*%
D61*
%TO.C,J2*%
X-28157500Y13800000D03*
D62*
X-28157500Y7800000D03*
D63*
X-32857500Y10800000D03*
%TD*%
M02*
