%TF.GenerationSoftware,KiCad,Pcbnew,10.0.1-10.0.1~ubuntu25.10.1*%
%TF.CreationDate,2026-05-18T09:27:44+00:00*%
%TF.ProjectId,RETERMINT01,52455445-524d-4494-9e54-30312e6b6963,rev?*%
%TF.SameCoordinates,Original*%
%TF.FileFunction,Soldermask,Bot*%
%TF.FilePolarity,Negative*%
%FSLAX46Y46*%
G04 Gerber Fmt 4.6, Leading zero omitted, Abs format (unit mm)*
G04 Created by KiCad (PCBNEW 10.0.1-10.0.1~ubuntu25.10.1) date 2026-05-18 09:27:44*
%MOMM*%
%LPD*%
G01*
G04 APERTURE LIST*
G04 Aperture macros list*
%AMRoundRect*
0 Rectangle with rounded corners*
0 $1 Rounding radius*
0 $2 $3 $4 $5 $6 $7 $8 $9 X,Y pos of 4 corners*
0 Add a 4 corners polygon primitive as box body*
4,1,4,$2,$3,$4,$5,$6,$7,$8,$9,$2,$3,0*
0 Add four circle primitives for the rounded corners*
1,1,$1+$1,$2,$3*
1,1,$1+$1,$4,$5*
1,1,$1+$1,$6,$7*
1,1,$1+$1,$8,$9*
0 Add four rect primitives between the rounded corners*
20,1,$1+$1,$2,$3,$4,$5,0*
20,1,$1+$1,$4,$5,$6,$7,0*
20,1,$1+$1,$6,$7,$8,$9,0*
20,1,$1+$1,$8,$9,$2,$3,0*%
G04 Aperture macros list end*
%ADD10R,1.524000X1.524000*%
%ADD11C,2.600000*%
%ADD12RoundRect,0.250000X0.550000X0.550000X-0.550000X0.550000X-0.550000X-0.550000X0.550000X-0.550000X0*%
%ADD13C,1.600000*%
%ADD14C,3.250000*%
%ADD15R,1.500000X1.500000*%
%ADD16C,1.500000*%
%ADD17C,2.300000*%
%ADD18R,1.700000X1.700000*%
%ADD19C,1.700000*%
%ADD20C,6.000000*%
%ADD21RoundRect,0.500000X0.500000X-0.500000X0.500000X0.500000X-0.500000X0.500000X-0.500000X-0.500000X0*%
%ADD22C,2.000000*%
%ADD23R,3.500000X3.500000*%
%ADD24RoundRect,0.750000X1.000000X-0.750000X1.000000X0.750000X-1.000000X0.750000X-1.000000X-0.750000X0*%
%ADD25RoundRect,0.875000X0.875000X-0.875000X0.875000X0.875000X-0.875000X0.875000X-0.875000X-0.875000X0*%
G04 APERTURE END LIST*
D10*
%TO.C,J4*%
X96185828Y-67000000D03*
X98725828Y-67000000D03*
%TD*%
D11*
%TO.C,TP2*%
X72600000Y-139500000D03*
%TD*%
D12*
%TO.C,C1*%
X114925828Y-77800000D03*
D13*
X111425828Y-77800000D03*
%TD*%
D14*
%TO.C,J11*%
X127590000Y-153940000D03*
X114890000Y-153940000D03*
D15*
X124800000Y-151400000D03*
D16*
X123784000Y-149619999D03*
X122768000Y-151400000D03*
X121752000Y-149619999D03*
X120736000Y-151400000D03*
X119720000Y-149619999D03*
X118704000Y-151400000D03*
X117688001Y-149620000D03*
X128100000Y-144800000D03*
X125810000Y-144800000D03*
X116670000Y-144800000D03*
X114380000Y-144800000D03*
D17*
X129370000Y-150510000D03*
X113110000Y-150510000D03*
%TD*%
D10*
%TO.C,J6*%
X96185828Y-59300000D03*
X98725828Y-59300000D03*
%TD*%
D18*
%TO.C,J10*%
X67760000Y-60800000D03*
D19*
X70300000Y-60800000D03*
X67760000Y-63340000D03*
X70300000Y-63340000D03*
X67760000Y-65880000D03*
X70300000Y-65880000D03*
X67760000Y-68420000D03*
X70300000Y-68420000D03*
X67760000Y-70960000D03*
X70300000Y-70960000D03*
X67760000Y-73500000D03*
X70300000Y-73500000D03*
X67760000Y-76040000D03*
X70300000Y-76040000D03*
X67760000Y-78580000D03*
X70300000Y-78580000D03*
X67760000Y-81120000D03*
X70300000Y-81120000D03*
X67760000Y-83660000D03*
X70300000Y-83660000D03*
X67760000Y-86200000D03*
X70300000Y-86200000D03*
X67760000Y-88740000D03*
X70300000Y-88740000D03*
X67760000Y-91280000D03*
X70300000Y-91280000D03*
X67760000Y-93820000D03*
X70300000Y-93820000D03*
X67760000Y-96360000D03*
X70300000Y-96360000D03*
X67760000Y-98900000D03*
X70300000Y-98900000D03*
X67760000Y-101440000D03*
X70300000Y-101440000D03*
X67760000Y-103980000D03*
X70300000Y-103980000D03*
X67760000Y-106520000D03*
X70300000Y-106520000D03*
X67760000Y-109060000D03*
X70300000Y-109060000D03*
%TD*%
D10*
%TO.C,J7*%
X96185828Y-61900000D03*
X98725828Y-61900000D03*
%TD*%
D20*
%TO.C,M4*%
X70400000Y-44800000D03*
%TD*%
D10*
%TO.C,J5*%
X96185828Y-69500000D03*
X98725828Y-69500000D03*
%TD*%
%TO.C,J9*%
X119400000Y-114700000D03*
X119400000Y-112159998D03*
%TD*%
D18*
%TO.C,JP3*%
X122700000Y-114700000D03*
D19*
X122700000Y-112160000D03*
X122700000Y-109620001D03*
%TD*%
D20*
%TO.C,M1*%
X57100000Y-137200000D03*
%TD*%
%TO.C,M3*%
X143200000Y-56600000D03*
%TD*%
%TO.C,M2*%
X143400000Y-136300000D03*
%TD*%
D10*
%TO.C,J3*%
X89085828Y-59340000D03*
X91625828Y-59340000D03*
X89085828Y-61880000D03*
X91625828Y-61880000D03*
X89085828Y-64420000D03*
X91625828Y-64420000D03*
X89085828Y-66960000D03*
X91625828Y-66960000D03*
X89085828Y-69500000D03*
X91625828Y-69500000D03*
%TD*%
D18*
%TO.C,J1*%
X131025828Y-55842500D03*
D19*
X128485828Y-55842500D03*
X131025828Y-53302500D03*
X128485828Y-53302500D03*
X131025828Y-50762501D03*
X128485828Y-50762500D03*
X131025828Y-48222500D03*
X128485828Y-48222500D03*
X131025828Y-45682500D03*
X128485828Y-45682500D03*
%TD*%
D11*
%TO.C,TP1*%
X72600000Y-135600000D03*
%TD*%
D21*
%TO.C,PS1*%
X83082500Y-145900000D03*
D22*
X83082500Y-140820001D03*
X103402500Y-153520000D03*
X103402500Y-143360000D03*
X103402500Y-133200000D03*
X83082500Y-133200000D03*
%TD*%
D23*
%TO.C,J2*%
X73142500Y-145700000D03*
D24*
X73142500Y-151700000D03*
D25*
X68442500Y-148700000D03*
%TD*%
M02*
