%TF.GenerationSoftware,KiCad,Pcbnew,9.0.7+1*%
%TF.CreationDate,2026-05-11T08:15:47+00:00*%
%TF.ProjectId,RETERMINT01,52455445-524d-4494-9e54-30312e6b6963,rev?*%
%TF.SameCoordinates,Original*%
%TF.FileFunction,Copper,L2,Bot*%
%TF.FilePolarity,Positive*%
%FSLAX46Y46*%
G04 Gerber Fmt 4.6, Leading zero omitted, Abs format (unit mm)*
G04 Created by KiCad (PCBNEW 9.0.7+1) date 2026-05-11 08:15:47*
%MOMM*%
%LPD*%
G01*
G04 APERTURE LIST*
G04 Aperture macros list*
%AMRoundRect*
0 Rectangle with rounded corners*
0 $1 Rounding radius*
0 $2 $3 $4 $5 $6 $7 $8 $9 X,Y pos of 4 corners*
0 Add a 4 corners polygon primitive as box body*
4,1,4,$2,$3,$4,$5,$6,$7,$8,$9,$2,$3,0*
0 Add four circle primitives for the rounded corners*
1,1,$1+$1,$2,$3*
1,1,$1+$1,$4,$5*
1,1,$1+$1,$6,$7*
1,1,$1+$1,$8,$9*
0 Add four rect primitives between the rounded corners*
20,1,$1+$1,$2,$3,$4,$5,0*
20,1,$1+$1,$4,$5,$6,$7,0*
20,1,$1+$1,$6,$7,$8,$9,0*
20,1,$1+$1,$8,$9,$2,$3,0*%
G04 Aperture macros list end*
%TA.AperFunction,ComponentPad*%
%ADD10R,1.524000X1.524000*%
%TD*%
%TA.AperFunction,ComponentPad*%
%ADD11RoundRect,0.250000X0.550000X0.550000X-0.550000X0.550000X-0.550000X-0.550000X0.550000X-0.550000X0*%
%TD*%
%TA.AperFunction,ComponentPad*%
%ADD12C,1.600000*%
%TD*%
%TA.AperFunction,ComponentPad*%
%ADD13R,1.500000X1.500000*%
%TD*%
%TA.AperFunction,ComponentPad*%
%ADD14C,1.500000*%
%TD*%
%TA.AperFunction,ComponentPad*%
%ADD15C,2.300000*%
%TD*%
%TA.AperFunction,ComponentPad*%
%ADD16R,1.700000X1.700000*%
%TD*%
%TA.AperFunction,ComponentPad*%
%ADD17C,1.700000*%
%TD*%
%TA.AperFunction,ComponentPad*%
%ADD18C,6.000000*%
%TD*%
%TA.AperFunction,ComponentPad*%
%ADD19RoundRect,0.500000X0.500000X-0.500000X0.500000X0.500000X-0.500000X0.500000X-0.500000X-0.500000X0*%
%TD*%
%TA.AperFunction,ComponentPad*%
%ADD20C,2.000000*%
%TD*%
%TA.AperFunction,ViaPad*%
%ADD21C,0.600000*%
%TD*%
%TA.AperFunction,Conductor*%
%ADD22C,0.400000*%
%TD*%
%TA.AperFunction,Conductor*%
%ADD23C,0.800000*%
%TD*%
G04 APERTURE END LIST*
D10*
%TO.P,J4,1*%
%TO.N,/TXD{slash}MISO*%
X76960000Y-48605000D03*
%TO.P,J4,2*%
X79500000Y-48605000D03*
%TD*%
D11*
%TO.P,C1,1*%
%TO.N,/VBACKUP*%
X95700000Y-59405000D03*
D12*
%TO.P,C1,2*%
%TO.N,GND_GPS*%
X92200000Y-59405000D03*
%TD*%
D13*
%TO.P,J10,1*%
%TO.N,/1A*%
X109210000Y-118460000D03*
D14*
%TO.P,J10,2*%
%TO.N,/1B*%
X108194000Y-116679999D03*
%TO.P,J10,3*%
%TO.N,/3A*%
X107178000Y-118460000D03*
%TO.P,J10,4*%
%TO.N,+24V_OUT*%
X106162000Y-116679999D03*
%TO.P,J10,5*%
%TO.N,GND_OUT*%
X105146000Y-118460000D03*
%TO.P,J10,6*%
%TO.N,/3B*%
X104130000Y-116679999D03*
%TO.P,J10,7*%
%TO.N,/2A*%
X103114000Y-118460000D03*
%TO.P,J10,8*%
%TO.N,/2B*%
X102098001Y-116680000D03*
%TO.P,J10,9*%
%TO.N,unconnected-(J10-Pad9)*%
X112510000Y-111860000D03*
%TO.P,J10,10*%
%TO.N,unconnected-(J10-Pad10)*%
X110220000Y-111860000D03*
%TO.P,J10,11*%
%TO.N,unconnected-(J10-Pad11)*%
X101080000Y-111860000D03*
%TO.P,J10,12*%
%TO.N,unconnected-(J10-Pad12)*%
X98790000Y-111860000D03*
D15*
%TO.P,J10,SH*%
%TO.N,unconnected-(J10-PadSH)*%
X113780000Y-117570000D03*
X97520000Y-117570000D03*
%TD*%
D10*
%TO.P,J11,1*%
%TO.N,/EXTINT*%
X76960000Y-40905000D03*
%TO.P,J11,2*%
X79500000Y-40905000D03*
%TD*%
D16*
%TO.P,J7,1,3V3*%
%TO.N,+3V3*%
X53160000Y-25805000D03*
D17*
%TO.P,J7,2,5V*%
%TO.N,+5V*%
X55700000Y-25805000D03*
%TO.P,J7,3,SDA_I2C1/GPIO02*%
%TO.N,unconnected-(J7-SDA_I2C1{slash}GPIO02-Pad3)*%
X53160000Y-28345000D03*
%TO.P,J7,4,5V*%
%TO.N,+5V*%
X55700000Y-28345000D03*
%TO.P,J7,5,SCL_I2C1/GPIO03*%
%TO.N,unconnected-(J7-SCL_I2C1{slash}GPIO03-Pad5)*%
X53160000Y-30885000D03*
%TO.P,J7,6,GND*%
%TO.N,GND_DIG*%
X55700000Y-30885000D03*
%TO.P,J7,7,GPCLK0/GPIO04*%
%TO.N,/TIMEPULSE*%
X53160000Y-33425000D03*
%TO.P,J7,8,GPIO14/UART_TXD*%
%TO.N,/TX*%
X55700000Y-33425000D03*
%TO.P,J7,9,GND*%
%TO.N,GND_DIG*%
X53160000Y-35965000D03*
%TO.P,J7,10,GPIO15/UART_RXD*%
%TO.N,/RX*%
X55700000Y-35965000D03*
%TO.P,J7,11,GPIO17/SPI1_~{CE1}*%
%TO.N,unconnected-(J7-GPIO17{slash}SPI1_~{CE1}-Pad11)*%
X53160000Y-38505000D03*
%TO.P,J7,12,GPIO18/SPI1_~{CE0}/PCM_CLK/PWM0*%
%TO.N,unconnected-(J7-GPIO18{slash}SPI1_~{CE0}{slash}PCM_CLK{slash}PWM0-Pad12)*%
X55700000Y-38505000D03*
%TO.P,J7,13,GPIO27/SDIO_DAT3*%
%TO.N,unconnected-(J7-GPIO27{slash}SDIO_DAT3-Pad13)*%
X53160000Y-41045000D03*
%TO.P,J7,14,GND*%
%TO.N,GND_DIG*%
X55700000Y-41045000D03*
%TO.P,J7,15,GPIO22/SDIO_CLK*%
%TO.N,unconnected-(J7-GPIO22{slash}SDIO_CLK-Pad15)*%
X53160000Y-43585000D03*
%TO.P,J7,16,GPIO23/SDIO_CMD*%
%TO.N,unconnected-(J7-GPIO23{slash}SDIO_CMD-Pad16)*%
X55700000Y-43585000D03*
%TO.P,J7,17,3V3*%
%TO.N,+3V3*%
X53160000Y-46125000D03*
%TO.P,J7,18,GPIO24/SDIO_DAT0*%
%TO.N,unconnected-(J7-GPIO24{slash}SDIO_DAT0-Pad18)*%
X55700000Y-46125000D03*
%TO.P,J7,19,MOSI_SPI0/GPIO10*%
%TO.N,unconnected-(J7-MOSI_SPI0{slash}GPIO10-Pad19)*%
X53160000Y-48665000D03*
%TO.P,J7,20,GND*%
%TO.N,GND_DIG*%
X55700000Y-48665000D03*
%TO.P,J7,21,MISO_SPI0/GPIO09*%
%TO.N,unconnected-(J7-MISO_SPI0{slash}GPIO09-Pad21)*%
X53160000Y-51205000D03*
%TO.P,J7,22,GPIO25/SDIO_DAT1*%
%TO.N,unconnected-(J7-GPIO25{slash}SDIO_DAT1-Pad22)*%
X55700000Y-51205000D03*
%TO.P,J7,23,SCLK_SPI0/GPIO11*%
%TO.N,unconnected-(J7-SCLK_SPI0{slash}GPIO11-Pad23)*%
X53160000Y-53745000D03*
%TO.P,J7,24,~{CE0}_SPI0/GPIO08*%
%TO.N,unconnected-(J7-~{CE0}_SPI0{slash}GPIO08-Pad24)*%
X55700000Y-53745000D03*
%TO.P,J7,25,GND*%
%TO.N,GND_DIG*%
X53160000Y-56285000D03*
%TO.P,J7,26,~{CE1}_SPI0/GPIO07*%
%TO.N,unconnected-(J7-~{CE1}_SPI0{slash}GPIO07-Pad26)*%
X55700000Y-56285000D03*
%TO.P,J7,27,ID_SD_I2C0/GPIO00*%
%TO.N,unconnected-(J7-ID_SD_I2C0{slash}GPIO00-Pad27)*%
X53160000Y-58825000D03*
%TO.P,J7,28,ID_SC_I2C0/GPIO01*%
%TO.N,unconnected-(J7-ID_SC_I2C0{slash}GPIO01-Pad28)*%
X55700000Y-58825000D03*
%TO.P,J7,29,GPCLK1/GPIO05*%
%TO.N,/PWR_OFF*%
X53160000Y-61365000D03*
%TO.P,J7,30,GND*%
%TO.N,GND_DIG*%
X55700000Y-61365000D03*
%TO.P,J7,31,GPCLK2/GPIO06*%
%TO.N,unconnected-(J7-GPCLK2{slash}GPIO06-Pad31)*%
X53160000Y-63905000D03*
%TO.P,J7,32,GPIO12/PWM0*%
%TO.N,unconnected-(J7-GPIO12{slash}PWM0-Pad32)*%
X55700000Y-63905000D03*
%TO.P,J7,33,GPIO13/PWM1*%
%TO.N,unconnected-(J7-GPIO13{slash}PWM1-Pad33)*%
X53160000Y-66445000D03*
%TO.P,J7,34,GND*%
%TO.N,GND_DIG*%
X55700000Y-66445000D03*
%TO.P,J7,35,GPIO19/SPI1_MISO/PCM_FS*%
%TO.N,unconnected-(J7-GPIO19{slash}SPI1_MISO{slash}PCM_FS-Pad35)*%
X53160000Y-68985000D03*
%TO.P,J7,36,GPIO16/SPI1_~{CE2}*%
%TO.N,unconnected-(J7-GPIO16{slash}SPI1_~{CE2}-Pad36)*%
X55700000Y-68985000D03*
%TO.P,J7,37,GPIO26/SDIO_DAT2*%
%TO.N,unconnected-(J7-GPIO26{slash}SDIO_DAT2-Pad37)*%
X53160000Y-71525000D03*
%TO.P,J7,38,GPIO20/SPI1_MOSI/PCM_DIN/PWM1*%
%TO.N,unconnected-(J7-GPIO20{slash}SPI1_MOSI{slash}PCM_DIN{slash}PWM1-Pad38)*%
X55700000Y-71525000D03*
%TO.P,J7,39,GND*%
%TO.N,GND_DIG*%
X53160000Y-74065000D03*
%TO.P,J7,40,GPIO21/SPI1_SCLK/PCM_DOUT*%
%TO.N,unconnected-(J7-GPIO21{slash}SPI1_SCLK{slash}PCM_DOUT-Pad40)*%
X55700000Y-74065000D03*
%TD*%
D10*
%TO.P,J16,1*%
%TO.N,/TIMEPULSE*%
X76960000Y-43505000D03*
%TO.P,J16,2*%
X79500000Y-43505000D03*
%TD*%
D18*
%TO.P,M4,1*%
%TO.N,GND*%
X27700000Y-170500000D03*
%TD*%
D10*
%TO.P,J5,1*%
%TO.N,/RXD{slash}MOSI*%
X76960000Y-51105000D03*
%TO.P,J5,2*%
X79500000Y-51105000D03*
%TD*%
%TO.P,J8,1*%
%TO.N,/CHAN_3*%
X103800000Y-83200000D03*
%TO.P,J8,2*%
X103800000Y-80659998D03*
%TD*%
D16*
%TO.P,JP2,1,A*%
%TO.N,GND_DIG*%
X107100000Y-83200000D03*
D17*
%TO.P,JP2,2,C*%
%TO.N,/ch3_vdd*%
X107100000Y-80660000D03*
%TO.P,JP2,3,B*%
%TO.N,+3V3_DIG*%
X107100000Y-78120001D03*
%TD*%
D18*
%TO.P,M1,1*%
%TO.N,GND*%
X27700000Y-149201560D03*
%TD*%
%TO.P,M3,1*%
%TO.N,GND*%
X27700000Y-163400520D03*
%TD*%
%TO.P,M2,1*%
%TO.N,GND*%
X27700000Y-156301040D03*
%TD*%
D10*
%TO.P,J6,1*%
%TO.N,GND_GPS*%
X69860000Y-40945000D03*
%TO.P,J6,2*%
X72400000Y-40945000D03*
%TO.P,J6,3*%
%TO.N,/SCL{slash}CLK*%
X69860000Y-43485000D03*
%TO.P,J6,4*%
X72400000Y-43485000D03*
%TO.P,J6,5*%
%TO.N,+3V3_GPS*%
X69860000Y-46025000D03*
%TO.P,J6,6*%
X72400000Y-46025000D03*
%TO.P,J6,7*%
%TO.N,/SDA{slash}#CS*%
X69860000Y-48565000D03*
%TO.P,J6,8*%
X72400000Y-48565000D03*
%TO.P,J6,9*%
%TO.N,GND_GPS*%
X69860000Y-51105000D03*
%TO.P,J6,10*%
X72400000Y-51105000D03*
%TD*%
D16*
%TO.P,J1,1,Pin_1*%
%TO.N,/VBUS2*%
X111800000Y-37447500D03*
D17*
%TO.P,J1,2,Pin_2*%
%TO.N,/VBUS*%
X109260000Y-37447500D03*
%TO.P,J1,3,Pin_3*%
%TO.N,/D2-*%
X111800000Y-34907500D03*
%TO.P,J1,4,Pin_4*%
%TO.N,/D1-*%
X109260000Y-34907500D03*
%TO.P,J1,5,Pin_5*%
%TO.N,/D2+*%
X111800000Y-32367501D03*
%TO.P,J1,6,Pin_6*%
%TO.N,/D1+*%
X109260000Y-32367500D03*
%TO.P,J1,7,Pin_7*%
%TO.N,GND_GPS*%
X111800000Y-29827500D03*
%TO.P,J1,8,Pin_8*%
X109260000Y-29827500D03*
%TO.P,J1,9,Pin_9*%
%TO.N,unconnected-(J1-Pin_9-Pad9)*%
X111800000Y-27287500D03*
%TO.P,J1,10,Pin_10*%
%TO.N,GND_GPS*%
X109260000Y-27287500D03*
%TD*%
D19*
%TO.P,PS1,1,+VIN_(VCC)*%
%TO.N,Net-(PS1-+VIN_(VCC))*%
X69880000Y-114800000D03*
D20*
%TO.P,PS1,2,-VIN_(GND)*%
%TO.N,GNDPWR*%
X69880000Y-109720001D03*
%TO.P,PS1,3,+VOUT*%
%TO.N,+24V_OUT*%
X90200000Y-122420000D03*
%TO.P,PS1,4,COMMON*%
%TO.N,Net-(PS1-COMMON)*%
X90200000Y-112260000D03*
%TO.P,PS1,5,-VOUT*%
%TO.N,GND_OUT*%
X90200000Y-102100000D03*
%TO.P,PS1,6,REMOTE_ON/OFF*%
%TO.N,Net-(PS1-REMOTE_ON{slash}OFF)*%
X69880000Y-102100000D03*
%TD*%
D21*
%TO.N,GND_GPS*%
X103662500Y-33355001D03*
X108678749Y-46026251D03*
X83700000Y-53405000D03*
X105400000Y-48605000D03*
X74800000Y-49805000D03*
X96000000Y-44505000D03*
X101400000Y-33905000D03*
X105000000Y-29405000D03*
X105600000Y-36905000D03*
X108600000Y-48442500D03*
%TO.N,+3V3_GPS*%
X96300000Y-39005000D03*
X98680000Y-46025000D03*
%TO.N,/1A*%
X111000000Y-116100000D03*
X112600000Y-108000000D03*
%TO.N,Net-(U3-TXD{slash}SPI_MISO)*%
X85300000Y-49005000D03*
X97800000Y-48805000D03*
%TO.N,Net-(U3-RXD{slash}SPI_MOSI)*%
X85900000Y-50505000D03*
X99400000Y-50205000D03*
%TO.N,+3V3_DIG*%
X99100000Y-90000000D03*
X121100000Y-90000000D03*
%TO.N,GND_OUT*%
X101500000Y-103100000D03*
X113600000Y-103200000D03*
X105400000Y-103000000D03*
X101500000Y-107600000D03*
X105300000Y-108000000D03*
X103200000Y-101200000D03*
X103500000Y-108400000D03*
%TO.N,+5V_OUT*%
X121100000Y-94900000D03*
X110200000Y-94900000D03*
X99200000Y-94900000D03*
X85300000Y-94900000D03*
%TO.N,/3A*%
X104400000Y-107000000D03*
%TD*%
D22*
%TO.N,+3V3_GPS*%
X98680000Y-40985000D02*
X98680000Y-46025000D01*
X72400000Y-46025000D02*
X69860000Y-46025000D01*
X96700000Y-39005000D02*
X98680000Y-40985000D01*
X96300000Y-39005000D02*
X96700000Y-39005000D01*
X98680000Y-46025000D02*
X72400000Y-46025000D01*
%TO.N,/1A*%
X113700000Y-109100000D02*
X113700000Y-113400000D01*
X113700000Y-113400000D02*
X111000000Y-116100000D01*
X112600000Y-108000000D02*
X113700000Y-109100000D01*
%TO.N,Net-(U3-TXD{slash}SPI_MISO)*%
X85500000Y-48805000D02*
X85300000Y-49005000D01*
X97800000Y-48805000D02*
X85500000Y-48805000D01*
%TO.N,Net-(U3-RXD{slash}SPI_MOSI)*%
X86200000Y-50205000D02*
X85900000Y-50505000D01*
X99400000Y-50205000D02*
X86200000Y-50205000D01*
%TO.N,+3V3_DIG*%
X111600000Y-81000000D02*
X108720001Y-78120001D01*
X108720001Y-78120001D02*
X107100000Y-78120001D01*
X111600000Y-90000000D02*
X111600000Y-81000000D01*
X111600000Y-90000000D02*
X99100000Y-90000000D01*
X121100000Y-90000000D02*
X111600000Y-90000000D01*
D23*
%TO.N,+24V_OUT*%
X94671001Y-115328999D02*
X90200000Y-119800000D01*
X106162000Y-116679999D02*
X104811000Y-115328999D01*
X104811000Y-115328999D02*
X94671001Y-115328999D01*
X90200000Y-119800000D02*
X90200000Y-122420000D01*
D22*
%TO.N,+5V_OUT*%
X99200000Y-94900000D02*
X85300000Y-94900000D01*
X110200000Y-94900000D02*
X99200000Y-94900000D01*
X121100000Y-94900000D02*
X110200000Y-94900000D01*
%TO.N,/3A*%
X110361000Y-116561000D02*
X104400000Y-110600000D01*
X104400000Y-110600000D02*
X104400000Y-107000000D01*
X108059000Y-119611000D02*
X110361000Y-119611000D01*
X107178000Y-118730000D02*
X108059000Y-119611000D01*
X107178000Y-118460000D02*
X107178000Y-118730000D01*
X110361000Y-119611000D02*
X110361000Y-116561000D01*
%TD*%
%TA.AperFunction,Conductor*%
%TO.N,GND_GPS*%
G36*
X71985792Y-50933429D02*
G01*
X71955500Y-51046480D01*
X71955500Y-51163520D01*
X71985792Y-51276571D01*
X72031073Y-51355000D01*
X70228927Y-51355000D01*
X70274208Y-51276571D01*
X70304500Y-51163520D01*
X70304500Y-51046480D01*
X70274208Y-50933429D01*
X70228927Y-50855000D01*
X72031073Y-50855000D01*
X71985792Y-50933429D01*
G37*
%TD.AperFunction*%
%TA.AperFunction,Conductor*%
G36*
X71985792Y-40773429D02*
G01*
X71955500Y-40886480D01*
X71955500Y-41003520D01*
X71985792Y-41116571D01*
X72031073Y-41195000D01*
X70228927Y-41195000D01*
X70274208Y-41116571D01*
X70304500Y-41003520D01*
X70304500Y-40886480D01*
X70274208Y-40773429D01*
X70228927Y-40695000D01*
X72031073Y-40695000D01*
X71985792Y-40773429D01*
G37*
%TD.AperFunction*%
%TA.AperFunction,Conductor*%
G36*
X111334075Y-30020493D02*
G01*
X111399901Y-30134507D01*
X111492993Y-30227599D01*
X111607007Y-30293425D01*
X111670590Y-30310462D01*
X111038282Y-30942769D01*
X111038282Y-30942770D01*
X111092449Y-30982124D01*
X111101493Y-30986732D01*
X111152291Y-31034705D01*
X111169088Y-31102525D01*
X111146553Y-31168661D01*
X111101503Y-31207701D01*
X111092181Y-31212451D01*
X110920213Y-31337391D01*
X110769890Y-31487714D01*
X110644948Y-31659684D01*
X110640482Y-31668450D01*
X110592506Y-31719243D01*
X110524684Y-31736036D01*
X110458550Y-31713496D01*
X110419516Y-31668446D01*
X110415050Y-31659682D01*
X110290109Y-31487713D01*
X110139786Y-31337390D01*
X109967817Y-31212449D01*
X109958504Y-31207704D01*
X109907707Y-31159730D01*
X109890912Y-31091909D01*
X109913449Y-31025774D01*
X109958507Y-30986732D01*
X109967555Y-30982122D01*
X110021716Y-30942770D01*
X110021717Y-30942770D01*
X109389408Y-30310462D01*
X109452993Y-30293425D01*
X109567007Y-30227599D01*
X109660099Y-30134507D01*
X109725925Y-30020493D01*
X109742962Y-29956908D01*
X110375270Y-30589217D01*
X110375270Y-30589216D01*
X110414622Y-30535054D01*
X110419514Y-30525454D01*
X110467488Y-30474657D01*
X110535308Y-30457861D01*
X110601444Y-30480397D01*
X110640486Y-30525454D01*
X110645375Y-30535050D01*
X110684728Y-30589216D01*
X111317037Y-29956908D01*
X111334075Y-30020493D01*
G37*
%TD.AperFunction*%
%TA.AperFunction,Conductor*%
G36*
X110375270Y-28049217D02*
G01*
X110375270Y-28049216D01*
X110414622Y-27995055D01*
X110419232Y-27986007D01*
X110467205Y-27935209D01*
X110535025Y-27918412D01*
X110601161Y-27940947D01*
X110640204Y-27986004D01*
X110644949Y-27995317D01*
X110769890Y-28167286D01*
X110920213Y-28317609D01*
X111092179Y-28442548D01*
X111092181Y-28442549D01*
X111092184Y-28442551D01*
X111101493Y-28447294D01*
X111152290Y-28495266D01*
X111169087Y-28563087D01*
X111146552Y-28629222D01*
X111101505Y-28668260D01*
X111092446Y-28672876D01*
X111092440Y-28672880D01*
X111038282Y-28712227D01*
X111038282Y-28712228D01*
X111670591Y-29344537D01*
X111607007Y-29361575D01*
X111492993Y-29427401D01*
X111399901Y-29520493D01*
X111334075Y-29634507D01*
X111317037Y-29698091D01*
X110684728Y-29065782D01*
X110684727Y-29065782D01*
X110645380Y-29119940D01*
X110640483Y-29129551D01*
X110592506Y-29180345D01*
X110524684Y-29197138D01*
X110458550Y-29174598D01*
X110419516Y-29129548D01*
X110414626Y-29119952D01*
X110375270Y-29065782D01*
X110375269Y-29065782D01*
X109742962Y-29698090D01*
X109725925Y-29634507D01*
X109660099Y-29520493D01*
X109567007Y-29427401D01*
X109452993Y-29361575D01*
X109389409Y-29344537D01*
X110021716Y-28712228D01*
X109967550Y-28672875D01*
X109957954Y-28667986D01*
X109907157Y-28620012D01*
X109890361Y-28552192D01*
X109912897Y-28486056D01*
X109957954Y-28447014D01*
X109967554Y-28442122D01*
X110021716Y-28402770D01*
X110021717Y-28402770D01*
X109389408Y-27770462D01*
X109452993Y-27753425D01*
X109567007Y-27687599D01*
X109660099Y-27594507D01*
X109725925Y-27480493D01*
X109742962Y-27416908D01*
X110375270Y-28049217D01*
G37*
%TD.AperFunction*%
%TA.AperFunction,Conductor*%
G36*
X122176697Y-20704593D02*
G01*
X122243669Y-20724498D01*
X122289249Y-20777452D01*
X122300286Y-20828304D01*
X122399718Y-63683545D01*
X122380189Y-63750630D01*
X122327491Y-63796508D01*
X122278577Y-63807800D01*
X61826575Y-65202080D01*
X61759100Y-65183947D01*
X61712139Y-65132212D01*
X61699716Y-65078393D01*
X61686795Y-59302682D01*
X90900000Y-59302682D01*
X90900000Y-59507317D01*
X90932009Y-59709417D01*
X90995244Y-59904031D01*
X91088141Y-60086350D01*
X91088147Y-60086359D01*
X91120523Y-60130921D01*
X91120524Y-60130922D01*
X91800000Y-59451446D01*
X91800000Y-59457661D01*
X91827259Y-59559394D01*
X91879920Y-59650606D01*
X91954394Y-59725080D01*
X92045606Y-59777741D01*
X92147339Y-59805000D01*
X92153553Y-59805000D01*
X91474076Y-60484474D01*
X91518650Y-60516859D01*
X91700968Y-60609755D01*
X91895582Y-60672990D01*
X92097683Y-60705000D01*
X92302317Y-60705000D01*
X92504417Y-60672990D01*
X92699031Y-60609755D01*
X92881349Y-60516859D01*
X92925921Y-60484474D01*
X92246447Y-59805000D01*
X92252661Y-59805000D01*
X92354394Y-59777741D01*
X92445606Y-59725080D01*
X92520080Y-59650606D01*
X92572741Y-59559394D01*
X92600000Y-59457661D01*
X92600000Y-59451447D01*
X93279474Y-60130921D01*
X93311859Y-60086349D01*
X93404755Y-59904031D01*
X93467990Y-59709417D01*
X93500000Y-59507317D01*
X93500000Y-59302682D01*
X93467990Y-59100582D01*
X93404754Y-58905965D01*
X93380381Y-58858130D01*
X93380380Y-58858129D01*
X93353301Y-58804983D01*
X94399500Y-58804983D01*
X94399500Y-60005001D01*
X94399501Y-60005018D01*
X94410000Y-60107796D01*
X94410001Y-60107799D01*
X94465185Y-60274331D01*
X94465186Y-60274334D01*
X94557288Y-60423656D01*
X94681344Y-60547712D01*
X94830666Y-60639814D01*
X94997203Y-60694999D01*
X95099991Y-60705500D01*
X96300008Y-60705499D01*
X96402797Y-60694999D01*
X96569334Y-60639814D01*
X96718656Y-60547712D01*
X96842712Y-60423656D01*
X96934814Y-60274334D01*
X96989999Y-60107797D01*
X97000500Y-60005009D01*
X97000499Y-58804992D01*
X96989999Y-58702203D01*
X96934814Y-58535666D01*
X96842712Y-58386344D01*
X96718656Y-58262288D01*
X96569334Y-58170186D01*
X96402797Y-58115001D01*
X96402795Y-58115000D01*
X96300010Y-58104500D01*
X95099998Y-58104500D01*
X95099981Y-58104501D01*
X94997203Y-58115000D01*
X94997200Y-58115001D01*
X94830668Y-58170185D01*
X94830663Y-58170187D01*
X94681342Y-58262289D01*
X94557289Y-58386342D01*
X94465187Y-58535663D01*
X94465186Y-58535666D01*
X94410001Y-58702203D01*
X94410001Y-58702204D01*
X94410000Y-58702204D01*
X94399500Y-58804983D01*
X93353301Y-58804983D01*
X93311859Y-58723650D01*
X93279474Y-58679077D01*
X93279474Y-58679076D01*
X92600000Y-59358551D01*
X92600000Y-59352339D01*
X92572741Y-59250606D01*
X92520080Y-59159394D01*
X92445606Y-59084920D01*
X92354394Y-59032259D01*
X92252661Y-59005000D01*
X92246446Y-59005000D01*
X92925922Y-58325524D01*
X92925921Y-58325523D01*
X92881359Y-58293147D01*
X92881350Y-58293141D01*
X92699031Y-58200244D01*
X92504417Y-58137009D01*
X92302317Y-58105000D01*
X92097683Y-58105000D01*
X91895582Y-58137009D01*
X91700968Y-58200244D01*
X91518644Y-58293143D01*
X91474077Y-58325523D01*
X91474077Y-58325524D01*
X92153554Y-59005000D01*
X92147339Y-59005000D01*
X92045606Y-59032259D01*
X91954394Y-59084920D01*
X91879920Y-59159394D01*
X91827259Y-59250606D01*
X91800000Y-59352339D01*
X91800000Y-59358553D01*
X91120524Y-58679077D01*
X91120523Y-58679077D01*
X91088143Y-58723644D01*
X90995244Y-58905968D01*
X90932009Y-59100582D01*
X90900000Y-59302682D01*
X61686795Y-59302682D01*
X61649597Y-42675135D01*
X68597500Y-42675135D01*
X68597500Y-44294870D01*
X68597501Y-44294876D01*
X68603908Y-44354483D01*
X68654202Y-44489328D01*
X68654206Y-44489335D01*
X68740452Y-44604544D01*
X68740453Y-44604544D01*
X68740454Y-44604546D01*
X68767168Y-44624544D01*
X68808832Y-44655734D01*
X68850702Y-44711668D01*
X68855686Y-44781360D01*
X68822200Y-44842682D01*
X68808832Y-44854266D01*
X68740452Y-44905455D01*
X68654206Y-45020664D01*
X68654202Y-45020671D01*
X68603908Y-45155517D01*
X68597501Y-45215116D01*
X68597500Y-45215135D01*
X68597500Y-46834870D01*
X68597501Y-46834876D01*
X68603908Y-46894483D01*
X68654202Y-47029328D01*
X68654206Y-47029335D01*
X68740452Y-47144544D01*
X68740453Y-47144544D01*
X68740454Y-47144546D01*
X68789447Y-47181222D01*
X68808832Y-47195734D01*
X68850702Y-47251668D01*
X68855686Y-47321360D01*
X68822200Y-47382682D01*
X68808832Y-47394266D01*
X68740452Y-47445455D01*
X68654206Y-47560664D01*
X68654202Y-47560671D01*
X68603908Y-47695517D01*
X68599608Y-47735516D01*
X68597501Y-47755123D01*
X68597500Y-47755135D01*
X68597500Y-49374870D01*
X68597501Y-49374876D01*
X68603908Y-49434483D01*
X68654202Y-49569328D01*
X68654206Y-49569335D01*
X68740452Y-49684544D01*
X68740455Y-49684547D01*
X68809248Y-49736046D01*
X68851119Y-49791980D01*
X68856103Y-49861671D01*
X68822617Y-49922994D01*
X68809249Y-49934578D01*
X68740809Y-49985812D01*
X68654649Y-50100906D01*
X68654645Y-50100913D01*
X68604403Y-50235620D01*
X68604401Y-50235627D01*
X68598000Y-50295155D01*
X68598000Y-50855000D01*
X69491073Y-50855000D01*
X69445792Y-50933429D01*
X69415500Y-51046480D01*
X69415500Y-51163520D01*
X69445792Y-51276571D01*
X69491073Y-51355000D01*
X68598000Y-51355000D01*
X68598000Y-51914844D01*
X68604401Y-51974372D01*
X68604403Y-51974379D01*
X68654645Y-52109086D01*
X68654649Y-52109093D01*
X68740809Y-52224187D01*
X68740812Y-52224190D01*
X68855906Y-52310350D01*
X68855913Y-52310354D01*
X68990620Y-52360596D01*
X68990627Y-52360598D01*
X69050155Y-52366999D01*
X69050172Y-52367000D01*
X69610000Y-52367000D01*
X69610000Y-51473927D01*
X69688429Y-51519208D01*
X69801480Y-51549500D01*
X69918520Y-51549500D01*
X70031571Y-51519208D01*
X70110000Y-51473927D01*
X70110000Y-52367000D01*
X70669828Y-52367000D01*
X70669844Y-52366999D01*
X70729372Y-52360598D01*
X70729379Y-52360596D01*
X70864086Y-52310354D01*
X70864093Y-52310350D01*
X70979186Y-52224191D01*
X71030733Y-52155334D01*
X71086667Y-52113463D01*
X71156359Y-52108479D01*
X71217682Y-52141964D01*
X71229267Y-52155334D01*
X71280813Y-52224191D01*
X71395906Y-52310350D01*
X71395913Y-52310354D01*
X71530620Y-52360596D01*
X71530627Y-52360598D01*
X71590155Y-52366999D01*
X71590172Y-52367000D01*
X72150000Y-52367000D01*
X72150000Y-51473927D01*
X72228429Y-51519208D01*
X72341480Y-51549500D01*
X72458520Y-51549500D01*
X72571571Y-51519208D01*
X72650000Y-51473927D01*
X72650000Y-52367000D01*
X73209828Y-52367000D01*
X73209844Y-52366999D01*
X73269372Y-52360598D01*
X73269379Y-52360596D01*
X73404086Y-52310354D01*
X73404093Y-52310350D01*
X73519187Y-52224190D01*
X73519190Y-52224187D01*
X73605350Y-52109093D01*
X73605354Y-52109086D01*
X73655596Y-51974379D01*
X73655598Y-51974372D01*
X73661999Y-51914844D01*
X73662000Y-51914827D01*
X73662000Y-51355000D01*
X72768927Y-51355000D01*
X72814208Y-51276571D01*
X72844500Y-51163520D01*
X72844500Y-51046480D01*
X72814208Y-50933429D01*
X72768927Y-50855000D01*
X73662000Y-50855000D01*
X73662000Y-50295172D01*
X73661999Y-50295155D01*
X73655598Y-50235627D01*
X73655596Y-50235620D01*
X73605354Y-50100913D01*
X73605350Y-50100906D01*
X73519190Y-49985813D01*
X73450751Y-49934579D01*
X73408880Y-49878645D01*
X73403896Y-49808953D01*
X73437381Y-49747630D01*
X73450742Y-49736052D01*
X73519546Y-49684546D01*
X73605796Y-49569331D01*
X73656091Y-49434483D01*
X73662500Y-49374873D01*
X73662499Y-47795135D01*
X75697500Y-47795135D01*
X75697500Y-49414870D01*
X75697501Y-49414876D01*
X75703908Y-49474483D01*
X75754202Y-49609328D01*
X75754206Y-49609335D01*
X75840452Y-49724544D01*
X75840455Y-49724547D01*
X75882115Y-49755734D01*
X75923986Y-49811668D01*
X75928970Y-49881359D01*
X75895484Y-49942682D01*
X75882115Y-49954266D01*
X75840455Y-49985452D01*
X75840452Y-49985455D01*
X75754206Y-50100664D01*
X75754202Y-50100671D01*
X75703908Y-50235517D01*
X75700039Y-50271510D01*
X75697501Y-50295123D01*
X75697500Y-50295135D01*
X75697500Y-51914870D01*
X75697501Y-51914876D01*
X75703908Y-51974483D01*
X75754202Y-52109328D01*
X75754206Y-52109335D01*
X75840452Y-52224544D01*
X75840455Y-52224547D01*
X75955664Y-52310793D01*
X75955671Y-52310797D01*
X76090517Y-52361091D01*
X76090516Y-52361091D01*
X76097444Y-52361835D01*
X76150127Y-52367500D01*
X77769872Y-52367499D01*
X77829483Y-52361091D01*
X77964331Y-52310796D01*
X78079546Y-52224546D01*
X78130734Y-52156166D01*
X78186667Y-52114297D01*
X78256359Y-52109313D01*
X78317682Y-52142798D01*
X78329261Y-52156161D01*
X78380454Y-52224546D01*
X78426643Y-52259123D01*
X78495664Y-52310793D01*
X78495671Y-52310797D01*
X78630517Y-52361091D01*
X78630516Y-52361091D01*
X78637444Y-52361835D01*
X78690127Y-52367500D01*
X80309872Y-52367499D01*
X80369483Y-52361091D01*
X80504331Y-52310796D01*
X80619546Y-52224546D01*
X80705796Y-52109331D01*
X80756091Y-51974483D01*
X80762500Y-51914873D01*
X80762499Y-50295128D01*
X80756091Y-50235517D01*
X80715179Y-50125827D01*
X80705797Y-50100671D01*
X80705793Y-50100664D01*
X80619547Y-49985455D01*
X80619546Y-49985454D01*
X80600903Y-49971498D01*
X80577884Y-49954265D01*
X80536013Y-49898334D01*
X80531029Y-49828642D01*
X80564514Y-49767319D01*
X80577884Y-49755734D01*
X80619546Y-49724546D01*
X80705796Y-49609331D01*
X80756091Y-49474483D01*
X80762500Y-49414873D01*
X80762499Y-48926153D01*
X84499500Y-48926153D01*
X84499500Y-49083846D01*
X84530261Y-49238489D01*
X84530264Y-49238501D01*
X84590602Y-49384172D01*
X84590609Y-49384185D01*
X84678210Y-49515288D01*
X84678213Y-49515292D01*
X84789707Y-49626786D01*
X84789711Y-49626789D01*
X84920814Y-49714390D01*
X84920827Y-49714397D01*
X85066498Y-49774735D01*
X85066503Y-49774737D01*
X85153189Y-49791980D01*
X85201098Y-49801510D01*
X85263009Y-49833895D01*
X85297583Y-49894610D01*
X85293844Y-49964380D01*
X85280009Y-49992017D01*
X85190612Y-50125809D01*
X85190602Y-50125827D01*
X85130264Y-50271498D01*
X85130261Y-50271510D01*
X85099500Y-50426153D01*
X85099500Y-50583846D01*
X85130261Y-50738489D01*
X85130264Y-50738501D01*
X85190602Y-50884172D01*
X85190609Y-50884185D01*
X85278210Y-51015288D01*
X85278213Y-51015292D01*
X85389707Y-51126786D01*
X85389711Y-51126789D01*
X85520814Y-51214390D01*
X85520827Y-51214397D01*
X85666498Y-51274735D01*
X85666503Y-51274737D01*
X85821153Y-51305499D01*
X85821156Y-51305500D01*
X85821158Y-51305500D01*
X85978844Y-51305500D01*
X85978845Y-51305499D01*
X86133497Y-51274737D01*
X86279179Y-51214394D01*
X86410289Y-51126789D01*
X86521789Y-51015289D01*
X86536724Y-50992936D01*
X86558325Y-50960610D01*
X86611937Y-50915804D01*
X86661427Y-50905500D01*
X98974684Y-50905500D01*
X99022136Y-50914939D01*
X99132397Y-50960610D01*
X99166503Y-50974737D01*
X99321153Y-51005499D01*
X99321156Y-51005500D01*
X99321158Y-51005500D01*
X99478844Y-51005500D01*
X99478845Y-51005499D01*
X99633497Y-50974737D01*
X99779179Y-50914394D01*
X99910289Y-50826789D01*
X100021789Y-50715289D01*
X100109394Y-50584179D01*
X100169737Y-50438497D01*
X100200500Y-50283842D01*
X100200500Y-50126158D01*
X100200500Y-50126155D01*
X100200499Y-50126153D01*
X100174353Y-49994711D01*
X100169737Y-49971503D01*
X100133166Y-49883211D01*
X100109397Y-49825827D01*
X100109390Y-49825814D01*
X100021789Y-49694711D01*
X100021786Y-49694707D01*
X99910292Y-49583213D01*
X99910288Y-49583210D01*
X99779185Y-49495609D01*
X99779172Y-49495602D01*
X99633501Y-49435264D01*
X99633489Y-49435261D01*
X99478845Y-49404500D01*
X99478842Y-49404500D01*
X99321158Y-49404500D01*
X99321155Y-49404500D01*
X99166510Y-49435261D01*
X99166498Y-49435264D01*
X99022136Y-49495061D01*
X98974684Y-49504500D01*
X98527350Y-49504500D01*
X98460311Y-49484815D01*
X98414556Y-49432011D01*
X98404612Y-49362853D01*
X98424248Y-49311609D01*
X98509390Y-49184185D01*
X98509390Y-49184184D01*
X98509394Y-49184179D01*
X98569737Y-49038497D01*
X98600500Y-48883842D01*
X98600500Y-48726158D01*
X98600500Y-48726155D01*
X98600499Y-48726153D01*
X98580543Y-48625827D01*
X98569737Y-48571503D01*
X98537929Y-48494711D01*
X98509397Y-48425827D01*
X98509390Y-48425814D01*
X98421789Y-48294711D01*
X98421786Y-48294707D01*
X98310292Y-48183213D01*
X98310288Y-48183210D01*
X98179185Y-48095609D01*
X98179172Y-48095602D01*
X98033501Y-48035264D01*
X98033489Y-48035261D01*
X97878845Y-48004500D01*
X97878842Y-48004500D01*
X97721158Y-48004500D01*
X97721155Y-48004500D01*
X97566510Y-48035261D01*
X97566498Y-48035264D01*
X97422136Y-48095061D01*
X97374684Y-48104500D01*
X85431004Y-48104500D01*
X85295677Y-48131418D01*
X85295671Y-48131420D01*
X85168187Y-48184225D01*
X85168186Y-48184226D01*
X85123033Y-48214395D01*
X85078345Y-48232907D01*
X85066502Y-48235263D01*
X85066498Y-48235264D01*
X84920827Y-48295602D01*
X84920814Y-48295609D01*
X84789711Y-48383210D01*
X84789707Y-48383213D01*
X84678213Y-48494707D01*
X84678210Y-48494711D01*
X84590609Y-48625814D01*
X84590602Y-48625827D01*
X84530264Y-48771498D01*
X84530261Y-48771510D01*
X84499500Y-48926153D01*
X80762499Y-48926153D01*
X80762499Y-48571510D01*
X80762499Y-47795129D01*
X80762498Y-47795123D01*
X80762497Y-47795116D01*
X80756091Y-47735517D01*
X80705802Y-47600686D01*
X80705797Y-47600671D01*
X80705793Y-47600664D01*
X80619547Y-47485455D01*
X80619544Y-47485452D01*
X80504335Y-47399206D01*
X80504328Y-47399202D01*
X80369482Y-47348908D01*
X80369483Y-47348908D01*
X80309883Y-47342501D01*
X80309881Y-47342500D01*
X80309873Y-47342500D01*
X80309864Y-47342500D01*
X78690129Y-47342500D01*
X78690123Y-47342501D01*
X78630516Y-47348908D01*
X78495671Y-47399202D01*
X78495664Y-47399206D01*
X78380455Y-47485452D01*
X78329266Y-47553832D01*
X78273332Y-47595702D01*
X78203640Y-47600686D01*
X78142318Y-47567200D01*
X78130734Y-47553832D01*
X78100790Y-47513832D01*
X78079546Y-47485454D01*
X78079544Y-47485453D01*
X78079544Y-47485452D01*
X77964335Y-47399206D01*
X77964328Y-47399202D01*
X77829482Y-47348908D01*
X77829483Y-47348908D01*
X77769883Y-47342501D01*
X77769881Y-47342500D01*
X77769873Y-47342500D01*
X77769864Y-47342500D01*
X76150129Y-47342500D01*
X76150123Y-47342501D01*
X76090516Y-47348908D01*
X75955671Y-47399202D01*
X75955664Y-47399206D01*
X75840455Y-47485452D01*
X75840452Y-47485455D01*
X75754206Y-47600664D01*
X75754202Y-47600671D01*
X75703908Y-47735517D01*
X75697501Y-47795116D01*
X75697501Y-47795123D01*
X75697500Y-47795135D01*
X73662499Y-47795135D01*
X73662499Y-47755128D01*
X73656091Y-47695517D01*
X73620721Y-47600686D01*
X73605797Y-47560671D01*
X73605793Y-47560664D01*
X73549490Y-47485454D01*
X73519546Y-47445454D01*
X73451166Y-47394265D01*
X73409297Y-47338333D01*
X73404313Y-47268641D01*
X73437798Y-47207318D01*
X73451161Y-47195738D01*
X73519546Y-47144546D01*
X73605796Y-47029331D01*
X73656091Y-46894483D01*
X73662353Y-46836244D01*
X73689091Y-46771693D01*
X73746484Y-46731845D01*
X73785642Y-46725500D01*
X98254684Y-46725500D01*
X98302136Y-46734939D01*
X98390869Y-46771693D01*
X98446503Y-46794737D01*
X98601153Y-46825499D01*
X98601156Y-46825500D01*
X98601158Y-46825500D01*
X98758844Y-46825500D01*
X98758845Y-46825499D01*
X98913497Y-46794737D01*
X99059179Y-46734394D01*
X99190289Y-46646789D01*
X99301789Y-46535289D01*
X99389394Y-46404179D01*
X99449737Y-46258497D01*
X99480500Y-46103842D01*
X99480500Y-45946158D01*
X99480500Y-45946155D01*
X99480499Y-45946153D01*
X99449738Y-45791510D01*
X99449737Y-45791503D01*
X99389939Y-45647136D01*
X99380500Y-45599684D01*
X99380500Y-40916004D01*
X99353581Y-40780677D01*
X99353580Y-40780676D01*
X99353580Y-40780672D01*
X99308596Y-40672070D01*
X99300778Y-40653195D01*
X99300770Y-40653181D01*
X99284850Y-40629355D01*
X99284850Y-40629354D01*
X99284848Y-40629352D01*
X99224114Y-40538457D01*
X99224111Y-40538453D01*
X97146545Y-38460887D01*
X97031807Y-38384222D01*
X96904332Y-38331421D01*
X96904322Y-38331418D01*
X96768996Y-38304500D01*
X96768994Y-38304500D01*
X96768993Y-38304500D01*
X96725316Y-38304500D01*
X96677864Y-38295061D01*
X96533501Y-38235264D01*
X96533489Y-38235261D01*
X96378845Y-38204500D01*
X96378842Y-38204500D01*
X96221158Y-38204500D01*
X96221155Y-38204500D01*
X96066510Y-38235261D01*
X96066498Y-38235264D01*
X95920827Y-38295602D01*
X95920814Y-38295609D01*
X95789711Y-38383210D01*
X95789707Y-38383213D01*
X95678213Y-38494707D01*
X95678210Y-38494711D01*
X95590609Y-38625814D01*
X95590602Y-38625827D01*
X95530264Y-38771498D01*
X95530261Y-38771510D01*
X95499500Y-38926153D01*
X95499500Y-39083846D01*
X95530261Y-39238489D01*
X95530264Y-39238501D01*
X95590602Y-39384172D01*
X95590609Y-39384185D01*
X95678210Y-39515288D01*
X95678213Y-39515292D01*
X95789707Y-39626786D01*
X95789711Y-39626789D01*
X95920814Y-39714390D01*
X95920827Y-39714397D01*
X95981792Y-39739649D01*
X96066503Y-39774737D01*
X96176898Y-39796696D01*
X96221153Y-39805499D01*
X96221156Y-39805500D01*
X96221158Y-39805500D01*
X96378843Y-39805500D01*
X96423101Y-39796696D01*
X96492693Y-39802923D01*
X96534975Y-39830632D01*
X97943181Y-41238838D01*
X97976666Y-41300161D01*
X97979500Y-41326519D01*
X97979500Y-45200500D01*
X97959815Y-45267539D01*
X97907011Y-45313294D01*
X97855500Y-45324500D01*
X73785641Y-45324500D01*
X73718602Y-45304815D01*
X73672847Y-45252011D01*
X73662351Y-45213753D01*
X73660926Y-45200500D01*
X73656091Y-45155517D01*
X73605802Y-45020686D01*
X73605797Y-45020671D01*
X73605793Y-45020664D01*
X73519547Y-44905456D01*
X73519548Y-44905456D01*
X73519546Y-44905454D01*
X73451166Y-44854265D01*
X73409297Y-44798333D01*
X73404313Y-44728641D01*
X73437798Y-44667318D01*
X73451161Y-44655738D01*
X73519546Y-44604546D01*
X73605796Y-44489331D01*
X73656091Y-44354483D01*
X73662500Y-44294873D01*
X73662499Y-42675128D01*
X73656091Y-42615517D01*
X73613256Y-42500671D01*
X73605797Y-42480671D01*
X73605793Y-42480664D01*
X73519547Y-42365455D01*
X73450750Y-42313953D01*
X73408880Y-42258019D01*
X73403896Y-42188327D01*
X73437382Y-42127005D01*
X73450752Y-42115420D01*
X73519189Y-42064188D01*
X73519190Y-42064187D01*
X73605350Y-41949093D01*
X73605354Y-41949086D01*
X73655596Y-41814379D01*
X73655598Y-41814372D01*
X73661999Y-41754844D01*
X73662000Y-41754827D01*
X73662000Y-41195000D01*
X72768927Y-41195000D01*
X72814208Y-41116571D01*
X72844500Y-41003520D01*
X72844500Y-40886480D01*
X72814208Y-40773429D01*
X72768927Y-40695000D01*
X73662000Y-40695000D01*
X73662000Y-40135172D01*
X73661999Y-40135160D01*
X73658763Y-40105064D01*
X73658763Y-40105061D01*
X73657696Y-40095135D01*
X75697500Y-40095135D01*
X75697500Y-41714870D01*
X75697501Y-41714876D01*
X75703908Y-41774483D01*
X75754202Y-41909328D01*
X75754206Y-41909335D01*
X75840452Y-42024544D01*
X75840453Y-42024544D01*
X75840454Y-42024546D01*
X75882802Y-42056248D01*
X75948906Y-42105734D01*
X75990776Y-42161668D01*
X75995760Y-42231360D01*
X75962274Y-42292682D01*
X75948906Y-42304266D01*
X75840452Y-42385455D01*
X75754206Y-42500664D01*
X75754202Y-42500671D01*
X75703908Y-42635517D01*
X75699650Y-42675127D01*
X75697501Y-42695123D01*
X75697500Y-42695135D01*
X75697500Y-44314870D01*
X75697501Y-44314876D01*
X75703908Y-44374483D01*
X75754202Y-44509328D01*
X75754206Y-44509335D01*
X75840452Y-44624544D01*
X75840455Y-44624547D01*
X75955664Y-44710793D01*
X75955671Y-44710797D01*
X76090517Y-44761091D01*
X76090516Y-44761091D01*
X76097444Y-44761835D01*
X76150127Y-44767500D01*
X77769872Y-44767499D01*
X77829483Y-44761091D01*
X77964331Y-44710796D01*
X78079546Y-44624546D01*
X78130734Y-44556166D01*
X78186667Y-44514297D01*
X78256359Y-44509313D01*
X78317682Y-44542798D01*
X78329261Y-44556161D01*
X78380454Y-44624546D01*
X78422114Y-44655733D01*
X78495664Y-44710793D01*
X78495671Y-44710797D01*
X78630517Y-44761091D01*
X78630516Y-44761091D01*
X78637444Y-44761835D01*
X78690127Y-44767500D01*
X80309872Y-44767499D01*
X80369483Y-44761091D01*
X80504331Y-44710796D01*
X80619546Y-44624546D01*
X80705796Y-44509331D01*
X80756091Y-44374483D01*
X80762500Y-44314873D01*
X80762499Y-42695128D01*
X80756091Y-42635517D01*
X80748631Y-42615517D01*
X80705797Y-42500671D01*
X80705793Y-42500664D01*
X80619547Y-42385455D01*
X80619544Y-42385452D01*
X80511094Y-42304266D01*
X80469223Y-42248333D01*
X80464239Y-42178641D01*
X80497725Y-42117318D01*
X80511094Y-42105734D01*
X80577483Y-42056034D01*
X80619546Y-42024546D01*
X80705796Y-41909331D01*
X80756091Y-41774483D01*
X80762500Y-41714873D01*
X80762499Y-40095128D01*
X80756091Y-40035517D01*
X80721032Y-39941520D01*
X80705797Y-39900671D01*
X80705793Y-39900664D01*
X80619547Y-39785455D01*
X80619544Y-39785452D01*
X80504335Y-39699206D01*
X80504328Y-39699202D01*
X80369482Y-39648908D01*
X80369483Y-39648908D01*
X80309883Y-39642501D01*
X80309881Y-39642500D01*
X80309873Y-39642500D01*
X80309864Y-39642500D01*
X78690129Y-39642500D01*
X78690123Y-39642501D01*
X78630516Y-39648908D01*
X78495671Y-39699202D01*
X78495664Y-39699206D01*
X78380455Y-39785452D01*
X78329266Y-39853832D01*
X78273332Y-39895702D01*
X78203640Y-39900686D01*
X78142318Y-39867200D01*
X78130734Y-39853832D01*
X78094552Y-39805500D01*
X78079546Y-39785454D01*
X78079544Y-39785453D01*
X78079544Y-39785452D01*
X77964335Y-39699206D01*
X77964328Y-39699202D01*
X77829482Y-39648908D01*
X77829483Y-39648908D01*
X77769883Y-39642501D01*
X77769881Y-39642500D01*
X77769873Y-39642500D01*
X77769864Y-39642500D01*
X76150129Y-39642500D01*
X76150123Y-39642501D01*
X76090516Y-39648908D01*
X75955671Y-39699202D01*
X75955664Y-39699206D01*
X75840455Y-39785452D01*
X75840452Y-39785455D01*
X75754206Y-39900664D01*
X75754202Y-39900671D01*
X75703908Y-40035517D01*
X75697501Y-40095116D01*
X75697501Y-40095123D01*
X75697500Y-40095135D01*
X73657696Y-40095135D01*
X73655598Y-40075627D01*
X73655596Y-40075620D01*
X73605354Y-39940913D01*
X73605350Y-39940906D01*
X73519190Y-39825812D01*
X73519187Y-39825809D01*
X73404093Y-39739649D01*
X73404086Y-39739645D01*
X73269379Y-39689403D01*
X73269372Y-39689401D01*
X73209844Y-39683000D01*
X72650000Y-39683000D01*
X72650000Y-40576072D01*
X72571571Y-40530792D01*
X72458520Y-40500500D01*
X72341480Y-40500500D01*
X72228429Y-40530792D01*
X72150000Y-40576072D01*
X72150000Y-39683000D01*
X71590155Y-39683000D01*
X71530627Y-39689401D01*
X71530620Y-39689403D01*
X71395913Y-39739645D01*
X71395906Y-39739649D01*
X71280812Y-39825809D01*
X71229266Y-39894666D01*
X71173332Y-39936536D01*
X71103641Y-39941520D01*
X71042318Y-39908034D01*
X71030734Y-39894666D01*
X70979187Y-39825809D01*
X70864093Y-39739649D01*
X70864086Y-39739645D01*
X70729379Y-39689403D01*
X70729372Y-39689401D01*
X70669844Y-39683000D01*
X70110000Y-39683000D01*
X70110000Y-40576072D01*
X70031571Y-40530792D01*
X69918520Y-40500500D01*
X69801480Y-40500500D01*
X69688429Y-40530792D01*
X69610000Y-40576072D01*
X69610000Y-39683000D01*
X69050155Y-39683000D01*
X68990627Y-39689401D01*
X68990620Y-39689403D01*
X68855913Y-39739645D01*
X68855906Y-39739649D01*
X68740812Y-39825809D01*
X68740809Y-39825812D01*
X68654649Y-39940906D01*
X68654645Y-39940913D01*
X68604403Y-40075620D01*
X68604401Y-40075627D01*
X68598000Y-40135155D01*
X68598000Y-40695000D01*
X69491073Y-40695000D01*
X69445792Y-40773429D01*
X69415500Y-40886480D01*
X69415500Y-41003520D01*
X69445792Y-41116571D01*
X69491073Y-41195000D01*
X68598000Y-41195000D01*
X68598000Y-41754844D01*
X68604401Y-41814372D01*
X68604403Y-41814379D01*
X68654645Y-41949086D01*
X68654649Y-41949093D01*
X68740808Y-42064186D01*
X68809248Y-42115420D01*
X68851119Y-42171354D01*
X68856103Y-42241046D01*
X68822618Y-42302369D01*
X68809249Y-42313953D01*
X68740452Y-42365455D01*
X68654206Y-42480664D01*
X68654202Y-42480671D01*
X68603908Y-42615517D01*
X68597501Y-42675116D01*
X68597501Y-42675123D01*
X68597500Y-42675135D01*
X61649597Y-42675135D01*
X61626299Y-32261213D01*
X107909500Y-32261213D01*
X107909500Y-32473786D01*
X107942753Y-32683739D01*
X107942753Y-32683741D01*
X107942754Y-32683743D01*
X107942754Y-32683744D01*
X108008444Y-32885914D01*
X108104951Y-33075320D01*
X108229890Y-33247286D01*
X108380213Y-33397609D01*
X108552182Y-33522550D01*
X108560946Y-33527016D01*
X108611742Y-33574991D01*
X108628536Y-33642812D01*
X108605998Y-33708947D01*
X108560946Y-33747984D01*
X108552182Y-33752449D01*
X108380213Y-33877390D01*
X108229890Y-34027713D01*
X108104951Y-34199679D01*
X108008444Y-34389085D01*
X107942753Y-34591260D01*
X107909500Y-34801213D01*
X107909500Y-35013786D01*
X107942753Y-35223739D01*
X108008444Y-35425914D01*
X108104951Y-35615320D01*
X108229890Y-35787286D01*
X108380213Y-35937609D01*
X108552182Y-36062550D01*
X108560946Y-36067016D01*
X108611742Y-36114991D01*
X108628536Y-36182812D01*
X108605998Y-36248947D01*
X108560946Y-36287984D01*
X108552182Y-36292449D01*
X108380213Y-36417390D01*
X108229890Y-36567713D01*
X108104951Y-36739679D01*
X108008444Y-36929085D01*
X107942753Y-37131260D01*
X107909500Y-37341213D01*
X107909500Y-37553786D01*
X107942753Y-37763739D01*
X108008444Y-37965914D01*
X108104951Y-38155320D01*
X108229890Y-38327286D01*
X108380213Y-38477609D01*
X108552179Y-38602548D01*
X108552181Y-38602549D01*
X108552184Y-38602551D01*
X108741588Y-38699057D01*
X108943757Y-38764746D01*
X109153713Y-38798000D01*
X109153714Y-38798000D01*
X109366286Y-38798000D01*
X109366287Y-38798000D01*
X109576243Y-38764746D01*
X109778412Y-38699057D01*
X109967816Y-38602551D01*
X110139792Y-38477604D01*
X110253329Y-38364066D01*
X110314648Y-38330584D01*
X110384340Y-38335568D01*
X110440274Y-38377439D01*
X110457189Y-38408417D01*
X110506202Y-38539828D01*
X110506206Y-38539835D01*
X110592452Y-38655044D01*
X110592455Y-38655047D01*
X110707664Y-38741293D01*
X110707671Y-38741297D01*
X110842517Y-38791591D01*
X110842516Y-38791591D01*
X110849444Y-38792335D01*
X110902127Y-38798000D01*
X112697872Y-38797999D01*
X112757483Y-38791591D01*
X112892331Y-38741296D01*
X113007546Y-38655046D01*
X113093796Y-38539831D01*
X113144091Y-38404983D01*
X113150500Y-38345373D01*
X113150499Y-36549628D01*
X113144091Y-36490017D01*
X113142810Y-36486583D01*
X113093797Y-36355171D01*
X113093793Y-36355164D01*
X113007547Y-36239955D01*
X113007544Y-36239952D01*
X112892335Y-36153706D01*
X112892328Y-36153702D01*
X112760917Y-36104689D01*
X112704983Y-36062818D01*
X112680566Y-35997353D01*
X112695418Y-35929080D01*
X112716563Y-35900832D01*
X112830104Y-35787292D01*
X112955051Y-35615316D01*
X113051557Y-35425912D01*
X113117246Y-35223743D01*
X113150500Y-35013787D01*
X113150500Y-34801213D01*
X113117246Y-34591257D01*
X113051557Y-34389088D01*
X112955051Y-34199684D01*
X112955049Y-34199681D01*
X112955048Y-34199679D01*
X112830109Y-34027713D01*
X112679786Y-33877390D01*
X112507817Y-33752449D01*
X112499054Y-33747984D01*
X112448258Y-33700009D01*
X112431464Y-33632188D01*
X112454002Y-33566053D01*
X112499058Y-33527014D01*
X112507816Y-33522552D01*
X112529789Y-33506587D01*
X112679786Y-33397610D01*
X112679788Y-33397607D01*
X112679792Y-33397605D01*
X112830104Y-33247293D01*
X112830106Y-33247289D01*
X112830109Y-33247287D01*
X112955048Y-33075321D01*
X112955049Y-33075320D01*
X112955051Y-33075317D01*
X113051557Y-32885913D01*
X113117246Y-32683744D01*
X113150500Y-32473788D01*
X113150500Y-32261214D01*
X113117246Y-32051258D01*
X113051557Y-31849089D01*
X112955051Y-31659685D01*
X112955049Y-31659682D01*
X112955048Y-31659680D01*
X112830109Y-31487714D01*
X112679786Y-31337391D01*
X112507817Y-31212450D01*
X112498499Y-31207702D01*
X112447705Y-31159727D01*
X112430911Y-31091905D01*
X112453450Y-31025771D01*
X112498509Y-30986731D01*
X112507553Y-30982123D01*
X112561716Y-30942770D01*
X112561717Y-30942770D01*
X111929408Y-30310462D01*
X111992993Y-30293425D01*
X112107007Y-30227599D01*
X112200099Y-30134507D01*
X112265925Y-30020493D01*
X112282962Y-29956909D01*
X112915270Y-30589217D01*
X112915270Y-30589216D01*
X112954622Y-30535054D01*
X113051095Y-30345717D01*
X113116757Y-30143630D01*
X113116757Y-30143627D01*
X113150000Y-29933746D01*
X113150000Y-29721253D01*
X113116757Y-29511372D01*
X113116757Y-29511369D01*
X113051095Y-29309282D01*
X112954624Y-29119949D01*
X112915270Y-29065782D01*
X112915269Y-29065782D01*
X112282962Y-29698090D01*
X112265925Y-29634507D01*
X112200099Y-29520493D01*
X112107007Y-29427401D01*
X111992993Y-29361575D01*
X111929409Y-29344537D01*
X112561716Y-28712228D01*
X112507547Y-28672873D01*
X112507547Y-28672872D01*
X112498500Y-28668263D01*
X112447706Y-28620288D01*
X112430912Y-28552466D01*
X112453451Y-28486332D01*
X112498508Y-28447293D01*
X112507816Y-28442551D01*
X112606187Y-28371081D01*
X112679786Y-28317609D01*
X112679788Y-28317606D01*
X112679792Y-28317604D01*
X112830104Y-28167292D01*
X112830106Y-28167288D01*
X112830109Y-28167286D01*
X112955048Y-27995320D01*
X112955050Y-27995317D01*
X112955051Y-27995316D01*
X113051557Y-27805912D01*
X113117246Y-27603743D01*
X113150500Y-27393787D01*
X113150500Y-27181213D01*
X113117246Y-26971257D01*
X113051557Y-26769088D01*
X112955051Y-26579684D01*
X112955049Y-26579681D01*
X112955048Y-26579679D01*
X112830109Y-26407713D01*
X112679786Y-26257390D01*
X112507820Y-26132451D01*
X112318414Y-26035944D01*
X112318413Y-26035943D01*
X112318412Y-26035943D01*
X112116243Y-25970254D01*
X112116241Y-25970253D01*
X112116240Y-25970253D01*
X111954957Y-25944708D01*
X111906287Y-25937000D01*
X111693713Y-25937000D01*
X111645042Y-25944708D01*
X111483760Y-25970253D01*
X111281585Y-26035944D01*
X111092179Y-26132451D01*
X110920213Y-26257390D01*
X110769890Y-26407713D01*
X110644949Y-26579682D01*
X110640202Y-26588999D01*
X110592227Y-26639793D01*
X110524405Y-26656587D01*
X110458271Y-26634048D01*
X110419234Y-26588995D01*
X110414626Y-26579952D01*
X110375270Y-26525782D01*
X110375269Y-26525782D01*
X109742962Y-27158090D01*
X109725925Y-27094507D01*
X109660099Y-26980493D01*
X109567007Y-26887401D01*
X109452993Y-26821575D01*
X109389409Y-26804537D01*
X110021716Y-26172228D01*
X109967550Y-26132875D01*
X109778217Y-26036404D01*
X109576129Y-25970742D01*
X109366246Y-25937500D01*
X109153754Y-25937500D01*
X108943872Y-25970742D01*
X108943869Y-25970742D01*
X108741782Y-26036404D01*
X108552439Y-26132880D01*
X108498282Y-26172227D01*
X108498282Y-26172228D01*
X109130591Y-26804537D01*
X109067007Y-26821575D01*
X108952993Y-26887401D01*
X108859901Y-26980493D01*
X108794075Y-27094507D01*
X108777037Y-27158091D01*
X108144728Y-26525782D01*
X108144727Y-26525782D01*
X108105380Y-26579939D01*
X108008904Y-26769282D01*
X107943242Y-26971369D01*
X107943242Y-26971372D01*
X107910000Y-27181253D01*
X107910000Y-27393746D01*
X107943242Y-27603627D01*
X107943242Y-27603630D01*
X108008904Y-27805717D01*
X108105375Y-27995050D01*
X108144728Y-28049216D01*
X108777037Y-27416908D01*
X108794075Y-27480493D01*
X108859901Y-27594507D01*
X108952993Y-27687599D01*
X109067007Y-27753425D01*
X109130591Y-27770462D01*
X108529971Y-28371081D01*
X108608711Y-28488395D01*
X108609920Y-28492229D01*
X108612844Y-28494991D01*
X108620343Y-28525278D01*
X108629727Y-28555029D01*
X108628671Y-28558908D01*
X108629638Y-28562812D01*
X108619573Y-28592344D01*
X108611383Y-28622447D01*
X108608397Y-28625140D01*
X108607100Y-28628947D01*
X108562051Y-28667983D01*
X108552440Y-28672880D01*
X108498282Y-28712227D01*
X108498282Y-28712228D01*
X109130591Y-29344537D01*
X109067007Y-29361575D01*
X108952993Y-29427401D01*
X108859901Y-29520493D01*
X108794075Y-29634507D01*
X108777037Y-29698091D01*
X108144728Y-29065782D01*
X108144727Y-29065782D01*
X108105380Y-29119939D01*
X108008904Y-29309282D01*
X107943242Y-29511369D01*
X107943242Y-29511372D01*
X107910000Y-29721253D01*
X107910000Y-29933746D01*
X107943242Y-30143627D01*
X107943242Y-30143630D01*
X108008904Y-30345717D01*
X108105375Y-30535050D01*
X108144728Y-30589216D01*
X108777037Y-29956908D01*
X108794075Y-30020493D01*
X108859901Y-30134507D01*
X108952993Y-30227599D01*
X109067007Y-30293425D01*
X109130590Y-30310462D01*
X108498282Y-30942769D01*
X108498282Y-30942770D01*
X108552452Y-30982126D01*
X108552451Y-30982126D01*
X108561495Y-30986734D01*
X108612292Y-31034708D01*
X108629087Y-31102529D01*
X108606550Y-31168664D01*
X108561499Y-31207702D01*
X108552182Y-31212449D01*
X108380213Y-31337390D01*
X108229890Y-31487713D01*
X108104951Y-31659679D01*
X108008444Y-31849085D01*
X107942753Y-32051260D01*
X107909500Y-32261213D01*
X61626299Y-32261213D01*
X61600278Y-20629682D01*
X61619813Y-20562603D01*
X61672514Y-20516730D01*
X61724683Y-20505410D01*
X122176697Y-20704593D01*
G37*
%TD.AperFunction*%
%TD*%
%TA.AperFunction,Conductor*%
%TO.N,GND_DIG*%
G36*
X122343643Y-67219685D02*
G01*
X122389398Y-67272489D01*
X122400603Y-67323394D01*
X122512582Y-90241901D01*
X122493225Y-90309036D01*
X122440645Y-90355048D01*
X122391517Y-90366472D01*
X121995443Y-90375847D01*
X121927957Y-90357755D01*
X121880965Y-90306048D01*
X121869388Y-90237144D01*
X121870892Y-90227690D01*
X121900500Y-90078844D01*
X121900500Y-89921155D01*
X121900499Y-89921153D01*
X121869738Y-89766510D01*
X121869737Y-89766503D01*
X121869735Y-89766498D01*
X121809397Y-89620827D01*
X121809390Y-89620814D01*
X121721789Y-89489711D01*
X121721786Y-89489707D01*
X121610292Y-89378213D01*
X121610288Y-89378210D01*
X121479185Y-89290609D01*
X121479172Y-89290602D01*
X121333501Y-89230264D01*
X121333489Y-89230261D01*
X121178845Y-89199500D01*
X121178842Y-89199500D01*
X121021158Y-89199500D01*
X121021155Y-89199500D01*
X120866510Y-89230261D01*
X120866498Y-89230264D01*
X120722136Y-89290061D01*
X120674684Y-89299500D01*
X112424500Y-89299500D01*
X112357461Y-89279815D01*
X112311706Y-89227011D01*
X112300500Y-89175500D01*
X112300500Y-80931004D01*
X112273581Y-80795677D01*
X112273580Y-80795676D01*
X112273580Y-80795672D01*
X112273578Y-80795667D01*
X112220778Y-80668195D01*
X112220776Y-80668191D01*
X112220775Y-80668189D01*
X112153112Y-80566924D01*
X112144114Y-80553457D01*
X110740762Y-79150105D01*
X109166547Y-77575889D01*
X109166546Y-77575888D01*
X109051808Y-77499223D01*
X108924333Y-77446422D01*
X108924323Y-77446419D01*
X108788997Y-77419501D01*
X108788995Y-77419501D01*
X108788994Y-77419501D01*
X108323547Y-77419501D01*
X108256508Y-77399816D01*
X108223230Y-77368386D01*
X108130108Y-77240214D01*
X108130107Y-77240212D01*
X107979786Y-77089891D01*
X107807820Y-76964952D01*
X107618414Y-76868445D01*
X107618413Y-76868444D01*
X107618412Y-76868444D01*
X107416243Y-76802755D01*
X107416241Y-76802754D01*
X107416240Y-76802754D01*
X107254957Y-76777209D01*
X107206287Y-76769501D01*
X106993713Y-76769501D01*
X106945042Y-76777209D01*
X106783760Y-76802754D01*
X106581585Y-76868445D01*
X106392179Y-76964952D01*
X106220213Y-77089891D01*
X106069890Y-77240214D01*
X105944951Y-77412180D01*
X105848444Y-77601586D01*
X105782753Y-77803761D01*
X105749500Y-78013714D01*
X105749500Y-78226287D01*
X105782753Y-78436240D01*
X105848444Y-78638415D01*
X105944951Y-78827821D01*
X106069890Y-78999787D01*
X106220213Y-79150110D01*
X106392179Y-79275049D01*
X106392181Y-79275050D01*
X106392184Y-79275052D01*
X106400942Y-79279514D01*
X106451739Y-79327488D01*
X106468535Y-79395308D01*
X106445999Y-79461444D01*
X106400949Y-79500482D01*
X106392183Y-79504948D01*
X106220213Y-79629890D01*
X106069890Y-79780213D01*
X105944951Y-79952179D01*
X105848444Y-80141585D01*
X105782753Y-80343760D01*
X105749500Y-80553713D01*
X105749500Y-80766286D01*
X105782753Y-80976239D01*
X105848444Y-81178414D01*
X105944951Y-81367820D01*
X106069890Y-81539786D01*
X106183818Y-81653714D01*
X106217303Y-81715037D01*
X106212319Y-81784729D01*
X106170447Y-81840662D01*
X106139471Y-81857577D01*
X106007912Y-81906646D01*
X106007906Y-81906649D01*
X105892812Y-81992809D01*
X105892809Y-81992812D01*
X105806649Y-82107906D01*
X105806645Y-82107913D01*
X105756403Y-82242620D01*
X105756401Y-82242627D01*
X105750000Y-82302155D01*
X105750000Y-82950000D01*
X106666988Y-82950000D01*
X106634075Y-83007007D01*
X106600000Y-83134174D01*
X106600000Y-83265826D01*
X106634075Y-83392993D01*
X106666988Y-83450000D01*
X105750000Y-83450000D01*
X105750000Y-84097844D01*
X105756401Y-84157372D01*
X105756403Y-84157379D01*
X105806645Y-84292086D01*
X105806649Y-84292093D01*
X105892809Y-84407187D01*
X105892812Y-84407190D01*
X106007906Y-84493350D01*
X106007913Y-84493354D01*
X106142620Y-84543596D01*
X106142627Y-84543598D01*
X106202155Y-84549999D01*
X106202172Y-84550000D01*
X106850000Y-84550000D01*
X106850000Y-83633012D01*
X106907007Y-83665925D01*
X107034174Y-83700000D01*
X107165826Y-83700000D01*
X107292993Y-83665925D01*
X107350000Y-83633012D01*
X107350000Y-84550000D01*
X107997828Y-84550000D01*
X107997844Y-84549999D01*
X108057372Y-84543598D01*
X108057379Y-84543596D01*
X108192086Y-84493354D01*
X108192093Y-84493350D01*
X108307187Y-84407190D01*
X108307190Y-84407187D01*
X108393350Y-84292093D01*
X108393354Y-84292086D01*
X108443596Y-84157379D01*
X108443598Y-84157372D01*
X108449999Y-84097844D01*
X108450000Y-84097827D01*
X108450000Y-83450000D01*
X107533012Y-83450000D01*
X107565925Y-83392993D01*
X107600000Y-83265826D01*
X107600000Y-83134174D01*
X107565925Y-83007007D01*
X107533012Y-82950000D01*
X108450000Y-82950000D01*
X108450000Y-82302172D01*
X108449999Y-82302155D01*
X108443598Y-82242627D01*
X108443596Y-82242620D01*
X108393354Y-82107913D01*
X108393350Y-82107906D01*
X108307190Y-81992812D01*
X108307187Y-81992809D01*
X108192093Y-81906649D01*
X108192088Y-81906646D01*
X108060528Y-81857577D01*
X108004595Y-81815705D01*
X107980178Y-81750241D01*
X107995030Y-81681968D01*
X108016175Y-81653720D01*
X108130104Y-81539792D01*
X108255051Y-81367816D01*
X108351557Y-81178412D01*
X108417246Y-80976243D01*
X108450500Y-80766287D01*
X108450500Y-80553713D01*
X108417246Y-80343757D01*
X108351557Y-80141588D01*
X108255051Y-79952184D01*
X108255049Y-79952181D01*
X108255048Y-79952179D01*
X108130109Y-79780213D01*
X107979786Y-79629890D01*
X107807817Y-79504949D01*
X107799054Y-79500484D01*
X107748258Y-79452509D01*
X107731464Y-79384688D01*
X107754002Y-79318553D01*
X107799058Y-79279514D01*
X107807816Y-79275052D01*
X107829789Y-79259087D01*
X107979786Y-79150110D01*
X107979788Y-79150107D01*
X107979792Y-79150105D01*
X108130104Y-78999793D01*
X108223229Y-78871615D01*
X108227560Y-78868275D01*
X108229834Y-78863298D01*
X108254933Y-78847167D01*
X108278558Y-78828950D01*
X108285231Y-78827696D01*
X108288612Y-78825524D01*
X108323547Y-78820501D01*
X108378482Y-78820501D01*
X108445521Y-78840186D01*
X108466163Y-78856820D01*
X110863181Y-81253838D01*
X110896666Y-81315161D01*
X110899500Y-81341519D01*
X110899500Y-89175500D01*
X110879815Y-89242539D01*
X110827011Y-89288294D01*
X110775500Y-89299500D01*
X99525316Y-89299500D01*
X99477864Y-89290061D01*
X99333501Y-89230264D01*
X99333489Y-89230261D01*
X99178845Y-89199500D01*
X99178842Y-89199500D01*
X99021158Y-89199500D01*
X99021155Y-89199500D01*
X98866510Y-89230261D01*
X98866498Y-89230264D01*
X98720827Y-89290602D01*
X98720814Y-89290609D01*
X98589711Y-89378210D01*
X98589707Y-89378213D01*
X98478213Y-89489707D01*
X98478210Y-89489711D01*
X98390609Y-89620814D01*
X98390602Y-89620827D01*
X98330264Y-89766498D01*
X98330261Y-89766510D01*
X98299500Y-89921153D01*
X98299500Y-90078846D01*
X98330261Y-90233489D01*
X98330264Y-90233501D01*
X98390602Y-90379172D01*
X98390609Y-90379185D01*
X98478210Y-90510288D01*
X98478213Y-90510292D01*
X98589707Y-90621786D01*
X98589711Y-90621789D01*
X98709005Y-90701499D01*
X98753810Y-90755111D01*
X98762517Y-90824436D01*
X98732363Y-90887463D01*
X98672920Y-90924183D01*
X98643048Y-90928566D01*
X91450168Y-91098812D01*
X91382682Y-91080720D01*
X91363127Y-91065963D01*
X86199999Y-86299999D01*
X81100000Y-86199999D01*
X81100000Y-86200000D01*
X80606153Y-128473375D01*
X80606105Y-128477448D01*
X80585638Y-128544253D01*
X80532303Y-128589388D01*
X80482113Y-128600000D01*
X60526653Y-128600000D01*
X60459614Y-128580315D01*
X60413859Y-128527511D01*
X60402681Y-128473375D01*
X60660413Y-116300498D01*
X60703998Y-114241966D01*
X68379500Y-114241966D01*
X68379500Y-115358028D01*
X68379501Y-115358034D01*
X68390113Y-115477415D01*
X68446089Y-115673045D01*
X68446090Y-115673048D01*
X68446091Y-115673049D01*
X68540302Y-115853407D01*
X68540304Y-115853409D01*
X68668890Y-116011109D01*
X68762803Y-116087684D01*
X68826593Y-116139698D01*
X69006951Y-116233909D01*
X69202582Y-116289886D01*
X69321963Y-116300500D01*
X70438036Y-116300499D01*
X70557418Y-116289886D01*
X70753049Y-116233909D01*
X70933407Y-116139698D01*
X71091109Y-116011109D01*
X71219698Y-115853407D01*
X71313909Y-115673049D01*
X71369886Y-115477418D01*
X71380500Y-115358037D01*
X71380499Y-114241964D01*
X71369886Y-114122582D01*
X71313909Y-113926951D01*
X71219698Y-113746593D01*
X71167684Y-113682803D01*
X71091109Y-113588890D01*
X70933409Y-113460304D01*
X70933410Y-113460304D01*
X70933407Y-113460302D01*
X70753049Y-113366091D01*
X70753048Y-113366090D01*
X70753045Y-113366089D01*
X70635829Y-113332550D01*
X70557418Y-113310114D01*
X70557415Y-113310113D01*
X70557413Y-113310113D01*
X70491102Y-113304217D01*
X70438037Y-113299500D01*
X70438032Y-113299500D01*
X69321971Y-113299500D01*
X69321965Y-113299500D01*
X69321964Y-113299501D01*
X69310316Y-113300536D01*
X69202584Y-113310113D01*
X69006954Y-113366089D01*
X68916772Y-113413196D01*
X68826593Y-113460302D01*
X68826591Y-113460303D01*
X68826590Y-113460304D01*
X68668890Y-113588890D01*
X68540304Y-113746590D01*
X68446089Y-113926954D01*
X68390114Y-114122583D01*
X68390113Y-114122586D01*
X68379500Y-114241966D01*
X60703998Y-114241966D01*
X60802240Y-109601903D01*
X68379500Y-109601903D01*
X68379500Y-109838098D01*
X68416446Y-110071369D01*
X68489433Y-110295997D01*
X68596657Y-110506434D01*
X68735483Y-110697511D01*
X68902490Y-110864518D01*
X69093567Y-111003344D01*
X69192991Y-111054003D01*
X69304003Y-111110567D01*
X69304005Y-111110567D01*
X69304008Y-111110569D01*
X69424412Y-111149690D01*
X69528631Y-111183554D01*
X69761903Y-111220501D01*
X69761908Y-111220501D01*
X69998097Y-111220501D01*
X70231368Y-111183554D01*
X70455992Y-111110569D01*
X70666433Y-111003344D01*
X70857510Y-110864518D01*
X71024517Y-110697511D01*
X71163343Y-110506434D01*
X71270568Y-110295993D01*
X71343553Y-110071369D01*
X71380500Y-109838098D01*
X71380500Y-109601903D01*
X71343553Y-109368632D01*
X71270566Y-109144004D01*
X71163342Y-108933567D01*
X71024517Y-108742491D01*
X70857510Y-108575484D01*
X70666433Y-108436658D01*
X70455996Y-108329434D01*
X70231368Y-108256447D01*
X69998097Y-108219501D01*
X69998092Y-108219501D01*
X69761908Y-108219501D01*
X69761903Y-108219501D01*
X69528631Y-108256447D01*
X69304003Y-108329434D01*
X69093566Y-108436658D01*
X68984550Y-108515863D01*
X68902490Y-108575484D01*
X68902488Y-108575486D01*
X68902487Y-108575486D01*
X68735485Y-108742488D01*
X68735485Y-108742489D01*
X68735483Y-108742491D01*
X68675862Y-108824551D01*
X68596657Y-108933567D01*
X68489433Y-109144004D01*
X68416446Y-109368632D01*
X68379500Y-109601903D01*
X60802240Y-109601903D01*
X60953636Y-102451368D01*
X60963575Y-101981902D01*
X68379500Y-101981902D01*
X68379500Y-102218097D01*
X68416446Y-102451368D01*
X68489433Y-102675996D01*
X68596657Y-102886433D01*
X68735483Y-103077510D01*
X68902490Y-103244517D01*
X69093567Y-103383343D01*
X69192991Y-103434002D01*
X69304003Y-103490566D01*
X69304005Y-103490566D01*
X69304008Y-103490568D01*
X69424412Y-103529689D01*
X69528631Y-103563553D01*
X69761903Y-103600500D01*
X69761908Y-103600500D01*
X69998097Y-103600500D01*
X70231368Y-103563553D01*
X70455992Y-103490568D01*
X70666433Y-103383343D01*
X70857510Y-103244517D01*
X71024517Y-103077510D01*
X71163343Y-102886433D01*
X71270568Y-102675992D01*
X71343553Y-102451368D01*
X71380500Y-102218097D01*
X71380500Y-101981902D01*
X71343553Y-101748631D01*
X71270566Y-101524003D01*
X71163342Y-101313566D01*
X71024517Y-101122490D01*
X70857510Y-100955483D01*
X70666433Y-100816657D01*
X70455996Y-100709433D01*
X70231368Y-100636446D01*
X69998097Y-100599500D01*
X69998092Y-100599500D01*
X69761908Y-100599500D01*
X69761903Y-100599500D01*
X69528631Y-100636446D01*
X69304003Y-100709433D01*
X69093566Y-100816657D01*
X68984550Y-100895862D01*
X68902490Y-100955483D01*
X68902488Y-100955485D01*
X68902487Y-100955485D01*
X68735485Y-101122487D01*
X68735485Y-101122488D01*
X68735483Y-101122490D01*
X68675862Y-101204550D01*
X68596657Y-101313566D01*
X68489433Y-101524003D01*
X68416446Y-101748631D01*
X68379500Y-101981902D01*
X60963575Y-101981902D01*
X60963734Y-101974411D01*
X61194382Y-91080720D01*
X61432163Y-79850133D01*
X102537500Y-79850133D01*
X102537500Y-81469868D01*
X102537501Y-81469874D01*
X102543908Y-81529481D01*
X102594202Y-81664326D01*
X102594206Y-81664333D01*
X102680452Y-81779542D01*
X102680453Y-81779542D01*
X102680454Y-81779544D01*
X102716524Y-81806546D01*
X102748833Y-81830733D01*
X102790703Y-81886667D01*
X102795687Y-81956359D01*
X102762201Y-82017681D01*
X102748833Y-82029265D01*
X102680452Y-82080455D01*
X102594206Y-82195664D01*
X102594202Y-82195671D01*
X102543908Y-82330517D01*
X102537501Y-82390116D01*
X102537501Y-82390123D01*
X102537500Y-82390135D01*
X102537500Y-84009870D01*
X102537501Y-84009876D01*
X102543908Y-84069483D01*
X102594202Y-84204328D01*
X102594206Y-84204335D01*
X102680452Y-84319544D01*
X102680455Y-84319547D01*
X102795664Y-84405793D01*
X102795671Y-84405797D01*
X102930517Y-84456091D01*
X102930516Y-84456091D01*
X102937444Y-84456835D01*
X102990127Y-84462500D01*
X104609872Y-84462499D01*
X104669483Y-84456091D01*
X104804331Y-84405796D01*
X104919546Y-84319546D01*
X105005796Y-84204331D01*
X105056091Y-84069483D01*
X105062500Y-84009873D01*
X105062499Y-83134174D01*
X105062499Y-82390129D01*
X105062498Y-82390123D01*
X105062497Y-82390116D01*
X105056091Y-82330517D01*
X105005796Y-82195669D01*
X105005795Y-82195668D01*
X105005793Y-82195664D01*
X104940102Y-82107913D01*
X104919546Y-82080454D01*
X104851166Y-82029264D01*
X104809296Y-81973332D01*
X104804312Y-81903640D01*
X104837797Y-81842317D01*
X104851166Y-81830733D01*
X104919546Y-81779544D01*
X105005796Y-81664329D01*
X105056091Y-81529481D01*
X105062500Y-81469871D01*
X105062499Y-79850126D01*
X105056091Y-79790515D01*
X105005796Y-79655667D01*
X105005795Y-79655666D01*
X105005793Y-79655662D01*
X104919547Y-79540453D01*
X104919544Y-79540450D01*
X104804335Y-79454204D01*
X104804328Y-79454200D01*
X104669482Y-79403906D01*
X104669483Y-79403906D01*
X104609883Y-79397499D01*
X104609881Y-79397498D01*
X104609873Y-79397498D01*
X104609864Y-79397498D01*
X102990129Y-79397498D01*
X102990123Y-79397499D01*
X102930516Y-79403906D01*
X102795671Y-79454200D01*
X102795664Y-79454204D01*
X102680455Y-79540450D01*
X102680452Y-79540453D01*
X102594206Y-79655662D01*
X102594202Y-79655669D01*
X102543908Y-79790515D01*
X102537501Y-79850114D01*
X102537501Y-79850121D01*
X102537500Y-79850133D01*
X61432163Y-79850133D01*
X61505655Y-76379038D01*
X112694500Y-76379038D01*
X112694500Y-76630961D01*
X112733910Y-76879785D01*
X112811760Y-77119383D01*
X112926132Y-77343848D01*
X113074201Y-77547649D01*
X113074205Y-77547654D01*
X113252345Y-77725794D01*
X113252350Y-77725798D01*
X113359654Y-77803758D01*
X113456155Y-77873870D01*
X113599184Y-77946747D01*
X113680616Y-77988239D01*
X113680618Y-77988239D01*
X113680621Y-77988241D01*
X113920215Y-78066090D01*
X114169038Y-78105500D01*
X114169039Y-78105500D01*
X114420961Y-78105500D01*
X114420962Y-78105500D01*
X114669785Y-78066090D01*
X114909379Y-77988241D01*
X115133845Y-77873870D01*
X115337656Y-77725793D01*
X115515793Y-77547656D01*
X115663870Y-77343845D01*
X115778241Y-77119379D01*
X115856090Y-76879785D01*
X115895500Y-76630962D01*
X115895500Y-76379038D01*
X115856090Y-76130215D01*
X115778241Y-75890621D01*
X115778239Y-75890618D01*
X115778239Y-75890616D01*
X115736747Y-75809184D01*
X115663870Y-75666155D01*
X115644952Y-75640117D01*
X115515798Y-75462350D01*
X115515794Y-75462345D01*
X115337654Y-75284205D01*
X115337649Y-75284201D01*
X115133848Y-75136132D01*
X115133847Y-75136131D01*
X115133845Y-75136130D01*
X115063747Y-75100413D01*
X114909383Y-75021760D01*
X114669785Y-74943910D01*
X114420962Y-74904500D01*
X114169038Y-74904500D01*
X114044626Y-74924205D01*
X113920214Y-74943910D01*
X113680616Y-75021760D01*
X113456151Y-75136132D01*
X113252350Y-75284201D01*
X113252345Y-75284205D01*
X113074205Y-75462345D01*
X113074201Y-75462350D01*
X112926132Y-75666151D01*
X112811760Y-75890616D01*
X112733910Y-76130214D01*
X112694500Y-76379038D01*
X61505655Y-76379038D01*
X61697430Y-67321374D01*
X61718529Y-67254767D01*
X61772290Y-67210141D01*
X61821402Y-67200000D01*
X122276604Y-67200000D01*
X122343643Y-67219685D01*
G37*
%TD.AperFunction*%
%TD*%
%TA.AperFunction,Conductor*%
%TO.N,GND_OUT*%
G36*
X82967029Y-89355676D02*
G01*
X86052214Y-90384071D01*
X86109589Y-90423945D01*
X86123141Y-90444740D01*
X87599999Y-93299999D01*
X87600000Y-93300000D01*
X122475713Y-93110971D01*
X122542852Y-93130291D01*
X122588893Y-93182846D01*
X122600379Y-93234619D01*
X122699653Y-128476894D01*
X122680157Y-128543988D01*
X122627482Y-128589892D01*
X122576899Y-128601237D01*
X83024941Y-128998744D01*
X82957707Y-128979734D01*
X82911424Y-128927392D01*
X82899696Y-128875056D01*
X82883703Y-122301902D01*
X88699500Y-122301902D01*
X88699500Y-122538097D01*
X88736446Y-122771368D01*
X88809433Y-122995996D01*
X88916657Y-123206433D01*
X89055483Y-123397510D01*
X89222490Y-123564517D01*
X89413567Y-123703343D01*
X89512991Y-123754002D01*
X89624003Y-123810566D01*
X89624005Y-123810566D01*
X89624008Y-123810568D01*
X89744412Y-123849689D01*
X89848631Y-123883553D01*
X90081903Y-123920500D01*
X90081908Y-123920500D01*
X90318097Y-123920500D01*
X90551368Y-123883553D01*
X90775992Y-123810568D01*
X90986433Y-123703343D01*
X91177510Y-123564517D01*
X91344517Y-123397510D01*
X91483343Y-123206433D01*
X91590568Y-122995992D01*
X91663553Y-122771368D01*
X91677122Y-122685696D01*
X91700500Y-122538097D01*
X91700500Y-122301902D01*
X91663553Y-122068631D01*
X91590566Y-121844003D01*
X91483342Y-121633566D01*
X91344517Y-121442490D01*
X91177510Y-121275483D01*
X91177506Y-121275480D01*
X91151612Y-121256666D01*
X91108948Y-121201335D01*
X91100500Y-121156350D01*
X91100500Y-120877065D01*
X97424500Y-120877065D01*
X97424500Y-121122934D01*
X97437218Y-121219531D01*
X97456591Y-121366677D01*
X97476905Y-121442490D01*
X97520222Y-121604152D01*
X97520225Y-121604162D01*
X97614303Y-121831285D01*
X97614307Y-121831294D01*
X97636804Y-121870260D01*
X97737233Y-122044208D01*
X97737235Y-122044211D01*
X97737236Y-122044212D01*
X97886897Y-122239254D01*
X97886903Y-122239261D01*
X98060738Y-122413096D01*
X98060744Y-122413101D01*
X98255792Y-122562767D01*
X98468708Y-122685694D01*
X98695847Y-122779778D01*
X98933323Y-122843409D01*
X99177073Y-122875500D01*
X99177080Y-122875500D01*
X99422920Y-122875500D01*
X99422927Y-122875500D01*
X99666677Y-122843409D01*
X99904153Y-122779778D01*
X100131292Y-122685694D01*
X100344208Y-122562767D01*
X100539256Y-122413101D01*
X100713101Y-122239256D01*
X100862767Y-122044208D01*
X100985694Y-121831292D01*
X101079778Y-121604153D01*
X101143409Y-121366677D01*
X101175500Y-121122927D01*
X101175500Y-120877073D01*
X101143409Y-120633323D01*
X101079778Y-120395847D01*
X100985694Y-120168708D01*
X100862767Y-119955792D01*
X100713101Y-119760744D01*
X100713096Y-119760738D01*
X100539261Y-119586903D01*
X100539254Y-119586897D01*
X100344212Y-119437236D01*
X100344211Y-119437235D01*
X100344208Y-119437233D01*
X100131292Y-119314306D01*
X100085077Y-119295163D01*
X99904162Y-119220225D01*
X99904155Y-119220223D01*
X99904153Y-119220222D01*
X99666677Y-119156591D01*
X99625939Y-119151227D01*
X99422934Y-119124500D01*
X99422927Y-119124500D01*
X99177073Y-119124500D01*
X99177065Y-119124500D01*
X98945059Y-119155045D01*
X98933323Y-119156591D01*
X98757139Y-119203799D01*
X98695847Y-119220222D01*
X98695837Y-119220225D01*
X98468714Y-119314303D01*
X98468705Y-119314307D01*
X98255787Y-119437236D01*
X98060745Y-119586897D01*
X98060738Y-119586903D01*
X97886903Y-119760738D01*
X97886897Y-119760745D01*
X97737236Y-119955787D01*
X97614307Y-120168705D01*
X97614303Y-120168714D01*
X97520225Y-120395837D01*
X97520222Y-120395847D01*
X97456592Y-120633320D01*
X97456590Y-120633331D01*
X97424500Y-120877065D01*
X91100500Y-120877065D01*
X91100500Y-120224361D01*
X91120185Y-120157322D01*
X91136819Y-120136680D01*
X95007681Y-116265818D01*
X95069004Y-116232333D01*
X95095362Y-116229499D01*
X96226979Y-116229499D01*
X96294018Y-116249184D01*
X96339773Y-116301988D01*
X96349717Y-116371146D01*
X96320692Y-116434702D01*
X96314660Y-116441180D01*
X96261071Y-116494768D01*
X96261066Y-116494774D01*
X96108368Y-116704945D01*
X95990422Y-116936423D01*
X95910140Y-117183506D01*
X95869500Y-117440097D01*
X95869500Y-117699902D01*
X95910140Y-117956493D01*
X95990422Y-118203576D01*
X96058620Y-118337419D01*
X96108366Y-118435051D01*
X96261069Y-118645229D01*
X96444771Y-118828931D01*
X96654949Y-118981634D01*
X96765838Y-119038135D01*
X96886423Y-119099577D01*
X96886425Y-119099577D01*
X96886428Y-119099579D01*
X97133507Y-119179860D01*
X97265706Y-119200797D01*
X97390098Y-119220500D01*
X97390103Y-119220500D01*
X97649902Y-119220500D01*
X97763298Y-119202539D01*
X97906493Y-119179860D01*
X98153572Y-119099579D01*
X98385051Y-118981634D01*
X98595229Y-118828931D01*
X98778931Y-118645229D01*
X98931634Y-118435051D01*
X99049579Y-118203572D01*
X99129860Y-117956493D01*
X99162640Y-117749524D01*
X99170500Y-117699902D01*
X99170500Y-117440097D01*
X99148947Y-117304021D01*
X99129860Y-117183507D01*
X99049579Y-116936428D01*
X99049577Y-116936425D01*
X99049577Y-116936423D01*
X98984853Y-116809397D01*
X98931634Y-116704949D01*
X98778931Y-116494771D01*
X98725340Y-116441180D01*
X98691855Y-116379857D01*
X98696839Y-116310165D01*
X98738711Y-116254232D01*
X98804175Y-116229815D01*
X98813021Y-116229499D01*
X100758853Y-116229499D01*
X100825892Y-116249184D01*
X100871647Y-116301988D01*
X100881591Y-116371146D01*
X100879428Y-116382442D01*
X100878291Y-116387177D01*
X100847501Y-116581577D01*
X100847501Y-116778422D01*
X100878291Y-116972826D01*
X100939118Y-117160029D01*
X101028477Y-117335405D01*
X101144173Y-117494646D01*
X101283355Y-117633828D01*
X101442596Y-117749524D01*
X101525456Y-117791743D01*
X101617971Y-117838882D01*
X101617973Y-117838882D01*
X101617976Y-117838884D01*
X101805175Y-117899709D01*
X101829182Y-117903511D01*
X101892315Y-117933439D01*
X101929247Y-117992750D01*
X101928251Y-118062612D01*
X101927715Y-118064302D01*
X101894291Y-118167169D01*
X101894291Y-118167172D01*
X101863500Y-118361577D01*
X101863500Y-118558422D01*
X101894290Y-118752826D01*
X101955117Y-118940029D01*
X102005105Y-119038135D01*
X102044476Y-119115405D01*
X102160172Y-119274646D01*
X102299354Y-119413828D01*
X102458595Y-119529524D01*
X102541455Y-119571743D01*
X102633970Y-119618882D01*
X102633972Y-119618882D01*
X102633975Y-119618884D01*
X102734317Y-119651487D01*
X102821173Y-119679709D01*
X103015578Y-119710500D01*
X103015583Y-119710500D01*
X103212422Y-119710500D01*
X103406826Y-119679709D01*
X103408328Y-119679221D01*
X103594025Y-119618884D01*
X103769405Y-119529524D01*
X103928646Y-119413828D01*
X104067828Y-119274646D01*
X104183524Y-119115405D01*
X104222898Y-119038126D01*
X104245698Y-119006747D01*
X104707944Y-118544501D01*
X104731326Y-118631764D01*
X104789911Y-118733236D01*
X104872764Y-118816089D01*
X104974236Y-118874674D01*
X105061497Y-118898055D01*
X104455873Y-119503677D01*
X104455873Y-119503678D01*
X104490858Y-119529096D01*
X104666164Y-119618418D01*
X104853294Y-119679221D01*
X105047618Y-119710000D01*
X105244382Y-119710000D01*
X105438705Y-119679221D01*
X105625835Y-119618418D01*
X105801143Y-119529095D01*
X105836125Y-119503678D01*
X105836126Y-119503678D01*
X105230503Y-118898055D01*
X105317764Y-118874674D01*
X105419236Y-118816089D01*
X105502089Y-118733236D01*
X105560674Y-118631764D01*
X105584055Y-118544502D01*
X106046299Y-119006746D01*
X106069102Y-119038132D01*
X106108472Y-119115400D01*
X106108479Y-119115409D01*
X106224172Y-119274646D01*
X106363354Y-119413828D01*
X106522595Y-119529524D01*
X106605455Y-119571743D01*
X106697970Y-119618882D01*
X106697972Y-119618882D01*
X106697975Y-119618884D01*
X106798317Y-119651487D01*
X106885173Y-119679709D01*
X107079578Y-119710500D01*
X107079583Y-119710500D01*
X107116481Y-119710500D01*
X107183520Y-119730185D01*
X107204162Y-119746819D01*
X107612453Y-120155111D01*
X107612454Y-120155112D01*
X107727190Y-120231776D01*
X107825790Y-120272617D01*
X107854671Y-120284580D01*
X107854672Y-120284580D01*
X107854677Y-120284582D01*
X107881545Y-120289925D01*
X107881551Y-120289926D01*
X107881591Y-120289934D01*
X107971937Y-120307905D01*
X107990006Y-120311500D01*
X107990007Y-120311500D01*
X110081223Y-120311500D01*
X110148262Y-120331185D01*
X110194017Y-120383989D01*
X110203961Y-120453147D01*
X110200998Y-120467593D01*
X110156592Y-120633320D01*
X110156590Y-120633331D01*
X110124500Y-120877065D01*
X110124500Y-121122934D01*
X110137218Y-121219531D01*
X110156591Y-121366677D01*
X110176905Y-121442490D01*
X110220222Y-121604152D01*
X110220225Y-121604162D01*
X110314303Y-121831285D01*
X110314307Y-121831294D01*
X110336804Y-121870260D01*
X110437233Y-122044208D01*
X110437235Y-122044211D01*
X110437236Y-122044212D01*
X110586897Y-122239254D01*
X110586903Y-122239261D01*
X110760738Y-122413096D01*
X110760744Y-122413101D01*
X110955792Y-122562767D01*
X111168708Y-122685694D01*
X111395847Y-122779778D01*
X111633323Y-122843409D01*
X111877073Y-122875500D01*
X111877080Y-122875500D01*
X112122920Y-122875500D01*
X112122927Y-122875500D01*
X112366677Y-122843409D01*
X112604153Y-122779778D01*
X112831292Y-122685694D01*
X113044208Y-122562767D01*
X113239256Y-122413101D01*
X113413101Y-122239256D01*
X113562767Y-122044208D01*
X113685694Y-121831292D01*
X113779778Y-121604153D01*
X113843409Y-121366677D01*
X113875500Y-121122927D01*
X113875500Y-120877073D01*
X113843409Y-120633323D01*
X113779778Y-120395847D01*
X113685694Y-120168708D01*
X113562767Y-119955792D01*
X113413101Y-119760744D01*
X113413096Y-119760738D01*
X113239261Y-119586903D01*
X113239254Y-119586897D01*
X113044212Y-119437236D01*
X113044211Y-119437235D01*
X113044208Y-119437233D01*
X112831292Y-119314306D01*
X112785077Y-119295163D01*
X112604162Y-119220225D01*
X112604155Y-119220223D01*
X112604153Y-119220222D01*
X112366677Y-119156591D01*
X112325939Y-119151227D01*
X112122934Y-119124500D01*
X112122927Y-119124500D01*
X111877073Y-119124500D01*
X111877065Y-119124500D01*
X111645059Y-119155045D01*
X111633323Y-119156591D01*
X111457139Y-119203799D01*
X111395847Y-119220222D01*
X111395831Y-119220227D01*
X111232952Y-119287694D01*
X111163483Y-119295163D01*
X111101004Y-119263888D01*
X111065352Y-119203799D01*
X111061500Y-119173133D01*
X111061500Y-117440097D01*
X112129500Y-117440097D01*
X112129500Y-117699902D01*
X112170140Y-117956493D01*
X112250422Y-118203576D01*
X112318620Y-118337419D01*
X112368366Y-118435051D01*
X112521069Y-118645229D01*
X112704771Y-118828931D01*
X112914949Y-118981634D01*
X113025838Y-119038135D01*
X113146423Y-119099577D01*
X113146425Y-119099577D01*
X113146428Y-119099579D01*
X113393507Y-119179860D01*
X113525706Y-119200797D01*
X113650098Y-119220500D01*
X113650103Y-119220500D01*
X113909902Y-119220500D01*
X114023298Y-119202539D01*
X114166493Y-119179860D01*
X114413572Y-119099579D01*
X114645051Y-118981634D01*
X114855229Y-118828931D01*
X115038931Y-118645229D01*
X115191634Y-118435051D01*
X115309579Y-118203572D01*
X115389860Y-117956493D01*
X115422640Y-117749524D01*
X115430500Y-117699902D01*
X115430500Y-117440097D01*
X115408947Y-117304021D01*
X115389860Y-117183507D01*
X115309579Y-116936428D01*
X115309577Y-116936425D01*
X115309577Y-116936423D01*
X115244853Y-116809397D01*
X115191634Y-116704949D01*
X115038931Y-116494771D01*
X114855229Y-116311069D01*
X114792946Y-116265818D01*
X114645054Y-116158368D01*
X114645053Y-116158367D01*
X114645051Y-116158366D01*
X114572764Y-116121534D01*
X114413576Y-116040422D01*
X114166493Y-115960140D01*
X113909902Y-115919500D01*
X113909897Y-115919500D01*
X113650103Y-115919500D01*
X113650098Y-115919500D01*
X113393506Y-115960140D01*
X113146423Y-116040422D01*
X112914945Y-116158368D01*
X112704774Y-116311066D01*
X112704768Y-116311071D01*
X112521071Y-116494768D01*
X112521066Y-116494774D01*
X112368368Y-116704945D01*
X112250422Y-116936423D01*
X112170140Y-117183506D01*
X112129500Y-117440097D01*
X111061500Y-117440097D01*
X111061500Y-117005713D01*
X111081185Y-116938674D01*
X111133989Y-116892919D01*
X111161302Y-116884097D01*
X111233497Y-116869737D01*
X111379179Y-116809394D01*
X111510289Y-116721789D01*
X111621789Y-116610289D01*
X111709394Y-116479179D01*
X111709395Y-116479176D01*
X111709397Y-116479173D01*
X111769192Y-116334812D01*
X111796069Y-116294586D01*
X114244114Y-113846543D01*
X114320775Y-113731811D01*
X114373580Y-113604328D01*
X114400500Y-113468994D01*
X114400500Y-113331006D01*
X114400500Y-109031007D01*
X114400500Y-109031004D01*
X114373581Y-108895677D01*
X114373580Y-108895676D01*
X114373580Y-108895672D01*
X114373578Y-108895667D01*
X114320777Y-108768192D01*
X114244112Y-108653454D01*
X114244111Y-108653453D01*
X113396071Y-107805414D01*
X113369191Y-107765185D01*
X113309397Y-107620827D01*
X113309390Y-107620814D01*
X113221789Y-107489711D01*
X113221786Y-107489707D01*
X113110292Y-107378213D01*
X113110288Y-107378210D01*
X112979185Y-107290609D01*
X112979172Y-107290602D01*
X112833501Y-107230264D01*
X112833489Y-107230261D01*
X112678845Y-107199500D01*
X112678842Y-107199500D01*
X112521158Y-107199500D01*
X112521155Y-107199500D01*
X112366510Y-107230261D01*
X112366498Y-107230264D01*
X112220827Y-107290602D01*
X112220814Y-107290609D01*
X112089711Y-107378210D01*
X112089707Y-107378213D01*
X111978213Y-107489707D01*
X111978210Y-107489711D01*
X111890609Y-107620814D01*
X111890602Y-107620827D01*
X111830264Y-107766498D01*
X111830261Y-107766510D01*
X111799500Y-107921153D01*
X111799500Y-108078846D01*
X111830261Y-108233489D01*
X111830264Y-108233501D01*
X111890602Y-108379172D01*
X111890609Y-108379185D01*
X111978210Y-108510288D01*
X111978213Y-108510292D01*
X112089707Y-108621786D01*
X112089711Y-108621789D01*
X112220814Y-108709390D01*
X112220827Y-108709397D01*
X112365185Y-108769191D01*
X112405414Y-108796071D01*
X112963181Y-109353838D01*
X112996666Y-109415161D01*
X112999500Y-109441519D01*
X112999500Y-110533522D01*
X112979815Y-110600561D01*
X112927011Y-110646316D01*
X112857853Y-110656260D01*
X112837183Y-110651453D01*
X112802834Y-110640292D01*
X112802827Y-110640291D01*
X112608422Y-110609500D01*
X112608417Y-110609500D01*
X112411583Y-110609500D01*
X112411578Y-110609500D01*
X112217173Y-110640290D01*
X112029970Y-110701117D01*
X111854594Y-110790476D01*
X111763741Y-110856485D01*
X111695354Y-110906172D01*
X111695352Y-110906174D01*
X111695351Y-110906174D01*
X111556173Y-111045352D01*
X111465318Y-111170403D01*
X111409987Y-111213068D01*
X111340374Y-111219047D01*
X111278579Y-111186441D01*
X111264682Y-111170403D01*
X111174693Y-111046545D01*
X111173828Y-111045354D01*
X111034646Y-110906172D01*
X110875405Y-110790476D01*
X110814611Y-110759500D01*
X110700029Y-110701117D01*
X110512826Y-110640290D01*
X110318422Y-110609500D01*
X110318417Y-110609500D01*
X110121583Y-110609500D01*
X110121578Y-110609500D01*
X109927173Y-110640290D01*
X109739970Y-110701117D01*
X109564594Y-110790476D01*
X109473741Y-110856485D01*
X109405354Y-110906172D01*
X109405352Y-110906174D01*
X109405351Y-110906174D01*
X109266174Y-111045351D01*
X109266174Y-111045352D01*
X109266172Y-111045354D01*
X109265307Y-111046545D01*
X109150476Y-111204594D01*
X109061117Y-111379970D01*
X109000290Y-111567173D01*
X108969500Y-111761577D01*
X108969500Y-111958422D01*
X109000290Y-112152826D01*
X109061117Y-112340029D01*
X109143112Y-112500952D01*
X109150476Y-112515405D01*
X109266172Y-112674646D01*
X109405354Y-112813828D01*
X109564595Y-112929524D01*
X109647455Y-112971743D01*
X109739970Y-113018882D01*
X109739972Y-113018882D01*
X109739975Y-113018884D01*
X109824762Y-113046433D01*
X109927173Y-113079709D01*
X110121578Y-113110500D01*
X110121583Y-113110500D01*
X110318422Y-113110500D01*
X110512826Y-113079709D01*
X110700025Y-113018884D01*
X110875405Y-112929524D01*
X111034646Y-112813828D01*
X111173828Y-112674646D01*
X111264683Y-112549594D01*
X111320012Y-112506931D01*
X111389626Y-112500952D01*
X111451421Y-112533558D01*
X111465313Y-112549591D01*
X111556172Y-112674646D01*
X111695354Y-112813828D01*
X111854595Y-112929524D01*
X111937455Y-112971743D01*
X112029970Y-113018882D01*
X112029972Y-113018882D01*
X112029975Y-113018884D01*
X112114762Y-113046433D01*
X112217173Y-113079709D01*
X112411578Y-113110500D01*
X112411583Y-113110500D01*
X112608421Y-113110500D01*
X112670183Y-113100717D01*
X112695382Y-113096726D01*
X112764676Y-113105680D01*
X112818128Y-113150676D01*
X112838768Y-113217427D01*
X112820044Y-113284741D01*
X112802462Y-113306880D01*
X110805412Y-115303929D01*
X110765184Y-115330809D01*
X110620823Y-115390604D01*
X110620814Y-115390609D01*
X110489714Y-115478208D01*
X110466969Y-115500953D01*
X110405645Y-115534437D01*
X110335953Y-115529451D01*
X110291608Y-115500951D01*
X105136819Y-110346162D01*
X105103334Y-110284839D01*
X105100500Y-110258481D01*
X105100500Y-107425316D01*
X105109939Y-107377864D01*
X105146082Y-107290606D01*
X105169737Y-107233497D01*
X105200500Y-107078842D01*
X105200500Y-106921158D01*
X105200500Y-106921155D01*
X105200499Y-106921153D01*
X105169738Y-106766510D01*
X105169737Y-106766503D01*
X105169735Y-106766498D01*
X105109397Y-106620827D01*
X105109390Y-106620814D01*
X105021789Y-106489711D01*
X105021786Y-106489707D01*
X104910292Y-106378213D01*
X104910288Y-106378210D01*
X104779185Y-106290609D01*
X104779172Y-106290602D01*
X104633501Y-106230264D01*
X104633489Y-106230261D01*
X104478845Y-106199500D01*
X104478842Y-106199500D01*
X104321158Y-106199500D01*
X104321155Y-106199500D01*
X104166510Y-106230261D01*
X104166498Y-106230264D01*
X104020827Y-106290602D01*
X104020814Y-106290609D01*
X103889711Y-106378210D01*
X103889707Y-106378213D01*
X103778213Y-106489707D01*
X103778210Y-106489711D01*
X103690609Y-106620814D01*
X103690602Y-106620827D01*
X103630264Y-106766498D01*
X103630261Y-106766510D01*
X103599500Y-106921153D01*
X103599500Y-107078846D01*
X103630261Y-107233489D01*
X103630264Y-107233501D01*
X103690061Y-107377864D01*
X103699500Y-107425316D01*
X103699500Y-110531006D01*
X103699500Y-110668994D01*
X103699500Y-110668996D01*
X103699499Y-110668996D01*
X103726418Y-110804322D01*
X103726421Y-110804332D01*
X103779222Y-110931807D01*
X103855887Y-111046545D01*
X103855888Y-111046546D01*
X108047170Y-115237827D01*
X108080655Y-115299150D01*
X108075671Y-115368842D01*
X108033799Y-115424775D01*
X107978887Y-115447981D01*
X107901173Y-115460289D01*
X107713970Y-115521116D01*
X107538594Y-115610475D01*
X107447741Y-115676484D01*
X107379354Y-115726171D01*
X107379352Y-115726173D01*
X107379351Y-115726173D01*
X107265681Y-115839844D01*
X107204358Y-115873329D01*
X107134666Y-115868345D01*
X107090319Y-115839844D01*
X106976648Y-115726173D01*
X106976646Y-115726171D01*
X106817405Y-115610475D01*
X106642029Y-115521116D01*
X106454826Y-115460289D01*
X106260422Y-115429499D01*
X106260417Y-115429499D01*
X106236361Y-115429499D01*
X106169322Y-115409814D01*
X106148680Y-115393180D01*
X105385041Y-114629539D01*
X105385040Y-114629538D01*
X105385036Y-114629535D01*
X105325959Y-114590062D01*
X105237547Y-114530986D01*
X105155606Y-114497045D01*
X105073666Y-114463104D01*
X105073658Y-114463102D01*
X104899696Y-114428499D01*
X104899692Y-114428499D01*
X104899691Y-114428499D01*
X94759693Y-114428499D01*
X94582309Y-114428499D01*
X94582304Y-114428499D01*
X94408342Y-114463102D01*
X94408330Y-114463105D01*
X94326393Y-114497044D01*
X94326394Y-114497045D01*
X94244456Y-114530984D01*
X94096966Y-114629534D01*
X94096965Y-114629536D01*
X89500538Y-119225961D01*
X89500537Y-119225962D01*
X89470796Y-119270474D01*
X89468364Y-119274114D01*
X89401987Y-119373453D01*
X89378358Y-119430500D01*
X89375371Y-119437710D01*
X89375367Y-119437718D01*
X89337517Y-119529096D01*
X89334105Y-119537334D01*
X89305729Y-119679993D01*
X89305729Y-119679994D01*
X89299500Y-119711307D01*
X89299500Y-121156350D01*
X89279815Y-121223389D01*
X89248388Y-121256666D01*
X89222493Y-121275480D01*
X89222487Y-121275485D01*
X89055485Y-121442487D01*
X89055485Y-121442488D01*
X89055483Y-121442490D01*
X88995862Y-121524550D01*
X88916657Y-121633566D01*
X88809433Y-121844003D01*
X88736446Y-122068631D01*
X88699500Y-122301902D01*
X82883703Y-122301902D01*
X82858982Y-112141902D01*
X88699500Y-112141902D01*
X88699500Y-112378097D01*
X88736446Y-112611368D01*
X88809433Y-112835996D01*
X88900160Y-113014056D01*
X88916657Y-113046433D01*
X89055483Y-113237510D01*
X89222490Y-113404517D01*
X89413567Y-113543343D01*
X89512991Y-113594002D01*
X89624003Y-113650566D01*
X89624005Y-113650566D01*
X89624008Y-113650568D01*
X89744412Y-113689689D01*
X89848631Y-113723553D01*
X90081903Y-113760500D01*
X90081908Y-113760500D01*
X90318097Y-113760500D01*
X90551368Y-113723553D01*
X90775992Y-113650568D01*
X90986433Y-113543343D01*
X91177510Y-113404517D01*
X91344517Y-113237510D01*
X91483343Y-113046433D01*
X91590568Y-112835992D01*
X91663553Y-112611368D01*
X91681041Y-112500952D01*
X91700500Y-112378097D01*
X91700500Y-112141902D01*
X91663553Y-111908631D01*
X91626641Y-111795030D01*
X91615772Y-111761577D01*
X97539500Y-111761577D01*
X97539500Y-111958422D01*
X97570290Y-112152826D01*
X97631117Y-112340029D01*
X97713112Y-112500952D01*
X97720476Y-112515405D01*
X97836172Y-112674646D01*
X97975354Y-112813828D01*
X98134595Y-112929524D01*
X98217455Y-112971743D01*
X98309970Y-113018882D01*
X98309972Y-113018882D01*
X98309975Y-113018884D01*
X98394762Y-113046433D01*
X98497173Y-113079709D01*
X98691578Y-113110500D01*
X98691583Y-113110500D01*
X98888422Y-113110500D01*
X99082826Y-113079709D01*
X99270025Y-113018884D01*
X99445405Y-112929524D01*
X99604646Y-112813828D01*
X99743828Y-112674646D01*
X99834683Y-112549594D01*
X99890012Y-112506931D01*
X99959626Y-112500952D01*
X100021421Y-112533558D01*
X100035313Y-112549591D01*
X100126172Y-112674646D01*
X100265354Y-112813828D01*
X100424595Y-112929524D01*
X100507455Y-112971743D01*
X100599970Y-113018882D01*
X100599972Y-113018882D01*
X100599975Y-113018884D01*
X100684762Y-113046433D01*
X100787173Y-113079709D01*
X100981578Y-113110500D01*
X100981583Y-113110500D01*
X101178422Y-113110500D01*
X101372826Y-113079709D01*
X101560025Y-113018884D01*
X101735405Y-112929524D01*
X101894646Y-112813828D01*
X102033828Y-112674646D01*
X102149524Y-112515405D01*
X102238884Y-112340025D01*
X102299709Y-112152826D01*
X102301439Y-112141902D01*
X102330500Y-111958422D01*
X102330500Y-111761577D01*
X102299709Y-111567173D01*
X102238882Y-111379970D01*
X102189212Y-111282487D01*
X102149524Y-111204595D01*
X102033828Y-111045354D01*
X101894646Y-110906172D01*
X101735405Y-110790476D01*
X101674611Y-110759500D01*
X101560029Y-110701117D01*
X101372826Y-110640290D01*
X101178422Y-110609500D01*
X101178417Y-110609500D01*
X100981583Y-110609500D01*
X100981578Y-110609500D01*
X100787173Y-110640290D01*
X100599970Y-110701117D01*
X100424594Y-110790476D01*
X100333741Y-110856485D01*
X100265354Y-110906172D01*
X100265352Y-110906174D01*
X100265351Y-110906174D01*
X100126173Y-111045352D01*
X100035318Y-111170403D01*
X99979987Y-111213068D01*
X99910374Y-111219047D01*
X99848579Y-111186441D01*
X99834682Y-111170403D01*
X99744693Y-111046545D01*
X99743828Y-111045354D01*
X99604646Y-110906172D01*
X99445405Y-110790476D01*
X99384611Y-110759500D01*
X99270029Y-110701117D01*
X99082826Y-110640290D01*
X98888422Y-110609500D01*
X98888417Y-110609500D01*
X98691583Y-110609500D01*
X98691578Y-110609500D01*
X98497173Y-110640290D01*
X98309970Y-110701117D01*
X98134594Y-110790476D01*
X98043741Y-110856485D01*
X97975354Y-110906172D01*
X97975352Y-110906174D01*
X97975351Y-110906174D01*
X97836174Y-111045351D01*
X97836174Y-111045352D01*
X97836172Y-111045354D01*
X97835307Y-111046545D01*
X97720476Y-111204594D01*
X97631117Y-111379970D01*
X97570290Y-111567173D01*
X97539500Y-111761577D01*
X91615772Y-111761577D01*
X91590568Y-111684008D01*
X91483343Y-111473567D01*
X91344517Y-111282490D01*
X91177510Y-111115483D01*
X90986433Y-110976657D01*
X90775996Y-110869433D01*
X90551368Y-110796446D01*
X90318097Y-110759500D01*
X90318092Y-110759500D01*
X90081908Y-110759500D01*
X90081903Y-110759500D01*
X89848631Y-110796446D01*
X89624003Y-110869433D01*
X89413566Y-110976657D01*
X89319018Y-111045351D01*
X89222490Y-111115483D01*
X89222488Y-111115485D01*
X89222487Y-111115485D01*
X89055485Y-111282487D01*
X89055485Y-111282488D01*
X89055483Y-111282490D01*
X89004454Y-111352725D01*
X88916657Y-111473566D01*
X88809433Y-111684003D01*
X88736446Y-111908631D01*
X88699500Y-112141902D01*
X82858982Y-112141902D01*
X82834262Y-101981947D01*
X88700000Y-101981947D01*
X88700000Y-102218052D01*
X88736934Y-102451247D01*
X88809897Y-102675802D01*
X88917087Y-102886174D01*
X88977338Y-102969104D01*
X88977340Y-102969105D01*
X89621918Y-102324526D01*
X89650563Y-102393680D01*
X89718414Y-102495227D01*
X89804773Y-102581586D01*
X89906320Y-102649437D01*
X89975472Y-102678080D01*
X89330893Y-103322658D01*
X89413828Y-103382914D01*
X89624197Y-103490102D01*
X89848752Y-103563065D01*
X89848751Y-103563065D01*
X90081948Y-103600000D01*
X90318052Y-103600000D01*
X90551247Y-103563065D01*
X90775802Y-103490102D01*
X90986163Y-103382918D01*
X90986169Y-103382914D01*
X91069104Y-103322658D01*
X91069105Y-103322658D01*
X90424527Y-102678081D01*
X90493680Y-102649437D01*
X90595227Y-102581586D01*
X90681586Y-102495227D01*
X90749437Y-102393680D01*
X90778080Y-102324527D01*
X91422658Y-102969105D01*
X91422658Y-102969104D01*
X91482914Y-102886169D01*
X91482918Y-102886163D01*
X91590102Y-102675802D01*
X91663065Y-102451247D01*
X91700000Y-102218052D01*
X91700000Y-101981947D01*
X91663065Y-101748752D01*
X91590102Y-101524197D01*
X91482914Y-101313828D01*
X91422658Y-101230894D01*
X91422658Y-101230893D01*
X90778080Y-101875471D01*
X90749437Y-101806320D01*
X90681586Y-101704773D01*
X90595227Y-101618414D01*
X90493680Y-101550563D01*
X90424527Y-101521919D01*
X91069105Y-100877340D01*
X91069104Y-100877338D01*
X90986174Y-100817087D01*
X90775802Y-100709897D01*
X90551247Y-100636934D01*
X90551248Y-100636934D01*
X90318052Y-100600000D01*
X90081948Y-100600000D01*
X89848752Y-100636934D01*
X89624197Y-100709897D01*
X89413830Y-100817084D01*
X89330894Y-100877340D01*
X89975472Y-101521918D01*
X89906320Y-101550563D01*
X89804773Y-101618414D01*
X89718414Y-101704773D01*
X89650563Y-101806320D01*
X89621918Y-101875472D01*
X88977340Y-101230894D01*
X88917084Y-101313830D01*
X88809897Y-101524197D01*
X88736934Y-101748752D01*
X88700000Y-101981947D01*
X82834262Y-101981947D01*
X82816839Y-94821153D01*
X84499500Y-94821153D01*
X84499500Y-94978846D01*
X84530261Y-95133489D01*
X84530264Y-95133501D01*
X84590602Y-95279172D01*
X84590609Y-95279185D01*
X84678210Y-95410288D01*
X84678213Y-95410292D01*
X84789707Y-95521786D01*
X84789711Y-95521789D01*
X84920814Y-95609390D01*
X84920827Y-95609397D01*
X85066498Y-95669735D01*
X85066503Y-95669737D01*
X85221153Y-95700499D01*
X85221156Y-95700500D01*
X85221158Y-95700500D01*
X85378844Y-95700500D01*
X85378845Y-95700499D01*
X85533497Y-95669737D01*
X85608963Y-95638478D01*
X85677864Y-95609939D01*
X85725316Y-95600500D01*
X98774684Y-95600500D01*
X98822136Y-95609939D01*
X98966498Y-95669735D01*
X98966503Y-95669737D01*
X99121153Y-95700499D01*
X99121156Y-95700500D01*
X99121158Y-95700500D01*
X99278844Y-95700500D01*
X99278845Y-95700499D01*
X99433497Y-95669737D01*
X99508963Y-95638478D01*
X99577864Y-95609939D01*
X99625316Y-95600500D01*
X109774684Y-95600500D01*
X109822136Y-95609939D01*
X109966498Y-95669735D01*
X109966503Y-95669737D01*
X110121153Y-95700499D01*
X110121156Y-95700500D01*
X110121158Y-95700500D01*
X110278844Y-95700500D01*
X110278845Y-95700499D01*
X110433497Y-95669737D01*
X110508963Y-95638478D01*
X110577864Y-95609939D01*
X110625316Y-95600500D01*
X120674684Y-95600500D01*
X120722136Y-95609939D01*
X120866498Y-95669735D01*
X120866503Y-95669737D01*
X121021153Y-95700499D01*
X121021156Y-95700500D01*
X121021158Y-95700500D01*
X121178844Y-95700500D01*
X121178845Y-95700499D01*
X121333497Y-95669737D01*
X121479179Y-95609394D01*
X121610289Y-95521789D01*
X121721789Y-95410289D01*
X121809394Y-95279179D01*
X121869737Y-95133497D01*
X121900500Y-94978842D01*
X121900500Y-94821158D01*
X121900500Y-94821155D01*
X121900499Y-94821153D01*
X121869738Y-94666510D01*
X121869737Y-94666503D01*
X121869735Y-94666498D01*
X121809397Y-94520827D01*
X121809390Y-94520814D01*
X121721789Y-94389711D01*
X121721786Y-94389707D01*
X121610292Y-94278213D01*
X121610288Y-94278210D01*
X121479185Y-94190609D01*
X121479172Y-94190602D01*
X121333501Y-94130264D01*
X121333489Y-94130261D01*
X121178845Y-94099500D01*
X121178842Y-94099500D01*
X121021158Y-94099500D01*
X121021155Y-94099500D01*
X120866510Y-94130261D01*
X120866498Y-94130264D01*
X120722136Y-94190061D01*
X120674684Y-94199500D01*
X110625316Y-94199500D01*
X110577864Y-94190061D01*
X110433501Y-94130264D01*
X110433489Y-94130261D01*
X110278845Y-94099500D01*
X110278842Y-94099500D01*
X110121158Y-94099500D01*
X110121155Y-94099500D01*
X109966510Y-94130261D01*
X109966498Y-94130264D01*
X109822136Y-94190061D01*
X109774684Y-94199500D01*
X99625316Y-94199500D01*
X99577864Y-94190061D01*
X99433501Y-94130264D01*
X99433489Y-94130261D01*
X99278845Y-94099500D01*
X99278842Y-94099500D01*
X99121158Y-94099500D01*
X99121155Y-94099500D01*
X98966510Y-94130261D01*
X98966498Y-94130264D01*
X98822136Y-94190061D01*
X98774684Y-94199500D01*
X85725316Y-94199500D01*
X85677864Y-94190061D01*
X85533501Y-94130264D01*
X85533489Y-94130261D01*
X85378845Y-94099500D01*
X85378842Y-94099500D01*
X85221158Y-94099500D01*
X85221155Y-94099500D01*
X85066510Y-94130261D01*
X85066498Y-94130264D01*
X84920827Y-94190602D01*
X84920814Y-94190609D01*
X84789711Y-94278210D01*
X84789707Y-94278213D01*
X84678213Y-94389707D01*
X84678210Y-94389711D01*
X84590609Y-94520814D01*
X84590602Y-94520827D01*
X84530264Y-94666498D01*
X84530261Y-94666510D01*
X84499500Y-94821153D01*
X82816839Y-94821153D01*
X82803828Y-89473615D01*
X82823350Y-89406531D01*
X82876042Y-89360647D01*
X82945176Y-89350536D01*
X82967029Y-89355676D01*
G37*
%TD.AperFunction*%
%TD*%
M02*
