M48
; DRILL file KiCad 10.0.1-10.0.1~ubuntu25.10.1 date 2026-05-18T09:27:45
; FORMAT={3:3/ absolute / metric / suppress leading zeros}
; #@! TF.CreationDate,2026-05-18T09:27:45+00:00
; #@! TF.GenerationSoftware,Kicad,Pcbnew,10.0.1-10.0.1~ubuntu25.10.1
; #@! TF.FileFunction,Plated,1,2,PTH
FMAT,2
METRIC,TZ
; #@! TA.AperFunction,Plated,PTH,ViaDrill
T1C0.300
; #@! TA.AperFunction,Plated,PTH,ComponentDrill
T2C0.800
; #@! TA.AperFunction,Plated,PTH,ComponentDrill
T3C0.889
; #@! TA.AperFunction,Plated,PTH,ComponentDrill
T4C0.890
; #@! TA.AperFunction,Plated,PTH,ComponentDrill
T5C1.000
; #@! TA.AperFunction,Plated,PTH,ComponentDrill
T6C1.240
; #@! TA.AperFunction,Plated,PTH,ComponentDrill
T7C1.400
; #@! TA.AperFunction,Plated,PTH,ComponentDrill
T8C1.570
; #@! TA.AperFunction,Plated,PTH,ComponentDrill
T9C3.000
%
G90
G05
T1
X68800Y-128300
X69000Y-64600
X70400Y-116900
X73100Y-80000
X77000Y-71100
X78800Y-98500
X80200Y-84700
X82100Y-90900
X82700Y-63000
X83700Y-86300
X84200Y-72200
X84600Y-50600
X84700Y-154000
X85100Y-42900
X85700Y-144600
X86100Y-130800
X87200Y-134200
X87400Y-100500
X87900Y-131400
X88100Y-99300
X89100Y-157800
X89300Y-150600
X90200Y-121500
X90200Y-126100
X91600Y-90800
X91700Y-86300
X91900Y-80000
X91900Y-126300
X93000Y-126000
X93100Y-120200
X93700Y-130200
X94026Y-68200
X94100Y-131700
X94300Y-126700
X95100Y-100700
X97100Y-133200
X97300Y-130600
X97600Y-93500
X99300Y-127000
X102100Y-126400
X102900Y-81000
X102926Y-71800
X104526Y-67400
X105126Y-68900
X106000Y-84600
X107600Y-45900
X107800Y-51000
X107800Y-52600
X107800Y-54400
X107900Y-56100
X110500Y-146829
X110700Y-50600
X110700Y-52300
X110800Y-45900
X111100Y-146829
X111700Y-146829
X112600Y-121300
X114500Y-116000
X114600Y-95200
X114700Y-121500
X114800Y-126400
X115226Y-62900
X115526Y-57400
X115600Y-143100
X117026Y-67200
X117100Y-134600
X117100Y-139100
X117600Y-91300
X117906Y-64420
X118626Y-68600
X118800Y-132700
X119100Y-139900
X120000Y-138500
X120626Y-52300
X120900Y-139500
X120900Y-144800
X121000Y-134500
X122888Y-51750
X123700Y-147600
X124226Y-47800
X124626Y-67000
X124826Y-55300
X125400Y-140900
X125800Y-126400
X126200Y-81200
X126400Y-147600
X127300Y-77600
X127800Y-138400
X127826Y-66837
X127905Y-64421
X129200Y-134700
X130300Y-143900
X131400Y-140100
X132600Y-145600
X132800Y-132400
X132900Y-86100
X133500Y-140100
X134026Y-71700
X134750Y-145350
X135100Y-130900
X135800Y-134100
X136500Y-132800
X136500Y-140100
X136700Y-121500
X136700Y-126400
T2
X111426Y-77800
X114926Y-77800
T3
X89086Y-59340
X89086Y-61880
X89086Y-64420
X89086Y-66960
X89086Y-69500
X91626Y-59340
X91626Y-61880
X91626Y-64420
X91626Y-66960
X91626Y-69500
X96186Y-59300
X96186Y-61900
X96186Y-67000
X96186Y-69500
X98726Y-59300
X98726Y-61900
X98726Y-67000
X98726Y-69500
X119400Y-112160
X119400Y-114700
T4
X114380Y-144800
X116670Y-144800
X117688Y-149620
X118704Y-151400
X119720Y-149620
X120736Y-151400
X121752Y-149620
X122768Y-151400
X123784Y-149620
X124800Y-151400
X125810Y-144800
X128100Y-144800
T5
X67760Y-60800
X67760Y-63340
X67760Y-65880
X67760Y-68420
X67760Y-70960
X67760Y-73500
X67760Y-76040
X67760Y-78580
X67760Y-81120
X67760Y-83660
X67760Y-86200
X67760Y-88740
X67760Y-91280
X67760Y-93820
X67760Y-96360
X67760Y-98900
X67760Y-101440
X67760Y-103980
X67760Y-106520
X67760Y-109060
X70300Y-60800
X70300Y-63340
X70300Y-65880
X70300Y-68420
X70300Y-70960
X70300Y-73500
X70300Y-76040
X70300Y-78580
X70300Y-81120
X70300Y-83660
X70300Y-86200
X70300Y-88740
X70300Y-91280
X70300Y-93820
X70300Y-96360
X70300Y-98900
X70300Y-101440
X70300Y-103980
X70300Y-106520
X70300Y-109060
X122700Y-109620
X122700Y-112160
X122700Y-114700
X128486Y-45683
X128486Y-48223
X128486Y-50762
X128486Y-53303
X128486Y-55843
X131026Y-45683
X131026Y-48223
X131026Y-50763
X131026Y-53303
X131026Y-55843
T6
X83083Y-133200
X83083Y-140820
X83083Y-145900
X103402Y-133200
X103402Y-143360
X103402Y-153520
T7
X72600Y-135600
X72600Y-139500
T8
X113110Y-150510
X129370Y-150510
T9
X57100Y-137200
X70400Y-44800
X143200Y-56600
X143400Y-136300
T5
G00X68443Y-149700
M15
G01X68443Y-147700
M16
G05
G00X72143Y-145700
M15
G01X74143Y-145700
M16
G05
G00X72143Y-151700
M15
G01X74143Y-151700
M16
G05
M30
