M48
; DRILL file KiCad 10.0.1-10.0.1~ubuntu25.10.1 date 2026-05-16T02:43:43
; FORMAT={3:3/ absolute / metric / suppress leading zeros}
; #@! TF.CreationDate,2026-05-16T02:43:43+00:00
; #@! TF.GenerationSoftware,Kicad,Pcbnew,10.0.1-10.0.1~ubuntu25.10.1
; #@! TF.FileFunction,Plated,1,2,PTH
FMAT,2
METRIC,TZ
; #@! TA.AperFunction,Plated,PTH,ViaDrill
T1C0.300
; #@! TA.AperFunction,Plated,PTH,ComponentDrill
T2C0.800
; #@! TA.AperFunction,Plated,PTH,ComponentDrill
T3C0.889
; #@! TA.AperFunction,Plated,PTH,ComponentDrill
T4C0.890
; #@! TA.AperFunction,Plated,PTH,ComponentDrill
T5C1.000
; #@! TA.AperFunction,Plated,PTH,ComponentDrill
T6C1.240
; #@! TA.AperFunction,Plated,PTH,ComponentDrill
T7C1.570
; #@! TA.AperFunction,Plated,PTH,ComponentDrill
T8C3.000
%
G90
G05
T1
X74800Y-49805
X83700Y-53405
X85300Y-49005
X85300Y-94900
X85900Y-50505
X96000Y-44505
X96300Y-39005
X97800Y-48805
X98680Y-46025
X99100Y-90000
X99200Y-94900
X99400Y-50205
X101400Y-33905
X101500Y-103100
X101500Y-107600
X103200Y-101200
X103500Y-108400
X103663Y-33355
X104400Y-107000
X105000Y-29405
X105300Y-108000
X105400Y-48605
X105400Y-103000
X105600Y-36905
X108600Y-48443
X108679Y-46026
X110200Y-94900
X111000Y-116100
X112600Y-108000
X113600Y-103200
X121100Y-90000
X121100Y-94900
T2
X92200Y-59405
X95700Y-59405
T3
X69860Y-40945
X69860Y-43485
X69860Y-46025
X69860Y-48565
X69860Y-51105
X72400Y-40945
X72400Y-43485
X72400Y-46025
X72400Y-48565
X72400Y-51105
X76960Y-40905
X76960Y-43505
X76960Y-48605
X76960Y-51105
X79500Y-40905
X79500Y-43505
X79500Y-48605
X79500Y-51105
X103800Y-80660
X103800Y-83200
T4
X98790Y-111860
X101080Y-111860
X102098Y-116680
X103114Y-118460
X104130Y-116680
X105146Y-118460
X106162Y-116680
X107178Y-118460
X108194Y-116680
X109210Y-118460
X110220Y-111860
X112510Y-111860
T5
X53160Y-25805
X53160Y-28345
X53160Y-30885
X53160Y-33425
X53160Y-35965
X53160Y-38505
X53160Y-41045
X53160Y-43585
X53160Y-46125
X53160Y-48665
X53160Y-51205
X53160Y-53745
X53160Y-56285
X53160Y-58825
X53160Y-61365
X53160Y-63905
X53160Y-66445
X53160Y-68985
X53160Y-71525
X53160Y-74065
X55700Y-25805
X55700Y-28345
X55700Y-30885
X55700Y-33425
X55700Y-35965
X55700Y-38505
X55700Y-41045
X55700Y-43585
X55700Y-46125
X55700Y-48665
X55700Y-51205
X55700Y-53745
X55700Y-56285
X55700Y-58825
X55700Y-61365
X55700Y-63905
X55700Y-66445
X55700Y-68985
X55700Y-71525
X55700Y-74065
X107100Y-78120
X107100Y-80660
X107100Y-83200
X109260Y-27288
X109260Y-29828
X109260Y-32368
X109260Y-34908
X109260Y-37447
X111800Y-27288
X111800Y-29828
X111800Y-32368
X111800Y-34908
X111800Y-37447
T6
X69880Y-102100
X69880Y-109720
X69880Y-114800
X90200Y-102100
X90200Y-112260
X90200Y-122420
T7
X97520Y-117570
X113780Y-117570
T8
X27700Y-149202
X27700Y-156301
X27700Y-163401
X27700Y-170500
M30
